<?xml version="1.0" encoding="UTF-8"?>
<svg width="18px" height="18px" viewBox="0 0 18 18" version="1.1" xmlns="http://www.w3.org/2000/svg" xmlns:xlink="http://www.w3.org/1999/xlink">
    <!-- Generator: sketchtool 53.2 (72643) - https://sketchapp.com -->
    <title>DA1CE925-1BC4-44F6-B4F8-735018B6F326</title>
    <desc>Created with sketchtool.</desc>
    <g id="CloudFox" stroke="none" stroke-width="1" fill="none" fill-rule="evenodd">
        <g id="0.0-Login" transform="translate(-540.000000, -537.000000)">
            <g id="login-with-google" transform="translate(521.000000, 521.000000)">
                <g id="G-icon" transform="translate(18.000000, 14.000000)">
                    <path d="M9.999882,20.000024 C6.41259,20.000024 3.321882,17.897132 1.876068,14.860329 L4.74867,12.993233 C5.554296,15.113461 7.596882,16.624927 9.999882,16.624927 C11.313144,16.624927 12.518496,16.172222 13.47543,15.417831 L16.146126,17.571576 C14.537448,19.076882 12.376944,20.000024 9.999882,20.000024 Z" id="4" fill="#34A853"></path>
                    <path d="M9.999882,1.99992 C12.48561,1.99992 14.73165,3.01129 16.358832,4.64143 L13.97151,7.02865 C12.953934,6.01034 11.553336,5.37501 9.999882,5.37501 C7.671132,5.37501 5.672736,6.79054 4.818294,8.80789 L1.942092,6.99166 C3.41667,4.03306 6.470136,1.99992 9.999882,1.99992 Z" id="3" fill="#EA4335"></path>
                    <path d="M1.88994,14.906941 C1.319628,13.725277 1.00005,12.399898 1.00005,11.000159 L1.00005,11.000159 C1.00005,9.52837 1.355598,8.140577 1.98165,6.91422 L4.784388,8.899588 C4.522608,9.548797 4.374894,10.256559 4.374894,11.000159 C4.374894,11.705996 4.510794,12.378712 4.748166,13.001323 L1.88994,14.906941 Z" id="2" fill="#FBBC05"></path>
                    <path d="M15.366704,12.687705 L9.999896,12.687705 L9.999896,9.312234 L18.839684,9.312234 C18.943472,9.85933 18.99998,10.423003 18.99998,11.000162 C18.99998,12.222284 18.755168,13.386612 18.314072,14.449608 L17.644856,15.748015 C17.197604,16.466964 16.652732,17.118472 16.027436,17.682915 L13.315388,15.541897 C14.273612,14.84068 15.002936,13.845873 15.366704,12.687705 Z" id="1" fill="#4285F4"></path>
                </g>
            </g>
        </g>
    </g>
</svg>