<?xml version="1.0" encoding="UTF-8"?>
<svg width="250px" height="69px" viewBox="0 0 250 69" version="1.1" xmlns="http://www.w3.org/2000/svg" xmlns:xlink="http://www.w3.org/1999/xlink">
    <!-- Generator: sketchtool 53.2 (72643) - https://sketchapp.com -->
    <title>7BD1AD77-E35C-463D-B5E2-6E345262FC8E</title>
    <desc>Created with sketchtool.</desc>
    <defs>
        <linearGradient x1="36.5722039%" y1="-3.54754135%" x2="54.6251777%" y2="104.137504%" id="linearGradient-1">
            <stop stop-color="#F78D1E" offset="0%"></stop>
            <stop stop-color="#E33C26" offset="100%"></stop>
        </linearGradient>
        <linearGradient x1="56.3703532%" y1="23.9997385%" x2="50.3035343%" y2="63.167045%" id="linearGradient-2">
            <stop stop-color="#F78D1E" offset="0%"></stop>
            <stop stop-color="#E33C26" offset="100%"></stop>
        </linearGradient>
        <linearGradient x1="47.2977099%" y1="45.6332195%" x2="54.0152672%" y2="53.4026566%" id="linearGradient-3">
            <stop stop-color="#FAAB5D" offset="0%"></stop>
            <stop stop-color="#E33C26" offset="100%"></stop>
        </linearGradient>
        <linearGradient x1="-0.358516165%" y1="50.0460879%" x2="100.007589%" y2="50.0460879%" id="linearGradient-4">
            <stop stop-color="#F78D1E" offset="0%"></stop>
            <stop stop-color="#E33C26" offset="100%"></stop>
        </linearGradient>
        <linearGradient x1="0%" y1="50.0467659%" x2="99.9991305%" y2="50.0467659%" id="linearGradient-5">
            <stop stop-color="#F78D1E" offset="0%"></stop>
            <stop stop-color="#E33C26" offset="100%"></stop>
        </linearGradient>
        <linearGradient x1="22.5218659%" y1="73.005167%" x2="59.7667638%" y2="12.3509967%" id="linearGradient-6">
            <stop stop-color="#F78D1E" offset="0%"></stop>
            <stop stop-color="#E33C26" offset="100%"></stop>
        </linearGradient>
    </defs>
    <g id="CloudFox" stroke="none" stroke-width="1" fill="none" fill-rule="evenodd">
        <g id="0.0-Login" transform="translate(-558.000000, -45.000000)">
            <g id="Logo-Oficial" transform="translate(558.000000, 45.000000)">
                <g id="cloudfox" transform="translate(124.488727, 28.636364)" fill="#231F20">
                    <path d="M5.26962773,20.4829545 C3.86144504,19.6727103 2.73873226,18.4686324 2.04878696,17.0286932 C1.26946687,15.3761963 0.884611807,13.5745201 0.92287701,11.7578125 C0.876963734,9.93466457 1.26210579,8.12552258 2.04878696,6.46903409 C2.74993034,5.04330258 3.87062546,3.8507298 5.26962773,3.04161932 C6.77684593,2.21675134 8.48603547,1.80241378 10.2162485,1.84247159 C11.5144088,1.82804013 12.80491,2.03710522 14.0277306,2.45994318 C15.1571545,2.84910472 16.1821198,3.47907067 17.0270808,4.30340909 L16.1595764,6.02159091 C15.3221484,5.29764385 14.3641505,4.71667686 13.326344,4.30340909 C12.340957,3.94654711 11.2957075,3.77054188 10.2439348,3.784375 C8.30121465,3.67777144 6.41585194,4.4433631 5.13119618,5.86051136 C3.80719055,7.54837141 3.15220057,9.64110595 3.28544216,11.7578125 C3.28544216,14.3291193 3.9006935,16.3068182 5.13119618,17.6909091 C6.41094131,19.121761 8.30324376,19.8953985 10.2531636,19.7849432 C11.3049363,19.7987763 12.3501858,19.6227711 13.3355728,19.2659091 C14.3733793,18.8526413 15.3313772,18.2716743 16.1688052,17.5477273 L17.0363096,19.2659091 C16.1890111,20.0874211 15.1647448,20.7169574 14.0369593,21.109375 C12.8141388,21.532213 11.5236375,21.7412781 10.2254773,21.7268466 C8.48735827,21.7590053 6.77336989,21.3288033 5.26962773,20.4829545 Z" id="Path"></path>
                    <polygon id="Path" points="20.6355299 21.503125 20.6355299 1.40397727 22.9150362 1.40397727 22.9150362 21.503125"></polygon>
                    <path d="M29.6704959,20.8230114 C28.6534885,20.2330195 27.835735,19.3685472 27.3171595,18.3352273 C26.2217404,15.9358822 26.2217404,13.1996292 27.3171595,10.8002841 C27.8383836,9.7687147 28.6555152,8.90489981 29.6704959,8.3125 C31.8664922,7.15722435 34.5160511,7.15722435 36.7120475,8.3125 C37.7293961,8.90208565 38.5472551,9.76666944 39.0653838,10.8002841 C40.1724501,13.1972283 40.1724501,15.938283 39.0653838,18.3352273 C38.5495118,19.3703287 37.7311181,20.2354778 36.7120475,20.8230114 C34.5195537,21.9915924 31.8629897,21.9915924 29.6704959,20.8230114 L29.6704959,20.8230114 Z M36.4351844,18.5142045 C37.2611208,17.3605745 37.6581389,15.9689786 37.5610943,14.5677557 C37.6571437,13.1682323 37.2494242,11.779751 36.407498,10.6392045 C35.6175967,9.73810319 34.441918,9.24244203 33.2235724,9.296875 C31.9769384,9.21817221 30.7653922,9.71596895 29.9565877,10.6392045 C29.1187279,11.7680816 28.7109867,13.1439849 28.8029915,14.5319602 C28.704147,15.9346763 29.104855,17.3277869 29.9381302,18.4784091 C30.7433999,19.4211893 31.9632354,19.9361891 33.2235724,19.865483 C34.4532715,19.9276102 35.6419558,19.427474 36.4351844,18.5142045 L36.4351844,18.5142045 Z" id="Shape" fill-rule="nonzero"></path>
                    <path d="M55.2987904,7.76661932 L55.2987904,21.503125 L53.0746568,21.503125 L53.0746568,19.1316761 C52.6651805,19.9286046 52.0233783,20.5913929 51.2289028,21.0377841 C50.3824305,21.4914879 49.4272349,21.7199566 48.4602718,21.7 C47.0510133,21.798424 45.6670832,21.2988638 44.6672473,20.3308239 C43.7228377,19.1903603 43.2609539,17.7443639 43.3752195,16.2859375 L43.3752195,7.76661932 L45.6547257,7.76661932 L45.6547257,16.2322443 C45.5830012,17.1900386 45.8642613,18.1414208 46.4483999,18.9169034 C47.0677936,19.5457147 47.9441787,19.8738246 48.8386514,19.8117898 C49.9654536,19.8711286 51.0654085,19.4646523 51.865688,18.6931818 C52.6580414,17.8392933 53.0723808,16.7175443 53.0192842,15.5700284 L53.0192842,7.76661932 L55.2987904,7.76661932 Z" id="Path"></path>
                    <path d="M72.1689822,1.40397727 L72.1689822,21.503125 L69.9171623,21.503125 L69.9171623,19.0153409 C69.5297011,19.847415 68.8845674,20.5417943 68.0714083,21.0019886 C67.179948,21.480328 66.1737291,21.7211655 65.1551169,21.7 C63.9929493,21.7221995 62.8499343,21.4108659 61.8696748,20.8051136 C60.9026086,20.1798014 60.1378906,19.3017622 59.6639987,18.2725852 C58.6177654,15.8820145 58.6177654,13.181906 59.6639987,10.7913352 C60.127968,9.781188 60.8805541,8.9210024 61.8327597,8.3125 C62.8200396,7.71462806 63.9635203,7.40404004 65.1274306,7.41761364 C66.1404601,7.39400211 67.1413838,7.63509811 68.0252644,8.115625 C68.8350291,8.56364195 69.48031,9.24566551 69.8710184,10.0664773 L69.8710184,1.40397727 L72.1689822,1.40397727 Z M68.7912523,18.487358 C70.2921943,16.0865937 70.2921943,13.0757642 68.7912523,10.675 C68.0072087,9.7470764 66.8151459,9.23555396 65.5796403,9.296875 C64.3376763,9.22951174 63.1339273,9.72550591 62.3218845,10.6392045 C61.4819503,11.7504611 61.0704689,13.1121321 61.1590595,14.4872159 C61.07051,15.892865 61.4808663,17.2855511 62.3218845,18.4336648 C63.1156528,19.377626 64.3251125,19.8992294 65.5796403,19.8386364 C66.8111919,19.91083 68.0043399,19.4088157 68.7912523,18.487358 L68.7912523,18.487358 Z" id="Shape" fill-rule="nonzero"></path>
                    <polygon id="Path" points="76.1927259 21.503125 76.1927259 2.06619318 90.1835414 2.06619318 90.1835414 6.07528409 81.3977523 6.07528409 81.3977523 9.65482955 89.6205864 9.65482955 89.6205864 13.6370739 81.3977523 13.6370739 81.3977523 21.5299716"></polygon>
                    <path d="M95.1117047,20.849858 C93.9501027,20.2992001 92.9856347,19.4232145 92.3430736,18.3352273 C91.0755468,15.9171032 91.0755468,13.0573287 92.3430736,10.6392045 C92.9856347,9.55121731 93.9501027,8.67523175 95.1117047,8.12457386 C96.4096983,7.51080493 97.8392461,7.20412574 99.2831087,7.2296875 C100.713071,7.19542929 102.129772,7.50275213 103.408369,8.12457386 C104.564848,8.67822526 105.527725,9.54965342 106.177,10.6302557 C107.444272,13.0421301 107.444272,15.8965062 106.177,18.3083807 C105.527725,19.3889829 104.564848,20.2604111 103.408369,20.8140625 C102.129772,21.4358842 100.713071,21.7432071 99.2831087,21.7089489 C97.8422218,21.7456577 96.412821,21.451276 95.1117047,20.849858 L95.1117047,20.849858 Z M102.042511,14.4872159 C102.119381,13.5431239 101.876355,12.6005022 101.350353,11.8025568 C100.852717,11.1955739 100.081374,10.8616683 99.2831087,10.9076705 C98.4714849,10.8604739 97.685678,11.1932134 97.1697204,11.8025568 C96.636022,12.5975389 96.3893459,13.5417275 96.4683339,14.4872159 C96.3935133,15.4323612 96.6398551,16.3752706 97.1697204,17.171875 C97.685678,17.7812184 98.4714849,18.1139579 99.2831087,18.0667614 C101.119634,18.0399148 102.042511,16.8497159 102.042511,14.4872159 L102.042511,14.4872159 Z" id="Shape" fill-rule="nonzero"></path>
                    <polygon id="Path" points="118.543552 14.352983 124.652998 21.5120739 118.681983 21.5120739 115.645718 17.7982955 112.600224 21.5120739 106.656896 21.5120739 112.775571 14.352983 107.053733 7.63238636 113.024747 7.63238636 115.673404 10.9613636 118.294375 7.63238636 124.320762 7.63238636"></polygon>
                </g>
                <g id="fox">
                    <path d="M67.2192001,12.0314189 C70.3941927,21.0070946 56.4130852,11.7212838 56.4130852,11.7212838 C56.4130852,11.7212838 55.3640379,4.33277027 57.6106701,-2.7533531e-14 C57.6106701,-2.7533531e-14 65.5760022,7.47060811 67.2192001,12.0314189 Z" id="Path" fill="url(#linearGradient-1)"></path>
                    <path d="M63.5150422,33.4125 C63.5150422,33.4125 66.5786315,36.5412162 65.9751972,38.9858108 C65.9751972,38.9858108 62.1967704,34.7442568 61.3333952,34.7077703 C60.4700201,34.6712838 63.5150422,33.4125 63.5150422,33.4125 Z" id="Path" fill="#DF4F26"></path>
                    <path d="M76.4842368,22.4847973 C73.3649459,17.7597973 69.9857141,10.7452703 57.8613274,11.6118243 C57.7127897,11.475 57.5549684,11.3381757 57.37858,11.2013514 C49.3296954,4.69763514 42.5805153,4.70675676 42.5805153,4.70675676 C42.4969629,9.1125 45.6998062,14.4942568 46.7395699,16.1179054 C45.6255374,17.0939189 39.2384179,22.8040541 38.6535509,25.4310811 L40.5102716,24.7560811 C40.5102716,24.7560811 34.2716898,36.1581081 34.1602866,41.3118243 C36.2724272,39.857074 38.5161077,38.5960327 40.8630486,37.5445946 C43.3603381,36.6324324 47.9650056,36.5412162 49.4225314,34.8537162 C50.8800572,33.1662162 54.6863348,31.6064189 57.6292373,31.8070946 C60.5721397,32.0077703 62.7723538,34.2243243 64.2670141,35.0635135 C65.7616743,35.9027027 64.7033435,32.8469595 68.3982178,32.4638514 C72.0930922,32.0807432 85.8421096,36.2949324 87.3460534,27.6293919 C87.3831878,27.6293919 79.3250196,26.7902027 76.4842368,22.4847973 Z" id="Path" fill="url(#linearGradient-2)"></path>
                    <path d="M86.3434242,47.2956081 C85.6008686,43.5684713 83.0084087,40.4541633 79.4377218,38.999825 C75.8670349,37.5454867 71.7924134,37.9442972 68.5838899,40.0621622 C64.4837768,32.7723282 56.1176269,28.8533162 47.7720056,30.3131109 C39.4263844,31.7729056 32.9507391,38.2880065 31.6629971,46.5202703 C30.8191303,46.3326375 29.9566432,46.2377979 29.0914388,46.2375 C24.5597885,46.2398429 20.4490158,48.8480967 18.5823992,52.9054054 C17.4263208,52.3489234 16.1563124,52.0587985 14.8689576,52.0570946 C10.2387061,52.2067407 6.56393563,55.9381114 6.56393563,60.4900338 C6.56393563,65.0419562 10.2387061,68.7733269 14.8689576,68.922973 L81.543801,68.922973 C86.9674246,68.9194127 91.6565721,65.2052533 92.8111212,59.9984035 C93.9656703,54.7915536 91.2739935,49.4974087 86.3434242,47.2773649 L86.3434242,47.2956081 Z" id="Path" fill="#F27621"></path>
                    <path d="M86.3434242,47.2956081 C85.6008686,43.5684713 83.0084087,40.4541633 79.4377218,38.999825 C75.8670349,37.5454867 71.7924134,37.9442972 68.5838899,40.0621622 C64.4837768,32.7723282 56.1176269,28.8533162 47.7720056,30.3131109 C39.4263844,31.7729056 32.9507391,38.2880065 31.6629971,46.5202703 C30.8191303,46.3326375 29.9566432,46.2377979 29.0914388,46.2375 C24.5597885,46.2398429 20.4490158,48.8480967 18.5823992,52.9054054 C17.4263208,52.3489234 16.1563124,52.0587985 14.8689576,52.0570946 C10.2387061,52.2067407 6.56393563,55.9381114 6.56393563,60.4900338 C6.56393563,65.0419562 10.2387061,68.7733269 14.8689576,68.922973 L81.543801,68.922973 C86.9674246,68.9194127 91.6565721,65.2052533 92.8111212,59.9984035 C93.9656703,54.7915536 91.2739935,49.4974087 86.3434242,47.2773649 L86.3434242,47.2956081 Z" id="Path" fill="#DF4F26"></path>
                    <path d="M87.3831878,27.6293919 C87.3831878,27.6293919 62.6795178,25.1391892 57.7777749,30.7125 C57.4762142,31.0511141 57.2088296,31.4176991 56.979385,31.8070946 C57.2081689,31.793412 57.4375878,31.793412 57.6663717,31.8070946 C60.6092741,32.0077703 62.8094883,34.2243243 64.3041485,35.0635135 C65.7988087,35.9027027 64.7404779,32.8469595 68.4353522,32.4638514 C71.4989415,32.1445946 82.2307877,35.6199324 85.6564375,31.0135135 C86.3078003,29.9243654 86.8846588,28.793826 87.3831878,27.6293919 L87.3831878,27.6293919 Z" id="Path" fill="url(#linearGradient-3)"></path>
                    <path d="M86.3434242,47.2956081 C85.6008686,43.5684713 83.0084087,40.4541633 79.4377218,38.999825 C75.8670349,37.5454867 71.7924134,37.9442972 68.5838899,40.0621622 C64.4837768,32.7723282 56.1176269,28.8533162 47.7720056,30.3131109 C39.4263844,31.7729056 32.9507391,38.2880065 31.6629971,46.5202703 C30.8191303,46.3326375 29.9566432,46.2377979 29.0914388,46.2375 C24.5597885,46.2398429 20.4490158,48.8480967 18.5823992,52.9054054 C17.4263208,52.3489234 16.1563124,52.0587985 14.8689576,52.0570946 C10.2387061,52.2067407 6.56393563,55.9381114 6.56393563,60.4900338 C6.56393563,65.0419562 10.2387061,68.7733269 14.8689576,68.922973 L81.543801,68.922973 C86.9674246,68.9194127 91.6565721,65.2052533 92.8111212,59.9984035 C93.9656703,54.7915536 91.2739935,49.4974087 86.3434242,47.2773649 L86.3434242,47.2956081 Z" id="Path" fill="url(#linearGradient-4)"></path>
                    <path d="M48.4291858,44.8601351 C46.4424946,41.102027 42.2555892,32.3635135 28.6086914,32.7192568 C28.6086914,32.7192568 18.0996518,32.4547297 13.4857006,45.489527 C8.87174949,58.5243243 0.655760022,53.6168919 0.655760022,53.6168919 C0.655760022,53.6168919 0.757879665,69.1966216 15.9551393,68.9047297 C17.1155043,62.186055 20.3802795,55.9904524 25.2944448,51.1814189 C37.4002643,39.4418919 50.4808623,48.7368243 48.4291858,44.8601351 Z" id="Path" fill="url(#linearGradient-5)"></path>
                    <path d="M3.32015435,54.5016892 C2.50877942,54.3949807 1.71940331,54.1641465 0.980686159,53.8175676 L0.655760022,53.7081081 C0.655760022,54.7662162 1.17564184,69.6891892 15.9551393,68.9320946 C17.1100085,62.2036684 20.3751719,55.997762 25.2944448,51.1814189 C25.5729529,50.9168919 25.8514611,50.6706081 26.1299692,50.4243243 C26.1299692,50.4243243 10.9512768,56.8550676 3.32015435,54.5016892 Z" id="Path" fill="url(#linearGradient-6)"></path>
                </g>
            </g>
        </g>
    </g>
</svg>