<svg width="26" height="18" viewBox="0 0 26 18" fill="none" xmlns="http://www.w3.org/2000/svg">
<g clip-path="url(#clip0_27:410)">
<path fill-rule="evenodd" clip-rule="evenodd" d="M25.0526 15.4709C25.051 16.0201 24.8321 16.5462 24.4439 16.9345C24.0556 17.3228 23.5294 17.5417 22.9803 17.5433H2.25657C1.70744 17.5417 1.18127 17.3228 0.792973 16.9345C0.404678 16.5462 0.185821 16.0201 0.184204 15.4709L0.184204 3.03672C0.185821 2.48759 0.404678 1.96142 0.792973 1.57312C1.18127 1.18483 1.70744 0.965972 2.25657 0.964355L22.9803 0.964355C23.5294 0.965972 24.0556 1.18483 24.4439 1.57312C24.8321 1.96142 25.051 2.48759 25.0526 3.03672V15.4709Z" fill="#129AD7"/>
<path d="M6.97407 8.31408L7.4666 9.4493H6.44309L6.97407 8.31408ZM16.0179 10.0925H14.3066V9.47744H16.0179V8.91832H14.3066V8.41521H16.0179V7.93994L17.2874 9.20944L16.0179 10.4848V10.0925ZM17.7911 8.7612L16.9515 7.85526H13.5854V10.6517H16.84L17.763 9.73429L18.6915 10.6517H19.5584L18.2329 9.23674L19.598 7.85526H18.6926L17.7911 8.7612ZM12.9416 7.85526H11.7671L10.8834 9.729L9.93121 7.85526H8.75783V10.5681L7.54433 7.85526H6.44281L5.1449 10.6517H5.93914L6.20184 10.0143H7.71175L8.01401 10.6517H9.47378V8.37537L10.5084 10.6517H11.1904L12.2195 8.41437V10.6517H12.9399L12.9416 7.85526ZM6.71304 10.5937L6.44894 11.2113H4.08267L5.94917 7.29614H10.4109L10.8611 8.15975L11.2818 7.29614H17.2952L17.8092 7.83381L18.3614 7.29614H21.1541L19.1712 9.24928L21.0683 11.2113H18.3661L17.7613 10.6347L17.1615 11.2113H7.51508L7.22507 10.5937H6.71304Z" fill="white"/>
</g>
<defs>
<clipPath id="clip0_27:410">
<rect width="24.8684" height="16.5789" fill="white" transform="translate(0.184204 0.964355)"/>
</clipPath>
</defs>
</svg>
