<svg width="26" height="18" viewBox="0 0 26 18" fill="none" xmlns="http://www.w3.org/2000/svg">
<g clip-path="url(#clip0_27:388)">
<path fill-rule="evenodd" clip-rule="evenodd" d="M25.3158 15.4709C25.3142 16.0201 25.0953 16.5462 24.707 16.9345C24.3187 17.3228 23.7926 17.5417 23.2434 17.5433H2.51976C1.97063 17.5417 1.44445 17.3228 1.05616 16.9345C0.667862 16.5462 0.449005 16.0201 0.447388 15.4709L0.447388 3.03672C0.449005 2.48759 0.667862 1.96142 1.05616 1.57312C1.44445 1.18483 1.97063 0.965972 2.51976 0.964355L23.2434 0.964355C23.7926 0.965972 24.3187 1.18483 24.707 1.57312C25.0953 1.96142 25.3142 2.48759 25.3158 3.03672V15.4709Z" fill="#FF7900"/>
<path fill-rule="evenodd" clip-rule="evenodd" d="M6.20565 9.14126C6.20565 8.50665 6.20565 7.87204 6.20398 7.23771C6.20398 7.15887 6.22264 7.13073 6.30594 7.13241C6.54552 7.1377 6.7851 7.13686 7.02468 7.13241C7.10213 7.13073 7.12469 7.15469 7.12386 7.23158C7.12051 7.67508 7.12386 8.11858 7.12051 8.56237C7.12051 8.64594 7.14113 8.6738 7.2286 8.6738C7.65929 8.66916 8.08988 8.66916 8.52038 8.6738C8.59783 8.6738 8.61872 8.65151 8.61817 8.57518C8.61482 8.12945 8.61817 7.68149 8.61482 7.2352C8.61482 7.1611 8.6307 7.13296 8.71066 7.13408C8.95358 7.13853 9.19594 7.13993 9.43887 7.13408C9.53219 7.13157 9.53331 7.17642 9.53331 7.24551C9.53164 8.35594 9.53164 9.46646 9.53331 10.5771C9.53331 10.7442 9.53052 10.9136 9.53498 11.0819C9.53665 11.147 9.51353 11.1654 9.4514 11.1654C9.20235 11.1625 8.95311 11.1625 8.70369 11.1654C8.63655 11.1654 8.61594 11.1451 8.61622 11.0771C8.619 10.5785 8.61622 10.0798 8.61956 9.58142C8.61956 9.49617 8.59644 9.47166 8.51008 9.47249C8.08273 9.47695 7.65539 9.47611 7.2286 9.47249C7.14865 9.47249 7.12218 9.49617 7.12302 9.57724C7.12636 10.0726 7.12302 10.5679 7.12636 11.0632C7.12636 11.1468 7.10101 11.1663 7.02245 11.1652C6.78287 11.1605 6.54329 11.1605 6.30371 11.1652C6.22794 11.1652 6.20677 11.1429 6.20704 11.066C6.20704 10.4247 6.20704 9.78395 6.20565 9.14126Z" fill="white"/>
<path d="M12.3846 9.95479C12.3846 10.1392 12.3846 10.2947 12.3846 10.4501C12.3846 10.5058 12.3982 10.5337 12.4604 10.5337C12.6088 10.5337 12.7579 10.5465 12.9061 10.5432C13.0187 10.5489 13.1304 10.5205 13.2266 10.4619C13.3229 10.4032 13.3992 10.3169 13.4457 10.2142C13.5156 10.0696 13.5537 9.91181 13.5575 9.75133C13.5614 9.59085 13.5308 9.4314 13.468 9.28369C13.4287 9.16024 13.3457 9.05536 13.2347 8.98869C13.1236 8.92202 12.992 8.89814 12.8646 8.92153C12.7378 8.94347 12.6222 9.00776 12.5367 9.10391C12.4512 9.20005 12.4008 9.32236 12.3938 9.45084C12.3729 9.62774 12.3916 9.80575 12.3846 9.95479ZM12.291 8.67332C12.3938 8.52705 12.5306 8.40784 12.6895 8.32586C12.8484 8.24387 13.0248 8.20156 13.2036 8.20251C13.4382 8.19417 13.6698 8.25739 13.8675 8.38378C14.0653 8.51016 14.22 8.69374 14.311 8.91011C14.4666 9.27514 14.5114 9.67785 14.44 10.0682C14.4085 10.3497 14.2881 10.6139 14.0965 10.8226C13.8551 11.0615 13.5342 11.2033 13.195 11.2209C12.9819 11.2432 12.7682 11.2313 12.5542 11.2335C12.3684 11.2352 12.3854 11.2145 12.3851 11.3981C12.3851 11.6834 12.3832 11.9681 12.3851 12.2531C12.3851 12.3202 12.3665 12.3431 12.2977 12.3417C12.0581 12.3381 11.8185 12.3375 11.5789 12.3417C11.5073 12.3417 11.4848 12.3247 11.4856 12.2506C11.4898 11.962 11.4876 11.6745 11.4873 11.387C11.4873 11.2332 11.4873 11.2349 11.336 11.2254C11.1094 11.2149 10.8879 11.1543 10.6875 11.0479C10.5144 10.9521 10.3664 10.8167 10.2557 10.6528C10.1449 10.4888 10.0746 10.301 10.0504 10.1047C10.023 9.92542 10.0122 9.74405 10.018 9.56283C10.018 9.15777 10.018 8.75327 10.018 8.34849C10.018 8.28302 10.0334 8.25767 10.1041 8.25907C10.3498 8.26324 10.5966 8.26352 10.8424 8.25907C10.9165 8.25907 10.9357 8.28107 10.9351 8.35267C10.9323 8.82626 10.9284 9.29985 10.9351 9.77093C10.9299 9.88434 10.9479 9.99762 10.988 10.1039C11.028 10.2101 11.0893 10.307 11.168 10.3888C11.2321 10.4487 11.3102 10.4916 11.3951 10.5136C11.4547 10.5306 11.4901 10.5223 11.4895 10.4423C11.4862 9.77594 11.4954 9.10902 11.4597 8.44293C11.4597 8.4368 11.4597 8.42956 11.4597 8.42343C11.4597 8.24402 11.4472 8.27494 11.6093 8.27327C11.7909 8.2716 11.9715 8.27606 12.1534 8.2716C12.2297 8.26965 12.2542 8.29556 12.2553 8.37189C12.2618 8.47311 12.2737 8.57392 12.291 8.67387V8.67332Z" fill="white"/>
<path fill-rule="evenodd" clip-rule="evenodd" d="M10.4772 7.90765C10.4143 7.91394 10.3508 7.90663 10.2909 7.88623C10.2311 7.86582 10.1764 7.8328 10.1304 7.78939C10.0845 7.74599 10.0484 7.69321 10.0247 7.63464C10.0009 7.57608 9.99001 7.51309 9.99271 7.44994C9.99203 7.38759 10.0043 7.32577 10.0286 7.26839C10.053 7.211 10.089 7.15928 10.1344 7.11649C10.1797 7.0737 10.2335 7.04077 10.2922 7.01977C10.3509 6.99876 10.4133 6.99015 10.4755 6.99446C10.5381 6.98997 10.601 6.99841 10.6603 7.01927C10.7195 7.04012 10.7738 7.07294 10.8198 7.11568C10.8658 7.15843 10.9025 7.21018 10.9277 7.26772C10.9528 7.32526 10.9658 7.38736 10.9659 7.45016C10.9661 7.51295 10.9533 7.5751 10.9283 7.63273C10.9034 7.69037 10.8669 7.74225 10.821 7.78516C10.7752 7.82808 10.721 7.86109 10.6618 7.88217C10.6027 7.90324 10.5398 7.91191 10.4772 7.90765Z" fill="#FFE701"/>
<path d="M16.0803 9.37949C16.2324 9.37949 16.3842 9.37949 16.5363 9.37949C16.5814 9.37949 16.6113 9.37253 16.6068 9.31653C16.6114 9.23316 16.5949 9.14997 16.559 9.0746C16.523 8.99922 16.4688 8.93407 16.4011 8.88511C16.3335 8.83616 16.2546 8.80496 16.1718 8.79438C16.089 8.7838 16.0048 8.79418 15.9271 8.82456C15.8237 8.86454 15.7335 8.93272 15.667 9.02137C15.6004 9.11001 15.56 9.21556 15.5504 9.326C15.5384 9.38367 15.5783 9.38033 15.615 9.38033L16.0803 9.37949ZM16.487 10.0024C16.2056 10.0024 15.9237 10.0024 15.6423 10.0024C15.5733 10.0024 15.5415 10.0099 15.5685 10.0952C15.607 10.2089 15.6773 10.3093 15.7711 10.3842C15.865 10.4592 15.9784 10.5057 16.0978 10.5181C16.4304 10.5726 16.7712 10.5488 17.0929 10.4484C17.155 10.4323 17.1751 10.4448 17.1857 10.5013C17.2152 10.6568 17.2442 10.8117 17.2776 10.966C17.2921 11.0343 17.257 11.0579 17.2018 11.0774C16.8729 11.1848 16.5279 11.2348 16.182 11.2254C15.8736 11.2294 15.57 11.1486 15.3044 10.9919C15.1498 10.8972 15.0177 10.7699 14.9173 10.6188C14.817 10.4678 14.7508 10.2967 14.7233 10.1175C14.638 9.72555 14.6895 9.31626 14.8693 8.95772C15.0528 8.62144 15.3609 8.37056 15.7274 8.25898C16.0939 8.14741 16.4896 8.18404 16.8294 8.361C17.09 8.51722 17.2806 8.76752 17.362 9.06024C17.4511 9.34341 17.474 9.64322 17.4292 9.93666C17.4183 10.0055 17.3773 9.99934 17.3325 9.99934C17.0497 10.0016 16.7684 10.0013 16.4867 10.0013L16.487 10.0024Z" fill="white"/>
<path fill-rule="evenodd" clip-rule="evenodd" d="M17.7693 9.91574C17.7693 9.65332 17.7712 9.39145 17.7693 9.12903C17.7673 8.8666 17.7615 8.59972 17.752 8.33395C17.7495 8.26682 17.771 8.25261 17.8328 8.25344C18.0367 8.25679 18.2407 8.2579 18.4443 8.25344C18.5142 8.25149 18.5346 8.27963 18.5368 8.34008C18.5401 8.45653 18.5443 8.5727 18.5493 8.68915C18.5493 8.71115 18.546 8.74096 18.5724 8.74709C18.5989 8.75322 18.6036 8.72174 18.6131 8.7028C18.6662 8.58082 18.7468 8.47279 18.8487 8.3872C18.9505 8.3016 19.0708 8.24075 19.2001 8.20943C19.3022 8.1917 19.4061 8.18739 19.5093 8.19661C19.5636 8.19661 19.5578 8.23924 19.5578 8.27378C19.5578 8.50667 19.5561 8.74013 19.5595 8.97246C19.5595 9.03932 19.5375 9.05827 19.4742 9.04629C19.3182 9.01261 19.1555 9.02899 19.0093 9.09309C18.8997 9.14354 18.8088 9.2272 18.7495 9.3322C18.6901 9.4372 18.6653 9.55823 18.6786 9.67811C18.6769 10.1372 18.6758 10.5974 18.6803 11.0565C18.6803 11.1448 18.6524 11.1652 18.5705 11.1635C18.3345 11.1585 18.0969 11.159 17.8621 11.1635C17.7899 11.1635 17.7685 11.1437 17.7687 11.0702C17.7704 10.6857 17.7693 10.3007 17.7693 9.91574Z" fill="white"/>
</g>
<defs>
<clipPath id="clip0_27:388">
<rect width="24.8684" height="16.5789" fill="white" transform="translate(0.447388 0.964355)"/>
</clipPath>
</defs>
</svg>
