<svg width="26" height="18" viewBox="0 0 26 18" fill="none" xmlns="http://www.w3.org/2000/svg">
<path fill-rule="evenodd" clip-rule="evenodd" d="M25.8421 15.4709C25.8405 16.0201 25.6216 16.5462 25.2333 16.9345C24.8451 17.3228 24.3189 17.5417 23.7697 17.5433H3.04606C2.49693 17.5417 1.97076 17.3228 1.58246 16.9345C1.19417 16.5462 0.975311 16.0201 0.973694 15.4709L0.973694 3.03672C0.975311 2.48759 1.19417 1.96142 1.58246 1.57312C1.97076 1.18483 2.49693 0.965972 3.04606 0.964355L23.7697 0.964355C24.3189 0.965972 24.8451 1.18483 25.2333 1.57312C25.6216 1.96142 25.8405 2.48759 25.8421 3.03672V15.4709Z" fill="#F5F5F5"/>
<path d="M23.7697 0.964355H3.04606C2.49693 0.965972 1.97076 1.18483 1.58246 1.57312C1.19417 1.96142 0.975311 2.48759 0.973694 3.03672V15.4709C0.975311 16.0201 1.19417 16.5462 1.58246 16.9345C1.97076 17.3228 2.49693 17.5417 3.04606 17.5433H23.7697C24.3189 17.5417 24.8451 17.3228 25.2333 16.9345C25.6216 16.5462 25.8405 16.0201 25.8421 15.4709V3.03672C25.8405 2.48759 25.6216 1.96142 25.2333 1.57312C24.8451 1.18483 24.3189 0.965972 23.7697 0.964355V0.964355ZM23.7697 1.37888C24.2093 1.37933 24.6307 1.55413 24.9415 1.86494C25.2523 2.17575 25.4271 2.59717 25.4276 3.03672V15.4709C25.4271 15.9105 25.2523 16.3319 24.9415 16.6427C24.6307 16.9535 24.2093 17.1283 23.7697 17.1288H3.04606C2.60651 17.1283 2.18509 16.9535 1.87428 16.6427C1.56347 16.3319 1.38867 15.9105 1.38822 15.4709V3.03672C1.38867 2.59717 1.56347 2.17575 1.87428 1.86494C2.18509 1.55413 2.60651 1.37933 3.04606 1.37888H23.7697Z" fill="#D0D0D0"/>
<path d="M15.5922 12.8229C17.5607 12.8229 19.1564 11.2272 19.1564 9.25875C19.1564 7.29031 17.5607 5.69458 15.5922 5.69458C13.6238 5.69458 12.028 7.29031 12.028 9.25875C12.028 11.2272 13.6238 12.8229 15.5922 12.8229Z" fill="#F79E1B"/>
<path d="M11.2238 12.8132C13.1922 12.8132 14.788 11.2174 14.788 9.24899C14.788 7.28055 13.1922 5.68481 11.2238 5.68481C9.25537 5.68481 7.65964 7.28055 7.65964 9.24899C7.65964 11.2174 9.25537 12.8132 11.2238 12.8132Z" fill="#EB001B"/>
<path fill-rule="evenodd" clip-rule="evenodd" d="M12.0281 9.24975C12.0261 9.79366 12.1489 10.3308 12.3869 10.8198C12.625 11.3089 12.972 11.7369 13.4012 12.0709C13.8316 11.7388 14.1804 11.3127 14.4208 10.8251C14.6612 10.3375 14.7868 9.80133 14.7881 9.25769C14.7895 8.71404 14.6664 8.1773 14.4284 7.68853C14.1903 7.19976 13.8437 6.77192 13.4148 6.43774C12.9841 6.76921 12.635 7.19507 12.3946 7.68256C12.1542 8.17005 12.0288 8.70619 12.0281 9.24975Z" fill="#FF5F00"/>
</svg>
