<svg width="68" height="56" viewBox="0 0 68 56" fill="none" xmlns="http://www.w3.org/2000/svg">
<g clip-path="url(#clip0_1005_1334)">
<path d="M96.0692 31.039C93.5514 25.0851 89.9475 19.7385 85.3546 15.1456C80.7646 10.5556 75.415 6.95157 69.4641 4.43079C63.2996 1.82465 56.7504 0.5 50 0.5C43.251 0.5 36.7021 1.82446 30.5375 4.43079C24.5836 6.95157 19.2354 10.5556 14.6438 15.1456C10.054 19.7385 6.44844 25.0851 3.93059 31.039C1.32309 37.2035 0 43.7527 0 50.5C0 57.2502 1.32289 63.7994 3.93079 69.9639C6.44844 75.918 10.0542 81.2644 14.644 85.8575C19.2354 90.4475 24.5836 94.0545 30.5377 96.5721C36.7023 99.1785 43.2512 100.5 50.0002 100.5C56.7506 100.5 63.2998 99.1783 69.4641 96.5721C75.4152 94.0543 80.7646 90.4475 85.3546 85.8575C89.9477 81.2644 93.5516 75.918 96.0692 69.9639C98.6755 63.7994 100 57.2502 100 50.5C100 43.7527 98.6755 37.2035 96.0692 31.039Z" fill="#EBEBEB"/>
<path d="M79.4616 21.0386C71.5944 13.168 61.1298 8.83447 50.0001 8.83447C38.8705 8.83447 28.4075 13.168 20.5369 21.0384C12.6681 28.9089 8.33301 39.3733 8.33301 50.5C8.33301 61.6297 12.6681 72.0941 20.5369 79.9644C28.4073 87.8352 38.8703 92.1683 50.0001 92.1683C61.13 92.1683 71.5944 87.835 79.4616 79.9644C87.3323 72.0941 91.6686 61.6297 91.6686 50.5C91.6686 39.3733 87.3323 28.9089 79.4616 21.0386Z" fill="white"/>
<path d="M34.0469 89.0163C39.0365 91.0855 44.4351 92.1685 49.9999 92.1685V50.5032L34.0469 89.0163Z" fill="#15034C"/>
<path d="M65.9548 11.9869C60.9621 9.9179 55.5662 8.83447 50 8.83447V50.5032L65.9548 11.9869Z" fill="#15034C"/>
<path d="M65.9548 89.0163C70.9442 86.9502 75.5281 83.8984 79.4615 79.9644L50 50.5032L65.9548 89.0163Z" fill="#15034C"/>
<path d="M34.0473 11.9868C29.0561 14.0529 24.4724 17.1046 20.5371 21.0385L50.0003 50.5031L34.0473 11.9868Z" fill="#15034C"/>
<path d="M88.5162 66.4548C90.5819 61.465 91.6685 56.0666 91.6685 50.5002H50L88.5162 66.4548Z" fill="#15034C"/>
<path d="M11.4839 34.5486C9.41644 39.5382 8.33301 44.9368 8.33301 50.5001H50.0001L11.4839 34.5486Z" fill="#15034C"/>
<path d="M88.5162 34.5486C86.4502 29.5558 83.3983 24.9752 79.4615 21.0386L50 50.5L88.5162 34.5486Z" fill="#15034C"/>
<path d="M11.4844 66.4548C13.5518 71.4473 16.6037 76.0311 20.5374 79.9646L50.0006 50.5L11.4844 66.4548Z" fill="#15034C"/>
<path d="M68.5424 50.503C68.5424 60.7414 60.2417 69.0452 50 69.0452C39.7583 69.0452 31.4561 60.7414 31.4561 50.503C31.4561 40.2613 39.7585 31.9575 50 31.9575C60.2415 31.9575 68.5424 40.2613 68.5424 50.503Z" fill="white"/>
<path d="M50 44.25C46.553 44.25 43.75 47.0544 43.75 50.5C43.75 53.9485 46.553 56.7498 50 56.7498C53.4485 56.7498 56.2498 53.9485 56.2498 50.5C56.2498 47.0546 53.4485 44.25 50 44.25Z" fill="#FF4E05"/>
</g>
<defs>
<clipPath id="clip0_1005_1334">
<rect width="100" height="100" fill="white" transform="translate(0 0.5)"/>
</clipPath>
</defs>
</svg>
