<svg xmlns="http://www.w3.org/2000/svg" width="31.16" height="16.665" viewBox="0 0 31.16 16.665">
  <g id="check-all" transform="translate(-4.682 -10.647)">
    <path id="Caminho_52" data-name="Caminho 52" d="M22.3,11.255a1.918,1.918,0,1,1,2.739,2.686L14.829,26.7a1.918,1.918,0,0,1-2.761.051L5.3,19.985a1.918,1.918,0,1,1,2.71-2.71l5.355,5.351,8.876-11.314a.645.645,0,0,1,.051-.056ZM19.945,24.4,22.3,26.749a1.918,1.918,0,0,0,2.759-.051L35.263,13.939a1.918,1.918,0,1,0-2.79-2.628L23.593,22.626l-1.24-1.242L19.941,24.4Z" transform="translate(0 0)" fill="#fff" fill-rule="evenodd"/>
  </g>
</svg>
