<svg xmlns="http://www.w3.org/2000/svg" xmlns:xlink="http://www.w3.org/1999/xlink" width="34.999" height="34.999" viewBox="0 0 24 24">
  <metadata><?xpacket begin="﻿" id="W5M0MpCehiHzreSzNTczkc9d"?>
<x:xmpmeta xmlns:x="adobe:ns:meta/" x:xmptk="Adobe XMP Core 5.6-c142 79.160924, 2017/07/13-01:06:39        ">
   <rdf:RDF xmlns:rdf="http://www.w3.org/1999/02/22-rdf-syntax-ns#">
      <rdf:Description rdf:about=""/>
   </rdf:RDF>
</x:xmpmeta>





















<?xpacket end="w"?></metadata>
<defs>
    <style>
      .cls-1 {
        fill-rule: evenodd;
        fill: url(#linear-gradient);
      }
    </style>
    <linearGradient id="linear-gradient" x1="43" y1="24" x2="43" gradientUnits="userSpaceOnUse">
      <stop offset="0" stop-color="#f76b1c"/>
      <stop offset="1" stop-color="#fad961"/>
    </linearGradient>
  </defs>
  <g id="moeda-laranja">
    <g id="iconmonstr">
      <path id="coin-2" class="cls-1" d="M47,14.083c0-2.145-2.232-2.742-3.943-3.546-1.039-.54-0.908-1.829.581-1.916a6.41,6.41,0,0,1,2.443.465l0.362-1.647A9.237,9.237,0,0,0,44,7.018V6H43V7.067c-1.945.267-2.984,1.487-2.984,2.85,0,2.438,2.847,2.81,3.778,3.243,1.27,0.568,1.035,1.75-.114,2.011a6.1,6.1,0,0,1-3.225-.54L40,16.275A6.923,6.923,0,0,0,43,17v1h1V16.947C45.657,16.715,47,15.8,47,14.083ZM43,0A12,12,0,1,0,55,12,12,12,0,0,0,43,0Zm0,2A10,10,0,1,1,33,12,10.011,10.011,0,0,1,43,2Z" transform="translate(-31)"/>
    </g>
  </g>
</svg>
