<svg width="42" height="42" viewBox="0 0 42 42" fill="none" xmlns="http://www.w3.org/2000/svg">
<path d="M17.7692 1.13602C19.8488 0.33617 22.1512 0.336169 24.2308 1.13602L39.1154 6.86086C40.8533 7.52927 42 9.19895 42 11.0609V30.9401C42 32.8021 40.8533 34.4718 39.1154 35.1402L24.2308 40.865C22.1512 41.6649 19.8488 41.6649 17.7692 40.865L2.8846 35.1402C1.14673 34.4718 0 32.8021 0 30.9401V11.0609C0 9.19895 1.14673 7.52927 2.88459 6.86087L17.7692 1.13602ZM23.1539 3.93606C21.7675 3.40282 20.2325 3.40282 18.8461 3.93606L14.6927 5.53352L31.4656 11.8832L37.3072 9.37966L23.1539 3.93606ZM39 11.9181L22.5 18.9895V38.2744C22.7208 38.2174 22.9391 38.1476 23.1539 38.065L38.0385 32.3401C38.6178 32.1173 39 31.5608 39 30.9401V11.9181ZM19.5 38.2744V18.9895L3 11.9181V30.9401C3 31.5608 3.38224 32.1173 3.96153 32.3401L18.8461 38.065C19.0609 38.1476 19.2792 38.2174 19.5 38.2744ZM4.69276 9.37966L21 16.3685L27.4914 13.5865L10.4896 7.15012L4.69276 9.37966Z" fill="#2E85EC"/>
</svg>
