<svg width="26" height="42" viewBox="0 0 26 42" fill="none" xmlns="http://www.w3.org/2000/svg">
<path d="M21.2817 0.166748C23.8706 0.166748 25.9692 2.26541 25.9692 4.85425V37.1459C25.9692 39.7347 23.8706 41.8334 21.2817 41.8334H5.65674C3.0679 41.8334 0.969238 39.7347 0.969238 37.1459V4.85425C0.969238 2.26541 3.0679 0.166748 5.65674 0.166748H21.2817ZM21.2817 3.29175H5.65674C4.79379 3.29175 4.09424 3.9913 4.09424 4.85425V37.1459C4.09424 38.0089 4.79379 38.7084 5.65674 38.7084H21.2817C22.1447 38.7084 22.8442 38.0089 22.8442 37.1459V4.85425C22.8442 3.9913 22.1447 3.29175 21.2817 3.29175ZM16.0711 32.4584C16.934 32.4571 17.6346 33.1556 17.6359 34.0186C17.6372 34.8815 16.9387 35.5821 16.0758 35.5834L10.8674 35.5913C10.0045 35.5926 9.30387 34.894 9.30257 34.0311C9.30127 33.1682 9.99978 32.4676 10.8627 32.4663L16.0711 32.4584Z" fill="#2E85EC"/>
</svg>
