<svg width="40" height="42" viewBox="0 0 40 42" fill="none" xmlns="http://www.w3.org/2000/svg">
<path d="M18.6718 2.21303C18.9876 2.21303 19.1454 2.3585 19.4612 2.50398C17.5667 3.23135 15.6722 5.12253 14.725 9.19583L11.2517 10.0687C12.3568 7.15918 14.5671 2.21303 18.6718 2.21303ZM20.4084 3.66778C20.7242 4.54063 21.0399 5.55895 21.0399 7.15918C21.0399 7.30465 21.0399 7.30465 21.0399 7.45013L16.4616 8.61393C17.4088 5.55895 18.9876 4.24968 20.4084 3.66778ZM24.5132 6.28633L22.4608 6.86823C22.4608 6.72275 22.4608 6.57728 22.4608 6.4318C22.4608 5.12253 22.3029 4.1042 21.9872 3.23135C23.0923 3.5223 24.0395 4.83158 24.5132 6.28633ZM34.775 8.61393C34.775 8.46845 34.6171 8.32297 34.4592 8.32297C34.1435 8.32297 30.8281 8.03203 30.8281 8.03203C30.8281 8.03203 28.46 5.8499 28.1443 5.70443C27.8285 5.41348 27.3549 5.55895 27.197 5.55895C27.197 5.55895 26.7234 5.70443 25.934 5.99538C25.1447 3.95873 23.7238 2.06755 21.3557 2.06755H21.1978C20.5663 1.1947 19.6191 0.903752 18.8297 0.903752C13.1462 0.758277 10.4624 7.30465 9.51511 10.6506C8.25212 10.9415 6.98913 11.3779 5.56826 11.8144C4.30526 12.1053 4.30526 12.2508 4.14739 13.2691C3.98952 13.9965 0.832031 36.9815 0.832031 36.9815L25.934 41.3458L39.5112 38.5818C39.5112 38.5818 34.775 8.90488 34.775 8.61393Z" fill="#2E85EC"/>
<path d="M34.3017 8.32311C34.1438 8.32311 30.8284 8.03216 30.8284 8.03216C30.8284 8.03216 28.4603 5.85003 28.1446 5.70456C27.9867 5.55908 27.9867 5.55908 27.8288 5.55908L25.9343 41.3459L39.5115 38.5819C39.5115 38.5819 34.7753 8.90501 34.7753 8.61406C34.7753 8.46858 34.4595 8.32311 34.3017 8.32311Z" fill="#2672CD"/>
<path d="M21.3556 15.3057L19.619 19.9609C19.619 19.9609 18.1982 19.2335 16.3037 19.2335C13.6198 19.2335 13.4619 20.6883 13.4619 21.1247C13.4619 23.1614 19.4612 24.0342 19.4612 28.9804C19.4612 32.9082 16.7773 35.3813 13.1462 35.3813C8.88358 35.3813 6.67334 32.9082 6.67334 32.9082L7.77846 29.4168C7.77846 29.4168 9.9887 31.1625 11.8832 31.1625C13.1462 31.1625 13.6198 30.2896 13.6198 29.5623C13.6198 26.7982 8.7257 26.6528 8.7257 22.143C8.7257 18.3607 11.7253 14.7238 17.5667 14.7238C20.2505 14.5784 21.3556 15.3057 21.3556 15.3057Z" fill="white"/>
</svg>
