<svg xmlns="http://www.w3.org/2000/svg" width="55.434" height="42.287" viewBox="0 0 55.434 42.287">
  <g id="Grupo_179" data-name="Grupo 179" transform="translate(-4984.029 -1948.61)">
    <g id="Grupo_176" data-name="Grupo 176" transform="translate(4984.529 1949.11)">
      <g id="shipping-truck-2321_0da28327-69f4-42ac-a050-2a0dd5e72870" transform="translate(5.135 5.135)">
        <path id="layer2" d="M2,34.649V25.587m17.37,8.572V10h15.5v6.573" transform="translate(-2 -10)" fill="none" stroke="#202020" stroke-linecap="round" stroke-linejoin="round" stroke-miterlimit="10" stroke-width="1"/>
        <path id="layer1" d="M42,36.076V18h8.216l8.216,11.5V42.649H55.717" transform="translate(-9.134 -11.427)" fill="none" stroke="#202020" stroke-linecap="round" stroke-linejoin="round" stroke-miterlimit="10" stroke-width="1"/>
        <ellipse id="layer1-2" data-name="layer1" cx="5.264" cy="5.264" rx="5.264" ry="5.264" transform="translate(4.211 25.625)" fill="none" stroke="#202020" stroke-linecap="round" stroke-linejoin="round" stroke-miterlimit="10" stroke-width="1"/>
        <ellipse id="layer1-3" data-name="layer1" cx="5.264" cy="5.264" rx="5.264" ry="5.264" transform="translate(35.793 25.625)" fill="none" stroke="#202020" stroke-linecap="round" stroke-linejoin="round" stroke-miterlimit="10" stroke-width="1"/>
        <path id="layer1-4" data-name="layer1" d="M6.286,46.573H2V40H34.866v6.573H16.789m18.076,0h2.551" transform="translate(-2 -15.351)" fill="none" stroke="#202020" stroke-linecap="round" stroke-linejoin="round" stroke-miterlimit="10" stroke-width="1"/>
      </g>
      <ellipse id="layer1-5" data-name="layer1" cx="11.298" cy="11.298" rx="11.298" ry="11.298" fill="none" stroke="#202020" stroke-linecap="round" stroke-linejoin="round" stroke-miterlimit="10" stroke-width="1"/>
      <path id="layer1-6" data-name="layer1" d="M48.381,16,40,24.381M40,16l8.381,8.381" transform="translate(-32.893 -8.893)" fill="none" stroke="#e81414" stroke-linecap="round" stroke-linejoin="round" stroke-miterlimit="10" stroke-width="1"/>
    </g>
  </g>
</svg>
