<svg width="52" height="31" viewBox="0 0 52 31" fill="none" xmlns="http://www.w3.org/2000/svg">
<path fill-rule="evenodd" clip-rule="evenodd" d="M2.57842 0C1.37957 0 0.407715 0.97186 0.407715 2.17071V23.3293C0.407715 24.5281 1.37957 25.5 2.57842 25.5H25.0179L33.9458 30.4891L31.8451 25.5H49.237C50.4359 25.5 51.4077 24.5281 51.4077 23.3293V2.17071C51.4077 0.97186 50.4359 0 49.237 0H2.57842Z" fill="#2E85EC"/>
<path fill-rule="evenodd" clip-rule="evenodd" d="M23.0862 2.38184C24.067 2.81339 24.5123 3.95834 24.0807 4.93915C22.9738 7.45483 22.3095 10.7007 21.9303 13.8161C21.5542 16.9051 21.4733 19.7338 21.4733 21.3425C21.4733 22.1594 20.9617 22.8888 20.1936 23.1669C19.4255 23.4449 18.5655 23.2122 18.0426 22.5846C16.6841 20.9544 15.4789 18.0739 14.5536 15.49C14.2697 14.6971 14.0017 13.9011 13.7542 13.1333L9.05039 21.9765C8.69574 22.6432 7.98645 23.0436 7.23237 23.0027C6.47829 22.9618 5.81645 22.4871 5.53598 21.7859C5.25103 21.0736 4.94947 19.9174 4.65711 18.6526C4.35438 17.343 4.03086 15.7771 3.71484 14.1621C3.0824 10.9302 2.46969 7.44849 2.09981 5.32171C1.91621 4.266 2.62319 3.26134 3.6789 3.07774C4.7346 2.89414 5.73926 3.60112 5.92286 4.65683C6.29212 6.78005 6.89897 10.2277 7.52305 13.4169C7.67817 14.2096 7.83371 14.9831 7.98636 15.7138L12.5538 7.12703C12.9274 6.42475 13.6917 6.02162 14.4823 6.10997C15.2728 6.19832 15.9293 6.76025 16.1386 7.52768C16.5229 8.93671 17.2029 11.3132 18.0364 13.6998C18.05 13.5826 18.0639 13.4651 18.0783 13.3472C18.4751 10.0876 19.1967 6.40414 20.5289 3.37635C20.9605 2.39554 22.1054 1.95028 23.0862 2.38184Z" fill="white"/>
<path fill-rule="evenodd" clip-rule="evenodd" d="M29.5321 8.86253C28.9072 9.18391 27.8319 10.0442 27.2452 12.6255C26.6787 15.1185 27.4044 16.0164 27.7918 16.3637C28.0537 16.5985 28.3545 16.7465 28.6066 16.8348C28.7289 16.8777 28.8279 16.9023 28.8867 16.915C28.9116 16.9203 28.9282 16.9233 28.9351 16.9244C28.948 16.9261 28.9609 16.928 28.9737 16.93C28.9817 16.9309 29.0043 16.9336 29.0396 16.9362C29.1113 16.9416 29.2298 16.9466 29.3795 16.9398C29.6869 16.9258 30.0737 16.8643 30.4509 16.6955C31.0433 16.4305 32.0657 15.7152 32.2899 13.1362C32.5317 10.3552 31.7872 9.33643 31.4229 8.9861C31.2084 8.7799 30.9946 8.67621 30.8475 8.62418C30.7737 8.59809 30.7203 8.58637 30.6989 8.58229C30.6984 8.5822 30.698 8.58211 30.6975 8.58203C30.6928 8.58154 30.6881 8.58104 30.6833 8.58052C30.6788 8.58026 30.6714 8.5799 30.6613 8.57962C30.6203 8.57848 30.539 8.57866 30.4286 8.59029C30.2064 8.61368 29.8847 8.6812 29.5321 8.86253ZM31.0965 4.72203C31.096 4.72198 31.0956 4.72194 31.0952 4.72189C31.0715 4.7193 31.0434 4.71654 31.0112 4.71385C30.9469 4.70847 30.8657 4.70338 30.7695 4.7007C30.5778 4.69534 30.3234 4.69949 30.0224 4.73117C29.4217 4.7944 28.6174 4.96941 27.7574 5.41171C25.957 6.33762 24.2605 8.24912 23.4613 11.7656C22.642 15.3704 23.5793 17.7986 25.2014 19.2529C25.9443 19.9189 26.7349 20.2907 27.323 20.4968C27.6207 20.6012 27.879 20.6675 28.0725 20.709C28.1697 20.7299 28.2518 20.7447 28.3158 20.7551C28.3479 20.7603 28.3755 20.7645 28.3984 20.7676C28.4009 20.768 28.4033 20.7683 28.4056 20.7686C28.4082 20.769 28.411 20.7694 28.4138 20.7698C28.4367 20.7732 28.4647 20.777 28.4975 20.7811C28.563 20.7892 28.648 20.7982 28.7501 20.8058C28.9534 20.821 29.229 20.8311 29.5557 20.8163C30.2011 20.7869 31.0961 20.6579 32.0355 20.2377C34.0763 19.3247 35.8257 17.2683 36.1558 13.4723C36.4683 9.87829 35.5498 7.57097 34.1125 6.18896C33.4261 5.529 32.7045 5.16495 32.1413 4.96579C31.86 4.86629 31.6146 4.80655 31.4259 4.77057C31.3313 4.75252 31.2499 4.74026 31.1843 4.73193C31.1514 4.72776 31.1223 4.72457 31.0974 4.72212C31.0971 4.72209 31.0968 4.72206 31.0965 4.72203Z" fill="white"/>
<path fill-rule="evenodd" clip-rule="evenodd" d="M42.5377 8.86253C41.9128 9.18391 40.8375 10.0442 40.2509 12.6255C39.6843 15.1185 40.41 16.0164 40.7974 16.3637C41.0593 16.5985 41.3601 16.7465 41.6122 16.8348C41.7345 16.8777 41.8335 16.9023 41.8923 16.915C41.9172 16.9203 41.9338 16.9233 41.9407 16.9244C41.9536 16.9261 41.9665 16.928 41.9793 16.93C41.9873 16.9309 42.01 16.9336 42.0452 16.9362C42.1169 16.9416 42.2354 16.9466 42.3851 16.9398C42.6925 16.9258 43.0794 16.8643 43.4565 16.6955C44.0489 16.4305 45.0713 15.7152 45.2955 13.1362C45.5374 10.3552 44.7929 9.33643 44.4285 8.9861C44.2141 8.7799 44.0002 8.67621 43.8531 8.62418C43.7793 8.59809 43.7259 8.58637 43.7045 8.58229C43.7041 8.5822 43.7036 8.58211 43.7031 8.58203C43.6984 8.58154 43.6937 8.58104 43.689 8.58052C43.6844 8.58026 43.677 8.5799 43.6669 8.57962C43.6259 8.57848 43.5446 8.57866 43.4342 8.59029C43.212 8.61368 42.8903 8.6812 42.5377 8.86253ZM44.1021 4.72203C44.1017 4.72198 44.1012 4.72194 44.1008 4.72189C44.0771 4.7193 44.049 4.71654 44.0168 4.71385C43.9525 4.70847 43.8713 4.70338 43.7751 4.7007C43.5834 4.69534 43.329 4.69949 43.028 4.73117C42.4274 4.7944 41.623 4.96941 40.763 5.41171C38.9626 6.33762 37.2661 8.24912 36.4669 11.7656C35.6476 15.3704 36.5849 17.7986 38.2071 19.2529C38.9499 19.9189 39.7405 20.2907 40.3286 20.4968C40.6264 20.6012 40.8847 20.6675 41.0781 20.709C41.1753 20.7299 41.2574 20.7447 41.3214 20.7551C41.3535 20.7603 41.3811 20.7645 41.404 20.7676C41.4065 20.768 41.4089 20.7683 41.4112 20.7686C41.4139 20.769 41.4166 20.7694 41.4194 20.7698C41.4423 20.7732 41.4703 20.777 41.5031 20.7811C41.5686 20.7892 41.6537 20.7982 41.7557 20.8058C41.959 20.821 42.2346 20.8311 42.5613 20.8163C43.2067 20.7869 44.1017 20.6579 45.0412 20.2377C47.0819 19.3247 48.8313 17.2683 49.1614 13.4723C49.4739 9.87829 48.5554 7.57097 47.1181 6.18896C46.4317 5.529 45.7101 5.16495 45.1469 4.96579C44.8656 4.86629 44.6202 4.80655 44.4315 4.77057C44.3369 4.75252 44.2555 4.74026 44.1899 4.73193C44.157 4.72776 44.128 4.72457 44.103 4.72212C44.1027 4.72209 44.1024 4.72206 44.1021 4.72203Z" fill="white"/>
</svg>
