<svg width="10" height="16" viewBox="0 0 10 16" fill="none" xmlns="http://www.w3.org/2000/svg">
<path d="M3.75 12.5714C3.40482 12.5714 3.125 12.8273 3.125 13.1429C3.125 13.4584 3.40482 13.7143 3.75 13.7143H6.25C6.59518 13.7143 6.875 13.4584 6.875 13.1429C6.875 12.8273 6.59518 12.5714 6.25 12.5714H3.75ZM2.1875 0C0.979377 0 0 0.895431 0 2V14C0 15.1046 0.979377 16 2.1875 16H7.8125C9.02062 16 10 15.1046 10 14V2C10 0.895431 9.02062 0 7.8125 0H2.1875ZM1.25 2C1.25 1.52661 1.66973 1.14286 2.1875 1.14286H7.8125C8.33027 1.14286 8.75 1.52661 8.75 2V14C8.75 14.4734 8.33027 14.8571 7.8125 14.8571H2.1875C1.66973 14.8571 1.25 14.4734 1.25 14V2Z" fill="#212121"/>
</svg>
