<svg width="40" height="40" viewBox="0 0 40 40" fill="none" xmlns="http://www.w3.org/2000/svg">
<rect width="40" height="40" rx="8" fill="#FAFAFA"/>
<path d="M14 14C14 12.8954 14.8954 12 16 12H23C24.1046 12 25 12.8954 25 14V21H28V23C28 24.6569 26.6569 26 25 26H20V25H24V14C24 13.4477 23.5523 13 23 13H16C15.4477 13 15 13.4477 15 14L15 18.171C14.6866 18.0602 14.3497 18 14 18V14ZM25 22V25C26.1046 25 27 24.1046 27 23V22H25ZM17 15.5C17 15.2239 17.2239 15 17.5 15H21.5C21.7761 15 22 15.2239 22 15.5C22 15.7761 21.7761 16 21.5 16H17.5C17.2239 16 17 15.7761 17 15.5ZM17.5 17C17.2239 17 17 17.2239 17 17.5C17 17.7761 17.2239 18 17.5 18H21.5C21.7761 18 22 17.7761 22 17.5C22 17.2239 21.7761 17 21.5 17H17.5ZM15 19.2676C14.7058 19.0974 14.3643 19 14 19C12.8954 19 12 19.8954 12 21V22H11.5C11.2239 22 11 22.2239 11 22.5V27C11 28.1046 11.8954 29 13 29H17C18.1046 29 19 28.1046 19 27V22.5C19 22.2239 18.7761 22 18.5 22H18V21C18 19.8954 17.1046 19 16 19C15.6357 19 15.2942 19.0974 15 19.2676ZM15 21V22H13V21C13 20.4477 13.4477 20 14 20C14.5523 20 15 20.4477 15 21ZM16 21C16 20.6486 15.9094 20.3184 15.7502 20.0314C15.8301 20.0109 15.9138 20 16 20C16.5523 20 17 20.4477 17 21V22H16V21Z" fill="#2E85EC"/>
</svg>
