<svg width="40" height="40" viewBox="0 0 40 40" fill="none" xmlns="http://www.w3.org/2000/svg">
<rect width="40" height="40" rx="8" fill="#FAFAFA"/>
<path d="M19.0895 26.973H9V14H30.6208V26.973H19.3971" stroke="#2E85EC" stroke-width="1.5" stroke-miterlimit="10" stroke-linecap="round" stroke-linejoin="round"/>
<path d="M19.7437 23.438C21.4448 23.438 22.8239 22.059 22.8239 20.3579C22.8239 18.6567 21.4448 17.2777 19.7437 17.2777C18.0426 17.2777 16.6636 18.6567 16.6636 20.3579C16.6636 22.059 18.0426 23.438 19.7437 23.438Z" stroke="#2E85EC" stroke-width="1.5" stroke-miterlimit="10" stroke-linecap="round" stroke-linejoin="round"/>
<path d="M12.6035 20.4861H14.0452M25.5765 20.4861H27.0217M30.6208 17.6035C29.6659 17.6023 28.7504 17.2222 28.0756 16.5465C27.4007 15.8708 27.0217 14.9549 27.0217 14M9 23.3695C9.9557 23.3695 10.8723 23.7492 11.548 24.425C12.2238 25.1007 12.6035 26.0173 12.6035 26.973" stroke="#2E85EC" stroke-width="1.5" stroke-miterlimit="10" stroke-linecap="round" stroke-linejoin="round"/>
</svg>
