<svg width="18" height="14" viewBox="0 0 18 14" fill="none" xmlns="http://www.w3.org/2000/svg">
<path d="M15.9749 0C17.0933 0 18 0.881314 18 1.96847V12.0315C18 13.1187 17.0933 14 15.9749 14H2.02512C0.906676 14 0 13.1187 0 12.0315V1.96847C0 0.881314 0.906676 0 2.02512 0H15.9749ZM15.9749 1.31231H2.02512C1.6523 1.31231 1.35008 1.60608 1.35008 1.96847V12.0315C1.35008 12.3939 1.6523 12.6877 2.02512 12.6877H15.9749C16.3477 12.6877 16.6499 12.3939 16.6499 12.0315V1.96847C16.6499 1.60608 16.3477 1.31231 15.9749 1.31231ZM7.42543 10.0615H10.5756C10.9484 10.0615 11.2507 10.3552 11.2507 10.7176C11.2507 11.0498 10.9967 11.3243 10.6672 11.3678L10.5756 11.3738H7.42543C7.05262 11.3738 6.75039 11.08 6.75039 10.7176C6.75039 10.3854 7.00435 10.1109 7.33383 10.0674L7.42543 10.0615H10.5756H7.42543Z" fill="#212121"/>
</svg>
