<svg width="80" height="83" viewBox="0 0 80 83" fill="none" xmlns="http://www.w3.org/2000/svg">
<path d="M53.1985 30.1357L35.3284 47.9525L26.6386 39.3118L26.2076 38.9537C24.9945 38.1181 23.3174 38.2374 22.237 39.3118C21.0215 40.5204 21.0215 42.48 22.237 43.6886L33.1305 54.5206L33.562 54.879C34.7762 55.7152 36.4551 55.5945 37.5351 54.5177L57.606 34.5066L57.9656 34.0775C58.8043 32.8702 58.682 31.2027 57.6001 30.1298C56.383 28.9228 54.4123 28.9255 53.1985 30.1357ZM44.841 2.29855C42.3495 -0.766187 37.6505 -0.766182 35.159 2.29855L29.475 9.29033L20.7436 6.95595C16.9163 5.93271 13.1147 8.67917 12.9107 12.6148L12.4453 21.5933L4.00151 24.808C0.300316 26.2171 -1.15177 30.661 1.0096 33.9642L5.94049 41.5L1.0096 49.0358C-1.15178 52.3391 0.300324 56.7829 4.00151 58.192L12.4453 61.4067L12.9107 70.3852C13.1147 74.3208 16.9163 77.0673 20.7436 76.044L29.475 73.7097L35.159 80.7014C37.6505 83.7662 42.3495 83.7662 44.841 80.7014L50.525 73.7097L59.2564 76.044C63.0837 77.0673 66.8853 74.3208 67.0893 70.3852L67.5547 61.4067L75.9985 58.192C79.6997 56.7829 81.1518 52.339 78.9904 49.0358L74.0595 41.5L78.9904 33.9642C81.1518 30.661 79.6997 26.2171 75.9985 24.808L67.5547 21.5933L67.0893 12.6148C66.8853 8.67916 63.0837 5.93271 59.2564 6.95595L50.525 9.29034L44.841 2.29855ZM14.6711 27.3739C16.9707 26.4984 18.5351 24.3572 18.6619 21.912L19.1273 12.9334L27.8587 15.2678C30.2367 15.9035 32.768 15.0857 34.316 13.1815L40 6.18974L45.684 13.1815C47.232 15.0857 49.7633 15.9035 52.1413 15.2678L60.8727 12.9334L61.3381 21.912C61.4648 24.3572 63.0293 26.4984 65.3289 27.3739L73.7727 30.5885L68.8418 38.1244C67.4989 40.1767 67.4989 42.8233 68.8418 44.8756L73.7727 52.4115L65.3289 55.6261C63.0293 56.5016 61.4648 58.6428 61.3381 61.088L60.8727 70.0666L52.1413 67.7322C49.7633 67.0965 47.232 67.9143 45.684 69.8185L40 76.8103L34.316 69.8185C32.768 67.9143 30.2367 67.0965 27.8587 67.7322L19.1273 70.0666L18.6619 61.088C18.5351 58.6428 16.9707 56.5016 14.6711 55.6261L6.2273 52.4115L11.1582 44.8756C12.5011 42.8233 12.5011 40.1767 11.1582 38.1244L6.2273 30.5885L14.6711 27.3739ZM50.525 9.29034L48.1045 11.2359L50.525 9.29034Z" fill="#41DC8F"/>
</svg>
