<svg width="22" height="21" viewBox="0 0 22 21" fill="none" xmlns="http://www.w3.org/2000/svg">
<path d="M10.6587 1.0113C9.03572 1.08877 7.45855 1.55831 6.07098 2.37711C4.6834 3.19591 3.52956 4.33794 2.7146 5.6991C1.89965 7.06026 1.44952 8.59726 1.40523 10.17C1.36094 11.7427 1.72391 13.3012 2.46104 14.7033L1.42783 19.5592C1.41497 19.6196 1.41803 19.6821 1.43672 19.741C1.45541 19.7999 1.48913 19.8533 1.53476 19.8962C1.5804 19.9392 1.63647 19.9703 1.69782 19.9867C1.75916 20.0032 1.82378 20.0044 1.88573 19.9902L6.80093 18.8625C8.13293 19.5039 9.59904 19.8411 11.0866 19.8483C12.5742 19.8555 14.0438 19.5325 15.3823 18.904C16.7208 18.2755 17.8928 17.3584 18.8081 16.223C19.7235 15.0876 20.3578 13.7641 20.6625 12.3543C20.9672 10.9445 20.934 9.48586 20.5656 8.09039C20.1972 6.69492 19.5034 5.39977 18.5374 4.30443C17.5714 3.20909 16.3589 2.34271 14.9931 1.77184C13.6273 1.20096 12.1446 0.94079 10.6587 1.0113V1.0113Z" stroke="white" stroke-width="1.5" stroke-miterlimit="10" stroke-linecap="round" stroke-linejoin="round"/>
</svg>
