<svg width="89" height="95" viewBox="0 0 89 95" fill="none" xmlns="http://www.w3.org/2000/svg">
<path d="M44.5 0C35.0045 0 27.3068 7.53117 27.3068 16.8213C27.3068 25.0986 33.4174 31.9795 41.4659 33.3816V45.5255H23.2614C18.2343 45.5255 14.1591 49.5126 14.1591 54.4309V61.6184C6.11063 63.0205 0 69.9014 0 78.1787C0 87.4688 7.69765 95 17.1932 95C26.6887 95 34.3864 87.4688 34.3864 78.1787C34.3864 69.9014 28.2757 63.0205 20.2273 61.6184V54.4309C20.2273 52.7915 21.5857 51.4624 23.2614 51.4624H65.7386C67.4143 51.4624 68.7727 52.7915 68.7727 54.4309V61.6184C60.7243 63.0205 54.6136 69.9014 54.6136 78.1787C54.6136 87.4688 62.3113 95 71.8068 95C81.3023 95 89 87.4688 89 78.1787C89 69.9014 82.8894 63.0205 74.8409 61.6184V54.4309C74.8409 49.5126 70.7657 45.5255 65.7386 45.5255H47.534V33.3816C55.5825 31.9796 61.6932 25.0986 61.6932 16.8213C61.6932 7.53117 53.9955 0 44.5 0ZM33.375 16.8213C33.375 10.8101 38.3558 5.93694 44.5 5.93694C50.6442 5.93694 55.625 10.8101 55.625 16.8213C55.625 22.8326 50.6442 27.7057 44.5 27.7057C38.3558 27.7057 33.375 22.8326 33.375 16.8213ZM6.06818 78.1787C6.06818 72.1674 11.049 67.2943 17.1932 67.2943C23.3373 67.2943 28.3182 72.1674 28.3182 78.1787C28.3182 84.1899 23.3373 89.0631 17.1932 89.0631C11.049 89.0631 6.06818 84.1899 6.06818 78.1787ZM71.8068 67.2943C77.951 67.2943 82.9318 72.1674 82.9318 78.1787C82.9318 84.1899 77.951 89.0631 71.8068 89.0631C65.6627 89.0631 60.6818 84.1899 60.6818 78.1787C60.6818 72.1674 65.6627 67.2943 71.8068 67.2943Z" fill="url(#paint0_linear_117:379)"/>
<defs>
<linearGradient id="paint0_linear_117:379" x1="45" y1="77.5" x2="44.5" y2="95" gradientUnits="userSpaceOnUse">
<stop stop-color="white"/>
<stop offset="1" stop-color="#F5F5F5" stop-opacity="0"/>
</linearGradient>
</defs>
</svg>
