<svg xmlns="http://www.w3.org/2000/svg" viewBox="0 0 180.98 82.14"><defs><style>.cls-1{fill:#fff;}.cls-2{fill:#ff4e05;}</style></defs><g id="Layer_2" data-name="Layer 2"><g id="Layer_1-2" data-name="Layer 1"><path class="cls-1" d="M23.43,56.87h5.23V75.34a2.21,2.21,0,0,0,.65,1.16,2.14,2.14,0,0,0,1.4.56h8.38c0,1.69,0,3.38,0,5.07-5.44-.06-9-.08-10.49,0a5.19,5.19,0,0,1-1.07-.06,4.93,4.93,0,0,1-2.85-1.71,5.53,5.53,0,0,1-1.31-3.27Q23.45,66.95,23.43,56.87Z"/><path class="cls-1" d="M20.22,56.75c-2.71,0-5.41,0-8.09,0a12,12,0,0,0-4.72,1.13,13,13,0,0,0-4.88,3.88A12.67,12.67,0,0,0,0,68.94a12.61,12.61,0,0,0,9.27,12.6,12.21,12.21,0,0,0,3.39.45h7.61V77H12.13a7.6,7.6,0,0,1-7-8.19,7.86,7.86,0,0,1,2.53-5,8.06,8.06,0,0,1,3.62-1.78c1.19-.29,1.84-.18,4.34-.15,1.1,0,2.71,0,4.67,0C20.22,60.13,20.22,58.44,20.22,56.75Z"/><path class="cls-1" d="M52.82,77a7.48,7.48,0,1,1,7.49-7.48A7.58,7.58,0,0,1,52.82,77Zm-.12-20.2A12.64,12.64,0,1,0,65.36,69.38,12.74,12.74,0,0,0,52.7,56.75Z"/><path class="cls-1" d="M147.36,77a7.48,7.48,0,1,1,7.49-7.48A7.59,7.59,0,0,1,147.36,77Zm-.09-20.2a12.64,12.64,0,1,0,12.67,12.63A12.74,12.74,0,0,0,147.27,56.75Z"/><path class="cls-1" d="M107.63,74.84A5.68,5.68,0,0,1,104,76.23H98V62.39h6.3a5.62,5.62,0,0,1,1.87.47,7.34,7.34,0,0,1,1.46,12Zm2.79-15.66a12.75,12.75,0,0,0-2.14-1.39c-.39-.18-.8-.36-1.28-.53a11,11,0,0,0-2.08-.48c-4,0-7.93,0-11.92,0V82.07h11a10.46,10.46,0,0,0,6.66-2.57,13.62,13.62,0,0,0,4.46-9.64A13.93,13.93,0,0,0,110.42,59.18Z"/><path class="cls-1" d="M67.8,56.75c1.72,0,3.48,0,5.2,0,0,4.36,0,6.56,0,7.74,0,.09,0,.33,0,.68,0,.15,0,2.17.06,3.89a14.5,14.5,0,0,0,.48,4A6.47,6.47,0,0,0,79,77a6.39,6.39,0,0,0,5.76-3.64c.3-.63.39-1.19.48-4,.06-2.31,0-4.24,0-5.54V56.78c1.72,0,3.44,0,5.14,0q0,6-.09,12a14.18,14.18,0,0,1-1,5.9A12.67,12.67,0,0,1,86,79.38,10.35,10.35,0,0,1,73,80.09a13,13,0,0,1-4.19-5.25,15,15,0,0,1-1-3.47,19.55,19.55,0,0,1-.15-2.25c0-1.13,0-2.7,0-4.6C67.8,61.94,67.8,59.36,67.8,56.75Z"/><path class="cls-1" d="M117,82.07h5.59V63.57a2,2,0,0,1,.71-1.15,2.29,2.29,0,0,1,1.52-.57h3.29l5.62-.09c0-1.66-.06-3.32-.06-5l-11,0h-.21a3.83,3.83,0,0,0-.92.09,5.34,5.34,0,0,0-3,1.72,5.45,5.45,0,0,0-1.39,3.26C117,68.61,117,75.34,117,82.07Z"/><path class="cls-1" d="M129.74,71.9c-2.41,0-4.82,0-7.22,0V66.86c2.37,0,4.78-.06,7.16-.06C129.68,68.52,129.71,70.21,129.74,71.9Z"/><path class="cls-1" d="M181,56.87h-6.36l-5,7.53L165.4,58a2.21,2.21,0,0,0-.74-.74,2.32,2.32,0,0,0-1.31-.39h-5.17c2.83,4.21,5.62,8.42,8.44,12.63l-8.44,12.63h6.36l5-7.53c1.49,2.26,2.95,4.51,4.43,6.76a1.51,1.51,0,0,0,.54.57,1.27,1.27,0,0,0,.83.17H181c-2.83-4.21-5.62-8.42-8.44-12.63Z"/><path class="cls-2" d="M111,0,94.58,9.07c-2.74,0-5.47,0-8.2-.06C80.91,6,75.44,3,70,0c1.31,5.66,2.62,11.36,3.92,17q8.3,11.93,16.56,23.84L107,17C108.31,11.36,109.62,5.66,111,0Z"/><path class="cls-1" d="M73.92,17Q72,22.14,70,27.25L90.48,40.86Q82.19,28.93,73.92,17Z"/><path class="cls-1" d="M107,16.93c1.31,3.44,2.65,6.88,4,10.29L90.48,40.83Q98.73,28.91,107,16.93Z"/></g></g></svg>