<svg xmlns="http://www.w3.org/2000/svg" viewBox="0 0 120.57 27.21"><defs><style>.cls-1{fill:#15034c;}.cls-2{fill:#107dff;}</style></defs><g id="Camada_2" data-name="Camada 2"><g id="Camada_1-2" data-name="Camada 1"><path class="cls-1" d="M56.9,12.44a7.65,7.65,0,0,1,4.43,2,6.65,6.65,0,0,1,1.43,4.65v.44a9.44,9.44,0,0,1-.49,3.22A4.87,4.87,0,0,1,60.62,25a7.61,7.61,0,0,1-3,1.29,20.06,20.06,0,0,1-4.43.42h-3.5c-1.29,0-2.89,0-4.84-.09l.41-2c1.71.05,3.19.08,4.43.08h3.47a18.31,18.31,0,0,0,3.6-.28,5,5,0,0,0,2.29-.9,3.33,3.33,0,0,0,1.18-1.66,8.44,8.44,0,0,0,.33-2.55,8.14,8.14,0,0,0-.19-2,3.39,3.39,0,0,0-.72-1.4,3.91,3.91,0,0,0-1.4-.94A9.33,9.33,0,0,0,56,14.45L51,13.59a11.16,11.16,0,0,1-2.84-.77,5.65,5.65,0,0,1-1.84-1.32,4.38,4.38,0,0,1-1-1.9A9.92,9.92,0,0,1,45,7.07V6.55a7.46,7.46,0,0,1,.47-2.7A4.8,4.8,0,0,1,47,1.79,7.3,7.3,0,0,1,49.8.47,17.41,17.41,0,0,1,54.12,0H57.4c.6,0,1.26,0,2,0s1.62,0,2.64.05l-.44,2c-.94,0-1.79,0-2.53,0s-1.41,0-2,0H54a17.88,17.88,0,0,0-3.3.25,5,5,0,0,0-2.12.85,3.26,3.26,0,0,0-1.13,1.51,6.49,6.49,0,0,0-.33,2.18,8.27,8.27,0,0,0,.19,1.89A3.39,3.39,0,0,0,48,10.07a3.66,3.66,0,0,0,1.38.94,9,9,0,0,0,2.2.57Z"/><path class="cls-1" d="M65.54,7.43h2.18V26.61H65.54ZM68.24,2a1.64,1.64,0,0,1-.41,1.26,1.72,1.72,0,0,1-1.19.39,1.68,1.68,0,0,1-1.18-.39A1.61,1.61,0,0,1,65.05,2,1.79,1.79,0,0,1,65.43.8a2.08,2.08,0,0,1,2.48,0A2,2,0,0,1,68.24,2Z"/><path class="cls-1" d="M70.11,26.64V14a9.81,9.81,0,0,1,.44-3.22,4.56,4.56,0,0,1,1.29-2A5.07,5.07,0,0,1,74,7.65a13.47,13.47,0,0,1,3-.3h2.33c.75,0,1.32,0,1.77,0l-.42,2c-.33,0-.85-.06-1.54-.06l-2,0a9.45,9.45,0,0,0-2.34.24,3,3,0,0,0-1.43.8,3.17,3.17,0,0,0-.75,1.51,12.15,12.15,0,0,0-.22,2.43V26.61H70.11Z"/><path class="cls-1" d="M83.21,7.43h2.17V26.61H83.21ZM85.9,2a1.61,1.61,0,0,1-.41,1.26,1.69,1.69,0,0,1-1.18.39A1.74,1.74,0,0,1,83.1,3.3,1.61,1.61,0,0,1,82.68,2,1.79,1.79,0,0,1,83.07.8a2.08,2.08,0,0,1,2.48,0A2,2,0,0,1,85.9,2Z"/><path class="cls-1" d="M95.64,27.21a13.59,13.59,0,0,1-3.85-.44,6.11,6.11,0,0,1-2.42-1.29,4.36,4.36,0,0,1-1.24-2.17,11.27,11.27,0,0,1-.36-3.06V7.43H90V20a11.14,11.14,0,0,0,.19,2.29,3.61,3.61,0,0,0,.77,1.65,3.84,3.84,0,0,0,1.71,1,14.26,14.26,0,0,0,6.1,0,3.36,3.36,0,0,0,1.71-1,3.51,3.51,0,0,0,.77-1.65,11.65,11.65,0,0,0,.19-2.34V7.43h2.18V20.22a10.72,10.72,0,0,1-.36,3A5,5,0,0,1,102,25.37a5.59,5.59,0,0,1-2.42,1.38A13.26,13.26,0,0,1,95.64,27.21Z"/><path class="cls-1" d="M115.15,16a9.57,9.57,0,0,1,2.59.58,4.41,4.41,0,0,1,1.65,1.07,3.84,3.84,0,0,1,.91,1.49,6.8,6.8,0,0,1,.27,1.87v.33a6.52,6.52,0,0,1-.36,2.31,3.94,3.94,0,0,1-1.18,1.7,5.5,5.5,0,0,1-2.17,1.05,13.08,13.08,0,0,1-3.39.36h-4.1c-.63,0-1.26,0-1.9,0s-1.29,0-2-.05l.41-1.9c1.13.05,2.28.08,3.49.08h4.16a14.25,14.25,0,0,0,2.39-.17,3.39,3.39,0,0,0,1.52-.6,2.1,2.1,0,0,0,.77-1.13,6.57,6.57,0,0,0,.19-1.73,3,3,0,0,0-.77-2.29,5,5,0,0,0-2.86-.9l-4-.42a6.44,6.44,0,0,1-4-1.51,4.59,4.59,0,0,1-1.21-3.39v-.41a4.27,4.27,0,0,1,1.65-3.71c1.1-.8,2.86-1.21,5.26-1.21h3.63c1.24,0,2.59,0,4,.08l-.41,1.9c-1.26-.06-2.53-.08-3.8-.08h-3.54a7,7,0,0,0-3.66.68,2.64,2.64,0,0,0-1,2.37,5.65,5.65,0,0,0,.14,1.24,2.15,2.15,0,0,0,.49,1,2.49,2.49,0,0,0,1.08.66,8.27,8.27,0,0,0,1.81.39Z"/><polygon class="cls-1" points="23.39 26.47 23.39 8.7 0 26.47 23.39 26.47"/><polygon class="cls-2" points="10.81 0.39 10.81 18.16 34.2 0.39 10.81 0.39"/></g></g></svg>