<svg xmlns="http://www.w3.org/2000/svg" width="42.143" height="37.112" viewBox="0 0 39.143 38">
    <defs>
        <style>
            .a,.b{fill:none;stroke-linecap:round;stroke-linejoin:round;stroke-miterlimit:10;stroke-width:1.5px;}.a{stroke:#002f67;}.b{stroke:#2e85ec;}
        </style>
    </defs>
    <g transform="translate(0.75 0.75)">
        <path class="a"
              d="M33.357,37h6.271V50.8H33.357Zm0,11.414c-1.254,0-9.345,3.637-13.8,3.637-2.634,0-4.954-1.38-10.034-3.763C7.143,47.16,2,44.149,2,42.017s6.836.69,12.606,2.509"
              transform="translate(-2 -15.677)"/>
        <ellipse class="b" cx="5.017" cy="5.017" rx="5.017" ry="5.017" transform="translate(15.114 0)"/>
        <circle class="b" cx="4.5" cy="4.5" r="4.5" transform="translate(6.836 11)"/>
        <circle class="a" cx="3.5" cy="3.5" r="3.5" transform="translate(18.836 13)"/>
        <path class="a" d="M30.88,47.78H24.609a2.509,2.509,0,1,1,0-5.017h2.509c7.526,0,5.017-3.763,13.8-3.763"
              transform="translate(-9.494 -16.423)"/>
    </g>
</svg>
