<?xml version="1.0" encoding="utf-8"?>
<!-- Generator: Adobe Illustrator 21.0.0, SVG Export Plug-In . SVG Version: 6.00 Build 0)  -->
<svg version="1.1" id="Camada_1" xmlns="http://www.w3.org/2000/svg" xmlns:xlink="http://www.w3.org/1999/xlink" x="0px" y="0px"
	 viewBox="0 0 23 23" style="enable-background:new 0 0 23 23;" xml:space="preserve">
<style type="text/css">
	.st0{fill:#D4D4D4;}
	.st1{filter:url(#Adobe_OpacityMaskFilter);}
	.st2{fill:#FFFFFF;}
	.st3{mask:url(#mask-2);}
</style>
<title>E657D19B-CDEC-4F23-B9CC-27E7AF384E36</title>
<desc>Created with sketchtool.</desc>
<g id="Symbols">
	<g id="icon_x2F_dashboard">
		<g id="color_x2F_primary_x2F_main-gradient" transform="translate(2.000000, 4.000000)">
			<g>
				<g id="Mask">
					<path id="path-1_1_" class="st0" d="M13.3,6.3l-2.8,2.8C10.3,9,10.2,9,10,9c-1.1,0-2,0.9-2,2c0,0.2,0,0.3,0.1,0.5l-0.8,0.8
						C7.1,12.5,7,12.7,7,13s0.1,0.5,0.3,0.7C7.5,13.9,7.7,14,8,14c0.3,0,0.5-0.1,0.7-0.3l0.8-0.8C9.7,13,9.8,13,10,13
						c1.1,0,2-0.9,2-2c0-0.2,0-0.3-0.1-0.5l2.8-2.8c0.4-0.4,0.4-1,0-1.4S13.7,5.9,13.3,6.3L13.3,6.3z M10,0C4.5,0,0,4.5,0,10
						c0,2,0.6,3.9,1.7,5.6C2,16,2.6,16.1,3.1,15.8c0.5-0.3,0.6-0.9,0.3-1.4C1.1,11.1,1.7,6.6,4.7,4s7.5-2.6,10.6,0s3.6,7.1,1.4,10.5
						c-0.1,0.2-0.2,0.5-0.2,0.8s0.2,0.5,0.4,0.6c0.2,0.1,0.4,0.2,0.6,0.2c0.3,0,0.6-0.2,0.8-0.4C19.4,13.9,20,12,20,10
						c0-2.7-1.1-5.2-2.9-7.1S12.7,0,10,0z"/>
				</g>
				<defs>
					<filter id="Adobe_OpacityMaskFilter" filterUnits="userSpaceOnUse" x="-2" y="-4" width="23" height="23">
						<feColorMatrix  type="matrix" values="1 0 0 0 0  0 1 0 0 0  0 0 1 0 0  0 0 0 1 0"/>
					</filter>
				</defs>
				<mask maskUnits="userSpaceOnUse" x="-2" y="-4" width="23" height="23" id="mask-2">
					<g class="st1">
						<path id="path-1" class="st2" d="M13.3,6.3l-2.8,2.8C10.3,9,10.2,9,10,9c-1.1,0-2,0.9-2,2c0,0.2,0,0.3,0.1,0.5l-0.8,0.8
							C7.1,12.5,7,12.7,7,13s0.1,0.5,0.3,0.7C7.5,13.9,7.7,14,8,14c0.3,0,0.5-0.1,0.7-0.3l0.8-0.8C9.7,13,9.8,13,10,13
							c1.1,0,2-0.9,2-2c0-0.2,0-0.3-0.1-0.5l2.8-2.8c0.4-0.4,0.4-1,0-1.4S13.7,5.9,13.3,6.3L13.3,6.3z M10,0C4.5,0,0,4.5,0,10
							c0,2,0.6,3.9,1.7,5.6C2,16,2.6,16.1,3.1,15.8c0.5-0.3,0.6-0.9,0.3-1.4C1.1,11.1,1.7,6.6,4.7,4s7.5-2.6,10.6,0
							s3.6,7.1,1.4,10.5c-0.1,0.2-0.2,0.5-0.2,0.8s0.2,0.5,0.4,0.6c0.2,0.1,0.4,0.2,0.6,0.2c0.3,0,0.6-0.2,0.8-0.4
							C19.4,13.9,20,12,20,10c0-2.7-1.1-5.2-2.9-7.1S12.7,0,10,0z"/>
					</g>
				</mask>
				<g class="st3">
					<g transform="translate(-2.000000, -4.000000)">
						<rect class="st0" width="23" height="23"/>
					</g>
				</g>
			</g>
		</g>
	</g>
</g>
</svg>
