<?xml version="1.0" encoding="utf-8"?>
<!-- Generator: Adobe Illustrator 21.0.0, SVG Export Plug-In . SVG Version: 6.00 Build 0)  -->
<svg version="1.1" id="Camada_1" xmlns="http://www.w3.org/2000/svg" xmlns:xlink="http://www.w3.org/1999/xlink" x="0px" y="0px"
	 viewBox="0 0 22 22" style="enable-background:new 0 0 22 22;" xml:space="preserve">
<style type="text/css">
	.st0{fill:#D4D4D4;}
</style>
<title>53D8C489-6CF1-4414-98EE-653ACB771FCD</title>
<desc>Created with sketchtool.</desc>
<g id="Symbols">
	<g id="icon_x2F_vendas">
		<g id="color_x2F_primary_x2F_main-gradient-copy-3" transform="translate(-1.000000, 1.000000)">
			<g>
				<g>
					<g id="Mask">
						<path id="path-2_1_" class="st0" d="M8.8,7h6.8l-2-3.5C13.3,3,13.5,2.4,14,2.1c0.5-0.3,1.1-0.1,1.4,0.4L18,7h2.4
							c0.1,0,0.1,0,0.2,0c0.2,0,0.4,0,0.7,0.1c0.6,0.2,0.9,0.8,0.8,1.2l-3.3,10.2c-0.1,0.4-0.5,0.6-1,0.5c0,0-0.1,0-0.1,0H6.7
							c-0.1,0-0.1,0-0.2,0c-0.5,0.1-1-0.1-1.1-0.5L2,8.3c-0.2-0.5,0.2-1,0.8-1.2C3.1,7,3.4,7,3.6,7c0.1,0,0.2,0,0.3,0h2.3l3-4.5
							c0.3-0.5,1-0.6,1.5-0.4c0.5,0.3,0.7,0.9,0.4,1.3L8.8,7z M6.9,9C6.8,9,6.8,9,6.7,9h-2l2.6,8h9.5l2.6-8h-1
							c-0.1,0.1-0.2,0.2-0.3,0.2c-0.4,0.3-1,0.1-1.3-0.2H6.9z"/>
					</g>
				</g>
			</g>
		</g>
	</g>
</g>
</svg>
