<?xml version="1.0" encoding="UTF-8"?>
<svg width="20px" height="20px" viewBox="0 0 20 20" version="1.1" xmlns="http://www.w3.org/2000/svg" xmlns:xlink="http://www.w3.org/1999/xlink">
    <!-- Generator: sketchtool 53.2 (72643) - https://sketchapp.com -->
    <title>163E3F90-C836-4794-ABB6-F50DC294B2B3</title>
    <desc>Created with sketchtool.</desc>
    <defs>
        <path d="M20,6.82 C20.0048203,6.75675839 20.0048203,6.69324161 20,6.63 L20,6.63 L20,6.63 L18,1.63 C17.8397061,1.22440831 17.4350482,0.969473852 17,1 L3,1 C2.59019615,0.999603285 2.2216273,1.24927896 2.07,1.63 L0.07,6.63 L0.07,6.63 L0.07,6.63 C0.0651796961,6.69324161 0.0651796961,6.75675839 0.07,6.82 C0.0367708527,6.87566619 0.0131095582,6.93650952 4.4408921e-16,7 L0,7 L0,7 C0.0226416056,8.40610895 0.782010851,9.69703667 2,10.4 L2,20 C2,20.5522847 2.44771525,21 3,21 L17,21 C17.5522847,21 18,20.5522847 18,20 L18,10.44 C19.2301781,9.72979082 19.9914262,8.42044424 20,7 L20,7 L20,7 C20.0093671,6.94036559 20.0093671,6.87963441 20,6.82 Z M11,19 L9,19 L9,15 L11,15 L11,19 Z M16,19 L13,19 L13,14 C13,13.4477153 12.5522847,13 12,13 L8,13 C7.44771525,13 7,13.4477153 7,14 L7,19 L4,19 L4,11 C5.15207229,10.9934991 6.24539898,10.4905689 7,9.62 C7.75933217,10.4810017 8.85199767,10.9742487 10,10.9742487 C11.1480023,10.9742487 12.2406678,10.4810017 13,9.62 C13.754601,10.4905689 14.8479277,10.9934991 16,11 L16,19 Z M16,9 C14.8954305,9 14,8.1045695 14,7 C14,6.44771525 13.5522847,6 13,6 C12.4477153,6 12,6.44771525 12,7 C12,8.1045695 11.1045695,9 10,9 C8.8954305,9 8,8.1045695 8,7 C8,6.44771525 7.55228475,6 7,6 C6.44771525,6 6,6.44771525 6,7 C6.02679492,7.71453118 5.6703566,8.38908014 5.06495191,8.76955081 C4.45954721,9.15002148 3.69715152,9.17861132 3.06495191,8.84455081 C2.43275229,8.5104903 2.02679492,7.86453118 2,7.15 L3.68,3 L16.32,3 L18,7.15 C17.9213628,8.1955986 17.0485473,9.0029529 16,9 Z" id="path-1"></path>
    </defs>
    <g id="Symbols" stroke="none" stroke-width="1" fill="none" fill-rule="evenodd">
        <g id="menu/main/side" transform="translate(-39.000000, -152.000000)">
            <g id="menu">
                <g transform="translate(37.000000, 101.000000)">
                    <g id="icon/vitrine" transform="translate(2.000000, 50.000000)">
                        <g id="color/primary/main-gradient-copy-2">
                            <g>
                                <mask id="mask-2" fill="white">
                                    <use xlink:href="#path-1"></use>
                                </mask>
                                <use id="Mask" fill="#000000" fill-rule="nonzero" xlink:href="#path-1"></use>
                                <g id="color/primary/gray" mask="url(#mask-2)" fill="#D4D4D4" fill-rule="nonzero">
                                    <g transform="translate(-2.000000, -1.000000)" id="color/primary/main-gradient">
                                        <rect x="0" y="0" width="23" height="23"></rect>
                                    </g>
                                </g>
                            </g>
                        </g>
                    </g>
                </g>
            </g>
        </g>
    </g>
</svg>