<svg width="19" height="19" viewBox="0 0 19 19" fill="none" xmlns="http://www.w3.org/2000/svg">
    <path d="M5.87875 7.82026C5.87875 7.51018 6.12906 7.2588 6.43782 7.2588H12.4777C12.7865 7.2588 13.0368 7.51018 13.0368 7.82026C13.0368 8.13035 12.7865 8.38172 12.4777 8.38172H6.43782C6.12906 8.38172 5.87875 8.13035 5.87875 7.82026ZM6.43979 10.6163C6.13102 10.6163 5.88072 10.8677 5.88072 11.1778C5.88072 11.4879 6.13102 11.7392 6.43979 11.7392H10.6887C10.9975 11.7392 11.2478 11.4879 11.2478 11.1778C11.2478 10.8677 10.9975 10.6163 10.6887 10.6163H6.43979ZM6.12027 1.17303C13.8524 -1.9346 21.4818 6.30961 17.3272 13.8198C15.4401 17.2311 10.7516 19.9781 5.29231 17.38L1.49768 18.4688C0.908897 18.6377 0.364789 18.0935 0.53001 17.5017C0.756494 16.6905 1.29314 14.778 1.6069 13.7416C-0.746256 9.52464 0.840481 3.29502 6.12027 1.17303ZM16.3498 13.2745C19.9662 6.7371 13.3429 -0.520324 6.53571 2.21556C1.85002 4.09879 0.486437 9.71359 2.69182 13.3816L2.82193 13.598L2.74685 13.8393C2.50885 14.6041 2.05947 16.1901 1.76955 17.2229L5.39847 16.1816L5.59232 16.2782C10.515 18.7289 14.6814 16.2904 16.3498 13.2745Z" fill="#E81414"/>
</svg>
