<svg width="21" height="21" viewBox="0 0 21 21" fill="none" xmlns="http://www.w3.org/2000/svg">
    <path d="M14.5815 3.5C16.1923 3.5 17.4981 4.80584 17.4981 6.41667C17.4981 8.0275 16.1923 9.33333 14.5815 9.33333C12.9707 9.33333 11.6648 8.0275 11.6648 6.41667C11.6648 4.80584 12.9707 3.5 14.5815 3.5ZM13.1231 6.41667C13.1231 7.22208 13.7761 7.875 14.5815 7.875C15.3869 7.875 16.0398 7.22208 16.0398 6.41667C16.0398 5.61125 15.3869 4.95833 14.5815 4.95833C13.7761 4.95833 13.1231 5.61125 13.1231 6.41667ZM0 2.77083C0 1.24054 1.24054 0 2.77083 0H18.2292C19.7595 0 21 1.24054 21 2.77083V18.2292C21 18.922 20.7457 19.5555 20.3254 20.0413C20.2941 20.0976 20.2547 20.1507 20.2073 20.1989C20.157 20.25 20.101 20.2922 20.0414 20.3253C19.5555 20.7457 18.922 21 18.2292 21H2.77083C2.07666 21 1.44211 20.7447 0.955926 20.3229C0.897862 20.2902 0.843352 20.2489 0.794255 20.199C0.748173 20.1522 0.709705 20.1007 0.67884 20.0461C0.255989 19.5597 0 18.9243 0 18.2292V2.77083ZM19.5417 18.2292V2.77083C19.5417 2.04596 18.954 1.45833 18.2292 1.45833H2.77083C2.04596 1.45833 1.45833 2.04596 1.45833 2.77083V18.2292C1.45833 18.3205 1.46765 18.4096 1.48539 18.4956L8.96565 11.133C9.81698 10.295 11.1831 10.295 12.0345 11.1329L19.5148 18.4945C19.5324 18.4088 19.5417 18.3201 19.5417 18.2292ZM2.77083 19.5417H18.2292C18.3136 19.5417 18.3962 19.5337 18.4762 19.5184L11.0116 12.1723C10.7278 11.893 10.2724 11.893 9.98864 12.1723L2.52491 19.5187C2.60457 19.5338 2.68678 19.5417 2.77083 19.5417Z" fill="#2E85EC"/>
</svg>
