<svg width="17" height="16" viewBox="0 0 17 16" fill="none" xmlns="http://www.w3.org/2000/svg">
    <path d="M0.542374 2.24988C0.542374 1.28338 1.32588 0.499878 2.29237 0.499878H10.7504C11.7169 0.499878 12.5004 1.28338 12.5004 2.24988V3.49994L13.3823 3.49982C13.9505 3.49974 14.47 3.82075 14.7241 4.329L16.3421 7.56498C16.4463 7.77326 16.5005 8.00293 16.5005 8.2358V11.9997C16.5005 12.8282 15.8289 13.4997 15.0005 13.4997H13.4504C13.2188 14.6409 12.2099 15.4999 11.0004 15.4999C9.7909 15.4999 8.78203 14.641 8.55039 13.4999H7.45037C7.21874 14.641 6.20986 15.4999 5.00038 15.4999C3.7909 15.4999 2.78203 14.641 2.55039 13.4999H2.29237C1.32588 13.4999 0.542374 12.7164 0.542374 11.7499V2.24988ZM8.55039 12.4999C8.78203 11.3588 9.7909 10.4999 11.0004 10.4999C11.1716 10.4999 11.3388 10.5171 11.5004 10.5499V2.24988C11.5004 1.83566 11.1646 1.49988 10.7504 1.49988H2.29237C1.87816 1.49988 1.54237 1.83566 1.54237 2.24988V11.7499C1.54237 12.1641 1.87816 12.4999 2.29237 12.4999H2.55039C2.78203 11.3588 3.7909 10.4999 5.00038 10.4999C6.20986 10.4999 7.21874 11.3588 7.45037 12.4999H8.55039ZM12.5004 10.9997C12.9804 11.3603 13.3265 11.8897 13.4503 12.4997H15.0005C15.2766 12.4997 15.5005 12.2759 15.5005 11.9997V8.49982H12.5004V10.9997ZM12.5004 7.49982H15.1915L13.8297 4.77621C13.745 4.60679 13.5718 4.49979 13.3824 4.49982L12.5004 4.49994V7.49982ZM5.00038 11.4999C4.17195 11.4999 3.50038 12.1715 3.50038 12.9999C3.50038 13.8283 4.17195 14.4999 5.00038 14.4999C5.82881 14.4999 6.50038 13.8283 6.50038 12.9999C6.50038 12.1715 5.82881 11.4999 5.00038 11.4999ZM9.50038 12.9999C9.50038 13.8283 10.172 14.4999 11.0004 14.4999C11.8288 14.4999 12.5004 13.8283 12.5004 12.9999C12.5004 12.1715 11.8288 11.4999 11.0004 11.4999C10.172 11.4999 9.50038 12.1715 9.50038 12.9999Z" fill="#E81414"/>
</svg>
