<svg width="22" height="26" viewBox="0 0 22 26" fill="none" xmlns="http://www.w3.org/2000/svg">
<path fill-rule="evenodd" clip-rule="evenodd" d="M8.13381 1.97674C8.27694 1.8279 8.46464 1.75 8.65385 1.75H13.3462C13.4405 1.75 13.5346 1.76928 13.6235 1.80755C13.7124 1.84586 13.7951 1.90284 13.8662 1.97674C13.9373 2.05071 13.9952 2.1401 14.0352 2.24052C14.0752 2.341 14.0962 2.44964 14.0962 2.56V3.45H7.90385V2.56C7.90385 2.33589 7.98973 2.12659 8.13381 1.97674ZM15.5962 2.56V3.45H18.878H18.8899H21C21.4142 3.45 21.75 3.78579 21.75 4.2C21.75 4.61421 21.4142 4.95 21 4.95H19.5915L18.5187 23.0705C18.5015 23.7661 18.2283 24.4339 17.747 24.9344C17.2611 25.4398 16.5999 25.7354 15.9001 25.7498L15.8846 25.75H6.11538L6.09994 25.7498C5.40013 25.7354 4.73892 25.4398 4.25302 24.9344C3.77172 24.4339 3.49849 23.7661 3.48126 23.0705L2.40847 4.95H1C0.585786 4.95 0.25 4.61421 0.25 4.2C0.25 3.78579 0.585786 3.45 1 3.45H3.11015H3.12201H6.40385V2.56C6.40385 1.95663 6.63404 1.37235 7.05256 0.937082C7.47205 0.500817 8.04741 0.25 8.65385 0.25H13.3462C13.6458 0.25 13.9418 0.311421 14.2169 0.429942C14.492 0.54843 14.7399 0.721264 14.9474 0.937082C15.1549 1.15284 15.318 1.4074 15.4287 1.6855C15.5395 1.96357 15.5962 2.26064 15.5962 2.56ZM3.9111 4.95H18.0889L17.0205 22.9957L17.0198 23.0113L17.0194 23.0257C17.013 23.3575 16.8833 23.6685 16.6657 23.8948C16.4506 24.1185 16.1672 24.2422 15.8759 24.25H6.12407C5.83275 24.2422 5.54936 24.1185 5.33427 23.8948C5.11666 23.6685 4.98695 23.3575 4.98063 23.0257C4.98044 23.0157 4.98005 23.0057 4.97946 22.9957L3.9111 4.95ZM9.02185 7.19157C9.00492 6.7777 8.65568 6.45592 8.24182 6.47285C7.82795 6.48978 7.50617 6.83901 7.5231 7.25288L8.06855 20.5862C8.08548 21.0001 8.43472 21.3219 8.84858 21.3049C9.26245 21.288 9.58423 20.9388 9.5673 20.5249L9.02185 7.19157ZM14.4764 7.25288C14.4933 6.83901 14.1715 6.48978 13.7577 6.47285C13.3438 6.45592 12.9946 6.7777 12.9776 7.19157L12.4322 20.5249C12.4153 20.9388 12.737 21.288 13.1509 21.3049C13.5648 21.3219 13.914 21.0001 13.9309 20.5862L14.4764 7.25288ZM11.7497 7.22223C11.7497 6.80801 11.414 6.47223 10.9997 6.47223C10.5855 6.47223 10.2497 6.80801 10.2497 7.22223V20.5556C10.2497 20.9698 10.5855 21.3056 10.9997 21.3056C11.414 21.3056 11.7497 20.9698 11.7497 20.5556V7.22223Z" fill="#838383"/>
</svg>
