<svg width="24" height="24" viewBox="0 0 24 24" fill="none" xmlns="http://www.w3.org/2000/svg">
<path d="M16.6645 4C18.5055 4 19.9979 5.4924 19.9979 7.33333C19.9979 9.17427 18.5055 10.6667 16.6645 10.6667C14.8236 10.6667 13.3312 9.17427 13.3312 7.33333C13.3312 5.4924 14.8236 4 16.6645 4ZM14.9979 7.33333C14.9979 8.2538 15.7441 9 16.6645 9C17.585 9 18.3312 8.2538 18.3312 7.33333C18.3312 6.41287 17.585 5.66667 16.6645 5.66667C15.7441 5.66667 14.9979 6.41287 14.9979 7.33333ZM0 3.16667C0 1.41777 1.41777 0 3.16667 0H20.8333C22.5823 0 24 1.41777 24 3.16667V20.8333C24 21.6251 23.7094 22.3491 23.229 22.9043C23.1932 22.9687 23.1482 23.0294 23.094 23.0845C23.0365 23.1429 22.9726 23.1911 22.9044 23.2289C22.3492 23.7093 21.6252 24 20.8333 24H3.16667C2.37332 24 1.64812 23.7083 1.09249 23.2262C1.02613 23.1888 0.963833 23.1415 0.90772 23.0845C0.855053 23.0311 0.811093 22.9722 0.77582 22.9099C0.29256 22.3539 0 21.6278 0 20.8333V3.16667ZM22.3333 20.8333V3.16667C22.3333 2.33824 21.6617 1.66667 20.8333 1.66667H3.16667C2.33824 1.66667 1.66667 2.33824 1.66667 3.16667V20.8333C1.66667 20.9377 1.67732 21.0395 1.69759 21.1378L10.2465 12.7234C11.2194 11.7657 12.7807 11.7657 13.7537 12.7233L22.3027 21.1365C22.3228 21.0386 22.3333 20.9372 22.3333 20.8333ZM3.16667 22.3333H20.8333C20.9299 22.3333 21.0243 22.3242 21.1157 22.3068L12.5847 13.9112C12.2603 13.592 11.7399 13.592 11.4156 13.9112L2.8856 22.3071C2.97667 22.3243 3.0706 22.3333 3.16667 22.3333Z" fill="#636363"/>
</svg>
