<svg xmlns="http://www.w3.org/2000/svg" xmlns:xlink="http://www.w3.org/1999/xlink" width="102" height="102" viewBox="0 0 102 102">
  <defs>
    <filter id="Elipse_11" x="0" y="0" width="102" height="102" filterUnits="userSpaceOnUse">
      <feOffset dy="3" input="SourceAlpha"/>
      <feGaussianBlur stdDeviation="3" result="blur"/>
      <feFlood flood-opacity="0.161"/>
      <feComposite operator="in" in2="blur"/>
      <feComposite in="SourceGraphic"/>
    </filter>
  </defs>
  <g id="Grupo_64" data-name="Grupo 64" transform="translate(8.508 5.508)">
    <g transform="matrix(1, 0, 0, 1, -8.51, -5.51)" filter="url(#Elipse_11)">
      <g id="Elipse_11-2" data-name="Elipse 11" transform="translate(9 6)" fill="#f41c1c" stroke="#f6f6f6" stroke-width="6">
        <circle cx="42" cy="42" r="42" stroke="none"/>
        <circle cx="42" cy="42" r="39" fill="none"/>
      </g>
    </g>
    <path id="exclamation-circle-solid" d="M32.679,6A26.679,26.679,0,1,0,59.359,32.679,26.679,26.679,0,0,0,32.679,6ZM29.367,19.34a3.335,3.335,0,0,1,6.67,0V34.658a3.335,3.335,0,1,1-6.67,0Zm3.313,30.014A3.824,3.824,0,1,1,36.5,45.53a3.824,3.824,0,0,1-3.824,3.824Z" transform="translate(10.043 10.043)" fill="#fff"/>
  </g>
</svg>
