<svg width="150" height="150" viewBox="0 0 150 150" fill="none" xmlns="http://www.w3.org/2000/svg">
<path d="M131.082 37.6997L65.0535 7L10.3837 33.9767V96.4652L79.6306 127.68L131.082 102.158V37.6997Z" stroke="#848484" stroke-width="1.5" stroke-miterlimit="10" stroke-linecap="round" stroke-linejoin="round"/>
<path d="M79.6306 63.8021C79.6306 63.8021 44.4211 49.2574 31.0965 43.5923L30.787 43.4607C30.787 43.4607 14.8073 36.5563 10.7387 34.5387L79.6306 63.8021ZM79.6306 63.8021L131.016 38.0622M79.6306 63.8021L103.695 51.7478M79.6306 63.8021V127.68" stroke="#848484" stroke-width="1.5" stroke-miterlimit="10" stroke-linecap="round" stroke-linejoin="round"/>
<g clip-path="url(#clip0)">
<path d="M140.5 39.4341V101.127" stroke="#DEDEDE" stroke-width="1.5" stroke-linecap="round"/>
<path d="M137.7 38.6174H143.3" stroke="#DEDEDE" stroke-width="1.5" stroke-linecap="round"/>
<path d="M137.7 101.383H143.3" stroke="#DEDEDE" stroke-width="1.5" stroke-linecap="round"/>
</g>
<g clip-path="url(#clip1)">
<path d="M75.7372 137.101L7.8757 106.399" stroke="#2E85EC" stroke-width="1.5" stroke-linecap="round"/>
<path d="M77.2126 135.038L75.6176 139.778" stroke="#2E85EC" stroke-width="1.5" stroke-linecap="round"/>
<path d="M8.46071 103.933L6.86565 108.672" stroke="#2E85EC" stroke-width="1.5" stroke-linecap="round"/>
</g>
<g clip-path="url(#clip2)">
<path d="M134.799 114.67L86.8078 138.787" stroke="#DEDEDE" stroke-width="1.5" stroke-linecap="round"/>
<path d="M134.585 112.074L136.322 116.608" stroke="#DEDEDE" stroke-width="1.5" stroke-linecap="round"/>
<path d="M85.7348 136.623L87.4716 141.157" stroke="#DEDEDE" stroke-width="1.5" stroke-linecap="round"/>
</g>
<defs>
<clipPath id="clip0">
<rect width="7" height="64" fill="white" transform="translate(137 38)"/>
</clipPath>
<clipPath id="clip1">
<rect width="71.0735" height="39.697" fill="white" transform="matrix(0.999462 -0.0327981 0.0262787 0.999655 6 103.179)"/>
</clipPath>
<clipPath id="clip2">
<rect width="51.9164" height="31.0026" fill="white" transform="matrix(0.999982 0.00606707 -0.0048602 0.999988 85.1455 110.956)"/>
</clipPath>
</defs>
</svg>
