<svg width="23" height="24" viewBox="0 0 23 24" fill="none" xmlns="http://www.w3.org/2000/svg">
<path d="M11.5 7.5C9.01472 7.5 7 9.51472 7 12C7 14.4853 9.01472 16.5 11.5 16.5C12.8488 16.5 14.059 15.9066 14.8838 14.9666C15.5787 14.1745 16 13.1365 16 12C16 11.5401 15.931 11.0962 15.8028 10.6783C15.2382 8.838 13.5253 7.5 11.5 7.5ZM8.5 12C8.5 10.3431 9.84315 9 11.5 9C13.1569 9 14.5 10.3431 14.5 12C14.5 13.6569 13.1569 15 11.5 15C9.84315 15 8.5 13.6569 8.5 12ZM19.2093 20.3947L17.4818 19.6364C16.9876 19.4197 16.4071 19.4514 15.94 19.7219C15.4729 19.9923 15.175 20.4692 15.1157 21.0065L14.908 22.8855C14.8651 23.2729 14.584 23.5917 14.2055 23.6819C12.4263 24.106 10.5725 24.106 8.79326 23.6819C8.41476 23.5917 8.13363 23.2729 8.09081 22.8855L7.88343 21.0093C7.82251 20.473 7.5112 19.9976 7.04452 19.728C6.57783 19.4585 6.01117 19.4269 5.51859 19.6424L3.79071 20.4009C3.43281 20.558 3.01493 20.4718 2.74806 20.1858C1.50474 18.8536 0.57924 17.2561 0.0412152 15.5136C-0.074669 15.1383 0.0592244 14.7307 0.3749 14.4976L1.90219 13.3703C2.33721 13.05 2.59414 12.5415 2.59414 12.0006C2.59414 11.4597 2.33721 10.9512 1.90162 10.6305L0.375288 9.50507C0.0591436 9.27196 -0.0748729 8.86375 0.0414199 8.48812C0.580376 6.74728 1.50637 5.15157 2.74971 3.82108C3.01684 3.53522 3.43492 3.44935 3.79276 3.60685L5.51296 4.36398C6.00793 4.58162 6.57696 4.54875 7.04617 4.27409C7.51335 4.00258 7.82437 3.52521 7.88442 2.98787L8.09334 1.11011C8.13697 0.717971 8.42453 0.396974 8.80894 0.311314C9.69003 0.114979 10.5891 0.0106508 11.5131 0C12.4147 0.0104117 13.3128 0.114784 14.1928 0.311432C14.577 0.397275 14.8643 0.718169 14.9079 1.11011L15.117 2.98931C15.2116 3.85214 15.9387 4.50566 16.8055 4.50657C17.0385 4.50694 17.269 4.45832 17.4843 4.36288L19.2048 3.60562C19.5626 3.44812 19.9807 3.53399 20.2478 3.81984C21.4912 5.15034 22.4172 6.74605 22.9561 8.48689C23.0723 8.86227 22.9386 9.27022 22.6228 9.50341L21.0978 10.6297C20.6628 10.9499 20.4 11.4585 20.4 11.9994C20.4 12.5402 20.6628 13.0488 21.0988 13.3697L22.6251 14.4964C22.941 14.7296 23.0748 15.1376 22.9586 15.513C22.4198 17.2536 21.4944 18.8491 20.2517 20.1799C19.9849 20.4657 19.5671 20.5518 19.2093 20.3947ZM13.763 20.1965C13.9982 19.4684 14.4889 18.8288 15.1884 18.4238C16.0702 17.9132 17.1536 17.8546 18.0841 18.2626L19.4281 18.8526C20.291 17.8537 20.9593 16.7013 21.3981 15.4551L20.2095 14.5777L20.2086 14.577C19.398 13.9799 18.9 13.0276 18.9 11.9994C18.9 10.9718 19.3974 10.0195 20.2073 9.42265L20.2085 9.4217L21.3957 8.54496C20.9567 7.29874 20.2881 6.1463 19.4248 5.14764L18.0922 5.73419L18.0899 5.73521C17.6844 5.91457 17.2472 6.00716 16.8039 6.00657C15.1715 6.00447 13.8046 4.77425 13.6261 3.15459L13.6259 3.15285L13.4635 1.69298C12.8202 1.57322 12.1677 1.50866 11.513 1.50011C10.8389 1.50885 10.1821 1.57361 9.53771 1.69322L9.37514 3.15446C9.26248 4.16266 8.67931 5.05902 7.80191 5.5698C6.91937 6.08554 5.84453 6.14837 4.90869 5.73688L3.57273 5.14887C2.70949 6.14745 2.04092 7.29977 1.60196 8.54587L2.79181 9.42319C3.61115 10.0268 4.09414 10.9836 4.09414 12.0006C4.09414 13.0172 3.61142 13.9742 2.79237 14.5776L1.60161 15.4565C2.04002 16.7044 2.7085 17.8584 3.57205 18.8587L4.91742 18.2681C5.84745 17.8613 6.91573 17.9214 7.79471 18.4291C8.67398 18.9369 9.25934 19.8319 9.37384 20.84L9.37435 20.8445L9.53619 22.3087C10.8326 22.5638 12.1662 22.5638 13.4626 22.3087L13.6247 20.8417C13.6491 20.6217 13.6955 20.4054 13.763 20.1965Z" fill="#636363"/>
</svg>
