<?xml version="1.0" encoding="UTF-8"?>
<svg width="20px" height="18px" viewBox="0 0 20 18" version="1.1" xmlns="http://www.w3.org/2000/svg" xmlns:xlink="http://www.w3.org/1999/xlink">
    <!-- Generator: sketchtool 53.2 (72643) - https://sketchapp.com -->
    <title>6EAD7DB7-DDAF-4531-8C7F-EC2AC6517566</title>
    <desc>Created with sketchtool.</desc>
    <defs>
        <path d="M19,7.5 L18,7.5 L18,6.5 C18,5.94771525 17.5522847,5.5 17,5.5 C16.4477153,5.5 16,5.94771525 16,6.5 L16,7.5 L15,7.5 C14.4477153,7.5 14,7.94771525 14,8.5 C14,9.05228475 14.4477153,9.5 15,9.5 L16,9.5 L16,10.5 C16,11.0522847 16.4477153,11.5 17,11.5 C17.5522847,11.5 18,11.0522847 18,10.5 L18,9.5 L19,9.5 C19.5522847,9.5 20,9.05228475 20,8.5 C20,7.94771525 19.5522847,7.5 19,7.5 Z M11.3,9.22 C12.3796492,8.28545144 13.0000156,6.92794377 13,5.5 C13,2.73857625 10.7614237,0.5 8,0.5 C5.23857625,0.5 3,2.73857625 3,5.5 C2.9999844,6.92794377 3.6203508,8.28545144 4.7,9.22 C1.84094096,10.5146379 0.0030061001,13.3614817 0,16.5 C0,17.0522847 0.44771525,17.5 1,17.5 C1.55228475,17.5 2,17.0522847 2,16.5 C2.00000005,13.1862915 4.68629154,10.5000001 8,10.5000001 C11.3137085,10.5000001 14,13.1862915 14,16.5 C14,17.0522847 14.4477153,17.5 15,17.5 C15.5522847,17.5 16,17.0522847 16,16.5 C15.9969939,13.3614817 14.159059,10.5146379 11.3,9.22 L11.3,9.22 Z M8,8.5 C6.34314575,8.5 5,7.15685425 5,5.5 C5,3.84314575 6.34314575,2.5 8,2.5 C9.65685425,2.5 11,3.84314575 11,5.5 C11,6.29564947 10.6839295,7.05871121 10.1213203,7.62132034 C9.55871121,8.18392948 8.79564947,8.5 8,8.5 Z" id="path-1"></path>
    </defs>
    <g id="Symbols" stroke="none" stroke-width="1" fill="none" fill-rule="evenodd">
        <g id="menu/main/side" transform="translate(-39.000000, -574.000000)">
            <g id="menu">
                <g transform="translate(37.000000, 101.000000)">
                    <g id="icon/convites" transform="translate(2.000000, 473.000000)">
                        <g id="color/primary/main-gradient-copy-7">
                            <g>
                                <mask id="mask-2" fill="white">
                                    <use xlink:href="#path-1"></use>
                                </mask>
                                <use id="Mask" fill="#000000" fill-rule="nonzero" xlink:href="#path-1"></use>
                                <g id="color/primary/gray" mask="url(#mask-2)" fill="#D4D4D4" fill-rule="nonzero">
                                    <g transform="translate(-2.000000, -3.000000)" id="color/primary/main-gradient">
                                        <rect x="0" y="0" width="23" height="23"></rect>
                                    </g>
                                </g>
                            </g>
                        </g>
                    </g>
                </g>
            </g>
        </g>
    </g>
</svg>