<svg width="220" height="224" viewBox="0 0 220 224" fill="none" xmlns="http://www.w3.org/2000/svg">
<path d="M50.4453 194.216H190.632" stroke="#CDD6E1" stroke-width="2.38568" stroke-miterlimit="10" stroke-linecap="round" stroke-linejoin="round"/>
<path d="M204.322 194.216H218.206" stroke="#CDD6E1" stroke-width="2.38568" stroke-miterlimit="10" stroke-linecap="round" stroke-linejoin="round"/>
<path d="M53.5176 183.565C57.7882 183.565 61.2501 180.103 61.2501 175.832C61.2501 171.562 57.7882 168.1 53.5176 168.1C49.2471 168.1 45.7852 171.562 45.7852 175.832C45.7852 180.103 49.2471 183.565 53.5176 183.565Z" fill="#B8BFCD"/>
<path d="M129.219 151.393C129.314 163.613 130.364 179.077 130.746 180.7C130.651 182.419 127.023 187.86 124.064 184.137C121.104 180.414 115.09 172.395 117.859 157.312C120.627 142.324 129.219 151.393 129.219 151.393Z" fill="#F1F3F9" stroke="#D6DCE8" stroke-width="1.59045" stroke-miterlimit="10"/>
<path d="M52.4682 183.469C52.4682 183.564 52.4682 183.755 52.5637 183.851C52.5637 183.946 52.6591 184.137 52.6591 184.233C52.7546 184.328 52.7546 184.519 52.8501 184.615C52.9455 184.71 53.041 184.805 53.1365 184.996C53.6138 185.665 54.4729 186.237 55.4276 186.81C55.6185 186.906 55.9049 187.001 56.0958 187.097C56.1913 187.192 56.3822 187.192 56.4777 187.287C56.5731 187.383 56.764 187.383 56.8595 187.478L57.2414 187.574C57.7187 187.765 58.2914 187.956 58.8642 188.051C59.1506 188.147 59.3415 188.147 59.6279 188.242C59.8189 188.242 60.0098 188.338 60.2962 188.338C60.4871 188.338 60.678 188.433 60.8689 188.433C62.3963 188.624 63.8283 188.529 65.0693 188.051C69.3651 186.428 71.0834 183.087 71.0834 183.087C71.0834 183.087 72.229 183.374 74.0428 183.564C77.4794 184.042 83.2072 184.71 88.1713 184.233C89.7941 184.042 91.5125 183.66 93.3262 183.183C93.899 182.992 94.4718 182.801 95.14 182.61C96.2856 182.228 97.3357 181.751 98.4812 181.273C101.536 179.937 104.4 178.123 106.786 176.118C107.073 175.927 107.359 175.641 107.646 175.45C108.982 174.209 110.128 172.873 110.987 171.536C112.705 168.577 114.996 166.095 117.478 163.708C121.201 160.176 125.593 157.121 129.602 153.876C130.843 152.921 132.084 151.871 133.23 150.916C136.953 147.67 140.294 143.852 142.585 139.461C145.067 134.688 145.067 130.201 144.685 124.95C144.685 124.664 144.112 121.227 144.303 121.132C146.022 119.986 147.263 118.363 147.931 116.359C149.458 112.349 148.885 107.194 147.072 103.853C146.881 103.471 146.69 103.089 146.499 102.803C144.59 99.4619 142.299 95.5479 139.721 92.9704L135.043 88.2927H94.3763C94.3763 88.2927 93.899 91.0611 93.2308 94.4978C93.1353 94.7842 93.1353 95.0706 93.0399 95.357C92.9444 95.9297 92.8489 96.5025 92.658 97.0753C92.5625 97.3617 92.5625 97.6481 92.4671 97.9345C92.4671 98.0299 92.4671 98.0299 92.3716 98.1254C92.2761 98.7936 92.0852 99.3664 91.9898 100.035C91.6079 101.944 91.1306 103.662 90.5578 105.094C90.5578 105.19 90.4624 105.381 90.4624 105.476C90.176 106.24 89.8896 106.908 89.6032 107.385C87.3121 111.108 75.6656 121.8 67.5513 127.814C59.437 133.828 55.714 144.043 53.6138 160.558C51.2272 176.978 52.0864 180.319 52.4682 183.469Z" fill="white" stroke="#D6DCE8" stroke-width="1.59045" stroke-miterlimit="10" stroke-linejoin="round"/>
<path d="M125.784 178.982C131.225 178.41 131.13 178.982 134.184 178.982C137.239 178.982 138.003 180.51 139.149 181.942C139.817 182.896 140.771 185.665 141.344 187.669C141.726 188.815 140.867 189.865 139.721 189.961C136.285 189.961 130.08 190.056 129.03 189.961C127.502 189.77 124.256 189.388 122.824 187.001C122.347 186.142 122.061 184.997 121.774 183.851C121.392 181.655 122.824 179.46 125.116 179.173L125.784 178.982Z" fill="white" stroke="#D6DCE8" stroke-width="1.59045" stroke-miterlimit="10"/>
<path opacity="0.3" d="M52.467 183.469C52.7534 186.619 60.5813 189.579 64.8771 187.956C69.2684 186.333 70.8913 182.992 70.8913 182.992C70.8913 182.992 80.3421 184.901 87.9791 184.233C93.7069 183.66 101.439 180.319 106.499 176.023L105.831 161.513C105.831 161.513 105.258 148.816 104.685 143.279C104.208 137.742 108.599 137.838 108.408 130.678C108.122 123.518 110.986 110.822 114.709 99.1754L101.726 89.4382L92.8477 94.4978C91.9885 99.2709 90.5566 105.285 89.3156 107.481C87.0245 111.204 75.378 121.896 67.2637 127.91C59.1494 133.924 55.4263 144.138 53.3262 160.653C51.226 176.977 52.0852 180.319 52.467 183.469Z" fill="#C4D1E4"/>
<path opacity="0.2" d="M52.4681 183.469C52.4681 183.565 52.4681 183.755 52.5636 183.851C52.5636 183.946 52.659 184.137 52.659 184.233C52.7545 184.328 52.7545 184.519 52.8499 184.615C52.9454 184.71 53.0409 184.806 53.1363 184.997C53.6136 185.665 54.4728 186.238 55.4274 186.81C55.6184 186.906 55.9047 187.001 56.0957 187.097C56.1911 187.192 56.3821 187.192 56.4775 187.288C56.573 187.383 56.7639 187.383 56.8594 187.479L57.2412 187.574C57.7185 187.765 58.2913 187.956 58.8641 188.051C59.1505 188.147 59.3414 188.147 59.6278 188.242C60.9643 187.383 61.728 186.81 61.728 186.81C61.728 186.81 61.728 186.81 61.1552 183.374C60.9643 182.324 60.7733 180.892 60.487 178.982C59.2459 171.059 60.1051 155.403 70.7015 155.88C69.5559 147.862 73.9472 138.984 77.7657 133.351C81.6797 127.814 84.5436 130.869 87.8847 134.688C88.2666 133.065 86.5483 126.573 84.4481 120.846C88.7439 126.001 92.5624 127.814 102.777 128.769C98.1947 124.95 97.6219 122.946 93.8989 114.545C98.5766 116.741 108.123 119.318 113.851 120.082C127.693 121.896 139.626 121.227 147.644 116.359C149.172 112.349 148.599 107.194 146.785 103.853C146.594 103.471 146.403 103.09 146.212 102.803C138.862 102.135 126.356 101.085 114.614 100.035C106.023 99.271 97.8129 98.5073 92.276 98.03C92.276 98.1255 92.276 98.1255 92.1806 98.221C92.0851 98.8892 91.8942 99.462 91.7987 100.13C91.4169 102.039 90.9395 103.758 90.3668 105.19C90.3668 105.285 90.2713 105.476 90.2713 105.572C89.9849 106.335 89.6985 107.004 89.4121 107.481C87.121 111.204 75.4746 121.896 67.3603 127.91C59.2459 133.924 55.5229 144.138 53.4227 160.654C51.2271 176.978 52.0862 180.319 52.4681 183.469Z" fill="#BFC8D6"/>
<path d="M107.359 189.101C107.359 189.101 106.596 177.55 106.5 176.023C106.405 174.973 100.2 179.937 94.472 169.341C88.7442 158.744 87.885 156.835 88.076 154.162C86.3576 167.622 91.7035 176.691 92.7536 181.56C93.8037 186.428 94.7583 186.238 94.7583 186.238L104.4 188.147L107.359 189.101Z" fill="#DBDFE6"/>
<path d="M97.8123 181.274C103.254 180.605 103.158 181.274 106.213 181.274C109.268 181.274 110.032 182.896 111.177 184.424C111.845 185.378 112.8 188.433 113.373 190.629C113.755 191.87 112.895 193.015 111.75 193.015C108.313 193.015 100.676 192.92 99.6261 192.825C98.0987 192.634 96.2849 192.347 94.9485 189.77C94.4712 188.815 94.1848 187.574 93.8984 186.333C93.5165 183.947 94.9485 181.655 97.2396 181.274H97.8123Z" fill="white" stroke="#D6DCE8" stroke-width="1.59045" stroke-miterlimit="10"/>
<path d="M72.9916 182.896C75.4736 184.423 76.9055 188.051 77.6692 190.628C78.0511 191.869 77.1919 193.015 76.0464 193.015C72.6097 193.015 64.9727 192.919 63.9226 192.824C57.9085 192.06 57.2402 185.473 61.8224 182.896C64.6863 181.178 70.1277 181.082 72.9916 182.896Z" fill="white" stroke="#D6DCE8" stroke-width="1.59045" stroke-miterlimit="10"/>
<path d="M139.099 108.654C138.248 109.451 137.289 110.166 136.317 110.787C134.994 111.651 133.563 112.434 132.118 113.122C127.69 115.201 122.978 116.645 117.996 116.874C113.879 117.076 109.505 116.832 105.468 115.576C104.064 115.198 102.633 114.631 101.391 114.037C94.2365 110.526 90.1597 107.636 89.5936 99.6166C89.0276 91.5973 89.3929 85.3736 89.3929 85.3736C89.393 84.6986 90.1221 83.7266 90.3247 83.1191C90.7028 82.3902 90.9729 81.5802 91.351 80.8512C92.0127 79.4067 92.7554 77.8543 93.5251 76.4908C95.2265 73.5479 97.3734 71.0236 100.101 69.1879C104.502 66.2453 109.835 65.0984 115.06 64.5455C118.854 64.1005 122.782 63.9255 126.589 64.925C129.897 65.8029 132.732 67.4233 135.269 69.6647C138.023 72.0681 140.183 75.0385 142.599 77.7794C142.599 77.7794 144.691 83.6523 146.391 91.5098C148.091 99.3673 144.972 103.188 139.099 108.654Z" fill="white" stroke="#D6DCE8" stroke-width="1.59045" stroke-miterlimit="10" stroke-linejoin="round"/>
<path d="M107.332 96.2167C106.333 97.3236 105.401 100.928 99.9063 99.5909C92.1032 97.6189 91.4834 87.8715 95.1155 84.2673C101.61 77.7474 109.44 79.2334 111.599 86.2539C113.826 93.7469 109.344 94.0974 107.332 96.2167Z" fill="#F1F3F9" stroke="#D6DCE8" stroke-width="1.59045" stroke-miterlimit="10"/>
<path d="M92.0812 73.1291C94.1741 70.2268 97.2656 70.9427 96.1987 74.2772C94.4565 79.6366 90.973 82.2553 90.7006 101.966C90.6192 105.449 78.7126 98.3733 78.2146 86.1014C78.0799 83.8063 80.8476 82.9291 80.8476 82.9291C82.5082 82.4028 88.7865 77.7459 92.0812 73.1291Z" fill="#D6DCE8" stroke="#AAB2C5" stroke-width="1.59045" stroke-miterlimit="10"/>
<path d="M135.361 105.427C135.698 107.79 135.36 110.152 134.496 112.204C133.348 112.947 132.093 113.608 130.837 114.27C126.949 116.078 122.79 117.347 118.578 117.562C115.041 117.778 111.14 117.467 107.616 116.427C105.996 114.537 105.011 112.363 104.647 109.811C103.541 102.062 109.549 94.8398 118.055 93.6258C126.466 92.4253 134.255 97.6779 135.361 105.427Z" fill="#F1F3F9" stroke="#D6DCE8" stroke-width="1.59045" stroke-miterlimit="10"/>
<path d="M102.933 95.784C106.013 95.3444 108.153 92.4917 107.713 89.4123C107.274 86.3329 104.421 84.1928 101.341 84.6324C98.262 85.0719 96.1219 87.9246 96.5615 91.004C97.001 94.0834 99.8537 96.2235 102.933 95.784Z" fill="white"/>
<path d="M107.226 90.0606C107.563 92.4232 105.862 94.6911 103.499 95.0283C101.137 95.3655 98.8688 93.6642 98.5316 91.3016C98.9636 91.6256 99.4766 91.8417 100.044 91.7608C101.083 91.6124 101.907 90.627 101.745 89.4929C101.597 88.4533 100.625 87.7242 99.5716 87.7781C100.233 87.0086 101.219 86.4822 102.258 86.3339C104.715 85.9831 106.875 87.6035 107.226 90.0606Z" fill="#989FB0"/>
<path d="M133.93 91.3599C137.01 90.9204 139.15 88.0677 138.71 84.9883C138.271 81.9088 135.418 79.7688 132.338 80.2083C129.259 80.6478 127.119 83.5005 127.559 86.5799C127.998 89.6594 130.851 91.7994 133.93 91.3599Z" fill="white"/>
<path d="M128.206 87.066C128.544 89.4286 130.812 91.1299 133.174 90.7927C135.537 90.4555 137.238 88.1876 136.901 85.825C136.577 86.257 136.145 86.6079 135.578 86.6889C134.538 86.8372 133.472 86.1216 133.31 84.9875C133.161 83.948 133.891 82.976 134.917 82.7331C134.066 82.1795 132.973 81.9499 131.933 82.0983C129.571 82.4355 127.856 84.6088 128.206 87.066Z" fill="#989FB0"/>
<path d="M118.188 94.5708C117.432 94.6787 116.689 94.8811 115.96 95.1781C115.056 95.5965 113.706 96.2713 113.881 97.4999C114.097 99.012 117.89 99.917 118.835 99.7821C119.781 99.6472 123.183 97.8115 122.954 96.205C122.738 94.6929 121.253 94.4227 119.997 94.409C119.417 94.3955 118.742 94.3954 118.188 94.5708Z" fill="#989FB0"/>
<path d="M119.173 99.4449L118.822 99.0128L118.606 99.5258C118.606 99.5258 118.795 102.874 118.187 104.021C118.754 104.615 119.226 104.548 119.402 104.427C119.699 104.481 120.171 104.413 120.455 103.698C119.753 102.834 119.173 99.4449 119.173 99.4449Z" fill="#989FB0"/>
<path d="M99.8561 78.2874C98.587 78.8542 97.5069 79.3941 96.6697 80.285C95.8326 81.176 95.2384 82.4179 95.0358 83.7004C95.0493 83.795 94.9548 83.8084 94.8603 83.8219C94.7658 83.8354 94.7523 83.7409 94.7523 83.7409C94.6578 83.0794 94.8334 82.2829 95.036 81.6754C95.2251 80.9734 95.6167 80.3389 96.1163 79.7854C96.6159 79.232 97.129 78.773 97.75 78.3951C98.3846 78.1117 99.1271 77.9093 99.8156 78.0038C99.9236 78.0849 100.032 78.1659 99.8561 78.2874C99.9506 78.2739 99.9506 78.2739 99.8561 78.2874Z" fill="#989FB0"/>
<path d="M131.894 73.7148C133.271 73.904 134.459 74.1201 135.512 74.7413C136.565 75.3624 137.482 76.3886 138.036 77.5632C138.049 77.6577 138.144 77.6442 138.238 77.6307C138.333 77.6172 138.319 77.5227 138.319 77.5227C138.225 76.8612 137.834 76.1456 137.469 75.6191C137.091 74.998 136.538 74.4984 135.903 74.1068C135.269 73.7152 134.648 73.4181 133.946 73.229C133.257 73.1345 132.488 73.1479 131.853 73.4313C131.772 73.5393 131.786 73.6338 131.894 73.7148C131.799 73.7283 131.894 73.7148 131.894 73.7148Z" fill="#989FB0"/>
<path d="M137.309 65.7094C134.488 63.5084 131.72 65.0607 133.677 67.9635C136.849 72.6215 140.926 74.1611 146.702 93.0084C147.755 96.3297 157.206 86.2055 154.251 74.2842C153.738 72.0431 150.836 71.9752 150.836 71.9752C149.094 71.9345 141.764 69.22 137.309 65.7094Z" fill="#D6DCE8" stroke="#AAB2C5" stroke-width="1.59045" stroke-miterlimit="10"/>
<path d="M5.02261 196.356H26.9793C28.6022 196.356 28.8886 198.743 27.2657 199.029C12.5645 202.084 -5.1916 203.325 5.02291 209.53C22.3971 220.031 49.5085 225.377 81.7749 219.363C110.796 214.017 111.177 135.356 112.514 113.781C112.8 109.963 115.951 106.908 119.769 106.908H122.251C126.26 106.908 129.602 110.154 129.602 114.163V127.146" stroke="#AAB2C2" stroke-width="3.1809" stroke-miterlimit="10" stroke-linecap="round" stroke-linejoin="round"/>
<path d="M130.025 108.791C131.121 113.437 127.34 115.702 122.23 116.908C117.12 118.113 112.725 117.777 111.629 113.131C110.533 108.485 113.744 103.804 118.855 102.599C123.965 101.394 128.93 104.146 130.025 108.791Z" fill="#D6DCE8" stroke="#AAB2C5" stroke-width="1.59045" stroke-miterlimit="10"/>
<path d="M125.115 151.394C124.16 151.394 123.396 150.63 123.396 149.676V142.993C123.396 142.039 124.16 141.275 125.115 141.275C126.069 141.275 126.833 142.039 126.833 142.993V149.676C126.833 150.726 126.069 151.394 125.115 151.394Z" fill="#989FB0"/>
<path d="M133.993 151.394C133.038 151.394 132.274 150.63 132.274 149.675V142.993C132.274 142.038 133.038 141.275 133.993 141.275C134.947 141.275 135.711 142.038 135.711 142.993V149.675C135.711 150.725 134.947 151.394 133.993 151.394Z" fill="#989FB0"/>
<path d="M138.48 143.088H120.915V141.083C120.915 136.215 124.829 127.814 129.698 127.814C134.566 127.814 138.48 136.215 138.48 141.083V143.088Z" fill="#D6DCE8" stroke="#AAB2C5" stroke-width="1.59045" stroke-miterlimit="10"/>
<path d="M212.654 146.43H176.474C174.946 146.43 173.801 145.189 173.801 143.757V105.19C173.801 103.662 175.042 102.517 176.474 102.517H212.654C214.181 102.517 215.327 103.758 215.327 105.19V143.757C215.423 145.189 214.181 146.43 212.654 146.43Z" fill="#F1F3F9" stroke="#D6DCE8" stroke-width="1.59045" stroke-miterlimit="10"/>
<path d="M208.167 123.709C208.167 128.196 205.972 132.301 202.63 134.783H186.306C182.965 132.301 180.77 128.291 180.77 123.709C180.77 119.222 182.965 115.118 186.306 112.635H202.63C205.972 115.213 208.167 119.222 208.167 123.709Z" fill="#D6DCE8" stroke="#AAB2C5" stroke-width="1.59045" stroke-miterlimit="10"/>
<path d="M178.192 108.339C179.088 108.339 179.815 107.613 179.815 106.717C179.815 105.82 179.088 105.094 178.192 105.094C177.296 105.094 176.569 105.82 176.569 106.717C176.569 107.613 177.296 108.339 178.192 108.339Z" fill="#D2DAE7"/>
<path d="M211.127 108.339C212.023 108.339 212.75 107.613 212.75 106.717C212.75 105.82 212.023 105.094 211.127 105.094C210.23 105.094 209.504 105.82 209.504 106.717C209.504 107.613 210.23 108.339 211.127 108.339Z" fill="#D2DAE7"/>
<path d="M178.192 143.947C179.088 143.947 179.815 143.221 179.815 142.325C179.815 141.428 179.088 140.702 178.192 140.702C177.296 140.702 176.569 141.428 176.569 142.325C176.569 143.221 177.296 143.947 178.192 143.947Z" fill="#D2DAE7"/>
<path d="M211.127 143.947C212.023 143.947 212.75 143.221 212.75 142.325C212.75 141.428 212.023 140.702 211.127 140.702C210.23 140.702 209.504 141.428 209.504 142.325C209.504 143.221 210.23 143.947 211.127 143.947Z" fill="#D2DAE7"/>
<path d="M102.403 0L108.257 2.13836L109.774 40.4077L106.595 39.0804L102.403 0Z" fill="#B8BFCD"/>
<path d="M106.886 43.4309L109.776 44.8319V48.5925L106.886 47.4127V43.4309Z" fill="#B8BFCD"/>
<path d="M114.688 19.2454L120.542 21.1625V45.7906L117.29 44.4633L114.688 19.2454Z" fill="#B8BFCD"/>
<path d="M117.581 48.5928L120.544 49.92V53.4594L117.581 52.3533V48.5928Z" fill="#B8BFCD"/>
</svg>
