<?xml version="1.0" encoding="UTF-8"?>
<svg width="4px" height="18px" viewBox="0 0 4 18" version="1.1" xmlns="http://www.w3.org/2000/svg" xmlns:xlink="http://www.w3.org/1999/xlink">
    <!-- Generator: sketchtool 53.2 (72643) - https://sketchapp.com -->
    <title>78513729-1A10-4E02-9E1E-057949D8E5EC</title>
    <desc>Created with sketchtool.</desc>
    <defs>
        <path d="M2,4 C3.1045695,4 4,3.1045695 4,2 C4,0.8954305 3.1045695,0 2,0 C0.8954305,0 0,0.8954305 0,2 C0,3.1045695 0.8954305,4 2,4 Z M2,14 C0.8954305,14 0,14.8954305 0,16 C0,17.1045695 0.8954305,18 2,18 C3.1045695,18 4,17.1045695 4,16 C4,14.8954305 3.1045695,14 2,14 Z M2,7 C0.8954305,7 0,7.8954305 0,9 C0,10.1045695 0.8954305,11 2,11 C3.1045695,11 4,10.1045695 4,9 C4,7.8954305 3.1045695,7 2,7 Z" id="path-1"></path>
    </defs>
    <g id="Symbols" stroke="none" stroke-width="1" fill="none" fill-rule="evenodd">
        <g id="box/topvendas" transform="translate(-344.000000, -166.000000)">
            <g id="icon/maisopcoes">
                <g transform="translate(344.000000, 166.000000)">
                    <g id="color/primary/main-gradient-copy-14">
                        <g>
                            <mask id="mask-2" fill="white">
                                <use xlink:href="#path-1"></use>
                            </mask>
                            <use id="Mask" fill="#000000" fill-rule="nonzero" xlink:href="#path-1"></use>
                            <g id="color/primary/medium-gray" mask="url(#mask-2)" fill="#AAAAAA" fill-rule="nonzero">
                                <g transform="translate(-10.000000, -3.000000)" id="color/primary/main-gradient">
                                    <rect x="0" y="0" width="23" height="23"></rect>
                                </g>
                            </g>
                        </g>
                    </g>
                </g>
            </g>
        </g>
    </g>
</svg>