<svg xmlns="http://www.w3.org/2000/svg" width="42.143" height="37.112" viewBox="0 0 42.143 37.112"><defs><style>.a,.b{fill:none;stroke-linecap:round;stroke-linejoin:round;stroke-miterlimit:10;stroke-width:1.5px;}.a{stroke:#1c1c1c;}.b{stroke:#2e85ec;}</style></defs><g transform="translate(0.969 0.734)"><path class="a" d="M23.668,19.5A14.457,14.457,0,0,0,18.8,21.007c-5.413,2.878-6.3,7.537-6.3,11.168s1.576,8.976,7.4,13.7h5V43.138l6.1.343a13.771,13.771,0,0,0,1.576,2.4h4.591V41.767a32.818,32.818,0,0,0,4.111-3.426c1.987.206,4.042-1.37,4.8-5.961,0-.685-.343-.891-.685-.891a4.659,4.659,0,0,1-2.055-.685,38.962,38.962,0,0,0-2.6-5.481,8.016,8.016,0,0,1,2.809-3.563,12.514,12.514,0,0,0-7.811-1.233c-1.028-.206-2.741-.617-4.385-.891" transform="translate(-5.648 -10.25)"/><circle class="b" cx="5.5" cy="5.5" r="5.5" transform="translate(16.11 0.016)"/><path class="a" d="M9.352,33.6c-1.987-.206-6.852-.959-6.852,1.37S3.8,37.3,5.1,36.75s2.946-3.768-2.6-5.892m17.608-6.1a13.772,13.772,0,0,1,8.7-.069" transform="translate(-2.5 -11.674)"/><circle class="a" cx="0.5" cy="0.5" r="0.5" transform="translate(31.11 19.016)"/></g></svg>