<svg xmlns="http://www.w3.org/2000/svg" width="24" height="24" viewBox="0 0 24 24">
    <defs>
        <style>
            .bg-gradient {
                fill-rule: evenodd;
                fill: url(#linear-gradient);
            }
        </style>
        <linearGradient id="linear-gradient" y1="80%" y2="0%" x1="0%" x2="0%" gradientUnits="userSpaceOnUse">
            <stop offset="0%" stop-color="#f76b1c"/>
            <stop offset="100%" stop-color="#fad961"/>
        </linearGradient>
    </defs>
    <g class="bg-gradient">
        <path d="M23 12l-2.44-2.78.34-3.68-3.61-.82-1.89-3.18L12 3 8.6 1.54 6.71 4.72l-3.61.81.34 3.68L1 12l2.44 2.78-.34 3.69 3.61.82 1.89 3.18L12 21l3.4 1.46 1.89-3.18 3.61-.82-.34-3.68L23 12zm-10 5h-2v-2h2v2zm0-4h-2V7h2v6z"/>
    </g>
</svg>
