<svg xmlns="http://www.w3.org/2000/svg" height="24" viewBox="0 0 24 24" width="24">
    <defs>
        <style>
            .bg-gradient {
            fill-rule: evenodd;
            fill: url(#linear-gradient);
            }
        </style>
        <linearGradient id="linear-gradient" y1="20%" y2="100%" x1="0%" x2="0%" gradientUnits="userSpaceOnUse">
            <stop offset="0%" stop-color="#51ecc3"/>
            <stop offset="100%" stop-color="#3fda58"/>
        </linearGradient>
    </defs>
    <g class="bg-gradient">
        <path
            d="M20 8h-3V4H3c-1.1 0-2 .9-2 2v11h2c0 1.66 1.34 3 3 3s3-1.34 3-3h6c0 1.66 1.34 3 3 3s3-1.34 3-3h2v-5l-3-4zM6 18.5c-.83 0-1.5-.67-1.5-1.5s.67-1.5 1.5-1.5 1.5.67 1.5 1.5-.67 1.5-1.5 1.5zm13.5-9l1.96 2.5H17V9.5h2.5zm-1.5 9c-.83 0-1.5-.67-1.5-1.5s.67-1.5 1.5-1.5 1.5.67 1.5 1.5-.67 1.5-1.5 1.5z"/>
    </g>
</svg>
