<?xml version="1.0" encoding="UTF-8" standalone="no"?>
<svg
   xmlns:dc="http://purl.org/dc/elements/1.1/"
   xmlns:cc="http://creativecommons.org/ns#"
   xmlns:rdf="http://www.w3.org/1999/02/22-rdf-syntax-ns#"
   xmlns:svg="http://www.w3.org/2000/svg"
   xmlns="http://www.w3.org/2000/svg"
   version="1.1"
   id="Camada_1"
   x="0px"
   y="0px"
   viewBox="0 0 692.6 267.8"
   style="enable-background:new 0 0 692.6 267.8;"
   xml:space="preserve"><metadata
   id="metadata27"><rdf:RDF><cc:Work
       rdf:about=""><dc:format>image/svg+xml</dc:format><dc:type
         rdf:resource="http://purl.org/dc/dcmitype/StillImage" /><dc:title></dc:title></cc:Work></rdf:RDF></metadata><defs
   id="defs25" />
<style
   type="text/css"
   id="style2">
	.st0{fill:#0D2C54;}
	.st1{font-family:'Amino-Regular5';}
	.st2{font-size:247.6919px;}
	.st3{letter-spacing:-23;}
	.st4{letter-spacing:-8;}
	.st5{letter-spacing:-28;}
	.st6{letter-spacing:-18;}
	.st7{fill:#2E85EC;}
</style>
<g
   id="g20">
	<g
   id="g14">
		
		
		
		
		
	</g>
	<path
   class="st7"
   d="m 303.37607,61.466944 7.1,-17.8 c 0.9,-2.4 4.3,-2.3 5.2,0 l 7,17.8 c 5.6,14.3 16.9,25.7 31.1,31.4 l 17.8,7.1 c 2.4,0.899996 2.3,4.299996 0,5.199996 l -17.8,7 c -14.3,5.6 -25.7,16.9 -31.4,31.1 l -7.1,17.8 c -0.9,2.4 -4.3,2.3 -5.2,0 l -7,-17.8 c -5.6,-14.3 -16.9,-25.7 -31.1,-31.4 l -17.8,-7.1 c -2.4,-0.9 -2.3,-4.3 0,-5.199996 l 17.8,-7 c 14.3,-5.5 25.7,-16.8 31.4,-31.1 z"
   id="path16"
   style="fill:#ffffff" />
	<path
   class="st7"
   d="m 360.47607,142.26694 1.8,-4.6 c 0.8,-1.9 3.5,-1.9 4.2,0 l 1.8,4.6 c 2.5,6.3 7.5,11.4 13.8,13.9 l 4.5,1.8 c 1.9,0.8 1.9,3.5 0,4.2 l -4.6,1.8 c -6.3,2.5 -11.4,7.5 -13.9,13.8 l -1.8,4.5 c -0.8,1.9 -3.5,1.9 -4.2,0 l -1.8,-4.6 c -2.5,-6.3 -7.5,-11.4 -13.8,-13.9 l -4.5,-1.8 c -1.9,-0.8 -1.9,-3.5 0,-4.2 l 4.6,-1.8 c 6.4,-2.3 11.4,-7.3 13.9,-13.7 z"
   id="path18"
   style="fill:#ffffff" />
</g>
</svg>
