<svg xmlns="http://www.w3.org/2000/svg" width="36.97" height="35.141" viewBox="0 0 36.97 35.141"><defs><style>.a{fill:none;stroke:#002f67;stroke-linecap:round;stroke-linejoin:round;stroke-miterlimit:10;}</style></defs><path class="a" d="M20.655,11.377a9.206,9.206,0,0,1,6.95-3.109h3.536L29.374,6.5l2.5-2.5,6.1,6.1-6.036,6.158-2.561-2.561,1.768-1.768h-3.9a4.816,4.816,0,0,0-3.719,1.707l-4.085,5.609a10.486,10.486,0,0,1-1.707,1.829A10.486,10.486,0,0,1,19.436,22.9l4.085,5.609a4.816,4.816,0,0,0,3.719,1.707h3.841l-1.768-1.768,2.561-2.561,6.1,6.158-6.1,6.1-2.5-2.5,1.768-1.768h-3.9a8.535,8.535,0,0,1-6.584-3.109l-4.207-5.792A5.06,5.06,0,0,0,12.364,22.9H2V19.241H12.364a5.06,5.06,0,0,0,4.085-2.073Z" transform="translate(-1.5 -3.5)"/></svg>