<svg xmlns="http://www.w3.org/2000/svg" width="41.096" height="43.096" viewBox="0 0 41.096 43.096"><defs><style>.a,.b{fill:none;stroke-width:0.777px;}.a{stroke:#002f67;}.b{stroke:#2e85ec;}</style></defs><g transform="translate(-3540.452 482.548)"><g transform="translate(3549.01 -457.416)"><path class="a" d="M-72.126-25.1a5.886,5.886,0,0,1-4.188-1.734l-6.047-6.047a1.149,1.149,0,0,0-1.589,0l-6.069,6.069a5.887,5.887,0,0,1-4.188,1.734H-95.4l7.659,7.659a6.126,6.126,0,0,0,8.662,0L-71.4-25.1Z" transform="translate(95.4 33.202)"/></g><g transform="translate(3549.01 -482.159)"><path class="a" d="M-3.692-29.165A5.846,5.846,0,0,1,.5-27.407l6.069,6.154a1.114,1.114,0,0,0,1.589,0L14.2-27.384a5.846,5.846,0,0,1,4.188-1.758h.728l-7.681-7.787a6.067,6.067,0,0,0-8.662,0l-7.659,7.764Z" transform="translate(4.884 38.747)"/></g><g transform="translate(3540.841 -469.838)"><path class="b" d="M-119.389-14.378l-4.642-4.706a.873.873,0,0,1-.33.067h-2.11a4.142,4.142,0,0,0-2.93,1.231l-6.047,6.131a2.874,2.874,0,0,1-2.052.861,2.875,2.875,0,0,1-2.052-.86l-6.07-6.153a4.143,4.143,0,0,0-2.93-1.231h-2.595a.87.87,0,0,1-.312-.064l-4.66,4.724a6.27,6.27,0,0,0,0,8.781l4.66,4.724a.871.871,0,0,1,.312-.064h2.595a4.143,4.143,0,0,0,2.93-1.231l6.069-6.153a2.943,2.943,0,0,1,4.105,0l6.047,6.13a4.142,4.142,0,0,0,2.93,1.231h2.11a.874.874,0,0,1,.33.067l4.641-4.705a6.27,6.27,0,0,0,0-8.781" transform="translate(157.913 19.102)"/></g></g></svg>