<svg width="230" height="193" viewBox="0 0 230 193" fill="none" xmlns="http://www.w3.org/2000/svg">
<path d="M221.799 99.7495C221.799 125.37 211.263 148.464 194.369 165.063C177.839 181.481 154.951 191.405 129.701 191.405C104.633 191.405 81.7442 181.301 65.032 165.063C48.1382 148.464 37.6023 125.37 37.6023 99.7495C37.6023 49.0504 78.8377 8.09424 129.701 8.09424C180.564 8.09424 221.799 49.2309 221.799 99.7495Z" fill="#F1F3F9" stroke="#8DB8EC" stroke-width="2" stroke-miterlimit="10"/>
<path d="M213.806 39.6678C217.92 39.6678 221.254 36.3559 221.254 32.2704C221.254 28.185 217.92 24.873 213.806 24.873C209.693 24.873 206.359 28.185 206.359 32.2704C206.359 36.3559 209.693 39.6678 213.806 39.6678Z" fill="#F1F3F9"/>
<path d="M224.706 10.8007C227.515 10.8007 229.792 8.53895 229.792 5.74889C229.792 2.95882 227.515 0.697021 224.706 0.697021C221.897 0.697021 219.619 2.95882 219.619 5.74889C219.619 8.53895 221.897 10.8007 224.706 10.8007Z" fill="#F1F3F9"/>
<path d="M40.5087 39.4883C43.3178 39.4883 45.595 37.2265 45.595 34.4364C45.595 31.6463 43.3178 29.3845 40.5087 29.3845C37.6996 29.3845 35.4224 31.6463 35.4224 34.4364C35.4224 37.2265 37.6996 39.4883 40.5087 39.4883Z" fill="#F1F3F9"/>
<path d="M9.446 136.917C14.6629 136.917 18.892 132.716 18.892 127.535C18.892 122.353 14.6629 118.153 9.446 118.153C4.22912 118.153 0 122.353 0 127.535C0 132.716 4.22912 136.917 9.446 136.917Z" fill="#F1F3F9"/>
<path d="M194.369 51.7568V165.063C177.839 181.481 154.951 191.405 129.701 191.405C104.633 191.405 81.7441 181.301 65.032 165.063V51.7568H194.369Z" fill="white" stroke="#8DB8EC" stroke-width="2" stroke-miterlimit="10"/>
<path d="M123.421 101.083L152.741 71.9622L161.346 80.5098L123.583 118.018L123.541 117.976L123.38 118.137L98.0754 93.004L106.681 84.4563L123.421 101.083Z" fill="#8DB8EC"/>
<path d="M162.762 133.489H96.6399V141.788H162.762V133.489Z" fill="#8DB8EC"/>
<path d="M162.762 151.711H96.6399V160.01H162.762V151.711Z" fill="#8DB8EC"/>
<path d="M146.594 170.115H112.807V178.414H146.594V170.115Z" fill="#8DB8EC"/>
</svg>
