<svg id="Camada_1" data-name="Camada 1" xmlns="http://www.w3.org/2000/svg" xmlns:xlink="http://www.w3.org/1999/xlink" viewBox="0 0 391.77 375.16"><defs><style>.cls-1{fill:#fff;}.cls-2{mask:url(#mask);}.cls-3{fill:#f1f2f7;}.cls-4{mask:url(#mask-2);}.cls-5{mask:url(#mask-3);}.cls-6{fill:#e8ebf2;}.cls-7{mask:url(#mask-4);}.cls-8{fill:#e0e2ee;}.cls-9{mask:url(#mask-5);}.cls-10{mask:url(#mask-6);}.cls-11{mask:url(#mask-7);}.cls-12{fill:#e1e3ef;}.cls-13{fill:#f7fff6;}.cls-14{fill:url(#Nova_amostra_de_gradiente_1);}.cls-15{fill:url(#Nova_amostra_de_gradiente_1-2);}.cls-16{fill:#e6af78;}.cls-17{fill:#d29b6e;}.cls-18{fill:#d5dced;}.cls-19{fill:#afb9d2;}.cls-20{fill:#f0c087;}.cls-21{fill:#c7cfe2;}.cls-22{fill:#959cb5;}.cls-23{fill:url(#Nova_amostra_de_gradiente_1-3);}.cls-24{fill:url(#Nova_amostra_de_gradiente_1-4);}.cls-25{fill:#707487;}.cls-26{fill:#5b5d6e;}.cls-27{fill:url(#Nova_amostra_de_gradiente_1-5);}.cls-28{fill:url(#Nova_amostra_de_gradiente_1-6);}</style><mask id="mask" x="53.3" y="57" width="267.11" height="157.32" maskUnits="userSpaceOnUse"><g id="mask0"><path class="cls-1" d="M122.17,88.55H89.4a7.77,7.77,0,0,0,0,15.53H111a7.76,7.76,0,0,1,5.46,13.25,7.69,7.69,0,0,1-5.46,2.28H66.7a7.77,7.77,0,0,0,0,15.53H86.8a119.06,119.06,0,0,0-9.43,46.6,120.79,120.79,0,0,0,1.29,17.66Q79.2,203,80,206.55c14.6-2.24,30.1-4,46.27-5.36l1.22,1.11,1.15-1.3c19.43-1.52,39.82-2.32,60.86-2.32,44.69,0,86.51,3.64,122.26,10a119.35,119.35,0,0,0,2.75-18.47q.3-4.19.3-8.46c0-65.77-53.14-119.08-118.69-119.08A117.94,117.94,0,0,0,122.17,88.55Z"/></g></mask><mask id="mask-2" x="25" y="113.59" width="31.69" height="27.16" maskUnits="userSpaceOnUse"><g id="mask1"><path class="cls-1" d="M38.5,119.25a7.92,7.92,0,0,0,0,15.85h4.69a7.92,7.92,0,0,0,0-15.85Z"/></g></mask><mask id="mask-3" x="74.13" y="193.19" width="267.7" height="112.81" maskUnits="userSpaceOnUse"><g id="mask2"><path class="cls-1" d="M128.41,201.16l-1.15,1.29L126,201.35c-16.17,1.31-31.65,3.1-46.26,5.33a118.81,118.81,0,0,0,187.28,70h21.12a7.72,7.72,0,0,0,0-15.43H279a7.72,7.72,0,0,1,0-15.43h49.43a7.72,7.72,0,0,0,0-15.43H304.19a116.87,116.87,0,0,0,7.29-21.6c-35.75-6.3-77.56-9.92-122.23-9.92C168.22,198.85,147.83,199.66,128.41,201.16Z"/></g></mask><mask id="mask-4" x="122.34" y="179.24" width="196.94" height="35.09" maskUnits="userSpaceOnUse"><g id="mask3"><path class="cls-1" d="M290.72,200l-11.95-11L266,198.49l-5.36-7.39-21.16,7.39-48.75-7.39-28.34,7.82q13-.43,26.39-.44c44.63,0,86.39,3.71,122.1,10.17a124.23,124.23,0,0,0,2.74-18.82l-4-4.95ZM128,200.86q16.75-1.33,34.39-1.93l-20.93-13.66Z"/></g></mask><mask id="mask-5" x="120.07" y="195.08" width="13.58" height="12.45" maskUnits="userSpaceOnUse"><g id="mask4"><path class="cls-1" d="M125.73,200.9l1.17,1,1.1-1.13Z"/></g></mask><mask id="mask-6" x="72.54" y="174.71" width="58.85" height="37.35" maskUnits="userSpaceOnUse"><g id="mask5"><path class="cls-1" d="M78.2,199.23q.53,3.62,1.28,7.17c14.6-2.24,30.09-4,46.25-5.37l-22.51-20.66Z"/></g></mask><mask id="mask-7" x="296.77" y="255.07" width="27.16" height="27.16" maskUnits="userSpaceOnUse"><g id="mask7"><path class="cls-1" d="M302.43,268.65a7.92,7.92,0,1,0,7.92-7.92A7.95,7.95,0,0,0,302.43,268.65Z"/></g></mask><linearGradient id="Nova_amostra_de_gradiente_1" x1="227.61" y1="175.94" x2="239.46" y2="175.94" gradientUnits="userSpaceOnUse"><stop offset="0" stop-color="#ff8960"/><stop offset="1" stop-color="#ff62a5"/></linearGradient><linearGradient id="Nova_amostra_de_gradiente_1-2" x1="232.35" y1="174.75" x2="260.78" y2="174.75" xlink:href="#Nova_amostra_de_gradiente_1"/><linearGradient id="Nova_amostra_de_gradiente_1-3" x1="121.59" y1="182.81" x2="163.57" y2="182.81" xlink:href="#Nova_amostra_de_gradiente_1"/><linearGradient id="Nova_amostra_de_gradiente_1-4" x1="135.52" y1="182.81" x2="163.57" y2="182.81" xlink:href="#Nova_amostra_de_gradiente_1"/><linearGradient id="Nova_amostra_de_gradiente_1-5" x1="168.38" y1="143.95" x2="220.51" y2="143.95" xlink:href="#Nova_amostra_de_gradiente_1"/><linearGradient id="Nova_amostra_de_gradiente_1-6" x1="180.23" y1="143.95" x2="220.51" y2="143.95" xlink:href="#Nova_amostra_de_gradiente_1"/></defs><title>Prancheta 7</title><g class="cls-2"><path class="cls-3" d="M53.3,214.32H320.4V57H53.3Z"/></g><g class="cls-4"><path class="cls-3" d="M25,140.75H56.69V113.59H25Z"/></g><g class="cls-5"><path class="cls-6" d="M74.13,306h267.7V193.19H74.13Z"/></g><g class="cls-7"><path class="cls-8" d="M122.34,214.32H319.27V179.24H122.34Z"/></g><g class="cls-9"><path class="cls-3" d="M120.07,207.53h13.58V195.08H120.07Z"/></g><g class="cls-10"><path class="cls-8" d="M72.54,212.06h58.85V174.71H72.54Z"/></g><g class="cls-11"><path class="cls-12" d="M296.77,282.23h27.16V255.07H296.77Z"/></g><path class="cls-13" d="M181.18,222.66a1.06,1.06,0,1,1-1.06-1.06,1.06,1.06,0,0,1,1.06,1.06"/><path class="cls-13" d="M211.26,222.66a1.06,1.06,0,1,1-1.06-1.06,1.06,1.06,0,0,1,1.06,1.06"/><path class="cls-14" d="M227.61,170v1.66a19,19,0,0,0,1,6l3.77,11.3h7.11V162.91h-4.74A7.11,7.11,0,0,0,227.61,170Z"/><path class="cls-15" d="M260.05,174.94l-4,14-19-16.58a4.74,4.74,0,0,1-4.74-4.74h0a7.11,7.11,0,0,1,7.11-7.11H256a4.74,4.74,0,0,1,4.74,4.74v4.45A18.94,18.94,0,0,1,260.05,174.94Z"/><rect class="cls-16" x="237.09" y="196.08" width="14.22" height="10.49"/><path class="cls-17" d="M237.09,200.43a18.8,18.8,0,0,0,14.22,0v-4.35H237.09v4.35Z"/><path class="cls-18" d="M262.73,205.09l-11.43-3.27-7.11,4.72-7.11-4.72-11.43,3.27a7.11,7.11,0,0,0-5.15,6.83v17.32a2.37,2.37,0,0,0,2.37,2.37h42.65a2.37,2.37,0,0,0,2.37-2.37V211.92A7.11,7.11,0,0,0,262.73,205.09Z"/><polygon class="cls-19" points="246.57 231.61 241.83 231.61 243.01 206.56 245.38 206.56 246.57 231.61"/><path class="cls-20" d="M244.2,198.44h0A14.22,14.22,0,0,1,230,184.23v-2.78a4.74,4.74,0,0,1,1.39-3.35l4.3-4.3a4.68,4.68,0,0,1,3.44-1.39c7.57.24,14.28,1.86,17.94,5.44a4.68,4.68,0,0,1,1.37,3.36v3A14.22,14.22,0,0,1,244.2,198.44Z"/><path class="cls-16" d="M237.09,182a4.73,4.73,0,0,1,5-4.73c4.78.31,11.88,1.1,16.23,3.2a4.58,4.58,0,0,0-1.3-2.65c-3.66-3.58-10.37-5.2-17.94-5.44h0a4.68,4.68,0,0,0-3.44,1.39l-4.3,4.3a4.74,4.74,0,0,0-1.39,3.35v2.78a14.21,14.21,0,0,0,10.28,13.65,14.1,14.1,0,0,1-3.17-8.91V182Z"/><path class="cls-21" d="M258.41,219a7.11,7.11,0,0,1,2.08-5l6.1-6.1a7.08,7.08,0,0,1,1.3,4.06v17.32a2.37,2.37,0,0,1-2.37,2.37h-7.11V219Z"/><path class="cls-22" d="M245.38,211.3H243a1.18,1.18,0,0,1-1.18-1.18v-3.55h4.74v3.55A1.18,1.18,0,0,1,245.38,211.3Z"/><path class="cls-21" d="M244.2,206.54l-4,3.07a1.42,1.42,0,0,1-2.11-.45l-3.6-6.58,1.45-2.21a1,1,0,0,1,1.44-.18Z"/><path class="cls-21" d="M244.2,206.54l4,3.07a1.42,1.42,0,0,0,2.11-.45l3.6-6.58-1.45-2.21a1,1,0,0,0-1.44-.18Z"/><path class="cls-23" d="M163.41,197.46c-2-5.36-3.63-14.59-4-19.39-.66-9.14-7.55-16.58-16.85-16.58s-16.19,7.45-16.85,16.58c-.35,4.8-2,14-4,19.39a2.36,2.36,0,0,0,1.23,3,45.25,45.25,0,0,0,12.37,3.66H149.8a45.65,45.65,0,0,0,12.37-3.66A2.36,2.36,0,0,0,163.41,197.46Z"/><path class="cls-24" d="M162.18,200.47a2.36,2.36,0,0,0,1.23-3c-2-5.36-3.63-14.59-4-19.39-.66-9.14-7.55-16.58-16.85-16.58h-.07c-7.14,0-9.67,9.77-3.52,13.4a6.54,6.54,0,0,0,.61.32L145,204.13h4.82A45.66,45.66,0,0,0,162.18,200.47Z"/><path class="cls-16" d="M159.72,208.89,152,205.05a4.74,4.74,0,0,1-2.62-4.24v-7.11H135.22v7.11a4.74,4.74,0,0,1-2.62,4.24l-7.67,3.83a7.11,7.11,0,0,0-3.93,6.36v14a2.37,2.37,0,0,0,2.37,2.37h37.91a2.37,2.37,0,0,0,2.37-2.37v-14A7.11,7.11,0,0,0,159.72,208.89Z"/><path class="cls-17" d="M142.32,203.18a18.73,18.73,0,0,0,7.23-1.46,4.67,4.67,0,0,1-.13-.91v-7.11H135.22v7.11a4.66,4.66,0,0,1-.13.91A18.82,18.82,0,0,0,142.32,203.18Z"/><path class="cls-18" d="M159.72,208.89l-5.46-2.73a14.2,14.2,0,0,1-23.86,0l-5.46,2.73a7.11,7.11,0,0,0-3.93,6.36v14a2.37,2.37,0,0,0,2.37,2.37h37.91a2.37,2.37,0,0,0,2.37-2.37v-14A7.11,7.11,0,0,0,159.72,208.89Z"/><path class="cls-20" d="M142.32,198.44h0a14.22,14.22,0,0,1-14.1-12.38,2.39,2.39,0,0,1,1.27-2.46,19.78,19.78,0,0,0,4.19-2.83,13.68,13.68,0,0,0,3.24-4.27,2.35,2.35,0,0,1,2.67-1.3,40.82,40.82,0,0,1,16.08,8.24,2.29,2.29,0,0,1,.82,1.9A14.22,14.22,0,0,1,142.32,198.44Z"/><path class="cls-16" d="M155.68,183.45a40.82,40.82,0,0,0-16.08-8.24,2.35,2.35,0,0,0-2.67,1.3,13.56,13.56,0,0,1-2.16,3.16h0a12.71,12.71,0,0,1-1.07,1.1,19.77,19.77,0,0,1-4.19,2.83,2.39,2.39,0,0,0-1.27,2.46,14.24,14.24,0,0,0,11.94,12.21,10.37,10.37,0,0,1-5-9.31v-3.38c.54-.4,1.08-.79,1.62-1.28a18.86,18.86,0,0,0,3.39-4A35.78,35.78,0,0,1,152.58,187c.45.39,1.56,1.42,2.87,2.64a14.11,14.11,0,0,0,1.05-4.32A2.29,2.29,0,0,0,155.68,183.45Z"/><path class="cls-21" d="M122.44,211a7.09,7.09,0,0,0-1.44,4.27v14a2.37,2.37,0,0,0,2.37,2.37h7.11V219.68a4.74,4.74,0,0,0-1.78-3.7Z"/><path class="cls-8" d="M228.48,205.65l-19.82-7.21-14.22,4.74-14.22-4.74-19.82,7.21a9.48,9.48,0,0,0-6.24,8.91v14.68a2.37,2.37,0,0,0,2.37,2.37h75.81a2.37,2.37,0,0,0,2.37-2.37V214.56A9.48,9.48,0,0,0,228.48,205.65Z"/><polygon class="cls-25" points="191.96 207.92 189.71 231.61 199.18 231.61 196.93 207.92 191.96 207.92"/><path class="cls-26" d="M196.93,211.18h-5a1.66,1.66,0,0,1-1.66-1.66v-6.33h8.29v6.33A1.66,1.66,0,0,1,196.93,211.18Z"/><path class="cls-21" d="M232.17,208.1a9.47,9.47,0,0,1,2.55,6.46v14.68a2.37,2.37,0,0,1-2.37,2.37H220.51v-7.92a9.48,9.48,0,0,1,2.78-6.7Z"/><path class="cls-27" d="M220.51,149.59V129.74a4.74,4.74,0,0,0-4.74-4.74H187.34a19,19,0,0,0-19,19v5.63a23.69,23.69,0,0,0,1.22,7.49l.79,2.37a7.11,7.11,0,0,1,.36,2.25v1.22h47.38v-1.22a7.11,7.11,0,0,1,.36-2.25l.79-2.37A23.68,23.68,0,0,0,220.51,149.59Z"/><path class="cls-28" d="M180.23,134.62a9.62,9.62,0,0,0,9.62,9.62h1.33l.64,18.66h26.31v-1.22a7.11,7.11,0,0,1,.36-2.25l.79-2.37a23.69,23.69,0,0,0,1.22-7.49V129.74a4.74,4.74,0,0,0-4.74-4.74H189.85A9.62,9.62,0,0,0,180.23,134.62Z"/><rect class="cls-16" x="180.23" y="181.86" width="28.43" height="21.32"/><path class="cls-17" d="M180.23,189.87a28.26,28.26,0,0,0,28.43,0v-8H180.23v8Z"/><path class="cls-22" d="M194.44,203.18l-7.56,7.56a2.37,2.37,0,0,1-3.56-.24l-7.83-10.32,2-4.32a2.37,2.37,0,0,1,3.38-1Z"/><path class="cls-22" d="M194.44,203.18l7.56,7.56a2.37,2.37,0,0,0,3.56-.24l7.83-10.32-2-4.32a2.37,2.37,0,0,0-3.38-1Z"/><path class="cls-20" d="M194.44,189h0a23.69,23.69,0,0,1-23.69-23.69V162.5a4.74,4.74,0,0,1,1.39-3.35l2-2a4.74,4.74,0,0,0,1.39-3.35v-5.68a2.35,2.35,0,0,1,1.8-2.3c5.6-1.32,23-4.46,34.91,4.27a3,3,0,0,1,1.2,2.45v1.26a4.74,4.74,0,0,0,1.39,3.35l2,2a4.74,4.74,0,0,1,1.39,3.35v2.78A23.69,23.69,0,0,1,194.44,189Z"/><path class="cls-16" d="M212.2,150.12c-8.35-6.14-19.43-6.4-27.23-5.56a63.9,63.9,0,0,0-7.67,1.29,2.35,2.35,0,0,0-1.8,2.3v5.68a4.74,4.74,0,0,1-1.39,3.35l-2,2a4.74,4.74,0,0,0-1.39,3.35v2.78a23.68,23.68,0,0,0,20.83,23.5A23.59,23.59,0,0,1,185,172.38V155.07a4.74,4.74,0,0,1,4.17-4.71c5.69-.71,16.1-1.14,24.26,3.48v-1.26A3,3,0,0,0,212.2,150.12Z"/><path class="cls-21" d="M156.72,208.1a9.47,9.47,0,0,0-2.55,6.46v14.68a2.37,2.37,0,0,0,2.37,2.37h11.85v-7.92a9.48,9.48,0,0,0-2.78-6.7Z"/></svg>