<svg width="295" height="200" viewBox="0 0 295 200" fill="none" xmlns="http://www.w3.org/2000/svg">
<path d="M148.771 180.308C198.445 180.308 238.92 140.273 238.92 91.1021C238.753 41.7647 198.445 1.72998 148.771 1.72998C98.9302 1.72998 58.6226 41.7647 58.6226 90.936C58.6226 140.273 98.9302 180.308 148.771 180.308Z" fill="#F1F3F9" stroke="#8DB8EC" stroke-width="2" stroke-miterlimit="10"/>
<path d="M244.272 102.398C244.272 121.502 228.718 136.951 209.317 136.951C208.982 136.951 206.139 136.951 185.232 136.951C170.681 136.951 147.433 136.951 110.304 136.951H92.5749C69.3269 137.449 50.762 119.01 50.762 96.7501C50.762 74.324 69.4942 55.7186 93.0767 56.8815C113.314 -5.91162 205.972 2.89269 213.832 67.8453C231.227 70.0049 244.272 84.6234 244.272 102.398Z" fill="white" stroke="#8DB8EC" stroke-width="2" stroke-miterlimit="10"/>
<path d="M213.331 68.0118C211.993 67.8457 210.655 67.8457 209.317 67.8457C202.459 67.8457 195.937 69.8391 190.417 73.3276" fill="white"/>
<path d="M213.331 68.0118C211.993 67.8457 210.655 67.8457 209.317 67.8457C202.459 67.8457 195.937 69.8391 190.417 73.3276" stroke="#8DB8EC" stroke-width="2" stroke-miterlimit="10" stroke-linecap="round"/>
<path d="M93.0767 56.8811C91.0697 62.8614 90.0662 69.1739 90.0662 75.8187C90.0662 78.4766 90.2334 80.9684 90.5679 83.4602" fill="white"/>
<path d="M93.0767 56.8811C91.0697 62.8614 90.0662 69.1739 90.0662 75.8187C90.0662 78.4766 90.2334 80.9684 90.5679 83.4602" stroke="#8DB8EC" stroke-width="2" stroke-miterlimit="10" stroke-linecap="round" stroke-linejoin="round"/>
<path d="M29.9793 25.5864C29.9793 25.5864 6.59996 31.4822 13.6846 36.1988C20.7693 40.6795 37.5363 48.4619 53.3587 43.2737C69.1811 38.0854 53.3587 30.7747 53.5948 30.7747C53.831 30.7747 29.9793 25.5864 29.9793 25.5864Z" fill="#F1F3F9" stroke="#8DB8EC" stroke-width="2" stroke-miterlimit="10"/>
<path d="M1.4043 23.6999C9.90588 26.294 36.1191 22.0491 52.8861 11.2009C66.1108 27.4732 71.0701 31.7181 75.7932 32.1898C68.4724 39.5005 44.1484 51.292 30.4514 35.9631C14.3928 46.1037 1.4043 23.6999 1.4043 23.6999Z" fill="white" stroke="#8DB8EC" stroke-width="2" stroke-miterlimit="10" stroke-linejoin="round"/>
<path d="M218.947 82.6657C227.921 83.1373 252.245 72.2892 265.469 57.6677C282.473 70.1667 288.14 72.9967 293.1 72.2892C287.668 81.2507 271.137 100.825 247.758 102.24C230.755 92.3347 218.947 82.6657 218.947 82.6657Z" fill="white" stroke="#8DB8EC" stroke-width="2" stroke-miterlimit="10" stroke-linejoin="round"/>
<path d="M147.312 193.287C145.537 184.537 128.9 163.842 111.348 154.763C119.301 135.293 120.648 129.137 118.723 124.542C128.814 127.535 152.018 138.561 159.222 160.697C153.799 179.52 147.312 193.287 147.312 193.287Z" fill="white" stroke="#8DB8EC" stroke-width="2" stroke-miterlimit="10" stroke-linejoin="round"/>
</svg>
