<svg id="Camada_1" data-name="Camada 1" xmlns="http://www.w3.org/2000/svg" xmlns:xlink="http://www.w3.org/1999/xlink" viewBox="0 0 395.74 378.96"><defs><style>.cls-1{fill:#dcdce2;}.cls-2{fill:#f1f2f7;}.cls-3{fill:#bec0d6;}.cls-4{fill:url(#Nova_amostra_de_gradiente_1);}.cls-5{fill:#d8dbea;}.cls-6{fill:#fefeff;}.cls-7{fill:#d2d8df;}.cls-8{fill:#ebecef;}.cls-9{fill:#d1d9e0;}</style><linearGradient id="Nova_amostra_de_gradiente_1" x1="267.33" y1="388.23" x2="247.39" y2="350.86" gradientTransform="matrix(1, 0, 0, -1, 0, 588)" gradientUnits="userSpaceOnUse"><stop offset="0" stop-color="#ff8960"/><stop offset="1" stop-color="#ff62a5"/></linearGradient></defs><title>Prancheta 4</title><path class="cls-1" d="M263,306c0,2.21-28.43,4-63.5,4s-63.5-1.79-63.5-4,28.43-4,63.5-4,63.5,1.79,63.5,4"/><path class="cls-2" d="M140.75,266H265.28a5.73,5.73,0,0,0,5.72-5.73V176.75a5.74,5.74,0,0,0-5.73-5.75H137.73a2.74,2.74,0,0,0-2.73,2.74v86.49a5.76,5.76,0,0,0,5.75,5.77"/><path class="cls-3" d="M140.68,265h15.11a.21.21,0,0,0,.21-.21V159.21a.21.21,0,0,0-.21-.21H140.68a5.67,5.67,0,0,0-5.68,5.66v94.68a5.67,5.67,0,0,0,5.68,5.66"/><path class="cls-4" d="M239.69,230h39.1a.21.21,0,0,0,.21-.21V206.21a.21.21,0,0,0-.21-.21h-39.1a5.72,5.72,0,0,0-5.69,5.76v12.49a5.72,5.72,0,0,0,5.69,5.76"/><path class="cls-5" d="M248.29,159H140.82a6,6,0,0,0,0,12h114a.21.21,0,0,0,.21-.21v-5a6.73,6.73,0,0,0-6.71-6.76"/><path class="cls-6" d="M253,218a5,5,0,1,1-5-5,5,5,0,0,1,5,5"/><path class="cls-7" d="M48,191.54A1.46,1.46,0,0,1,49.46,193v3a1.46,1.46,0,0,1-2.92,0v-3A1.46,1.46,0,0,1,48,191.54Z"/><path class="cls-7" d="M41,195A1.46,1.46,0,0,1,43,195l2,2A1.46,1.46,0,0,1,43,199l-2-2A1.46,1.46,0,0,1,41,195Z"/><path class="cls-7" d="M37.54,202A1.46,1.46,0,0,1,39,200.54h3a1.46,1.46,0,0,1,0,2.92H39A1.46,1.46,0,0,1,37.54,202Z"/><path class="cls-7" d="M45,205A1.46,1.46,0,0,1,45,207l-2,2A1.46,1.46,0,0,1,41,207l2-2A1.46,1.46,0,0,1,45,205Z"/><path class="cls-7" d="M48,206.54A1.46,1.46,0,0,1,49.46,208v3a1.46,1.46,0,1,1-2.92,0v-3A1.46,1.46,0,0,1,48,206.54Z"/><path class="cls-7" d="M51,205A1.46,1.46,0,0,1,53,205l2,2A1.46,1.46,0,0,1,53,209l-2-2A1.46,1.46,0,0,1,51,205Z"/><path class="cls-7" d="M52.54,202A1.46,1.46,0,0,1,54,200.54h3a1.46,1.46,0,0,1,0,2.92H54A1.46,1.46,0,0,1,52.54,202Z"/><path class="cls-7" d="M55,195A1.46,1.46,0,0,1,55,197l-2,2A1.46,1.46,0,0,1,51,197l2-2A1.46,1.46,0,0,1,55,195Z"/><path class="cls-7" d="M201,68.54A1.46,1.46,0,0,1,202.46,70v2a1.46,1.46,0,0,1-2.92,0V70A1.46,1.46,0,0,1,201,68.54Z"/><path class="cls-7" d="M194.54,75A1.46,1.46,0,0,1,196,73.54h2a1.46,1.46,0,0,1,0,2.92h-2A1.46,1.46,0,0,1,194.54,75Z"/><path class="cls-7" d="M201,77.54A1.46,1.46,0,0,1,202.46,79v2a1.46,1.46,0,0,1-2.92,0V79A1.46,1.46,0,0,1,201,77.54Z"/><path class="cls-7" d="M203.54,76A1.46,1.46,0,0,1,205,74.54h2a1.46,1.46,0,0,1,0,2.92h-2A1.46,1.46,0,0,1,203.54,76Z"/><path class="cls-7" d="M92,147.54A1.46,1.46,0,0,1,93.46,149v3a1.46,1.46,0,1,1-2.92,0v-3A1.46,1.46,0,0,1,92,147.54Z"/><path class="cls-7" d="M81.54,158A1.46,1.46,0,0,1,83,156.54h3a1.46,1.46,0,0,1,0,2.92H83A1.46,1.46,0,0,1,81.54,158Z"/><path class="cls-7" d="M91,161.54A1.46,1.46,0,0,1,92.46,163v3a1.46,1.46,0,1,1-2.92,0v-3A1.46,1.46,0,0,1,91,161.54Z"/><path class="cls-7" d="M95.54,158A1.46,1.46,0,0,1,97,156.54h3a1.46,1.46,0,0,1,0,2.92H97A1.46,1.46,0,0,1,95.54,158Z"/><path class="cls-7" d="M252,112.54a1.46,1.46,0,0,1,1.46,1.46v3a1.46,1.46,0,0,1-2.92,0v-3A1.46,1.46,0,0,1,252,112.54Z"/><path class="cls-7" d="M242.54,123a1.46,1.46,0,0,1,1.46-1.46h3a1.46,1.46,0,0,1,0,2.92h-3A1.46,1.46,0,0,1,242.54,123Z"/><path class="cls-7" d="M252,126.54a1.46,1.46,0,0,1,1.46,1.46v3a1.46,1.46,0,1,1-2.92,0v-3A1.46,1.46,0,0,1,252,126.54Z"/><path class="cls-7" d="M256.54,123a1.46,1.46,0,0,1,1.46-1.46h3a1.46,1.46,0,0,1,0,2.92h-3A1.46,1.46,0,0,1,256.54,123Z"/><path class="cls-7" d="M293.54,254a1.46,1.46,0,0,1,1.46-1.46,5.46,5.46,0,1,1-5.46,5.46,1.46,1.46,0,0,1,2.92,0,2.54,2.54,0,1,0,2.54-2.54A1.46,1.46,0,0,1,293.54,254Z"/><path class="cls-7" d="M308,302.79a1.46,1.46,0,0,1-1.24,1.65,5.07,5.07,0,0,0-4.27,5.74m5.51-7.4a1.46,1.46,0,0,0-1.65-1.24Zm-1.65-1.24a8,8,0,0,0-6.75,9Zm7.36,5.54a1.46,1.46,0,0,1,1.65,1.24,8,8,0,1,1-15.76,2.27h0m14.11-3.51a1.46,1.46,0,0,0-1.24,1.65Zm-1.24,1.65a5.06,5.06,0,0,1-4.27,5.74Zm-10,1.44a5,5,0,0,0,5.7,4.3h0"/><path class="cls-7" d="M323,150.79a1.46,1.46,0,0,1-1.24,1.65,5.07,5.07,0,0,0-4.27,5.74m5.51-7.4a1.46,1.46,0,0,0-1.65-1.24Zm-1.65-1.24a8,8,0,0,0-6.75,9Zm7.36,5.54a1.46,1.46,0,0,1,1.65,1.24,8,8,0,1,1-15.76,2.27h0m14.11-3.51a1.46,1.46,0,0,0-1.24,1.65Zm-1.24,1.65a5.06,5.06,0,0,1-4.27,5.74Zm-10,1.44a5,5,0,0,0,5.7,4.3h0"/><path class="cls-8" d="M315,216c2.42-.77,6.14-3.77,7-7,.78,2.86,4,6.23,7,6.49-3.32,1.19-6.5,4.73-7,7.51-.34-2.83-4.73-6.59-7-7"/><path class="cls-8" d="M307,103c2.42-.77,6.14-3.77,7-7,.78,2.86,4,6.23,7,6.49-3.32,1.19-6.5,4.73-7,7.51-.34-2.83-4.73-6.59-7-7"/><path class="cls-8" d="M63,252.5a6,6,0,0,0,3.5-3.5,4.81,4.81,0,0,0,3.5,3.24A5.86,5.86,0,0,0,66.5,256c-.17-1.42-2.37-3.29-3.5-3.5"/><path class="cls-9" d="M86,120a3,3,0,1,1-3-3,3,3,0,0,1,3,3"/><path class="cls-8" d="M373,114a4,4,0,1,1-4-4,4,4,0,0,1,4,4"/><path class="cls-7" d="M140,97.46A1.54,1.54,0,1,0,141.54,99,1.54,1.54,0,0,0,140,97.46ZM135.54,99a4.46,4.46,0,1,1,4.46,4.46A4.46,4.46,0,0,1,135.54,99Z"/><path class="cls-7" d="M97.37,284.1a2.54,2.54,0,0,0-3.27-1.47h0a2.54,2.54,0,0,0-1.47,3.27h0a2.54,2.54,0,1,0,4.74-1.8Zm-4.31-4.2a5.46,5.46,0,1,1-3.16,7m3.16-7a5.46,5.46,0,0,0-3.16,7Z"/></svg>