<svg width="22" height="23" viewBox="0 0 22 23" fill="none" xmlns="http://www.w3.org/2000/svg">
<path d="M11 15.7C13.2091 15.7 15 13.8196 15 11.5C15 9.18039 13.2091 7.29999 11 7.29999C8.79086 7.29999 7 9.18039 7 11.5C7 13.8196 8.79086 15.7 11 15.7Z" stroke="#636363" stroke-width="1.2" stroke-miterlimit="10" stroke-linecap="round" stroke-linejoin="round"/>
<path d="M20.4 9.8424L18.764 9.3979C18.5777 8.65023 18.2935 7.93334 17.9193 7.2678L18.788 5.7187C18.878 5.55829 18.9146 5.37105 18.8923 5.18638C18.8699 5.00171 18.7897 4.83008 18.6643 4.69845L17.5273 3.5046C17.402 3.37296 17.2385 3.28878 17.0626 3.26528C16.8868 3.24178 16.7084 3.28028 16.5557 3.37475L15.0813 4.28475C14.4461 3.89078 13.7618 3.59158 13.048 3.39575L12.614 1.63C12.5697 1.44968 12.4695 1.28994 12.3293 1.1759C12.189 1.06186 12.0167 0.999984 11.8393 1H10.231C10.0537 1.00006 9.88142 1.06197 9.74126 1.17601C9.6011 1.29004 9.50099 1.44973 9.45667 1.63L9.02333 3.3898C8.30475 3.58479 7.61572 3.8845 6.97633 4.2802L5.46933 3.3485C5.31656 3.25403 5.13824 3.21553 4.96236 3.23903C4.78649 3.26253 4.62303 3.34671 4.49767 3.47835L3.36033 4.67255C3.23497 4.80418 3.15479 4.97581 3.13241 5.16048C3.11002 5.34515 3.1467 5.53239 3.23667 5.6928L4.124 7.2748C3.7541 7.93431 3.47235 8.64412 3.28667 9.38425L1.6 9.8424C1.42826 9.88896 1.27613 9.99412 1.16752 10.1414C1.05891 10.2886 0.999984 10.4696 1 10.6558V12.3445C1.00006 12.5307 1.05902 12.7116 1.16763 12.8588C1.27623 13.0059 1.42832 13.1111 1.6 13.1576L3.27333 13.6126C3.45984 14.3759 3.74837 15.1077 4.13033 15.7861L3.26367 17.3341C3.1737 17.4946 3.13702 17.6818 3.15941 17.8665C3.18179 18.0511 3.26196 18.2228 3.38733 18.3544L4.52467 19.5486C4.65003 19.6802 4.81349 19.7644 4.98936 19.7879C5.16524 19.8114 5.34356 19.7729 5.49633 19.6784L6.97167 18.766C7.61681 19.166 8.31259 19.4683 9.03833 19.6637L9.45667 21.37C9.50099 21.5503 9.6011 21.71 9.74126 21.824C9.88142 21.938 10.0537 21.9999 10.231 22H11.8393C12.0167 22 12.189 21.9381 12.3293 21.8241C12.4695 21.7101 12.5697 21.5503 12.614 21.37L13.0363 19.655C13.7567 19.4583 14.4473 19.1563 15.0877 18.7579L16.5307 19.6501C16.6834 19.7446 16.8618 19.7831 17.0376 19.7596C17.2135 19.7361 17.377 19.6519 17.5023 19.5203L18.6397 18.326C18.765 18.1944 18.8452 18.0228 18.8676 17.8381C18.89 17.6535 18.8533 17.4662 18.7633 17.3058L17.9137 15.7906C18.2994 15.1073 18.5902 14.3697 18.7773 13.6L20.4003 13.159C20.5722 13.1123 20.7244 13.007 20.8329 12.8595C20.9415 12.7121 21.0003 12.5309 21 12.3445V10.6558C21 10.4696 20.9411 10.2886 20.8325 10.1414C20.7239 9.99412 20.5717 9.88896 20.4 9.8424V9.8424Z" stroke="#636363" stroke-width="1.2" stroke-miterlimit="10" stroke-linecap="round" stroke-linejoin="round"/>
</svg>
