<svg width="12" height="12" viewBox="0 0 12 12" fill="none" xmlns="http://www.w3.org/2000/svg">
<path d="M5.4 6.6C5.4 6.26863 5.66863 6 6 6C6.33137 6 6.6 6.26863 6.6 6.6V8.4C6.6 8.73137 6.33137 9 6 9C5.66863 9 5.4 8.73137 5.4 8.4V6.6ZM6 3.3C5.50294 3.3 5.1 3.70294 5.1 4.2C5.1 4.69706 5.50294 5.1 6 5.1C6.49706 5.1 6.9 4.69706 6.9 4.2C6.9 3.70294 6.49706 3.3 6 3.3ZM0 6C0 2.68629 2.68629 0 6 0C9.31371 0 12 2.68629 12 6C12 9.31371 9.31371 12 6 12C2.68629 12 0 9.31371 0 6ZM6 1.2C3.34903 1.2 1.2 3.34903 1.2 6C1.2 8.65097 3.34903 10.8 6 10.8C8.65097 10.8 10.8 8.65097 10.8 6C10.8 3.34903 8.65097 1.2 6 1.2Z" fill="#636363"/>
</svg>
