<svg width="576" height="379" viewBox="0 0 576 379" fill="none" xmlns="http://www.w3.org/2000/svg">
<path d="M60.0861 347.726H130.208V353.417H60.0861V347.726Z" fill="#F1F3F9"/>
<path d="M64.7351 334.011C65.1373 332.776 66.2887 331.94 67.5877 331.94H122.89C124.189 331.94 125.34 332.776 125.743 334.011L130.208 347.726H60.2696L64.7351 334.011Z" fill="#F1F3F9"/>
<path d="M38.4254 105.787V127.264H239.246L219.788 107.623L38.4254 105.787Z" stroke="#F1F3F9" stroke-width="2" stroke-miterlimit="10" stroke-linejoin="round"/>
<path d="M152.419 127.264V107.623L174.814 127.264V107.623L197.393 127.264V107.623L219.788 127.264V108.357V107.623" stroke="#F1F3F9" stroke-width="2" stroke-miterlimit="10" stroke-linejoin="round"/>
<path d="M62.4727 127.264V106.154" stroke="#F1F3F9" stroke-width="2" stroke-miterlimit="10" stroke-linejoin="round"/>
<path d="M129.841 107.623V127.264L107.446 107.623" stroke="#F1F3F9" stroke-width="2" stroke-miterlimit="10" stroke-linejoin="round"/>
<path d="M107.446 107.623V127.264" stroke="#F1F3F9" stroke-width="2" stroke-miterlimit="10" stroke-linejoin="round"/>
<path d="M83.2152 322.761H107.262V85.7783L95.1469 74.5808L83.2152 85.7783V322.761Z" stroke="#F1F3F9" stroke-width="2" stroke-miterlimit="10" stroke-linejoin="round"/>
<path d="M107.262 87.0632H83.2152" stroke="#F1F3F9" stroke-width="2" stroke-miterlimit="10"/>
<path d="M107.262 147.64H83.2152" stroke="#F1F3F9" stroke-width="2" stroke-miterlimit="10" stroke-linejoin="round"/>
<path d="M107.262 167.097H83.2152" stroke="#F1F3F9" stroke-width="2" stroke-miterlimit="10"/>
<path d="M107.262 186.372H83.2152" stroke="#F1F3F9" stroke-width="2" stroke-miterlimit="10"/>
<path d="M107.262 205.83H83.2152" stroke="#F1F3F9" stroke-width="2" stroke-miterlimit="10"/>
<path d="M107.262 225.288H83.2152" stroke="#F1F3F9" stroke-width="2" stroke-miterlimit="10"/>
<path d="M107.262 244.746H83.2152" stroke="#F1F3F9" stroke-width="2" stroke-miterlimit="10"/>
<path d="M107.262 264.02H83.2152" stroke="#F1F3F9" stroke-width="2" stroke-miterlimit="10"/>
<path d="M107.262 283.478H83.2152" stroke="#F1F3F9" stroke-width="2" stroke-miterlimit="10"/>
<path d="M107.262 302.936H83.2152" stroke="#F1F3F9" stroke-width="2" stroke-miterlimit="10"/>
<path d="M201.982 107.439L95.1469 74.5808L44.2994 105.97" stroke="#F1F3F9" stroke-width="2" stroke-miterlimit="10" stroke-linejoin="round"/>
<path d="M107.446 127.264L83.2152 106.521" stroke="#F1F3F9" stroke-width="2" stroke-miterlimit="10" stroke-linejoin="round"/>
<path d="M83.9496 127.999L106.712 146.906" stroke="#F1F3F9" stroke-width="2" stroke-miterlimit="10" stroke-linejoin="round"/>
<path d="M83.9496 87.4304L106.895 105.787" stroke="#F1F3F9" stroke-width="2" stroke-miterlimit="10" stroke-linejoin="round"/>
<path d="M63.2066 106.521L82.2974 126.896" stroke="#F1F3F9" stroke-width="2" stroke-miterlimit="10" stroke-linejoin="round"/>
<path d="M61.9219 126.896L38.6091 106.521" stroke="#F1F3F9" stroke-width="2" stroke-miterlimit="10" stroke-linejoin="round"/>
<path d="M130.575 107.439L151.685 126.346" stroke="#F1F3F9" stroke-width="2" stroke-miterlimit="10" stroke-linejoin="round"/>
<path d="M84.1331 148.191L106.712 166.364" stroke="#F1F3F9" stroke-width="2" stroke-miterlimit="10" stroke-linejoin="round"/>
<path d="M84.1331 167.832L106.712 185.638" stroke="#F1F3F9" stroke-width="2" stroke-miterlimit="10" stroke-linejoin="round"/>
<path d="M83.9496 187.106L106.712 205.096" stroke="#F1F3F9" stroke-width="2" stroke-miterlimit="10" stroke-linejoin="round"/>
<path d="M83.9496 206.748L106.712 224.554" stroke="#F1F3F9" stroke-width="2" stroke-miterlimit="10" stroke-linejoin="round"/>
<path d="M83.9496 226.022L106.712 243.828" stroke="#F1F3F9" stroke-width="2" stroke-miterlimit="10" stroke-linejoin="round"/>
<path d="M83.9496 245.297L106.712 263.286" stroke="#F1F3F9" stroke-width="2" stroke-miterlimit="10" stroke-linejoin="round"/>
<path d="M83.9496 264.755L106.712 282.745" stroke="#F1F3F9" stroke-width="2" stroke-miterlimit="10" stroke-linejoin="round"/>
<path d="M83.9496 284.213L106.712 302.202" stroke="#F1F3F9" stroke-width="2" stroke-miterlimit="10" stroke-linejoin="round"/>
<path d="M83.9496 303.854L106.712 321.66" stroke="#F1F3F9" stroke-width="2" stroke-miterlimit="10" stroke-linejoin="round"/>
<path d="M71.2644 322.577H119.03C120.134 322.577 121.03 323.473 121.03 324.577V331.939H69.2644V324.577C69.2644 323.473 70.1598 322.577 71.2644 322.577Z" fill="#F1F3F9"/>
<path d="M133.512 145.07L119.745 158.838C118.827 159.755 117.542 160.306 116.441 160.306H81.9304V127.999H135.164V141.582C134.797 143.051 134.43 144.152 133.512 145.07Z" fill="#F1F3F9"/>
<path d="M102.616 142.664L88.4622 142.664C87.9099 142.664 87.4622 142.216 87.4622 141.664L87.4622 134.302C87.4622 133.75 87.9099 133.302 88.4622 133.302L102.616 133.302C103.168 133.302 103.616 133.75 103.616 134.302L103.616 141.664C103.616 142.216 103.168 142.664 102.616 142.664Z" fill="white"/>
<path d="M123.498 142.663L109.344 142.663C108.792 142.663 108.344 142.216 108.344 141.663L108.344 134.301C108.344 133.749 108.792 133.301 109.344 133.301L123.498 133.301C124.051 133.301 124.498 133.749 124.498 134.301L124.498 141.663C124.498 142.216 124.051 142.663 123.498 142.663Z" fill="white"/>
<path d="M42.0239 296.026H34.8264V354.766H42.0239V296.026Z" fill="#F1F3F9" stroke="#8DB8EC" stroke-width="2" stroke-miterlimit="10" stroke-linejoin="round"/>
<path d="M93.103 296.026H85.9055V354.766H93.103V296.026Z" fill="#F1F3F9" stroke="#8DB8EC" stroke-width="2" stroke-miterlimit="10" stroke-linejoin="round"/>
<path d="M310.42 354.513C290.918 354.977 267.7 354.513 251.215 354.281C234.731 354.745 211.513 354.977 192.01 354.513C211.281 343.601 217.782 323.401 218.943 309.935H283.256C284.649 323.401 291.15 343.601 310.42 354.513Z" fill="#F1F3F9" stroke="#8DB8EC" stroke-width="2" stroke-miterlimit="10"/>
<path d="M372.179 139.074V306.009C372.179 310.188 368.929 313.207 364.982 313.207H137.449C133.502 313.207 130.251 309.956 130.251 306.009V139.074C130.251 135.127 133.502 131.876 137.449 131.876H364.982C368.929 131.876 372.179 134.895 372.179 139.074Z" fill="white" stroke="#8DB8EC" stroke-width="2" stroke-miterlimit="10" stroke-linejoin="round"/>
<path d="M372.179 139.074V283.024H130.483V139.074C130.483 135.127 133.734 131.876 137.681 131.876H365.214C368.929 131.876 372.179 134.895 372.179 139.074Z" fill="#F1F3F9" stroke="#8DB8EC" stroke-width="2" stroke-miterlimit="10"/>
<path d="M363.589 140.699H139.074V274.665H363.357V140.699H363.589Z" fill="white"/>
<path d="M251.215 303.919C254.549 303.919 257.252 301.216 257.252 297.883C257.252 294.549 254.549 291.846 251.215 291.846C247.881 291.846 245.179 294.549 245.179 297.883C245.179 301.216 247.881 303.919 251.215 303.919Z" fill="#8DB8EC"/>
<path d="M504.913 302.527H498.645V354.07H504.913V302.527Z" fill="#F1F3F9" stroke="#8DB8EC" stroke-width="2" stroke-miterlimit="10" stroke-linejoin="round"/>
<path d="M549.723 302.527H543.454V354.07H549.723V302.527Z" fill="#F1F3F9" stroke="#8DB8EC" stroke-width="2" stroke-miterlimit="10" stroke-linejoin="round"/>
<path d="M557.617 304.848H491.679V325.976H557.617V304.848Z" fill="white" stroke="#8DB8EC" stroke-width="2" stroke-miterlimit="10"/>
<path d="M507.699 304.848L500.734 325.976H492.84L499.573 304.848H507.699Z" fill="#8DB8EC"/>
<path d="M523.719 304.848L516.754 325.976H508.86L515.593 304.848H523.719Z" fill="#8DB8EC"/>
<path d="M539.739 304.848L532.774 325.976H524.88L531.613 304.848H539.739Z" fill="#8DB8EC"/>
<path d="M555.76 304.848L548.795 325.976H540.901L547.634 304.848H555.76Z" fill="#8DB8EC"/>
<path d="M102.158 298.812H26.9324V322.958H102.158V298.812Z" fill="white" stroke="#8DB8EC" stroke-width="2" stroke-miterlimit="10"/>
<path d="M45.0422 298.812L37.1482 322.726H28.0933L35.9873 298.812H45.0422Z" fill="#8DB8EC"/>
<path d="M63.3842 298.812L55.4902 322.726H46.4353L54.0971 298.812H63.3842Z" fill="#8DB8EC"/>
<path d="M81.7263 298.812L73.8322 322.726H64.7773L72.4392 298.812H81.7263Z" fill="#8DB8EC"/>
<path d="M100.068 298.812L92.1743 322.726H83.1194L90.7812 298.812H100.068Z" fill="#8DB8EC"/>
<path d="M280.702 67.0996V95.4252" stroke="#8DB8EC" stroke-width="2" stroke-miterlimit="10" stroke-linejoin="round"/>
<path d="M280.818 107.731C285.37 107.731 289.06 104.04 289.06 99.4884C289.06 94.9363 285.37 91.2461 280.818 91.2461C276.266 91.2461 272.576 94.9363 272.576 99.4884C272.576 104.04 276.266 107.731 280.818 107.731Z" fill="#8DB8EC"/>
<path d="M272.808 121.429C272.808 126.537 277.452 130.716 283.024 129.323C286.042 128.627 288.364 126.305 289.06 123.287C289.989 118.875 287.435 114.696 283.488 113.535C282.095 113.071 281.166 111.91 281.166 110.285V103.087" stroke="#8DB8EC" stroke-width="2" stroke-miterlimit="10" stroke-linejoin="round"/>
<path d="M481.303 347.104H392.611V354.302H481.303V347.104Z" fill="#F1F3F9" stroke="#8DB8EC" stroke-width="2" stroke-miterlimit="10" stroke-linejoin="round"/>
<path d="M474.569 327.137H399.112L392.611 347.104H481.07L474.569 327.137Z" fill="#F1F3F9" stroke="#8DB8EC" stroke-width="2" stroke-miterlimit="10" stroke-linejoin="round"/>
<path d="M508.699 41.0952V68.2599H254.698L279.309 43.417L508.699 41.0952Z" stroke="#8DB8EC" stroke-width="2" stroke-miterlimit="10" stroke-linejoin="round"/>
<path d="M364.517 68.2599V43.417L336.192 68.2599V43.417L307.634 68.2599V43.417L279.308 68.2599V44.3457V43.417" stroke="#8DB8EC" stroke-width="2" stroke-miterlimit="10" stroke-linejoin="round"/>
<path d="M478.284 68.2599V41.5596" stroke="#8DB8EC" stroke-width="2" stroke-miterlimit="10" stroke-linejoin="round"/>
<path d="M393.075 43.417V68.2599L421.401 43.417" stroke="#8DB8EC" stroke-width="2" stroke-miterlimit="10" stroke-linejoin="round"/>
<path d="M421.401 43.417V68.2599" stroke="#8DB8EC" stroke-width="2" stroke-miterlimit="10" stroke-linejoin="round"/>
<path d="M452.048 315.528H421.633V15.7878L436.956 1.625L452.048 15.7878V315.528Z" stroke="#8DB8EC" stroke-width="2" stroke-miterlimit="10" stroke-linejoin="round"/>
<path d="M421.633 17.4133H452.048" stroke="#8DB8EC" stroke-width="2" stroke-miterlimit="10"/>
<path d="M421.633 94.0317H452.048" stroke="#8DB8EC" stroke-width="2" stroke-miterlimit="10" stroke-linejoin="round"/>
<path d="M421.633 118.642H452.048" stroke="#8DB8EC" stroke-width="2" stroke-miterlimit="10"/>
<path d="M421.633 143.021H452.048" stroke="#8DB8EC" stroke-width="2" stroke-miterlimit="10"/>
<path d="M421.633 167.632H452.048" stroke="#8DB8EC" stroke-width="2" stroke-miterlimit="10"/>
<path d="M421.633 192.243H452.048" stroke="#8DB8EC" stroke-width="2" stroke-miterlimit="10"/>
<path d="M421.633 216.853H452.048" stroke="#8DB8EC" stroke-width="2" stroke-miterlimit="10"/>
<path d="M421.633 241.231H452.048" stroke="#8DB8EC" stroke-width="2" stroke-miterlimit="10"/>
<path d="M421.633 265.842H452.048" stroke="#8DB8EC" stroke-width="2" stroke-miterlimit="10"/>
<path d="M421.633 290.453H452.048" stroke="#8DB8EC" stroke-width="2" stroke-miterlimit="10"/>
<path d="M301.83 43.1846L436.956 1.625L501.269 41.3272" stroke="#8DB8EC" stroke-width="2" stroke-miterlimit="10" stroke-linejoin="round"/>
<path d="M421.401 68.2594L452.048 42.0234" stroke="#8DB8EC" stroke-width="2" stroke-miterlimit="10" stroke-linejoin="round"/>
<path d="M451.119 69.1887L422.329 93.1029" stroke="#8DB8EC" stroke-width="2" stroke-miterlimit="10" stroke-linejoin="round"/>
<path d="M451.119 17.8774L422.097 41.0951" stroke="#8DB8EC" stroke-width="2" stroke-miterlimit="10" stroke-linejoin="round"/>
<path d="M477.355 42.0234L453.209 67.7951" stroke="#8DB8EC" stroke-width="2" stroke-miterlimit="10" stroke-linejoin="round"/>
<path d="M478.98 67.7951L508.467 42.0234" stroke="#8DB8EC" stroke-width="2" stroke-miterlimit="10" stroke-linejoin="round"/>
<path d="M392.146 43.1846L365.446 67.0988" stroke="#8DB8EC" stroke-width="2" stroke-miterlimit="10" stroke-linejoin="round"/>
<path d="M450.887 94.7283L422.329 117.714" stroke="#8DB8EC" stroke-width="2" stroke-miterlimit="10" stroke-linejoin="round"/>
<path d="M450.887 119.571L422.329 142.092" stroke="#8DB8EC" stroke-width="2" stroke-miterlimit="10" stroke-linejoin="round"/>
<path d="M451.119 143.949L422.329 166.703" stroke="#8DB8EC" stroke-width="2" stroke-miterlimit="10" stroke-linejoin="round"/>
<path d="M451.119 168.793L422.329 191.314" stroke="#8DB8EC" stroke-width="2" stroke-miterlimit="10" stroke-linejoin="round"/>
<path d="M451.119 193.171L422.329 215.692" stroke="#8DB8EC" stroke-width="2" stroke-miterlimit="10" stroke-linejoin="round"/>
<path d="M451.119 217.55L422.329 240.303" stroke="#8DB8EC" stroke-width="2" stroke-miterlimit="10" stroke-linejoin="round"/>
<path d="M451.119 242.161L422.329 264.914" stroke="#8DB8EC" stroke-width="2" stroke-miterlimit="10" stroke-linejoin="round"/>
<path d="M451.119 266.771L422.329 289.524" stroke="#8DB8EC" stroke-width="2" stroke-miterlimit="10" stroke-linejoin="round"/>
<path d="M451.119 291.614L422.329 314.135" stroke="#8DB8EC" stroke-width="2" stroke-miterlimit="10" stroke-linejoin="round"/>
<path d="M469.694 315.296H404.22V327.137H469.694V315.296Z" fill="#F1F3F9" stroke="#8DB8EC" stroke-width="2" stroke-miterlimit="10" stroke-linejoin="round"/>
<path d="M179.473 266.539H150.683C148.361 266.539 146.503 264.682 146.503 262.36V151.38C146.503 149.058 148.361 147.2 150.683 147.2H179.473C181.794 147.2 183.652 149.058 183.652 151.38V262.36C183.652 264.682 181.794 266.539 179.473 266.539Z" fill="#F1F3F9"/>
<path d="M165.078 169.489C168.924 169.489 172.043 166.371 172.043 162.524C172.043 158.677 168.924 155.559 165.078 155.559C161.231 155.559 158.112 158.677 158.112 162.524C158.112 166.371 161.231 169.489 165.078 169.489Z" fill="#8DB8EC"/>
<path d="M177.383 179.705H152.772C152.308 179.705 152.076 179.473 152.076 179.008V177.151C152.076 176.687 152.308 176.454 152.772 176.454H177.151C177.615 176.454 177.847 176.687 177.847 177.151V179.008C178.079 179.473 177.615 179.705 177.383 179.705Z" fill="#8DB8EC"/>
<path d="M177.383 189.456H152.772C152.308 189.456 152.076 189.224 152.076 188.76V186.902C152.076 186.438 152.308 186.206 152.772 186.206H177.151C177.615 186.206 177.847 186.438 177.847 186.902V188.76C178.079 189.224 177.615 189.456 177.383 189.456Z" fill="#8DB8EC"/>
<path d="M177.383 199.208H152.772C152.308 199.208 152.076 198.976 152.076 198.511V196.654C152.076 196.19 152.308 195.958 152.772 195.958H177.151C177.615 195.958 177.847 196.19 177.847 196.654V198.511C178.079 198.976 177.615 199.208 177.383 199.208Z" fill="#8DB8EC"/>
<path d="M177.383 209.191H152.772C152.308 209.191 152.076 208.959 152.076 208.495V206.637C152.076 206.173 152.308 205.941 152.772 205.941H177.151C177.615 205.941 177.847 206.173 177.847 206.637V208.495C178.079 208.727 177.615 209.191 177.383 209.191Z" fill="#8DB8EC"/>
<path d="M177.383 218.943H152.772C152.308 218.943 152.076 218.711 152.076 218.246V216.389C152.076 215.925 152.308 215.692 152.772 215.692H177.151C177.615 215.692 177.847 215.925 177.847 216.389V218.246C178.079 218.479 177.615 218.943 177.383 218.943Z" fill="#8DB8EC"/>
<path d="M177.383 228.694H152.772C152.308 228.694 152.076 228.461 152.076 227.997V226.14C152.076 225.675 152.308 225.443 152.772 225.443H177.151C177.615 225.443 177.847 225.675 177.847 226.14V227.997C178.079 228.461 177.615 228.694 177.383 228.694Z" fill="#8DB8EC"/>
<path d="M172.972 238.446H157.416C156.952 238.446 156.719 238.213 156.719 237.749V235.892C156.719 235.427 156.952 235.195 157.416 235.195H172.972C173.436 235.195 173.668 235.427 173.668 235.892V237.749C173.668 238.213 173.204 238.446 172.972 238.446Z" fill="#8DB8EC"/>
<path d="M266.075 249.822H204.083V253.304H266.075V249.822Z" fill="#8DB8EC"/>
<path d="M237.749 259.109H204.083V262.592H237.749V259.109Z" fill="#8DB8EC"/>
<path d="M340.603 249.822H278.612V253.304H340.603V249.822Z" fill="#8DB8EC"/>
<path d="M312.278 259.109H278.612V262.592H312.278V259.109Z" fill="#8DB8EC"/>
<path d="M226.471 136.634L275.62 126.855C279.222 126.083 282.825 126.855 285.655 128.657L323.482 150.529" stroke="#AAB2C5" stroke-width="2" stroke-miterlimit="10" stroke-linejoin="round"/>
<path opacity="0.1" d="M327.342 270.743L202.849 251.958C198.989 251.443 196.416 247.841 196.93 243.981L209.539 154.175C210.054 150.315 213.656 147.742 217.516 148.256L342.009 167.041C345.869 167.556 348.442 171.158 347.928 175.018L335.319 264.824C334.804 268.427 331.202 271.257 327.342 270.743Z" fill="#3B589D"/>
<path d="M322.941 254.231L198.448 235.446C194.589 234.932 192.015 231.329 192.53 227.469L205.139 137.663C205.654 133.803 209.256 131.23 213.116 131.745L337.609 150.529C341.469 151.044 344.042 154.646 343.527 158.506L330.918 248.312C330.404 251.915 326.801 254.746 322.941 254.231Z" fill="white" stroke="#8DB8EC" stroke-width="2" stroke-miterlimit="10" stroke-linejoin="round"/>
<path d="M318.865 244.011L207.579 226.63C204.433 226.211 202.335 223.274 202.755 220.128L213.032 146.932C213.451 143.786 216.387 141.689 219.533 142.108L330.82 159.489C333.966 159.908 336.063 162.845 335.644 165.991L325.367 239.187C324.947 242.124 322.011 244.431 318.865 244.011Z" fill="#F1F3F9"/>
<path d="M388.432 90.7812L405.845 108.194C407.006 109.355 408.631 110.052 410.024 110.052H453.674V69.1887H386.342V86.3698C386.807 88.2272 387.271 89.6203 388.432 90.7812Z" fill="#F1F3F9" stroke="#8DB8EC" stroke-width="2" stroke-miterlimit="10" stroke-linejoin="round"/>
<path d="M426.245 87.7371L446.677 87.7371L446.677 75.896L426.245 75.896L426.245 87.7371Z" fill="white" stroke="#8DB8EC" stroke-width="2" stroke-miterlimit="10" stroke-linejoin="round"/>
<path d="M399.833 87.7371L420.264 87.7371L420.264 75.896L399.833 75.896L399.833 87.7371Z" fill="white" stroke="#8DB8EC" stroke-width="2" stroke-miterlimit="10" stroke-linejoin="round"/>
<path d="M2.32153 354.766H574.355" stroke="#CDD6E1" stroke-width="3" stroke-miterlimit="10" stroke-linecap="round" stroke-linejoin="round"/>
<path d="M200.124 352.91H168.781L170.174 349.427L173.424 340.604L176.21 332.942L179.461 324.12L181.782 318.083C182.247 316.922 183.408 315.993 184.569 315.993C185.729 315.993 186.89 316.69 187.355 318.083L189.676 324.12L192.927 332.942L195.713 340.604L198.963 349.427L200.124 352.91Z" fill="white" stroke="#8DB8EC" stroke-width="2" stroke-miterlimit="10"/>
<path d="M192.936 332.942H176.229L179.368 324.352H189.751L192.936 332.942Z" fill="#8DB8EC"/>
<path d="M198.953 349.427H170.164L173.414 340.604H195.703L198.953 349.427Z" fill="#8DB8EC"/>
<path d="M200.124 352.91H168.548C167.62 352.91 166.691 352.213 166.691 351.052C166.691 350.124 167.387 349.195 168.548 349.195H200.124C201.053 349.195 201.982 349.892 201.982 351.052C201.982 352.213 201.285 352.91 200.124 352.91Z" fill="white" stroke="#8DB8EC" stroke-width="2" stroke-miterlimit="10"/>
<path d="M371.889 352.91H340.545L341.938 349.427L345.188 340.604L347.974 332.942L351.225 324.12L353.547 318.083C354.011 316.922 355.172 315.993 356.333 315.993C357.494 315.993 358.654 316.69 359.119 318.083L361.441 324.12L364.691 332.942L367.477 340.604L370.728 349.427L371.889 352.91Z" fill="white" stroke="#8DB8EC" stroke-width="2" stroke-miterlimit="10"/>
<path d="M364.7 332.942H347.993L351.133 324.352H361.515L364.7 332.942Z" fill="#8DB8EC"/>
<path d="M370.718 349.427H341.928L345.178 340.604H367.467L370.718 349.427Z" fill="#8DB8EC"/>
<path d="M371.889 352.91H340.312C339.384 352.91 338.455 352.213 338.455 351.052C338.455 350.124 339.152 349.195 340.312 349.195H371.889C372.817 349.195 373.746 349.892 373.746 351.052C373.746 352.213 373.049 352.91 371.889 352.91Z" fill="white" stroke="#8DB8EC" stroke-width="2" stroke-miterlimit="10"/>
<path d="M244.377 195.757C247.664 196.257 250.869 193.898 251.368 190.611C251.868 187.323 249.509 184.119 246.222 183.62C242.934 183.12 239.73 185.479 239.231 188.766C238.731 192.053 241.09 195.258 244.377 195.757Z" fill="#AAB2C5"/>
<path d="M290.905 202.827C294.192 203.327 297.396 200.968 297.896 197.681C298.395 194.394 296.037 191.189 292.749 190.69C289.462 190.19 286.258 192.549 285.758 195.836C285.22 199.377 287.617 202.328 290.905 202.827Z" fill="#AAB2C5"/>
<path d="M248.113 169.574L233.668 174.754L234.963 178.365L249.408 173.186L248.113 169.574Z" fill="#AAB2C5"/>
<path d="M294.067 176.46L291.759 179.524L304.015 188.759L306.324 185.695L294.067 176.46Z" fill="#AAB2C5"/>
<path d="M265.489 213.453C269.399 214.047 272.931 212.151 273.376 209.218C273.822 206.286 271.013 203.427 267.103 202.832C263.193 202.238 259.661 204.134 259.216 207.067C258.77 209.999 261.579 212.859 265.489 213.453Z" fill="#AAB2C5"/>
<path d="M180.777 377H489.219" stroke="#CDD6E1" stroke-width="3" stroke-miterlimit="10" stroke-linecap="round" stroke-linejoin="round"/>
<path d="M80.4531 377H119.432" stroke="#CDD6E1" stroke-width="3" stroke-miterlimit="10" stroke-linecap="round" stroke-linejoin="round"/>
</svg>
