<svg xmlns="http://www.w3.org/2000/svg" width="174.498" height="116.332" viewBox="0 0 174.498 116.332">
  <g id="Grupo_43" data-name="Grupo 43" transform="translate(-925 134.853)">
    <g id="mastercard" transform="translate(925 -134.853)">
      <path id="Path" d="M174.5,101.791a14.584,14.584,0,0,1-14.542,14.542H14.542A14.585,14.585,0,0,1,0,101.791V14.542A14.585,14.585,0,0,1,14.542,0H159.957A14.585,14.585,0,0,1,174.5,14.542Z" transform="translate(0 0)" fill="#f5f5f5" fill-rule="evenodd"/>
      <path id="Shape" d="M159.957,0H14.542A14.585,14.585,0,0,0,0,14.542v87.249a14.585,14.585,0,0,0,14.542,14.542H159.957A14.585,14.585,0,0,0,174.5,101.791V14.542A14.585,14.585,0,0,0,159.957,0Zm0,2.909A11.645,11.645,0,0,1,171.59,14.542v87.249a11.645,11.645,0,0,1-11.633,11.633H14.542A11.645,11.645,0,0,1,2.909,101.791V14.542A11.645,11.645,0,0,1,14.542,2.909Z" transform="translate(0 0)" fill="#d0d0d0"/>
    </g>
    <g id="Grupo_42" data-name="Grupo 42" transform="translate(10)">
      <g id="g972" transform="translate(991.02 -92.079)">
        <path id="path974" d="M0-100.026V-126.71a8.89,8.89,0,0,1,8.89-8.89l7.879.012a8.877,8.877,0,0,1,8.859,8.877v5.68a8.89,8.89,0,0,1-8.89,8.89H5.6" transform="translate(0 135.6)" fill="none" stroke="#939598" stroke-linecap="round" stroke-linejoin="round" stroke-miterlimit="10" stroke-width="1.5"/>
      </g>
      <path id="path978" d="M0,0H3.418A3.648,3.648,0,0,1,7.066,3.648V23.582" transform="translate(1018.849 -92.083)" fill="none" stroke="#939598" stroke-linecap="round" stroke-linejoin="round" stroke-miterlimit="10" stroke-width="1.5"/>
      <g id="g980" transform="translate(1023.344 -99.951)">
        <path id="path982" d="M-5.169-13.441l-1.55-1.55a.985.985,0,0,1,0-1.393l1.549-1.549a.986.986,0,0,1,1.394,0l1.549,1.549a.985.985,0,0,1,0,1.393l-1.55,1.55a.985.985,0,0,1-1.393,0" transform="translate(7.007 18.222)" fill="#32bcad"/>
      </g>
      <g id="g984" transform="translate(1032.472 -92.101)">
        <path id="path986" d="M0,0H3.389A6.573,6.573,0,0,1,8.038,1.925l7.928,7.927a2.629,2.629,0,0,0,3.719,0l7.9-7.9A6.574,6.574,0,0,1,32.231.029h2.755" fill="none" stroke="#939598" stroke-linecap="round" stroke-linejoin="round" stroke-miterlimit="10" stroke-width="1.5"/>
      </g>
      <g id="g988" transform="translate(1032.472 -79.298)">
        <path id="path990" d="M0-29.87H3.389A6.573,6.573,0,0,0,8.038-31.8l7.928-7.928a2.629,2.629,0,0,1,3.719,0l7.9,7.9A6.573,6.573,0,0,0,32.231-29.9h2.755" transform="translate(0 40.494)" fill="none" stroke="#939598" stroke-linecap="round" stroke-linejoin="round" stroke-miterlimit="10" stroke-width="1.5"/>
      </g>
      <g id="g992" transform="translate(945.786 -72.321)">
        <path id="path994" d="M-70.372-24.492a6.329,6.329,0,0,1-4.5-1.865l-6.5-6.5a1.236,1.236,0,0,0-1.709,0l-6.527,6.527a6.331,6.331,0,0,1-4.5,1.864H-95.4l8.236,8.236a6.587,6.587,0,0,0,9.315,0l8.26-8.26Z" transform="translate(95.4 33.202)" fill="#32bcad"/>
      </g>
      <g id="g996" transform="translate(945.786 -96.779)">
        <path id="path998" d="M-3.6-28.582A6.329,6.329,0,0,1,.9-26.717l6.527,6.528a1.209,1.209,0,0,0,1.709,0l6.5-6.5a6.33,6.33,0,0,1,4.5-1.865h.783l-8.26-8.26a6.587,6.587,0,0,0-9.315,0l-8.236,8.236Z" transform="translate(4.884 38.747)" fill="#32bcad"/>
      </g>
      <g id="g1000" transform="translate(937 -84.769)">
        <path id="path1002" d="M-116.485-14.091l-4.992-4.992a.95.95,0,0,1-.354.072H-124.1a4.485,4.485,0,0,0-3.151,1.305l-6.5,6.5a3.112,3.112,0,0,1-2.207.913,3.114,3.114,0,0,1-2.207-.913l-6.527-6.527a4.485,4.485,0,0,0-3.151-1.305h-2.791a.947.947,0,0,1-.335-.068l-5.011,5.011a6.587,6.587,0,0,0,0,9.315l5.011,5.011a.948.948,0,0,1,.335-.068h2.791A4.485,4.485,0,0,0-144.7-1.137l6.527-6.527a3.2,3.2,0,0,1,4.415,0l6.5,6.5A4.484,4.484,0,0,0-124.1.144h2.269a.951.951,0,0,1,.355.071l4.991-4.991a6.587,6.587,0,0,0,0-9.315" transform="translate(157.913 19.102)" fill="#32bcad"/>
      </g>
    </g>
  </g>
</svg>
