<svg width="185" height="182" viewBox="0 0 185 182" fill="none" xmlns="http://www.w3.org/2000/svg">
<path d="M91.3678 180.99C141.031 180.99 181.294 140.806 181.294 91.0631C181.294 41.3202 141.031 1.13647 91.3678 1.13647C41.7042 1.13647 1.44116 41.3202 1.44116 91.0631C1.44116 140.806 41.7042 180.99 91.3678 180.99Z" fill="#F1F3F9" stroke="#8DB8EC" stroke-width="2" stroke-miterlimit="10"/>
<path d="M25.7588 33.6631H153.15C158.274 33.6631 162.161 37.5034 162.161 42.5657V122.34C162.161 127.403 158.274 131.243 153.15 131.243H25.7588C20.6349 131.243 16.7478 127.403 16.7478 122.34V42.5657C16.7478 37.5034 20.9883 33.6631 25.7588 33.6631Z" fill="#F1F3F9" stroke="#8DB8EC" stroke-width="2" stroke-miterlimit="10"/>
<path d="M165.031 84.8012V123.938C165.031 128.982 160.927 133.156 155.573 133.156H23.3362C18.1609 133.156 13.8779 128.982 13.8779 123.938V81.4963" stroke="#1676EE" stroke-width="3" stroke-linecap="round" stroke-linejoin="round"/>
<path d="M153.499 62.8091H112.106C108.037 62.8091 104.146 64.2147 101.138 66.6744L90.3479 75.4592C87.3407 77.9189 83.449 79.3245 79.3805 79.3245H32.6805C27.9044 79.3245 24.0127 83.1898 24.0127 87.9336C24.0127 88.285 24.0127 88.8121 24.1896 89.1635L32.8574 134.493C33.565 138.71 37.1028 141.872 41.5252 141.872H141.47C145.716 141.872 149.43 138.885 150.138 134.669L162.167 72.6481C163.051 67.9043 159.867 63.6876 155.091 62.8091C154.383 62.8091 153.853 62.8091 153.499 62.8091Z" fill="white"/>
<path d="M172.072 50.6867H118.297C112.99 50.6867 108.037 52.4436 103.968 55.7819L89.8166 67.2021C85.925 70.3646 80.795 72.2973 75.4882 72.2973H14.6367C8.44546 72.2973 3.49243 77.3925 3.49243 83.3661C3.49243 83.8932 3.49243 84.4203 3.66933 84.9474L14.8136 144.157C15.6981 149.779 20.4742 153.82 25.958 153.82H156.152C161.812 153.82 166.412 149.955 167.296 144.333L183.04 63.3368C184.101 57.1874 180.032 51.7409 173.841 50.511C173.311 50.6867 172.603 50.6867 172.072 50.6867Z" fill="white" stroke="#8DB8EC" stroke-width="2" stroke-miterlimit="10"/>
</svg>
