<svg width="235" height="200" viewBox="0 0 235 200" fill="none" xmlns="http://www.w3.org/2000/svg">
<path d="M126.092 199C180.659 199 224.898 154.762 224.898 100C224.898 45.2382 180.659 1 126.092 1C71.5255 1 27.2874 45.2382 27.2874 100C27.2874 154.762 71.5255 199 126.092 199Z" fill="#F1F3F9" stroke="#8DB8EC" stroke-width="2" stroke-miterlimit="10"/>
<path d="M206.172 35.1116C210.355 35.1116 213.746 31.7176 213.746 27.5308C213.746 23.3441 210.355 19.9501 206.172 19.9501C201.989 19.9501 198.598 23.3441 198.598 27.5308C198.598 31.7176 201.989 35.1116 206.172 35.1116Z" fill="#EAEEF9"/>
<path d="M4.98288 76.1067C7.73484 76.1067 9.96575 73.8738 9.96575 71.1194C9.96575 68.365 7.73484 66.1321 4.98288 66.1321C2.23091 66.1321 0 68.365 0 71.1194C0 73.8738 2.23091 76.1067 4.98288 76.1067Z" fill="#EAEEF9"/>
<path d="M27.8884 165.77C30.6404 165.77 32.8713 163.537 32.8713 160.783C32.8713 158.028 30.6404 155.796 27.8884 155.796C25.1364 155.796 22.9055 158.028 22.9055 160.783C22.9055 163.537 25.1364 165.77 27.8884 165.77Z" fill="#EAEEF9"/>
<path d="M54.5232 165.77L124.447 143.86V54.0283L54.5232 75.7699V165.77Z" fill="white" stroke="#8DB8EC" stroke-width="2" stroke-miterlimit="10" stroke-linejoin="round"/>
<path d="M194.37 165.77L124.446 143.86V54.0283L194.37 75.7699V165.77Z" fill="white" stroke="#8DB8EC" stroke-width="2" stroke-miterlimit="10" stroke-linejoin="round"/>
<path d="M124.447 187.848L54.5232 165.938V76.1069L124.447 98.017V187.848Z" fill="white" stroke="#8DB8EC" stroke-width="2" stroke-miterlimit="10" stroke-linejoin="round"/>
<path d="M124.446 187.848L194.37 165.938V76.1069L124.446 98.017V187.848Z" fill="white" stroke="#8DB8EC" stroke-width="2" stroke-miterlimit="10" stroke-linejoin="round"/>
<path d="M124.447 54.0282L91.5711 29.4215L20.4792 53.3541L54.5232 75.7698L124.447 54.0282Z" fill="white" stroke="#8DB8EC" stroke-width="2" stroke-miterlimit="10" stroke-linejoin="round"/>
<path d="M124.446 54.0282L157.322 29.4215L228.414 53.3541L194.37 75.7698L124.446 54.0282Z" fill="white" stroke="#8DB8EC" stroke-width="2" stroke-miterlimit="10" stroke-linejoin="round"/>
<path d="M54.523 76.1069L124.447 98.017L89.5683 120.264L20.479 97.3429L54.523 76.1069Z" fill="white" stroke="#8DB8EC" stroke-width="2" stroke-miterlimit="10" stroke-linejoin="round"/>
<path d="M194.37 76.1069L124.446 98.017L159.325 120.264L228.414 97.3429L194.37 76.1069Z" fill="white" stroke="#8DB8EC" stroke-width="2" stroke-miterlimit="10" stroke-linejoin="round"/>
<path d="M32.8707 21.2436H28.5337V16.9066H24.8163V21.2436H20.4792V25.085H24.8163V29.422H28.5337V25.085H32.8707V21.2436Z" fill="white"/>
<path d="M42.3976 130.057H38.0606V125.72H34.3431V130.057H30.0061V133.899H34.3431V138.236H38.0606V133.899H42.3976V130.057Z" fill="white"/>
<path d="M231.99 130.303L226.683 127.624L229.363 122.317L224.814 120.021L222.135 125.327L216.829 122.648L214.456 127.348L219.762 130.027L217.083 135.334L221.631 137.63L224.311 132.324L229.617 135.003L231.99 130.303Z" fill="white"/>
</svg>
