<svg width="76" height="22" viewBox="0 0 76 22" fill="none" xmlns="http://www.w3.org/2000/svg">
<path d="M49.5049 1.1861C49.6706 2.77715 49.1326 4.41894 48.0298 5.69203C48.0123 5.71293 48.0063 5.74043 48.0143 5.76596C48.5938 7.58635 47.855 9.72191 46.2178 10.959L45.6045 11.5407C45.5877 11.5566 45.579 11.5787 45.5802 11.6015C45.6738 13.1767 44.806 14.7286 43.3691 15.5547L42.4715 16.0706C42.4531 16.0815 42.4392 16.0993 42.434 16.1199C42.4289 16.14 42.4324 16.1617 42.4436 16.1795L42.4456 16.1826L42.4822 16.2399H42.4807L45.3456 20.95C45.3731 20.9952 45.3879 21.0479 45.3879 21.101C45.3879 21.2578 45.2628 21.3872 45.1091 21.3896L43.6822 21.3915C43.5304 21.3915 43.3914 21.3132 43.311 21.1823L42.8203 20.3752C42.8191 20.3733 42.8179 20.3709 42.8172 20.3686L41.5942 18.3616C41.577 18.3333 41.5444 18.3197 41.5117 18.3267C40.2138 18.625 38.8896 18.7764 37.5766 18.7764C36.2326 18.7764 34.8801 18.6188 33.5559 18.3074C33.5252 18.3004 33.4894 18.3155 33.4727 18.343L31.7785 21.1815C31.6973 21.3128 31.5587 21.3911 31.407 21.3911H31.3906L29.9522 21.3891C29.7976 21.3872 29.6726 21.2574 29.6726 21.1006C29.6726 21.0476 29.6874 20.9952 29.7144 20.95L30.4655 19.7179C30.4671 19.7152 30.4687 19.7129 30.4707 19.711L32.5663 16.2395H32.5607L32.5989 16.1795C32.6105 16.1617 32.6141 16.1396 32.6089 16.1195C32.6037 16.0986 32.5901 16.0807 32.5715 16.0703L31.6738 15.5544C30.2369 14.7279 29.3691 13.1763 29.4631 11.6012C29.4643 11.5783 29.4556 11.5562 29.4388 11.5403L28.8255 10.9586C27.1883 9.72191 26.4496 7.58635 27.029 5.76562C27.037 5.74003 27.0314 5.71218 27.0135 5.69163C25.9107 4.41856 25.3731 2.77676 25.5388 1.18571C25.5838 0.890195 25.7124 0.359972 26.07 0.128749C26.1179 0.100863 26.162 0.0780124 26.2046 0.0594212C26.3018 0.0168176 26.4042 -0.00370953 26.5093 0.000550948C26.5241 0.00132558 26.5376 0.00829668 26.546 0.0203035C27.1784 0.904912 28.3982 2.27598 30.6196 3.78724C31.7459 4.55372 32.6189 5.07 33.3485 5.49409C33.3524 5.49606 33.5456 5.60837 33.5456 5.60837C33.7558 5.73036 33.9466 5.84111 34.1262 5.94804C34.4476 6.15409 34.732 6.36477 34.9856 6.57273C35.5834 7.08087 36.8442 8.34894 37.0318 10.1402C37.0318 10.1402 37.2469 11.5639 36.2955 13.4467L34.5802 16.5002C34.5671 16.5223 34.5651 16.5498 34.5754 16.5734C34.5858 16.597 34.6069 16.614 34.632 16.6187C35.6104 16.7995 36.6013 16.891 37.5766 16.891C38.5188 16.891 39.477 16.8054 40.4241 16.6365C40.4492 16.6319 40.4707 16.6152 40.481 16.5912C40.4914 16.5676 40.4898 16.5401 40.4762 16.518L40.3831 16.3526L40.3819 16.3507L39.8474 15.4018H39.8482L38.7279 13.4103C37.7976 11.5462 38.0095 10.1406 38.0095 10.1406C38.1923 8.39618 39.3926 7.14832 40.0076 6.61458C40.2731 6.39302 40.575 6.16804 40.9175 5.94839C41.0826 5.84979 41.2572 5.74854 41.4476 5.63807L41.6953 5.49449C42.4249 5.07039 43.2979 4.55372 44.4241 3.78763C46.6455 2.27636 47.8654 0.904912 48.4978 0.0206908C48.5061 0.008684 48.5197 0.00132558 48.5344 0.000938265C48.6395 -0.00293489 48.7419 0.0172049 48.839 0.0598085C48.8817 0.0783997 48.9259 0.10125 48.9737 0.129136C49.3313 0.36036 49.4599 0.890583 49.5049 1.1861Z" fill="#15034C"/>
<path d="M22.0274 13.7459C23.2608 13.8125 24.7924 13.8954 26.0752 14.3253C28.2548 15.0562 28.7367 16.4702 28.7574 17.5272C28.7769 18.5191 28.4081 19.3885 27.6917 20.0424C26.2898 21.3208 24.0405 21.3956 23.604 21.3976C23.5224 21.4022 23.3436 21.4095 23.088 21.4095C22.1055 21.4095 19.5917 21.2887 17.4678 20.1694L17.0616 19.937C16.933 19.8646 16.8525 19.7302 16.8525 19.5865C16.8525 19.5218 16.8693 19.4583 16.9027 19.3975L17.4157 18.459C17.4885 18.327 17.6295 18.2448 17.7837 18.2448C17.855 18.2448 17.9258 18.2631 17.9888 18.2971L18.5105 18.5764C20.6694 19.7108 23.4444 19.5533 23.5003 19.5501L23.5009 19.5501C23.5272 19.5482 23.5563 19.5466 23.5873 19.5478C24.0776 19.5478 25.5128 19.4025 26.2361 18.7383C26.5662 18.435 26.7152 18.0605 26.7056 17.5593C26.6773 16.1135 25.0676 15.7626 21.9067 15.5918L21.8912 15.5911L21.8679 15.5898C21.5505 15.5724 21.2568 15.5564 20.9836 15.5352C17.5455 15.2692 17.0417 13.4209 17.0477 12.3431C17.0525 11.4492 17.5089 9.33217 21.6331 8.98318C22.4914 8.91035 23.3771 8.9565 24.2655 9.12028C24.3623 9.13852 24.438 9.15322 24.491 9.16445L24.9322 9.26745C25.1194 9.31237 25.25 9.4743 25.25 9.66136C25.25 9.69546 25.2456 9.728 25.2369 9.76204L24.9828 10.7842C24.9326 10.9612 24.767 11.084 24.5793 11.084C24.5495 11.084 24.5196 11.0805 24.4874 11.0735L23.994 10.965C23.9433 10.9539 23.8813 10.9412 23.8334 10.9313L23.8327 10.9312L23.796 10.9236C23.1273 10.8043 22.4643 10.7714 21.8251 10.8252C20.5849 10.9302 19.1058 11.2803 19.0999 12.3528C19.0975 12.7652 19.0939 13.5329 21.1592 13.6929C21.4161 13.7126 21.7132 13.7289 22.0274 13.7459Z" fill="#15034C"/>
<path fill-rule="evenodd" clip-rule="evenodd" d="M62.5068 20.9613L55.5467 9.51953C55.3902 9.25229 55.0457 9.07959 54.6686 9.07959C54.3058 9.07959 53.9689 9.24882 53.7889 9.52225L47.6312 19.7227C47.6292 19.7246 47.6276 19.727 47.626 19.7297L46.8749 20.9617C46.8479 21.0071 46.8335 21.0593 46.8335 21.1124C46.8335 21.2693 46.9586 21.399 47.1131 21.4013L48.5515 21.4032H48.5679C48.7196 21.4032 48.8581 21.325 48.9394 21.1937L50.6336 18.3551C50.6503 18.3276 50.6862 18.3125 50.7168 18.3195C52.0406 18.6309 53.3934 18.7885 54.7375 18.7885C56.0505 18.7885 57.3747 18.6371 58.6726 18.3389C58.7052 18.3319 58.7379 18.3455 58.755 18.3737L59.9779 20.3808C59.9791 20.3831 59.9803 20.3854 59.9815 20.3874L60.4716 21.1945C60.5524 21.3254 60.6912 21.4036 60.8432 21.4036L62.2699 21.4017C62.4237 21.3994 62.5487 21.27 62.5487 21.1128C62.5493 21.0593 62.5344 21.0074 62.5068 20.9613ZM57.5846 16.6475C56.6376 16.8164 55.6794 16.902 54.7371 16.902C53.7618 16.902 52.771 16.8106 51.7925 16.6297C51.7674 16.6251 51.7463 16.608 51.7359 16.5844C51.7256 16.5607 51.7271 16.5332 51.7407 16.5112L54.6037 11.7581C54.6176 11.7353 54.6427 11.721 54.669 11.7206C54.6961 11.7206 54.7204 11.7345 54.7347 11.7578L57.6367 16.5286C57.6503 16.5507 57.6522 16.5782 57.6415 16.6018C57.6312 16.6262 57.6096 16.6432 57.5846 16.6475Z" fill="#15034C"/>
<path fill-rule="evenodd" clip-rule="evenodd" d="M15.6738 20.9615L8.71365 9.52008C8.55716 9.25284 8.21265 9.08008 7.83552 9.08008C7.4727 9.08008 7.13578 9.24936 6.95578 9.5228L0.798085 19.7233C0.796099 19.7252 0.794507 19.7276 0.792909 19.7302L0.0418156 20.9619C0.014735 21.0072 0 21.0595 0 21.1126C0 21.2694 0.125049 21.3992 0.279568 21.4015L1.71804 21.4034H1.73437C1.8861 21.4034 2.02469 21.3252 2.10593 21.1939L3.80008 18.3553C3.81681 18.3278 3.85264 18.3127 3.88331 18.3197C5.20709 18.6311 6.55992 18.7887 7.90404 18.7887C9.21705 18.7887 10.5412 18.6373 11.8391 18.3391C11.8718 18.3321 11.9044 18.3456 11.9216 18.3739L13.1446 20.3809C13.1449 20.382 13.1454 20.3831 13.1459 20.3842C13.1465 20.3854 13.1471 20.3865 13.1477 20.3875L13.6384 21.1947C13.7188 21.3256 13.8578 21.4038 14.0095 21.4038L15.4365 21.4019C15.5902 21.3996 15.7152 21.2702 15.7152 21.1129C15.7156 21.0595 15.7013 21.0076 15.6738 20.9615ZM10.7511 16.6477C9.80404 16.8166 8.8459 16.9021 7.90362 16.9021C6.92831 16.9021 5.9375 16.8108 4.95898 16.6298C4.93389 16.6252 4.91279 16.6082 4.90243 16.5846C4.89207 16.5609 4.89367 16.5334 4.90721 16.5113L7.77024 11.7583C7.78418 11.7355 7.80925 11.7211 7.83552 11.7208C7.86263 11.7208 7.88687 11.7347 7.90123 11.7579L10.8033 16.5288C10.8168 16.5509 10.8188 16.5784 10.808 16.602C10.7977 16.6264 10.7766 16.6434 10.7511 16.6477Z" fill="#15034C"/>
<path d="M72.7261 14.3253C71.4437 13.8954 69.9117 13.8125 68.6784 13.7459C68.3642 13.7289 68.0674 13.7126 67.81 13.6929C65.7449 13.5329 65.7485 12.7652 65.7509 12.3528C65.7568 11.2803 67.2362 10.9302 68.4761 10.8252C69.1152 10.7714 69.7783 10.8043 70.4467 10.9236C70.4952 10.9337 70.5796 10.9507 70.6448 10.965L71.1379 11.0735C71.1702 11.0805 71.2001 11.084 71.23 11.084C71.4179 11.084 71.5831 10.9612 71.6334 10.7842L71.8877 9.76204C71.8961 9.728 71.9009 9.69546 71.9009 9.66136C71.9009 9.4743 71.7698 9.31237 71.5831 9.26745L71.1415 9.16445C71.0888 9.15322 71.0128 9.13852 70.9165 9.12028C70.0278 8.9565 69.1421 8.91035 68.284 8.98318C64.1596 9.33217 63.7031 11.4492 63.6983 12.3431C63.6923 13.4209 64.1962 15.2692 67.6341 15.5352C67.9088 15.5565 68.2026 15.5725 68.5216 15.5899L68.5419 15.5911L68.5575 15.5918C71.7184 15.7626 73.3281 16.1135 73.3562 17.5593C73.3658 18.0605 73.2168 18.435 72.8871 18.7383C72.1636 19.4025 70.7286 19.5478 70.2379 19.5478C70.2073 19.5466 70.178 19.5482 70.1517 19.5501L70.1511 19.5501C70.0948 19.5533 67.3199 19.7108 65.1614 18.5764L64.6396 18.2971C64.5767 18.2631 64.5055 18.2448 64.4343 18.2448C64.2805 18.2448 64.1393 18.327 64.0663 18.459L63.5534 19.3975C63.5199 19.4583 63.5032 19.5218 63.5032 19.5865C63.5032 19.7302 63.584 19.8646 63.7126 19.937L64.1184 20.1694C66.2422 21.2887 68.7562 21.4095 69.7388 21.4095C69.9943 21.4095 70.1732 21.4022 70.2546 21.3976C70.6915 21.3956 72.9403 21.3208 74.3424 20.0424C75.0588 19.3885 75.4274 18.5191 75.4082 17.5272C75.3879 16.4702 74.9062 15.0562 72.7261 14.3253Z" fill="#15034C"/>
</svg>
