<?xml version="1.0" encoding="UTF-8"?>
<svg width="17px" height="17px" viewBox="0 0 17 17" version="1.1" xmlns="http://www.w3.org/2000/svg" xmlns:xlink="http://www.w3.org/1999/xlink">
    <!-- Generator: sketchtool 53.2 (72643) - https://sketchapp.com -->
    <title>1322D2F0-8D56-4FB3-8DAE-610A55430306</title>
    <desc>Created with sketchtool.</desc>
    <g id="CloudFox" stroke="none" stroke-width="1" fill="none" fill-rule="evenodd">
        <g id="0.0-Login" transform="translate(-540.000000, -598.000000)" fill="#4E7CD0">
            <g id="login-with-facebook" transform="translate(521.000000, 580.000000)">
                <path d="M33.874595,18.000464 L21.125348,18.000464 C19.956734,18.000464 19.000312,18.956734 19.000312,20.12569 L19.000312,32.874367 C19.000312,34.043323 19.956734,34.999593 21.125348,34.999593 L27.573435,34.999593 L27.573435,28.904393 L25.537794,28.904393 L25.537794,26.24901 L27.573435,26.24901 L27.573435,24.91863 C27.573435,22.86815 29.087583,21.26189 31.020472,21.26189 L32.896836,21.26189 L32.896836,24.260565 L31.218281,24.260565 C30.778735,24.260565 30.649782,24.512543 30.649782,24.861212 L30.649782,26.24901 L32.896836,26.24901 L32.896836,28.904393 L30.649782,28.904393 L30.649782,34.999593 L33.874595,34.999593 C35.043722,34.999593 35.999384,34.043323 35.999384,32.874367 L35.999384,20.12569 C35.999384,18.956734 35.043722,18.000464 33.874595,18.000464 Z" id="facebook-icon"></path>
            </g>
        </g>
    </g>
</svg>