<svg width="17" height="21" viewBox="0 0 17 21" fill="none" xmlns="http://www.w3.org/2000/svg">
<path d="M8.5 0C8.91421 0 9.25 0.335786 9.25 0.75V2.0033H11.25C12.2165 2.0033 13 2.7868 13 3.7533V9.0033H15.25C16.2165 9.0033 17 9.7868 17 10.7533V18.2533C17 19.2198 16.2165 20.0033 15.25 20.0033H6.25452L6.25 20.0033H1.75C0.783502 20.0033 0 19.2198 0 18.2533V9.82392C0 9.20503 0.326894 8.63216 0.859717 8.3173L4 6.46166V3.7533C4 2.7868 4.7835 2.0033 5.75 2.0033H7.75V0.75C7.75 0.335786 8.08579 0 8.5 0ZM5.5 6.02174C6.3097 6.14174 7 6.82833 7 7.75572V18.5033H10V10.7533C10 9.87168 10.6519 9.14233 11.5 9.02102V3.7533C11.5 3.61522 11.3881 3.5033 11.25 3.5033H8.50942L8.5 3.50335L8.49058 3.5033H5.75C5.61193 3.5033 5.5 3.61522 5.5 3.7533V6.02174ZM11.75 10.5033C11.6119 10.5033 11.5 10.6152 11.5 10.7533V18.5033H15.25C15.3881 18.5033 15.5 18.3914 15.5 18.2533V10.7533C15.5 10.6152 15.3881 10.5033 15.25 10.5033H11.75ZM5.12282 7.54049L1.62282 9.60869C1.5467 9.65367 1.5 9.73551 1.5 9.82392V18.2533C1.5 18.3914 1.61193 18.5033 1.75 18.5033H5.5V7.75572C5.5 7.56214 5.28947 7.44201 5.12282 7.54049Z" fill="#2E85EC"/>
</svg>
