<svg width="22" height="22" viewBox="0 0 22 22" fill="none" xmlns="http://www.w3.org/2000/svg">
<path d="M13.8493 2.54282C13.5098 2.16642 12.9243 2.15141 12.566 2.50991L2.50924 12.5709C2.15392 12.9263 2.1652 13.5061 2.53408 13.8474L3.67999 14.9079C3.71107 14.9366 3.76635 14.9668 3.87395 14.9713C3.98614 14.976 4.12668 14.95 4.26898 14.8921C4.57636 14.7671 4.91202 14.6985 5.26214 14.6985C6.71946 14.6985 7.90085 15.8805 7.90085 17.3385C7.90085 17.6162 7.85778 17.885 7.7775 18.138C7.73092 18.2847 7.71589 18.4272 7.72933 18.539C7.74222 18.6461 7.77658 18.699 7.80763 18.7277L8.6573 19.514C9.00414 19.835 9.54177 19.8269 9.87886 19.4957L19.4851 10.0571C19.8236 9.72447 19.8399 9.18406 19.522 8.83168L18.6261 7.8385C18.5985 7.80787 18.5478 7.77371 18.4452 7.75846C18.3382 7.74256 18.2007 7.75266 18.0566 7.79297C17.8294 7.85655 17.5905 7.89035 17.3447 7.89035C15.8873 7.89035 14.7059 6.70842 14.7059 5.25044C14.7059 4.9093 14.7709 4.58184 14.8898 4.28085C14.9446 4.14205 14.9687 4.0066 14.9638 3.89871C14.9592 3.79528 14.9304 3.74141 14.9028 3.71075L13.8493 2.54282ZM11.6821 1.62567C12.5464 0.761053 13.9584 0.79726 14.7772 1.70504L15.8307 2.87297C16.3595 3.45925 16.2461 4.24955 16.0523 4.74028C15.9903 4.89739 15.9559 5.06914 15.9559 5.25044C15.9559 6.0178 16.5776 6.63987 17.3447 6.63987C17.4756 6.63987 17.6013 6.62192 17.7199 6.58871C18.2272 6.44676 19.025 6.41423 19.5541 7.00072L20.4499 7.9939C21.2165 8.84376 21.1773 10.1471 20.3609 10.9492L10.7547 20.3879C9.9417 21.1867 8.64504 21.2061 7.80856 20.432L6.95889 19.6457C6.3638 19.095 6.42348 18.2723 6.58618 17.7596C6.62808 17.6275 6.65093 17.4863 6.65093 17.3385C6.65093 16.5711 6.02915 15.949 5.26214 15.949C5.07611 15.949 4.9001 15.9853 4.73964 16.0505C4.24104 16.2533 3.42614 16.3764 2.83125 15.8259L1.68534 14.7654C0.795683 13.9421 0.768479 12.5439 1.62543 11.6866L11.6821 1.62567Z" fill="#2E85EC"/>
<path d="M13.8493 2.54282L14.0349 2.37537V2.37537L13.8493 2.54282ZM12.566 2.50991L12.3891 2.33317L12.566 2.50991ZM2.50924 12.5709L2.68606 12.7476H2.68606L2.50924 12.5709ZM2.53408 13.8474L2.36428 14.0309H2.36428L2.53408 13.8474ZM3.67999 14.9079L3.8498 14.7244H3.8498L3.67999 14.9079ZM3.87395 14.9713L3.86347 15.2211H3.86347L3.87395 14.9713ZM4.26898 14.8921L4.1748 14.6605H4.1748L4.26898 14.8921ZM7.7775 18.138L8.01579 18.2136L7.7775 18.138ZM7.72933 18.539L7.48112 18.5688L7.72933 18.539ZM7.80763 18.7277L7.63783 18.9112L7.63783 18.9112L7.80763 18.7277ZM8.6573 19.514L8.4875 19.6975L8.6573 19.514ZM9.87886 19.4957L10.0541 19.674H10.0541L9.87886 19.4957ZM19.4851 10.0571L19.3099 9.87874L19.4851 10.0571ZM19.522 8.83168L19.3364 8.99913V8.99913L19.522 8.83168ZM18.6261 7.8385L18.4405 8.00595V8.00595L18.6261 7.8385ZM18.4452 7.75846L18.4085 8.00575L18.4452 7.75846ZM18.0566 7.79297L18.124 8.03373H18.124L18.0566 7.79297ZM14.8898 4.28085L15.1223 4.37267V4.37267L14.8898 4.28085ZM14.9638 3.89871L15.2136 3.88747V3.88746L14.9638 3.89871ZM14.9028 3.71075L14.7171 3.8782L14.9028 3.71075ZM11.6821 1.62567L11.5053 1.44893V1.44893L11.6821 1.62567ZM14.7772 1.70504L14.9628 1.53759V1.53759L14.7772 1.70504ZM15.8307 2.87297L15.6451 3.04042V3.04042L15.8307 2.87297ZM16.0523 4.74028L15.8198 4.64847V4.64847L16.0523 4.74028ZM17.7199 6.58871L17.6526 6.34796H17.6526L17.7199 6.58871ZM19.5541 7.00072L19.3684 7.16817V7.16817L19.5541 7.00072ZM20.4499 7.9939L20.6356 7.82645V7.82645L20.4499 7.9939ZM20.3609 10.9492L20.5361 11.1276L20.3609 10.9492ZM10.7547 20.3879L10.9299 20.5662L10.7547 20.3879ZM7.80856 20.432L7.63875 20.6155L7.80856 20.432ZM6.95889 19.6457L6.78909 19.8292L6.95889 19.6457ZM6.58618 17.7596L6.82447 17.8352L6.58618 17.7596ZM4.73964 16.0505L4.64546 15.819H4.64546L4.73964 16.0505ZM2.83125 15.8259L2.66145 16.0094L2.83125 15.8259ZM1.68534 14.7654L1.85514 14.5819L1.85514 14.5819L1.68534 14.7654ZM1.62543 11.6866L1.80225 11.8634L1.62543 11.6866ZM14.0349 2.37537C13.5995 1.89269 12.8487 1.87343 12.3891 2.33317L12.7428 2.68665C12.9999 2.42939 13.42 2.44016 13.6636 2.71027L14.0349 2.37537ZM12.3891 2.33317L2.33243 12.3941L2.68606 12.7476L12.7428 2.68665L12.3891 2.33317ZM2.33243 12.3941C1.87683 12.8499 1.89129 13.5932 2.36428 14.0309L2.70388 13.664C2.43911 13.4189 2.43101 13.0028 2.68606 12.7476L2.33243 12.3941ZM2.36428 14.0309L3.51019 15.0914L3.8498 14.7244L2.70388 13.664L2.36428 14.0309ZM3.51019 15.0914C3.59357 15.1685 3.70968 15.2146 3.86347 15.2211L3.88444 14.7215C3.8519 14.7202 3.83805 14.7154 3.83612 14.7146C3.83522 14.7143 3.83667 14.7148 3.83967 14.7166C3.84273 14.7185 3.84624 14.7211 3.8498 14.7244L3.51019 15.0914ZM3.86347 15.2211C4.01854 15.2276 4.19495 15.1921 4.36315 15.1237L4.1748 14.6605C4.05842 14.7078 3.95375 14.7244 3.88444 14.7215L3.86347 15.2211ZM4.36315 15.1237C4.64114 15.0106 4.94486 14.9485 5.26214 14.9485V14.4485C4.87919 14.4485 4.51158 14.5236 4.1748 14.6605L4.36315 15.1237ZM5.26214 14.9485C6.58128 14.9485 7.65085 16.0184 7.65085 17.3385H8.15085C8.15085 15.7425 6.85764 14.4485 5.26214 14.4485V14.9485ZM7.65085 17.3385C7.65085 17.5902 7.61182 17.8335 7.53921 18.0623L8.01579 18.2136C8.10374 17.9364 8.15085 17.6421 8.15085 17.3385H7.65085ZM7.53921 18.0623C7.4842 18.2357 7.46256 18.4145 7.48112 18.5688L7.97754 18.5091C7.96921 18.4399 7.97763 18.3338 8.01579 18.2136L7.53921 18.0623ZM7.48112 18.5688C7.49952 18.7218 7.55445 18.834 7.63783 18.9112L7.97744 18.5442C7.981 18.5475 7.98389 18.5508 7.986 18.5537C7.98809 18.5566 7.98865 18.558 7.98823 18.5571C7.98734 18.5551 7.98145 18.5416 7.97754 18.5091L7.48112 18.5688ZM7.63783 18.9112L8.4875 19.6975L8.8271 19.3305L7.97744 18.5442L7.63783 18.9112ZM8.4875 19.6975C8.93229 20.1091 9.6218 20.0988 10.0541 19.674L9.70365 19.3174C9.46175 19.5551 9.07599 19.5608 8.8271 19.3305L8.4875 19.6975ZM10.0541 19.674L19.6603 10.2354L19.3099 9.87874L9.70365 19.3174L10.0541 19.674ZM19.6603 10.2354C20.0943 9.80893 20.1152 9.11605 19.7076 8.66423L19.3364 8.99913C19.5645 9.25207 19.5528 9.64002 19.3099 9.87874L19.6603 10.2354ZM19.7076 8.66423L18.8118 7.67105L18.4405 8.00595L19.3364 8.99913L19.7076 8.66423ZM18.8118 7.67105C18.7376 7.58881 18.6295 7.5331 18.482 7.51118L18.4085 8.00575C18.439 8.01029 18.4516 8.01614 18.4532 8.01694C18.454 8.01731 18.4526 8.01668 18.4498 8.01457C18.4469 8.01243 18.4437 8.00953 18.4405 8.00595L18.8118 7.67105ZM18.482 7.51118C18.3331 7.48906 18.1596 7.50456 17.9893 7.55222L18.124 8.03373C18.2418 8.00077 18.3432 7.99605 18.4085 8.00575L18.482 7.51118ZM17.9893 7.55222C17.7838 7.60972 17.5675 7.64035 17.3447 7.64035V8.14035C17.6135 8.14035 17.8751 8.10338 18.124 8.03373L17.9893 7.55222ZM17.3447 7.64035C16.0255 7.64035 14.9559 6.57046 14.9559 5.25044H14.4559C14.4559 6.84639 15.7492 8.14035 17.3447 8.14035V7.64035ZM14.9559 5.25044C14.9559 4.94124 15.0148 4.6449 15.1223 4.37267L14.6573 4.18904C14.5271 4.51878 14.4559 4.87736 14.4559 5.25044H14.9559ZM15.1223 4.37267C15.1872 4.20837 15.2203 4.03759 15.2136 3.88747L14.7141 3.90995C14.717 3.97561 14.702 4.07572 14.6573 4.18904L15.1223 4.37267ZM15.2136 3.88746C15.2069 3.73869 15.1626 3.62552 15.0884 3.5433L14.7171 3.8782C14.7139 3.87464 14.7114 3.87115 14.7096 3.86812C14.7077 3.86514 14.7073 3.86367 14.7076 3.86445C14.7082 3.86612 14.7127 3.87918 14.7141 3.90995L15.2136 3.88746ZM15.0884 3.5433L14.0349 2.37537L13.6636 2.71027L14.7171 3.8782L15.0884 3.5433ZM11.859 1.80241C12.622 1.03904 13.8686 1.071 14.5916 1.87249L14.9628 1.53759C14.0481 0.523524 12.4708 0.48307 11.5053 1.44893L11.859 1.80241ZM14.5916 1.87249L15.6451 3.04042L16.0163 2.70553L14.9628 1.53759L14.5916 1.87249ZM15.6451 3.04042C16.0781 3.52053 16.0007 4.19015 15.8198 4.64847L16.2848 4.8321C16.4914 4.30895 16.6409 3.39796 16.0163 2.70553L15.6451 3.04042ZM15.8198 4.64847C15.7464 4.83434 15.7059 5.03721 15.7059 5.25044H16.2059C16.2059 5.10108 16.2341 4.96045 16.2848 4.8321L15.8198 4.64847ZM15.7059 5.25044C15.7059 6.15576 16.4395 6.88987 17.3447 6.88987V6.38987C16.7158 6.38987 16.2059 5.87984 16.2059 5.25044H15.7059ZM17.3447 6.88987C17.4986 6.88987 17.6469 6.86874 17.7873 6.82946L17.6526 6.34796C17.5556 6.37509 17.4526 6.38987 17.3447 6.38987V6.88987ZM17.7873 6.82946C18.2613 6.69683 18.9352 6.68794 19.3684 7.16817L19.7397 6.83327C19.1148 6.14052 18.1932 6.19669 17.6526 6.34796L17.7873 6.82946ZM19.3684 7.16817L20.2643 8.16135L20.6356 7.82645L19.7397 6.83327L19.3684 7.16817ZM20.2643 8.16135C20.9412 8.91177 20.9065 10.0627 20.1857 10.7709L20.5361 11.1276C21.448 10.2316 21.4919 8.77575 20.6356 7.82645L20.2643 8.16135ZM20.1857 10.7709L10.5795 20.2096L10.9299 20.5662L20.5361 11.1276L20.1857 10.7709ZM10.5795 20.2096C9.86168 20.9148 8.71689 20.9319 7.97836 20.2485L7.63875 20.6155C8.57319 21.4802 10.0217 21.4585 10.9299 20.5662L10.5795 20.2096ZM7.97836 20.2485L7.12869 19.4622L6.78909 19.8292L7.63875 20.6155L7.97836 20.2485ZM7.12869 19.4622C6.64143 19.0113 6.67208 18.3154 6.82447 17.8352L6.34789 17.6839C6.17488 18.2291 6.08617 19.1787 6.78909 19.8292L7.12869 19.4622ZM6.82447 17.8352C6.87404 17.679 6.90093 17.5122 6.90093 17.3385H6.40093C6.40093 17.4603 6.38212 17.5761 6.34789 17.6839L6.82447 17.8352ZM6.90093 17.3385C6.90093 16.4331 6.16733 15.699 5.26214 15.699V16.199C5.89097 16.199 6.40093 16.7091 6.40093 17.3385H6.90093ZM5.26214 15.699C5.04328 15.699 4.83532 15.7417 4.64546 15.819L4.83381 16.2821C4.96488 16.2288 5.10894 16.199 5.26214 16.199V15.699ZM4.64546 15.819C4.17874 16.0087 3.48808 16.0931 3.00105 15.6424L2.66145 16.0094C3.3642 16.6597 4.30335 16.4978 4.83381 16.2821L4.64546 15.819ZM3.00105 15.6424L1.85514 14.5819L1.51553 14.9489L2.66145 16.0094L3.00105 15.6424ZM1.85514 14.5819C1.0696 13.855 1.04557 12.6204 1.80225 11.8634L1.44862 11.5099C0.49139 12.4675 0.521771 14.0293 1.51553 14.9489L1.85514 14.5819ZM1.80225 11.8634L11.859 1.80241L11.5053 1.44893L1.44862 11.5099L1.80225 11.8634Z" fill="#2E85EC"/>
</svg>
