<svg width="86" height="58" viewBox="0 0 86 58" fill="none" xmlns="http://www.w3.org/2000/svg">
<path fill-rule="evenodd" clip-rule="evenodd" d="M0.319824 10H5.44278V58H0.319824V10Z" fill="#525252"/>
<path fill-rule="evenodd" clip-rule="evenodd" d="M30.0327 10H35.1557V58H30.0327V10Z" fill="#525252"/>
<path fill-rule="evenodd" clip-rule="evenodd" d="M54.623 10H58.7214V58H54.623V10Z" fill="#525252"/>
<path fill-rule="evenodd" clip-rule="evenodd" d="M63.8442 10H66.918V58H63.8442V10Z" fill="#525252"/>
<path fill-rule="evenodd" clip-rule="evenodd" d="M74.0903 10H77.1641V58H74.0903V10Z" fill="#525252"/>
<path fill-rule="evenodd" clip-rule="evenodd" d="M39.2544 10H49.5003V58H39.2544V10Z" fill="#525252"/>
<path fill-rule="evenodd" clip-rule="evenodd" d="M10.5659 10H24.9102V58H10.5659V10Z" fill="#525252"/>
<circle cx="70.5" cy="10.5" r="10.5" fill="#F3F3F3"/>
<path d="M80.2089 8.79675C80.589 8.42575 80.589 7.82425 80.2089 7.45325C79.8288 7.08225 79.2125 7.08225 78.8323 7.45325L74.6538 11.5315L72.422 9.35325C72.0419 8.98225 71.4256 8.98225 71.0455 9.35325C70.6653 9.72425 70.6653 10.3258 71.0455 10.6968L73.9655 13.5468C74.3457 13.9177 74.962 13.9177 75.3421 13.5468L80.2089 8.79675ZM75.6272 1C70.2514 1 65.8936 5.2533 65.8936 10.5C65.8936 15.7467 70.2514 20 75.6272 20C81.0029 20 85.3608 15.7467 85.3608 10.5C85.3608 5.2533 81.0029 1 75.6272 1ZM67.8403 10.5C67.8403 6.30264 71.3266 2.9 75.6272 2.9C79.9277 2.9 83.4141 6.30264 83.4141 10.5C83.4141 14.6974 79.9277 18.1 75.6272 18.1C71.3266 18.1 67.8403 14.6974 67.8403 10.5Z" fill="#36DB8C"/>
</svg>
