<svg width="36" height="37" viewBox="0 0 36 37" fill="none" xmlns="http://www.w3.org/2000/svg">
<rect x="0.5" y="0.75" width="35" height="35" rx="3.5" fill="#2E85EC" stroke="#2E85EC"/>
<path d="M22.2506 11.4301C21.9994 11.7595 22.0627 12.2301 22.3921 12.4813C24.1804 13.8451 25.25 15.9582 25.25 18.25C25.25 21.986 22.4242 25.062 18.7933 25.4571L19.4697 24.7803C19.7626 24.4874 19.7626 24.0126 19.4697 23.7197C19.2034 23.4534 18.7867 23.4292 18.4931 23.6471L18.409 23.7197L16.409 25.7197C16.1427 25.9859 16.1185 26.4026 16.3364 26.6962L16.409 26.7803L18.409 28.7803C18.7019 29.0732 19.1768 29.0732 19.4697 28.7803C19.7359 28.5141 19.7601 28.0974 19.5423 27.8038L19.4697 27.7197L18.7194 26.9708C23.2154 26.605 26.75 22.8403 26.75 18.25C26.75 15.4853 25.4582 12.9332 23.3017 11.2886C22.9724 11.0374 22.5017 11.1007 22.2506 11.4301ZM16.5303 7.71967C16.2374 8.01256 16.2374 8.48744 16.5303 8.78033L17.2796 9.52923C12.7841 9.8956 9.25 13.6601 9.25 18.25C9.25 20.8945 10.4313 23.3474 12.4308 24.9991C12.7502 25.2629 13.2229 25.2179 13.4867 24.8985C13.7505 24.5792 13.7054 24.1064 13.3861 23.8426C11.7279 22.4729 10.75 20.4422 10.75 18.25C10.75 14.5144 13.5753 11.4386 17.2057 11.043L16.5303 11.7197C16.2374 12.0126 16.2374 12.4874 16.5303 12.7803C16.8232 13.0732 17.2981 13.0732 17.591 12.7803L19.591 10.7803C19.8839 10.4874 19.8839 10.0126 19.591 9.71967L17.591 7.71967C17.2981 7.42678 16.8232 7.42678 16.5303 7.71967Z" fill="white"/>
</svg>
