<?xml version="1.0" encoding="utf-8"?>
<!-- Generator: Adobe Illustrator 25.0.1, SVG Export Plug-In . SVG Version: 6.00 Build 0)  -->
<svg version="1.1" id="Camada_1" xmlns="http://www.w3.org/2000/svg" xmlns:xlink="http://www.w3.org/1999/xlink" x="0px" y="0px"
	 viewBox="0 0 692.6 267.8" style="enable-background:new 0 0 692.6 267.8;" xml:space="preserve">
<style type="text/css">
	.st0{fill:#0D2C54;}
	.st1{fill:#2E85EC;}
</style>
<g>
	<g>
		<g>
			<path class="st0" d="M76,226.1c13.1,0,23.3-2.3,30.7-6.9c7.4-4.6,11.2-11.3,11.2-20c0-8-3.4-14.2-10-18.6
				c-6.7-4.3-16.9-8.2-30.6-11.5c-21.4-5.5-36.8-12.2-46.1-19.9c-9.3-7.8-13.9-18.9-13.9-33.5c0-13.9,5.3-25,15.9-33.3
				c10.6-8.3,26.1-12.4,46.6-12.4c21.1,0,37.6,3.2,49.7,9.5c5.4,2.8,8,7.6,8,14.3c0,4.4-1.3,9.4-4,15.1C118.7,99.6,101.2,95,81,95
				c-23.4,0-35.1,6.7-35.1,20.1c0,7.4,2.8,12.9,8.4,16.7c5.6,3.8,15.7,7.6,30.2,11.4c20.2,5,35.6,11.7,46.1,20.2
				c10.5,8.4,15.7,20.2,15.7,35.3c0,17.4-6.2,30.5-18.7,39.2c-12.5,8.7-29.7,13.1-51.8,13.1c-9.2,0-18.6-1-28.1-3.1
				c-9.5-2.1-17.2-4.6-23.1-7.4c-5.4-2.5-8-7.4-8-14.6c0-5.7,1.3-11,3.8-16.1c6.9,4.9,15.4,8.8,25.7,11.8
				C56.3,224.6,66.3,226.1,76,226.1z"/>
			<path class="st0" d="M166.1,72.9c5.2,0,9.4,1.3,12.6,3.9c3.2,2.6,4.8,6.5,4.8,11.7c0,5.4-1.6,9.3-4.8,11.9
				c-3.2,2.6-7.4,3.9-12.5,3.9c-5,0-9.1-1.3-12.3-3.9c-3.2-2.6-4.8-6.5-4.8-11.7C149,78.2,154.7,72.9,166.1,72.9z M179.9,139.9
				l0,108.4l-27.4,0l0-125.7l9.5,0C174,122.6,179.9,128.4,179.9,139.9z"/>
			<path class="st0" d="M219.6,143.7c3.5-6.2,8.5-11.6,15.1-16.2c6.5-4.6,14.1-6.9,22.8-6.9c15.1,0,22.6,5.7,22.6,17.1
				c0,5.9-1.3,11.5-3.8,17.1c-7.2-5.7-14.8-8.5-22.8-8.5c-13.6,0-24.8,6.4-33.9,19.3l0,82.8l-27.1,0l0-125.5l9.3,0
				c6.5,0,11,1.7,13.4,5C217.6,131.2,219,136.5,219.6,143.7z"/>
			<path class="st0" d="M304.9,72.9c5.2,0,9.4,1.3,12.6,3.9c3.2,2.6,4.8,6.5,4.8,11.7c0,5.4-1.6,9.3-4.8,11.9
				c-3.2,2.6-7.4,3.9-12.5,3.9c-5,0-9.1-1.3-12.3-3.9c-3.2-2.6-4.8-6.5-4.8-11.7C287.8,78.2,293.5,72.9,304.9,72.9z M318.7,139.9
				l0,108.4l-27.4,0l0-125.7l9.5,0C312.7,122.6,318.7,128.4,318.7,139.9z"/>
			<path class="st0" d="M439.9,122.8l0,99.1c0,11.4,1.8,20.2,5.3,26.6l-15.6,0c-10.2,0-15.7-6.9-16.6-20.6
				c-13.2,15.1-28,22.6-44.4,22.6c-13.7,0-24.3-4.3-31.9-12.9c-7.5-8.6-11.3-21.1-11.3-37.5l0-77.3l9.3,0c11.9,0,17.8,5.7,17.8,17.1
				l0,57.5c0,19.4,7.4,29.1,22.1,29.1c8,0,14.9-1.7,20.7-5.1c5.8-3.4,11.5-8.4,17.2-14.9l0-83.6L439.9,122.8z"/>
			<path class="st0" d="M497.7,228.5c17.2,0,25.9-4.9,25.8-14.8c0-4.7-2.4-8.4-7.3-11.3c-4.9-2.8-12.5-5.7-23.1-8.5
				c-5.7-1.7-10-3-12.9-3.9c-2.9-0.9-6.7-2.5-11.3-4.8c-4.6-2.3-8.1-4.6-10.4-6.9c-2.3-2.3-4.4-5.5-6.3-9.5c-1.8-4-2.8-8.5-2.8-13.6
				c0-12,4.5-20.9,13.5-26.5c9-5.6,20.7-8.4,34.9-8.4c15.7,0,28.6,2.3,38.7,6.8c5,2.3,7.5,7,7.5,14.1c0,4.5-0.7,8.4-2,11.5
				c-11.9-6.7-26.4-10-43.4-10c-15.4,0-23.1,4.2-23.1,12.6c0,4.5,2.2,8,6.7,10.4c4.4,2.4,11.3,4.9,20.5,7.4
				c16.2,4.5,28.1,9.6,35.6,15.3c7.5,5.7,11.3,14.2,11.3,25.6c0,12.2-4.5,21.4-13.5,27.6c-9,6.2-21.3,9.3-36.6,9.3
				c-17.6,0-32.2-2.9-43.9-8.8c-4.5-2.5-6.8-6.9-6.8-13.1c0-4.9,0.8-9.4,2.5-13.6C464.6,224.1,480.1,228.5,497.7,228.5z"/>
		</g>
	</g>
	<path class="st1" d="M590.2,36.7l7.2-18c1-2.4,4.3-2.4,5.3,0l7.1,18.1c5.7,14.5,17.1,26,31.6,31.8l18,7.2c2.4,1,2.4,4.3,0,5.3
		l-18.1,7c-14.5,5.7-26,17.1-31.8,31.6l-7.2,18c-1,2.4-4.3,2.4-5.3,0l-7.1-18.1c-5.7-14.5-17.1-26-31.6-31.8l-18-7.2
		c-2.4-1-2.4-4.3,0-5.3l18-7C573,62.6,584.5,51.2,590.2,36.7z"/>
	<path class="st1" d="M648.1,118.6l1.8-4.6c0.8-1.9,3.5-1.9,4.3,0l1.8,4.6c2.5,6.4,7.6,11.5,14,14.1l4.6,1.8c1.9,0.8,1.9,3.5,0,4.3
		l-4.6,1.8c-6.4,2.5-11.5,7.6-14.1,14l-1.8,4.6c-0.8,1.9-3.5,1.9-4.3,0l-1.8-4.6c-2.5-6.4-7.6-11.5-14-14.1l-4.6-1.8
		c-1.9-0.8-1.9-3.5,0-4.3l4.6-1.8C640.5,130.1,645.6,125,648.1,118.6z"/>
</g>
</svg>
