<svg width="19" height="11" viewBox="0 0 19 11" fill="none" xmlns="http://www.w3.org/2000/svg">
<path d="M13.8798 8.22017C13.7228 8.22017 13.5693 8.1723 13.4387 8.08263C13.3081 7.99296 13.2063 7.8655 13.1462 7.71638C13.0861 7.56725 13.0704 7.40316 13.101 7.24486C13.1317 7.08655 13.2073 6.94114 13.3183 6.827C13.4294 6.71287 13.5709 6.63514 13.7249 6.60365C13.879 6.57216 14.0386 6.58833 14.1837 6.65009C14.3288 6.71186 14.4528 6.81646 14.5401 6.95067C14.6274 7.08488 14.6739 7.24266 14.6739 7.40407C14.6739 7.62051 14.5903 7.82809 14.4413 7.98114C14.2924 8.13419 14.0904 8.22017 13.8798 8.22017ZM5.1367 8.22017C4.97965 8.22017 4.82612 8.1723 4.69553 8.08263C4.56494 7.99296 4.46317 7.8655 4.40306 7.71638C4.34296 7.56725 4.32724 7.40316 4.35788 7.24486C4.38852 7.08655 4.46415 6.94114 4.5752 6.827C4.68626 6.71287 4.82775 6.63514 4.98178 6.60365C5.13582 6.57216 5.29548 6.58833 5.44058 6.65009C5.58568 6.71186 5.7097 6.81646 5.79695 6.95067C5.88421 7.08488 5.93078 7.24266 5.93078 7.40407C5.93078 7.62051 5.84712 7.82809 5.6982 7.98114C5.54928 8.13419 5.3473 8.22017 5.1367 8.22017ZM14.1611 3.32358L15.7492 0.509745C15.7707 0.471217 15.7845 0.428716 15.7899 0.384686C15.7953 0.340655 15.7922 0.295962 15.7807 0.253173C15.7693 0.210384 15.7497 0.170343 15.7231 0.13535C15.6966 0.100358 15.6635 0.0711024 15.6259 0.0492653C15.5884 0.0274282 15.5469 0.0134396 15.5041 0.00810309C15.4612 0.00276656 15.4177 0.00618727 15.3762 0.0181687C15.3346 0.0301501 15.2957 0.0504561 15.2618 0.0779202C15.2279 0.105384 15.1996 0.139465 15.1785 0.178206L13.5738 3.02605C12.2993 2.42749 10.9137 2.12006 9.51241 2.12494C8.1095 2.12141 6.72203 2.42573 5.44275 3.01755L3.83805 0.169705C3.79504 0.0923793 3.72399 0.0357041 3.64043 0.0120738C3.55687 -0.0115564 3.46761 -0.000218677 3.39216 0.0436075C3.31671 0.0874337 3.26122 0.160182 3.23783 0.245942C3.21443 0.331702 3.22503 0.423494 3.26731 0.501244L4.84719 3.31508C3.48116 4.08075 2.32251 5.18448 1.47615 6.52635C0.629778 7.86821 0.12242 9.40583 0 11H19C18.8813 9.40696 18.3763 7.86983 17.5311 6.52892C16.6858 5.18802 15.5272 4.08604 14.1611 3.32358Z" fill="#636363"/>
</svg>
