<svg width="21" height="22" viewBox="0 0 21 22" fill="none" xmlns="http://www.w3.org/2000/svg">
<path d="M9.77024 2.7431C12.1117 0.399509 15.9106 0.399509 18.2538 2.74266C20.5369 5.02572 20.5954 8.69093 18.4294 11.0449L18.2413 11.2422L9.44124 20.0404L9.40474 20.0707C7.94346 21.3875 5.68946 21.3427 4.28208 19.9353C2.96306 18.6163 2.84095 16.5536 3.91574 15.0969C3.93908 15.0516 3.96732 15.0078 4.00054 14.9667L4.0541 14.907L4.14101 14.8193L4.28208 14.6714L4.28501 14.6743L11.7207 7.21998C11.9866 6.95336 12.4032 6.9286 12.6971 7.14607L12.7814 7.21857C13.048 7.48449 13.0727 7.90112 12.8553 8.19502L12.7828 8.27923L5.1882 15.8923C4.47056 16.7679 4.52044 18.0622 5.33784 18.8796C6.1669 19.7087 7.48655 19.7481 8.36234 18.998L17.195 10.1676C18.9505 8.40992 18.9505 5.56068 17.1931 3.80332C15.4907 2.10087 12.7635 2.04767 10.9971 3.64371L10.8292 3.80332L10.8166 3.81763L1.28033 13.354C0.987435 13.6468 0.512565 13.6468 0.219665 13.354C-0.0465948 13.0877 -0.0708047 12.671 0.147055 12.3774L0.219665 12.2933L9.76854 2.74266L9.77024 2.7431Z" fill="#636363"/>
</svg>
