<svg width="24" height="24" viewBox="0 0 24 24" fill="none" xmlns="http://www.w3.org/2000/svg">
<path d="M3.9 1.8C2.7402 1.8 1.8 2.7402 1.8 3.9V7.5C1.8 7.99705 1.39705 8.4 0.9 8.4C0.402948 8.4 0 7.99705 0 7.5V3.9C0 1.74608 1.74608 0 3.9 0H7.5C7.99705 0 8.4 0.402948 8.4 0.9C8.4 1.39705 7.99705 1.8 7.5 1.8H3.9ZM3.9 22.2C2.7402 22.2 1.8 21.2598 1.8 20.1V16.5C1.8 16.003 1.39705 15.6 0.9 15.6C0.402948 15.6 0 16.003 0 16.5V20.1C0 22.2539 1.74608 24 3.9 24H7.5C7.99705 24 8.4 23.597 8.4 23.1C8.4 22.603 7.99705 22.2 7.5 22.2H3.9ZM22.2 3.9C22.2 2.7402 21.2598 1.8 20.1 1.8H16.5C16.003 1.8 15.6 1.39705 15.6 0.9C15.6 0.402948 16.003 0 16.5 0H20.1C22.2539 0 24 1.74608 24 3.9V7.5C24 7.99705 23.597 8.4 23.1 8.4C22.603 8.4 22.2 7.99705 22.2 7.5V3.9ZM20.1 22.2C21.2598 22.2 22.2 21.2598 22.2 20.1V16.5C22.2 16.003 22.603 15.6 23.1 15.6C23.597 15.6 24 16.003 24 16.5V20.1C24 22.2539 22.2539 24 20.1 24H16.5C16.003 24 15.6 23.597 15.6 23.1C15.6 22.603 16.003 22.2 16.5 22.2H20.1ZM6.9 4.8C6.40295 4.8 6 5.20295 6 5.7V7.2C6 7.69705 6.40295 8.1 6.9 8.1C7.39705 8.1 7.8 7.69705 7.8 7.2V6.6H11.1V17.4H9.3C8.80295 17.4 8.4 17.803 8.4 18.3C8.4 18.797 8.80295 19.2 9.3 19.2H14.7C15.197 19.2 15.6 18.797 15.6 18.3C15.6 17.803 15.197 17.4 14.7 17.4H12.9V6.6H16.2V7.2C16.2 7.69705 16.603 8.1 17.1 8.1C17.597 8.1 18 7.69705 18 7.2V5.7C18 5.20295 17.597 4.8 17.1 4.8H6.9Z" fill="#636363"/>
</svg>
