<svg width="12" height="19" viewBox="0 0 12 19" fill="none" xmlns="http://www.w3.org/2000/svg">
<path d="M9.73828 15.1484C10.5991 15.1484 11.2969 15.8462 11.2969 16.707C11.2969 17.5678 10.5991 18.2656 9.73828 18.2656C8.87749 18.2656 8.17969 17.5678 8.17969 16.707C8.17969 15.8462 8.87749 15.1484 9.73828 15.1484ZM2.46484 15.1484C3.32563 15.1484 4.02344 15.8462 4.02344 16.707C4.02344 17.5678 3.32563 18.2656 2.46484 18.2656C1.60406 18.2656 0.90625 17.5678 0.90625 16.707C0.90625 15.8462 1.60406 15.1484 2.46484 15.1484ZM9.73828 7.875C10.5991 7.875 11.2969 8.57281 11.2969 9.43359C11.2969 10.2944 10.5991 10.9922 9.73828 10.9922C8.87749 10.9922 8.17969 10.2944 8.17969 9.43359C8.17969 8.57281 8.87749 7.875 9.73828 7.875ZM2.46484 7.875C3.32563 7.875 4.02344 8.57281 4.02344 9.43359C4.02344 10.2944 3.32563 10.9922 2.46484 10.9922C1.60406 10.9922 0.90625 10.2944 0.90625 9.43359C0.90625 8.57281 1.60406 7.875 2.46484 7.875ZM9.73828 0.601562C10.5991 0.601562 11.2969 1.29937 11.2969 2.16016C11.2969 3.02094 10.5991 3.71875 9.73828 3.71875C8.87749 3.71875 8.17969 3.02094 8.17969 2.16016C8.17969 1.29937 8.87749 0.601562 9.73828 0.601562ZM2.46484 0.601562C3.32563 0.601562 4.02344 1.29937 4.02344 2.16016C4.02344 3.02094 3.32563 3.71875 2.46484 3.71875C1.60406 3.71875 0.90625 3.02094 0.90625 2.16016C0.90625 1.29937 1.60406 0.601562 2.46484 0.601562Z" fill="#868686"/>
</svg>
