<?xml version="1.0" encoding="UTF-8"?>
<svg width="31px" height="31px" viewBox="0 0 31 31" version="1.1" xmlns="http://www.w3.org/2000/svg" xmlns:xlink="http://www.w3.org/1999/xlink">
    <!-- Generator: sketchtool 53.2 (72643) - https://sketchapp.com -->
    <title>E36EA96C-3A52-429A-80C6-58ABBC5A6A89</title>
    <desc>Created with sketchtool.</desc>
    <defs>
        <path d="M15.400035,6.66133815e-16 C23.90514,6.66133815e-16 30.80007,6.895105 30.80007,15.399825 C30.80007,23.905595 23.90514,30.800175 15.400035,30.800175 C6.89493,30.800175 -2.77555756e-14,23.905595 -2.77555756e-14,15.399825 C-2.77555756e-14,6.895105 6.89493,6.66133815e-16 15.400035,6.66133815e-16 Z M15.400035,2.88631 C8.49107,2.88631 2.890545,8.48904 2.890545,15.399825 C2.890545,22.311135 8.49107,27.91439 15.400035,27.91439 C22.30865,27.91439 27.909175,22.311135 27.909175,15.399825 C27.909175,8.48904 22.30865,2.88631 15.400035,2.88631 Z M20.25646,17.648575 C20.25646,18.57254 19.945695,19.31909 19.32385,19.888155 C18.70204,20.458305 17.882725,20.81429 16.865625,20.958315 L16.865625,23.236185 L14.815955,23.236185 L14.815955,20.943195 C14.086205,20.829935 13.38491,20.629805 12.71235,20.342875 C12.038705,20.05535 11.44598,19.69611 10.93204,19.265155 L12.02649,17.063865 C12.570635,17.54662 13.21551,17.941455 13.960695,18.249455 C14.70518,18.556895 15.36514,18.711175 15.94061,18.711175 C16.362115,18.711175 16.693355,18.634595 16.93468,18.47979 C17.176355,18.326595 17.29686,18.100565 17.29686,17.80282 C17.29686,17.556315 17.206945,17.351355 17.027465,17.18738 C16.847635,17.023405 16.62143,16.892855 16.349515,16.79468 C16.0769,16.697065 15.694245,16.58216 15.201165,16.447865 C14.461335,16.24343 13.85027,16.035215 13.36727,15.82539 C12.883535,15.61448 12.47064,15.29626 12.126835,14.87066 C11.78156,14.445095 11.610375,13.87764 11.610375,13.16994 C11.610375,12.307435 11.895555,11.59165 12.46525,11.023145 C13.03568,10.452995 13.81863,10.09106 14.815955,9.93734 L14.815955,7.751695 L16.865625,7.751695 L16.865625,9.90605 C17.48243,9.978325 18.083415,10.114265 18.66858,10.31436 C19.254445,10.51449 19.778465,10.76313 20.24099,11.06091 L19.17713,13.308575 C18.602045,12.969285 17.98811,12.692575 17.33571,12.4768 C16.682925,12.261585 16.13626,12.15424 15.694245,12.15424 C15.345015,12.15424 15.07023,12.21738 14.870275,12.346285 C14.669235,12.474665 14.56889,12.66181 14.56889,12.90779 C14.56889,13.14404 14.656985,13.342 14.831425,13.500585 C15.00548,13.65973 15.222025,13.788635 15.47917,13.885165 C15.73558,13.982815 16.1154,14.1085 16.61926,14.262745 C17.368785,14.477995 17.98811,14.69321 18.47615,14.90895 C18.96384,15.124725 19.38286,15.45537 19.73244,15.901445 C20.081285,16.34808 20.25646,16.93062 20.25646,17.648575 Z" id="path-1"></path>
        <linearGradient x1="0.25781251%" y1="49.7500002%" x2="101.257813%" y2="49.7500002%" id="linearGradient-3">
            <stop stop-color="#3FDA58" stop-opacity="0.994509397" offset="0%"></stop>
            <stop stop-color="#51ECC3" offset="100%"></stop>
        </linearGradient>
    </defs>
    <g id="Symbols" stroke="none" stroke-width="1" fill="none" fill-rule="evenodd">
        <g id="box/resumo" transform="translate(-31.000000, -26.000000)">
            <g id="icon/money">
                <g transform="translate(31.000000, 26.000000)">
                    <g>
                        <mask id="mask-2" fill="white">
                            <use xlink:href="#path-1"></use>
                        </mask>
                        <use id="Mask" fill="#AAAAAA" xlink:href="#path-1"></use>
                        <g id="color/secundary/green-gradient" mask="url(#mask-2)" fill="url(#linearGradient-3)" fill-rule="nonzero">
                            <rect x="0" y="0" width="31" height="31"></rect>
                        </g>
                    </g>
                </g>
            </g>
        </g>
    </g>
</svg>