<svg xmlns="http://www.w3.org/2000/svg" xmlns:xlink="http://www.w3.org/1999/xlink" width="529.162" height="162.523" viewBox="0 0 529.162 162.523">
  <defs>
    <clipPath id="clip-path">
      <rect width="529.162" height="162.523" fill="none"/>
    </clipPath>
  </defs>
  <g id="Repetição_de_grade_9" data-name="Repetição de grade 9" clip-path="url(#clip-path)">
    <g id="Grupo_274" data-name="Grupo 274" transform="translate(-418.5 -141.5)">
      <g id="Grupo_264" data-name="Grupo 264">
        <path id="Caminho_1" data-name="Caminho 1" d="M525.35,691.9l1.261-3.165a.5.5,0,0,1,.927,0l1.239,3.174a9.878,9.878,0,0,0,5.547,5.586l3.165,1.261a.5.5,0,0,1,0,.927l-3.174,1.239a9.881,9.881,0,0,0-5.586,5.547l-1.261,3.165a.5.5,0,0,1-.927,0l-1.24-3.175a9.88,9.88,0,0,0-5.547-5.585l-3.165-1.261a.5.5,0,0,1,0-.927l3.172-1.239A9.886,9.886,0,0,0,525.35,691.9Z" transform="translate(-69.436 -546.418)" fill="none" stroke="rgba(246,246,246,0.45)" stroke-width="1"/>
        <path id="Caminho_2" data-name="Caminho 2" d="M575.874,749.461l.323-.811a.4.4,0,0,1,.749,0l.317.813a4.375,4.375,0,0,0,2.456,2.473l.81.323a.4.4,0,0,1,0,.75l-.812.317a4.375,4.375,0,0,0-2.473,2.456l-.323.81a.4.4,0,0,1-.749,0l-.318-.813a4.374,4.374,0,0,0-2.455-2.472l-.811-.323a.4.4,0,0,1,0-.749l.812-.317A4.375,4.375,0,0,0,575.874,749.461Z" transform="translate(-109.783 -589.587)" fill="none" stroke="rgba(246,246,246,0.45)" stroke-width="1"/>
      </g>
      <g id="Grupo_273" data-name="Grupo 273" transform="translate(54.324)">
        <path id="Caminho_1-2" data-name="Caminho 1" d="M525.35,691.9l1.261-3.165a.5.5,0,0,1,.927,0l1.239,3.174a9.878,9.878,0,0,0,5.547,5.586l3.165,1.261a.5.5,0,0,1,0,.927l-3.174,1.239a9.881,9.881,0,0,0-5.586,5.547l-1.261,3.165a.5.5,0,0,1-.927,0l-1.24-3.175a9.88,9.88,0,0,0-5.547-5.585l-3.165-1.261a.5.5,0,0,1,0-.927l3.172-1.239A9.886,9.886,0,0,0,525.35,691.9Z" transform="translate(-69.436 -546.418)" fill="none" stroke="rgba(246,246,246,0.45)" stroke-width="1"/>
        <path id="Caminho_2-2" data-name="Caminho 2" d="M575.874,749.461l.323-.811a.4.4,0,0,1,.749,0l.317.813a4.375,4.375,0,0,0,2.456,2.473l.81.323a.4.4,0,0,1,0,.75l-.812.317a4.375,4.375,0,0,0-2.473,2.456l-.323.81a.4.4,0,0,1-.749,0l-.318-.813a4.374,4.374,0,0,0-2.455-2.472l-.811-.323a.4.4,0,0,1,0-.749l.812-.317A4.375,4.375,0,0,0,575.874,749.461Z" transform="translate(-109.783 -589.587)" fill="none" stroke="rgba(246,246,246,0.45)" stroke-width="1"/>
      </g>
      <g id="Grupo_272" data-name="Grupo 272" transform="translate(30.162 28.261)">
        <path id="Caminho_1-3" data-name="Caminho 1" d="M525.35,691.9l1.261-3.165a.5.5,0,0,1,.927,0l1.239,3.174a9.878,9.878,0,0,0,5.547,5.586l3.165,1.261a.5.5,0,0,1,0,.927l-3.174,1.239a9.881,9.881,0,0,0-5.586,5.547l-1.261,3.165a.5.5,0,0,1-.927,0l-1.24-3.175a9.88,9.88,0,0,0-5.547-5.585l-3.165-1.261a.5.5,0,0,1,0-.927l3.172-1.239A9.886,9.886,0,0,0,525.35,691.9Z" transform="translate(-69.436 -546.418)" fill="none" stroke="rgba(246,246,246,0.45)" stroke-width="1"/>
        <path id="Caminho_2-3" data-name="Caminho 2" d="M575.874,749.461l.323-.811a.4.4,0,0,1,.749,0l.317.813a4.375,4.375,0,0,0,2.456,2.473l.81.323a.4.4,0,0,1,0,.75l-.812.317a4.375,4.375,0,0,0-2.473,2.456l-.323.81a.4.4,0,0,1-.749,0l-.318-.813a4.374,4.374,0,0,0-2.455-2.472l-.811-.323a.4.4,0,0,1,0-.749l.812-.317A4.375,4.375,0,0,0,575.874,749.461Z" transform="translate(-109.783 -589.587)" fill="none" stroke="rgba(246,246,246,0.45)" stroke-width="1"/>
      </g>
      <g id="Grupo_284" data-name="Grupo 284" transform="translate(88.162 28.261)">
        <path id="Caminho_1-4" data-name="Caminho 1" d="M525.35,691.9l1.261-3.165a.5.5,0,0,1,.927,0l1.239,3.174a9.878,9.878,0,0,0,5.547,5.586l3.165,1.261a.5.5,0,0,1,0,.927l-3.174,1.239a9.881,9.881,0,0,0-5.586,5.547l-1.261,3.165a.5.5,0,0,1-.927,0l-1.24-3.175a9.88,9.88,0,0,0-5.547-5.585l-3.165-1.261a.5.5,0,0,1,0-.927l3.172-1.239A9.886,9.886,0,0,0,525.35,691.9Z" transform="translate(-69.436 -546.418)" fill="none" stroke="rgba(246,246,246,0.45)" stroke-width="1"/>
        <path id="Caminho_2-4" data-name="Caminho 2" d="M575.874,749.461l.323-.811a.4.4,0,0,1,.749,0l.317.813a4.375,4.375,0,0,0,2.456,2.473l.81.323a.4.4,0,0,1,0,.75l-.812.317a4.375,4.375,0,0,0-2.473,2.456l-.323.81a.4.4,0,0,1-.749,0l-.318-.813a4.374,4.374,0,0,0-2.455-2.472l-.811-.323a.4.4,0,0,1,0-.749l.812-.317A4.375,4.375,0,0,0,575.874,749.461Z" transform="translate(-109.783 -589.587)" fill="none" stroke="rgba(246,246,246,0.45)" stroke-width="1"/>
      </g>
    </g>
    <g id="Grupo_274-2" data-name="Grupo 274" transform="translate(-302.5 -141.5)">
      <g id="Grupo_264-2" data-name="Grupo 264">
        <path id="Caminho_1-5" data-name="Caminho 1" d="M525.35,691.9l1.261-3.165a.5.5,0,0,1,.927,0l1.239,3.174a9.878,9.878,0,0,0,5.547,5.586l3.165,1.261a.5.5,0,0,1,0,.927l-3.174,1.239a9.881,9.881,0,0,0-5.586,5.547l-1.261,3.165a.5.5,0,0,1-.927,0l-1.24-3.175a9.88,9.88,0,0,0-5.547-5.585l-3.165-1.261a.5.5,0,0,1,0-.927l3.172-1.239A9.886,9.886,0,0,0,525.35,691.9Z" transform="translate(-69.436 -546.418)" fill="none" stroke="rgba(246,246,246,0.45)" stroke-width="1"/>
        <path id="Caminho_2-5" data-name="Caminho 2" d="M575.874,749.461l.323-.811a.4.4,0,0,1,.749,0l.317.813a4.375,4.375,0,0,0,2.456,2.473l.81.323a.4.4,0,0,1,0,.75l-.812.317a4.375,4.375,0,0,0-2.473,2.456l-.323.81a.4.4,0,0,1-.749,0l-.318-.813a4.374,4.374,0,0,0-2.455-2.472l-.811-.323a.4.4,0,0,1,0-.749l.812-.317A4.375,4.375,0,0,0,575.874,749.461Z" transform="translate(-109.783 -589.587)" fill="none" stroke="rgba(246,246,246,0.45)" stroke-width="1"/>
      </g>
      <g id="Grupo_273-2" data-name="Grupo 273" transform="translate(54.324)">
        <path id="Caminho_1-6" data-name="Caminho 1" d="M525.35,691.9l1.261-3.165a.5.5,0,0,1,.927,0l1.239,3.174a9.878,9.878,0,0,0,5.547,5.586l3.165,1.261a.5.5,0,0,1,0,.927l-3.174,1.239a9.881,9.881,0,0,0-5.586,5.547l-1.261,3.165a.5.5,0,0,1-.927,0l-1.24-3.175a9.88,9.88,0,0,0-5.547-5.585l-3.165-1.261a.5.5,0,0,1,0-.927l3.172-1.239A9.886,9.886,0,0,0,525.35,691.9Z" transform="translate(-69.436 -546.418)" fill="none" stroke="rgba(246,246,246,0.45)" stroke-width="1"/>
        <path id="Caminho_2-6" data-name="Caminho 2" d="M575.874,749.461l.323-.811a.4.4,0,0,1,.749,0l.317.813a4.375,4.375,0,0,0,2.456,2.473l.81.323a.4.4,0,0,1,0,.75l-.812.317a4.375,4.375,0,0,0-2.473,2.456l-.323.81a.4.4,0,0,1-.749,0l-.318-.813a4.374,4.374,0,0,0-2.455-2.472l-.811-.323a.4.4,0,0,1,0-.749l.812-.317A4.375,4.375,0,0,0,575.874,749.461Z" transform="translate(-109.783 -589.587)" fill="none" stroke="rgba(246,246,246,0.45)" stroke-width="1"/>
      </g>
      <g id="Grupo_272-2" data-name="Grupo 272" transform="translate(30.162 28.261)">
        <path id="Caminho_1-7" data-name="Caminho 1" d="M525.35,691.9l1.261-3.165a.5.5,0,0,1,.927,0l1.239,3.174a9.878,9.878,0,0,0,5.547,5.586l3.165,1.261a.5.5,0,0,1,0,.927l-3.174,1.239a9.881,9.881,0,0,0-5.586,5.547l-1.261,3.165a.5.5,0,0,1-.927,0l-1.24-3.175a9.88,9.88,0,0,0-5.547-5.585l-3.165-1.261a.5.5,0,0,1,0-.927l3.172-1.239A9.886,9.886,0,0,0,525.35,691.9Z" transform="translate(-69.436 -546.418)" fill="none" stroke="rgba(246,246,246,0.45)" stroke-width="1"/>
        <path id="Caminho_2-7" data-name="Caminho 2" d="M575.874,749.461l.323-.811a.4.4,0,0,1,.749,0l.317.813a4.375,4.375,0,0,0,2.456,2.473l.81.323a.4.4,0,0,1,0,.75l-.812.317a4.375,4.375,0,0,0-2.473,2.456l-.323.81a.4.4,0,0,1-.749,0l-.318-.813a4.374,4.374,0,0,0-2.455-2.472l-.811-.323a.4.4,0,0,1,0-.749l.812-.317A4.375,4.375,0,0,0,575.874,749.461Z" transform="translate(-109.783 -589.587)" fill="none" stroke="rgba(246,246,246,0.45)" stroke-width="1"/>
      </g>
      <g id="Grupo_284-2" data-name="Grupo 284" transform="translate(88.162 28.261)">
        <path id="Caminho_1-8" data-name="Caminho 1" d="M525.35,691.9l1.261-3.165a.5.5,0,0,1,.927,0l1.239,3.174a9.878,9.878,0,0,0,5.547,5.586l3.165,1.261a.5.5,0,0,1,0,.927l-3.174,1.239a9.881,9.881,0,0,0-5.586,5.547l-1.261,3.165a.5.5,0,0,1-.927,0l-1.24-3.175a9.88,9.88,0,0,0-5.547-5.585l-3.165-1.261a.5.5,0,0,1,0-.927l3.172-1.239A9.886,9.886,0,0,0,525.35,691.9Z" transform="translate(-69.436 -546.418)" fill="none" stroke="rgba(246,246,246,0.45)" stroke-width="1"/>
        <path id="Caminho_2-8" data-name="Caminho 2" d="M575.874,749.461l.323-.811a.4.4,0,0,1,.749,0l.317.813a4.375,4.375,0,0,0,2.456,2.473l.81.323a.4.4,0,0,1,0,.75l-.812.317a4.375,4.375,0,0,0-2.473,2.456l-.323.81a.4.4,0,0,1-.749,0l-.318-.813a4.374,4.374,0,0,0-2.455-2.472l-.811-.323a.4.4,0,0,1,0-.749l.812-.317A4.375,4.375,0,0,0,575.874,749.461Z" transform="translate(-109.783 -589.587)" fill="none" stroke="rgba(246,246,246,0.45)" stroke-width="1"/>
      </g>
    </g>
    <g id="Grupo_274-3" data-name="Grupo 274" transform="translate(-186.5 -141.5)">
      <g id="Grupo_264-3" data-name="Grupo 264">
        <path id="Caminho_1-9" data-name="Caminho 1" d="M525.35,691.9l1.261-3.165a.5.5,0,0,1,.927,0l1.239,3.174a9.878,9.878,0,0,0,5.547,5.586l3.165,1.261a.5.5,0,0,1,0,.927l-3.174,1.239a9.881,9.881,0,0,0-5.586,5.547l-1.261,3.165a.5.5,0,0,1-.927,0l-1.24-3.175a9.88,9.88,0,0,0-5.547-5.585l-3.165-1.261a.5.5,0,0,1,0-.927l3.172-1.239A9.886,9.886,0,0,0,525.35,691.9Z" transform="translate(-69.436 -546.418)" fill="none" stroke="rgba(246,246,246,0.45)" stroke-width="1"/>
        <path id="Caminho_2-9" data-name="Caminho 2" d="M575.874,749.461l.323-.811a.4.4,0,0,1,.749,0l.317.813a4.375,4.375,0,0,0,2.456,2.473l.81.323a.4.4,0,0,1,0,.75l-.812.317a4.375,4.375,0,0,0-2.473,2.456l-.323.81a.4.4,0,0,1-.749,0l-.318-.813a4.374,4.374,0,0,0-2.455-2.472l-.811-.323a.4.4,0,0,1,0-.749l.812-.317A4.375,4.375,0,0,0,575.874,749.461Z" transform="translate(-109.783 -589.587)" fill="none" stroke="rgba(246,246,246,0.45)" stroke-width="1"/>
      </g>
      <g id="Grupo_273-3" data-name="Grupo 273" transform="translate(54.324)">
        <path id="Caminho_1-10" data-name="Caminho 1" d="M525.35,691.9l1.261-3.165a.5.5,0,0,1,.927,0l1.239,3.174a9.878,9.878,0,0,0,5.547,5.586l3.165,1.261a.5.5,0,0,1,0,.927l-3.174,1.239a9.881,9.881,0,0,0-5.586,5.547l-1.261,3.165a.5.5,0,0,1-.927,0l-1.24-3.175a9.88,9.88,0,0,0-5.547-5.585l-3.165-1.261a.5.5,0,0,1,0-.927l3.172-1.239A9.886,9.886,0,0,0,525.35,691.9Z" transform="translate(-69.436 -546.418)" fill="none" stroke="rgba(246,246,246,0.45)" stroke-width="1"/>
        <path id="Caminho_2-10" data-name="Caminho 2" d="M575.874,749.461l.323-.811a.4.4,0,0,1,.749,0l.317.813a4.375,4.375,0,0,0,2.456,2.473l.81.323a.4.4,0,0,1,0,.75l-.812.317a4.375,4.375,0,0,0-2.473,2.456l-.323.81a.4.4,0,0,1-.749,0l-.318-.813a4.374,4.374,0,0,0-2.455-2.472l-.811-.323a.4.4,0,0,1,0-.749l.812-.317A4.375,4.375,0,0,0,575.874,749.461Z" transform="translate(-109.783 -589.587)" fill="none" stroke="rgba(246,246,246,0.45)" stroke-width="1"/>
      </g>
      <g id="Grupo_272-3" data-name="Grupo 272" transform="translate(30.162 28.261)">
        <path id="Caminho_1-11" data-name="Caminho 1" d="M525.35,691.9l1.261-3.165a.5.5,0,0,1,.927,0l1.239,3.174a9.878,9.878,0,0,0,5.547,5.586l3.165,1.261a.5.5,0,0,1,0,.927l-3.174,1.239a9.881,9.881,0,0,0-5.586,5.547l-1.261,3.165a.5.5,0,0,1-.927,0l-1.24-3.175a9.88,9.88,0,0,0-5.547-5.585l-3.165-1.261a.5.5,0,0,1,0-.927l3.172-1.239A9.886,9.886,0,0,0,525.35,691.9Z" transform="translate(-69.436 -546.418)" fill="none" stroke="rgba(246,246,246,0.45)" stroke-width="1"/>
        <path id="Caminho_2-11" data-name="Caminho 2" d="M575.874,749.461l.323-.811a.4.4,0,0,1,.749,0l.317.813a4.375,4.375,0,0,0,2.456,2.473l.81.323a.4.4,0,0,1,0,.75l-.812.317a4.375,4.375,0,0,0-2.473,2.456l-.323.81a.4.4,0,0,1-.749,0l-.318-.813a4.374,4.374,0,0,0-2.455-2.472l-.811-.323a.4.4,0,0,1,0-.749l.812-.317A4.375,4.375,0,0,0,575.874,749.461Z" transform="translate(-109.783 -589.587)" fill="none" stroke="rgba(246,246,246,0.45)" stroke-width="1"/>
      </g>
      <g id="Grupo_284-3" data-name="Grupo 284" transform="translate(88.162 28.261)">
        <path id="Caminho_1-12" data-name="Caminho 1" d="M525.35,691.9l1.261-3.165a.5.5,0,0,1,.927,0l1.239,3.174a9.878,9.878,0,0,0,5.547,5.586l3.165,1.261a.5.5,0,0,1,0,.927l-3.174,1.239a9.881,9.881,0,0,0-5.586,5.547l-1.261,3.165a.5.5,0,0,1-.927,0l-1.24-3.175a9.88,9.88,0,0,0-5.547-5.585l-3.165-1.261a.5.5,0,0,1,0-.927l3.172-1.239A9.886,9.886,0,0,0,525.35,691.9Z" transform="translate(-69.436 -546.418)" fill="none" stroke="rgba(246,246,246,0.45)" stroke-width="1"/>
        <path id="Caminho_2-12" data-name="Caminho 2" d="M575.874,749.461l.323-.811a.4.4,0,0,1,.749,0l.317.813a4.375,4.375,0,0,0,2.456,2.473l.81.323a.4.4,0,0,1,0,.75l-.812.317a4.375,4.375,0,0,0-2.473,2.456l-.323.81a.4.4,0,0,1-.749,0l-.318-.813a4.374,4.374,0,0,0-2.455-2.472l-.811-.323a.4.4,0,0,1,0-.749l.812-.317A4.375,4.375,0,0,0,575.874,749.461Z" transform="translate(-109.783 -589.587)" fill="none" stroke="rgba(246,246,246,0.45)" stroke-width="1"/>
      </g>
    </g>
    <g id="Grupo_274-4" data-name="Grupo 274" transform="translate(-70.5 -141.5)">
      <g id="Grupo_264-4" data-name="Grupo 264">
        <path id="Caminho_1-13" data-name="Caminho 1" d="M525.35,691.9l1.261-3.165a.5.5,0,0,1,.927,0l1.239,3.174a9.878,9.878,0,0,0,5.547,5.586l3.165,1.261a.5.5,0,0,1,0,.927l-3.174,1.239a9.881,9.881,0,0,0-5.586,5.547l-1.261,3.165a.5.5,0,0,1-.927,0l-1.24-3.175a9.88,9.88,0,0,0-5.547-5.585l-3.165-1.261a.5.5,0,0,1,0-.927l3.172-1.239A9.886,9.886,0,0,0,525.35,691.9Z" transform="translate(-69.436 -546.418)" fill="none" stroke="rgba(246,246,246,0.45)" stroke-width="1"/>
        <path id="Caminho_2-13" data-name="Caminho 2" d="M575.874,749.461l.323-.811a.4.4,0,0,1,.749,0l.317.813a4.375,4.375,0,0,0,2.456,2.473l.81.323a.4.4,0,0,1,0,.75l-.812.317a4.375,4.375,0,0,0-2.473,2.456l-.323.81a.4.4,0,0,1-.749,0l-.318-.813a4.374,4.374,0,0,0-2.455-2.472l-.811-.323a.4.4,0,0,1,0-.749l.812-.317A4.375,4.375,0,0,0,575.874,749.461Z" transform="translate(-109.783 -589.587)" fill="none" stroke="rgba(246,246,246,0.45)" stroke-width="1"/>
      </g>
      <g id="Grupo_273-4" data-name="Grupo 273" transform="translate(54.324)">
        <path id="Caminho_1-14" data-name="Caminho 1" d="M525.35,691.9l1.261-3.165a.5.5,0,0,1,.927,0l1.239,3.174a9.878,9.878,0,0,0,5.547,5.586l3.165,1.261a.5.5,0,0,1,0,.927l-3.174,1.239a9.881,9.881,0,0,0-5.586,5.547l-1.261,3.165a.5.5,0,0,1-.927,0l-1.24-3.175a9.88,9.88,0,0,0-5.547-5.585l-3.165-1.261a.5.5,0,0,1,0-.927l3.172-1.239A9.886,9.886,0,0,0,525.35,691.9Z" transform="translate(-69.436 -546.418)" fill="none" stroke="rgba(246,246,246,0.45)" stroke-width="1"/>
        <path id="Caminho_2-14" data-name="Caminho 2" d="M575.874,749.461l.323-.811a.4.4,0,0,1,.749,0l.317.813a4.375,4.375,0,0,0,2.456,2.473l.81.323a.4.4,0,0,1,0,.75l-.812.317a4.375,4.375,0,0,0-2.473,2.456l-.323.81a.4.4,0,0,1-.749,0l-.318-.813a4.374,4.374,0,0,0-2.455-2.472l-.811-.323a.4.4,0,0,1,0-.749l.812-.317A4.375,4.375,0,0,0,575.874,749.461Z" transform="translate(-109.783 -589.587)" fill="none" stroke="rgba(246,246,246,0.45)" stroke-width="1"/>
      </g>
      <g id="Grupo_272-4" data-name="Grupo 272" transform="translate(30.162 28.261)">
        <path id="Caminho_1-15" data-name="Caminho 1" d="M525.35,691.9l1.261-3.165a.5.5,0,0,1,.927,0l1.239,3.174a9.878,9.878,0,0,0,5.547,5.586l3.165,1.261a.5.5,0,0,1,0,.927l-3.174,1.239a9.881,9.881,0,0,0-5.586,5.547l-1.261,3.165a.5.5,0,0,1-.927,0l-1.24-3.175a9.88,9.88,0,0,0-5.547-5.585l-3.165-1.261a.5.5,0,0,1,0-.927l3.172-1.239A9.886,9.886,0,0,0,525.35,691.9Z" transform="translate(-69.436 -546.418)" fill="none" stroke="rgba(246,246,246,0.45)" stroke-width="1"/>
        <path id="Caminho_2-15" data-name="Caminho 2" d="M575.874,749.461l.323-.811a.4.4,0,0,1,.749,0l.317.813a4.375,4.375,0,0,0,2.456,2.473l.81.323a.4.4,0,0,1,0,.75l-.812.317a4.375,4.375,0,0,0-2.473,2.456l-.323.81a.4.4,0,0,1-.749,0l-.318-.813a4.374,4.374,0,0,0-2.455-2.472l-.811-.323a.4.4,0,0,1,0-.749l.812-.317A4.375,4.375,0,0,0,575.874,749.461Z" transform="translate(-109.783 -589.587)" fill="none" stroke="rgba(246,246,246,0.45)" stroke-width="1"/>
      </g>
      <g id="Grupo_284-4" data-name="Grupo 284" transform="translate(88.162 28.261)">
        <path id="Caminho_1-16" data-name="Caminho 1" d="M525.35,691.9l1.261-3.165a.5.5,0,0,1,.927,0l1.239,3.174a9.878,9.878,0,0,0,5.547,5.586l3.165,1.261a.5.5,0,0,1,0,.927l-3.174,1.239a9.881,9.881,0,0,0-5.586,5.547l-1.261,3.165a.5.5,0,0,1-.927,0l-1.24-3.175a9.88,9.88,0,0,0-5.547-5.585l-3.165-1.261a.5.5,0,0,1,0-.927l3.172-1.239A9.886,9.886,0,0,0,525.35,691.9Z" transform="translate(-69.436 -546.418)" fill="none" stroke="rgba(246,246,246,0.45)" stroke-width="1"/>
        <path id="Caminho_2-16" data-name="Caminho 2" d="M575.874,749.461l.323-.811a.4.4,0,0,1,.749,0l.317.813a4.375,4.375,0,0,0,2.456,2.473l.81.323a.4.4,0,0,1,0,.75l-.812.317a4.375,4.375,0,0,0-2.473,2.456l-.323.81a.4.4,0,0,1-.749,0l-.318-.813a4.374,4.374,0,0,0-2.455-2.472l-.811-.323a.4.4,0,0,1,0-.749l.812-.317A4.375,4.375,0,0,0,575.874,749.461Z" transform="translate(-109.783 -589.587)" fill="none" stroke="rgba(246,246,246,0.45)" stroke-width="1"/>
      </g>
    </g>
    <g id="Grupo_274-5" data-name="Grupo 274" transform="translate(45.5 -141.5)">
      <g id="Grupo_264-5" data-name="Grupo 264">
        <path id="Caminho_1-17" data-name="Caminho 1" d="M525.35,691.9l1.261-3.165a.5.5,0,0,1,.927,0l1.239,3.174a9.878,9.878,0,0,0,5.547,5.586l3.165,1.261a.5.5,0,0,1,0,.927l-3.174,1.239a9.881,9.881,0,0,0-5.586,5.547l-1.261,3.165a.5.5,0,0,1-.927,0l-1.24-3.175a9.88,9.88,0,0,0-5.547-5.585l-3.165-1.261a.5.5,0,0,1,0-.927l3.172-1.239A9.886,9.886,0,0,0,525.35,691.9Z" transform="translate(-69.436 -546.418)" fill="none" stroke="rgba(246,246,246,0.45)" stroke-width="1"/>
        <path id="Caminho_2-17" data-name="Caminho 2" d="M575.874,749.461l.323-.811a.4.4,0,0,1,.749,0l.317.813a4.375,4.375,0,0,0,2.456,2.473l.81.323a.4.4,0,0,1,0,.75l-.812.317a4.375,4.375,0,0,0-2.473,2.456l-.323.81a.4.4,0,0,1-.749,0l-.318-.813a4.374,4.374,0,0,0-2.455-2.472l-.811-.323a.4.4,0,0,1,0-.749l.812-.317A4.375,4.375,0,0,0,575.874,749.461Z" transform="translate(-109.783 -589.587)" fill="none" stroke="rgba(246,246,246,0.45)" stroke-width="1"/>
      </g>
      <g id="Grupo_273-5" data-name="Grupo 273" transform="translate(54.324)">
        <path id="Caminho_1-18" data-name="Caminho 1" d="M525.35,691.9l1.261-3.165a.5.5,0,0,1,.927,0l1.239,3.174a9.878,9.878,0,0,0,5.547,5.586l3.165,1.261a.5.5,0,0,1,0,.927l-3.174,1.239a9.881,9.881,0,0,0-5.586,5.547l-1.261,3.165a.5.5,0,0,1-.927,0l-1.24-3.175a9.88,9.88,0,0,0-5.547-5.585l-3.165-1.261a.5.5,0,0,1,0-.927l3.172-1.239A9.886,9.886,0,0,0,525.35,691.9Z" transform="translate(-69.436 -546.418)" fill="none" stroke="rgba(246,246,246,0.45)" stroke-width="1"/>
        <path id="Caminho_2-18" data-name="Caminho 2" d="M575.874,749.461l.323-.811a.4.4,0,0,1,.749,0l.317.813a4.375,4.375,0,0,0,2.456,2.473l.81.323a.4.4,0,0,1,0,.75l-.812.317a4.375,4.375,0,0,0-2.473,2.456l-.323.81a.4.4,0,0,1-.749,0l-.318-.813a4.374,4.374,0,0,0-2.455-2.472l-.811-.323a.4.4,0,0,1,0-.749l.812-.317A4.375,4.375,0,0,0,575.874,749.461Z" transform="translate(-109.783 -589.587)" fill="none" stroke="rgba(246,246,246,0.45)" stroke-width="1"/>
      </g>
      <g id="Grupo_272-5" data-name="Grupo 272" transform="translate(30.162 28.261)">
        <path id="Caminho_1-19" data-name="Caminho 1" d="M525.35,691.9l1.261-3.165a.5.5,0,0,1,.927,0l1.239,3.174a9.878,9.878,0,0,0,5.547,5.586l3.165,1.261a.5.5,0,0,1,0,.927l-3.174,1.239a9.881,9.881,0,0,0-5.586,5.547l-1.261,3.165a.5.5,0,0,1-.927,0l-1.24-3.175a9.88,9.88,0,0,0-5.547-5.585l-3.165-1.261a.5.5,0,0,1,0-.927l3.172-1.239A9.886,9.886,0,0,0,525.35,691.9Z" transform="translate(-69.436 -546.418)" fill="none" stroke="rgba(246,246,246,0.45)" stroke-width="1"/>
        <path id="Caminho_2-19" data-name="Caminho 2" d="M575.874,749.461l.323-.811a.4.4,0,0,1,.749,0l.317.813a4.375,4.375,0,0,0,2.456,2.473l.81.323a.4.4,0,0,1,0,.75l-.812.317a4.375,4.375,0,0,0-2.473,2.456l-.323.81a.4.4,0,0,1-.749,0l-.318-.813a4.374,4.374,0,0,0-2.455-2.472l-.811-.323a.4.4,0,0,1,0-.749l.812-.317A4.375,4.375,0,0,0,575.874,749.461Z" transform="translate(-109.783 -589.587)" fill="none" stroke="rgba(246,246,246,0.45)" stroke-width="1"/>
      </g>
      <g id="Grupo_284-5" data-name="Grupo 284" transform="translate(88.162 28.261)">
        <path id="Caminho_1-20" data-name="Caminho 1" d="M525.35,691.9l1.261-3.165a.5.5,0,0,1,.927,0l1.239,3.174a9.878,9.878,0,0,0,5.547,5.586l3.165,1.261a.5.5,0,0,1,0,.927l-3.174,1.239a9.881,9.881,0,0,0-5.586,5.547l-1.261,3.165a.5.5,0,0,1-.927,0l-1.24-3.175a9.88,9.88,0,0,0-5.547-5.585l-3.165-1.261a.5.5,0,0,1,0-.927l3.172-1.239A9.886,9.886,0,0,0,525.35,691.9Z" transform="translate(-69.436 -546.418)" fill="none" stroke="rgba(246,246,246,0.45)" stroke-width="1"/>
        <path id="Caminho_2-20" data-name="Caminho 2" d="M575.874,749.461l.323-.811a.4.4,0,0,1,.749,0l.317.813a4.375,4.375,0,0,0,2.456,2.473l.81.323a.4.4,0,0,1,0,.75l-.812.317a4.375,4.375,0,0,0-2.473,2.456l-.323.81a.4.4,0,0,1-.749,0l-.318-.813a4.374,4.374,0,0,0-2.455-2.472l-.811-.323a.4.4,0,0,1,0-.749l.812-.317A4.375,4.375,0,0,0,575.874,749.461Z" transform="translate(-109.783 -589.587)" fill="none" stroke="rgba(246,246,246,0.45)" stroke-width="1"/>
      </g>
    </g>
    <g id="Grupo_274-6" data-name="Grupo 274" transform="translate(-418.5 -87.5)">
      <g id="Grupo_264-6" data-name="Grupo 264">
        <path id="Caminho_1-21" data-name="Caminho 1" d="M525.35,691.9l1.261-3.165a.5.5,0,0,1,.927,0l1.239,3.174a9.878,9.878,0,0,0,5.547,5.586l3.165,1.261a.5.5,0,0,1,0,.927l-3.174,1.239a9.881,9.881,0,0,0-5.586,5.547l-1.261,3.165a.5.5,0,0,1-.927,0l-1.24-3.175a9.88,9.88,0,0,0-5.547-5.585l-3.165-1.261a.5.5,0,0,1,0-.927l3.172-1.239A9.886,9.886,0,0,0,525.35,691.9Z" transform="translate(-69.436 -546.418)" fill="none" stroke="rgba(246,246,246,0.45)" stroke-width="1"/>
        <path id="Caminho_2-21" data-name="Caminho 2" d="M575.874,749.461l.323-.811a.4.4,0,0,1,.749,0l.317.813a4.375,4.375,0,0,0,2.456,2.473l.81.323a.4.4,0,0,1,0,.75l-.812.317a4.375,4.375,0,0,0-2.473,2.456l-.323.81a.4.4,0,0,1-.749,0l-.318-.813a4.374,4.374,0,0,0-2.455-2.472l-.811-.323a.4.4,0,0,1,0-.749l.812-.317A4.375,4.375,0,0,0,575.874,749.461Z" transform="translate(-109.783 -589.587)" fill="none" stroke="rgba(246,246,246,0.45)" stroke-width="1"/>
      </g>
      <g id="Grupo_273-6" data-name="Grupo 273" transform="translate(54.324)">
        <path id="Caminho_1-22" data-name="Caminho 1" d="M525.35,691.9l1.261-3.165a.5.5,0,0,1,.927,0l1.239,3.174a9.878,9.878,0,0,0,5.547,5.586l3.165,1.261a.5.5,0,0,1,0,.927l-3.174,1.239a9.881,9.881,0,0,0-5.586,5.547l-1.261,3.165a.5.5,0,0,1-.927,0l-1.24-3.175a9.88,9.88,0,0,0-5.547-5.585l-3.165-1.261a.5.5,0,0,1,0-.927l3.172-1.239A9.886,9.886,0,0,0,525.35,691.9Z" transform="translate(-69.436 -546.418)" fill="none" stroke="rgba(246,246,246,0.45)" stroke-width="1"/>
        <path id="Caminho_2-22" data-name="Caminho 2" d="M575.874,749.461l.323-.811a.4.4,0,0,1,.749,0l.317.813a4.375,4.375,0,0,0,2.456,2.473l.81.323a.4.4,0,0,1,0,.75l-.812.317a4.375,4.375,0,0,0-2.473,2.456l-.323.81a.4.4,0,0,1-.749,0l-.318-.813a4.374,4.374,0,0,0-2.455-2.472l-.811-.323a.4.4,0,0,1,0-.749l.812-.317A4.375,4.375,0,0,0,575.874,749.461Z" transform="translate(-109.783 -589.587)" fill="none" stroke="rgba(246,246,246,0.45)" stroke-width="1"/>
      </g>
      <g id="Grupo_272-6" data-name="Grupo 272" transform="translate(30.162 28.261)">
        <path id="Caminho_1-23" data-name="Caminho 1" d="M525.35,691.9l1.261-3.165a.5.5,0,0,1,.927,0l1.239,3.174a9.878,9.878,0,0,0,5.547,5.586l3.165,1.261a.5.5,0,0,1,0,.927l-3.174,1.239a9.881,9.881,0,0,0-5.586,5.547l-1.261,3.165a.5.5,0,0,1-.927,0l-1.24-3.175a9.88,9.88,0,0,0-5.547-5.585l-3.165-1.261a.5.5,0,0,1,0-.927l3.172-1.239A9.886,9.886,0,0,0,525.35,691.9Z" transform="translate(-69.436 -546.418)" fill="none" stroke="rgba(246,246,246,0.45)" stroke-width="1"/>
        <path id="Caminho_2-23" data-name="Caminho 2" d="M575.874,749.461l.323-.811a.4.4,0,0,1,.749,0l.317.813a4.375,4.375,0,0,0,2.456,2.473l.81.323a.4.4,0,0,1,0,.75l-.812.317a4.375,4.375,0,0,0-2.473,2.456l-.323.81a.4.4,0,0,1-.749,0l-.318-.813a4.374,4.374,0,0,0-2.455-2.472l-.811-.323a.4.4,0,0,1,0-.749l.812-.317A4.375,4.375,0,0,0,575.874,749.461Z" transform="translate(-109.783 -589.587)" fill="none" stroke="rgba(246,246,246,0.45)" stroke-width="1"/>
      </g>
      <g id="Grupo_284-6" data-name="Grupo 284" transform="translate(88.162 28.261)">
        <path id="Caminho_1-24" data-name="Caminho 1" d="M525.35,691.9l1.261-3.165a.5.5,0,0,1,.927,0l1.239,3.174a9.878,9.878,0,0,0,5.547,5.586l3.165,1.261a.5.5,0,0,1,0,.927l-3.174,1.239a9.881,9.881,0,0,0-5.586,5.547l-1.261,3.165a.5.5,0,0,1-.927,0l-1.24-3.175a9.88,9.88,0,0,0-5.547-5.585l-3.165-1.261a.5.5,0,0,1,0-.927l3.172-1.239A9.886,9.886,0,0,0,525.35,691.9Z" transform="translate(-69.436 -546.418)" fill="none" stroke="rgba(246,246,246,0.45)" stroke-width="1"/>
        <path id="Caminho_2-24" data-name="Caminho 2" d="M575.874,749.461l.323-.811a.4.4,0,0,1,.749,0l.317.813a4.375,4.375,0,0,0,2.456,2.473l.81.323a.4.4,0,0,1,0,.75l-.812.317a4.375,4.375,0,0,0-2.473,2.456l-.323.81a.4.4,0,0,1-.749,0l-.318-.813a4.374,4.374,0,0,0-2.455-2.472l-.811-.323a.4.4,0,0,1,0-.749l.812-.317A4.375,4.375,0,0,0,575.874,749.461Z" transform="translate(-109.783 -589.587)" fill="none" stroke="rgba(246,246,246,0.45)" stroke-width="1"/>
      </g>
    </g>
    <g id="Grupo_274-7" data-name="Grupo 274" transform="translate(-302.5 -87.5)">
      <g id="Grupo_264-7" data-name="Grupo 264">
        <path id="Caminho_1-25" data-name="Caminho 1" d="M525.35,691.9l1.261-3.165a.5.5,0,0,1,.927,0l1.239,3.174a9.878,9.878,0,0,0,5.547,5.586l3.165,1.261a.5.5,0,0,1,0,.927l-3.174,1.239a9.881,9.881,0,0,0-5.586,5.547l-1.261,3.165a.5.5,0,0,1-.927,0l-1.24-3.175a9.88,9.88,0,0,0-5.547-5.585l-3.165-1.261a.5.5,0,0,1,0-.927l3.172-1.239A9.886,9.886,0,0,0,525.35,691.9Z" transform="translate(-69.436 -546.418)" fill="none" stroke="rgba(246,246,246,0.45)" stroke-width="1"/>
        <path id="Caminho_2-25" data-name="Caminho 2" d="M575.874,749.461l.323-.811a.4.4,0,0,1,.749,0l.317.813a4.375,4.375,0,0,0,2.456,2.473l.81.323a.4.4,0,0,1,0,.75l-.812.317a4.375,4.375,0,0,0-2.473,2.456l-.323.81a.4.4,0,0,1-.749,0l-.318-.813a4.374,4.374,0,0,0-2.455-2.472l-.811-.323a.4.4,0,0,1,0-.749l.812-.317A4.375,4.375,0,0,0,575.874,749.461Z" transform="translate(-109.783 -589.587)" fill="none" stroke="rgba(246,246,246,0.45)" stroke-width="1"/>
      </g>
      <g id="Grupo_273-7" data-name="Grupo 273" transform="translate(54.324)">
        <path id="Caminho_1-26" data-name="Caminho 1" d="M525.35,691.9l1.261-3.165a.5.5,0,0,1,.927,0l1.239,3.174a9.878,9.878,0,0,0,5.547,5.586l3.165,1.261a.5.5,0,0,1,0,.927l-3.174,1.239a9.881,9.881,0,0,0-5.586,5.547l-1.261,3.165a.5.5,0,0,1-.927,0l-1.24-3.175a9.88,9.88,0,0,0-5.547-5.585l-3.165-1.261a.5.5,0,0,1,0-.927l3.172-1.239A9.886,9.886,0,0,0,525.35,691.9Z" transform="translate(-69.436 -546.418)" fill="none" stroke="rgba(246,246,246,0.45)" stroke-width="1"/>
        <path id="Caminho_2-26" data-name="Caminho 2" d="M575.874,749.461l.323-.811a.4.4,0,0,1,.749,0l.317.813a4.375,4.375,0,0,0,2.456,2.473l.81.323a.4.4,0,0,1,0,.75l-.812.317a4.375,4.375,0,0,0-2.473,2.456l-.323.81a.4.4,0,0,1-.749,0l-.318-.813a4.374,4.374,0,0,0-2.455-2.472l-.811-.323a.4.4,0,0,1,0-.749l.812-.317A4.375,4.375,0,0,0,575.874,749.461Z" transform="translate(-109.783 -589.587)" fill="none" stroke="rgba(246,246,246,0.45)" stroke-width="1"/>
      </g>
      <g id="Grupo_272-7" data-name="Grupo 272" transform="translate(30.162 28.261)">
        <path id="Caminho_1-27" data-name="Caminho 1" d="M525.35,691.9l1.261-3.165a.5.5,0,0,1,.927,0l1.239,3.174a9.878,9.878,0,0,0,5.547,5.586l3.165,1.261a.5.5,0,0,1,0,.927l-3.174,1.239a9.881,9.881,0,0,0-5.586,5.547l-1.261,3.165a.5.5,0,0,1-.927,0l-1.24-3.175a9.88,9.88,0,0,0-5.547-5.585l-3.165-1.261a.5.5,0,0,1,0-.927l3.172-1.239A9.886,9.886,0,0,0,525.35,691.9Z" transform="translate(-69.436 -546.418)" fill="none" stroke="rgba(246,246,246,0.45)" stroke-width="1"/>
        <path id="Caminho_2-27" data-name="Caminho 2" d="M575.874,749.461l.323-.811a.4.4,0,0,1,.749,0l.317.813a4.375,4.375,0,0,0,2.456,2.473l.81.323a.4.4,0,0,1,0,.75l-.812.317a4.375,4.375,0,0,0-2.473,2.456l-.323.81a.4.4,0,0,1-.749,0l-.318-.813a4.374,4.374,0,0,0-2.455-2.472l-.811-.323a.4.4,0,0,1,0-.749l.812-.317A4.375,4.375,0,0,0,575.874,749.461Z" transform="translate(-109.783 -589.587)" fill="none" stroke="rgba(246,246,246,0.45)" stroke-width="1"/>
      </g>
      <g id="Grupo_284-7" data-name="Grupo 284" transform="translate(88.162 28.261)">
        <path id="Caminho_1-28" data-name="Caminho 1" d="M525.35,691.9l1.261-3.165a.5.5,0,0,1,.927,0l1.239,3.174a9.878,9.878,0,0,0,5.547,5.586l3.165,1.261a.5.5,0,0,1,0,.927l-3.174,1.239a9.881,9.881,0,0,0-5.586,5.547l-1.261,3.165a.5.5,0,0,1-.927,0l-1.24-3.175a9.88,9.88,0,0,0-5.547-5.585l-3.165-1.261a.5.5,0,0,1,0-.927l3.172-1.239A9.886,9.886,0,0,0,525.35,691.9Z" transform="translate(-69.436 -546.418)" fill="none" stroke="rgba(246,246,246,0.45)" stroke-width="1"/>
        <path id="Caminho_2-28" data-name="Caminho 2" d="M575.874,749.461l.323-.811a.4.4,0,0,1,.749,0l.317.813a4.375,4.375,0,0,0,2.456,2.473l.81.323a.4.4,0,0,1,0,.75l-.812.317a4.375,4.375,0,0,0-2.473,2.456l-.323.81a.4.4,0,0,1-.749,0l-.318-.813a4.374,4.374,0,0,0-2.455-2.472l-.811-.323a.4.4,0,0,1,0-.749l.812-.317A4.375,4.375,0,0,0,575.874,749.461Z" transform="translate(-109.783 -589.587)" fill="none" stroke="rgba(246,246,246,0.45)" stroke-width="1"/>
      </g>
    </g>
    <g id="Grupo_274-8" data-name="Grupo 274" transform="translate(-186.5 -87.5)">
      <g id="Grupo_264-8" data-name="Grupo 264">
        <path id="Caminho_1-29" data-name="Caminho 1" d="M525.35,691.9l1.261-3.165a.5.5,0,0,1,.927,0l1.239,3.174a9.878,9.878,0,0,0,5.547,5.586l3.165,1.261a.5.5,0,0,1,0,.927l-3.174,1.239a9.881,9.881,0,0,0-5.586,5.547l-1.261,3.165a.5.5,0,0,1-.927,0l-1.24-3.175a9.88,9.88,0,0,0-5.547-5.585l-3.165-1.261a.5.5,0,0,1,0-.927l3.172-1.239A9.886,9.886,0,0,0,525.35,691.9Z" transform="translate(-69.436 -546.418)" fill="none" stroke="rgba(246,246,246,0.45)" stroke-width="1"/>
        <path id="Caminho_2-29" data-name="Caminho 2" d="M575.874,749.461l.323-.811a.4.4,0,0,1,.749,0l.317.813a4.375,4.375,0,0,0,2.456,2.473l.81.323a.4.4,0,0,1,0,.75l-.812.317a4.375,4.375,0,0,0-2.473,2.456l-.323.81a.4.4,0,0,1-.749,0l-.318-.813a4.374,4.374,0,0,0-2.455-2.472l-.811-.323a.4.4,0,0,1,0-.749l.812-.317A4.375,4.375,0,0,0,575.874,749.461Z" transform="translate(-109.783 -589.587)" fill="none" stroke="rgba(246,246,246,0.45)" stroke-width="1"/>
      </g>
      <g id="Grupo_273-8" data-name="Grupo 273" transform="translate(54.324)">
        <path id="Caminho_1-30" data-name="Caminho 1" d="M525.35,691.9l1.261-3.165a.5.5,0,0,1,.927,0l1.239,3.174a9.878,9.878,0,0,0,5.547,5.586l3.165,1.261a.5.5,0,0,1,0,.927l-3.174,1.239a9.881,9.881,0,0,0-5.586,5.547l-1.261,3.165a.5.5,0,0,1-.927,0l-1.24-3.175a9.88,9.88,0,0,0-5.547-5.585l-3.165-1.261a.5.5,0,0,1,0-.927l3.172-1.239A9.886,9.886,0,0,0,525.35,691.9Z" transform="translate(-69.436 -546.418)" fill="none" stroke="rgba(246,246,246,0.45)" stroke-width="1"/>
        <path id="Caminho_2-30" data-name="Caminho 2" d="M575.874,749.461l.323-.811a.4.4,0,0,1,.749,0l.317.813a4.375,4.375,0,0,0,2.456,2.473l.81.323a.4.4,0,0,1,0,.75l-.812.317a4.375,4.375,0,0,0-2.473,2.456l-.323.81a.4.4,0,0,1-.749,0l-.318-.813a4.374,4.374,0,0,0-2.455-2.472l-.811-.323a.4.4,0,0,1,0-.749l.812-.317A4.375,4.375,0,0,0,575.874,749.461Z" transform="translate(-109.783 -589.587)" fill="none" stroke="rgba(246,246,246,0.45)" stroke-width="1"/>
      </g>
      <g id="Grupo_272-8" data-name="Grupo 272" transform="translate(30.162 28.261)">
        <path id="Caminho_1-31" data-name="Caminho 1" d="M525.35,691.9l1.261-3.165a.5.5,0,0,1,.927,0l1.239,3.174a9.878,9.878,0,0,0,5.547,5.586l3.165,1.261a.5.5,0,0,1,0,.927l-3.174,1.239a9.881,9.881,0,0,0-5.586,5.547l-1.261,3.165a.5.5,0,0,1-.927,0l-1.24-3.175a9.88,9.88,0,0,0-5.547-5.585l-3.165-1.261a.5.5,0,0,1,0-.927l3.172-1.239A9.886,9.886,0,0,0,525.35,691.9Z" transform="translate(-69.436 -546.418)" fill="none" stroke="rgba(246,246,246,0.45)" stroke-width="1"/>
        <path id="Caminho_2-31" data-name="Caminho 2" d="M575.874,749.461l.323-.811a.4.4,0,0,1,.749,0l.317.813a4.375,4.375,0,0,0,2.456,2.473l.81.323a.4.4,0,0,1,0,.75l-.812.317a4.375,4.375,0,0,0-2.473,2.456l-.323.81a.4.4,0,0,1-.749,0l-.318-.813a4.374,4.374,0,0,0-2.455-2.472l-.811-.323a.4.4,0,0,1,0-.749l.812-.317A4.375,4.375,0,0,0,575.874,749.461Z" transform="translate(-109.783 -589.587)" fill="none" stroke="rgba(246,246,246,0.45)" stroke-width="1"/>
      </g>
      <g id="Grupo_284-8" data-name="Grupo 284" transform="translate(88.162 28.261)">
        <path id="Caminho_1-32" data-name="Caminho 1" d="M525.35,691.9l1.261-3.165a.5.5,0,0,1,.927,0l1.239,3.174a9.878,9.878,0,0,0,5.547,5.586l3.165,1.261a.5.5,0,0,1,0,.927l-3.174,1.239a9.881,9.881,0,0,0-5.586,5.547l-1.261,3.165a.5.5,0,0,1-.927,0l-1.24-3.175a9.88,9.88,0,0,0-5.547-5.585l-3.165-1.261a.5.5,0,0,1,0-.927l3.172-1.239A9.886,9.886,0,0,0,525.35,691.9Z" transform="translate(-69.436 -546.418)" fill="none" stroke="rgba(246,246,246,0.45)" stroke-width="1"/>
        <path id="Caminho_2-32" data-name="Caminho 2" d="M575.874,749.461l.323-.811a.4.4,0,0,1,.749,0l.317.813a4.375,4.375,0,0,0,2.456,2.473l.81.323a.4.4,0,0,1,0,.75l-.812.317a4.375,4.375,0,0,0-2.473,2.456l-.323.81a.4.4,0,0,1-.749,0l-.318-.813a4.374,4.374,0,0,0-2.455-2.472l-.811-.323a.4.4,0,0,1,0-.749l.812-.317A4.375,4.375,0,0,0,575.874,749.461Z" transform="translate(-109.783 -589.587)" fill="none" stroke="rgba(246,246,246,0.45)" stroke-width="1"/>
      </g>
    </g>
    <g id="Grupo_274-9" data-name="Grupo 274" transform="translate(-70.5 -87.5)">
      <g id="Grupo_264-9" data-name="Grupo 264">
        <path id="Caminho_1-33" data-name="Caminho 1" d="M525.35,691.9l1.261-3.165a.5.5,0,0,1,.927,0l1.239,3.174a9.878,9.878,0,0,0,5.547,5.586l3.165,1.261a.5.5,0,0,1,0,.927l-3.174,1.239a9.881,9.881,0,0,0-5.586,5.547l-1.261,3.165a.5.5,0,0,1-.927,0l-1.24-3.175a9.88,9.88,0,0,0-5.547-5.585l-3.165-1.261a.5.5,0,0,1,0-.927l3.172-1.239A9.886,9.886,0,0,0,525.35,691.9Z" transform="translate(-69.436 -546.418)" fill="none" stroke="rgba(246,246,246,0.45)" stroke-width="1"/>
        <path id="Caminho_2-33" data-name="Caminho 2" d="M575.874,749.461l.323-.811a.4.4,0,0,1,.749,0l.317.813a4.375,4.375,0,0,0,2.456,2.473l.81.323a.4.4,0,0,1,0,.75l-.812.317a4.375,4.375,0,0,0-2.473,2.456l-.323.81a.4.4,0,0,1-.749,0l-.318-.813a4.374,4.374,0,0,0-2.455-2.472l-.811-.323a.4.4,0,0,1,0-.749l.812-.317A4.375,4.375,0,0,0,575.874,749.461Z" transform="translate(-109.783 -589.587)" fill="none" stroke="rgba(246,246,246,0.45)" stroke-width="1"/>
      </g>
      <g id="Grupo_273-9" data-name="Grupo 273" transform="translate(54.324)">
        <path id="Caminho_1-34" data-name="Caminho 1" d="M525.35,691.9l1.261-3.165a.5.5,0,0,1,.927,0l1.239,3.174a9.878,9.878,0,0,0,5.547,5.586l3.165,1.261a.5.5,0,0,1,0,.927l-3.174,1.239a9.881,9.881,0,0,0-5.586,5.547l-1.261,3.165a.5.5,0,0,1-.927,0l-1.24-3.175a9.88,9.88,0,0,0-5.547-5.585l-3.165-1.261a.5.5,0,0,1,0-.927l3.172-1.239A9.886,9.886,0,0,0,525.35,691.9Z" transform="translate(-69.436 -546.418)" fill="none" stroke="rgba(246,246,246,0.45)" stroke-width="1"/>
        <path id="Caminho_2-34" data-name="Caminho 2" d="M575.874,749.461l.323-.811a.4.4,0,0,1,.749,0l.317.813a4.375,4.375,0,0,0,2.456,2.473l.81.323a.4.4,0,0,1,0,.75l-.812.317a4.375,4.375,0,0,0-2.473,2.456l-.323.81a.4.4,0,0,1-.749,0l-.318-.813a4.374,4.374,0,0,0-2.455-2.472l-.811-.323a.4.4,0,0,1,0-.749l.812-.317A4.375,4.375,0,0,0,575.874,749.461Z" transform="translate(-109.783 -589.587)" fill="none" stroke="rgba(246,246,246,0.45)" stroke-width="1"/>
      </g>
      <g id="Grupo_272-9" data-name="Grupo 272" transform="translate(30.162 28.261)">
        <path id="Caminho_1-35" data-name="Caminho 1" d="M525.35,691.9l1.261-3.165a.5.5,0,0,1,.927,0l1.239,3.174a9.878,9.878,0,0,0,5.547,5.586l3.165,1.261a.5.5,0,0,1,0,.927l-3.174,1.239a9.881,9.881,0,0,0-5.586,5.547l-1.261,3.165a.5.5,0,0,1-.927,0l-1.24-3.175a9.88,9.88,0,0,0-5.547-5.585l-3.165-1.261a.5.5,0,0,1,0-.927l3.172-1.239A9.886,9.886,0,0,0,525.35,691.9Z" transform="translate(-69.436 -546.418)" fill="none" stroke="rgba(246,246,246,0.45)" stroke-width="1"/>
        <path id="Caminho_2-35" data-name="Caminho 2" d="M575.874,749.461l.323-.811a.4.4,0,0,1,.749,0l.317.813a4.375,4.375,0,0,0,2.456,2.473l.81.323a.4.4,0,0,1,0,.75l-.812.317a4.375,4.375,0,0,0-2.473,2.456l-.323.81a.4.4,0,0,1-.749,0l-.318-.813a4.374,4.374,0,0,0-2.455-2.472l-.811-.323a.4.4,0,0,1,0-.749l.812-.317A4.375,4.375,0,0,0,575.874,749.461Z" transform="translate(-109.783 -589.587)" fill="none" stroke="rgba(246,246,246,0.45)" stroke-width="1"/>
      </g>
      <g id="Grupo_284-9" data-name="Grupo 284" transform="translate(88.162 28.261)">
        <path id="Caminho_1-36" data-name="Caminho 1" d="M525.35,691.9l1.261-3.165a.5.5,0,0,1,.927,0l1.239,3.174a9.878,9.878,0,0,0,5.547,5.586l3.165,1.261a.5.5,0,0,1,0,.927l-3.174,1.239a9.881,9.881,0,0,0-5.586,5.547l-1.261,3.165a.5.5,0,0,1-.927,0l-1.24-3.175a9.88,9.88,0,0,0-5.547-5.585l-3.165-1.261a.5.5,0,0,1,0-.927l3.172-1.239A9.886,9.886,0,0,0,525.35,691.9Z" transform="translate(-69.436 -546.418)" fill="none" stroke="rgba(246,246,246,0.45)" stroke-width="1"/>
        <path id="Caminho_2-36" data-name="Caminho 2" d="M575.874,749.461l.323-.811a.4.4,0,0,1,.749,0l.317.813a4.375,4.375,0,0,0,2.456,2.473l.81.323a.4.4,0,0,1,0,.75l-.812.317a4.375,4.375,0,0,0-2.473,2.456l-.323.81a.4.4,0,0,1-.749,0l-.318-.813a4.374,4.374,0,0,0-2.455-2.472l-.811-.323a.4.4,0,0,1,0-.749l.812-.317A4.375,4.375,0,0,0,575.874,749.461Z" transform="translate(-109.783 -589.587)" fill="none" stroke="rgba(246,246,246,0.45)" stroke-width="1"/>
      </g>
    </g>
    <g id="Grupo_274-10" data-name="Grupo 274" transform="translate(45.5 -87.5)">
      <g id="Grupo_264-10" data-name="Grupo 264">
        <path id="Caminho_1-37" data-name="Caminho 1" d="M525.35,691.9l1.261-3.165a.5.5,0,0,1,.927,0l1.239,3.174a9.878,9.878,0,0,0,5.547,5.586l3.165,1.261a.5.5,0,0,1,0,.927l-3.174,1.239a9.881,9.881,0,0,0-5.586,5.547l-1.261,3.165a.5.5,0,0,1-.927,0l-1.24-3.175a9.88,9.88,0,0,0-5.547-5.585l-3.165-1.261a.5.5,0,0,1,0-.927l3.172-1.239A9.886,9.886,0,0,0,525.35,691.9Z" transform="translate(-69.436 -546.418)" fill="none" stroke="rgba(246,246,246,0.45)" stroke-width="1"/>
        <path id="Caminho_2-37" data-name="Caminho 2" d="M575.874,749.461l.323-.811a.4.4,0,0,1,.749,0l.317.813a4.375,4.375,0,0,0,2.456,2.473l.81.323a.4.4,0,0,1,0,.75l-.812.317a4.375,4.375,0,0,0-2.473,2.456l-.323.81a.4.4,0,0,1-.749,0l-.318-.813a4.374,4.374,0,0,0-2.455-2.472l-.811-.323a.4.4,0,0,1,0-.749l.812-.317A4.375,4.375,0,0,0,575.874,749.461Z" transform="translate(-109.783 -589.587)" fill="none" stroke="rgba(246,246,246,0.45)" stroke-width="1"/>
      </g>
      <g id="Grupo_273-10" data-name="Grupo 273" transform="translate(54.324)">
        <path id="Caminho_1-38" data-name="Caminho 1" d="M525.35,691.9l1.261-3.165a.5.5,0,0,1,.927,0l1.239,3.174a9.878,9.878,0,0,0,5.547,5.586l3.165,1.261a.5.5,0,0,1,0,.927l-3.174,1.239a9.881,9.881,0,0,0-5.586,5.547l-1.261,3.165a.5.5,0,0,1-.927,0l-1.24-3.175a9.88,9.88,0,0,0-5.547-5.585l-3.165-1.261a.5.5,0,0,1,0-.927l3.172-1.239A9.886,9.886,0,0,0,525.35,691.9Z" transform="translate(-69.436 -546.418)" fill="none" stroke="rgba(246,246,246,0.45)" stroke-width="1"/>
        <path id="Caminho_2-38" data-name="Caminho 2" d="M575.874,749.461l.323-.811a.4.4,0,0,1,.749,0l.317.813a4.375,4.375,0,0,0,2.456,2.473l.81.323a.4.4,0,0,1,0,.75l-.812.317a4.375,4.375,0,0,0-2.473,2.456l-.323.81a.4.4,0,0,1-.749,0l-.318-.813a4.374,4.374,0,0,0-2.455-2.472l-.811-.323a.4.4,0,0,1,0-.749l.812-.317A4.375,4.375,0,0,0,575.874,749.461Z" transform="translate(-109.783 -589.587)" fill="none" stroke="rgba(246,246,246,0.45)" stroke-width="1"/>
      </g>
      <g id="Grupo_272-10" data-name="Grupo 272" transform="translate(30.162 28.261)">
        <path id="Caminho_1-39" data-name="Caminho 1" d="M525.35,691.9l1.261-3.165a.5.5,0,0,1,.927,0l1.239,3.174a9.878,9.878,0,0,0,5.547,5.586l3.165,1.261a.5.5,0,0,1,0,.927l-3.174,1.239a9.881,9.881,0,0,0-5.586,5.547l-1.261,3.165a.5.5,0,0,1-.927,0l-1.24-3.175a9.88,9.88,0,0,0-5.547-5.585l-3.165-1.261a.5.5,0,0,1,0-.927l3.172-1.239A9.886,9.886,0,0,0,525.35,691.9Z" transform="translate(-69.436 -546.418)" fill="none" stroke="rgba(246,246,246,0.45)" stroke-width="1"/>
        <path id="Caminho_2-39" data-name="Caminho 2" d="M575.874,749.461l.323-.811a.4.4,0,0,1,.749,0l.317.813a4.375,4.375,0,0,0,2.456,2.473l.81.323a.4.4,0,0,1,0,.75l-.812.317a4.375,4.375,0,0,0-2.473,2.456l-.323.81a.4.4,0,0,1-.749,0l-.318-.813a4.374,4.374,0,0,0-2.455-2.472l-.811-.323a.4.4,0,0,1,0-.749l.812-.317A4.375,4.375,0,0,0,575.874,749.461Z" transform="translate(-109.783 -589.587)" fill="none" stroke="rgba(246,246,246,0.45)" stroke-width="1"/>
      </g>
      <g id="Grupo_284-10" data-name="Grupo 284" transform="translate(88.162 28.261)">
        <path id="Caminho_1-40" data-name="Caminho 1" d="M525.35,691.9l1.261-3.165a.5.5,0,0,1,.927,0l1.239,3.174a9.878,9.878,0,0,0,5.547,5.586l3.165,1.261a.5.5,0,0,1,0,.927l-3.174,1.239a9.881,9.881,0,0,0-5.586,5.547l-1.261,3.165a.5.5,0,0,1-.927,0l-1.24-3.175a9.88,9.88,0,0,0-5.547-5.585l-3.165-1.261a.5.5,0,0,1,0-.927l3.172-1.239A9.886,9.886,0,0,0,525.35,691.9Z" transform="translate(-69.436 -546.418)" fill="none" stroke="rgba(246,246,246,0.45)" stroke-width="1"/>
        <path id="Caminho_2-40" data-name="Caminho 2" d="M575.874,749.461l.323-.811a.4.4,0,0,1,.749,0l.317.813a4.375,4.375,0,0,0,2.456,2.473l.81.323a.4.4,0,0,1,0,.75l-.812.317a4.375,4.375,0,0,0-2.473,2.456l-.323.81a.4.4,0,0,1-.749,0l-.318-.813a4.374,4.374,0,0,0-2.455-2.472l-.811-.323a.4.4,0,0,1,0-.749l.812-.317A4.375,4.375,0,0,0,575.874,749.461Z" transform="translate(-109.783 -589.587)" fill="none" stroke="rgba(246,246,246,0.45)" stroke-width="1"/>
      </g>
    </g>
    <g id="Grupo_274-11" data-name="Grupo 274" transform="translate(-418.5 -33.5)">
      <g id="Grupo_264-11" data-name="Grupo 264">
        <path id="Caminho_1-41" data-name="Caminho 1" d="M525.35,691.9l1.261-3.165a.5.5,0,0,1,.927,0l1.239,3.174a9.878,9.878,0,0,0,5.547,5.586l3.165,1.261a.5.5,0,0,1,0,.927l-3.174,1.239a9.881,9.881,0,0,0-5.586,5.547l-1.261,3.165a.5.5,0,0,1-.927,0l-1.24-3.175a9.88,9.88,0,0,0-5.547-5.585l-3.165-1.261a.5.5,0,0,1,0-.927l3.172-1.239A9.886,9.886,0,0,0,525.35,691.9Z" transform="translate(-69.436 -546.418)" fill="none" stroke="rgba(246,246,246,0.45)" stroke-width="1"/>
        <path id="Caminho_2-41" data-name="Caminho 2" d="M575.874,749.461l.323-.811a.4.4,0,0,1,.749,0l.317.813a4.375,4.375,0,0,0,2.456,2.473l.81.323a.4.4,0,0,1,0,.75l-.812.317a4.375,4.375,0,0,0-2.473,2.456l-.323.81a.4.4,0,0,1-.749,0l-.318-.813a4.374,4.374,0,0,0-2.455-2.472l-.811-.323a.4.4,0,0,1,0-.749l.812-.317A4.375,4.375,0,0,0,575.874,749.461Z" transform="translate(-109.783 -589.587)" fill="none" stroke="rgba(246,246,246,0.45)" stroke-width="1"/>
      </g>
      <g id="Grupo_273-11" data-name="Grupo 273" transform="translate(54.324)">
        <path id="Caminho_1-42" data-name="Caminho 1" d="M525.35,691.9l1.261-3.165a.5.5,0,0,1,.927,0l1.239,3.174a9.878,9.878,0,0,0,5.547,5.586l3.165,1.261a.5.5,0,0,1,0,.927l-3.174,1.239a9.881,9.881,0,0,0-5.586,5.547l-1.261,3.165a.5.5,0,0,1-.927,0l-1.24-3.175a9.88,9.88,0,0,0-5.547-5.585l-3.165-1.261a.5.5,0,0,1,0-.927l3.172-1.239A9.886,9.886,0,0,0,525.35,691.9Z" transform="translate(-69.436 -546.418)" fill="none" stroke="rgba(246,246,246,0.45)" stroke-width="1"/>
        <path id="Caminho_2-42" data-name="Caminho 2" d="M575.874,749.461l.323-.811a.4.4,0,0,1,.749,0l.317.813a4.375,4.375,0,0,0,2.456,2.473l.81.323a.4.4,0,0,1,0,.75l-.812.317a4.375,4.375,0,0,0-2.473,2.456l-.323.81a.4.4,0,0,1-.749,0l-.318-.813a4.374,4.374,0,0,0-2.455-2.472l-.811-.323a.4.4,0,0,1,0-.749l.812-.317A4.375,4.375,0,0,0,575.874,749.461Z" transform="translate(-109.783 -589.587)" fill="none" stroke="rgba(246,246,246,0.45)" stroke-width="1"/>
      </g>
      <g id="Grupo_272-11" data-name="Grupo 272" transform="translate(30.162 28.261)">
        <path id="Caminho_1-43" data-name="Caminho 1" d="M525.35,691.9l1.261-3.165a.5.5,0,0,1,.927,0l1.239,3.174a9.878,9.878,0,0,0,5.547,5.586l3.165,1.261a.5.5,0,0,1,0,.927l-3.174,1.239a9.881,9.881,0,0,0-5.586,5.547l-1.261,3.165a.5.5,0,0,1-.927,0l-1.24-3.175a9.88,9.88,0,0,0-5.547-5.585l-3.165-1.261a.5.5,0,0,1,0-.927l3.172-1.239A9.886,9.886,0,0,0,525.35,691.9Z" transform="translate(-69.436 -546.418)" fill="none" stroke="rgba(246,246,246,0.45)" stroke-width="1"/>
        <path id="Caminho_2-43" data-name="Caminho 2" d="M575.874,749.461l.323-.811a.4.4,0,0,1,.749,0l.317.813a4.375,4.375,0,0,0,2.456,2.473l.81.323a.4.4,0,0,1,0,.75l-.812.317a4.375,4.375,0,0,0-2.473,2.456l-.323.81a.4.4,0,0,1-.749,0l-.318-.813a4.374,4.374,0,0,0-2.455-2.472l-.811-.323a.4.4,0,0,1,0-.749l.812-.317A4.375,4.375,0,0,0,575.874,749.461Z" transform="translate(-109.783 -589.587)" fill="none" stroke="rgba(246,246,246,0.45)" stroke-width="1"/>
      </g>
      <g id="Grupo_284-11" data-name="Grupo 284" transform="translate(88.162 28.261)">
        <path id="Caminho_1-44" data-name="Caminho 1" d="M525.35,691.9l1.261-3.165a.5.5,0,0,1,.927,0l1.239,3.174a9.878,9.878,0,0,0,5.547,5.586l3.165,1.261a.5.5,0,0,1,0,.927l-3.174,1.239a9.881,9.881,0,0,0-5.586,5.547l-1.261,3.165a.5.5,0,0,1-.927,0l-1.24-3.175a9.88,9.88,0,0,0-5.547-5.585l-3.165-1.261a.5.5,0,0,1,0-.927l3.172-1.239A9.886,9.886,0,0,0,525.35,691.9Z" transform="translate(-69.436 -546.418)" fill="none" stroke="rgba(246,246,246,0.45)" stroke-width="1"/>
        <path id="Caminho_2-44" data-name="Caminho 2" d="M575.874,749.461l.323-.811a.4.4,0,0,1,.749,0l.317.813a4.375,4.375,0,0,0,2.456,2.473l.81.323a.4.4,0,0,1,0,.75l-.812.317a4.375,4.375,0,0,0-2.473,2.456l-.323.81a.4.4,0,0,1-.749,0l-.318-.813a4.374,4.374,0,0,0-2.455-2.472l-.811-.323a.4.4,0,0,1,0-.749l.812-.317A4.375,4.375,0,0,0,575.874,749.461Z" transform="translate(-109.783 -589.587)" fill="none" stroke="rgba(246,246,246,0.45)" stroke-width="1"/>
      </g>
    </g>
    <g id="Grupo_274-12" data-name="Grupo 274" transform="translate(-302.5 -33.5)">
      <g id="Grupo_264-12" data-name="Grupo 264">
        <path id="Caminho_1-45" data-name="Caminho 1" d="M525.35,691.9l1.261-3.165a.5.5,0,0,1,.927,0l1.239,3.174a9.878,9.878,0,0,0,5.547,5.586l3.165,1.261a.5.5,0,0,1,0,.927l-3.174,1.239a9.881,9.881,0,0,0-5.586,5.547l-1.261,3.165a.5.5,0,0,1-.927,0l-1.24-3.175a9.88,9.88,0,0,0-5.547-5.585l-3.165-1.261a.5.5,0,0,1,0-.927l3.172-1.239A9.886,9.886,0,0,0,525.35,691.9Z" transform="translate(-69.436 -546.418)" fill="none" stroke="rgba(246,246,246,0.45)" stroke-width="1"/>
        <path id="Caminho_2-45" data-name="Caminho 2" d="M575.874,749.461l.323-.811a.4.4,0,0,1,.749,0l.317.813a4.375,4.375,0,0,0,2.456,2.473l.81.323a.4.4,0,0,1,0,.75l-.812.317a4.375,4.375,0,0,0-2.473,2.456l-.323.81a.4.4,0,0,1-.749,0l-.318-.813a4.374,4.374,0,0,0-2.455-2.472l-.811-.323a.4.4,0,0,1,0-.749l.812-.317A4.375,4.375,0,0,0,575.874,749.461Z" transform="translate(-109.783 -589.587)" fill="none" stroke="rgba(246,246,246,0.45)" stroke-width="1"/>
      </g>
      <g id="Grupo_273-12" data-name="Grupo 273" transform="translate(54.324)">
        <path id="Caminho_1-46" data-name="Caminho 1" d="M525.35,691.9l1.261-3.165a.5.5,0,0,1,.927,0l1.239,3.174a9.878,9.878,0,0,0,5.547,5.586l3.165,1.261a.5.5,0,0,1,0,.927l-3.174,1.239a9.881,9.881,0,0,0-5.586,5.547l-1.261,3.165a.5.5,0,0,1-.927,0l-1.24-3.175a9.88,9.88,0,0,0-5.547-5.585l-3.165-1.261a.5.5,0,0,1,0-.927l3.172-1.239A9.886,9.886,0,0,0,525.35,691.9Z" transform="translate(-69.436 -546.418)" fill="none" stroke="rgba(246,246,246,0.45)" stroke-width="1"/>
        <path id="Caminho_2-46" data-name="Caminho 2" d="M575.874,749.461l.323-.811a.4.4,0,0,1,.749,0l.317.813a4.375,4.375,0,0,0,2.456,2.473l.81.323a.4.4,0,0,1,0,.75l-.812.317a4.375,4.375,0,0,0-2.473,2.456l-.323.81a.4.4,0,0,1-.749,0l-.318-.813a4.374,4.374,0,0,0-2.455-2.472l-.811-.323a.4.4,0,0,1,0-.749l.812-.317A4.375,4.375,0,0,0,575.874,749.461Z" transform="translate(-109.783 -589.587)" fill="none" stroke="rgba(246,246,246,0.45)" stroke-width="1"/>
      </g>
      <g id="Grupo_272-12" data-name="Grupo 272" transform="translate(30.162 28.261)">
        <path id="Caminho_1-47" data-name="Caminho 1" d="M525.35,691.9l1.261-3.165a.5.5,0,0,1,.927,0l1.239,3.174a9.878,9.878,0,0,0,5.547,5.586l3.165,1.261a.5.5,0,0,1,0,.927l-3.174,1.239a9.881,9.881,0,0,0-5.586,5.547l-1.261,3.165a.5.5,0,0,1-.927,0l-1.24-3.175a9.88,9.88,0,0,0-5.547-5.585l-3.165-1.261a.5.5,0,0,1,0-.927l3.172-1.239A9.886,9.886,0,0,0,525.35,691.9Z" transform="translate(-69.436 -546.418)" fill="none" stroke="rgba(246,246,246,0.45)" stroke-width="1"/>
        <path id="Caminho_2-47" data-name="Caminho 2" d="M575.874,749.461l.323-.811a.4.4,0,0,1,.749,0l.317.813a4.375,4.375,0,0,0,2.456,2.473l.81.323a.4.4,0,0,1,0,.75l-.812.317a4.375,4.375,0,0,0-2.473,2.456l-.323.81a.4.4,0,0,1-.749,0l-.318-.813a4.374,4.374,0,0,0-2.455-2.472l-.811-.323a.4.4,0,0,1,0-.749l.812-.317A4.375,4.375,0,0,0,575.874,749.461Z" transform="translate(-109.783 -589.587)" fill="none" stroke="rgba(246,246,246,0.45)" stroke-width="1"/>
      </g>
      <g id="Grupo_284-12" data-name="Grupo 284" transform="translate(88.162 28.261)">
        <path id="Caminho_1-48" data-name="Caminho 1" d="M525.35,691.9l1.261-3.165a.5.5,0,0,1,.927,0l1.239,3.174a9.878,9.878,0,0,0,5.547,5.586l3.165,1.261a.5.5,0,0,1,0,.927l-3.174,1.239a9.881,9.881,0,0,0-5.586,5.547l-1.261,3.165a.5.5,0,0,1-.927,0l-1.24-3.175a9.88,9.88,0,0,0-5.547-5.585l-3.165-1.261a.5.5,0,0,1,0-.927l3.172-1.239A9.886,9.886,0,0,0,525.35,691.9Z" transform="translate(-69.436 -546.418)" fill="none" stroke="rgba(246,246,246,0.45)" stroke-width="1"/>
        <path id="Caminho_2-48" data-name="Caminho 2" d="M575.874,749.461l.323-.811a.4.4,0,0,1,.749,0l.317.813a4.375,4.375,0,0,0,2.456,2.473l.81.323a.4.4,0,0,1,0,.75l-.812.317a4.375,4.375,0,0,0-2.473,2.456l-.323.81a.4.4,0,0,1-.749,0l-.318-.813a4.374,4.374,0,0,0-2.455-2.472l-.811-.323a.4.4,0,0,1,0-.749l.812-.317A4.375,4.375,0,0,0,575.874,749.461Z" transform="translate(-109.783 -589.587)" fill="none" stroke="rgba(246,246,246,0.45)" stroke-width="1"/>
      </g>
    </g>
    <g id="Grupo_274-13" data-name="Grupo 274" transform="translate(-186.5 -33.5)">
      <g id="Grupo_264-13" data-name="Grupo 264">
        <path id="Caminho_1-49" data-name="Caminho 1" d="M525.35,691.9l1.261-3.165a.5.5,0,0,1,.927,0l1.239,3.174a9.878,9.878,0,0,0,5.547,5.586l3.165,1.261a.5.5,0,0,1,0,.927l-3.174,1.239a9.881,9.881,0,0,0-5.586,5.547l-1.261,3.165a.5.5,0,0,1-.927,0l-1.24-3.175a9.88,9.88,0,0,0-5.547-5.585l-3.165-1.261a.5.5,0,0,1,0-.927l3.172-1.239A9.886,9.886,0,0,0,525.35,691.9Z" transform="translate(-69.436 -546.418)" fill="none" stroke="rgba(246,246,246,0.45)" stroke-width="1"/>
        <path id="Caminho_2-49" data-name="Caminho 2" d="M575.874,749.461l.323-.811a.4.4,0,0,1,.749,0l.317.813a4.375,4.375,0,0,0,2.456,2.473l.81.323a.4.4,0,0,1,0,.75l-.812.317a4.375,4.375,0,0,0-2.473,2.456l-.323.81a.4.4,0,0,1-.749,0l-.318-.813a4.374,4.374,0,0,0-2.455-2.472l-.811-.323a.4.4,0,0,1,0-.749l.812-.317A4.375,4.375,0,0,0,575.874,749.461Z" transform="translate(-109.783 -589.587)" fill="none" stroke="rgba(246,246,246,0.45)" stroke-width="1"/>
      </g>
      <g id="Grupo_273-13" data-name="Grupo 273" transform="translate(54.324)">
        <path id="Caminho_1-50" data-name="Caminho 1" d="M525.35,691.9l1.261-3.165a.5.5,0,0,1,.927,0l1.239,3.174a9.878,9.878,0,0,0,5.547,5.586l3.165,1.261a.5.5,0,0,1,0,.927l-3.174,1.239a9.881,9.881,0,0,0-5.586,5.547l-1.261,3.165a.5.5,0,0,1-.927,0l-1.24-3.175a9.88,9.88,0,0,0-5.547-5.585l-3.165-1.261a.5.5,0,0,1,0-.927l3.172-1.239A9.886,9.886,0,0,0,525.35,691.9Z" transform="translate(-69.436 -546.418)" fill="none" stroke="rgba(246,246,246,0.45)" stroke-width="1"/>
        <path id="Caminho_2-50" data-name="Caminho 2" d="M575.874,749.461l.323-.811a.4.4,0,0,1,.749,0l.317.813a4.375,4.375,0,0,0,2.456,2.473l.81.323a.4.4,0,0,1,0,.75l-.812.317a4.375,4.375,0,0,0-2.473,2.456l-.323.81a.4.4,0,0,1-.749,0l-.318-.813a4.374,4.374,0,0,0-2.455-2.472l-.811-.323a.4.4,0,0,1,0-.749l.812-.317A4.375,4.375,0,0,0,575.874,749.461Z" transform="translate(-109.783 -589.587)" fill="none" stroke="rgba(246,246,246,0.45)" stroke-width="1"/>
      </g>
      <g id="Grupo_272-13" data-name="Grupo 272" transform="translate(30.162 28.261)">
        <path id="Caminho_1-51" data-name="Caminho 1" d="M525.35,691.9l1.261-3.165a.5.5,0,0,1,.927,0l1.239,3.174a9.878,9.878,0,0,0,5.547,5.586l3.165,1.261a.5.5,0,0,1,0,.927l-3.174,1.239a9.881,9.881,0,0,0-5.586,5.547l-1.261,3.165a.5.5,0,0,1-.927,0l-1.24-3.175a9.88,9.88,0,0,0-5.547-5.585l-3.165-1.261a.5.5,0,0,1,0-.927l3.172-1.239A9.886,9.886,0,0,0,525.35,691.9Z" transform="translate(-69.436 -546.418)" fill="none" stroke="rgba(246,246,246,0.45)" stroke-width="1"/>
        <path id="Caminho_2-51" data-name="Caminho 2" d="M575.874,749.461l.323-.811a.4.4,0,0,1,.749,0l.317.813a4.375,4.375,0,0,0,2.456,2.473l.81.323a.4.4,0,0,1,0,.75l-.812.317a4.375,4.375,0,0,0-2.473,2.456l-.323.81a.4.4,0,0,1-.749,0l-.318-.813a4.374,4.374,0,0,0-2.455-2.472l-.811-.323a.4.4,0,0,1,0-.749l.812-.317A4.375,4.375,0,0,0,575.874,749.461Z" transform="translate(-109.783 -589.587)" fill="none" stroke="rgba(246,246,246,0.45)" stroke-width="1"/>
      </g>
      <g id="Grupo_284-13" data-name="Grupo 284" transform="translate(88.162 28.261)">
        <path id="Caminho_1-52" data-name="Caminho 1" d="M525.35,691.9l1.261-3.165a.5.5,0,0,1,.927,0l1.239,3.174a9.878,9.878,0,0,0,5.547,5.586l3.165,1.261a.5.5,0,0,1,0,.927l-3.174,1.239a9.881,9.881,0,0,0-5.586,5.547l-1.261,3.165a.5.5,0,0,1-.927,0l-1.24-3.175a9.88,9.88,0,0,0-5.547-5.585l-3.165-1.261a.5.5,0,0,1,0-.927l3.172-1.239A9.886,9.886,0,0,0,525.35,691.9Z" transform="translate(-69.436 -546.418)" fill="none" stroke="rgba(246,246,246,0.45)" stroke-width="1"/>
        <path id="Caminho_2-52" data-name="Caminho 2" d="M575.874,749.461l.323-.811a.4.4,0,0,1,.749,0l.317.813a4.375,4.375,0,0,0,2.456,2.473l.81.323a.4.4,0,0,1,0,.75l-.812.317a4.375,4.375,0,0,0-2.473,2.456l-.323.81a.4.4,0,0,1-.749,0l-.318-.813a4.374,4.374,0,0,0-2.455-2.472l-.811-.323a.4.4,0,0,1,0-.749l.812-.317A4.375,4.375,0,0,0,575.874,749.461Z" transform="translate(-109.783 -589.587)" fill="none" stroke="rgba(246,246,246,0.45)" stroke-width="1"/>
      </g>
    </g>
    <g id="Grupo_274-14" data-name="Grupo 274" transform="translate(-70.5 -33.5)">
      <g id="Grupo_264-14" data-name="Grupo 264">
        <path id="Caminho_1-53" data-name="Caminho 1" d="M525.35,691.9l1.261-3.165a.5.5,0,0,1,.927,0l1.239,3.174a9.878,9.878,0,0,0,5.547,5.586l3.165,1.261a.5.5,0,0,1,0,.927l-3.174,1.239a9.881,9.881,0,0,0-5.586,5.547l-1.261,3.165a.5.5,0,0,1-.927,0l-1.24-3.175a9.88,9.88,0,0,0-5.547-5.585l-3.165-1.261a.5.5,0,0,1,0-.927l3.172-1.239A9.886,9.886,0,0,0,525.35,691.9Z" transform="translate(-69.436 -546.418)" fill="none" stroke="rgba(246,246,246,0.45)" stroke-width="1"/>
        <path id="Caminho_2-53" data-name="Caminho 2" d="M575.874,749.461l.323-.811a.4.4,0,0,1,.749,0l.317.813a4.375,4.375,0,0,0,2.456,2.473l.81.323a.4.4,0,0,1,0,.75l-.812.317a4.375,4.375,0,0,0-2.473,2.456l-.323.81a.4.4,0,0,1-.749,0l-.318-.813a4.374,4.374,0,0,0-2.455-2.472l-.811-.323a.4.4,0,0,1,0-.749l.812-.317A4.375,4.375,0,0,0,575.874,749.461Z" transform="translate(-109.783 -589.587)" fill="none" stroke="rgba(246,246,246,0.45)" stroke-width="1"/>
      </g>
      <g id="Grupo_273-14" data-name="Grupo 273" transform="translate(54.324)">
        <path id="Caminho_1-54" data-name="Caminho 1" d="M525.35,691.9l1.261-3.165a.5.5,0,0,1,.927,0l1.239,3.174a9.878,9.878,0,0,0,5.547,5.586l3.165,1.261a.5.5,0,0,1,0,.927l-3.174,1.239a9.881,9.881,0,0,0-5.586,5.547l-1.261,3.165a.5.5,0,0,1-.927,0l-1.24-3.175a9.88,9.88,0,0,0-5.547-5.585l-3.165-1.261a.5.5,0,0,1,0-.927l3.172-1.239A9.886,9.886,0,0,0,525.35,691.9Z" transform="translate(-69.436 -546.418)" fill="none" stroke="rgba(246,246,246,0.45)" stroke-width="1"/>
        <path id="Caminho_2-54" data-name="Caminho 2" d="M575.874,749.461l.323-.811a.4.4,0,0,1,.749,0l.317.813a4.375,4.375,0,0,0,2.456,2.473l.81.323a.4.4,0,0,1,0,.75l-.812.317a4.375,4.375,0,0,0-2.473,2.456l-.323.81a.4.4,0,0,1-.749,0l-.318-.813a4.374,4.374,0,0,0-2.455-2.472l-.811-.323a.4.4,0,0,1,0-.749l.812-.317A4.375,4.375,0,0,0,575.874,749.461Z" transform="translate(-109.783 -589.587)" fill="none" stroke="rgba(246,246,246,0.45)" stroke-width="1"/>
      </g>
      <g id="Grupo_272-14" data-name="Grupo 272" transform="translate(30.162 28.261)">
        <path id="Caminho_1-55" data-name="Caminho 1" d="M525.35,691.9l1.261-3.165a.5.5,0,0,1,.927,0l1.239,3.174a9.878,9.878,0,0,0,5.547,5.586l3.165,1.261a.5.5,0,0,1,0,.927l-3.174,1.239a9.881,9.881,0,0,0-5.586,5.547l-1.261,3.165a.5.5,0,0,1-.927,0l-1.24-3.175a9.88,9.88,0,0,0-5.547-5.585l-3.165-1.261a.5.5,0,0,1,0-.927l3.172-1.239A9.886,9.886,0,0,0,525.35,691.9Z" transform="translate(-69.436 -546.418)" fill="none" stroke="rgba(246,246,246,0.45)" stroke-width="1"/>
        <path id="Caminho_2-55" data-name="Caminho 2" d="M575.874,749.461l.323-.811a.4.4,0,0,1,.749,0l.317.813a4.375,4.375,0,0,0,2.456,2.473l.81.323a.4.4,0,0,1,0,.75l-.812.317a4.375,4.375,0,0,0-2.473,2.456l-.323.81a.4.4,0,0,1-.749,0l-.318-.813a4.374,4.374,0,0,0-2.455-2.472l-.811-.323a.4.4,0,0,1,0-.749l.812-.317A4.375,4.375,0,0,0,575.874,749.461Z" transform="translate(-109.783 -589.587)" fill="none" stroke="rgba(246,246,246,0.45)" stroke-width="1"/>
      </g>
      <g id="Grupo_284-14" data-name="Grupo 284" transform="translate(88.162 28.261)">
        <path id="Caminho_1-56" data-name="Caminho 1" d="M525.35,691.9l1.261-3.165a.5.5,0,0,1,.927,0l1.239,3.174a9.878,9.878,0,0,0,5.547,5.586l3.165,1.261a.5.5,0,0,1,0,.927l-3.174,1.239a9.881,9.881,0,0,0-5.586,5.547l-1.261,3.165a.5.5,0,0,1-.927,0l-1.24-3.175a9.88,9.88,0,0,0-5.547-5.585l-3.165-1.261a.5.5,0,0,1,0-.927l3.172-1.239A9.886,9.886,0,0,0,525.35,691.9Z" transform="translate(-69.436 -546.418)" fill="none" stroke="rgba(246,246,246,0.45)" stroke-width="1"/>
        <path id="Caminho_2-56" data-name="Caminho 2" d="M575.874,749.461l.323-.811a.4.4,0,0,1,.749,0l.317.813a4.375,4.375,0,0,0,2.456,2.473l.81.323a.4.4,0,0,1,0,.75l-.812.317a4.375,4.375,0,0,0-2.473,2.456l-.323.81a.4.4,0,0,1-.749,0l-.318-.813a4.374,4.374,0,0,0-2.455-2.472l-.811-.323a.4.4,0,0,1,0-.749l.812-.317A4.375,4.375,0,0,0,575.874,749.461Z" transform="translate(-109.783 -589.587)" fill="none" stroke="rgba(246,246,246,0.45)" stroke-width="1"/>
      </g>
    </g>
    <g id="Grupo_274-15" data-name="Grupo 274" transform="translate(45.5 -33.5)">
      <g id="Grupo_264-15" data-name="Grupo 264">
        <path id="Caminho_1-57" data-name="Caminho 1" d="M525.35,691.9l1.261-3.165a.5.5,0,0,1,.927,0l1.239,3.174a9.878,9.878,0,0,0,5.547,5.586l3.165,1.261a.5.5,0,0,1,0,.927l-3.174,1.239a9.881,9.881,0,0,0-5.586,5.547l-1.261,3.165a.5.5,0,0,1-.927,0l-1.24-3.175a9.88,9.88,0,0,0-5.547-5.585l-3.165-1.261a.5.5,0,0,1,0-.927l3.172-1.239A9.886,9.886,0,0,0,525.35,691.9Z" transform="translate(-69.436 -546.418)" fill="none" stroke="rgba(246,246,246,0.45)" stroke-width="1"/>
        <path id="Caminho_2-57" data-name="Caminho 2" d="M575.874,749.461l.323-.811a.4.4,0,0,1,.749,0l.317.813a4.375,4.375,0,0,0,2.456,2.473l.81.323a.4.4,0,0,1,0,.75l-.812.317a4.375,4.375,0,0,0-2.473,2.456l-.323.81a.4.4,0,0,1-.749,0l-.318-.813a4.374,4.374,0,0,0-2.455-2.472l-.811-.323a.4.4,0,0,1,0-.749l.812-.317A4.375,4.375,0,0,0,575.874,749.461Z" transform="translate(-109.783 -589.587)" fill="none" stroke="rgba(246,246,246,0.45)" stroke-width="1"/>
      </g>
      <g id="Grupo_273-15" data-name="Grupo 273" transform="translate(54.324)">
        <path id="Caminho_1-58" data-name="Caminho 1" d="M525.35,691.9l1.261-3.165a.5.5,0,0,1,.927,0l1.239,3.174a9.878,9.878,0,0,0,5.547,5.586l3.165,1.261a.5.5,0,0,1,0,.927l-3.174,1.239a9.881,9.881,0,0,0-5.586,5.547l-1.261,3.165a.5.5,0,0,1-.927,0l-1.24-3.175a9.88,9.88,0,0,0-5.547-5.585l-3.165-1.261a.5.5,0,0,1,0-.927l3.172-1.239A9.886,9.886,0,0,0,525.35,691.9Z" transform="translate(-69.436 -546.418)" fill="none" stroke="rgba(246,246,246,0.45)" stroke-width="1"/>
        <path id="Caminho_2-58" data-name="Caminho 2" d="M575.874,749.461l.323-.811a.4.4,0,0,1,.749,0l.317.813a4.375,4.375,0,0,0,2.456,2.473l.81.323a.4.4,0,0,1,0,.75l-.812.317a4.375,4.375,0,0,0-2.473,2.456l-.323.81a.4.4,0,0,1-.749,0l-.318-.813a4.374,4.374,0,0,0-2.455-2.472l-.811-.323a.4.4,0,0,1,0-.749l.812-.317A4.375,4.375,0,0,0,575.874,749.461Z" transform="translate(-109.783 -589.587)" fill="none" stroke="rgba(246,246,246,0.45)" stroke-width="1"/>
      </g>
      <g id="Grupo_272-15" data-name="Grupo 272" transform="translate(30.162 28.261)">
        <path id="Caminho_1-59" data-name="Caminho 1" d="M525.35,691.9l1.261-3.165a.5.5,0,0,1,.927,0l1.239,3.174a9.878,9.878,0,0,0,5.547,5.586l3.165,1.261a.5.5,0,0,1,0,.927l-3.174,1.239a9.881,9.881,0,0,0-5.586,5.547l-1.261,3.165a.5.5,0,0,1-.927,0l-1.24-3.175a9.88,9.88,0,0,0-5.547-5.585l-3.165-1.261a.5.5,0,0,1,0-.927l3.172-1.239A9.886,9.886,0,0,0,525.35,691.9Z" transform="translate(-69.436 -546.418)" fill="none" stroke="rgba(246,246,246,0.45)" stroke-width="1"/>
        <path id="Caminho_2-59" data-name="Caminho 2" d="M575.874,749.461l.323-.811a.4.4,0,0,1,.749,0l.317.813a4.375,4.375,0,0,0,2.456,2.473l.81.323a.4.4,0,0,1,0,.75l-.812.317a4.375,4.375,0,0,0-2.473,2.456l-.323.81a.4.4,0,0,1-.749,0l-.318-.813a4.374,4.374,0,0,0-2.455-2.472l-.811-.323a.4.4,0,0,1,0-.749l.812-.317A4.375,4.375,0,0,0,575.874,749.461Z" transform="translate(-109.783 -589.587)" fill="none" stroke="rgba(246,246,246,0.45)" stroke-width="1"/>
      </g>
      <g id="Grupo_284-15" data-name="Grupo 284" transform="translate(88.162 28.261)">
        <path id="Caminho_1-60" data-name="Caminho 1" d="M525.35,691.9l1.261-3.165a.5.5,0,0,1,.927,0l1.239,3.174a9.878,9.878,0,0,0,5.547,5.586l3.165,1.261a.5.5,0,0,1,0,.927l-3.174,1.239a9.881,9.881,0,0,0-5.586,5.547l-1.261,3.165a.5.5,0,0,1-.927,0l-1.24-3.175a9.88,9.88,0,0,0-5.547-5.585l-3.165-1.261a.5.5,0,0,1,0-.927l3.172-1.239A9.886,9.886,0,0,0,525.35,691.9Z" transform="translate(-69.436 -546.418)" fill="none" stroke="rgba(246,246,246,0.45)" stroke-width="1"/>
        <path id="Caminho_2-60" data-name="Caminho 2" d="M575.874,749.461l.323-.811a.4.4,0,0,1,.749,0l.317.813a4.375,4.375,0,0,0,2.456,2.473l.81.323a.4.4,0,0,1,0,.75l-.812.317a4.375,4.375,0,0,0-2.473,2.456l-.323.81a.4.4,0,0,1-.749,0l-.318-.813a4.374,4.374,0,0,0-2.455-2.472l-.811-.323a.4.4,0,0,1,0-.749l.812-.317A4.375,4.375,0,0,0,575.874,749.461Z" transform="translate(-109.783 -589.587)" fill="none" stroke="rgba(246,246,246,0.45)" stroke-width="1"/>
      </g>
    </g>
    <g id="Grupo_274-16" data-name="Grupo 274" transform="translate(-418.5 20.5)">
      <g id="Grupo_264-16" data-name="Grupo 264">
        <path id="Caminho_1-61" data-name="Caminho 1" d="M525.35,691.9l1.261-3.165a.5.5,0,0,1,.927,0l1.239,3.174a9.878,9.878,0,0,0,5.547,5.586l3.165,1.261a.5.5,0,0,1,0,.927l-3.174,1.239a9.881,9.881,0,0,0-5.586,5.547l-1.261,3.165a.5.5,0,0,1-.927,0l-1.24-3.175a9.88,9.88,0,0,0-5.547-5.585l-3.165-1.261a.5.5,0,0,1,0-.927l3.172-1.239A9.886,9.886,0,0,0,525.35,691.9Z" transform="translate(-69.436 -546.418)" fill="none" stroke="rgba(246,246,246,0.45)" stroke-width="1"/>
        <path id="Caminho_2-61" data-name="Caminho 2" d="M575.874,749.461l.323-.811a.4.4,0,0,1,.749,0l.317.813a4.375,4.375,0,0,0,2.456,2.473l.81.323a.4.4,0,0,1,0,.75l-.812.317a4.375,4.375,0,0,0-2.473,2.456l-.323.81a.4.4,0,0,1-.749,0l-.318-.813a4.374,4.374,0,0,0-2.455-2.472l-.811-.323a.4.4,0,0,1,0-.749l.812-.317A4.375,4.375,0,0,0,575.874,749.461Z" transform="translate(-109.783 -589.587)" fill="none" stroke="rgba(246,246,246,0.45)" stroke-width="1"/>
      </g>
      <g id="Grupo_273-16" data-name="Grupo 273" transform="translate(54.324)">
        <path id="Caminho_1-62" data-name="Caminho 1" d="M525.35,691.9l1.261-3.165a.5.5,0,0,1,.927,0l1.239,3.174a9.878,9.878,0,0,0,5.547,5.586l3.165,1.261a.5.5,0,0,1,0,.927l-3.174,1.239a9.881,9.881,0,0,0-5.586,5.547l-1.261,3.165a.5.5,0,0,1-.927,0l-1.24-3.175a9.88,9.88,0,0,0-5.547-5.585l-3.165-1.261a.5.5,0,0,1,0-.927l3.172-1.239A9.886,9.886,0,0,0,525.35,691.9Z" transform="translate(-69.436 -546.418)" fill="none" stroke="rgba(246,246,246,0.45)" stroke-width="1"/>
        <path id="Caminho_2-62" data-name="Caminho 2" d="M575.874,749.461l.323-.811a.4.4,0,0,1,.749,0l.317.813a4.375,4.375,0,0,0,2.456,2.473l.81.323a.4.4,0,0,1,0,.75l-.812.317a4.375,4.375,0,0,0-2.473,2.456l-.323.81a.4.4,0,0,1-.749,0l-.318-.813a4.374,4.374,0,0,0-2.455-2.472l-.811-.323a.4.4,0,0,1,0-.749l.812-.317A4.375,4.375,0,0,0,575.874,749.461Z" transform="translate(-109.783 -589.587)" fill="none" stroke="rgba(246,246,246,0.45)" stroke-width="1"/>
      </g>
      <g id="Grupo_272-16" data-name="Grupo 272" transform="translate(30.162 28.261)">
        <path id="Caminho_1-63" data-name="Caminho 1" d="M525.35,691.9l1.261-3.165a.5.5,0,0,1,.927,0l1.239,3.174a9.878,9.878,0,0,0,5.547,5.586l3.165,1.261a.5.5,0,0,1,0,.927l-3.174,1.239a9.881,9.881,0,0,0-5.586,5.547l-1.261,3.165a.5.5,0,0,1-.927,0l-1.24-3.175a9.88,9.88,0,0,0-5.547-5.585l-3.165-1.261a.5.5,0,0,1,0-.927l3.172-1.239A9.886,9.886,0,0,0,525.35,691.9Z" transform="translate(-69.436 -546.418)" fill="none" stroke="rgba(246,246,246,0.45)" stroke-width="1"/>
        <path id="Caminho_2-63" data-name="Caminho 2" d="M575.874,749.461l.323-.811a.4.4,0,0,1,.749,0l.317.813a4.375,4.375,0,0,0,2.456,2.473l.81.323a.4.4,0,0,1,0,.75l-.812.317a4.375,4.375,0,0,0-2.473,2.456l-.323.81a.4.4,0,0,1-.749,0l-.318-.813a4.374,4.374,0,0,0-2.455-2.472l-.811-.323a.4.4,0,0,1,0-.749l.812-.317A4.375,4.375,0,0,0,575.874,749.461Z" transform="translate(-109.783 -589.587)" fill="none" stroke="rgba(246,246,246,0.45)" stroke-width="1"/>
      </g>
      <g id="Grupo_284-16" data-name="Grupo 284" transform="translate(88.162 28.261)">
        <path id="Caminho_1-64" data-name="Caminho 1" d="M525.35,691.9l1.261-3.165a.5.5,0,0,1,.927,0l1.239,3.174a9.878,9.878,0,0,0,5.547,5.586l3.165,1.261a.5.5,0,0,1,0,.927l-3.174,1.239a9.881,9.881,0,0,0-5.586,5.547l-1.261,3.165a.5.5,0,0,1-.927,0l-1.24-3.175a9.88,9.88,0,0,0-5.547-5.585l-3.165-1.261a.5.5,0,0,1,0-.927l3.172-1.239A9.886,9.886,0,0,0,525.35,691.9Z" transform="translate(-69.436 -546.418)" fill="none" stroke="rgba(246,246,246,0.45)" stroke-width="1"/>
        <path id="Caminho_2-64" data-name="Caminho 2" d="M575.874,749.461l.323-.811a.4.4,0,0,1,.749,0l.317.813a4.375,4.375,0,0,0,2.456,2.473l.81.323a.4.4,0,0,1,0,.75l-.812.317a4.375,4.375,0,0,0-2.473,2.456l-.323.81a.4.4,0,0,1-.749,0l-.318-.813a4.374,4.374,0,0,0-2.455-2.472l-.811-.323a.4.4,0,0,1,0-.749l.812-.317A4.375,4.375,0,0,0,575.874,749.461Z" transform="translate(-109.783 -589.587)" fill="none" stroke="rgba(246,246,246,0.45)" stroke-width="1"/>
      </g>
    </g>
    <g id="Grupo_274-17" data-name="Grupo 274" transform="translate(-302.5 20.5)">
      <g id="Grupo_264-17" data-name="Grupo 264">
        <path id="Caminho_1-65" data-name="Caminho 1" d="M525.35,691.9l1.261-3.165a.5.5,0,0,1,.927,0l1.239,3.174a9.878,9.878,0,0,0,5.547,5.586l3.165,1.261a.5.5,0,0,1,0,.927l-3.174,1.239a9.881,9.881,0,0,0-5.586,5.547l-1.261,3.165a.5.5,0,0,1-.927,0l-1.24-3.175a9.88,9.88,0,0,0-5.547-5.585l-3.165-1.261a.5.5,0,0,1,0-.927l3.172-1.239A9.886,9.886,0,0,0,525.35,691.9Z" transform="translate(-69.436 -546.418)" fill="none" stroke="rgba(246,246,246,0.45)" stroke-width="1"/>
        <path id="Caminho_2-65" data-name="Caminho 2" d="M575.874,749.461l.323-.811a.4.4,0,0,1,.749,0l.317.813a4.375,4.375,0,0,0,2.456,2.473l.81.323a.4.4,0,0,1,0,.75l-.812.317a4.375,4.375,0,0,0-2.473,2.456l-.323.81a.4.4,0,0,1-.749,0l-.318-.813a4.374,4.374,0,0,0-2.455-2.472l-.811-.323a.4.4,0,0,1,0-.749l.812-.317A4.375,4.375,0,0,0,575.874,749.461Z" transform="translate(-109.783 -589.587)" fill="none" stroke="rgba(246,246,246,0.45)" stroke-width="1"/>
      </g>
      <g id="Grupo_273-17" data-name="Grupo 273" transform="translate(54.324)">
        <path id="Caminho_1-66" data-name="Caminho 1" d="M525.35,691.9l1.261-3.165a.5.5,0,0,1,.927,0l1.239,3.174a9.878,9.878,0,0,0,5.547,5.586l3.165,1.261a.5.5,0,0,1,0,.927l-3.174,1.239a9.881,9.881,0,0,0-5.586,5.547l-1.261,3.165a.5.5,0,0,1-.927,0l-1.24-3.175a9.88,9.88,0,0,0-5.547-5.585l-3.165-1.261a.5.5,0,0,1,0-.927l3.172-1.239A9.886,9.886,0,0,0,525.35,691.9Z" transform="translate(-69.436 -546.418)" fill="none" stroke="rgba(246,246,246,0.45)" stroke-width="1"/>
        <path id="Caminho_2-66" data-name="Caminho 2" d="M575.874,749.461l.323-.811a.4.4,0,0,1,.749,0l.317.813a4.375,4.375,0,0,0,2.456,2.473l.81.323a.4.4,0,0,1,0,.75l-.812.317a4.375,4.375,0,0,0-2.473,2.456l-.323.81a.4.4,0,0,1-.749,0l-.318-.813a4.374,4.374,0,0,0-2.455-2.472l-.811-.323a.4.4,0,0,1,0-.749l.812-.317A4.375,4.375,0,0,0,575.874,749.461Z" transform="translate(-109.783 -589.587)" fill="none" stroke="rgba(246,246,246,0.45)" stroke-width="1"/>
      </g>
      <g id="Grupo_272-17" data-name="Grupo 272" transform="translate(30.162 28.261)">
        <path id="Caminho_1-67" data-name="Caminho 1" d="M525.35,691.9l1.261-3.165a.5.5,0,0,1,.927,0l1.239,3.174a9.878,9.878,0,0,0,5.547,5.586l3.165,1.261a.5.5,0,0,1,0,.927l-3.174,1.239a9.881,9.881,0,0,0-5.586,5.547l-1.261,3.165a.5.5,0,0,1-.927,0l-1.24-3.175a9.88,9.88,0,0,0-5.547-5.585l-3.165-1.261a.5.5,0,0,1,0-.927l3.172-1.239A9.886,9.886,0,0,0,525.35,691.9Z" transform="translate(-69.436 -546.418)" fill="none" stroke="rgba(246,246,246,0.45)" stroke-width="1"/>
        <path id="Caminho_2-67" data-name="Caminho 2" d="M575.874,749.461l.323-.811a.4.4,0,0,1,.749,0l.317.813a4.375,4.375,0,0,0,2.456,2.473l.81.323a.4.4,0,0,1,0,.75l-.812.317a4.375,4.375,0,0,0-2.473,2.456l-.323.81a.4.4,0,0,1-.749,0l-.318-.813a4.374,4.374,0,0,0-2.455-2.472l-.811-.323a.4.4,0,0,1,0-.749l.812-.317A4.375,4.375,0,0,0,575.874,749.461Z" transform="translate(-109.783 -589.587)" fill="none" stroke="rgba(246,246,246,0.45)" stroke-width="1"/>
      </g>
      <g id="Grupo_284-17" data-name="Grupo 284" transform="translate(88.162 28.261)">
        <path id="Caminho_1-68" data-name="Caminho 1" d="M525.35,691.9l1.261-3.165a.5.5,0,0,1,.927,0l1.239,3.174a9.878,9.878,0,0,0,5.547,5.586l3.165,1.261a.5.5,0,0,1,0,.927l-3.174,1.239a9.881,9.881,0,0,0-5.586,5.547l-1.261,3.165a.5.5,0,0,1-.927,0l-1.24-3.175a9.88,9.88,0,0,0-5.547-5.585l-3.165-1.261a.5.5,0,0,1,0-.927l3.172-1.239A9.886,9.886,0,0,0,525.35,691.9Z" transform="translate(-69.436 -546.418)" fill="none" stroke="rgba(246,246,246,0.45)" stroke-width="1"/>
        <path id="Caminho_2-68" data-name="Caminho 2" d="M575.874,749.461l.323-.811a.4.4,0,0,1,.749,0l.317.813a4.375,4.375,0,0,0,2.456,2.473l.81.323a.4.4,0,0,1,0,.75l-.812.317a4.375,4.375,0,0,0-2.473,2.456l-.323.81a.4.4,0,0,1-.749,0l-.318-.813a4.374,4.374,0,0,0-2.455-2.472l-.811-.323a.4.4,0,0,1,0-.749l.812-.317A4.375,4.375,0,0,0,575.874,749.461Z" transform="translate(-109.783 -589.587)" fill="none" stroke="rgba(246,246,246,0.45)" stroke-width="1"/>
      </g>
    </g>
    <g id="Grupo_274-18" data-name="Grupo 274" transform="translate(-186.5 20.5)">
      <g id="Grupo_264-18" data-name="Grupo 264">
        <path id="Caminho_1-69" data-name="Caminho 1" d="M525.35,691.9l1.261-3.165a.5.5,0,0,1,.927,0l1.239,3.174a9.878,9.878,0,0,0,5.547,5.586l3.165,1.261a.5.5,0,0,1,0,.927l-3.174,1.239a9.881,9.881,0,0,0-5.586,5.547l-1.261,3.165a.5.5,0,0,1-.927,0l-1.24-3.175a9.88,9.88,0,0,0-5.547-5.585l-3.165-1.261a.5.5,0,0,1,0-.927l3.172-1.239A9.886,9.886,0,0,0,525.35,691.9Z" transform="translate(-69.436 -546.418)" fill="none" stroke="rgba(246,246,246,0.45)" stroke-width="1"/>
        <path id="Caminho_2-69" data-name="Caminho 2" d="M575.874,749.461l.323-.811a.4.4,0,0,1,.749,0l.317.813a4.375,4.375,0,0,0,2.456,2.473l.81.323a.4.4,0,0,1,0,.75l-.812.317a4.375,4.375,0,0,0-2.473,2.456l-.323.81a.4.4,0,0,1-.749,0l-.318-.813a4.374,4.374,0,0,0-2.455-2.472l-.811-.323a.4.4,0,0,1,0-.749l.812-.317A4.375,4.375,0,0,0,575.874,749.461Z" transform="translate(-109.783 -589.587)" fill="none" stroke="rgba(246,246,246,0.45)" stroke-width="1"/>
      </g>
      <g id="Grupo_273-18" data-name="Grupo 273" transform="translate(54.324)">
        <path id="Caminho_1-70" data-name="Caminho 1" d="M525.35,691.9l1.261-3.165a.5.5,0,0,1,.927,0l1.239,3.174a9.878,9.878,0,0,0,5.547,5.586l3.165,1.261a.5.5,0,0,1,0,.927l-3.174,1.239a9.881,9.881,0,0,0-5.586,5.547l-1.261,3.165a.5.5,0,0,1-.927,0l-1.24-3.175a9.88,9.88,0,0,0-5.547-5.585l-3.165-1.261a.5.5,0,0,1,0-.927l3.172-1.239A9.886,9.886,0,0,0,525.35,691.9Z" transform="translate(-69.436 -546.418)" fill="none" stroke="rgba(246,246,246,0.45)" stroke-width="1"/>
        <path id="Caminho_2-70" data-name="Caminho 2" d="M575.874,749.461l.323-.811a.4.4,0,0,1,.749,0l.317.813a4.375,4.375,0,0,0,2.456,2.473l.81.323a.4.4,0,0,1,0,.75l-.812.317a4.375,4.375,0,0,0-2.473,2.456l-.323.81a.4.4,0,0,1-.749,0l-.318-.813a4.374,4.374,0,0,0-2.455-2.472l-.811-.323a.4.4,0,0,1,0-.749l.812-.317A4.375,4.375,0,0,0,575.874,749.461Z" transform="translate(-109.783 -589.587)" fill="none" stroke="rgba(246,246,246,0.45)" stroke-width="1"/>
      </g>
      <g id="Grupo_272-18" data-name="Grupo 272" transform="translate(30.162 28.261)">
        <path id="Caminho_1-71" data-name="Caminho 1" d="M525.35,691.9l1.261-3.165a.5.5,0,0,1,.927,0l1.239,3.174a9.878,9.878,0,0,0,5.547,5.586l3.165,1.261a.5.5,0,0,1,0,.927l-3.174,1.239a9.881,9.881,0,0,0-5.586,5.547l-1.261,3.165a.5.5,0,0,1-.927,0l-1.24-3.175a9.88,9.88,0,0,0-5.547-5.585l-3.165-1.261a.5.5,0,0,1,0-.927l3.172-1.239A9.886,9.886,0,0,0,525.35,691.9Z" transform="translate(-69.436 -546.418)" fill="none" stroke="rgba(246,246,246,0.45)" stroke-width="1"/>
        <path id="Caminho_2-71" data-name="Caminho 2" d="M575.874,749.461l.323-.811a.4.4,0,0,1,.749,0l.317.813a4.375,4.375,0,0,0,2.456,2.473l.81.323a.4.4,0,0,1,0,.75l-.812.317a4.375,4.375,0,0,0-2.473,2.456l-.323.81a.4.4,0,0,1-.749,0l-.318-.813a4.374,4.374,0,0,0-2.455-2.472l-.811-.323a.4.4,0,0,1,0-.749l.812-.317A4.375,4.375,0,0,0,575.874,749.461Z" transform="translate(-109.783 -589.587)" fill="none" stroke="rgba(246,246,246,0.45)" stroke-width="1"/>
      </g>
      <g id="Grupo_284-18" data-name="Grupo 284" transform="translate(88.162 28.261)">
        <path id="Caminho_1-72" data-name="Caminho 1" d="M525.35,691.9l1.261-3.165a.5.5,0,0,1,.927,0l1.239,3.174a9.878,9.878,0,0,0,5.547,5.586l3.165,1.261a.5.5,0,0,1,0,.927l-3.174,1.239a9.881,9.881,0,0,0-5.586,5.547l-1.261,3.165a.5.5,0,0,1-.927,0l-1.24-3.175a9.88,9.88,0,0,0-5.547-5.585l-3.165-1.261a.5.5,0,0,1,0-.927l3.172-1.239A9.886,9.886,0,0,0,525.35,691.9Z" transform="translate(-69.436 -546.418)" fill="none" stroke="rgba(246,246,246,0.45)" stroke-width="1"/>
        <path id="Caminho_2-72" data-name="Caminho 2" d="M575.874,749.461l.323-.811a.4.4,0,0,1,.749,0l.317.813a4.375,4.375,0,0,0,2.456,2.473l.81.323a.4.4,0,0,1,0,.75l-.812.317a4.375,4.375,0,0,0-2.473,2.456l-.323.81a.4.4,0,0,1-.749,0l-.318-.813a4.374,4.374,0,0,0-2.455-2.472l-.811-.323a.4.4,0,0,1,0-.749l.812-.317A4.375,4.375,0,0,0,575.874,749.461Z" transform="translate(-109.783 -589.587)" fill="none" stroke="rgba(246,246,246,0.45)" stroke-width="1"/>
      </g>
    </g>
    <g id="Grupo_274-19" data-name="Grupo 274" transform="translate(-70.5 20.5)">
      <g id="Grupo_264-19" data-name="Grupo 264">
        <path id="Caminho_1-73" data-name="Caminho 1" d="M525.35,691.9l1.261-3.165a.5.5,0,0,1,.927,0l1.239,3.174a9.878,9.878,0,0,0,5.547,5.586l3.165,1.261a.5.5,0,0,1,0,.927l-3.174,1.239a9.881,9.881,0,0,0-5.586,5.547l-1.261,3.165a.5.5,0,0,1-.927,0l-1.24-3.175a9.88,9.88,0,0,0-5.547-5.585l-3.165-1.261a.5.5,0,0,1,0-.927l3.172-1.239A9.886,9.886,0,0,0,525.35,691.9Z" transform="translate(-69.436 -546.418)" fill="none" stroke="rgba(246,246,246,0.45)" stroke-width="1"/>
        <path id="Caminho_2-73" data-name="Caminho 2" d="M575.874,749.461l.323-.811a.4.4,0,0,1,.749,0l.317.813a4.375,4.375,0,0,0,2.456,2.473l.81.323a.4.4,0,0,1,0,.75l-.812.317a4.375,4.375,0,0,0-2.473,2.456l-.323.81a.4.4,0,0,1-.749,0l-.318-.813a4.374,4.374,0,0,0-2.455-2.472l-.811-.323a.4.4,0,0,1,0-.749l.812-.317A4.375,4.375,0,0,0,575.874,749.461Z" transform="translate(-109.783 -589.587)" fill="none" stroke="rgba(246,246,246,0.45)" stroke-width="1"/>
      </g>
      <g id="Grupo_273-19" data-name="Grupo 273" transform="translate(54.324)">
        <path id="Caminho_1-74" data-name="Caminho 1" d="M525.35,691.9l1.261-3.165a.5.5,0,0,1,.927,0l1.239,3.174a9.878,9.878,0,0,0,5.547,5.586l3.165,1.261a.5.5,0,0,1,0,.927l-3.174,1.239a9.881,9.881,0,0,0-5.586,5.547l-1.261,3.165a.5.5,0,0,1-.927,0l-1.24-3.175a9.88,9.88,0,0,0-5.547-5.585l-3.165-1.261a.5.5,0,0,1,0-.927l3.172-1.239A9.886,9.886,0,0,0,525.35,691.9Z" transform="translate(-69.436 -546.418)" fill="none" stroke="rgba(246,246,246,0.45)" stroke-width="1"/>
        <path id="Caminho_2-74" data-name="Caminho 2" d="M575.874,749.461l.323-.811a.4.4,0,0,1,.749,0l.317.813a4.375,4.375,0,0,0,2.456,2.473l.81.323a.4.4,0,0,1,0,.75l-.812.317a4.375,4.375,0,0,0-2.473,2.456l-.323.81a.4.4,0,0,1-.749,0l-.318-.813a4.374,4.374,0,0,0-2.455-2.472l-.811-.323a.4.4,0,0,1,0-.749l.812-.317A4.375,4.375,0,0,0,575.874,749.461Z" transform="translate(-109.783 -589.587)" fill="none" stroke="rgba(246,246,246,0.45)" stroke-width="1"/>
      </g>
      <g id="Grupo_272-19" data-name="Grupo 272" transform="translate(30.162 28.261)">
        <path id="Caminho_1-75" data-name="Caminho 1" d="M525.35,691.9l1.261-3.165a.5.5,0,0,1,.927,0l1.239,3.174a9.878,9.878,0,0,0,5.547,5.586l3.165,1.261a.5.5,0,0,1,0,.927l-3.174,1.239a9.881,9.881,0,0,0-5.586,5.547l-1.261,3.165a.5.5,0,0,1-.927,0l-1.24-3.175a9.88,9.88,0,0,0-5.547-5.585l-3.165-1.261a.5.5,0,0,1,0-.927l3.172-1.239A9.886,9.886,0,0,0,525.35,691.9Z" transform="translate(-69.436 -546.418)" fill="none" stroke="rgba(246,246,246,0.45)" stroke-width="1"/>
        <path id="Caminho_2-75" data-name="Caminho 2" d="M575.874,749.461l.323-.811a.4.4,0,0,1,.749,0l.317.813a4.375,4.375,0,0,0,2.456,2.473l.81.323a.4.4,0,0,1,0,.75l-.812.317a4.375,4.375,0,0,0-2.473,2.456l-.323.81a.4.4,0,0,1-.749,0l-.318-.813a4.374,4.374,0,0,0-2.455-2.472l-.811-.323a.4.4,0,0,1,0-.749l.812-.317A4.375,4.375,0,0,0,575.874,749.461Z" transform="translate(-109.783 -589.587)" fill="none" stroke="rgba(246,246,246,0.45)" stroke-width="1"/>
      </g>
      <g id="Grupo_284-19" data-name="Grupo 284" transform="translate(88.162 28.261)">
        <path id="Caminho_1-76" data-name="Caminho 1" d="M525.35,691.9l1.261-3.165a.5.5,0,0,1,.927,0l1.239,3.174a9.878,9.878,0,0,0,5.547,5.586l3.165,1.261a.5.5,0,0,1,0,.927l-3.174,1.239a9.881,9.881,0,0,0-5.586,5.547l-1.261,3.165a.5.5,0,0,1-.927,0l-1.24-3.175a9.88,9.88,0,0,0-5.547-5.585l-3.165-1.261a.5.5,0,0,1,0-.927l3.172-1.239A9.886,9.886,0,0,0,525.35,691.9Z" transform="translate(-69.436 -546.418)" fill="none" stroke="rgba(246,246,246,0.45)" stroke-width="1"/>
        <path id="Caminho_2-76" data-name="Caminho 2" d="M575.874,749.461l.323-.811a.4.4,0,0,1,.749,0l.317.813a4.375,4.375,0,0,0,2.456,2.473l.81.323a.4.4,0,0,1,0,.75l-.812.317a4.375,4.375,0,0,0-2.473,2.456l-.323.81a.4.4,0,0,1-.749,0l-.318-.813a4.374,4.374,0,0,0-2.455-2.472l-.811-.323a.4.4,0,0,1,0-.749l.812-.317A4.375,4.375,0,0,0,575.874,749.461Z" transform="translate(-109.783 -589.587)" fill="none" stroke="rgba(246,246,246,0.45)" stroke-width="1"/>
      </g>
    </g>
    <g id="Grupo_274-20" data-name="Grupo 274" transform="translate(45.5 20.5)">
      <g id="Grupo_264-20" data-name="Grupo 264">
        <path id="Caminho_1-77" data-name="Caminho 1" d="M525.35,691.9l1.261-3.165a.5.5,0,0,1,.927,0l1.239,3.174a9.878,9.878,0,0,0,5.547,5.586l3.165,1.261a.5.5,0,0,1,0,.927l-3.174,1.239a9.881,9.881,0,0,0-5.586,5.547l-1.261,3.165a.5.5,0,0,1-.927,0l-1.24-3.175a9.88,9.88,0,0,0-5.547-5.585l-3.165-1.261a.5.5,0,0,1,0-.927l3.172-1.239A9.886,9.886,0,0,0,525.35,691.9Z" transform="translate(-69.436 -546.418)" fill="none" stroke="rgba(246,246,246,0.45)" stroke-width="1"/>
        <path id="Caminho_2-77" data-name="Caminho 2" d="M575.874,749.461l.323-.811a.4.4,0,0,1,.749,0l.317.813a4.375,4.375,0,0,0,2.456,2.473l.81.323a.4.4,0,0,1,0,.75l-.812.317a4.375,4.375,0,0,0-2.473,2.456l-.323.81a.4.4,0,0,1-.749,0l-.318-.813a4.374,4.374,0,0,0-2.455-2.472l-.811-.323a.4.4,0,0,1,0-.749l.812-.317A4.375,4.375,0,0,0,575.874,749.461Z" transform="translate(-109.783 -589.587)" fill="none" stroke="rgba(246,246,246,0.45)" stroke-width="1"/>
      </g>
      <g id="Grupo_273-20" data-name="Grupo 273" transform="translate(54.324)">
        <path id="Caminho_1-78" data-name="Caminho 1" d="M525.35,691.9l1.261-3.165a.5.5,0,0,1,.927,0l1.239,3.174a9.878,9.878,0,0,0,5.547,5.586l3.165,1.261a.5.5,0,0,1,0,.927l-3.174,1.239a9.881,9.881,0,0,0-5.586,5.547l-1.261,3.165a.5.5,0,0,1-.927,0l-1.24-3.175a9.88,9.88,0,0,0-5.547-5.585l-3.165-1.261a.5.5,0,0,1,0-.927l3.172-1.239A9.886,9.886,0,0,0,525.35,691.9Z" transform="translate(-69.436 -546.418)" fill="none" stroke="rgba(246,246,246,0.45)" stroke-width="1"/>
        <path id="Caminho_2-78" data-name="Caminho 2" d="M575.874,749.461l.323-.811a.4.4,0,0,1,.749,0l.317.813a4.375,4.375,0,0,0,2.456,2.473l.81.323a.4.4,0,0,1,0,.75l-.812.317a4.375,4.375,0,0,0-2.473,2.456l-.323.81a.4.4,0,0,1-.749,0l-.318-.813a4.374,4.374,0,0,0-2.455-2.472l-.811-.323a.4.4,0,0,1,0-.749l.812-.317A4.375,4.375,0,0,0,575.874,749.461Z" transform="translate(-109.783 -589.587)" fill="none" stroke="rgba(246,246,246,0.45)" stroke-width="1"/>
      </g>
      <g id="Grupo_272-20" data-name="Grupo 272" transform="translate(30.162 28.261)">
        <path id="Caminho_1-79" data-name="Caminho 1" d="M525.35,691.9l1.261-3.165a.5.5,0,0,1,.927,0l1.239,3.174a9.878,9.878,0,0,0,5.547,5.586l3.165,1.261a.5.5,0,0,1,0,.927l-3.174,1.239a9.881,9.881,0,0,0-5.586,5.547l-1.261,3.165a.5.5,0,0,1-.927,0l-1.24-3.175a9.88,9.88,0,0,0-5.547-5.585l-3.165-1.261a.5.5,0,0,1,0-.927l3.172-1.239A9.886,9.886,0,0,0,525.35,691.9Z" transform="translate(-69.436 -546.418)" fill="none" stroke="rgba(246,246,246,0.45)" stroke-width="1"/>
        <path id="Caminho_2-79" data-name="Caminho 2" d="M575.874,749.461l.323-.811a.4.4,0,0,1,.749,0l.317.813a4.375,4.375,0,0,0,2.456,2.473l.81.323a.4.4,0,0,1,0,.75l-.812.317a4.375,4.375,0,0,0-2.473,2.456l-.323.81a.4.4,0,0,1-.749,0l-.318-.813a4.374,4.374,0,0,0-2.455-2.472l-.811-.323a.4.4,0,0,1,0-.749l.812-.317A4.375,4.375,0,0,0,575.874,749.461Z" transform="translate(-109.783 -589.587)" fill="none" stroke="rgba(246,246,246,0.45)" stroke-width="1"/>
      </g>
      <g id="Grupo_284-20" data-name="Grupo 284" transform="translate(88.162 28.261)">
        <path id="Caminho_1-80" data-name="Caminho 1" d="M525.35,691.9l1.261-3.165a.5.5,0,0,1,.927,0l1.239,3.174a9.878,9.878,0,0,0,5.547,5.586l3.165,1.261a.5.5,0,0,1,0,.927l-3.174,1.239a9.881,9.881,0,0,0-5.586,5.547l-1.261,3.165a.5.5,0,0,1-.927,0l-1.24-3.175a9.88,9.88,0,0,0-5.547-5.585l-3.165-1.261a.5.5,0,0,1,0-.927l3.172-1.239A9.886,9.886,0,0,0,525.35,691.9Z" transform="translate(-69.436 -546.418)" fill="none" stroke="rgba(246,246,246,0.45)" stroke-width="1"/>
        <path id="Caminho_2-80" data-name="Caminho 2" d="M575.874,749.461l.323-.811a.4.4,0,0,1,.749,0l.317.813a4.375,4.375,0,0,0,2.456,2.473l.81.323a.4.4,0,0,1,0,.75l-.812.317a4.375,4.375,0,0,0-2.473,2.456l-.323.81a.4.4,0,0,1-.749,0l-.318-.813a4.374,4.374,0,0,0-2.455-2.472l-.811-.323a.4.4,0,0,1,0-.749l.812-.317A4.375,4.375,0,0,0,575.874,749.461Z" transform="translate(-109.783 -589.587)" fill="none" stroke="rgba(246,246,246,0.45)" stroke-width="1"/>
      </g>
    </g>
  </g>
</svg>
