<?xml version="1.0" encoding="utf-8"?>
<!-- Generator: Adobe Illustrator 25.0.1, SVG Export Plug-In . SVG Version: 6.00 Build 0)  -->
<svg version="1.1" id="Camada_1" xmlns="http://www.w3.org/2000/svg" xmlns:xlink="http://www.w3.org/1999/xlink" x="0px" y="0px"
	 viewBox="0 0 336.2 267.8" style="enable-background:new 0 0 336.2 267.8;" xml:space="preserve">
<style type="text/css">
	.st0{fill:#0D2C54;}
	.st1{fill:#2E85EC;}
</style>
<g>
	<g>
		<g>
			<path class="st0" d="M87.1,201.6c13.5,0,24-2.4,31.7-7.1c7.7-4.7,11.5-11.6,11.5-20.6c0-8.3-3.5-14.7-10.4-19.2
				s-17.4-8.4-31.6-11.9c-22.1-5.7-37.9-12.5-47.5-20.6c-9.6-8-14.4-19.5-14.4-34.6c0-14.3,5.5-25.8,16.4-34.3
				c11-8.5,27-12.8,48-12.8c21.7,0,38.8,3.3,51.3,9.8c5.5,2.9,8.3,7.9,8.3,14.8c0,4.5-1.4,9.7-4.1,15.5
				c-15.2-9.5-33.2-14.2-54.1-14.2C68,66.5,56,73.4,56,87.2c0,7.6,2.9,13.3,8.7,17.2c5.8,3.9,16.2,7.8,31.2,11.8
				c20.9,5.2,36.7,12.1,47.5,20.8s16.2,20.8,16.2,36.4c0,17.9-6.4,31.4-19.3,40.4s-30.7,13.5-53.4,13.5c-9.5,0-19.2-1.1-29-3.2
				S40,219.3,34,216.4c-5.5-2.6-8.3-7.6-8.3-15c0-5.9,1.3-11.4,3.9-16.6c7.1,5,15.9,9.1,26.5,12.2C66.7,200.1,77,201.6,87.1,201.6z"
				/>
		</g>
	</g>
	<path class="st1" d="M222.7,78.7l7.4-18.6c1-2.5,4.5-2.5,5.4,0l7.3,18.6c5.8,15,17.6,26.8,32.5,32.8l18.6,7.4c2.5,1,2.5,4.5,0,5.4
		l-18.6,7.3c-15,5.8-26.8,17.6-32.8,32.5l-7.4,18.6c-1,2.5-4.5,2.5-5.4,0l-7.3-18.6c-5.8-15-17.6-26.8-32.5-32.8l-18.6-7.4
		c-2.5-1-2.5-4.5,0-5.4l18.6-7.3C204.9,105.4,216.8,93.6,222.7,78.7z"/>
	<path class="st1" d="M282.4,163.1l1.9-4.8c0.8-2,3.6-2,4.4,0l1.9,4.8c2.6,6.6,7.8,11.9,14.4,14.5l4.8,1.9c2,0.8,2,3.6,0,4.4
		l-4.8,1.9c-6.6,2.6-11.9,7.8-14.5,14.4l-1.9,4.8c-0.8,2-3.6,2-4.4,0l-1.9-4.8c-2.6-6.6-7.8-11.9-14.4-14.5l-4.8-1.9
		c-2-0.8-2-3.6,0-4.4l4.8-1.9C274.5,175,279.8,169.7,282.4,163.1z"/>
</g>
</svg>
