<svg width="184" height="151" viewBox="0 0 184 151" fill="none" xmlns="http://www.w3.org/2000/svg">
<path d="M30.2338 57.5962C30.2338 62.6633 28.9952 66.717 26.5179 69.7573C24.1532 72.6849 21.2256 74.5429 17.7349 75.3311C21.2256 76.2319 24.1532 78.2025 26.5179 81.2427C28.9952 84.283 30.2338 88.2804 30.2338 93.2349V126.509C30.2338 130.9 31.2472 134.222 33.274 136.474C35.3009 138.839 38.0597 140.021 41.5503 140.021H50.1644V151H40.1991C32.5421 151 26.6868 149.029 22.6331 145.088C18.5794 141.147 16.5526 135.461 16.5526 128.029V95.5995C16.5526 90.645 15.6518 86.9855 13.8501 84.6208C12.1611 82.2561 9.1208 80.6234 4.72931 79.7226L0 78.5403V72.2908L4.72931 71.1085C9.1208 70.2077 12.1611 68.5749 13.8501 66.2103C15.6518 63.8456 16.5526 60.1861 16.5526 55.2315V22.9709C16.5526 15.6517 18.692 10.0216 22.9709 6.08053C27.2498 2.02684 32.9925 0 40.1991 0H50.1644V10.8098H41.5503C38.0597 10.8098 35.3009 11.9922 33.274 14.3568C31.2472 16.7215 30.2338 20.0996 30.2338 24.491V57.5962Z" fill="#F7FBFF"/>
<path d="M152.811 57.5962C152.811 62.6633 154.05 66.717 156.527 69.7573C158.891 72.6849 161.819 74.5429 165.31 75.3311C161.819 76.2319 158.891 78.2025 156.527 81.2427C154.05 84.283 152.811 88.2804 152.811 93.2349V126.509C152.811 130.9 151.797 134.222 149.771 136.474C147.744 138.839 144.985 140.021 141.494 140.021H132.88V151H142.846C150.503 151 156.358 149.029 160.412 145.088C164.465 141.147 166.492 135.461 166.492 128.029V95.5995C166.492 90.645 167.393 86.9855 169.195 84.6208C170.884 82.2561 173.924 80.6234 178.315 79.7226L183.045 78.5403V72.2908L178.315 71.1085C173.924 70.2077 170.884 68.5749 169.195 66.2103C167.393 63.8456 166.492 60.1861 166.492 55.2315V22.9709C166.492 15.6517 164.353 10.0216 160.074 6.08053C155.795 2.02684 150.052 0 142.846 0H132.88V10.8098H141.494C144.985 10.8098 147.744 11.9922 149.771 14.3568C151.797 16.7215 152.811 20.0996 152.811 24.491V57.5962Z" fill="#F7FBFF"/>
<path d="M108.72 109.756V66.002L48.3199 109.756H108.72Z" fill="#F7FBFF"/>
<path d="M72.48 41V84.7536L132.88 41H72.48Z" fill="#3DD9AD"/>
</svg>
