<?xml version="1.0" encoding="UTF-8"?>
<svg width="20px" height="20px" viewBox="0 0 20 20" version="1.1" xmlns="http://www.w3.org/2000/svg" xmlns:xlink="http://www.w3.org/1999/xlink">
    <!-- Generator: sketchtool 53.2 (72643) - https://sketchapp.com -->
    <title>46F99CC3-A2B0-4C8F-B7B2-1EDDCAD748D6</title>
    <desc>Created with sketchtool.</desc>
    <defs>
        <path d="M11,7 C8.790861,7 7,8.790861 7,11 C7,13.209139 8.790861,15 11,15 C13.209139,15 15,13.209139 15,11 C15,9.93913404 14.5785726,8.92171839 13.8284271,8.17157288 C13.0782816,7.42142736 12.060866,7 11,7 Z M11,13 C9.8954305,13 9,12.1045695 9,11 C9,9.8954305 9.8954305,9 11,9 C12.1045695,9 13,9.8954305 13,11 C13,12.1045695 12.1045695,13 11,13 Z M20.71,10.29 L18.36,8 L18.36,4.64 C18.36,4.08771525 17.9122847,3.64 17.36,3.64 L14.05,3.64 L11.71,1.29 C11.5222334,1.10068735 11.2666375,0.994201676 11,0.994201676 C10.7333625,0.994201676 10.4777666,1.10068735 10.29,1.29 L8,3.64 L4.64,3.64 C4.08771525,3.64 3.64,4.08771525 3.64,4.64 L3.64,8 L1.29,10.29 C1.10068735,10.4777666 0.994201676,10.7333625 0.994201676,11 C0.994201676,11.2666375 1.10068735,11.5222334 1.29,11.71 L3.64,14.05 L3.64,17.36 C3.64,17.9122847 4.08771525,18.36 4.64,18.36 L8,18.36 L10.34,20.71 C10.5277666,20.8993127 10.7833625,21.0057983 11.05,21.0057983 C11.3166375,21.0057983 11.5722334,20.8993127 11.76,20.71 L14.1,18.36 L17.41,18.36 C17.9622847,18.36 18.41,17.9122847 18.41,17.36 L18.41,14.05 L20.76,11.71 C20.9428579,11.5156442 21.0404492,11.2562643 21.0310588,10.9895754 C21.0216683,10.7228865 20.9060751,10.4710131 20.71,10.29 Z M16.66,12.93 C16.4691444,13.1170714 16.3611094,13.3727541 16.36,13.64 L16.36,16.36 L13.64,16.36 C13.3727541,16.3611094 13.1170714,16.4691444 12.93,16.66 L11,18.59 L9.07,16.66 C8.88292856,16.4691444 8.6272459,16.3611094 8.36,16.36 L5.64,16.36 L5.64,13.64 C5.63889058,13.3727541 5.53085565,13.1170714 5.34,12.93 L3.41,11 L5.34,9.07 C5.53085565,8.88292856 5.63889058,8.6272459 5.64,8.36 L5.64,5.64 L8.36,5.64 C8.6272459,5.63889058 8.88292856,5.53085565 9.07,5.34 L11,3.41 L12.93,5.34 C13.1170714,5.53085565 13.3727541,5.63889058 13.64,5.64 L16.36,5.64 L16.36,8.36 C16.3611094,8.6272459 16.4691444,8.88292856 16.66,9.07 L18.59,11 L16.66,12.93 Z" id="path-1"></path>
    </defs>
    <g id="Symbols" stroke="none" stroke-width="1" fill="none" fill-rule="evenodd">
        <g id="menu/main/side" transform="translate(-39.000000, -481.000000)">
            <g id="menu">
                <g transform="translate(37.000000, 101.000000)">
                    <g id="icon/configuracao" transform="translate(1.000000, 379.000000)">
                        <g id="color/primary/main-gradient-copy-9">
                            <g>
                                <mask id="mask-2" fill="white">
                                    <use xlink:href="#path-1"></use>
                                </mask>
                                <use id="Mask" fill="#000000" fill-rule="nonzero" xlink:href="#path-1"></use>
                                <g id="color/primary/gray" mask="url(#mask-2)" fill="#D4D4D4" fill-rule="nonzero">
                                    <g transform="translate(-1.000000, -1.000000)" id="color/primary/main-gradient">
                                        <rect x="0" y="0" width="23" height="23"></rect>
                                    </g>
                                </g>
                            </g>
                        </g>
                    </g>
                </g>
            </g>
        </g>
    </g>
</svg>