<svg width="8" height="8" viewBox="0 0 8 8" fill="none" xmlns="http://www.w3.org/2000/svg">
<path d="M3.30041 4.0519C3.30041 3.84937 3.46459 3.68519 3.66712 3.68519C3.86965 3.68519 4.03384 3.84937 4.03384 4.0519V5.15204C4.03384 5.35457 3.86965 5.51875 3.66712 5.51875C3.46459 5.51875 3.30041 5.35457 3.30041 5.15204V4.0519ZM3.66712 2.03498C3.36333 2.03498 3.11706 2.28126 3.11706 2.58505C3.11706 2.88885 3.36333 3.13512 3.66712 3.13512C3.97092 3.13512 4.21719 2.88885 4.21719 2.58505C4.21719 2.28126 3.97092 2.03498 3.66712 2.03498ZM0 3.68519C0 1.65989 1.64183 0.0180664 3.66712 0.0180664C5.69242 0.0180664 7.33425 1.65989 7.33425 3.68519C7.33425 5.71049 5.69242 7.35232 3.66712 7.35232C1.64183 7.35232 0 5.71049 0 3.68519ZM3.66712 0.751491C2.04689 0.751491 0.733425 2.06495 0.733425 3.68519C0.733425 5.30543 2.04689 6.61889 3.66712 6.61889C5.28736 6.61889 6.60082 5.30543 6.60082 3.68519C6.60082 2.06495 5.28736 0.751491 3.66712 0.751491Z" fill="#2E85EC"/>
</svg>
