<svg width="44" height="40" viewBox="0 0 44 40" fill="none" xmlns="http://www.w3.org/2000/svg">
<path d="M6.21707 4.47007C6.96084 1.82648 9.37273 0 12.1199 0H32.5536C35.3007 0 37.7126 1.82648 38.4564 4.47007L43.5424 22.5474C44.6866 26.614 41.6294 30.6482 37.4036 30.6482H19.2725V27.5834H37.4036C39.5977 27.5834 41.1851 25.4887 40.5911 23.3772L35.505 5.29985C35.1331 3.97806 33.9272 3.06482 32.5536 3.06482H12.1199C10.7463 3.06482 9.54035 3.97806 9.16846 5.29985L8.07272 9.19446H5.47594C5.2759 9.19446 5.07766 9.20212 4.88148 9.21716L6.21707 4.47007ZM19.1192 36.7778H33.0674C33.914 36.7778 34.6003 36.0917 34.6003 35.2454C34.6003 34.3991 33.914 33.713 33.0674 33.713H19.2725V35.2454C19.2725 35.7702 19.2197 36.2827 19.1192 36.7778ZM8.5417 22.9861C9.81164 22.9861 10.8411 21.957 10.8411 20.6875C10.8411 19.418 9.81164 18.3889 8.5417 18.3889C7.27176 18.3889 6.24227 19.418 6.24227 20.6875C6.24227 21.957 7.27176 22.9861 8.5417 22.9861ZM0.876953 16.8565C0.876953 14.3175 2.93593 12.2593 5.4758 12.2593H11.6076C14.1475 12.2593 16.2064 14.3175 16.2064 16.8565V35.2454C16.2064 37.7844 14.1475 39.8426 11.6076 39.8426H5.4758C2.93593 39.8426 0.876953 37.7844 0.876953 35.2454V16.8565ZM5.4758 15.3241C4.62918 15.3241 3.94285 16.0102 3.94285 16.8565V35.2454C3.94285 36.0917 4.62918 36.7778 5.4758 36.7778H11.6076C12.4542 36.7778 13.1405 36.0917 13.1405 35.2454V16.8565C13.1405 16.0102 12.4542 15.3241 11.6076 15.3241H5.4758Z" fill="#2E85EC"/>
</svg>
