<?xml version="1.0" encoding="UTF-8"?>
<svg width="18px" height="20px" viewBox="0 0 18 20" version="1.1" xmlns="http://www.w3.org/2000/svg" xmlns:xlink="http://www.w3.org/1999/xlink">
    <!-- Generator: sketchtool 53.2 (72643) - https://sketchapp.com -->
    <title>52758CBA-9865-4CB0-87D6-E272978A9618</title>
    <desc>Created with sketchtool.</desc>
    <defs>
        <path d="M17,4 L13,4 L13,3 C13,1.34314575 11.6568542,0 10,0 L8,0 C6.34314575,0 5,1.34314575 5,3 L5,4 L1,4 C0.44771525,4 0,4.44771525 0,5 C0,5.55228475 0.44771525,6 1,6 L2,6 L2,17 C2,18.6568542 3.34314575,20 5,20 L13,20 C14.6568542,20 16,18.6568542 16,17 L16,6 L17,6 C17.5522847,6 18,5.55228475 18,5 C18,4.44771525 17.5522847,4 17,4 Z M7,3 C7,2.44771525 7.44771525,2 8,2 L10,2 C10.5522847,2 11,2.44771525 11,3 L11,4 L7,4 L7,3 Z M14,17 C14,17.5522847 13.5522847,18 13,18 L5,18 C4.44771525,18 4,17.5522847 4,17 L4,6 L14,6 L14,17 Z" id="path-1"></path>
        <linearGradient x1="0%" y1="87.3016%" x2="211.535904%" y2="-63.0611359%" id="linearGradient-3">
            <stop stop-color="#E6774C" offset="0%"></stop>
            <stop stop-color="#F92278" offset="100%"></stop>
        </linearGradient>
    </defs>
    <g id="CloudFox" stroke="none" stroke-width="1" fill="none" fill-rule="evenodd">
        <g id="0.4.1.1-Projetos-Domínios" transform="translate(-1271.000000, -374.000000)">
            <g id="icon/lixo" transform="translate(1271.000000, 374.000000)">
                <g id="color/primary/main-gradient-copy-10">
                    <g>
                        <mask id="mask-2" fill="white">
                            <use xlink:href="#path-1"></use>
                        </mask>
                        <use id="Mask" fill="#000000" fill-rule="nonzero" xlink:href="#path-1"></use>
                        <g id="color/primary/main-gradient" mask="url(#mask-2)" fill="url(#linearGradient-3)" fill-rule="nonzero">
                            <g transform="translate(-3.000000, -2.000000)">
                                <rect x="0" y="0" width="23" height="23"></rect>
                            </g>
                        </g>
                    </g>
                </g>
            </g>
        </g>
    </g>
</svg>