<svg xmlns="http://www.w3.org/2000/svg" width="21" height="21" viewBox="0 0 21 21">
  <g id="Grupo_181" data-name="Grupo 181" transform="translate(-1510.5 -381.5)">
    <g id="money-2284_1f03e748-9287-4cfe-99f1-567a11615d55" transform="translate(1509 379.999)">
      <circle id="layer2" cx="10" cy="10" r="10" transform="translate(2 2.001)" fill="none" stroke="#5a5a5a" stroke-linecap="round" stroke-linejoin="round" stroke-miterlimit="10" stroke-width="1"/>
      <path id="Caminho_39" data-name="Caminho 39" d="M21.983,14.917a2.5,2.5,0,0,0-2.466-2.083,2.33,2.33,0,0,0-2.5,2.292c0,1.38,1.25,2.006,2.5,2.292s2.5.911,2.5,2.292A2.331,2.331,0,0,1,19.517,22a2.5,2.5,0,0,1-2.5-2.5" transform="translate(-7.508 -5.416)" fill="none" stroke="#49c780" stroke-linecap="round" stroke-linejoin="round" stroke-miterlimit="10" stroke-width="1"/>
      <path id="layer2-2" data-name="layer2" d="M22.018,11.417V10m0,12V20.584" transform="translate(-10.009 -4)" fill="none" stroke="#49c780" stroke-linecap="round" stroke-linejoin="round" stroke-miterlimit="10" stroke-width="1"/>
    </g>
  </g>
</svg>
