<svg xmlns="http://www.w3.org/2000/svg" width="134.813" height="408.576" viewBox="0 0 134.813 408.576"><defs><style>.a{fill:#f3f7fd;}.b,.d,.g{fill:none;stroke-linecap:round;stroke-linejoin:round;stroke-miterlimit:10;stroke-width:2px;}.b{stroke:#002f67;}.c{fill:#939598;}.d{stroke:#939598;}.e{fill:#32bcad;}.f{fill:#aeaeae;fill-rule:evenodd;}.g{stroke:#2e85ec;}</style></defs><g transform="translate(-6064.208 640.576)"><ellipse class="a" cx="31.935" cy="31.576" rx="31.935" ry="31.576" transform="translate(6101.565 -472.09)"/><ellipse class="a" cx="31.935" cy="31.576" rx="31.935" ry="31.576" transform="translate(6101.565 -301.59)"/><path class="b" d="M87.229,10.226a28.046,28.046,0,0,0-44.718,32.72L30.046,55.255v5.921H20.7v9.349H11.349v9.349H5.116L2,82.99V95.454H14.465l40.2-40.511A28.046,28.046,0,0,0,87.229,10.226ZM78.036,28.144A6.232,6.232,0,1,1,79.9,23.7,6.232,6.232,0,0,1,78.036,28.144Z" transform="translate(6131.524 -371.658) rotate(-135)"/><ellipse class="a" cx="31.935" cy="31.576" rx="31.935" ry="31.576" transform="translate(6101.565 -640.576)"/><g transform="translate(5006.475 250.772)"><g transform="translate(1179.856 -848.017)"><g transform="translate(0 0)"><g transform="translate(0 0)"><path class="c" d="M976.032-488.01h.541v2.755h-.541Z" transform="translate(-976.032 488.01)"/></g></g></g><g transform="translate(1117.123 -874.457)"><path class="d" d="M0-106.314v-21.967A7.318,7.318,0,0,1,7.319-135.6l6.486.01a7.308,7.308,0,0,1,7.293,7.308v4.676a7.319,7.319,0,0,1-7.318,7.319H4.614" transform="translate(0 135.6)"/></g><g transform="translate(1140.034 -874.46)"><path class="d" d="M0,0H2.813a3,3,0,0,1,3,3v16.41"/></g><g transform="translate(1143.734 -880.938)"><path class="e" d="M-5.494-14.286-6.77-15.562a.811.811,0,0,1,0-1.146l1.275-1.275a.811.811,0,0,1,1.148,0l1.275,1.275a.811.811,0,0,1,0,1.146l-1.276,1.276a.811.811,0,0,1-1.147,0" transform="translate(7.007 18.222)"/></g><g transform="translate(1151.248 -874.475)"><path class="d" d="M0,0H2.79A5.411,5.411,0,0,1,6.617,1.585l6.526,6.526a2.164,2.164,0,0,0,3.061,0l6.5-6.5A5.412,5.412,0,0,1,26.534.024H28.8"/></g><g transform="translate(1151.248 -863.936)"><path class="d" d="M0-31.748H2.79a5.411,5.411,0,0,0,3.827-1.585l6.526-6.526a2.165,2.165,0,0,1,3.061,0l6.5,6.5a5.411,5.411,0,0,0,3.827,1.585H28.8" transform="translate(0 40.494)"/></g><g transform="translate(1079.885 -858.192)"><path class="e" d="M-74.8-26.032A5.21,5.21,0,0,1-78.5-27.567l-5.354-5.353a1.017,1.017,0,0,0-1.407,0l-5.373,5.373a5.212,5.212,0,0,1-3.708,1.535H-95.4l6.78,6.78a5.423,5.423,0,0,0,7.669,0l6.8-6.8Z" transform="translate(95.4 33.202)"/></g><g transform="translate(1079.885 -878.326)"><path class="e" d="M-3.829-30.264A5.175,5.175,0,0,1-.122-28.708L5.252-23.26a.986.986,0,0,0,1.407,0l5.353-5.428a5.176,5.176,0,0,1,3.708-1.556h.645l-6.8-6.893a5.371,5.371,0,0,0-7.669,0l-6.78,6.873Z" transform="translate(4.884 38.747)"/></g><g transform="translate(1072.653 -868.304)"><path class="e" d="M-123.809-14.92l-4.109-4.166a.773.773,0,0,1-.292.06h-1.868a3.667,3.667,0,0,0-2.594,1.089l-5.354,5.427a2.544,2.544,0,0,1-1.817.762,2.545,2.545,0,0,1-1.817-.762l-5.374-5.447a3.667,3.667,0,0,0-2.594-1.089h-2.3a.77.77,0,0,1-.276-.057l-4.125,4.182a5.551,5.551,0,0,0,0,7.774l4.125,4.182a.771.771,0,0,1,.276-.057h2.3a3.667,3.667,0,0,0,2.594-1.089l5.373-5.447a2.606,2.606,0,0,1,3.634,0l5.354,5.427a3.666,3.666,0,0,0,2.594,1.09h1.868a.774.774,0,0,1,.292.06l4.109-4.165a5.551,5.551,0,0,0,0-7.774" transform="translate(157.913 19.102)"/></g><g transform="translate(1121.469 -847.254)"><path class="c" d="M-4.471-.78a4.754,4.754,0,0,0-1.005.153V.712a2.327,2.327,0,0,0,.783.131c.671,0,.99-.226.99-.817,0-.556-.261-.805-.767-.805M-5.7,1.706V-.941h.184l.019.115A5.26,5.26,0,0,1-4.452-.995a1.041,1.041,0,0,1,.687.2,1.011,1.011,0,0,1,.3.821.921.921,0,0,1-.43.852,1.659,1.659,0,0,1-.779.173A2.805,2.805,0,0,1-5.477.927v.779Z" transform="translate(5.703 0.995)"/></g><g transform="translate(1124.183 -847.254)"><path class="c" d="M-4.4-.751c-.672,0-.971.211-.971.8,0,.572.3.829.971.829s.967-.207.967-.8c0-.571-.3-.833-.967-.833M-3.538.88a1.454,1.454,0,0,1-.863.207A1.475,1.475,0,0,1-5.269.88.927.927,0,0,1-5.614.067a.943.943,0,0,1,.345-.817A1.474,1.474,0,0,1-4.4-.958a1.474,1.474,0,0,1,.863.207.93.93,0,0,1,.345.813A.934.934,0,0,1-3.538.88" transform="translate(5.614 0.958)"/></g><g transform="translate(1126.935 -847.2)"><path class="c" d="M-9.081-7.034l-.748-1.607h-.015l-.737,1.607h-.2l-.8-1.937h.249l.664,1.626h.015l.721-1.626h.207l.74,1.626h.016l.648-1.626h.242l-.8,1.937Z" transform="translate(11.582 8.971)"/></g><g transform="translate(1130.769 -847.254)"><path class="c" d="M-4.053-.737c-.621,0-.833.276-.871.675h1.742C-3.2-.5-3.427-.737-4.053-.737M-4.06,1.1A1.167,1.167,0,0,1-4.866.889a1,1,0,0,1-.3-.805,1.01,1.01,0,0,1,.361-.829,1.3,1.3,0,0,1,.756-.2,1.358,1.358,0,0,1,.775.188.983.983,0,0,1,.334.894H-4.931c.008.4.138.752.89.752a5.811,5.811,0,0,0,1-.111v.2A5.921,5.921,0,0,1-4.06,1.1" transform="translate(5.169 0.941)"/></g><g transform="translate(1133.643 -847.254)"><path class="c" d="M0-7.228V-9.165H.184L.2-9.05a3.412,3.412,0,0,1,.963-.169h.027V-9H1.14a3.165,3.165,0,0,0-.913.153v1.623Z" transform="translate(0 9.219)"/></g><g transform="translate(1135.035 -847.254)"><path class="c" d="M-4.053-.737c-.621,0-.833.276-.871.675h1.742C-3.2-.5-3.427-.737-4.053-.737M-4.06,1.1A1.167,1.167,0,0,1-4.866.889a1,1,0,0,1-.3-.805,1.01,1.01,0,0,1,.361-.829,1.3,1.3,0,0,1,.756-.2,1.358,1.358,0,0,1,.775.188.983.983,0,0,1,.334.894H-4.931c.008.4.138.752.89.752a5.811,5.811,0,0,0,1-.111v.2A5.921,5.921,0,0,1-4.06,1.1" transform="translate(5.169 0.941)"/></g><g transform="translate(1137.725 -848.017)"><path class="c" d="M-7.312-4a2.321,2.321,0,0,0-.782-.131c-.672,0-.99.227-.99.817,0,.56.261.805.767.805a4.984,4.984,0,0,0,1.005-.15Zm.042,1.653-.019-.115a5.27,5.27,0,0,1-1.047.169,1.021,1.021,0,0,1-.687-.2,1.011,1.011,0,0,1-.3-.821.911.911,0,0,1,.43-.848,1.622,1.622,0,0,1,.783-.176,2.934,2.934,0,0,1,.8.123V-5.1h.226v2.755Z" transform="translate(9.326 5.099)"/></g><g transform="translate(1142.053 -848.017)"><path class="c" d="M-4.471-3.552A4.754,4.754,0,0,0-5.477-3.4v1.335a2.252,2.252,0,0,0,.783.134c.671,0,.99-.226.99-.817,0-.556-.261-.805-.767-.805m.579,1.657a1.658,1.658,0,0,1-.779.173,2.758,2.758,0,0,1-.867-.146l-.011.092H-5.7V-4.53h.226v.924a5.486,5.486,0,0,1,1.024-.161,1.041,1.041,0,0,1,.687.2,1.011,1.011,0,0,1,.3.821.921.921,0,0,1-.43.852" transform="translate(5.703 4.53)"/></g><g transform="translate(1144.549 -847.2)"><path class="c" d="M-.166-9.735v-.211c.111.011.215.019.288.019a.587.587,0,0,0,.606-.4L.8-10.479-.212-12.416H.049l.867,1.673H.931l.825-1.673h.257L.923-10.241a.79.79,0,0,1-.81.525,2.35,2.35,0,0,1-.28-.019" transform="translate(0.212 12.416)"/></g><g transform="translate(1148.554 -847.891)"><path class="c" d="M-4.861-5.529h-.752v.679h.756c.518,0,.713-.058.713-.341,0-.3-.268-.338-.717-.338M-5-6.63h-.614v.691H-5c.51,0,.713-.061.713-.349,0-.307-.257-.342-.717-.342m1.166,2.022a2.232,2.232,0,0,1-1.22.184H-6.2V-7.052h1.12a2.135,2.135,0,0,1,1.116.169.556.556,0,0,1,.269.522.574.574,0,0,1-.414.583v.015c.338.077.556.25.556.622a.567.567,0,0,1-.28.533" transform="translate(6.2 7.052)"/></g><g transform="translate(1151.743 -847.254)"><path class="c" d="M-6.365-4.276c-.226-.019-.456-.031-.7-.031-.4,0-.533.081-.533.261s.115.261.418.261A3.97,3.97,0,0,0-6.365-3.9Zm.115.813-.015-.115a4.672,4.672,0,0,1-1.051.169A1,1,0,0,1-7.9-3.551a.549.549,0,0,1-.215-.468.545.545,0,0,1,.326-.525,1.779,1.779,0,0,1,.725-.1c.2,0,.476.011.7.027v-.035c0-.3-.2-.4-.744-.4-.211,0-.468.011-.713.034v-.391c.272-.023.579-.038.833-.038a1.64,1.64,0,0,1,.9.18.715.715,0,0,1,.265.664v1.147Z" transform="translate(8.118 5.454)"/></g><g transform="translate(1154.733 -847.254)"><path class="c" d="M-6.657-7.228V-8.3c0-.353-.18-.479-.5-.479a3.654,3.654,0,0,0-.79.123v1.427h-.541V-9.165h.441l.019.123a4.5,4.5,0,0,1,1.036-.176.955.955,0,0,1,.664.2.752.752,0,0,1,.211.606v1.186Z" transform="translate(8.491 9.219)"/></g><g transform="translate(1157.604 -847.254)"><path class="c" d="M-3.733-7.423a1.1,1.1,0,0,1-.721-.2,1,1,0,0,1-.307-.821.943.943,0,0,1,.4-.828,1.534,1.534,0,0,1,.852-.192c.222,0,.441.015.683.038v.414c-.2-.019-.43-.034-.618-.034-.514,0-.756.161-.756.606,0,.418.18.6.6.6a4.579,4.579,0,0,0,.814-.1v.4a4.876,4.876,0,0,1-.944.123" transform="translate(4.761 9.468)"/></g><g transform="translate(1159.877 -847.254)"><path class="c" d="M-4.708-1.475c-.514,0-.741.161-.741.6s.223.629.741.629.733-.158.733-.6-.218-.633-.733-.633M-3.78-.04a1.631,1.631,0,0,1-.928.2,1.652,1.652,0,0,1-.932-.2A.9.9,0,0,1-6-.857a.911.911,0,0,1,.365-.821,1.651,1.651,0,0,1,.932-.2,1.653,1.653,0,0,1,.928.2.905.905,0,0,1,.361.817A.917.917,0,0,1-3.78-.04" transform="translate(6.005 1.881)"/></g><g transform="translate(1164.232 -847.944)"><path class="c" d="M-4.916-9.93A1.458,1.458,0,0,1-5.86-10.2a1.354,1.354,0,0,1-.41-1.1,1.288,1.288,0,0,1,.533-1.116,2.015,2.015,0,0,1,1.113-.249c.292,0,.591.019.917.046v.472c-.28-.023-.625-.042-.894-.042-.748,0-1.067.284-1.067.89s.3.894.848.894a6,6,0,0,0,1.17-.157v.468a6.522,6.522,0,0,1-1.266.165" transform="translate(6.27 12.665)"/></g><g transform="translate(1167.229 -847.254)"><path class="c" d="M-4.4-1.253c-.449,0-.622.161-.656.457h1.3c-.015-.315-.2-.457-.648-.457m-.081,1.7A1.252,1.252,0,0,1-5.3.232a1,1,0,0,1-.311-.81A.982.982,0,0,1-5.249-1.4,1.438,1.438,0,0,1-4.4-1.6a1.5,1.5,0,0,1,.84.2c.311.219.338.557.342.955H-5.061c.012.3.169.487.713.487a6.948,6.948,0,0,0,1.032-.1V.32A7.3,7.3,0,0,1-4.482.447" transform="translate(5.614 1.598)"/></g><g transform="translate(1170.196 -847.254)"><path class="c" d="M-6.657-7.228V-8.3c0-.353-.18-.479-.5-.479a3.654,3.654,0,0,0-.79.123v1.427h-.541V-9.165h.441l.019.123a4.5,4.5,0,0,1,1.036-.176.955.955,0,0,1,.664.2.752.752,0,0,1,.211.606v1.186Z" transform="translate(8.491 9.219)"/></g><g transform="translate(1172.945 -847.787)"><path class="c" d="M-4.22-9.359a.7.7,0,0,1-.629-.276,1,1,0,0,1-.142-.587v-.725h-.391v-.4h.391l.058-.587h.479v.587h.763v.4h-.763v.622a.924.924,0,0,0,.054.368.344.344,0,0,0,.353.18,2.449,2.449,0,0,0,.387-.038v.387a3.041,3.041,0,0,1-.56.069" transform="translate(5.383 11.937)"/></g><g transform="translate(1175.164 -847.254)"><path class="c" d="M0-7.228V-9.165H.441l.019.123a3.371,3.371,0,0,1,.959-.176.565.565,0,0,1,.069,0v.46c-.061,0-.134,0-.188,0a3.031,3.031,0,0,0-.76.1v1.431Z" transform="translate(0 9.219)"/></g><g transform="translate(1176.866 -847.254)"><path class="c" d="M-6.365-4.276c-.226-.019-.456-.031-.7-.031-.4,0-.533.081-.533.261s.115.261.418.261A3.97,3.97,0,0,0-6.365-3.9Zm.115.813-.015-.115a4.675,4.675,0,0,1-1.051.169A1,1,0,0,1-7.9-3.551a.549.549,0,0,1-.215-.468.545.545,0,0,1,.326-.525,1.778,1.778,0,0,1,.725-.1c.2,0,.476.011.7.027v-.035c0-.3-.2-.4-.744-.4-.211,0-.468.011-.714.034v-.391c.272-.023.579-.038.833-.038a1.64,1.64,0,0,1,.9.18.715.715,0,0,1,.265.664v1.147Z" transform="translate(8.118 5.454)"/></g></g><path class="f" d="M10.31,3.56a.636.636,0,0,1,.9,0l7.634,7.634a.636.636,0,0,1,0,.9l-7.634,7.634a.637.637,0,1,1-.9-.9l7.184-7.183L10.31,4.461a.636.636,0,0,1,0-.9Z" transform="translate(6143.144 -540.341) rotate(90)"/><path class="f" d="M10.31,3.56a.636.636,0,0,1,.9,0l7.634,7.634a.636.636,0,0,1,0,.9l-7.634,7.634a.637.637,0,1,1-.9-.9l7.184-7.183L10.31,4.461a.636.636,0,0,1,0-.9Z" transform="translate(6143.144 -369.841) rotate(90)"/><g transform="translate(6094 -309.001)"><path class="b" d="M46.667,22A24.667,24.667,0,1,1,22,46.667" transform="translate(4.667 4.667)"/><circle class="b" cx="24.667" cy="24.667" r="24.667" transform="translate(2 2.001)"/><path class="g" d="M29.267,17.972a6.174,6.174,0,0,0-6.083-5.139c-3.407,0-6.167,2.247-6.167,5.652s3.083,4.948,6.167,5.654,6.167,2.247,6.167,5.654-2.76,5.654-6.167,5.654a6.167,6.167,0,0,1-6.167-6.167" transform="translate(3.504 2.528)"/><path class="g" d="M22.018,13.493V10m0,29.6V36.106" transform="translate(4.671 1.867)"/><path class="b" d="M42,54.66v-3.5" transform="translate(9.334 11.472)"/><path class="b" d="M37,47.394a6.167,6.167,0,0,0,6.167,6.167c3.406,0,6.167-2.247,6.167-5.651s-3.083-4.959-6.167-5.652A12.1,12.1,0,0,1,39.606,40.9" transform="translate(8.167 9.077)"/><path class="b" d="M47.288,37.662a6.158,6.158,0,0,0-1.893-3.5" transform="translate(10.126 7.505)"/></g></g></svg>