<svg xmlns="http://www.w3.org/2000/svg" width="36.97" height="36.083" viewBox="0 0 36.97 36.083"><defs><style>.a,.b{fill:none;stroke-linecap:round;stroke-linejoin:round;stroke-miterlimit:10;}.a{stroke:#2e85ec;}.b{stroke:#002f67;}</style></defs><g transform="translate(-5032.5 377)"><path class="a" d="M12.5,12h1.166v1.166H12.5Z" transform="translate(5049.347 -360.416)"/><g transform="translate(5033 -376.5)"><path class="b" d="M35.986,35.826m.34-11.664-11.664,3.5M2.5,2H15.331V14.831H2.5Z" transform="translate(-1.917 -2)"/><path class="b" d="M2.5,2H15.331V14.831H2.5Z" transform="translate(20.514 20.252)"/><g transform="translate(0.583)"><path class="b" d="M2.5,24.162H15.331V36.993H2.5ZM24.662,2H37.493V14.831H24.662Z" transform="translate(-2.5 -2)"/></g><path class="a" d="M12.5,12h1.166v1.166H12.5Z" transform="translate(-6.085 -6.168)"/><path class="a" d="M7.915,30.7H9.082v1.166H7.915ZM30.078,8.538h1.166V9.7H30.078ZM1.5,20.2H37.469M19.58,37.55V2.755" transform="translate(-1.5 -2.706)"/></g></g></svg>