<svg width="123" height="34" viewBox="0 0 123 34" fill="none" xmlns="http://www.w3.org/2000/svg">
<path d="M18.1151 30.0659L0.00012207 0.486328C9.25635 4.91916 18.541 9.352 27.7972 13.7848C24.5604 19.2301 21.3519 24.648 18.1151 30.0659Z" fill="#15034C"/>
<path d="M18.1148 30.0659C24.049 20.2152 29.9832 10.3371 35.9458 0.486328C27.3427 6.09578 18.7679 11.7052 10.1647 17.3147C12.8336 21.556 15.4742 25.8246 18.1148 30.0659Z" fill="#12DB77"/>
<path d="M47.416 0.486328L56.3031 24.1555L65.2754 0.486328H67.5753L57.4957 26.9192H55.0822L44.9458 0.486328H47.416Z" fill="#15034C"/>
<path d="M69.0233 17.944C69.0233 19.3669 69.1085 20.5161 69.2788 21.4465C69.4492 22.3495 69.7899 23.0883 70.2442 23.6355C70.6985 24.1828 71.3516 24.5659 72.1466 24.7848C72.9416 25.0037 73.9921 25.1131 75.2982 25.1131C76.4056 25.1131 77.4561 25.1131 78.5067 25.0858C79.5288 25.0858 80.6362 25.0584 81.8287 25.031L81.4028 26.9191C80.5226 26.9465 79.5572 26.9738 78.4499 26.9738C77.3709 26.9738 76.3204 27.0012 75.2982 27.0012C73.5946 27.0012 72.2034 26.8097 71.096 26.4539C69.9887 26.0709 69.1369 25.5236 68.4838 24.8121C67.8592 24.0733 67.4049 23.1704 67.1493 22.0758C66.8938 20.9813 66.7518 19.7226 66.7518 18.2997V15.9738C66.7518 14.4141 66.9222 13.0733 67.2345 11.9788C67.5468 10.8843 68.0579 9.98129 68.7394 9.29722C69.4208 8.61314 70.2726 8.09323 71.3516 7.76488C72.4021 7.43652 73.6514 7.27234 75.0995 7.27234C77.9672 7.27234 80.0399 7.87433 81.3176 9.07831C82.5953 10.2823 83.22 12.1703 83.22 14.7699V15.6728C83.22 16.1927 83.1916 16.6032 83.1348 16.9042C83.078 17.2052 82.9644 17.4241 82.7941 17.5883C82.6521 17.7524 82.425 17.8619 82.1694 17.9166C81.8855 17.9713 81.5732 17.9987 81.1757 17.9987H69.0233V17.944ZM75.0711 9.05095C73.9921 9.05095 73.0552 9.1604 72.2885 9.35194C71.5219 9.54348 70.8973 9.8992 70.4146 10.4191C69.9319 10.939 69.5628 11.6504 69.364 12.5808C69.1369 13.4838 69.0233 14.6604 69.0233 16.1106H81.1473V14.8519C81.1473 13.7301 81.0337 12.7997 80.8065 12.0609C80.5794 11.3221 80.2103 10.7201 79.7276 10.2823C79.2449 9.84448 78.6202 9.51612 77.8536 9.32458C77.0586 9.1604 76.15 9.05095 75.0711 9.05095Z" fill="#15034C"/>
<path d="M101.562 23.7178C100.994 24.6207 100.143 25.2501 99.007 25.6605C97.8712 26.0436 96.48 26.2625 94.8331 26.2625C91.937 26.2625 89.8075 25.6332 88.4446 24.3745C87.0818 23.1158 86.4287 20.9814 86.4287 17.9441V15.5635C86.4287 14.0312 86.5991 12.7451 86.9398 11.678C87.2805 10.6382 87.7916 9.76253 88.5014 9.10581C89.2113 8.4491 90.0914 7.98392 91.1704 7.68293C92.2493 7.38193 93.5554 7.24512 95.0603 7.24512C96.6787 7.24512 98.0416 7.4093 99.1489 7.73765C100.256 8.06601 101.136 8.55855 101.818 9.21527C102.499 9.87198 102.982 10.7476 103.294 11.7874C103.578 12.8272 103.749 14.0586 103.749 15.4541V25.6332C103.749 27.0834 103.578 28.3148 103.266 29.3272C102.954 30.3396 102.443 31.1332 101.733 31.7625C101.023 32.3919 100.114 32.8297 98.9502 33.1033C97.8144 33.377 96.4232 33.5138 94.8048 33.5138C93.7258 33.5138 92.732 33.5138 91.7951 33.4864C90.8581 33.4864 89.7791 33.4317 88.5866 33.4043L89.0409 31.5163C90.1766 31.571 91.1704 31.5984 91.9938 31.5984C92.8456 31.5984 93.7826 31.6257 94.8048 31.6257C96.0541 31.6257 97.133 31.5436 97.9848 31.3521C98.8366 31.1605 99.5464 30.8322 100.058 30.3944C100.597 29.9292 100.966 29.3272 101.193 28.561C101.42 27.7949 101.534 26.8372 101.534 25.6605V23.7178H101.562ZM95.0603 24.3471C95.9405 24.3471 96.7639 24.2924 97.5589 24.1556C98.3539 24.0188 99.0354 23.7451 99.6316 23.362C100.228 22.979 100.711 22.4043 101.051 21.6929C101.392 20.9814 101.562 20.0237 101.562 18.8745V15.4814C101.562 14.2227 101.449 13.1829 101.222 12.362C100.995 11.5411 100.625 10.8844 100.114 10.4192C99.6032 9.92671 98.9218 9.59835 98.0984 9.40681C97.275 9.21527 96.2528 9.13318 95.0603 9.13318C93.8394 9.13318 92.8456 9.24263 92.0506 9.43417C91.2556 9.62571 90.6025 9.98144 90.0915 10.4466C89.5804 10.9391 89.2396 11.5959 89.0409 12.4441C88.8421 13.2924 88.7286 14.3595 88.7286 15.6456V17.8347C88.7286 19.1755 88.8421 20.27 89.0977 21.1183C89.3532 21.9665 89.7223 22.6506 90.2334 23.1158C90.7445 23.6083 91.3975 23.9367 92.1926 24.1008C93.016 24.265 93.9529 24.3471 95.0603 24.3471Z" fill="#15034C"/>
<path d="M122.942 24.8123C122.942 25.6605 122.772 26.2078 122.46 26.5088C122.147 26.7824 121.494 26.9466 120.557 26.9466H114.254C111.613 26.9466 109.711 26.5088 108.547 25.6058C107.383 24.7028 106.815 23.2799 106.815 21.255V20.7351C106.815 18.6555 107.411 17.1506 108.575 16.2202C109.739 15.2899 111.642 14.7973 114.254 14.7973C116.014 14.7973 117.434 14.9615 118.485 15.2899C119.535 15.6182 120.302 16.056 120.784 16.6307V14.4142C120.784 13.5113 120.699 12.7725 120.529 12.1705C120.359 11.5685 120.018 11.0759 119.564 10.7202C119.109 10.3645 118.456 10.0909 117.633 9.95405C116.809 9.78987 115.759 9.70778 114.51 9.70778C113.573 9.70778 112.55 9.70778 111.5 9.73514C110.449 9.73514 109.484 9.78987 108.661 9.81723L109.086 7.87445C109.796 7.84708 110.648 7.81972 111.642 7.81972C112.607 7.81972 113.573 7.79236 114.538 7.79236C116.071 7.79236 117.377 7.90181 118.456 8.14808C119.535 8.39435 120.387 8.75007 121.068 9.26997C121.75 9.78987 122.233 10.4466 122.545 11.2401C122.857 12.0337 122.999 13.0187 122.999 14.1953V24.8123H122.942ZM108.973 21.2003C108.973 21.857 109.058 22.4317 109.228 22.8968C109.399 23.362 109.683 23.7725 110.08 24.0735C110.478 24.4018 111.017 24.6207 111.699 24.7849C112.38 24.9217 113.232 25.0038 114.254 25.0038H120.813V20.571C120.813 19.7774 120.671 19.1207 120.415 18.6282C120.16 18.1083 119.762 17.7252 119.251 17.4242C118.74 17.1232 118.116 16.9043 117.349 16.7948C116.582 16.658 115.73 16.6033 114.737 16.6033H114.226C112.323 16.6033 110.989 16.9043 110.194 17.5063C109.399 18.1083 109.001 19.1754 109.001 20.7078V21.2003H108.973Z" fill="#15034C"/>
</svg>
