<?xml version="1.0" encoding="UTF-8"?>
<svg width="16px" height="16px" viewBox="0 0 16 16" version="1.1" xmlns="http://www.w3.org/2000/svg" xmlns:xlink="http://www.w3.org/1999/xlink">
    <!-- Generator: sketchtool 53.2 (72643) - https://sketchapp.com -->
    <title>766DA6E8-C05A-4B76-A39C-63C074D6293C</title>
    <desc>Created with sketchtool.</desc>
    <defs>
        <path d="M15.7918,5.73920365 L3.84126,17.69256 C3.41686,18.11714 2.72864,18.11714 2.30424,17.69256 C1.8796,17.26796 1.8796,16.57946 2.30424,16.15526 L14.2483424,4.20836 L3.03358,4.20836 C2.4815,4.20836 2.03398,3.76066 2.03398,3.20816 L2.03398,3.03402 C2.03398,2.48152 2.4815,2.03382 3.03358,2.03382 L16.6391638,2.03382 C16.9978893,1.94345937 17.3937671,2.03849937 17.67434,2.31894 C17.9483887,2.59319525 18.0455754,2.97705633 17.9659,3.32884694 L17.9659,16.96628 C17.9659,17.5184 17.5184,17.9661 16.96632,17.9661 L16.79164,17.9661 C16.23956,17.9661 15.7918,17.5184 15.7918,16.96628 L15.7918,5.73920365 Z" id="path-1"></path>
        <linearGradient x1="0%" y1="87.3016%" x2="211.535904%" y2="-63.0611359%" id="linearGradient-3">
            <stop stop-color="#E6774C" offset="0%"></stop>
            <stop stop-color="#F92278" offset="100%"></stop>
        </linearGradient>
    </defs>
    <g id="Symbols" stroke="none" stroke-width="1" fill="none" fill-rule="evenodd">
        <g id="box/resumo" transform="translate(-197.000000, -167.000000)">
            <g id="Group-2">
                <g transform="translate(63.000000, 165.000000)">
                    <g id="icon/arrow" transform="translate(142.000000, 10.000000) scale(1, -1) translate(-142.000000, -10.000000) translate(132.000000, 0.000000)">
                        <g>
                            <mask id="mask-2" fill="white">
                                <use xlink:href="#path-1"></use>
                            </mask>
                            <use id="Mask" fill="#AAAAAA" xlink:href="#path-1"></use>
                            <g id="color/primary/main-gradient" mask="url(#mask-2)" fill="url(#linearGradient-3)" fill-rule="nonzero">
                                <g transform="translate(1.000000, 1.000000)">
                                    <rect x="0" y="0" width="18" height="18"></rect>
                                </g>
                            </g>
                        </g>
                    </g>
                </g>
            </g>
        </g>
    </g>
</svg>