<svg width="26" height="18" viewBox="0 0 26 18" fill="none" xmlns="http://www.w3.org/2000/svg">
<g clip-path="url(#clip0_27:381)">
<path fill-rule="evenodd" clip-rule="evenodd" d="M25.7895 15.4709C25.7879 16.0201 25.569 16.5462 25.1807 16.9345C24.7924 17.3228 24.2663 17.5417 23.7171 17.5433H2.99345C2.44432 17.5417 1.91814 17.3228 1.52985 16.9345C1.14156 16.5462 0.922698 16.0201 0.921082 15.4709L0.921082 3.03672C0.922698 2.48759 1.14156 1.96142 1.52985 1.57312C1.91814 1.18483 2.44432 0.965972 2.99345 0.964355L23.7171 0.964355C24.2663 0.965972 24.7924 1.18483 25.1807 1.57312C25.569 1.96142 25.7879 2.48759 25.7895 3.03672V15.4709Z" fill="black"/>
<path d="M21.3586 9.92821C21.3257 10.0886 21.2592 10.2401 21.1633 10.3728C21.0675 10.5056 20.9447 10.6165 20.8028 10.6982C20.661 10.78 20.5035 10.8307 20.3406 10.8471C20.1777 10.8634 20.0132 10.8451 19.8579 10.7932L19.6011 11.5607C19.865 11.6488 20.1447 11.6799 20.4215 11.6521C20.6984 11.6242 20.9662 11.5379 21.2073 11.399C21.4484 11.2601 21.6573 11.0716 21.8203 10.846C21.9832 10.6204 22.0965 10.3629 22.1526 10.0903L21.3586 9.92821ZM18.9211 11.169L19.4571 10.5625C19.3344 10.454 19.2363 10.3206 19.169 10.1713C19.1018 10.022 19.067 9.86006 19.067 9.69629C19.067 9.53252 19.1018 9.37061 19.169 9.22128C19.2363 9.07195 19.3344 8.9386 19.4571 8.83004L18.9211 8.22384C18.7125 8.40834 18.5456 8.63502 18.4312 8.88888C18.3169 9.14275 18.2577 9.418 18.2577 9.69643C18.2577 9.97485 18.3169 10.2501 18.4312 10.504C18.5456 10.7578 18.7125 10.9845 18.9211 11.169ZM19.8568 8.59881C20.0124 8.54686 20.1772 8.52853 20.3403 8.54504C20.5035 8.56155 20.6613 8.61252 20.8032 8.69459C20.9452 8.77665 21.0682 8.88793 21.1639 9.02107C21.2597 9.15421 21.326 9.30616 21.3586 9.46687L22.1521 9.3053C22.0962 9.0327 21.9832 8.77504 21.8205 8.54931C21.6579 8.32358 21.4491 8.13491 21.2082 7.99576C20.9672 7.8566 20.6995 7.77012 20.4227 7.74201C20.1458 7.71391 19.8662 7.74482 19.6022 7.83271L19.8582 8.59881H19.8568ZM17.4822 6.84375V10.6405L18.1408 10.9135L17.829 11.6621L17.1774 11.3913C17.0467 11.3343 16.9353 11.2407 16.8565 11.1219C16.7695 10.9806 16.7257 10.817 16.7306 10.6511V6.84514L17.4822 6.84375ZM14.483 7.73103C14.1265 7.72576 13.7753 7.8175 13.467 7.99645C13.1586 8.17539 12.9047 8.4348 12.7325 8.74692C12.5602 9.05904 12.476 9.41213 12.489 9.7684C12.5019 10.1247 12.6115 10.4707 12.8059 10.7695L16.3662 9.24763C16.2662 8.82114 16.0265 8.44028 15.6854 8.16552C15.3442 7.89076 14.921 7.73784 14.483 7.73103ZM13.3035 9.81844C13.298 9.77222 13.2957 9.72569 13.2965 9.67915C13.3 9.44351 13.3754 9.21457 13.5126 9.02294C13.6498 8.83132 13.8422 8.68616 14.0641 8.60688C14.2861 8.5276 14.5269 8.51799 14.7544 8.57932C14.982 8.64066 15.1854 8.77003 15.3374 8.95011L13.3035 9.81844ZM15.2622 10.523C15.0769 10.7058 14.8352 10.8204 14.5764 10.8479C14.3176 10.8755 14.0571 10.8145 13.8375 10.6748L13.4074 11.3612C13.7808 11.5966 14.2227 11.6993 14.6617 11.6526C15.1006 11.6059 15.511 11.4125 15.8266 11.1038L15.2622 10.523Z" fill="white"/>
<path fill-rule="evenodd" clip-rule="evenodd" d="M9.63674 9.63428C9.58271 9.8969 9.47362 10.1451 9.31666 10.3625C9.15971 10.5799 8.95846 10.7615 8.72619 10.8954C8.49391 11.0294 8.23588 11.1125 7.96912 11.1395C7.70235 11.1664 7.4329 11.1365 7.17854 11.0517L6.75732 12.3095C7.18967 12.4538 7.64769 12.5047 8.10117 12.459C8.55466 12.4133 8.9933 12.272 9.38817 12.0444C9.78304 11.8167 10.1252 11.508 10.392 11.1385C10.6588 10.7689 10.8442 10.347 10.936 9.9006L9.63674 9.63428Z" fill="#ED412F"/>
<path fill-rule="evenodd" clip-rule="evenodd" d="M5.64528 11.6666L6.52393 10.6732C6.32291 10.4954 6.16195 10.277 6.05171 10.0323C5.94147 9.78768 5.88446 9.52241 5.88446 9.25407C5.88446 8.98573 5.94147 8.72046 6.05171 8.47581C6.16195 8.23116 6.32291 8.01273 6.52393 7.83497L5.64472 6.84155C5.30326 7.14391 5.02986 7.51531 4.84262 7.9312C4.65538 8.34708 4.55856 8.79798 4.55856 9.25407C4.55856 9.71016 4.65538 10.1611 4.84262 10.5769C5.02986 10.9928 5.30326 11.3642 5.64472 11.6666" fill="#1AA5DF"/>
<path fill-rule="evenodd" clip-rule="evenodd" d="M7.17859 7.45589C7.4331 7.37102 7.70272 7.34109 7.96965 7.36808C8.23658 7.39507 8.49475 7.47837 8.72712 7.61248C8.95948 7.7466 9.16076 7.92847 9.31767 8.1461C9.47457 8.36372 9.58353 8.61215 9.63735 8.87499L10.9367 8.61006C10.8452 8.16335 10.66 7.74112 10.3934 7.37123C10.1267 7.00135 9.78464 6.69222 9.38974 6.46426C8.99484 6.2363 8.55608 6.09468 8.10242 6.04875C7.64876 6.00282 7.19051 6.05363 6.75793 6.19782L7.17859 7.45589Z" fill="#FFCA32"/>
</g>
<defs>
<clipPath id="clip0_27:381">
<rect width="24.8684" height="16.5789" fill="white" transform="translate(0.921082 0.964355)"/>
</clipPath>
</defs>
</svg>
