<svg width="25" height="15" viewBox="0 0 25 15" fill="none" xmlns="http://www.w3.org/2000/svg">
<path d="M12.5008 4.56941C15.3405 4.56941 17.6425 6.90438 17.6425 9.78471C17.6425 12.665 15.3405 15 12.5008 15C9.66109 15 7.35906 12.665 7.35906 9.78471C7.35906 6.90438 9.66109 4.56941 12.5008 4.56941ZM12.5008 6.52515C10.726 6.52515 9.28721 7.9845 9.28721 9.78471C9.28721 11.5849 10.726 13.0443 12.5008 13.0443C14.2756 13.0443 15.7144 11.5849 15.7144 9.78471C15.7144 7.9845 14.2756 6.52515 12.5008 6.52515ZM12.5008 0C18.4311 0 23.5505 4.10705 24.9709 9.86262C25.1002 10.3865 24.7863 10.9175 24.2698 11.0487C23.7533 11.1798 23.2298 10.8614 23.1005 10.3375C21.8936 5.44732 17.5414 1.95574 12.5008 1.95574C7.45795 1.95574 3.10441 5.45033 1.89965 10.3434C1.77064 10.8674 1.24729 11.1861 0.73071 11.0552C0.214132 10.9244 -0.100054 10.3935 0.0289552 9.86956C1.4469 4.11059 6.56786 0 12.5008 0Z" fill="#2E85EC"/>
</svg>
