<svg width="24" height="24" viewBox="0 0 24 24" fill="none" xmlns="http://www.w3.org/2000/svg">
<path d="M0.263603 0.263604C-0.0559177 0.583124 -0.0849648 1.08312 0.17646 1.43545L0.263603 1.5364L5.10509 6.37788C2.7987 7.99724 1.07493 10.4159 0.35866 13.2773C0.237959 13.7594 0.530993 14.2482 1.01317 14.3689C1.49535 14.4896 1.98408 14.1965 2.10478 13.7144C2.74015 11.1762 4.30934 9.04737 6.401 7.67343L8.57255 9.8451C7.72353 10.7109 7.2 11.8971 7.2 13.2056C7.2 15.8565 9.34903 18.0056 12 18.0056C13.3084 18.0056 14.4946 17.482 15.3604 16.633L22.4636 23.7364C22.8151 24.0879 23.3849 24.0879 23.7364 23.7364C24.0559 23.4169 24.085 22.9169 23.8235 22.5645L23.7364 22.4636L16.4001 15.1266L16.4016 15.1248L14.9615 13.6874L11.5176 10.2441L11.52 10.2432L8.06252 6.78939L8.064 6.7872L6.70406 5.43058L1.5364 0.263604C1.18492 -0.087868 0.615074 -0.087868 0.263603 0.263604ZM9.84488 11.1186L14.087 15.3607C13.547 15.8837 12.8111 16.2055 12 16.2055C10.3431 16.2055 9 14.8624 9 13.2056C9 12.3945 9.32189 11.6585 9.84488 11.1186ZM12 4.2C10.7997 4.2 9.63497 4.37769 8.53331 4.71L10.0177 6.19343C10.6606 6.06638 11.3237 6 12 6C16.7077 6 20.7719 9.21632 21.8966 13.7198C22.017 14.202 22.5056 14.4953 22.9878 14.3749C23.4701 14.2545 23.7634 13.7659 23.6429 13.2836C22.3192 7.98326 17.5386 4.2 12 4.2ZM12.2336 8.41114L16.7952 12.972C16.6731 10.5037 14.6967 8.52917 12.2336 8.41114Z" fill="#2E85EC"/>
</svg>
