<svg xmlns="http://www.w3.org/2000/svg" viewBox="0 0 55.97 55.61"><defs><style>.cls-1{fill:#15034c;}</style></defs><g id="Layer_2" data-name="Layer 2"><g id="Layer_1-2" data-name="Layer 1"><path class="cls-1" d="M55.16,0C48,4,40.7,8,33.49,12c-3.6,0-7.25,0-10.85-.08C15.39,8,8.18,4,.93,0,2.67,7.51,4.37,15,6.12,22.53,13.4,33,20.73,43.53,28,54.07Q39,38.32,49.85,22.53C51.63,15,53.38,7.51,55.16,0Z"/><path class="cls-1" d="M5.18,24C3.44,28.51,1.74,33,0,37.52q13.54,9,27.09,18Q16.16,39.78,5.18,24Z"/><path class="cls-1" d="M50.74,24,56,37.6q-13.55,9-27.1,18C36.16,45.11,43.45,34.53,50.74,24Z"/></g></g></svg>