<svg width="235" height="207" viewBox="0 0 235 207" fill="none" xmlns="http://www.w3.org/2000/svg">
<path d="M43.4602 106.287C45.1106 109.888 46.4235 112.176 47.5113 113.601" stroke="black"/>
<path d="M125.479 205.052C179.546 205.052 223.379 161.219 223.379 106.958C223.379 52.6978 179.353 8.86462 125.479 8.86462C71.4116 8.86462 27.5784 52.6978 27.5784 106.958C27.5784 161.219 71.4116 205.052 125.479 205.052Z" fill="#F1F3F9" stroke="#8DB8EC" stroke-width="2" stroke-miterlimit="10"/>
<path d="M217.007 42.6569C221.38 42.6569 224.924 39.1123 224.924 34.7399C224.924 30.3674 221.38 26.8229 217.007 26.8229C212.635 26.8229 209.09 30.3674 209.09 34.7399C209.09 39.1123 212.635 42.6569 217.007 42.6569Z" fill="#F1F3F9"/>
<path d="M228.593 11.7612C231.579 11.7612 234 9.34055 234 6.35449C234 3.36843 231.579 0.947754 228.593 0.947754C225.607 0.947754 223.187 3.36843 223.187 6.35449C223.187 9.34055 225.607 11.7612 228.593 11.7612Z" fill="#F1F3F9"/>
<path d="M32.792 42.4637C35.778 42.4637 38.1987 40.0431 38.1987 37.057C38.1987 34.0709 35.778 31.6503 32.792 31.6503C29.8059 31.6503 27.3853 34.0709 27.3853 37.057C27.3853 40.0431 29.8059 42.4637 32.792 42.4637Z" fill="#F1F3F9"/>
<path d="M10.0411 159.342C15.5866 159.342 20.0822 154.846 20.0822 149.301C20.0822 143.755 15.5866 139.26 10.0411 139.26C4.49555 139.26 0 143.755 0 149.301C0 154.846 4.49555 159.342 10.0411 159.342Z" fill="#F1F3F9"/>
<path d="M229.446 150.768H199.745C198.34 150.768 197.136 149.865 196.735 148.661C193.825 140.032 187.403 137.924 171.851 131.804C170.948 131.402 170.847 130.198 171.75 129.696C176.266 127.489 175.463 125.583 175.463 112.338C175.262 112.137 175.062 111.836 174.961 111.635C173.958 110.13 173.255 108.324 173.055 106.518L172.051 106.016C169.041 106.719 169.242 103.508 168.439 97.2867C168.138 94.6779 168.539 94.1762 169.643 93.7748L170.647 92.4704C164.727 79.2255 167.737 70.8973 173.556 67.8871C171.65 63.6728 171.55 62.1677 171.55 62.1677C171.55 62.1677 183.891 64.2749 188.106 63.3718C193.524 62.2681 201.752 63.5725 204.862 70.6966C209.98 72.7034 211.987 76.0146 212.488 79.4262C213.191 85.0452 210.08 91.166 209.478 93.5741C209.578 93.6745 209.578 93.7748 209.679 93.8751C210.482 94.2765 210.783 94.9789 210.482 97.1864C209.779 103.106 209.879 106.819 206.869 105.916L204.16 110.632C204.06 111.234 203.959 111.435 203.959 111.736C203.859 112.639 203.859 114.344 203.859 124.178C203.859 125.382 204.16 126.486 204.762 127.389C205.364 128.492 206.368 129.295 207.572 129.797H207.672C214.696 132.707 219.713 134.613 223.425 136.118C231.653 139.429 233.058 140.333 233.76 145.851C233.961 148.56 232.055 150.768 229.446 150.768Z" fill="white" stroke="#8DB8EC" stroke-width="2" stroke-miterlimit="10"/>
<path d="M209.275 93.4722C209.576 91.9671 208.873 90.161 208.271 88.8566C208.171 88.6559 208.071 88.4552 207.97 88.1542C205.663 83.4382 200.345 81.4314 195.328 81.2307C182.484 80.5283 181.28 83.0368 177.266 79.3243C178.47 81.2307 178.671 84.1406 176.664 87.8532C175.36 90.462 172.751 91.5657 170.443 92.3685C164.624 79.1236 167.533 70.7954 173.353 67.7852C171.447 63.5709 171.346 62.0658 171.346 62.0658C171.346 62.0658 183.688 64.1729 187.902 63.2699C193.321 62.1661 201.549 63.4706 204.659 70.5947C209.776 72.6015 211.783 75.9127 212.285 79.3243C213.088 84.9433 209.877 91.064 209.275 93.4722Z" fill="#8DB8EC"/>
<path d="M175.337 112.145C175.939 113.249 176.263 113.039 177.166 113.841L186.497 120.363C188.705 122.169 191.815 122.27 194.023 120.464L202.753 112.637C203.054 112.336 203.475 111.52 203.777 111.219" stroke="#8DB8EC" stroke-width="2" stroke-miterlimit="10"/>
<path d="M75.9232 128.391C71.1069 128.29 70.6052 127.387 70.6052 127.387V119.36C75.7225 115.146 80.0371 110.229 81.2412 103.807C84.4521 103.105 86.4589 100.195 86.1579 96.9842C86.0575 95.5794 85.1544 94.275 85.0541 92.7699C85.0541 92.0675 85.0541 91.3652 85.0541 90.6628C85.0541 90.1611 85.0541 89.7597 84.9538 89.258C84.9538 88.7563 84.8534 88.2546 84.8534 87.7529C84.5524 85.3448 83.9504 82.8363 82.3449 79.9264C78.3313 72.4009 70.4045 67.3839 61.4742 67.3839C59.6681 67.3839 57.862 67.5846 56.1562 67.9859C52.9453 68.6883 50.0355 70.0931 47.4266 72.0999C46.9249 72.5012 46.4232 72.9026 45.9215 73.304C45.8212 73.4043 45.7209 73.5046 45.5202 73.605C42.7107 76.2138 40.5032 79.525 39.2991 83.2376C38.095 86.9502 37.794 90.7631 38.2957 94.576C38.2957 94.6764 38.2957 94.7767 38.2957 94.8771C38.2957 94.9774 38.2957 95.0777 38.2957 95.1781C38.396 95.8804 38.5967 95.7801 38.095 96.3821C37.9947 96.5828 37.794 96.7835 37.6937 97.0845C37.0916 98.1883 36.5899 99.6934 37.2923 101.499C38.4964 104.911 40.9045 104.409 43.112 106.316C43.0117 106.416 42.811 106.516 42.7107 106.516H42.6103L40.1018 107.319C25.0508 112.035 23.3451 127.989 38.7974 130.899C37.6937 130.999 36.6903 131.601 35.9879 132.103C31.0712 135.916 27.9607 141.736 27.158 147.455C26.857 149.161 28.2617 150.766 30.0678 150.766H53.9487C54.4504 150.766 54.9521 150.365 55.1528 149.863C57.3603 141.836 62.3773 139.027 72.8126 134.812L78.833 132.404C79.8364 132.003 80.9402 131.601 82.1443 131.1C83.248 130.698 83.1477 129.093 81.9436 128.792C80.7395 128.491 79.5354 128.391 78.3313 128.29C77.3279 128.391 76.5252 128.391 75.9232 128.391ZM45.3195 118.156C45.3195 117.153 46.0219 116.049 47.527 114.845C48.129 115.647 48.9317 116.55 49.8348 117.353C50.5372 117.955 51.2396 118.557 52.0423 119.159C52.544 119.46 53.0457 119.862 53.5474 120.263C53.6477 120.363 53.7481 120.464 53.8484 120.464C53.9487 120.564 54.1494 120.664 54.2498 120.765V125.681C54.1494 125.581 54.0491 125.481 53.9487 125.481C53.447 125.079 53.0457 124.678 52.6443 124.377C51.9419 123.875 51.2396 123.474 50.5372 123.073C50.2362 122.872 50.0355 122.772 49.8348 122.571C47.527 121.066 45.4198 119.661 45.3195 118.156Z" fill="white" stroke="#8DB8EC" stroke-width="2" stroke-miterlimit="10"/>
<path d="M54.1672 120.654C58.3815 122.761 63.1799 123.675 70.7054 119.26" stroke="#8DB8EC" stroke-width="2" stroke-miterlimit="10"/>
<path d="M84.8534 89.2583C80.5388 90.7634 75.9231 91.3654 71.3075 90.964C64.083 90.362 57.0592 87.4521 51.6409 82.6358C49.8348 87.8535 45.3195 91.7668 40.2021 94.0746C39.4997 94.3756 38.7974 94.6766 38.095 94.8773C38.095 94.777 38.095 94.6766 38.095 94.6766C37.5933 90.8637 37.8943 87.0508 39.0984 83.3382C40.3025 79.6256 42.5099 76.3144 45.3195 73.7056C45.4198 73.6052 45.5201 73.5049 45.7208 73.4046C46.2225 73.0032 46.7242 72.6018 47.2259 72.2005C49.8348 70.294 52.845 68.8893 55.9555 68.0865C57.7616 67.6852 59.4674 67.4845 61.2735 67.4845C70.2038 67.4845 78.1306 72.5015 82.1442 80.027C83.6493 82.9368 84.3517 85.4453 84.6527 87.7532C84.8534 88.2549 84.8534 88.7566 84.8534 89.2583Z" fill="#8DB8EC"/>
<path d="M57.2599 140.532C55.3534 142.94 51.7412 143.04 48.731 142.94C51.9418 139.829 50.1357 129.695 38.8976 130.899H38.7973C23.345 127.989 25.0507 112.035 40.0014 107.319L42.5099 106.517C42.7106 106.617 42.8109 106.717 42.9112 106.918C44.1153 110.029 45.7208 112.637 47.4265 114.744C41.3058 119.862 49.8347 121.467 53.9486 125.381C57.5609 127.488 60.5711 136.318 57.2599 140.532Z" fill="#8DB8EC"/>
<path d="M40.6462 104.712C47.8857 107.563 44.6801 111.356 47.6059 114.807" stroke="#8DB8EC" stroke-width="1.8"/>
<path d="M191.013 155.382C191.515 159.095 188.605 162.506 184.792 162.506H67.1935C63.3805 162.506 60.4707 159.095 60.9724 155.382C62.0761 147.656 63.7819 146.05 75.2207 141.435L78.0302 140.331C83.3482 138.224 90.2717 135.615 99.6033 131.702C101.71 130.799 103.416 129.193 104.319 127.086C104.821 125.982 105.122 124.678 105.122 123.374V105.814C104.821 105.413 104.52 105.112 104.319 104.71C102.814 102.503 101.811 99.894 101.51 97.0845L100.005 96.3821C95.4893 97.4858 95.8907 92.6695 94.6866 83.4382C94.1849 79.6253 94.7869 78.8226 96.4927 78.2206L97.8975 76.3141C89.2682 56.7478 93.5829 44.5064 102.112 40.1917C99.5029 33.9707 99.3022 31.7632 99.3022 31.7632C99.3022 31.7632 117.464 34.7734 123.685 33.5693C131.612 31.9639 143.853 33.8703 148.368 44.406C155.894 47.4162 158.804 52.1322 159.506 57.3499C160.61 65.5777 155.894 74.6083 154.991 78.1202C155.091 78.3209 155.091 78.4212 155.192 78.5216C156.396 79.1236 156.797 80.127 156.396 83.4382C155.292 92.1678 155.593 97.5862 151.078 96.3821L147.064 103.406C146.863 104.209 146.863 104.51 146.763 105.112C146.562 106.416 146.663 109.025 146.663 123.374C146.663 125.079 147.164 126.785 148.067 128.09C149.071 129.595 150.476 130.899 152.181 131.601C152.282 131.601 152.282 131.601 152.382 131.702C162.717 136.016 170.142 138.826 175.561 140.933C187.902 145.749 189.809 147.254 191.013 155.382Z" fill="white" stroke="#8DB8EC" stroke-width="2" stroke-miterlimit="10"/>
<path d="M155.091 78.1202C155.492 75.9127 154.489 73.2036 153.686 71.2971C153.586 70.9961 153.385 70.6951 153.285 70.2937C149.773 63.2699 142.047 60.4604 134.622 60.059C115.657 59.0556 113.952 62.6679 108.032 57.2495C109.838 60.059 110.038 64.3737 107.229 69.792C105.222 73.6049 101.409 75.3107 98.0979 76.4144C89.4687 56.8482 93.7833 44.6067 102.312 40.2921C99.5027 33.9707 99.302 31.7632 99.302 31.7632C99.302 31.7632 117.464 34.7734 123.685 33.5693C131.611 31.9639 143.853 33.8703 148.368 44.406C155.894 47.4162 158.804 52.1322 159.506 57.3499C160.71 65.4774 155.994 74.508 155.091 78.1202Z" fill="#8DB8EC"/>
<path d="M105.222 105.814C104.921 105.413 104.62 105.112 104.419 104.71V103.707C105.322 105.312 106.527 106.818 108.032 108.022L121.778 117.654C124.989 120.363 129.605 120.464 132.916 117.855L145.759 106.316C146.161 105.915 146.663 105.513 147.064 105.112" stroke="#8DB8EC" stroke-width="2" stroke-miterlimit="10"/>
</svg>
