<svg width="20" height="18" viewBox="0 0 20 18" fill="none" xmlns="http://www.w3.org/2000/svg">
    <path d="M8.42733 0.917322C9.12533 -0.305774 10.8747 -0.305774 11.5727 0.917322L19.7553 15.2556C20.4518 16.4762 19.5786 18 18.1826 18H1.81741C0.421409 18 -0.451812 16.4762 0.244742 15.2556L8.42733 0.917322ZM9 7V9C9 9.55229 9.44771 10 10 10C10.5523 10 11 9.55229 11 9V7C11 6.44772 10.5523 6 10 6C9.44771 6 9 6.44772 9 7ZM10 11.5C9.17157 11.5 8.5 12.1716 8.5 13C8.5 13.8284 9.17157 14.5 10 14.5C10.8284 14.5 11.5 13.8284 11.5 13C11.5 12.1716 10.8284 11.5 10 11.5Z" fill="#FF9900"/>
</svg>
