<?xml version="1.0" encoding="utf-8"?>
<!-- Generator: Adobe Illustrator 25.0.1, SVG Export Plug-In . SVG Version: 6.00 Build 0)  -->
<svg version="1.1" id="NoSearchResult" xmlns="http://www.w3.org/2000/svg" xmlns:xlink="http://www.w3.org/1999/xlink" x="0px"
	 y="0px" viewBox="0 0 250 200" style="enable-background:new 0 0 250 200;" xml:space="preserve">
<style type="text/css">
	.st0{fill:#F3F7FF;}
	.st1{fill:#F3F7FF;stroke:#2E85EC;stroke-width:2.5;stroke-miterlimit:10;}
	.st2{fill:#FFFFFF;stroke:#2E85EC;stroke-width:2.5;stroke-linecap:round;stroke-miterlimit:10;}
	.st3{fill:none;stroke:#2E85EC;stroke-width:2.5;stroke-linecap:round;stroke-miterlimit:10;}
	.st4{fill:none;stroke:#A4C3FE;stroke-width:2.5;stroke-linecap:round;stroke-miterlimit:10;}
	.st5{fill:none;stroke:#2E85EC;stroke-width:2.5;stroke-miterlimit:10;}
	.st6{fill:#E8F0FE;}
	.st7{fill:#2E85EC;}
	.st8{fill:none;stroke:#FFFFFF;stroke-width:2.5;stroke-linecap:round;stroke-miterlimit:10;}
</style>
<path id="Background" class="st0" d="M87.5,135c-3.9,0-7-3.1-7-7s3.1-7,7-7h-39c-3.9,0-7-3.1-7-7s3.1-7,7-7h40c3.9,0,7-3.1,7-7
	s-3.1-7-7-7h-25c-3.9,0-7-3.1-7-7s3.1-7,7-7h40c-3.9,0-7-3.1-7-7c0-3.9,3.1-7,7-7h98c3.9,0,7,3.1,7,7c0,3.9-3.1,7-7,7h-40
	c3.9,0,7,3.1,7,7s-3.1,7-7,7h22c3.9,0,7,3.1,7,7s-3.1,7-7,7h-10.2c-4.9,0-8.8,3.1-8.8,7s6,7,6,7c3.9,0,7,3.1,7,7s-3.1,7-7,7H87.5z
	 M194.5,100c0-3.9,3.1-7,7-7s7,3.1,7,7s-3.1,7-7,7S194.5,103.9,194.5,100z"/>
<g id="Search" transform="translate(87 66)">
	<circle id="Oval" class="st1" cx="33.5" cy="33.5" r="33.5"/>
	<path id="Oval-2" class="st2" d="M28.1,59.5c1.8,0.3,3.6,0.5,5.4,0.5C48.2,60,60,48.1,60,33.5S48.2,6.9,33.5,6.9S7,18.8,7,33.5
		c0,6.5,2.4,12.8,6.7,17.6"/>
	<path id="Oval-3" class="st3" d="M16.8,54.1c2.2,1.8,4.6,3.2,7.2,4.2"/>
	<path id="Oval-4" class="st4" d="M34,15c-10.5,0-19,8.5-19,19c0,0,0,0,0,0"/>
	<path id="Path_4" class="st5" d="M61,60l6,6"/>
	<g id="Rectangle" transform="translate(63 62)">
		<path class="st6" d="M17.5,22.4c-1.3,0-2.5-0.5-3.4-1.4L3,9.9C1.1,8,1.1,4.9,3,3c0.9-0.9,2.1-1.4,3.4-1.4C7.8,1.6,9,2.1,9.9,3
			L21,14.1c1.9,1.9,1.9,5,0,6.9C20.1,21.9,18.8,22.4,17.5,22.4z"/>
		<path class="st7" d="M6.5,2.9c-1,0-1.9,0.4-2.5,1.1C2.5,5.3,2.5,7.6,3.9,9L15,20.1c0.7,0.7,1.6,1.1,2.5,1.1s1.9-0.4,2.5-1.1
			c1.4-1.4,1.4-3.7,0-5.1L9,3.9C8.3,3.2,7.4,2.9,6.5,2.9 M6.5,0.4C8,0.4,9.6,1,10.8,2.1l11.1,11.1c2.4,2.4,2.4,6.2,0,8.6
			c-1.2,1.2-2.8,1.8-4.3,1.8s-3.1-0.6-4.3-1.8L2.1,10.8c-2.4-2.4-2.4-6.2,0-8.6C3.3,1,4.9,0.4,6.5,0.4z"/>
	</g>
	<path id="Line" class="st8" d="M71,67l11,11"/>
</g>
</svg>
