<svg width="62" height="62" viewBox="0 0 62 62" fill="none" xmlns="http://www.w3.org/2000/svg">
<rect width="62" height="62" rx="8" fill="#002F66"/>
<path fill-rule="evenodd" clip-rule="evenodd" d="M31 45C38.732 45 45 38.732 45 31C45 23.268 38.732 17 31 17C23.268 17 17 23.268 17 31C17 38.732 23.268 45 31 45ZM31 48.5C40.665 48.5 48.5 40.665 48.5 31C48.5 21.335 40.665 13.5 31 13.5C21.335 13.5 13.5 21.335 13.5 31C13.5 40.665 21.335 48.5 31 48.5Z" fill="white"/>
<path fill-rule="evenodd" clip-rule="evenodd" d="M29.25 22.25C29.25 21.2835 30.0335 20.5 31 20.5C31.9665 20.5 32.75 21.2835 32.75 22.25C35.6495 22.25 38 24.6005 38 27.5C38 28.4665 37.2165 29.25 36.25 29.25C35.2835 29.25 34.5 28.4665 34.5 27.5C34.5 26.5335 33.7165 25.75 32.75 25.75H31H28.801C28.0825 25.75 27.5 26.3325 27.5 27.051C27.5 27.611 27.8583 28.1081 28.3896 28.2852L34.7172 30.3944C36.6777 31.0479 38 32.8825 38 34.949C38 37.6005 35.8505 39.75 33.199 39.75H32.75C32.75 40.7165 31.9665 41.5 31 41.5C30.0335 41.5 29.25 40.7165 29.25 39.75C26.3505 39.75 24 37.3995 24 34.5C24 33.5335 24.7835 32.75 25.75 32.75C26.7165 32.75 27.5 33.5335 27.5 34.5C27.5 35.4665 28.2835 36.25 29.25 36.25H31H33.199C33.9175 36.25 34.5 35.6675 34.5 34.949C34.5 34.389 34.1417 33.8919 33.6104 33.7148L27.2828 31.6056C25.3223 30.9521 24 29.1175 24 27.051C24 24.3995 26.1495 22.25 28.801 22.25L29.25 22.25Z" fill="white"/>
</svg>
