<svg width="39" height="39" viewBox="0 0 39 39" fill="none" xmlns="http://www.w3.org/2000/svg">
<path d="M10.4142 0.585786C11.1953 1.36683 11.1953 2.63317 10.4142 3.41421L6.82843 7H22.5C31.3366 7 38.5 14.1634 38.5 23C38.5 31.8366 31.3366 39 22.5 39C13.6634 39 6.5 31.8366 6.5 23C6.5 21.8954 7.39543 21 8.5 21C9.60457 21 10.5 21.8954 10.5 23C10.5 29.6274 15.8726 35 22.5 35C29.1274 35 34.5 29.6274 34.5 23C34.5 16.3726 29.1274 11 22.5 11H6.82843L10.4142 14.5858C11.1953 15.3668 11.1953 16.6332 10.4142 17.4142C9.63317 18.1953 8.36683 18.1953 7.58579 17.4142L0.585786 10.4142C-0.195262 9.63317 -0.195262 8.36683 0.585786 7.58579L7.58579 0.585786C8.36683 -0.195262 9.63317 -0.195262 10.4142 0.585786Z" fill="#002F66"/>
</svg>
