<svg width="62" height="62" viewBox="0 0 62 62" fill="none" xmlns="http://www.w3.org/2000/svg">
<rect width="62" height="62" rx="8" fill="#002F66"/>
<path d="M25.5 33C26.3284 33 27 32.3284 27 31.5C27 30.6716 26.3284 30 25.5 30C24.6716 30 24 30.6716 24 31.5C24 32.3284 24.6716 33 25.5 33ZM27 36.5C27 37.3284 26.3284 38 25.5 38C24.6716 38 24 37.3284 24 36.5C24 35.6716 24.6716 35 25.5 35C26.3284 35 27 35.6716 27 36.5ZM31 38C31.8284 38 32.5 37.3284 32.5 36.5C32.5 35.6716 31.8284 35 31 35C30.1716 35 29.5 35.6716 29.5 36.5C29.5 37.3284 30.1716 38 31 38ZM32.5 31.5C32.5 32.3284 31.8284 33 31 33C30.1716 33 29.5 32.3284 29.5 31.5C29.5 30.6716 30.1716 30 31 30C31.8284 30 32.5 30.6716 32.5 31.5ZM36.5 33C37.3284 33 38 32.3284 38 31.5C38 30.6716 37.3284 30 36.5 30C35.6716 30 35 30.6716 35 31.5C35 32.3284 35.6716 33 36.5 33ZM19 24C19 21.2386 21.2386 19 24 19H38C40.7614 19 43 21.2386 43 24V38C43 40.7614 40.7614 43 38 43H24C21.2386 43 19 40.7614 19 38V24ZM24 21C22.3431 21 21 22.3431 21 24V25H41V24C41 22.3431 39.6569 21 38 21H24ZM21 38C21 39.6569 22.3431 41 24 41H38C39.6569 41 41 39.6569 41 38V27H21V38Z" fill="white"/>
</svg>
