<svg width="48" height="48" viewBox="0 0 48 48" fill="none" xmlns="http://www.w3.org/2000/svg">
<path d="M23.9999 47.9998C37.2546 47.9998 47.9998 37.2546 47.9998 23.9999C47.9998 10.7451 37.2546 0 23.9999 0C10.7451 0 0 10.7451 0 23.9999C0 37.2546 10.7451 47.9998 23.9999 47.9998Z" fill="url(#paint0_linear_174_369)"/>
<path d="M38.3995 48.0001H9.59961V16.9603C10.957 16.9588 12.2584 16.4189 13.2183 15.459C14.1781 14.4992 14.7181 13.1978 14.7196 11.8403H33.2795C33.278 12.5128 33.41 13.1788 33.6676 13.7999C33.9253 14.421 34.3036 14.9849 34.7806 15.4589C35.2545 15.936 35.8184 16.3144 36.4396 16.5721C37.0608 16.8299 37.7269 16.9618 38.3995 16.9603V48.0001Z" fill="white"/>
<path d="M24.0003 32.6395C28.2418 32.6395 31.6802 29.201 31.6802 24.9595C31.6802 20.718 28.2418 17.2795 24.0003 17.2795C19.7587 17.2795 16.3203 20.718 16.3203 24.9595C16.3203 29.201 19.7587 32.6395 24.0003 32.6395Z" fill="#2E85EC"/>
<path d="M26.7153 28.5804L24 25.8651L21.2847 28.5804L20.3796 27.6753L23.0949 24.96L20.3796 22.2448L21.2847 21.3397L24 24.0549L26.7153 21.3397L27.6204 22.2448L24.9051 24.96L27.6204 27.6753L26.7153 28.5804Z" fill="white"/>
<path d="M28.1598 34.5598H19.8399C19.3097 34.5598 18.8799 34.9896 18.8799 35.5198C18.8799 36.05 19.3097 36.4798 19.8399 36.4798H28.1598C28.69 36.4798 29.1198 36.05 29.1198 35.5198C29.1198 34.9896 28.69 34.5598 28.1598 34.5598Z" fill="#EBEBEB"/>
<path d="M31.0399 38.3998H16.96C16.4298 38.3998 16 38.8296 16 39.3598C16 39.89 16.4298 40.3198 16.96 40.3198H31.0399C31.5701 40.3198 31.9999 39.89 31.9999 39.3598C31.9999 38.8296 31.5701 38.3998 31.0399 38.3998Z" fill="#EBEBEB"/>
<defs>
<linearGradient id="paint0_linear_174_369" x1="23.9999" y1="0" x2="23.9999" y2="47.9998" gradientUnits="userSpaceOnUse">
<stop stop-color="#E3ECFA"/>
<stop offset="1" stop-color="#DAE7FF"/>
</linearGradient>
</defs>
</svg>
