<svg width="15" height="15" viewBox="0 0 15 15" fill="none" xmlns="http://www.w3.org/2000/svg">
<path d="M14.2706 0.729413C15.2431 1.70196 15.2431 3.27878 14.2706 4.25133L5.07307 13.4488C4.67412 13.8478 4.17424 14.1308 3.62688 14.2677L0.77416 14.9808C0.318185 15.0948 -0.094838 14.6818 0.0191557 14.2258L0.732336 11.3731C0.869176 10.8258 1.1522 10.3259 1.55116 9.92693L10.7487 0.729413C11.7212 -0.243138 13.298 -0.243138 14.2706 0.729413ZM9.8681 3.37072L2.43164 10.8074C2.19226 11.0468 2.02245 11.3467 1.94034 11.6751L1.47883 13.5212L3.32488 13.0597C3.65329 12.9776 3.95322 12.8077 4.19259 12.5684L11.6288 5.13141L9.8681 3.37072ZM11.6291 1.60989L10.7484 2.49037L12.5091 4.25106L13.3901 3.37085C13.8764 2.88458 13.8764 2.09617 13.3901 1.60989C12.9038 1.12362 12.1154 1.12362 11.6291 1.60989Z" fill="#2E85EC"/>
</svg>
