<svg width="16" height="16" viewBox="0 0 16 16" fill="none" xmlns="http://www.w3.org/2000/svg">
<path d="M8 16C3.58172 16 0 12.4183 0 8C0 3.58172 3.58172 0 8 0C12.4183 0 16 3.58172 16 8C16 12.4183 12.4183 16 8 16ZM1 8C1 11.866 4.13401 15 8 15C11.866 15 15 11.866 15 8C15 4.13401 11.866 1 8 1C4.13401 1 1 4.13401 1 8Z" fill="#999999"/>
<path d="M10.9749 5.52516V9.7678C10.9749 10.0439 10.751 10.2678 10.4749 10.2678C10.1987 10.2678 9.97486 10.0439 9.97486 9.7678V6.73227L5.87866 10.8285C5.6834 11.0237 5.36682 11.0237 5.17156 10.8285C4.97629 10.6332 4.97629 10.3166 5.17156 10.1214L9.26775 6.02516L6.23222 6.02516C5.95607 6.02516 5.73222 5.80131 5.73222 5.52516C5.73222 5.24902 5.95607 5.02516 6.23222 5.02516H10.4749C10.751 5.02516 10.9749 5.24902 10.9749 5.52516Z" fill="#999999"/>
</svg>
