<svg width="20" height="14" viewBox="0 0 20 14" fill="none" xmlns="http://www.w3.org/2000/svg">
    <path d="M6.71354 2.86303C6.0275 3.70152 5.71429 4.78576 5.71429 5.71429C5.71429 6.10877 5.39449 6.42857 5 6.42857C2.41167 6.42857 1.42857 8.23451 1.42857 9.28571C1.42857 9.89625 1.58291 10.5968 2.05541 11.1368C2.51088 11.6573 3.36249 12.1429 5 12.1429H15C16.3217 12.1429 17.2035 11.8203 17.7458 11.3492C18.2739 10.8904 18.5714 10.2116 18.5714 9.28571C18.5714 8.45421 18.1694 7.75763 17.5099 7.24835C16.8408 6.73167 15.9258 6.42857 15 6.42857C14.6055 6.42857 14.2857 6.10877 14.2857 5.71429C14.2857 4.14264 13.6675 3.09563 12.8513 2.42783C12.0128 1.74179 10.9285 1.42857 10 1.42857C8.42836 1.42857 7.38134 2.04682 6.71354 2.86303ZM5.60789 1.9584C6.54723 0.810318 8.00022 0 10 0C11.2143 0 12.6301 0.401069 13.7559 1.32217C14.7709 2.15264 15.5219 3.38458 15.6824 5.0409C16.6664 5.15878 17.6205 5.52884 18.383 6.11767C19.3306 6.84944 20 7.93858 20 9.28571C20 10.5384 19.5832 11.6453 18.6827 12.4276C17.7965 13.1976 16.5354 13.5714 15 13.5714H5C3.06609 13.5714 1.77484 12.9855 0.980302 12.0775C0.202801 11.1889 0 10.1037 0 9.28571C0 7.60315 1.37921 5.33567 4.32634 5.03371C4.44906 3.99387 4.85454 2.87916 5.60789 1.9584Z" fill="#5B5B5B"/>
</svg>
