<svg width="18" height="18" viewBox="0 0 18 18" fill="none" xmlns="http://www.w3.org/2000/svg">
<path d="M10.9633 12.0239C9.80854 12.9477 8.34378 13.5001 6.75 13.5001C3.02208 13.5001 0 10.478 0 6.75003C0 3.02209 3.02208 0 6.75 0C10.4779 0 13.5 3.02209 13.5 6.75003C13.5 8.34377 12.9477 9.80852 12.024 10.9633L17.7803 16.7197C18.0732 17.0126 18.0732 17.4874 17.7803 17.7803C17.4874 18.0732 17.0126 18.0732 16.7197 17.7803L10.9633 12.0239ZM12 6.75003C12 3.85052 9.6495 1.50001 6.75 1.50001C3.85051 1.50001 1.5 3.85052 1.5 6.75003C1.5 9.64953 3.85051 12 6.75 12C9.6495 12 12 9.64953 12 6.75003Z" fill="white"/>
</svg>
