<svg width="23" height="14" viewBox="0 0 22 14" fill="none" xmlns="http://www.w3.org/2000/svg">
    <path d="M2.23662 9.08278C3.1251 4.82496 6.83249 1.8 10.9998 1.8C15.1672 1.8 18.8745 4.82495 19.763 9.08279C19.8364 9.4342 20.1807 9.65963 20.5321 9.58629C20.8835 9.51295 21.109 9.16863 21.0356 8.81721C20.0251 3.97505 15.8013 0.5 10.9998 0.5C6.19838 0.5 1.97445 3.97504 0.964032 8.81722C0.890702 9.16864 1.11613 9.51297 1.46755 9.5863C1.81897 9.65963 2.16329 9.43419 2.23662 9.08278ZM10.9998 4.4C8.48691 4.4 6.4498 6.4371 6.4498 8.95C6.4498 11.4629 8.48691 13.5 10.9998 13.5C13.5127 13.5 15.5498 11.4629 15.5498 8.95C15.5498 6.4371 13.5127 4.4 10.9998 4.4ZM7.7498 8.95C7.7498 7.15507 9.20488 5.7 10.9998 5.7C12.7947 5.7 14.2498 7.15507 14.2498 8.95C14.2498 10.7449 12.7947 12.2 10.9998 12.2C9.20488 12.2 7.7498 10.7449 7.7498 8.95Z" fill="#212121"/>
</svg>
