<svg width="20" height="23" viewBox="0 0 20 23" fill="none" xmlns="http://www.w3.org/2000/svg">
<path d="M12 4.00008C12 2.89551 11.1046 2.00008 10 2.00008C8.89543 2.00008 8 2.89551 8 4.00008H6.66667C6.66667 2.15913 8.15905 0.666748 10 0.666748C11.841 0.666748 13.3333 2.15913 13.3333 4.00008H19.3333C19.7015 4.00008 20 4.29856 20 4.66675C20 5.03494 19.7015 5.33342 19.3333 5.33342H18.5947L16.8666 20.3057C16.7113 21.6513 15.572 22.6667 14.2175 22.6667H5.7825C4.428 22.6667 3.28867 21.6513 3.13341 20.3057L1.404 5.33342H0.666667C0.339387 5.33342 0.0671889 5.09758 0.0107409 4.78658L0 4.66675C0 4.29856 0.298477 4.00008 0.666667 4.00008H12ZM17.2507 5.33342H2.748L4.45796 20.1529C4.53558 20.8257 5.10525 21.3334 5.7825 21.3334H14.2175C14.8948 21.3334 15.4644 20.8257 15.542 20.1529L17.2507 5.33342ZM8 8.66675C8.32728 8.66675 8.59948 8.8731 8.65593 9.14523L8.66667 9.25008V17.4167C8.66667 17.7389 8.36819 18.0001 8 18.0001C7.67272 18.0001 7.40052 17.7937 7.34407 17.5216L7.33333 17.4167V9.25008C7.33333 8.92792 7.63181 8.66675 8 8.66675ZM12 8.66675C12.3273 8.66675 12.5995 8.8731 12.6559 9.14523L12.6667 9.25008V17.4167C12.6667 17.7389 12.3682 18.0001 12 18.0001C11.6727 18.0001 11.4005 17.7937 11.3441 17.5216L11.3333 17.4167V9.25008C11.3333 8.92792 11.6318 8.66675 12 8.66675Z" fill="#212121"/>
</svg>
