<svg width="16" height="22" viewBox="0 0 16 22" fill="none" xmlns="http://www.w3.org/2000/svg">
<path d="M3.5 0.5C1.84315 0.5 0.5 1.84315 0.5 3.5V18.5C0.5 20.1569 1.84315 21.5 3.5 21.5H12.5C14.1569 21.5 15.5 20.1569 15.5 18.5V7.12132C15.5 6.52458 15.2629 5.95229 14.841 5.53033L10.4697 1.15901C10.0477 0.737053 9.47542 0.5 8.87868 0.5H3.5ZM2 3.5C2 2.67157 2.67157 2 3.5 2H8V5.75C8 6.99264 9.00736 8 10.25 8H14V18.5C14 19.3284 13.3284 20 12.5 20H3.5C2.67157 20 2 19.3284 2 18.5V3.5ZM13.6893 6.5H10.25C9.83579 6.5 9.5 6.16421 9.5 5.75V2.31066L13.6893 6.5Z" fill="#5B5B5B"/>
</svg>
