<svg width="22" height="26" viewBox="0 0 22 26" fill="none" xmlns="http://www.w3.org/2000/svg">
<path d="M18.8701 4.01667L17.7567 23.2492C17.7469 23.7765 17.5456 24.2794 17.1949 24.6524C16.8442 25.0254 16.3714 25.2396 15.8756 25.25H6.12447C5.62864 25.2396 5.15585 25.0254 4.80518 24.6524C4.4545 24.2794 4.25316 23.7765 4.24334 23.2492L3.13002 4.01667M1.01855 4.01667H20.9815H1.01855ZM7.16101 4.01667V2.3425C7.16101 1.92014 7.31875 1.51508 7.59953 1.21643C7.88032 0.917781 8.26114 0.75 8.65823 0.75H13.3418C13.5385 0.75 13.7332 0.791191 13.9148 0.871222C14.0965 0.951252 14.2615 1.06856 14.4005 1.21643C14.5396 1.36431 14.6499 1.53987 14.7251 1.73308C14.8003 1.92629 14.8391 2.13337 14.8391 2.3425V4.01667H7.16101Z" stroke="white" stroke-miterlimit="10" stroke-linecap="round" stroke-linejoin="round"/>
<path d="M10.9996 7.10187V20.713M8.27734 7.10187L8.82179 20.713M13.7218 7.10187L13.1773 20.713" stroke="white" stroke-miterlimit="10" stroke-linecap="round" stroke-linejoin="round"/>
</svg>
