<svg width="4" height="14" viewBox="0 0 4 14" fill="none" xmlns="http://www.w3.org/2000/svg">
<path d="M1.95212 0.303711C2.76598 0.303711 3.41762 0.978574 3.38914 1.79194L3.15912 8.36067C3.14027 8.89901 2.6984 9.32568 2.15973 9.32568H1.75888C1.22106 9.32568 0.779563 8.9003 0.759567 8.36286L0.515207 1.79508C0.484902 0.980545 1.13702 0.303711 1.95212 0.303711ZM2.0196 13.6966C1.51938 13.6966 1.10473 13.5534 0.775644 13.267C0.45972 12.9681 0.301758 12.6007 0.301758 12.1649C0.301758 11.729 0.45972 11.3679 0.775644 11.0815C1.10473 10.7826 1.51938 10.6332 2.0196 10.6332C2.50665 10.6332 2.90813 10.7826 3.22406 11.0815C3.53998 11.3679 3.69794 11.729 3.69794 12.1649C3.69794 12.6007 3.53998 12.9681 3.22406 13.267C2.90813 13.5534 2.50665 13.6966 2.0196 13.6966Z" fill="white"/>
</svg>
