<svg width="20" height="23" viewBox="0 0 20 23" fill="none" xmlns="http://www.w3.org/2000/svg">
    <path d="M12 4.00002C12 2.89545 11.1046 2.00002 10 2.00002C8.89543 2.00002 8 2.89545 8 4.00002H6.66667C6.66667 2.15907 8.15905 0.666687 10 0.666687C11.8409 0.666687 13.3333 2.15907 13.3333 4.00002H19.3333C19.7015 4.00002 20 4.2985 20 4.66669C20 5.03488 19.7015 5.33335 19.3333 5.33335H18.5947L16.8666 20.3057C16.7113 21.6513 15.572 22.6667 14.2175 22.6667H5.7825C4.428 22.6667 3.28867 21.6513 3.13341 20.3057L1.404 5.33335H0.666667C0.339387 5.33335 0.0671889 5.09752 0.0107409 4.78652L0 4.66669C0 4.2985 0.298477 4.00002 0.666667 4.00002H12ZM17.2507 5.33335H2.748L4.45796 20.1529C4.53558 20.8256 5.10525 21.3334 5.7825 21.3334H14.2175C14.8948 21.3334 15.4644 20.8256 15.542 20.1529L17.2507 5.33335ZM8 8.66669C8.32728 8.66669 8.59948 8.87304 8.65593 9.14517L8.66667 9.25002V17.4167C8.66667 17.7389 8.36819 18 8 18C7.67272 18 7.40052 17.7937 7.34407 17.5215L7.33333 17.4167V9.25002C7.33333 8.92785 7.63181 8.66669 8 8.66669ZM12 8.66669C12.3273 8.66669 12.5995 8.87304 12.6559 9.14517L12.6667 9.25002V17.4167C12.6667 17.7389 12.3682 18 12 18C11.6727 18 11.4005 17.7937 11.3441 17.5215L11.3333 17.4167V9.25002C11.3333 8.92785 11.6318 8.66669 12 8.66669Z" fill="#212121"/>
</svg>
