<svg width="20" height="20" viewBox="0 0 20 20" fill="none" xmlns="http://www.w3.org/2000/svg">
    <path d="M10 18C5.58172 18 2 14.4183 2 10C2 5.58172 5.58172 2 10 2C14.4183 2 18 5.58172 18 10C18 14.4183 14.4183 18 10 18ZM3 10C3 13.866 6.13401 17 10 17C13.866 17 17 13.866 17 10C17 6.13401 13.866 3 10 3C6.13401 3 3 6.13401 3 10Z" fill="#41DC8F"/>
    <path d="M12.2921 9C11.906 8.11648 11.0244 7.5 9.99993 7.5C9.25956 7.5 8.59487 7.8212 8.13639 8.33346C7.95223 8.53922 7.63613 8.55673 7.43037 8.37257C7.2246 8.1884 7.20709 7.87231 7.39126 7.66654C8.03141 6.9513 8.9633 6.5 9.99993 6.5C11.2736 6.5 12.3875 7.18015 12.9998 8.19617V7.5C12.9998 7.22386 13.2236 7 13.4998 7C13.7759 7 13.9998 7.22386 13.9998 7.5V9.5C13.9998 9.77614 13.7759 10 13.4998 10H11.4998C11.2236 10 10.9998 9.77614 10.9998 9.5C10.9998 9.22386 11.2236 9 11.4998 9H12.2921Z" fill="#41DC8F"/>
    <path d="M7 12.5V11.8037C7.61219 12.8198 8.72617 13.5 9.99993 13.5C11.0366 13.5 11.9684 13.0487 12.6086 12.3335C12.7928 12.1277 12.7753 11.8116 12.5695 11.6274C12.3637 11.4433 12.0476 11.4608 11.8635 11.6665C11.405 12.1788 10.7403 12.5 9.99993 12.5C8.97545 12.5 8.09381 11.8835 7.7078 11H8.5C8.77614 11 9 10.7761 9 10.5C9 10.2239 8.77614 10 8.5 10H6.5C6.22386 10 6 10.2239 6 10.5V12.5C6 12.7761 6.22386 13 6.5 13C6.77614 13 7 12.7761 7 12.5Z" fill="#41DC8F"/>
</svg>