<svg width="16" height="10" viewBox="0 0 16 10" fill="none" xmlns="http://www.w3.org/2000/svg">
<path d="M8.0005 2.88317C9.81791 2.88317 11.2912 4.35647 11.2912 6.17388C11.2912 7.99128 9.81791 9.46458 8.0005 9.46458C6.1831 9.46458 4.7098 7.99128 4.7098 6.17388C4.7098 4.35647 6.1831 2.88317 8.0005 2.88317ZM8.0005 4.11719C6.86463 4.11719 5.94381 5.038 5.94381 6.17388C5.94381 7.30976 6.86463 8.23057 8.0005 8.23057C9.13638 8.23057 10.0572 7.30976 10.0572 6.17388C10.0572 5.038 9.13638 4.11719 8.0005 4.11719ZM8.0005 0C11.7959 0 15.0723 2.59144 15.9814 6.22304C16.0641 6.55361 15.8632 6.88866 15.5327 6.97141C15.2021 7.05416 14.8671 6.85327 14.7843 6.5227C14.0119 3.43711 11.2265 1.23401 8.0005 1.23401C4.77309 1.23401 1.98682 3.43901 1.21578 6.52642C1.13321 6.85703 0.798264 7.0581 0.467654 6.97554C0.137045 6.89297 -0.0640346 6.55803 0.0185313 6.22742C0.926019 2.59367 4.20343 0 8.0005 0Z" fill="#2E85EC"/>
</svg>
