<svg width="20" height="20" viewBox="0 0 20 20" fill="none" xmlns="http://www.w3.org/2000/svg">
<path d="M10 18C5.58172 18 2 14.4183 2 10C2 5.58172 5.58172 2 10 2C14.4183 2 18 5.58172 18 10C18 14.4183 14.4183 18 10 18ZM3 10C3 13.866 6.13401 17 10 17C13.866 17 17 13.866 17 10C17 6.13401 13.866 3 10 3C6.13401 3 3 6.13401 3 10Z" fill="#999999"/>
<path d="M9.72727 8.36364C9.72727 9.11675 9.11675 9.72727 8.36364 9.72727C7.61052 9.72727 7 9.11675 7 8.36364C7 7.61052 7.61052 7 8.36364 7C9.11675 7 9.72727 7.61052 9.72727 8.36364ZM8.90909 8.36364C8.90909 8.06239 8.66488 7.81818 8.36364 7.81818C8.06239 7.81818 7.81818 8.06239 7.81818 8.36364C7.81818 8.66488 8.06239 8.90909 8.36364 8.90909C8.66488 8.90909 8.90909 8.66488 8.90909 8.36364ZM13 11.6364C13 12.3895 12.3895 13 11.6364 13C10.8832 13 10.2727 12.3895 10.2727 11.6364C10.2727 10.8832 10.8832 10.2727 11.6364 10.2727C12.3895 10.2727 13 10.8832 13 11.6364ZM12.1818 11.6364C12.1818 11.3351 11.9376 11.0909 11.6364 11.0909C11.3351 11.0909 11.0909 11.3351 11.0909 11.6364C11.0909 11.9376 11.3351 12.1818 11.6364 12.1818C11.9376 12.1818 12.1818 11.9376 12.1818 11.6364ZM12.3347 7.66527C12.4945 7.82503 12.4945 8.08406 12.3347 8.24382L8.24382 12.3347C8.08406 12.4945 7.82503 12.4945 7.66527 12.3347C7.50551 12.175 7.50551 11.9159 7.66527 11.7562L11.7562 7.66527C11.9159 7.50551 12.175 7.50551 12.3347 7.66527Z" fill="#999999"/>
</svg>
