<svg width="42" height="62" viewBox="0 0 42 62" fill="none" xmlns="http://www.w3.org/2000/svg">
    <path d="M8 25.8V14C8 10.5522 9.36964 7.24558 11.8076 4.80761C14.2456 2.36964 17.5522 1 21 1C24.4478 1 27.7544 2.36964 30.1924 4.80761C32.6304 7.24558 34 10.5522 34 14V25.8M25.932 35.999C25.734 34.8341 25.1302 33.7768 24.2276 33.0141C23.325 32.2515 22.1817 31.8328 21 31.832C18.238 31.832 16 33.654 16 36.415C16 39.176 18.5 40.427 21 40.999C23.5 41.571 26 42.821 26 45.583C26 48.345 23.762 50.167 21 50.167C19.6739 50.167 18.4021 49.6402 17.4645 48.7026C16.5268 47.7649 16 46.4931 16 45.167M21.001 31.831V29M21.001 52.998V50.166M41 41C41 52.0457 32.0457 61 21 61C9.9543 61 1 52.0457 1 41C1 29.9543 9.9543 21 21 21C32.0457 21 41 29.9543 41 41Z" stroke="#707070" stroke-width="2" stroke-miterlimit="10" stroke-linecap="round" stroke-linejoin="round"/>
</svg>
