<svg xmlns="http://www.w3.org/2000/svg" width="47.803" height="48.026" viewBox="0 0 47.803 48.026">
  <g id="order-bump" transform="translate(-3442.802 -2364)">
    <g id="Grupo_78" data-name="Grupo 78" transform="translate(3463.089 2364) rotate(-45)">
      <path id="layer1" d="M0,0" transform="translate(0 0)" fill="none" stroke="#707070" stroke-linecap="round" stroke-linejoin="round" stroke-miterlimit="10" stroke-width="3"/>
    </g>
    <g id="Grupo_79" data-name="Grupo 79" transform="translate(3444.302 2365.723)">
      <path id="layer1-2" data-name="layer1" d="M22.4,0A23.318,23.318,0,0,1,33.619,3.006,20.6,20.6,0,0,1,39.959,8.33,22.124,22.124,0,0,1,44.8,22.4,22.4,22.4,0,1,1,22.4,0Z" transform="translate(0 0)" fill="none" stroke="#707070" stroke-linecap="round" stroke-width="3"/>
      <g id="Grupo_69" data-name="Grupo 69" transform="translate(13.22 31.159) rotate(-45)">
        <path id="layer1-3" data-name="layer1" d="M0,.072,13.833,0V13.9" transform="translate(0 0)" fill="none" stroke="#707070" stroke-linecap="round" stroke-linejoin="round" stroke-miterlimit="10" stroke-width="3"/>
        <path id="layer1-4" data-name="layer1" d="M0,0" transform="translate(13.833 0)" fill="none" stroke="#707070" stroke-linecap="round" stroke-linejoin="round" stroke-miterlimit="10" stroke-width="3"/>
      </g>
      <g id="Grupo_72" data-name="Grupo 72" transform="translate(11.97 19.593) rotate(-45)">
        <path id="layer1-5" data-name="layer1" d="M0,.072,13.833,0V13.9" transform="translate(0 1.734)" fill="none" stroke="#707070" stroke-linecap="round" stroke-linejoin="round" stroke-miterlimit="10" stroke-width="3"/>
        <path id="layer1-6" data-name="layer1" d="M0,0" transform="translate(12.074 0)" fill="none" stroke="#707070" stroke-linecap="round" stroke-linejoin="round" stroke-miterlimit="10" stroke-width="3"/>
      </g>
    </g>
  </g>
</svg>
