<svg width="16" height="16" viewBox="0 0 16 16" fill="none" xmlns="http://www.w3.org/2000/svg">
    <path d="M8 16C3.58172 16 0 12.4183 0 8C0 3.58172 3.58172 0 8 0C12.4183 0 16 3.58172 16 8C16 12.4183 12.4183 16 8 16ZM1 8C1 11.866 4.13401 15 8 15C11.866 15 15 11.866 15 8C15 4.13401 11.866 1 8 1C4.13401 1 1 4.13401 1 8Z" fill="#999999" />
    <rect x="4.5" y="7.53564" width="5" height="1" rx="0.5" transform="rotate(-45 4.5 7.53564)" fill="#999999" />
    <rect x="4.5" y="10.571" width="5" height="1" rx="0.5" transform="rotate(-45 4.5 10.571)" fill="#999999" />
    <rect x="8.03564" y="4" width="5" height="1" rx="0.5" transform="rotate(45 8.03564 4)" fill="#999999" />
    <rect x="8.03564" y="7.03564" width="5" height="1" rx="0.5" transform="rotate(45 8.03564 7.03564)" fill="#999999" />
</svg>
