<svg width="22" height="22" viewBox="0 0 22 22" fill="none" xmlns="http://www.w3.org/2000/svg">
    <path d="M15.3269 1.42323C16.7759 -0.0258432 19.1254 -0.0258432 20.5744 1.42323C21.9631 2.81193 22.021 5.0275 20.748 6.48511L20.5744 6.6708L7.76667 19.4786C7.49321 19.752 7.16423 19.9621 6.80307 20.0951L6.5827 20.1656L1.17607 21.6402C0.713948 21.7662 0.287197 21.3815 0.337261 20.9274L0.357479 20.8216L1.83201 15.415C1.93377 15.0419 2.11519 14.6963 2.36274 14.4015L2.5191 14.231L15.3269 1.42323ZM14.1799 4.45643L3.46191 15.1738C3.33885 15.2969 3.24148 15.4424 3.17473 15.6019L3.11837 15.7658L1.94952 20.0467L6.23187 18.8793C6.3438 18.8488 6.45078 18.8039 6.55029 18.7462L6.69362 18.6501L6.82386 18.5358L17.5413 7.81776L14.1799 4.45643ZM19.6316 2.36604C18.7548 1.48924 17.3635 1.44053 16.4295 2.21991L16.2697 2.36604L15.1226 3.51376L18.4839 6.87509L19.6316 5.72799C20.5084 4.85119 20.5571 3.45988 19.7778 2.52591L19.6316 2.36604Z" fill="#212121"/>
</svg>
