<svg width="248" height="199" viewBox="0 0 248 199" fill="none" xmlns="http://www.w3.org/2000/svg">
<path d="M118.316 197.99C165.14 197.99 203.101 160.029 203.101 113.039C203.101 66.0477 164.973 28.0872 118.316 28.0872C71.4928 28.0872 33.5322 66.0477 33.5322 113.039C33.5322 160.029 71.4928 197.99 118.316 197.99Z" fill="#F1F3F9" stroke="#8DB8EC" stroke-width="2" stroke-miterlimit="10"/>
<path d="M197.582 57.352C201.369 57.352 204.438 54.2824 204.438 50.4957C204.438 46.7091 201.369 43.6394 197.582 43.6394C193.795 43.6394 190.726 46.7091 190.726 50.4957C190.726 54.2824 193.795 57.352 197.582 57.352Z" fill="#F1F3F9"/>
<path d="M207.616 30.5952C210.202 30.5952 212.298 28.4988 212.298 25.9128C212.298 23.3268 210.202 21.2305 207.616 21.2305C205.03 21.2305 202.934 23.3268 202.934 25.9128C202.934 28.4988 205.03 30.5952 207.616 30.5952Z" fill="#F1F3F9"/>
<path d="M38.0476 57.1848C40.6336 57.1848 42.73 55.0884 42.73 52.5024C42.73 49.9164 40.6336 47.8201 38.0476 47.8201C35.4616 47.8201 33.3652 49.9164 33.3652 52.5024C33.3652 55.0884 35.4616 57.1848 38.0476 57.1848Z" fill="#EAEEF9"/>
<path d="M9.45167 147.487C14.2542 147.487 18.1475 143.594 18.1475 138.791C18.1475 133.989 14.2542 130.095 9.45167 130.095C4.64911 130.095 0.755859 133.989 0.755859 138.791C0.755859 143.594 4.64911 147.487 9.45167 147.487Z" fill="#F1F3F9"/>
<path d="M247.53 86.366H239.234V78.0696H232.123V86.366H223.826V93.7142H232.123V102.011H239.234V93.7142H247.53V86.366Z" fill="#8DB8EC"/>
<path d="M110.236 7.85659H103.144V0.764404H97.0648V7.85659H89.9727V14.1382H97.0648V21.2304H103.144V14.1382H110.236V7.85659Z" fill="#8DB8EC"/>
<path d="M26.7646 78.6132H20.7051V72.5537H15.5112V78.6132H9.45166V83.9803H15.5112V90.0398H20.7051V83.9803H26.7646V78.6132Z" fill="#8DB8EC"/>
<path d="M177.956 96.6551L161.21 55.7654C158.225 48.4962 150.436 44.3423 142.778 46.0298L99.5514 55.376C95.9168 56.1549 92.8014 58.6212 90.9841 61.8664L49.8349 140.271C48.1473 143.516 49.3156 147.67 52.6906 149.357L127.201 188.559C130.446 190.247 134.6 189.079 136.287 185.704L177.436 107.299C179.254 104.054 179.384 100.16 177.956 96.6551ZM136.547 80.1694C131.225 77.4434 129.148 70.8232 132.004 65.5011C134.73 60.1789 141.35 58.102 146.672 60.9578C151.994 63.6837 154.071 70.304 151.215 75.6261C148.489 80.9482 141.869 83.0252 136.547 80.1694Z" fill="white" stroke="#8DB8EC" stroke-width="2" stroke-miterlimit="10"/>
<path d="M141.869 70.1744C175.749 52.6503 189.12 26.5588 171.466 15.2655C153.812 3.9722 136.417 15.2655 132.004 48.107" stroke="#8DB8EC" stroke-width="5" stroke-miterlimit="10" stroke-linecap="round" stroke-linejoin="round"/>
<path d="M134.741 126.006C137.033 127.275 140.085 126.398 141.353 124.106C142.622 121.814 141.745 118.762 139.453 117.493C137.161 116.225 134.109 117.102 132.841 119.394C131.481 121.849 132.285 124.647 134.741 126.006Z" fill="#8DB8EC"/>
<path d="M121.68 131.995L119.552 130.817C119.926 125.891 115.994 121.789 111.141 121.669C109.305 121.508 107.271 122.093 105.8 123.204L103.672 122.026C108.282 117.948 115.626 118.591 119.45 123.274C121.198 125.525 122.239 128.668 121.68 131.995Z" fill="#8DB8EC"/>
<path d="M101.999 107.881C104.291 109.15 107.343 108.273 108.612 105.981C109.881 103.689 109.004 100.637 106.712 99.3682C104.42 98.0995 101.368 98.9765 100.099 101.268C98.9031 103.815 99.7071 106.612 101.999 107.881Z" fill="#8DB8EC"/>
</svg>
