<svg width="235" height="209" viewBox="0 0 235 209" fill="none" xmlns="http://www.w3.org/2000/svg">
<path d="M215.968 60.769C220.866 60.769 224.835 56.826 224.835 51.9621C224.835 47.0982 220.866 43.1553 215.968 43.1553C211.071 43.1553 207.102 47.0982 207.102 51.9621C207.102 56.826 211.071 60.769 215.968 60.769Z" fill="#EAEEF9"/>
<path d="M228.945 26.4014C232.289 26.4014 235 23.7087 235 20.387C235 17.0653 232.289 14.3726 228.945 14.3726C225.6 14.3726 222.889 17.0653 222.889 20.387C222.889 23.7087 225.6 26.4014 228.945 26.4014Z" fill="#EAEEF9"/>
<path d="M105.456 207.694C161.713 207.694 207.318 162.398 207.318 106.523C207.318 50.6471 161.713 5.35107 105.456 5.35107C49.2001 5.35107 3.59521 50.6471 3.59521 106.523C3.59521 162.398 49.2001 207.694 105.456 207.694Z" fill="#F1F3F9" stroke="#8DB8EC" stroke-width="2" stroke-miterlimit="10"/>
<path d="M207.101 106.093C207.101 136.165 195.207 163.015 174.229 181.488H4.89279C2.73013 181.488 1 179.77 1 177.621V38.0005C1 35.8524 2.73013 34.134 4.89279 34.134H176.175C195.207 51.9626 207.101 77.7388 207.101 106.093Z" fill="#F1F3F9" stroke="#8DB8EC" stroke-width="2" stroke-miterlimit="10"/>
<path d="M174.013 181.273H173.581C176.392 178.696 178.555 176.118 180.934 173.326C178.555 176.333 176.825 178.911 174.013 181.273Z" fill="#F1F3F9"/>
<path d="M74.7466 120.699H7.27159C6.19026 120.699 5.3252 119.84 5.3252 118.766V70.4357C5.3252 69.3616 6.19026 68.5024 7.27159 68.5024H74.7466C75.8279 68.5024 76.693 69.3616 76.693 70.4357V118.551C76.693 119.625 75.8279 120.699 74.7466 120.699Z" fill="white"/>
<path d="M198.018 64.6361H7.27159C6.19026 64.6361 5.3252 63.7769 5.3252 62.7029V39.9339C5.3252 38.8599 6.19026 38.0007 7.27159 38.0007H180.284C182.88 40.7932 185.258 43.8004 187.637 46.8076C190.016 50.0296 192.395 53.6812 194.342 57.1181C195.639 59.6957 196.937 62.0585 198.018 64.6361Z" fill="white"/>
<path d="M194.342 57.3325H164.497C163.848 57.3325 163.416 56.9028 163.416 56.2584V48.096C163.416 47.4516 163.848 47.022 164.497 47.022H187.421C190.016 50.244 192.179 53.6808 194.342 57.3325Z" fill="#E1EAFF"/>
<path d="M189.151 53.0369H170.985C170.336 53.0369 169.904 52.6073 169.904 51.9629C169.904 51.3185 170.336 50.8889 170.985 50.8889H189.151C189.8 50.8889 190.233 51.3185 190.233 51.9629C190.233 52.6073 189.8 53.0369 189.151 53.0369Z" fill="white"/>
<path d="M149.575 120.699H82.0997C81.0184 120.699 80.1533 119.84 80.1533 118.766V70.4357C80.1533 69.3616 81.0184 68.5024 82.0997 68.5024H149.575C150.656 68.5024 151.521 69.3616 151.521 70.4357V118.551C151.737 119.625 150.872 120.699 149.575 120.699Z" fill="white"/>
<path d="M205.804 90.4122C204.506 82.6793 202.56 75.3761 199.749 68.5024H157.144C156.063 68.5024 155.198 69.3616 155.198 70.6505V118.766C155.198 119.84 156.063 120.699 157.144 120.699H206.02C206.669 115.974 207.102 111.033 207.102 106.308C207.102 102.011 206.885 97.7155 206.237 93.4194L205.804 90.4122Z" fill="white"/>
<path d="M74.7466 176.548H7.27159C6.19026 176.548 5.3252 175.688 5.3252 174.614V126.499C5.3252 125.425 6.19026 124.566 7.27159 124.566H74.7466C75.8279 124.566 76.693 125.425 76.693 126.499V174.614C76.693 175.688 75.8279 176.548 74.7466 176.548Z" fill="white"/>
<path d="M149.575 176.548H82.0997C81.0184 176.548 80.1533 175.688 80.1533 174.614V126.499C80.1533 125.425 81.0184 124.566 82.0997 124.566H149.575C150.656 124.566 151.521 125.425 151.521 126.499V174.614C151.737 175.688 150.872 176.548 149.575 176.548Z" fill="white"/>
<path d="M205.371 124.566C204.939 127.143 204.29 129.506 203.641 131.869C203.425 132.728 203.209 133.373 202.992 134.232C202.344 136.595 201.479 138.957 200.614 141.32C199.965 143.039 199.1 144.972 198.451 146.69C197.802 147.979 197.153 149.268 196.504 150.557C196.288 151.201 195.856 151.845 195.423 152.49C194.126 154.853 192.828 157.216 191.314 159.578C190.882 160.223 190.449 161.082 189.8 161.726C188.286 163.874 186.772 166.022 185.259 168.17C184.61 169.03 183.961 169.674 183.312 170.533C181.582 172.681 179.636 174.829 177.689 176.762H156.712C155.63 176.762 154.765 175.903 154.765 174.829V126.499C154.765 125.425 155.63 124.566 156.712 124.566H205.371Z" fill="white"/>
<path d="M49.6601 153.134C49.6601 153.349 49.6601 153.564 49.4438 153.778C49.2276 154.208 49.2276 154.638 49.2276 155.067C49.0113 155.282 49.0113 155.497 49.0113 155.712C48.7951 156.141 48.7951 156.571 48.5788 156.786V157C48.3625 157.215 48.3625 157.43 48.3625 157.43C48.1463 157.645 48.1463 157.86 47.93 157.86L51.8228 161.296C52.039 161.082 52.039 160.867 52.2553 160.652C52.6878 160.008 53.1204 159.363 53.3366 158.719C53.5529 158.504 53.5529 158.289 53.5529 158.074C53.7692 157.43 53.9854 156.786 54.418 156.141C54.418 155.926 54.6342 155.712 54.6342 155.712C54.8505 155.282 54.8505 154.852 54.8505 154.638C54.8505 154.423 55.0668 154.208 55.0668 154.208C55.0668 153.993 55.0668 153.778 55.283 153.778V153.564C55.283 153.349 55.283 153.134 55.283 153.134H49.6601ZM38.6305 162.8C32.5751 162.8 27.3847 157.86 27.3847 151.845C27.3847 146.046 31.71 141.535 37.1167 140.89V135.735C28.8986 136.379 22.1943 143.468 22.1943 152.06C22.1943 161.082 29.5474 168.385 38.6305 168.385C43.1721 168.385 47.2812 166.666 50.0926 163.659L46.1999 160.008C44.2535 161.941 41.442 162.8 38.6305 162.8ZM39.9281 135.52V140.676C45.1185 141.32 49.0113 145.186 49.6601 150.127H55.0668C54.418 142.394 47.93 136.165 39.9281 135.52Z" fill="#F1F3F9"/>
<path d="M55.0669 150.343H49.8765C49.2277 145.188 45.1186 141.321 40.1445 140.892V135.737C47.9301 136.166 54.4181 142.395 55.0669 150.343Z" fill="#E1EAFF"/>
<path d="M55.067 153.134C55.067 153.349 55.067 153.563 55.067 153.563V153.778C55.067 153.993 55.067 154.208 54.8507 154.208C54.8507 154.423 54.8507 154.637 54.6344 154.637C54.4182 155.067 54.4182 155.497 54.4182 155.711C54.4182 155.926 54.2019 156.141 54.2019 156.141C53.9856 156.785 53.7694 157.43 53.3368 158.074C53.1206 158.289 53.1206 158.504 53.1206 158.719C52.9043 159.363 52.4718 160.007 52.0392 160.652C51.823 160.867 51.823 161.081 51.6067 161.296L47.9302 157.859C48.1464 157.645 48.1464 157.43 48.3627 157.43C48.579 157.215 48.579 157 48.579 157V156.785C48.7952 156.356 49.0115 155.926 49.0115 155.711C49.2278 155.497 49.2278 155.282 49.2278 155.067C49.444 154.637 49.444 154.208 49.444 153.778C49.444 153.563 49.6603 153.349 49.6603 153.134H55.067V153.134Z" fill="#8DB8EC"/>
<path d="M206.236 93.2051C206.236 92.3459 206.02 91.4867 205.804 90.4127L194.342 101.797C193.909 101.582 193.26 101.368 192.828 101.368C192.395 101.368 191.746 101.582 191.314 101.797L180.933 91.4867C181.149 91.0571 181.149 90.8423 181.149 90.1979C181.149 88.2646 179.636 86.9758 177.905 86.9758C176.175 86.9758 174.661 88.4794 174.661 90.1979C174.661 90.6275 174.661 91.0571 174.878 91.4867L166.011 99.8639C165.578 99.6491 165.146 99.6491 164.713 99.6491C162.767 99.6491 161.469 101.153 161.469 102.871C161.469 104.59 162.983 106.093 164.713 106.093C166.443 106.093 167.957 104.59 167.957 102.871C167.957 102.442 167.741 102.012 167.525 101.582L175.959 92.9903C176.608 93.2051 176.824 93.4199 177.257 93.4199C177.689 93.4199 178.338 93.2051 178.554 92.9903L188.935 103.301C188.719 103.73 188.719 103.945 188.719 104.375C188.719 106.308 190.233 107.597 191.963 107.597C193.909 107.597 195.207 106.093 195.207 104.375C195.207 103.945 195.207 103.73 194.99 103.301L206.236 93.2051ZM164.93 104.804C164.064 104.804 163.416 104.16 163.416 103.301C163.416 102.442 164.064 101.797 164.93 101.797C165.795 101.797 166.443 102.442 166.443 103.301C166.443 103.945 165.795 104.804 164.93 104.804ZM177.905 91.7015C177.04 91.7015 176.392 91.0571 176.392 90.1979C176.392 89.3386 177.04 88.6942 177.905 88.6942C178.771 88.6942 179.419 89.3386 179.419 90.1979C179.419 91.0571 178.987 91.7015 177.905 91.7015ZM193.044 106.308C192.179 106.308 191.53 105.664 191.53 104.804C191.53 103.945 192.179 103.301 193.044 103.301C193.909 103.301 194.558 103.945 194.558 104.804C194.774 105.664 194.125 106.308 193.044 106.308Z" fill="#8DB8EC"/>
<path d="M93.1292 103.515H90.1014C89.8852 103.515 89.4526 103.086 89.4526 102.871V86.5458C89.4526 86.1162 89.6689 85.9014 90.1014 85.9014H93.1292C93.3454 85.9014 93.778 86.331 93.778 86.5458V102.871C93.5617 103.086 93.3454 103.515 93.1292 103.515Z" fill="#E1EAFF"/>
<path d="M94.8591 103.515H91.3988C91.1826 103.515 90.9663 103.301 90.9663 103.086V95.5678C90.9663 95.1382 91.1826 95.1382 91.3988 95.1382H94.8591C95.0754 95.1382 95.2916 95.353 95.2916 95.5678V103.086C95.2916 103.301 95.0754 103.515 94.8591 103.515Z" fill="#8DB8EC"/>
<path d="M100.915 103.516H97.8871C97.6708 103.516 97.2383 103.086 97.2383 102.871V91.4869C97.2383 91.0573 97.4545 90.8425 97.8871 90.8425H100.915C101.131 90.8425 101.564 91.2721 101.564 91.4869V102.871C101.564 103.086 101.131 103.516 100.915 103.516Z" fill="#E1EAFF"/>
<path d="M108.7 103.515H105.673C105.456 103.515 105.024 103.085 105.024 102.871V95.5673C105.024 95.1377 105.24 94.9229 105.673 94.9229H108.7C108.917 94.9229 109.349 95.3525 109.349 95.5673V102.656C109.349 103.085 108.917 103.515 108.7 103.515Z" fill="#E1EAFF"/>
<path d="M116.486 103.515H113.458C113.242 103.515 112.809 103.086 112.809 102.871V89.3385C112.809 88.9089 113.025 88.6941 113.458 88.6941H116.486C116.702 88.6941 117.134 89.1237 117.134 89.3385V102.871C117.134 103.086 116.918 103.515 116.486 103.515Z" fill="#E1EAFF"/>
<path d="M124.488 103.515H121.46C121.244 103.515 120.812 103.086 120.812 102.871V94.7086C120.812 94.279 121.028 94.0642 121.46 94.0642H124.488C124.704 94.0642 125.137 94.4938 125.137 94.7086V102.871C125.137 103.086 124.921 103.515 124.488 103.515Z" fill="#E1EAFF"/>
<path d="M132.273 103.516H129.245C129.029 103.516 128.597 103.086 128.597 102.871V91.4869C128.597 91.0573 128.813 90.8425 129.245 90.8425H132.273C132.489 90.8425 132.922 91.2721 132.922 91.4869V102.871C132.922 103.086 132.706 103.516 132.273 103.516Z" fill="#E1EAFF"/>
<path d="M140.275 103.515H137.247C137.031 103.515 136.599 103.085 136.599 102.871V95.5673C136.599 95.1377 136.815 94.9229 137.247 94.9229H140.275C140.491 94.9229 140.924 95.3525 140.924 95.5673V102.656C140.708 103.085 140.491 103.515 140.275 103.515Z" fill="#E1EAFF"/>
<path d="M102.645 103.515H98.9682C98.7519 103.515 98.752 103.3 98.752 103.085V98.5746C98.752 98.3598 98.9682 98.145 98.9682 98.145H102.645C102.861 98.145 102.861 98.3598 102.861 98.5746V103.085C103.077 103.3 102.861 103.515 102.645 103.515Z" fill="#8DB8EC"/>
<path d="M110.647 103.516H106.97C106.754 103.516 106.754 103.301 106.754 103.086V100.938C106.754 100.723 106.97 100.508 106.97 100.508H110.647C110.863 100.508 110.863 100.723 110.863 100.938V103.086C110.863 103.301 110.863 103.516 110.647 103.516Z" fill="#8DB8EC"/>
<path d="M118.432 103.516H114.756C114.54 103.516 114.54 103.301 114.54 103.086V99.8639C114.54 99.6491 114.756 99.4343 114.756 99.4343H118.432C118.649 99.4343 118.649 99.6491 118.649 99.8639V103.086C118.865 103.301 118.865 103.516 118.432 103.516Z" fill="#8DB8EC"/>
<path d="M126.434 103.515H122.974C122.758 103.515 122.758 103.3 122.758 103.086V97.2861C122.758 97.0712 122.974 96.8564 122.974 96.8564H126.434C126.651 96.8564 126.651 97.0712 126.651 97.2861V103.086C126.867 103.3 126.651 103.515 126.434 103.515Z" fill="#8DB8EC"/>
<path d="M134.653 103.515H130.76C130.543 103.515 130.543 103.515 130.543 103.301V102.227C130.543 102.012 130.543 102.012 130.76 102.012H134.653C134.869 102.012 134.869 102.012 134.869 102.227V103.086C134.869 103.301 134.869 103.515 134.653 103.515Z" fill="#8DB8EC"/>
<path d="M142.438 103.516H138.545C138.545 103.516 138.329 103.516 138.329 103.301V102.871C138.329 102.871 138.329 102.656 138.545 102.656H142.438C142.438 102.656 142.654 102.656 142.654 102.871L142.438 103.516C142.438 103.516 142.654 103.301 142.438 103.516Z" fill="#8DB8EC"/>
<path d="M145.898 131.44H85.9927V139.387H145.898V131.44Z" fill="#F1F3F9"/>
<path d="M120.812 134.017H104.375V136.38H120.812V134.017Z" fill="#8DB8EC"/>
<path d="M141.573 134.017H135.734V136.38H141.573V134.017Z" fill="#8DB8EC"/>
<path d="M145.898 146.475H85.9927V154.423H145.898V146.475Z" fill="#F1F3F9"/>
<path d="M115.838 149.268H104.375V151.631H115.838V149.268Z" fill="#8DB8EC"/>
<path d="M141.573 149.268H131.409V151.631H141.573V149.268Z" fill="#8DB8EC"/>
<path d="M145.898 161.726H85.9927V169.673H145.898V161.726Z" fill="#F1F3F9"/>
<path d="M123.407 164.519H104.375V166.881H123.407V164.519V164.519Z" fill="#8DB8EC"/>
<path d="M141.573 164.519H138.329V166.881H141.573V164.519Z" fill="#8DB8EC"/>
<path d="M21.3291 48.526H12.2459C11.5971 48.526 11.1646 47.8816 11.1646 47.452V46.378C11.1646 45.7336 11.8133 45.304 12.2459 45.304H21.3291C21.9778 45.304 22.4104 45.9484 22.4104 46.378V47.452C22.4104 47.8816 21.9778 48.526 21.3291 48.526Z" fill="#8DB8EC"/>
<path d="M83.83 48.526H30.1961C29.5473 48.526 29.1147 47.8816 29.1147 47.452V46.378C29.1147 45.7336 29.7635 45.304 30.1961 45.304H83.83C84.4788 45.304 84.9114 45.9484 84.9114 46.378V47.452C84.9114 47.8816 84.4788 48.526 83.83 48.526Z" fill="#F1F3F9"/>
<path d="M21.3291 57.3326H12.2459C11.5971 57.3326 11.1646 56.6882 11.1646 56.2586V55.1846C11.1646 54.5402 11.8133 54.1106 12.2459 54.1106H21.3291C21.9778 54.1106 22.4104 54.755 22.4104 55.1846V56.2586C22.4104 56.903 21.9778 57.3326 21.3291 57.3326Z" fill="#8DB8EC"/>
<path d="M58.9595 56.2586C58.9595 56.903 58.3107 57.3326 57.8781 57.3326H30.1961C29.5473 57.3326 29.1147 56.6882 29.1147 56.2586V55.1846C29.1147 54.5402 29.7635 54.1106 30.1961 54.1106H57.8781C58.5269 54.1106 58.9595 54.755 58.9595 55.1846V56.2586Z" fill="#F1F3F9"/>
<path d="M69.1238 114.255H11.1646V78.5981C14.1923 78.8129 17.22 79.0278 20.0315 79.887C21.3291 80.3166 22.1941 80.7462 23.0592 81.6054C23.4917 82.035 23.4917 82.2498 23.4917 82.4646C23.9242 83.5386 24.7893 84.183 26.3032 84.3978L27.6008 84.6126C30.196 84.8274 32.1424 86.331 32.3586 88.0494L32.7911 91.0566C35.6026 91.7011 35.8189 91.701 38.4141 92.3455C38.8466 92.5603 38.8466 92.3455 39.0629 92.1307C39.2791 91.9159 39.4954 91.9158 39.7117 91.9158C40.1442 91.9158 40.1442 91.9158 40.5767 91.701C41.0093 91.4862 41.4418 91.4862 41.6581 91.9158C42.7394 93.4195 44.902 94.2787 46.1996 95.5675C47.7135 97.0711 50.3087 96.8563 52.0388 96.8563C52.4714 96.8563 53.1201 97.0711 53.5527 97.2859C55.7153 98.7895 59.1756 103.73 61.9871 103.73C63.0684 103.73 63.9335 104.16 64.5823 104.589C66.9612 107.811 68.475 110.818 69.1238 114.255Z" fill="#F1F3F9"/>
<path d="M67.61 114.685C66.9612 111.463 65.4473 108.885 63.0684 106.093C62.8521 105.878 62.2033 105.663 61.5545 105.663C58.9593 105.663 56.7967 103.3 54.634 101.152C53.7689 100.293 52.9039 99.4338 52.2551 99.0042C52.0388 98.7894 51.6063 98.7894 51.6063 98.7894C51.1738 98.7894 50.9575 98.7894 50.525 98.7894C48.7948 98.7894 46.4159 98.5746 44.6858 97.071C44.2532 96.4266 43.6044 95.997 42.7394 95.5674C41.8743 94.923 41.0093 94.4934 40.3605 93.6342C40.1442 93.6342 39.7117 93.6342 39.4954 93.6342C39.2791 93.849 38.4141 94.2786 37.3327 93.849L36.0351 93.4194C34.7375 93.2046 34.0887 92.9898 31.9261 92.5602H31.2773L30.8448 88.479C30.8448 87.405 29.3309 86.5458 27.6008 86.3309L26.3032 86.1161C24.3568 85.9013 22.6266 84.8273 22.1941 83.1089V82.8941C21.5453 82.2497 20.8965 81.8201 20.0315 81.6053C17.0037 80.5313 13.976 80.3165 11.1646 80.3165L11.3808 77.0945C14.4085 77.3093 17.6525 77.5241 20.6803 78.5981C22.1941 79.0277 23.4917 79.8869 24.3568 80.9609C24.573 81.1757 25.0056 81.8201 25.2218 82.6793C25.4381 83.1089 25.8706 83.3237 26.5194 83.3237L27.817 83.5385C31.2773 83.7533 33.6562 85.9013 34.0887 88.479L34.305 90.1974C35.6026 90.4122 36.2514 90.627 37.3327 90.8418L38.6303 91.0566C39.0629 90.8418 39.4954 90.627 39.9279 90.627C40.1442 90.627 40.1442 90.627 40.3605 90.627C41.4418 90.1974 42.7394 90.627 43.3882 91.4862C43.8207 91.9158 44.6858 92.5602 45.3346 92.9898C46.1996 93.6342 47.0647 94.0638 47.7135 94.923C48.3623 95.5674 49.8762 95.5674 51.39 95.7822C51.8226 95.7822 52.0388 95.7822 52.4714 95.7822C53.3364 95.7822 53.9852 96.2118 54.634 96.4266L54.8503 96.6414C55.7153 97.2858 56.7967 98.145 57.6617 99.219C58.9593 100.723 61.122 102.656 62.2033 102.656C63.5009 102.656 64.7985 103.085 65.8798 103.945C68.9076 107.167 70.6377 110.389 71.2865 114.255L67.61 114.685Z" fill="#8DB8EC"/>
<path d="M66.7446 92.5602H41.2252C40.1439 92.5602 39.2788 91.701 39.2788 90.627V81.6053C39.2788 80.5313 40.1439 79.6721 41.2252 79.6721H66.7446C67.8259 79.6721 68.691 80.5313 68.691 81.6053V90.627C68.691 91.701 67.8259 92.5602 66.7446 92.5602Z" fill="#E1EAFF"/>
<path d="M63.501 83.3237H44.6859C44.2534 83.3237 44.0371 83.7533 44.0371 83.9681C44.0371 84.3977 44.4696 84.6125 44.6859 84.6125H63.501C63.9336 84.6125 64.1498 84.1829 64.1498 83.9681C64.1498 83.7533 63.7173 83.3237 63.501 83.3237Z" fill="white"/>
<path d="M54.6341 87.6194H44.4696C44.0371 87.6194 43.8208 88.049 43.8208 88.2638C43.8208 88.4786 44.2533 88.9082 44.4696 88.9082H54.6341C55.0666 88.9082 55.2829 88.4786 55.2829 88.2638C55.2829 88.049 54.8504 87.6194 54.6341 87.6194Z" fill="white"/>
<path d="M180.284 150.342H163.199V143.253H180.284V150.342ZM163.416 152.49H180.501V159.578H163.416V152.49ZM164.713 134.232H180.501V141.535H163.416V135.735C163.416 134.661 164.064 134.232 164.713 134.232ZM163.416 166.667V161.512H180.501V167.956H164.713C164.064 168.17 163.416 167.526 163.416 166.667ZM202.992 134.232C203.209 133.373 203.425 132.728 203.641 131.869H164.713C162.767 131.869 161.469 133.587 161.469 135.521V166.667C161.469 168.6 162.983 170.318 164.713 170.318H183.745C184.393 169.459 185.042 168.815 185.691 167.956H182.663V161.512H190.233C190.665 160.867 191.098 160.008 191.746 159.363H182.663V152.275H195.639C196.072 151.631 196.288 150.986 196.721 150.342H182.663V143.253H198.667V146.261C199.532 144.542 200.181 142.609 200.83 140.891H200.613V134.232H202.992ZM198.451 141.32H182.663V134.232H198.667V141.32H198.451Z" fill="#F1F3F9"/>
<path d="M170.769 28.7642C193.26 47.2371 207.534 75.1613 207.534 106.522C207.534 138.313 192.828 166.667 169.688 185.14" stroke="#8DB8EC" stroke-width="2" stroke-miterlimit="10"/>
<path d="M14.841 23.1792C21.0519 23.1792 26.0869 18.1784 26.0869 12.0095C26.0869 5.84069 21.0519 0.839844 14.841 0.839844C8.63014 0.839844 3.59521 5.84069 3.59521 12.0095C3.59521 18.1784 8.63014 23.1792 14.841 23.1792Z" fill="#EAEEF9"/>
</svg>
