<svg width="251" height="209" viewBox="0 0 251 209" fill="none" xmlns="http://www.w3.org/2000/svg">
<path d="M116.924 208C174.36 208 220.924 161.751 220.924 104.5C220.924 47.249 174.36 1 116.924 1C59.4877 1 12.9233 47.249 12.9233 104.5C12.9233 161.751 59.4877 208 116.924 208Z" fill="#F1F3F9" stroke="#8DB8EC" stroke-width="2" stroke-miterlimit="10"/>
<path d="M232.821 72.1049C237.466 72.1049 241.232 68.365 241.232 63.7515C241.232 59.1381 237.466 55.3982 232.821 55.3982C228.177 55.3982 224.411 59.1381 224.411 63.7515C224.411 68.365 228.177 72.1049 232.821 72.1049Z" fill="#EAEEF9"/>
<path d="M245.129 39.3025C248.301 39.3025 250.873 36.7484 250.873 33.5978C250.873 30.4472 248.301 27.8931 245.129 27.8931C241.957 27.8931 239.385 30.4472 239.385 33.5978C239.385 36.7484 241.957 39.3025 245.129 39.3025Z" fill="#EAEEF9"/>
<path d="M5.74362 78.0132C8.91573 78.0132 11.4872 75.4591 11.4872 72.3085C11.4872 69.1579 8.91573 66.6038 5.74362 66.6038C2.5715 66.6038 0 69.1579 0 72.3085C0 75.4591 2.5715 78.0132 5.74362 78.0132Z" fill="#EAEEF9"/>
<path d="M152.616 44.688C188.027 44.688 216.592 70.2664 216.592 101.711C216.592 119.781 207.149 135.973 192.276 146.532V170.234C192.276 173.519 188.499 175.162 186.138 173.284L165.836 157.562C161.587 158.266 157.338 158.735 152.852 158.735C117.441 158.735 88.8767 133.157 88.8767 101.711C88.8767 70.2664 117.441 44.688 152.616 44.688Z" fill="#8DB8EC"/>
<path d="M90.0571 41.8721C50.6331 41.8721 18.7634 70.2665 18.7634 105.232C18.7634 125.413 29.3867 143.482 45.9117 154.98V181.263C45.9117 184.783 49.9249 186.895 52.7578 184.548L75.4206 167.183C80.1421 168.122 84.8635 168.591 89.821 168.591C129.245 168.591 161.115 140.197 161.115 105.232C161.115 70.2665 129.245 41.8721 90.0571 41.8721Z" fill="white" stroke="#8DB8EC" stroke-width="2" stroke-miterlimit="10"/>
</svg>
