<svg xmlns="http://www.w3.org/2000/svg" fill="none" viewBox="0 0 202 142">
  <path fill="url(#a)" d="M163.114 0H42.257c-5.562 0-10.071 4.51-10.071 10.071V130.93c0 5.562 4.509 10.071 10.071 10.071h120.857c5.563 0 10.072-4.509 10.072-10.071V10.071C173.186 4.51 168.677 0 163.114 0Z" />
  <g filter="url(#b)">
    <path fill="#fff" d="M54.343 54.386h135.964a5.035 5.035 0 0 1 5.036 5.035V84.6a5.037 5.037 0 0 1-5.036 5.036H54.343a5.035 5.035 0 0 1-5.036-5.036V59.422a5.036 5.036 0 0 1 5.036-5.036Z" />
  </g>
  <path fill="#B4DAFF" d="M128.871 62.443h-26.185a3.021 3.021 0 1 0 0 6.043h26.185a3.022 3.022 0 1 0 0-6.043Z" />
  <path fill="#DEE9FC" d="M147 75.536h-44.314a3.021 3.021 0 1 0 0 6.043H147a3.02 3.02 0 1 0 0-6.043Z" />
  <path fill="#2E85EC" d="M80.025 81.579a9.568 9.568 0 0 0 9.568-9.568 9.568 9.568 0 0 0-9.568-9.568 9.568 9.568 0 0 0 0 19.136Z" />
  <g filter="url(#c)">
    <path fill="#fff" d="M11.036 97.693H147a5.036 5.036 0 0 1 5.036 5.036v25.178a5.036 5.036 0 0 1-5.036 5.036H11.036A5.037 5.037 0 0 1 6 127.907v-25.178a5.036 5.036 0 0 1 5.036-5.036Z" />
  </g>
  <path fill="#B4DAFF" d="M85.564 105.75H59.38a3.021 3.021 0 0 0 0 6.043h26.185a3.022 3.022 0 0 0 0-6.043Z" />
  <path fill="#DEE9FC" d="M103.693 118.843H59.379a3.021 3.021 0 0 0 0 6.043h44.314a3.021 3.021 0 0 0 0-6.043Z" />
  <path fill="#2E85EC" d="M23.625 124.886c5.284 0 9.568-4.284 9.568-9.568s-4.284-9.568-9.568-9.568-9.568 4.284-9.568 9.568 4.284 9.568 9.568 9.568Z" />
  <g filter="url(#d)">
    <path fill="#fff" d="M147 11.079H11.036A5.036 5.036 0 0 0 6 16.114v25.179a5.036 5.036 0 0 0 5.036 5.036H147a5.036 5.036 0 0 0 5.036-5.036V16.114A5.036 5.036 0 0 0 147 11.08Z" />
  </g>
  <path fill="#B4DAFF" d="M83.55 19.136H57.364a3.021 3.021 0 0 0 0 6.043H83.55a3.021 3.021 0 1 0 0-6.043Z" />
  <path fill="#DEE9FC" d="M101.678 32.228H57.364a3.021 3.021 0 0 0 0 6.043h44.314a3.022 3.022 0 1 0 0-6.043Z" />
  <path fill="#2E85EC" d="M36.718 38.272a9.568 9.568 0 0 0 9.568-9.568 9.568 9.568 0 1 0-9.568 9.568Z" />
  <defs>
    <filter id="b" width="158.036" height="47.25" x="43.307" y="51.386" color-interpolation-filters="sRGB" filterUnits="userSpaceOnUse">
      <feFlood flood-opacity="0" result="BackgroundImageFix" />
      <feColorMatrix in="SourceAlpha" result="hardAlpha" values="0 0 0 0 0 0 0 0 0 0 0 0 0 0 0 0 0 0 127 0" />
      <feOffset dy="3" />
      <feGaussianBlur stdDeviation="3" />
      <feColorMatrix values="0 0 0 0 0 0 0 0 0 0 0 0 0 0 0 0 0 0 0.161 0" />
      <feBlend in2="BackgroundImageFix" result="effect1_dropShadow" />
      <feBlend in="SourceGraphic" in2="effect1_dropShadow" result="shape" />
    </filter>
    <filter id="c" width="158.036" height="47.25" x="0" y="94.693" color-interpolation-filters="sRGB" filterUnits="userSpaceOnUse">
      <feFlood flood-opacity="0" result="BackgroundImageFix" />
      <feColorMatrix in="SourceAlpha" result="hardAlpha" values="0 0 0 0 0 0 0 0 0 0 0 0 0 0 0 0 0 0 127 0" />
      <feOffset dy="3" />
      <feGaussianBlur stdDeviation="3" />
      <feColorMatrix values="0 0 0 0 0 0 0 0 0 0 0 0 0 0 0 0 0 0 0.161 0" />
      <feBlend in2="BackgroundImageFix" result="effect1_dropShadow" />
      <feBlend in="SourceGraphic" in2="effect1_dropShadow" result="shape" />
    </filter>
    <filter id="d" width="158.036" height="47.25" x="0" y="8.079" color-interpolation-filters="sRGB" filterUnits="userSpaceOnUse">
      <feFlood flood-opacity="0" result="BackgroundImageFix" />
      <feColorMatrix in="SourceAlpha" result="hardAlpha" values="0 0 0 0 0 0 0 0 0 0 0 0 0 0 0 0 0 0 127 0" />
      <feOffset dy="3" />
      <feGaussianBlur stdDeviation="3" />
      <feColorMatrix values="0 0 0 0 0 0 0 0 0 0 0 0 0 0 0 0 0 0 0.161 0" />
      <feBlend in2="BackgroundImageFix" result="effect1_dropShadow" />
      <feBlend in="SourceGraphic" in2="effect1_dropShadow" result="shape" />
    </filter>
    <linearGradient id="a" x1="102.686" x2="102.686" y1="0" y2="141" gradientUnits="userSpaceOnUse">
      <stop stop-color="#E3ECFA" />
      <stop offset="1" stop-color="#DAE7FF" />
    </linearGradient>
  </defs>
</svg>