<svg xmlns="http://www.w3.org/2000/svg" width="139.68" height="6.722" viewBox="0 0 139.68 6.722"><defs><style>.a,.b,.c,.d{fill:#fdb822;}.a{stroke:#fdb822;}.a,.b{stroke-linecap:round;}.b{stroke:#959595;}.d{fill-rule:evenodd;}</style></defs><g transform="translate(-301.32 -461.061)"><g transform="translate(300 447.659)"><path class="a" d="M4.777-.007,112.634.005" transform="translate(4.079 16.841)"/><path class="b" d="M0,0H23" transform="translate(117.5 16.841)"/><circle class="c" cx="1.5" cy="1.5" r="1.5" transform="translate(45 15.341)"/><circle class="c" cx="1.5" cy="1.5" r="1.5" transform="translate(28 15.341)"/><circle class="c" cx="1.5" cy="1.5" r="1.5" transform="translate(63 15.341)"/><circle class="c" cx="1.5" cy="1.5" r="1.5" transform="translate(80 15.341)"/><circle class="c" cx="1.5" cy="1.5" r="1.5" transform="translate(98 15.341)"/></g><g transform="translate(308.687 467.783) rotate(180)"><path class="d" d="M3.7.141a.48.48,0,0,1,0,.68L1.16,3.361,3.7,5.9a.481.481,0,0,1-.68.68L.141,3.7a.48.48,0,0,1,0-.68L3.021.141a.48.48,0,0,1,.68,0Z" transform="translate(3.525)"/><path class="d" d="M3.7.141a.48.48,0,0,1,0,.68L1.16,3.361,3.7,5.9a.481.481,0,0,1-.68.68L.141,3.7a.48.48,0,0,1,0-.68L3.021.141a.48.48,0,0,1,.68,0Z" transform="translate(1.518)"/></g></g></svg>