<svg width="26" height="26" viewBox="0 0 26 26" fill="none" xmlns="http://www.w3.org/2000/svg">
    <rect width="26" height="26" fill="white" />
    <path fill-rule="evenodd" clip-rule="evenodd" d="M5.5186 18.1429L5.65603 17.6328L5.3987 17.1714C4.38247 15.3495 4.05981 13.224 4.48941 11.1846C4.91903 9.14523 6.07242 7.3276 7.73918 6.0659C9.40606 4.80412 11.4743 4.18326 13.5644 4.31814C15.6545 4.45301 17.6248 5.33447 19.1142 6.79963L20.0258 5.87289L19.1142 6.79963C20.6034 8.26468 21.5118 10.215 21.6739 12.2925C21.836 14.3699 21.241 16.4364 19.9973 18.1128C18.7534 19.7893 16.9439 20.9636 14.9 21.4188C12.8561 21.874 10.7162 21.5793 8.87322 20.5892L8.42025 20.3459L7.92338 20.4782L4.65482 21.3489L5.5186 18.1429ZM22.97 12.1913C22.7835 9.80075 21.7381 7.55739 20.0258 5.87289C18.3135 4.1884 16.0491 3.17578 13.6481 3.02084C11.2471 2.86589 8.87055 3.57903 6.95456 5.02938C5.03857 6.47974 3.71167 8.57002 3.21733 10.9167C2.723 13.2633 3.09439 15.7089 4.26336 17.8047L3.01597 22.4346C2.92615 22.768 3.23089 23.0736 3.56453 22.9847L8.25801 21.7344C10.3759 22.8722 12.8345 23.2106 15.1827 22.6877C17.5308 22.1647 19.6109 20.8154 21.0413 18.8874C22.4717 16.9593 23.1565 14.5819 22.97 12.1913ZM16.0165 14.0596C16.2637 14.1157 16.4948 14.2274 16.6922 14.3861C16.7497 14.4198 16.8126 14.4546 16.8783 14.491C17.2563 14.7003 17.7289 14.9621 17.8164 15.3642C17.8592 15.5951 17.8293 15.8335 17.7308 16.0467C17.5632 16.3997 17.311 16.7062 16.9966 16.9392C16.6821 17.1723 16.315 17.3247 15.9275 17.3832C15.2475 17.46 14.5593 17.352 13.9359 17.0704C13.3358 16.8656 12.7614 16.5927 12.2239 16.2571C11.1529 15.5967 10.2206 14.7352 9.47904 13.7207C9.25085 13.4118 9.0394 13.091 8.8456 12.7596C8.577 12.3269 8.37321 11.8575 8.2407 11.3662C8.18852 11.1617 8.16169 10.9516 8.16081 10.7406C8.14771 10.3649 8.21936 9.99104 8.37046 9.64656C8.52157 9.30207 8.74829 8.99576 9.03392 8.75016C9.19845 8.60424 9.40184 8.50887 9.61955 8.47557C9.83725 8.44227 10.06 8.47246 10.2608 8.56249C10.6503 8.89042 10.9374 9.3226 11.0883 9.80796C11.2835 10.1542 11.3746 10.549 11.3508 10.9454C11.2437 11.3047 11.0475 11.6314 10.7802 11.8951C10.7038 11.9602 10.6558 12.0524 10.6462 12.1521C10.6366 12.2518 10.6662 12.3513 10.7288 12.4297C11.4625 13.6858 12.6008 14.6579 13.9587 15.1879C14.0343 15.2292 14.1224 15.2416 14.2064 15.2227C14.2905 15.2039 14.3647 15.1551 14.4153 15.0856C14.4904 14.9946 14.5656 14.8752 14.6447 14.7494C14.8181 14.4737 15.0109 14.1673 15.2656 14.0619C15.5124 14.0042 15.7693 14.0034 16.0165 14.0596Z" fill="#212121" />
</svg>
