<svg width="16" height="16" viewBox="0 0 16 16" fill="none" xmlns="http://www.w3.org/2000/svg">
<path d="M0 2.66667C0 1.19391 1.19391 0 2.66667 0H13.3333C14.8061 0 16 1.19391 16 2.66667V10.6667C16 12.1394 14.8061 13.3333 13.3333 13.3333H10.6667V14C10.6667 14.3682 10.9651 14.6667 11.3333 14.6667H12C12.3682 14.6667 12.6667 14.9651 12.6667 15.3333C12.6667 15.7015 12.3682 16 12 16H4C3.63181 16 3.33333 15.7015 3.33333 15.3333C3.33333 14.9651 3.63181 14.6667 4 14.6667H4.66667C5.03486 14.6667 5.33333 14.3682 5.33333 14V13.3333H2.66667C1.19391 13.3333 0 12.1394 0 10.6667V2.66667ZM9.44714 14.6667C9.37344 14.4581 9.33333 14.2338 9.33333 14V13.3333H6.66667V14C6.66667 14.2338 6.62656 14.4581 6.55286 14.6667H9.44714ZM13.3333 12C14.0697 12 14.6667 11.403 14.6667 10.6667H1.33333C1.33333 11.403 1.93029 12 2.66667 12H13.3333ZM14.6667 2.66667C14.6667 1.93029 14.0697 1.33333 13.3333 1.33333H2.66667C1.93029 1.33333 1.33333 1.93029 1.33333 2.66667V9.33333H14.6667V2.66667Z" fill="#212121"/>
</svg>
