<svg width="66" height="23" viewBox="0 0 66 23" fill="none" xmlns="http://www.w3.org/2000/svg">
<g clip-path="url(#clip0)">
<path d="M27.158 21.476V8.28571C27.158 7.70863 27.2736 7.13719 27.4982 6.60404C27.7228 6.07088 28.052 5.58644 28.467 5.17839C28.8821 4.77033 29.3748 4.44665 29.917 4.22582C30.4593 4.00499 31.0405 3.89134 31.6274 3.89136L35.5882 3.89706C36.7703 3.8994 37.9031 4.36274 38.7381 5.18539C39.5731 6.00805 40.0421 7.12282 40.0421 8.28506V11.0928C40.0421 12.2583 39.5712 13.376 38.733 14.2001C37.8948 15.0243 36.758 15.4873 35.5727 15.4873H29.9757" stroke="#939598" stroke-miterlimit="10" stroke-linecap="round" stroke-linejoin="round"/>
<path d="M41.149 3.8894H42.8672C43.1081 3.8894 43.3466 3.93605 43.5691 4.02669C43.7916 4.11732 43.9938 4.25017 44.1641 4.41764C44.3345 4.5851 44.4696 4.78392 44.5617 5.00272C44.6539 5.22153 44.7013 5.45604 44.7013 5.69287V15.5461" stroke="#939598" stroke-miterlimit="10" stroke-linecap="round" stroke-linejoin="round"/>
<path d="M44.3329 2.36295L43.5537 1.59679C43.5077 1.5516 43.4713 1.49794 43.4464 1.43889C43.4215 1.37984 43.4087 1.31654 43.4087 1.25262C43.4087 1.1887 43.4215 1.12541 43.4464 1.06635C43.4713 1.0073 43.5077 0.953645 43.5537 0.908451L44.3329 0.142817C44.3789 0.0975405 44.4336 0.0616234 44.4937 0.0371182C44.5539 0.012613 44.6183 0 44.6834 0C44.7485 0 44.813 0.012613 44.8731 0.0371182C44.9333 0.0616234 44.9879 0.0975405 45.0339 0.142817L45.8121 0.907932C45.858 0.953126 45.8945 1.00678 45.9194 1.06584C45.9443 1.12489 45.9571 1.18818 45.9571 1.2521C45.9571 1.31602 45.9443 1.37932 45.9194 1.43837C45.8945 1.49743 45.858 1.55108 45.8121 1.59628L45.0331 2.36295C44.9871 2.40815 44.9326 2.44401 44.8725 2.46848C44.8124 2.49294 44.748 2.50554 44.683 2.50554C44.618 2.50554 44.5536 2.49294 44.4935 2.46848C44.4335 2.44401 44.3789 2.40815 44.3329 2.36295Z" fill="#32BCAD"/>
<path d="M47.9977 3.88062H49.7016C50.1356 3.88059 50.5654 3.96463 50.9664 4.12792C51.3674 4.29122 51.7317 4.53058 52.0386 4.83234L56.0241 8.75103C56.1469 8.87175 56.2926 8.96751 56.453 9.03284C56.6134 9.09818 56.7853 9.1318 56.9589 9.1318C57.1325 9.1318 57.3044 9.09818 57.4648 9.03284C57.6252 8.96751 57.7709 8.87175 57.8937 8.75103L61.8647 4.84674C62.4845 4.23735 63.3251 3.895 64.2017 3.89501H65.5865" stroke="#939598" stroke-miterlimit="10" stroke-linecap="round" stroke-linejoin="round"/>
<path d="M47.9977 15.46H49.7016C50.1356 15.46 50.5654 15.376 50.9664 15.2127C51.3674 15.0494 51.7317 14.81 52.0386 14.5083L56.0241 10.5895C56.1469 10.4688 56.2926 10.373 56.453 10.3077C56.6134 10.2424 56.7853 10.2087 56.9589 10.2087C57.1325 10.2087 57.3044 10.2424 57.4648 10.3077C57.6252 10.373 57.7709 10.4688 57.8937 10.5895L61.8647 14.4938C62.1716 14.7955 62.5359 15.0349 62.9369 15.1982C63.3379 15.3616 63.7676 15.4456 64.2017 15.4456H65.5865" stroke="#939598" stroke-miterlimit="10" stroke-linecap="round" stroke-linejoin="round"/>
<path d="M16.9991 17.9635C16.5785 17.9646 16.1618 17.8837 15.7732 17.7255C15.3845 17.5673 15.0316 17.3349 14.7349 17.0417L11.4655 13.8267C11.3498 13.7179 11.196 13.6572 11.036 13.6572C10.8759 13.6572 10.7221 13.7179 10.6065 13.8267L7.32511 17.0535C7.02836 17.3467 6.67545 17.579 6.28679 17.7372C5.89813 17.8954 5.48143 17.9763 5.06079 17.9752H4.41663L8.55725 22.0471C9.17829 22.6577 10.0206 23.0007 10.8988 23.0007C11.777 23.0007 12.6193 22.6577 13.2403 22.0471L17.393 17.9635H16.9991Z" fill="#32BCAD"/>
<path d="M5.06079 6.59295C5.48143 6.59185 5.89813 6.67275 6.28677 6.83099C6.67541 6.98923 7.02828 7.22167 7.32498 7.51485L10.6063 10.7416C10.7203 10.8535 10.8748 10.9163 11.0359 10.9163C11.197 10.9163 11.3515 10.8535 11.4655 10.7416L14.7348 7.52665C15.0315 7.23347 15.3844 7.00104 15.7731 6.8428C16.1618 6.68456 16.5785 6.60365 16.9991 6.60475H17.3927L13.2403 2.52176C12.9328 2.21942 12.5678 1.97959 12.166 1.81596C11.7643 1.65233 11.3337 1.56812 10.8988 1.56812C10.4639 1.56812 10.0333 1.65233 9.63156 1.81596C9.22979 1.97959 8.86474 2.21942 8.55725 2.52176L4.41663 6.59295H5.06079Z" fill="#32BCAD"/>
<path d="M20.8276 9.98191L18.3182 7.51461C18.2617 7.53752 18.2012 7.54954 18.14 7.55001H16.9992C16.4053 7.55169 15.8362 7.78356 15.4151 8.1953L12.1457 11.4098C12.0001 11.5532 11.8271 11.6669 11.6367 11.7444C11.4463 11.8218 11.2422 11.8615 11.0362 11.8612C10.8301 11.8616 10.6261 11.8219 10.4356 11.7445C10.2452 11.6671 10.0722 11.5535 9.92657 11.4102L6.64497 8.18363C6.22395 7.77189 5.65476 7.54001 5.06094 7.53834H3.65787C3.60009 7.53734 3.54297 7.526 3.48932 7.50488L0.969913 9.98191C0.662413 10.2842 0.41849 10.6432 0.252071 11.0382C0.0856532 11.4332 0 11.8566 0 12.2842C0 12.7118 0.0856532 13.1352 0.252071 13.5302C0.41849 13.9252 0.662413 14.2841 0.969913 14.5865L3.48905 17.0634C3.54275 17.0422 3.59991 17.0309 3.65774 17.0299H5.06068C5.6545 17.0282 6.22368 16.7964 6.6447 16.3846L9.92618 13.1591C10.2251 12.8785 10.6225 12.7219 11.0359 12.7219C11.4492 12.7219 11.8466 12.8785 12.1455 13.1591L15.415 16.3733C15.836 16.7852 16.4052 17.017 16.999 17.0186H18.1399C18.2011 17.0191 18.2616 17.031 18.3182 17.0539L20.8276 14.5865C21.1351 14.2841 21.379 13.9252 21.5454 13.5302C21.7118 13.1352 21.7975 12.7118 21.7975 12.2842C21.7975 11.8566 21.7118 11.4332 21.5454 11.0382C21.379 10.6432 21.1351 10.2842 20.8276 9.98191Z" fill="#32BCAD"/>
<path d="M30.564 20.3549C30.3566 20.3639 30.1508 20.3947 29.9501 20.4469V21.2509C30.1037 21.3036 30.2655 21.3299 30.4282 21.3288C30.8381 21.3288 31.0325 21.1928 31.0325 20.8379C31.0325 20.5045 30.8732 20.3549 30.564 20.3549ZM29.8123 21.8476V20.258H29.9248L29.9365 20.3272C30.1455 20.2723 30.3597 20.2384 30.5756 20.2258C30.7254 20.2158 30.874 20.2582 30.9951 20.3455C31.0614 20.4088 31.1124 20.486 31.1444 20.5713C31.1764 20.6565 31.1884 20.7478 31.1797 20.8383C31.1877 20.939 31.1676 21.0398 31.1214 21.13C31.0753 21.2202 31.0049 21.2963 30.9179 21.3499C30.7703 21.422 30.607 21.4576 30.4422 21.4536C30.2753 21.4526 30.1096 21.4275 29.9501 21.3793V21.8471L29.8123 21.8476Z" fill="#939598"/>
<path d="M32.2093 20.3502C31.7993 20.3502 31.6166 20.4771 31.6166 20.8317C31.6166 21.175 31.797 21.3294 32.2093 21.3294C32.617 21.3294 32.7998 21.205 32.7998 20.8496C32.7998 20.507 32.6194 20.3502 32.2093 20.3502ZM32.7369 21.3294C32.5785 21.4239 32.3941 21.4674 32.2093 21.4537C32.024 21.467 31.839 21.4236 31.6797 21.3294C31.6059 21.2718 31.548 21.1969 31.5111 21.1116C31.4743 21.0263 31.4597 20.9333 31.4686 20.8411C31.4602 20.7485 31.475 20.6553 31.5118 20.5697C31.5486 20.4841 31.6062 20.4088 31.6797 20.3502C31.8389 20.256 32.024 20.2126 32.2093 20.226C32.394 20.2131 32.5782 20.2565 32.7369 20.3502C32.8105 20.408 32.8683 20.4829 32.9052 20.5682C32.942 20.6535 32.9567 20.7464 32.9479 20.8386C32.9569 20.9312 32.9424 21.0246 32.9055 21.1103C32.8687 21.1959 32.8107 21.2713 32.7369 21.3294Z" fill="#939598"/>
<path d="M34.6774 21.4214L34.2204 20.4563H34.2109L33.7611 21.4214H33.637L33.1497 20.2581H33.3019L33.7073 21.2347H33.7168L34.1572 20.2581H34.2837L34.7358 21.2347H34.7453L35.141 20.2581H35.2888L34.8015 21.4214H34.6774Z" fill="#939598"/>
<path d="M36.1726 20.3479C35.793 20.3479 35.6642 20.5137 35.6407 20.7534H36.7044C36.6928 20.4886 36.5551 20.3479 36.1726 20.3479ZM36.168 21.4536C35.9933 21.4715 35.8181 21.4254 35.6759 21.324C35.6106 21.2619 35.5601 21.1864 35.5281 21.1028C35.4961 21.0192 35.4834 20.9297 35.4909 20.8406C35.4858 20.7466 35.503 20.6527 35.5412 20.5664C35.5794 20.4801 35.6375 20.4037 35.711 20.3433C35.8489 20.2585 36.0101 20.2174 36.1726 20.2258C36.3383 20.2161 36.5031 20.2554 36.6458 20.3388C36.8173 20.4515 36.8497 20.65 36.8497 20.8754H35.6363C35.641 21.115 35.7208 21.3271 36.1799 21.3271C36.3852 21.3222 36.5898 21.2998 36.7912 21.2602V21.3822C36.5859 21.4237 36.3774 21.4476 36.168 21.4536Z" fill="#939598"/>
<path d="M37.2465 21.4213V20.258H37.359L37.3707 20.3272C37.5607 20.2659 37.7588 20.2317 37.9587 20.2258H37.9752V20.3549H37.9423C37.7529 20.3585 37.565 20.3895 37.3847 20.4469V21.4213H37.2465Z" fill="#939598"/>
<path d="M38.778 20.3479C38.3984 20.3479 38.2695 20.5137 38.246 20.7534H39.3098C39.2981 20.4886 39.1605 20.3479 38.778 20.3479ZM38.7733 21.4536C38.5987 21.4715 38.4234 21.4254 38.2813 21.324C38.2159 21.2619 38.1654 21.1864 38.1334 21.1028C38.1014 21.0192 38.0887 20.9297 38.0962 20.8406C38.0911 20.7466 38.1084 20.6527 38.1466 20.5664C38.1848 20.4801 38.2429 20.4037 38.3163 20.3433C38.4543 20.2585 38.6155 20.2174 38.778 20.2258C38.9436 20.2161 39.1085 20.2554 39.2512 20.3388C39.4227 20.4515 39.4551 20.65 39.4551 20.8754H38.2417C38.2463 21.115 38.3261 21.3271 38.7852 21.3271C38.9906 21.3222 39.1951 21.2998 39.3965 21.2602V21.3822C39.1913 21.4237 38.9828 21.4476 38.7733 21.4536Z" fill="#939598"/>
<path d="M40.9694 20.4287C40.8159 20.3757 40.6543 20.3492 40.4916 20.3501C40.0815 20.3501 39.887 20.4862 39.887 20.841C39.887 21.1771 40.0463 21.3245 40.3555 21.3245C40.5627 21.3152 40.7684 21.2851 40.9694 21.2347V20.4287ZM40.9958 21.4215L40.9834 21.3523C40.7743 21.407 40.56 21.4408 40.344 21.4532C40.1941 21.4643 40.0451 21.4217 39.9246 21.3334C39.8582 21.27 39.8072 21.1929 39.7752 21.1076C39.7433 21.0223 39.7312 20.9311 39.7399 20.8406C39.7318 20.7403 39.7519 20.6397 39.7981 20.5499C39.8443 20.4601 39.9148 20.3846 40.0019 20.3317C40.1497 20.2576 40.314 20.2213 40.4798 20.2259C40.6457 20.2279 40.8105 20.2525 40.9694 20.299V19.7673H41.1078V21.4215H40.9958Z" fill="#939598"/>
<path d="M43.1345 20.355C42.9271 20.364 42.7212 20.3949 42.5205 20.4471V21.2487C42.6738 21.3032 42.8356 21.3306 42.9986 21.3295C43.4085 21.3295 43.6029 21.1935 43.6029 20.8386C43.6029 20.5047 43.4436 20.355 43.1345 20.355ZM43.4882 21.3501C43.3406 21.4222 43.1774 21.4578 43.0126 21.4538C42.8325 21.4528 42.6537 21.4233 42.4831 21.3665L42.4761 21.422H42.3827V19.7676H42.521V20.3226C42.7258 20.2711 42.9351 20.2387 43.1461 20.226C43.2959 20.2159 43.4444 20.2583 43.5655 20.3457C43.6318 20.409 43.6829 20.4861 43.7148 20.5714C43.7468 20.6567 43.7588 20.748 43.7501 20.8385C43.758 20.9392 43.7378 21.0401 43.6915 21.1302C43.6452 21.2204 43.5747 21.2964 43.4877 21.3499" fill="#939598"/>
<path d="M43.9342 21.8682V21.7416C44.0021 21.7485 44.0661 21.7531 44.11 21.7531C44.1901 21.7598 44.2701 21.7398 44.3373 21.6963C44.4044 21.6528 44.4547 21.5885 44.4801 21.5135L44.5246 21.4214L43.9062 20.2581H44.0661L44.5951 21.2623H44.6045L45.1081 20.2581H45.265L44.5997 21.5642C44.4779 21.8015 44.3465 21.8797 44.1057 21.8797C44.0483 21.8792 43.9911 21.8754 43.9342 21.8682Z" fill="#939598"/>
<path d="M47.1702 20.758H46.7109V21.1659H47.1725C47.4891 21.1659 47.6078 21.1311 47.6078 20.9608C47.6082 20.7786 47.4444 20.758 47.1702 20.758ZM47.0857 20.0966H46.7109V20.5116H47.0881C47.3998 20.5116 47.5234 20.4748 47.5234 20.3021C47.5239 20.1177 47.3669 20.0966 47.0857 20.0966ZM47.798 21.311C47.6293 21.4169 47.4254 21.4215 47.0528 21.4215H46.3524V19.8435H47.0365C47.3576 19.8435 47.5542 19.848 47.7183 19.9449C47.7726 19.9769 47.8168 20.0231 47.8458 20.0785C47.8748 20.1338 47.8874 20.196 47.8824 20.2581C47.8867 20.336 47.8641 20.413 47.8181 20.4766C47.7722 20.5402 47.7056 20.5866 47.6294 20.6082V20.6172C47.8355 20.6636 47.9692 20.7674 47.9692 20.9908C47.9741 21.0546 47.9606 21.1185 47.9303 21.1752C47.8999 21.2318 47.854 21.2789 47.7977 21.3111" fill="#939598"/>
<path d="M49.3707 20.933C49.2323 20.9215 49.0919 20.9146 48.9443 20.9146C48.7029 20.9146 48.6185 20.963 48.6185 21.0711C48.6185 21.1725 48.6888 21.2279 48.8739 21.2279C49.0415 21.2218 49.208 21.1986 49.3707 21.1587V20.933ZM49.4409 21.4214L49.4316 21.3522C49.2222 21.4099 49.0068 21.4439 48.7896 21.4536C48.664 21.4619 48.5389 21.4322 48.4311 21.3682C48.3875 21.3355 48.3528 21.2928 48.33 21.2438C48.3071 21.1948 48.2968 21.141 48.3 21.0872C48.2968 21.021 48.3142 20.9554 48.3497 20.8991C48.3853 20.8428 48.4374 20.7984 48.4992 20.7718C48.6408 20.7211 48.7916 20.6999 48.9421 20.7096C49.0662 20.7096 49.2322 20.7165 49.3708 20.7257V20.7048C49.3708 20.5232 49.249 20.4631 48.9162 20.4631C48.7875 20.4631 48.6304 20.4697 48.481 20.4837V20.2487C48.6473 20.2357 48.8347 20.2259 48.9894 20.2259C49.1796 20.2096 49.3707 20.2471 49.5399 20.334C49.6752 20.4286 49.7004 20.5599 49.7004 20.7325V21.4214H49.4409Z" fill="#939598"/>
<path d="M51.2458 21.4214V20.7785C51.2458 20.5667 51.1358 20.4908 50.9389 20.4908C50.7758 20.498 50.614 20.5227 50.4563 20.5645V21.4214H50.1266V20.2581H50.396L50.4076 20.3316C50.6137 20.2722 50.8262 20.2367 51.0407 20.2259C51.1859 20.2146 51.3301 20.2571 51.445 20.3451C51.4924 20.3926 51.5286 20.45 51.5509 20.5129C51.5732 20.5758 51.581 20.6428 51.5738 20.7091V21.4214H51.2458Z" fill="#939598"/>
<path d="M52.5072 21.4537C52.3504 21.4652 52.1944 21.422 52.0667 21.3317C51.9994 21.269 51.9476 21.192 51.9151 21.1066C51.8826 21.0212 51.8704 20.9297 51.8793 20.8389C51.8731 20.7427 51.892 20.6465 51.9342 20.5594C51.9765 20.4724 52.0406 20.3974 52.1206 20.3416C52.279 20.2545 52.4597 20.2145 52.6408 20.2264C52.7767 20.2264 52.9103 20.2358 53.0577 20.2493V20.4981C52.9382 20.4867 52.7953 20.4775 52.6805 20.4775C52.3665 20.4775 52.2189 20.5742 52.2189 20.8415C52.2189 21.0926 52.3292 21.2007 52.5867 21.2007C52.7539 21.1953 52.9201 21.1752 53.0836 21.1406V21.3801C52.8944 21.4231 52.7013 21.4477 52.5072 21.4537Z" fill="#939598"/>
<path d="M54.0593 20.4698C53.7453 20.4698 53.6069 20.5668 53.6069 20.8317C53.6069 21.0967 53.7428 21.209 54.0593 21.209C54.3708 21.209 54.5067 21.1143 54.5067 20.8494C54.5067 20.5844 54.3734 20.4698 54.0593 20.4698ZM54.6265 21.3315C54.4539 21.4267 54.2565 21.4693 54.0593 21.4537C53.8615 21.4689 53.6635 21.4265 53.4901 21.3317C53.4129 21.2759 53.3519 21.2013 53.3129 21.1152C53.274 21.0292 53.2585 20.9347 53.268 20.841C53.2586 20.7469 53.2742 20.6521 53.3132 20.5657C53.3522 20.4793 53.4133 20.4044 53.4906 20.3482C53.6638 20.2533 53.8616 20.2108 54.0593 20.2259C54.2564 20.2111 54.4536 20.2535 54.6265 20.3479C54.7032 20.404 54.7638 20.4787 54.8024 20.5646C54.841 20.6506 54.8563 20.745 54.8467 20.8385C54.856 20.9323 54.8406 21.0269 54.802 21.1132C54.7634 21.1994 54.703 21.2745 54.6265 21.3313" fill="#939598"/>
<path d="M56.7538 21.4537C56.5482 21.4663 56.3445 21.4085 56.1775 21.29C55.9854 21.1332 55.9269 20.8915 55.9269 20.6311C55.9196 20.5015 55.9456 20.3721 56.0025 20.255C56.0595 20.1379 56.1455 20.0367 56.2526 19.9609C56.4597 19.8478 56.6955 19.7958 56.9319 19.8113C57.1101 19.8113 57.2926 19.8228 57.4919 19.8389V20.1222C57.3204 20.1083 57.1094 20.0963 56.946 20.0963C56.489 20.0963 56.2946 20.2668 56.2946 20.6307C56.2946 21.0017 56.475 21.1676 56.8124 21.1676C57.0532 21.1592 57.2925 21.1276 57.527 21.073V21.3546C57.2732 21.4124 57.0142 21.4456 56.7538 21.4537Z" fill="#939598"/>
<path d="M58.4978 20.4331C58.2236 20.4331 58.1182 20.5301 58.097 20.7074H58.8935C58.8842 20.5185 58.7719 20.4331 58.4978 20.4331ZM58.4486 21.4537C58.2713 21.4692 58.094 21.4233 57.9474 21.3241C57.8806 21.2624 57.8287 21.1868 57.7958 21.1027C57.7629 21.0186 57.7498 20.9283 57.7573 20.8385C57.7523 20.7452 57.7699 20.6521 57.8086 20.5668C57.8473 20.4815 57.9061 20.4064 57.9801 20.3478C58.1356 20.2554 58.3165 20.2127 58.4978 20.2257C58.6768 20.2144 58.8553 20.2553 59.0108 20.3431C59.2006 20.4746 59.2171 20.6775 59.2195 20.917H58.0947C58.1021 21.0945 58.1979 21.2097 58.5305 21.2097C58.7418 21.2051 58.9525 21.1851 59.1608 21.1496V21.3776C58.9259 21.4217 58.6877 21.4471 58.4486 21.4536" fill="#939598"/>
<path d="M60.6891 21.4214V20.7785C60.6891 20.5667 60.5791 20.4908 60.3821 20.4908C60.219 20.4979 60.0572 20.5226 59.8996 20.5645V21.4214H59.5698V20.2581H59.8393L59.851 20.3316C60.0571 20.2721 60.2696 20.2367 60.4841 20.2259C60.6292 20.2147 60.7733 20.2572 60.8882 20.3451C60.9357 20.3926 60.9719 20.4499 60.9941 20.5129C61.0164 20.5758 61.0243 20.6428 61.0171 20.7091V21.4214H60.6891Z" fill="#939598"/>
<path d="M61.9574 21.4538C61.8843 21.4607 61.8106 21.4491 61.7433 21.4201C61.676 21.391 61.6175 21.3455 61.5732 21.2879C61.5081 21.1818 61.4778 21.0586 61.4864 20.935V20.5H61.2474V20.2582H61.4864L61.5216 19.9058H61.8144V20.2582H62.2807V20.5H61.8144V20.8733C61.81 20.9485 61.8211 21.0237 61.8471 21.0945C61.8674 21.1322 61.899 21.1629 61.9376 21.1822C61.9762 21.2016 62.02 21.2087 62.0629 21.2027C62.1422 21.2013 62.2213 21.1936 62.2994 21.1799V21.4123C62.187 21.4365 62.0725 21.4504 61.9574 21.4538Z" fill="#939598"/>
<path d="M62.603 21.4214V20.258H62.8725L62.8842 20.3315C63.0732 20.2686 63.2705 20.233 63.47 20.2259C63.484 20.2257 63.4981 20.2264 63.512 20.2279V20.5045C63.4746 20.5023 63.43 20.5023 63.3973 20.5023C63.2405 20.5029 63.0844 20.523 62.9328 20.5622V21.4214H62.603Z" fill="#939598"/>
<path d="M64.7131 20.933C64.5748 20.9215 64.4343 20.9146 64.2866 20.9146C64.0453 20.9146 63.9608 20.963 63.9608 21.0711C63.9608 21.1725 64.0312 21.2279 64.2161 21.2279C64.3838 21.2218 64.5503 21.1986 64.7131 21.1587V20.933ZM64.7833 21.4214L64.7741 21.3522C64.5647 21.4099 64.3492 21.4439 64.132 21.4536C64.0064 21.4619 63.8813 21.4322 63.7735 21.3682C63.73 21.3355 63.6952 21.2928 63.6724 21.2438C63.6495 21.1948 63.6392 21.141 63.6424 21.0872C63.6392 21.021 63.6565 20.9554 63.6921 20.8991C63.7277 20.8427 63.7798 20.7984 63.8416 20.7718C63.9832 20.7211 64.134 20.6999 64.2845 20.7096C64.4086 20.7096 64.5746 20.7165 64.7133 20.7257V20.7048C64.7133 20.5232 64.5914 20.4631 64.2586 20.4631C64.1298 20.4631 63.9728 20.4697 63.8234 20.4837V20.2487C63.9898 20.2357 64.1772 20.2259 64.3318 20.2259C64.5221 20.2096 64.7131 20.2471 64.8823 20.334C65.0177 20.4286 65.0429 20.5599 65.0429 20.7325V21.4214H64.7833Z" fill="#939598"/>
<path d="M65.4685 19.7673H65.7982V21.4213H65.4685V19.7673Z" fill="#939598"/>
</g>
<defs>
<clipPath id="clip0">
<rect width="66" height="23" fill="white"/>
</clipPath>
</defs>
</svg>
