<svg width="34" height="25" viewBox="0 0 34 25" fill="none" xmlns="http://www.w3.org/2000/svg">
<g clip-path="url(#clip0)">
<path fill-rule="evenodd" clip-rule="evenodd" d="M29.7499 2.08338H4.25007C3.68648 2.08338 3.14597 2.30288 2.74744 2.69359C2.34892 3.0843 2.12504 3.61421 2.12504 4.16676V20.8338C2.12519 21.3862 2.34914 21.916 2.74765 22.3066C3.14615 22.6972 3.68658 22.9166 4.25007 22.9166H29.7505C30.3141 22.9166 30.8546 22.6971 31.2531 22.3064C31.6516 21.9157 31.8755 21.3858 31.8755 20.8332V4.16676C31.8755 3.89312 31.8206 3.62216 31.7137 3.36935C31.6069 3.11655 31.4503 2.88686 31.2529 2.69339C31.0555 2.49992 30.8212 2.34647 30.5633 2.24181C30.3054 2.13714 30.029 2.08331 29.7499 2.08338ZM4.25007 0C3.12288 0 2.04186 0.438997 1.24482 1.22042C0.447774 2.00183 0 3.06167 0 4.16676L0 20.8338C0 21.9389 0.447774 22.9987 1.24482 23.7801C2.04186 24.5616 3.12288 25.0006 4.25007 25.0006H29.7505C30.3086 25.0006 30.8613 24.8928 31.3769 24.6834C31.8926 24.474 32.3611 24.1671 32.7558 23.7801C33.1504 23.3932 33.4635 22.9339 33.6771 22.4283C33.8906 21.9228 34.0006 21.381 34.0006 20.8338V4.16676C34.0006 3.61957 33.8906 3.07774 33.6771 2.57221C33.4635 2.06668 33.1504 1.60733 32.7558 1.22042C32.3611 0.833496 31.8926 0.526575 31.3769 0.317176C30.8613 0.107777 30.3086 0 29.7505 0H4.25007Z" fill="#3F88EE"/>
<path d="M7.55542 6.48169H10.8294V19.3215H7.55542V6.48169ZM12.4667 6.48169H14.104V19.3215H12.4667V6.48169ZM25.5632 6.48169H27.2004V19.3215H25.5632V6.48169ZM19.0152 6.48169H23.9282V19.3215H19.0152V6.48169ZM15.7412 6.48169H17.3785V19.3215H15.7412V6.48169Z" fill="#3F88EE"/>
</g>
<defs>
<clipPath id="clip0">
<rect width="34" height="25" fill="white"/>
</clipPath>
</defs>
</svg>
