<svg width="22" height="21" viewBox="0 0 22 21" fill="none" xmlns="http://www.w3.org/2000/svg">
<path d="M10.659 1.0113C9.03596 1.08877 7.4588 1.55831 6.07122 2.37711C4.68365 3.19591 3.5298 4.33794 2.71485 5.6991C1.8999 7.06026 1.44976 8.59726 1.40547 10.17C1.36118 11.7427 1.72415 13.3012 2.46129 14.7033L1.42807 19.5592C1.41522 19.6196 1.41827 19.6821 1.43696 19.741C1.45565 19.7999 1.48937 19.8533 1.53501 19.8962C1.58064 19.9392 1.63672 19.9703 1.69806 19.9867C1.7594 20.0032 1.82403 20.0044 1.88597 19.9902L6.80118 18.8625C8.13317 19.5039 9.59928 19.8411 11.0869 19.8483C12.5745 19.8555 14.044 19.5325 15.3825 18.904C16.7211 18.2755 17.893 17.3584 18.8084 16.223C19.7237 15.0876 20.3581 13.7641 20.6627 12.3543C20.9674 10.9445 20.9343 9.48586 20.5659 8.09039C20.1975 6.69492 19.5036 5.39977 18.5376 4.30443C17.5716 3.20909 16.3591 2.34271 14.9933 1.77184C13.6276 1.20096 12.1448 0.94079 10.659 1.0113V1.0113Z" stroke="white" stroke-width="1.5" stroke-miterlimit="10" stroke-linecap="round" stroke-linejoin="round"/>
<path d="M15.7222 12.7044L13.8252 12.133C13.7028 12.0962 13.5732 12.0947 13.4501 12.1288C13.3269 12.1629 13.2149 12.2313 13.1257 12.3267L12.6617 12.8224C12.5662 12.925 12.4439 12.9956 12.3102 13.0252C12.1765 13.0548 12.0374 13.0422 11.9105 12.9888C11.0132 12.6091 9.12584 10.8483 8.64412 9.96651C8.57643 9.84189 8.54549 9.69901 8.55521 9.55594C8.56493 9.41287 8.61488 9.27604 8.69874 9.16276L9.10346 8.61312C9.18137 8.50739 9.2306 8.38154 9.24595 8.24887C9.2613 8.11621 9.24219 7.98165 9.19066 7.85944L8.39306 5.96573C8.34856 5.86019 8.28122 5.76699 8.19637 5.69355C8.11153 5.62011 8.01153 5.56845 7.90432 5.54267C7.79711 5.51689 7.68565 5.51771 7.57879 5.54507C7.47194 5.57242 7.37264 5.62555 7.28878 5.70023C6.75935 6.17012 6.13154 6.88375 6.0552 7.67473C5.92062 9.0692 6.49052 10.8269 8.64543 12.9371C11.135 15.3756 13.129 15.6991 14.4271 15.3676C15.1635 15.1805 15.7518 14.4306 16.123 13.8164C16.1821 13.7191 16.2187 13.6086 16.23 13.4938C16.2413 13.379 16.2269 13.263 16.188 13.1551C16.1491 13.0471 16.0867 12.9502 16.0059 12.8719C15.925 12.7937 15.8279 12.7363 15.7222 12.7044V12.7044Z" fill="white"/>
</svg>
