<svg xmlns="http://www.w3.org/2000/svg" width="36.356" height="35.177" viewBox="0 0 36.356 35.177"><defs><style>.a,.b{fill:none;stroke-linecap:round;stroke-linejoin:round;stroke-miterlimit:10;}.a{stroke:#1d4779;}.b{stroke:#2e85ec;}</style></defs><g transform="translate(-1.5 -2.5)"><path class="a" d="M31.463,37h5.893V49.964H31.463Zm0,10.725c-1.179,0-8.78,3.418-12.964,3.418-2.475,0-4.655-1.3-9.428-3.536C6.832,46.546,2,43.718,2,41.714s6.423.648,11.844,2.357" transform="translate(0 -13.965)"/><circle class="b" cx="4.714" cy="4.714" r="4.714" transform="translate(16.201 3)"/><circle class="b" cx="4.661" cy="4.661" r="4.661" transform="translate(7.593 13.872)"/><path class="a" d="M30.35,47.25H24.457a2.357,2.357,0,1,1,0-4.714h2.357c7.071,0,4.714-3.536,12.964-3.536" transform="translate(-8.256 -14.787)"/></g></svg>