<svg xmlns="http://www.w3.org/2000/svg" width="229" height="46" viewBox="0 0 229 46" fill="none"><g clip-path="url(#clip0_309_557)"><path d="M69.0742 22.9973L54.1838 5.71012C52.5934 3.86709 50.7176 2.44399 48.6029 1.47581C46.4649 0.49597 44.1696 -0.00561523 41.7519 -0.00561523C39.3343 -0.00561523 37.039 0.49597 34.901 1.47581C32.7804 2.44982 30.9046 3.86709 29.32 5.71012L14.4297 22.9973H28.8598L37.5808 12.8723C38.1459 12.2132 38.7692 11.7291 39.4392 11.4259C40.0916 11.1284 40.8664 10.9768 41.7519 10.9768C42.6374 10.9768 43.4122 11.1284 44.0647 11.4259C44.7347 11.7291 45.358 12.2191 45.9231 12.8723L54.6441 22.9973H69.0742Z" fill="#76B83C"></path><path d="M54.6445 22.9968L39.7542 40.284C38.1638 42.127 36.2879 43.5501 34.1732 44.5183C32.0352 45.4982 29.7399 45.9997 27.3222 45.9997C24.9046 45.9997 22.6093 45.4982 20.4713 44.5183C18.3508 43.5443 16.4749 42.127 14.8903 40.284L0 22.9968H14.4301L23.1511 33.1218C23.7162 33.7809 24.3395 34.265 25.0095 34.5683C25.6619 34.8657 26.4367 35.0174 27.3222 35.0174C28.2077 35.0174 28.9825 34.8657 29.635 34.5683C30.305 34.265 30.9283 33.7751 31.4934 33.1218L40.2144 22.9968H54.6445Z" fill="#BCDC4A"></path><path d="M215.607 36.5922C212.683 36.5922 210.9 35.1516 210.9 32.9236C210.9 30.6957 212.485 29.6517 215.904 29.6517H222.604V32.0313C222.254 34.6092 219.335 36.5922 215.607 36.5922ZM229 41.2523L228.948 23.8893C228.895 17.9869 224.975 14.4642 218.031 14.4642C213.178 14.4642 210.201 15.6073 206.385 17.7361L208.715 22.1979C211.442 20.559 214.116 19.7191 216.592 19.7191C220.565 19.7191 222.592 21.5563 222.592 24.63V25.324H214.856C208.412 25.3707 204.801 28.3977 204.801 33.3086C204.801 38.2194 208.366 41.5439 214.063 41.5439C217.827 41.5439 220.809 40.3541 222.644 38.0211V41.2465H228.994L229 41.2523ZM191.081 14.47C186.77 14.5225 183.45 16.1555 181.568 19.6783V14.7208H175.125V41.2581H181.568V28.2111C181.568 23.8485 184.143 20.6231 188.506 20.5707C192.171 20.5707 194.402 22.8511 194.402 26.5722V41.2523H200.892V24.6825C200.892 18.3835 197.175 14.4642 191.081 14.4642V14.47ZM155.655 36.5922C152.731 36.5922 150.948 35.1516 150.948 32.9236C150.948 30.6957 152.533 29.6517 155.953 29.6517H162.652V32.0313C162.302 34.6092 159.384 36.5922 155.655 36.5922ZM169.049 41.2523L168.996 23.8893C168.95 17.9869 165.023 14.4642 158.079 14.4642C153.226 14.4642 150.249 15.6073 146.433 17.7361L148.764 22.1979C151.49 20.559 154.164 19.7191 156.64 19.7191C160.613 19.7191 162.64 21.5563 162.64 24.63V25.324H154.904C148.461 25.3707 144.849 28.3977 144.849 33.3086C144.849 38.2194 148.414 41.5439 154.112 41.5439C157.875 41.5439 160.858 40.3541 162.693 38.0211V41.2465H169.043L169.049 41.2523ZM133.454 4.44995V41.2523H139.897V4.44995H133.454ZM109.027 25.9306C109.621 22.0113 112.295 19.5325 116.111 19.5325C120.125 19.5325 122.752 22.0113 122.898 25.9306H109.027ZM116.064 14.5225C108.136 14.5225 102.59 19.9816 102.59 28.0653C102.59 36.1489 107.99 41.5089 116.216 41.5089C120.871 41.5089 124.739 39.8233 127.366 36.948L123.9 33.3261C122.018 35.2624 119.49 36.3006 116.763 36.3006C112.901 36.3006 110.023 34.0201 109.184 30.2466H128.753C129.399 20.6231 125.385 14.5225 116.07 14.5225H116.064ZM76.4268 14.7733L86.6333 41.2581H93.2745L103.382 14.7208H96.8922L90.1054 34.9067L83.167 14.7208L76.4268 14.7674V14.7733Z" fill="#093341"></path></g><defs><clipPath id="clip0_309_557"><rect width="229" height="46" fill="white"></rect></clipPath></defs></svg>