<svg width="276" height="251" viewBox="0 0 276 251" fill="none" xmlns="http://www.w3.org/2000/svg">
<rect x="47" y="14.9487" width="49.5146" height="49.5146" rx="10" transform="rotate(-13.9643 47 14.9487)" fill="#F1F3F9"/>
<path d="M230.836 153.443C230.836 180.289 219.871 204.488 202.289 221.881C185.085 239.085 161.264 249.483 134.985 249.483C108.895 249.483 85.0746 238.896 67.6815 221.881C50.0995 204.488 39.1343 180.289 39.1343 153.443C39.1343 100.319 82.0497 57.4036 134.985 57.4036C187.92 57.4036 230.836 100.508 230.836 153.443Z" fill="#F1F3F9" stroke="#8DB8EC" stroke-width="2" stroke-miterlimit="10"/>
<path d="M240.764 117.013C245.045 117.013 248.515 113.543 248.515 109.262C248.515 104.981 245.045 101.511 240.764 101.511C236.483 101.511 233.013 104.981 233.013 109.262C233.013 113.543 236.483 117.013 240.764 117.013Z" fill="#EAEEF9"/>
<path d="M233.861 60.2394C236.784 60.2394 239.154 57.8694 239.154 54.9459C239.154 52.0223 236.784 49.6523 233.861 49.6523C230.937 49.6523 228.567 52.0223 228.567 54.9459C228.567 57.8694 230.937 60.2394 233.861 60.2394Z" fill="#EAEEF9"/>
<path d="M42.1593 90.2989C45.0828 90.2989 47.4528 87.9289 47.4528 85.0053C47.4528 82.0818 45.0828 79.7118 42.1593 79.7118C39.2357 79.7118 36.8657 82.0818 36.8657 85.0053C36.8657 87.9289 39.2357 90.2989 42.1593 90.2989Z" fill="#EAEEF9"/>
<path d="M9.83085 192.389C15.2603 192.389 19.6617 187.987 19.6617 182.558C19.6617 177.128 15.2603 172.727 9.83085 172.727C4.40142 172.727 0 177.128 0 182.558C0 187.987 4.40142 192.389 9.83085 192.389Z" fill="#EAEEF9"/>
<path d="M207.664 96.9031L199.78 154.173L189.925 224.939C187.625 226.255 184.997 227.243 182.369 227.243H68.704C63.7763 227.243 59.5057 225.597 55.8921 222.964C54.9065 222.305 53.921 221.318 52.9355 220.331C48.9933 216.381 46.3652 210.456 46.3652 204.203V81.7626C46.3652 76.1672 50.9644 71.8884 56.2206 71.8884H90.7142C93.0138 71.8884 95.3134 72.8758 97.2844 74.8507L108.454 87.0289C110.096 88.6746 112.396 89.662 114.695 89.662H201.094C205.036 89.662 207.993 92.9534 207.664 96.9031Z" fill="#8DB8EC" stroke="#8DB8EC" stroke-width="2" stroke-miterlimit="10"/>
<path d="M63.1191 214.735L72.3174 108.423C72.646 104.473 75.9311 101.511 79.8732 101.511H210.621C214.234 101.511 216.862 104.473 216.534 108.094L207.335 198.607L63.1191 214.735Z" fill="white" stroke="#8DB8EC" stroke-width="2" stroke-miterlimit="10" stroke-linejoin="round"/>
<path d="M115.352 203.215L67.3896 214.406L96.9556 133.109C98.2697 129.488 101.555 127.184 105.497 127.184H221.461C225.732 127.184 228.688 131.792 226.717 135.742L195.18 200.253L115.352 203.215Z" fill="white" stroke="#8DB8EC" stroke-width="2" stroke-miterlimit="10" stroke-linejoin="round"/>
<path d="M237.887 162.073L193.866 221.318C192.881 222.635 191.238 223.951 189.924 224.939C187.624 226.255 184.996 227.243 182.368 227.243H68.7035C63.7759 227.243 59.5052 225.597 55.8916 222.964L101.883 169.314H174.156C177.441 169.314 180.726 168.326 183.354 166.022L195.837 156.477C197.151 155.49 198.465 154.832 199.779 154.173C201.422 153.515 203.393 153.186 205.036 153.186H233.287C237.887 152.857 240.515 158.452 237.887 162.073Z" fill="#8DB8EC" stroke="#8DB8EC" stroke-width="2" stroke-miterlimit="10"/>
<path d="M201.373 157.127C199.705 162.688 199.531 168.555 200.86 174.17L191.48 189.185L209.534 189.811C213.392 193.706 218.187 196.588 223.471 198.173L223.485 198.177C240.887 203.391 259.295 193.474 264.516 176.071C267.047 167.638 266.141 158.725 261.967 150.972C257.793 143.22 250.85 137.557 242.405 135.023C225.001 129.809 206.594 139.725 201.373 157.127" fill="#8DB8EC"/>
<path d="M200.248 156.778C198.52 162.54 198.34 168.617 199.716 174.433L190 189.985L208.701 190.634C212.698 194.67 217.665 197.655 223.139 199.297L223.153 199.301C241.179 204.702 260.248 194.428 265.657 176.403C268.277 167.667 267.34 158.433 263.016 150.403C258.692 142.372 251.5 136.507 242.752 133.882C224.723 128.48 205.657 138.752 200.248 156.778L200.248 156.778ZM205.932 175.365L205.593 174.143C204.168 169 204.229 163.569 205.77 158.435C210.265 143.452 226.112 134.915 241.108 139.408C248.369 141.586 254.346 146.461 257.94 153.136C261.534 159.81 262.313 167.485 260.135 174.746C255.639 189.729 239.791 198.268 224.807 193.779L224.797 193.776C219.918 192.311 215.526 189.568 212.095 185.841L211.278 184.955L200.181 184.57L205.932 175.365Z" fill="url(#paint0_linear)"/>
<path fill-rule="evenodd" clip-rule="evenodd" d="M228.877 150.46C228.673 148.916 228.036 148.695 227.461 148.497C226.991 148.334 226.445 148.172 225.901 148.008C225.356 147.845 224.409 147.785 223.415 148.378C222.421 148.971 219.717 150.316 218.513 154.337C217.308 158.358 219.073 163.121 219.317 163.789C219.563 164.456 222.257 174.543 229.582 180.307C235.67 185.098 237.237 184.977 238.777 185.29C240.316 185.603 244.204 184.762 245.457 183.058C246.71 181.354 247.2 179.718 247.098 179.315C246.995 178.913 246.512 178.546 245.817 177.892C245.122 177.238 241.696 174.057 241.029 173.56C240.361 173.064 239.857 172.764 239.067 173.419C238.277 174.073 236.161 175.445 235.52 175.847C234.88 176.25 234.383 176.175 233.688 175.522C232.994 174.867 230.62 173.216 228.331 169.497C226.551 166.603 225.712 163.436 225.48 162.475C225.248 161.515 225.807 161.2 226.339 160.915C226.815 160.659 227.442 160.206 227.993 159.851C228.544 159.496 228.783 159.196 229.218 158.733C229.654 158.269 229.661 157.751 229.579 157.281C229.497 156.811 229.12 152.293 228.877 150.46" fill="#F1F3F9"/>
<path d="M85.1454 28.8948C84.648 28.6453 65.0545 21.1388 64.1765 20.8595L63.8984 20.7421L64.6122 23.6126C64.8453 24.5499 65.3868 24.7263 66.0891 25.0493L66.2208 25.0787C67.1866 25.4606 81.1318 30.7638 82.9902 31.4835C81.6854 32.9899 71.7016 44.3678 71.0566 45.0258C70.265 45.8447 70.3084 46.2693 70.5124 47.0895L71.1971 49.8428C71.1971 49.8428 85.8723 33.0684 86.1509 32.6881C86.8253 31.8984 86.8117 31.0931 86.6951 30.6244L86.6077 30.2729C86.462 29.6871 85.9649 29.1887 85.1454 28.8948Z" fill="#8DB8EC"/>
<path d="M75.5432 34.6989C76.0128 34.5822 76.4387 34.2897 76.821 33.8215C77.306 33.2655 77.747 32.7827 77.747 32.7827L77.894 32.6218L77.6887 32.5485C77.6155 32.5045 68.4681 29.0576 67.5152 28.7348C67.0902 28.5296 66.606 28.5878 66.3561 28.8365C66.1063 29.0852 65.9443 29.4364 66.0608 29.905L66.5123 31.7206L66.5856 31.7646C66.6589 31.8085 72.9184 34.17 74.1498 34.6101C74.6922 34.7862 75.1323 34.8011 75.5432 34.6989Z" fill="#8DB8EC"/>
<path d="M197.987 14.2441C197.926 13.8935 197.611 13.7094 197.356 13.6968C197.101 13.6842 191.703 13.4709 191.703 13.4709C191.703 13.4709 187.835 9.88751 187.411 9.49086C186.986 9.09423 186.188 9.24681 185.88 9.34927C185.835 9.36436 185.072 9.62898 183.81 10.0674C182.437 6.51637 180.118 3.28915 176.24 3.42288C176.133 3.42657 176.023 3.43487 175.913 3.44487C174.76 2.0243 173.372 1.43778 172.192 1.47847C163.157 1.78999 159.231 13.2323 158.075 19.0182C154.602 20.227 152.135 21.0862 151.82 21.1973C149.882 21.8794 149.822 21.9434 149.629 23.7986C149.483 25.2031 145.723 65.0299 145.723 65.0299L185.932 71.1377L207.418 65.7082C207.418 65.7082 198.047 14.5947 197.987 14.2441ZM181.625 10.8267C180.633 11.172 179.504 11.5641 178.281 11.9894C178.274 11.7513 178.267 11.5166 178.258 11.2606C178.181 9.02657 177.809 7.23877 177.262 5.82997C179.269 6.01204 180.678 8.23958 181.625 10.8267ZM174.799 6.35832C175.402 7.73136 175.832 9.71659 175.925 12.4126C175.93 12.5505 175.933 12.6766 175.937 12.8044C173.761 13.5611 171.398 14.3829 169.029 15.2071C170.195 9.9724 172.628 7.37967 174.799 6.35832ZM172.027 3.91015C172.417 3.8967 172.814 4.0154 173.199 4.26129C170.351 5.7235 167.366 9.26204 166.291 16.1596C164.396 16.8188 162.544 17.4629 160.832 18.0589C162.186 12.7793 165.538 4.1339 172.027 3.91015Z" fill="#F1F3F9"/>
<path d="M197.356 13.6968C197.101 13.6842 191.703 13.4709 191.703 13.4709C191.703 13.4709 187.835 9.88748 187.411 9.49083C187.252 9.34306 187.042 9.27198 186.824 9.24569L185.934 71.1371L207.418 65.7082C207.418 65.7082 198.047 14.5947 197.987 14.2441C197.926 13.8935 197.611 13.7094 197.356 13.6968Z" fill="#8DB8EC"/>
<path d="M177.031 26.3727L174.636 34.4043C174.636 34.4043 172.254 33.2368 169.388 33.3357C165.185 33.4806 165.065 36.1254 165.088 36.79C165.213 40.4162 174.713 41.4796 175.006 49.9735C175.237 56.6559 171.147 61.1052 165.432 61.3023C158.574 61.5388 154.919 57.3914 154.919 57.3914L156.546 51.2613C156.546 51.2613 160.258 54.232 163.3 54.1271C165.288 54.0586 166.042 52.4657 166.003 51.3223C165.84 46.592 158.078 46.6484 157.81 38.8759C157.584 32.3342 162.061 25.8416 171.539 25.5147C175.191 25.3888 177.031 26.3727 177.031 26.3727Z" fill="#8DB8EC"/>
<defs>
<linearGradient id="paint0_linear" x1="222.846" y1="199.826" x2="242.615" y2="133.841" gradientUnits="userSpaceOnUse">
<stop stop-color="#F9F9F9"/>
<stop offset="1" stop-color="white"/>
</linearGradient>
</defs>
</svg>
