<svg id="boleto" xmlns="http://www.w3.org/2000/svg" width="89.268" height="59.512" viewBox="0 0 89.268 59.512">
  <g id="billet">
    <path id="Path" d="M89.268,52.073a7.461,7.461,0,0,1-7.439,7.439H7.439A7.461,7.461,0,0,1,0,52.073V7.439A7.461,7.461,0,0,1,7.439,0h74.39a7.461,7.461,0,0,1,7.439,7.439Z" fill="#f5f5f5" fill-rule="evenodd"/>
    <path id="Shape" d="M81.829,0H7.439A7.461,7.461,0,0,0,0,7.439V52.073a7.461,7.461,0,0,0,7.439,7.439h74.39a7.461,7.461,0,0,0,7.439-7.439V7.439A7.461,7.461,0,0,0,81.829,0Zm0,1.488A5.957,5.957,0,0,1,87.78,7.439V52.073a5.957,5.957,0,0,1-5.951,5.951H7.439a5.957,5.957,0,0,1-5.951-5.951V7.439A5.957,5.957,0,0,1,7.439,1.488Z" fill="#d0d0d0"/>
    <path id="Path-2" data-name="Path" d="M27.372,19.705h2.967V49.9H27.372Z" transform="translate(-7.01 -5.046)" fill-rule="evenodd"/>
    <path id="Path-3" data-name="Path" d="M51.907,19.705h2.967V49.9H51.907Z" transform="translate(-13.293 -5.046)" fill-rule="evenodd"/>
    <path id="Path-4" data-name="Path" d="M72.314,19.705h2.967V49.9H72.314Z" transform="translate(-18.519 -5.046)" fill-rule="evenodd"/>
    <path id="Path-5" data-name="Path" d="M80.43,19.705H83.4V49.9H80.43Z" transform="translate(-20.598 -5.046)" fill-rule="evenodd"/>
    <path id="Path-6" data-name="Path" d="M88.639,19.705h2.967V49.9H88.639Z" transform="translate(-22.7 -5.046)" fill-rule="evenodd"/>
    <path id="Path-7" data-name="Path" d="M60.023,19.705h6.035V49.9H60.023Z" transform="translate(-15.372 -5.046)" fill-rule="evenodd"/>
    <path id="Path-8" data-name="Path" d="M35.535,19.705h9.07V49.9h-9.07Z" transform="translate(-9.1 -5.046)" fill-rule="evenodd"/>
  </g>
</svg>
