<svg width="177" height="162" viewBox="0 0 177 162" fill="none" xmlns="http://www.w3.org/2000/svg">
    <mask id="path-1-outside-1" maskUnits="userSpaceOnUse" x="72.0311" y="60.4849" width="105" height="102" fill="black">
        <rect fill="white" x="72.0311" y="60.4849" width="105" height="102"/>
        <path d="M75.0311 86.5697V126.97H123.801L155.831 159V126.97H173.165V63.4849H144.292"/>
    </mask>
    <path d="M78.0311 86.5697C78.0311 84.9128 76.688 83.5697 75.0311 83.5697C73.3743 83.5697 72.0311 84.9128 72.0311 86.5697H78.0311ZM75.0311 126.97H72.0311C72.0311 128.627 73.3743 129.97 75.0311 129.97V126.97ZM123.801 126.97L125.922 124.848C125.36 124.286 124.596 123.97 123.801 123.97V126.97ZM155.831 159L153.71 161.121C154.568 161.979 155.858 162.236 156.979 161.772C158.1 161.307 158.831 160.213 158.831 159H155.831ZM155.831 126.97V123.97C154.174 123.97 152.831 125.313 152.831 126.97H155.831ZM173.165 126.97V129.97C174.822 129.97 176.165 128.627 176.165 126.97H173.165ZM173.165 63.4849H176.165C176.165 61.828 174.822 60.4849 173.165 60.4849V63.4849ZM144.292 60.4849C142.635 60.4849 141.292 61.828 141.292 63.4849C141.292 65.1417 142.635 66.4849 144.292 66.4849V60.4849ZM72.0311 86.5697V126.97H78.0311V86.5697H72.0311ZM75.0311 129.97H123.801V123.97H75.0311V129.97ZM121.68 129.091L153.71 161.121L157.952 156.879L125.922 124.848L121.68 129.091ZM158.831 159V126.97H152.831V159H158.831ZM155.831 129.97H173.165V123.97H155.831V129.97ZM176.165 126.97V63.4849H170.165V126.97H176.165ZM173.165 60.4849H144.292V66.4849H173.165V60.4849Z" fill="#2E85EC" mask="url(#path-1-outside-1)"/>
    <path d="M24.5848 86.5696C24.5848 85.7412 23.9132 85.0696 23.0848 85.0696H1.5V1.5H142.784L142.742 85.0696H55.0965C54.7009 85.0696 54.3212 85.226 54.0403 85.5046L24.5848 114.715V86.5696Z" stroke="#E8E8E8" stroke-width="3" stroke-linecap="round" stroke-linejoin="round"/>
</svg>
