<svg width="244" height="213" viewBox="0 0 244 213" fill="none" xmlns="http://www.w3.org/2000/svg">
<path d="M131.05 212C187.209 212 232.738 166.471 232.738 110.112C232.738 53.7522 187.008 8.22339 131.05 8.22339C74.8912 8.22339 29.3623 53.7522 29.3623 110.112C29.3623 166.471 74.8912 212 131.05 212Z" fill="#F1F3F9" stroke="#8DB8EC" stroke-width="2" stroke-miterlimit="10"/>
<path d="M226.12 43.3226C230.661 43.3226 234.343 39.641 234.343 35.0994C234.343 30.5578 230.661 26.8761 226.12 26.8761C221.578 26.8761 217.896 30.5578 217.896 35.0994C217.896 39.641 221.578 43.3226 226.12 43.3226Z" fill="#EAEEF9"/>
<path d="M238.154 11.2318C241.255 11.2318 243.77 8.71746 243.77 5.61589C243.77 2.51432 241.255 0 238.154 0C235.052 0 232.538 2.51432 232.538 5.61589C232.538 8.71746 235.052 11.2318 238.154 11.2318Z" fill="#EAEEF9"/>
<path d="M34.7778 43.1222C37.8793 43.1222 40.3937 40.6078 40.3937 37.5063C40.3937 34.4047 37.8793 31.8904 34.7778 31.8904C31.6762 31.8904 29.1619 34.4047 29.1619 37.5063C29.1619 40.6078 31.6762 43.1222 34.7778 43.1222Z" fill="#EAEEF9"/>
<path d="M11.1468 164.522C16.9069 164.522 21.5763 159.852 21.5763 154.092C21.5763 148.332 16.9069 143.663 11.1468 143.663C5.38674 143.663 0.717285 148.332 0.717285 154.092C0.717285 159.852 5.38674 164.522 11.1468 164.522Z" fill="#EAEEF9"/>
<path d="M212.205 176.593H49.895C42.4324 176.593 36.3691 170.529 36.3691 163.067V59.0578C36.3691 51.5953 42.4324 45.532 49.895 45.532H212.205C219.667 45.532 225.731 51.5953 225.731 59.0578V163.533C225.264 170.529 219.201 176.593 212.205 176.593Z" fill="white" stroke="#8DB8EC" stroke-width="2" stroke-miterlimit="10"/>
<rect x="64.5776" y="50.3253" width="30.7819" height="10.335" fill="#F1F3F9" stroke="#8DB8EC" stroke-width="2" stroke-miterlimit="10"/>
<rect x="165.684" y="50.3253" width="30.0758" height="10.335" fill="#F1F3F9" stroke="#8DB8EC" stroke-width="2" stroke-miterlimit="10"/>
<path d="M90.006 26.8757H69.9504V55.0861H90.006V26.8757Z" fill="white" stroke="#8DB8EC" stroke-width="2" stroke-miterlimit="10"/>
<path d="M190.76 26.8757H170.704V55.0861H190.76V26.8757Z" fill="white" stroke="#8DB8EC" stroke-width="2" stroke-miterlimit="10"/>
<path d="M145.509 98.7025H195.414" stroke="#8DB8EC" stroke-width="4" stroke-miterlimit="10" stroke-linecap="round" stroke-linejoin="round"/>
<path d="M145.509 123.889H165.098" stroke="#8DB8EC" stroke-width="4" stroke-miterlimit="10" stroke-linecap="round" stroke-linejoin="round"/>
<path d="M123.468 114.225C123.468 122.959 119.471 130.898 113.476 136.456C108.28 141.22 101.085 143.999 93.491 143.999C85.8968 143.999 78.7023 141.22 73.5063 136.456C67.1112 130.898 63.5139 122.959 63.5139 114.225C63.5139 97.9483 77.1035 84.4507 93.491 84.4507C109.879 84.4507 123.468 97.9483 123.468 114.225Z" fill="#8DB8EC"/>
<path d="M113.476 136.456C108.28 141.22 101.086 143.999 93.4913 143.999C85.8971 143.999 78.7026 141.22 73.5066 136.456C75.9048 135.662 78.7026 134.472 82.2999 132.884C83.0993 132.487 83.8987 131.693 84.2984 130.899C84.6981 130.502 84.6981 129.708 84.6981 129.311V121.768L84.2984 121.371C83.499 120.577 83.0993 119.386 83.0993 118.195L82.2999 117.798C80.3014 118.195 80.7011 116.21 79.9017 112.24C79.9017 110.652 79.9017 110.255 80.7011 109.858L81.5005 109.064C77.9032 100.727 79.502 95.5666 83.499 93.5817C82.2999 90.8028 82.2999 90.0088 82.2999 90.0088C82.2999 90.0088 90.2938 91.1998 92.692 90.8028C96.2892 90.0088 101.485 90.8028 103.484 95.5666C106.681 96.7576 107.88 98.7425 108.28 101.124C108.68 104.697 106.681 108.667 106.282 109.858C106.681 110.255 107.081 110.652 106.681 111.843C106.282 115.416 106.282 117.798 104.283 117.401L102.684 120.974C102.684 121.371 102.684 121.371 102.684 121.768C102.684 122.165 102.684 123.356 102.684 129.708C102.684 130.502 103.084 131.296 103.084 131.693C103.484 132.487 104.283 132.884 104.683 133.281C108.28 134.472 111.078 135.662 113.476 136.456Z" fill="white"/>
<path d="M106.387 110.255C106.387 109.429 105.971 108.189 105.555 107.363V106.95C103.891 103.644 100.563 102.404 97.2345 102.404C88.9143 101.991 88.0823 103.644 85.1702 101.165C86.0022 102.404 86.0022 104.47 84.7542 106.95C83.9222 108.602 82.2581 109.429 80.5941 109.842C76.85 101.165 78.514 95.7934 82.6741 93.7274C81.4261 90.8351 81.4261 90.0087 81.4261 90.0087C81.4261 90.0087 89.7463 91.2482 92.2424 90.8351C95.9864 90.0087 101.395 90.8351 103.475 95.7934C106.803 97.033 108.051 99.0989 108.467 101.578C108.883 104.47 106.803 108.602 106.387 110.255Z" fill="#E1EAFF"/>
<path d="M103.084 131.692V133.28H84.2981V131.295C84.6978 130.898 84.6978 130.104 84.6978 129.707V122.165L84.2981 121.768V121.371C84.6978 122.165 85.0975 122.562 85.8969 123.356L91.8923 127.326C93.0914 128.517 95.0899 128.517 96.6886 127.326L102.284 122.562L102.684 122.165C102.684 122.562 102.684 123.753 102.684 130.104C102.284 130.501 102.684 130.898 103.084 131.692Z" fill="url(#paint0_linear)"/>
<defs>
<linearGradient id="paint0_linear" x1="93.6966" y1="133.353" x2="93.6966" y2="126.792" gradientUnits="userSpaceOnUse">
<stop stop-color="white"/>
<stop offset="1" stop-color="#E2E5EC"/>
</linearGradient>
</defs>
</svg>
