<svg id="Camada_1" data-name="Camada 1" xmlns="http://www.w3.org/2000/svg" xmlns:xlink="http://www.w3.org/1999/xlink" viewBox="0 0 391.11 374.52"><defs><style>.cls-1{fill:none;}.cls-2{fill:#e3e3e3;}.cls-3{fill:#ebebeb;}.cls-4{clip-path:url(#clip-path);}.cls-5{fill:#c2c2c2;}.cls-6{fill:url(#Nova_amostra_de_gradiente_1);}.cls-7{fill:url(#Nova_amostra_de_gradiente_1-2);}.cls-8{fill:url(#Nova_amostra_de_gradiente_1-3);}.cls-9{fill:url(#Nova_amostra_de_gradiente_1-4);}.cls-10{fill:url(#Nova_amostra_de_gradiente_1-5);}.cls-11{fill:#d2d8df;}.cls-12{fill:#ebecef;}.cls-13{fill:#d1d9e0;}</style><clipPath id="clip-path"><rect class="cls-1" x="128.57" y="128.02" width="162.43" height="162.83"/></clipPath><linearGradient id="Nova_amostra_de_gradiente_1" x1="207.4" y1="251.4" x2="212.79" y2="251.4" gradientUnits="userSpaceOnUse"><stop offset="0" stop-color="#ff8960"/><stop offset="1" stop-color="#ff62a5"/></linearGradient><linearGradient id="Nova_amostra_de_gradiente_1-2" x1="172.36" y1="200.43" x2="212.79" y2="200.43" xlink:href="#Nova_amostra_de_gradiente_1"/><linearGradient id="Nova_amostra_de_gradiente_1-3" x1="131.33" y1="174.63" x2="154.18" y2="174.63" xlink:href="#Nova_amostra_de_gradiente_1"/><linearGradient id="Nova_amostra_de_gradiente_1-4" x1="135.8" y1="151.74" x2="157.78" y2="151.74" xlink:href="#Nova_amostra_de_gradiente_1"/><linearGradient id="Nova_amostra_de_gradiente_1-5" x1="158.88" y1="139.62" x2="169.61" y2="139.62" xlink:href="#Nova_amostra_de_gradiente_1"/></defs><title>Prancheta 8</title><path class="cls-2" d="M258.58,190.8a48.49,48.49,0,1,0-74.65,40.83,15.45,15.45,0,0,1,7.3,12.93v10.89a8.08,8.08,0,0,0,8.08,8.08h21.55a8.08,8.08,0,0,0,8.08-8.08V244.78a15.86,15.86,0,0,1,7.46-13.26,48.45,48.45,0,0,0,22.17-40.73Zm0,0"/><path class="cls-3" d="M196.63,279.69a8.08,8.08,0,0,0,8.08,8.08h10.78a8.08,8.08,0,0,0,8.08-8.08V263.53H196.63Zm0,0"/><g class="cls-4"><path class="cls-5" d="M215.48,285.07H204.71a5.39,5.39,0,0,1-5.39-5.39V277h21.55v2.69a5.39,5.39,0,0,1-5.39,5.39Z"/><rect class="cls-5" x="199.32" y="266.22" width="21.55" height="5.39"/></g><path class="cls-1" d="M244.4,153.8a21.55,21.55,0,1,0,21.55,21.55A21.55,21.55,0,0,0,244.4,153.8Zm0,37.71a16.16,16.16,0,1,1,16.16-16.16,16.16,16.16,0,0,1-16.16,16.16Zm0,0"/><rect class="cls-6" x="207.4" y="247.36" width="5.39" height="8.08"/><path class="cls-7" d="M198.31,220.91a32.32,32.32,0,0,1-5.46-57.46L190,158.89a37.71,37.71,0,0,0,6.38,67,17.2,17.2,0,0,1,11,16.05h5.39a22.54,22.54,0,0,0-14.48-21.07Zm0,0"/><path class="cls-8" d="M131.33,174.72l21.55-5.39,1.31,5.22-21.55,5.39Zm0,0"/><path class="cls-9" d="M135.8,147.2l3.13-4.38,18.85,13.47-3.13,4.38Zm0,0"/><path class="cls-10" d="M158.88,129.51l5.22-1.33,5.51,21.55-5.22,1.33Zm0,0"/><path class="cls-11" d="M39,195.54A1.46,1.46,0,0,1,40.46,197v3a1.46,1.46,0,0,1-2.92,0v-3A1.46,1.46,0,0,1,39,195.54Z"/><path class="cls-11" d="M32,199A1.46,1.46,0,0,1,34,199l2,2A1.46,1.46,0,0,1,34,203l-2-2A1.46,1.46,0,0,1,32,199Z"/><path class="cls-11" d="M28.54,206A1.46,1.46,0,0,1,30,204.54h3a1.46,1.46,0,0,1,0,2.92H30A1.46,1.46,0,0,1,28.54,206Z"/><path class="cls-11" d="M36,209A1.46,1.46,0,0,1,36,211l-2,2A1.46,1.46,0,0,1,32,211l2-2A1.46,1.46,0,0,1,36,209Z"/><path class="cls-11" d="M39,210.54A1.46,1.46,0,0,1,40.46,212v3a1.46,1.46,0,1,1-2.92,0v-3A1.46,1.46,0,0,1,39,210.54Z"/><path class="cls-11" d="M42,209A1.46,1.46,0,0,1,44,209l2,2A1.46,1.46,0,0,1,44,213l-2-2A1.46,1.46,0,0,1,42,209Z"/><path class="cls-11" d="M43.54,206A1.46,1.46,0,0,1,45,204.54h3a1.46,1.46,0,0,1,0,2.92H45A1.46,1.46,0,0,1,43.54,206Z"/><path class="cls-11" d="M46,199A1.46,1.46,0,0,1,46,201l-2,2A1.46,1.46,0,0,1,42,201l2-2A1.46,1.46,0,0,1,46,199Z"/><path class="cls-11" d="M192,72.54A1.46,1.46,0,0,1,193.46,74v2a1.46,1.46,0,0,1-2.92,0V74A1.46,1.46,0,0,1,192,72.54Z"/><path class="cls-11" d="M185.54,79A1.46,1.46,0,0,1,187,77.54h2a1.46,1.46,0,0,1,0,2.92h-2A1.46,1.46,0,0,1,185.54,79Z"/><path class="cls-11" d="M192,81.54A1.46,1.46,0,0,1,193.46,83v2a1.46,1.46,0,0,1-2.92,0V83A1.46,1.46,0,0,1,192,81.54Z"/><path class="cls-11" d="M194.54,80A1.46,1.46,0,0,1,196,78.54h2a1.46,1.46,0,0,1,0,2.92h-2A1.46,1.46,0,0,1,194.54,80Z"/><path class="cls-11" d="M83,151.54A1.46,1.46,0,0,1,84.46,153v3a1.46,1.46,0,1,1-2.92,0v-3A1.46,1.46,0,0,1,83,151.54Z"/><path class="cls-11" d="M72.54,162A1.46,1.46,0,0,1,74,160.54h3a1.46,1.46,0,0,1,0,2.92H74A1.46,1.46,0,0,1,72.54,162Z"/><path class="cls-11" d="M82,165.54A1.46,1.46,0,0,1,83.46,167v3a1.46,1.46,0,1,1-2.92,0v-3A1.46,1.46,0,0,1,82,165.54Z"/><path class="cls-11" d="M86.54,162A1.46,1.46,0,0,1,88,160.54h3a1.46,1.46,0,1,1,0,2.92H88A1.46,1.46,0,0,1,86.54,162Z"/><path class="cls-11" d="M243,116.54a1.46,1.46,0,0,1,1.46,1.46v3a1.46,1.46,0,0,1-2.92,0v-3A1.46,1.46,0,0,1,243,116.54Z"/><path class="cls-11" d="M233.54,127a1.46,1.46,0,0,1,1.46-1.46h3a1.46,1.46,0,0,1,0,2.92h-3A1.46,1.46,0,0,1,233.54,127Z"/><path class="cls-11" d="M243,130.54a1.46,1.46,0,0,1,1.46,1.46v3a1.46,1.46,0,1,1-2.92,0v-3A1.46,1.46,0,0,1,243,130.54Z"/><path class="cls-11" d="M247.54,127a1.46,1.46,0,0,1,1.46-1.46h3a1.46,1.46,0,0,1,0,2.92h-3A1.46,1.46,0,0,1,247.54,127Z"/><path class="cls-11" d="M321.54,128a1.46,1.46,0,0,1,1.46-1.46,5.46,5.46,0,1,1-5.46,5.46,1.46,1.46,0,0,1,2.92,0,2.54,2.54,0,1,0,2.54-2.54A1.46,1.46,0,0,1,321.54,128Z"/><path class="cls-11" d="M74.81,231.31A1.46,1.46,0,0,1,73.57,233a5.07,5.07,0,0,0-4.27,5.74m5.51-7.4a1.46,1.46,0,0,0-1.65-1.24Zm-1.65-1.24a8,8,0,0,0-6.75,9Zm7.36,5.54a1.46,1.46,0,0,1,1.65,1.24,8,8,0,1,1-15.76,2.27h0m14.11-3.51a1.46,1.46,0,0,0-1.24,1.65Zm-1.24,1.65A5.06,5.06,0,0,1,75,243Zm-10,1.44A5,5,0,0,0,75,243h0"/><path class="cls-11" d="M286.81,156.3a1.46,1.46,0,0,1-1.24,1.65,5.07,5.07,0,0,0-4.27,5.74m5.51-7.4a1.46,1.46,0,0,0-1.65-1.24Zm-1.65-1.24a8,8,0,0,0-6.75,9Zm7.36,5.54a1.46,1.46,0,0,1,1.65,1.24,8,8,0,1,1-15.76,2.27h0m14.11-3.51a1.46,1.46,0,0,0-1.24,1.65Zm-1.24,1.65A5.06,5.06,0,0,1,287,168Zm-10,1.44A5,5,0,0,0,287,168h0"/><path class="cls-12" d="M345.79,136.51c2.42-.77,6.14-3.77,7-7,.78,2.86,4,6.23,7,6.49-3.32,1.19-6.5,4.73-7,7.51-.34-2.83-4.73-6.59-7-7"/><path class="cls-12" d="M273.79,136.51c2.42-.77,6.14-3.77,7-7,.78,2.86,4,6.23,7,6.49-3.32,1.19-6.5,4.73-7,7.51-.34-2.83-4.73-6.59-7-7"/><path class="cls-12" d="M54,256.5a6,6,0,0,0,3.5-3.5,4.81,4.81,0,0,0,3.5,3.24A5.86,5.86,0,0,0,57.5,260c-.17-1.42-2.37-3.29-3.5-3.5"/><path class="cls-13" d="M77,124a3,3,0,1,1-3-3,3,3,0,0,1,3,3"/><path class="cls-12" d="M301.79,90.51a4,4,0,1,1-4-4,4,4,0,0,1,4,4"/><path class="cls-11" d="M131,101.46a1.54,1.54,0,1,0,1.54,1.54A1.54,1.54,0,0,0,131,101.46ZM126.54,103a4.46,4.46,0,1,1,4.46,4.46A4.46,4.46,0,0,1,126.54,103Z"/><path class="cls-11" d="M129.37,229.1a2.54,2.54,0,0,0-3.27-1.47h0a2.54,2.54,0,0,0-1.47,3.27h0a2.54,2.54,0,1,0,4.74-1.8Zm-4.31-4.2a5.46,5.46,0,1,1-3.16,7m3.16-7a5.46,5.46,0,0,0-3.16,7Z"/><path class="cls-11" d="M277,232.54a1.46,1.46,0,0,1,1.46,1.46v3a1.46,1.46,0,0,1-2.92,0v-3A1.46,1.46,0,0,1,277,232.54Z"/><path class="cls-11" d="M270,236a1.46,1.46,0,0,1,2.07,0l2,2A1.46,1.46,0,0,1,272,240l-2-2A1.46,1.46,0,0,1,270,236Z"/><path class="cls-11" d="M266.54,243a1.46,1.46,0,0,1,1.46-1.46h3a1.46,1.46,0,0,1,0,2.92h-3A1.46,1.46,0,0,1,266.54,243Z"/><path class="cls-11" d="M274,246a1.46,1.46,0,0,1,0,2.07l-2,2A1.46,1.46,0,0,1,270,248l2-2A1.46,1.46,0,0,1,274,246Z"/><path class="cls-11" d="M277,247.54a1.46,1.46,0,0,1,1.46,1.46v3a1.46,1.46,0,1,1-2.92,0v-3A1.46,1.46,0,0,1,277,247.54Z"/><path class="cls-11" d="M280,246a1.46,1.46,0,0,1,2.07,0l2,2A1.46,1.46,0,1,1,282,250l-2-2A1.46,1.46,0,0,1,280,246Z"/><path class="cls-11" d="M281.54,243a1.46,1.46,0,0,1,1.46-1.46h3a1.46,1.46,0,0,1,0,2.92h-3A1.46,1.46,0,0,1,281.54,243Z"/><path class="cls-11" d="M284,236a1.46,1.46,0,0,1,0,2.07l-2,2A1.46,1.46,0,0,1,280,238l2-2A1.46,1.46,0,0,1,284,236Z"/><path class="cls-11" d="M321,188.54a1.46,1.46,0,0,1,1.46,1.46v3a1.46,1.46,0,1,1-2.92,0v-3A1.46,1.46,0,0,1,321,188.54Z"/><path class="cls-11" d="M310.54,199a1.46,1.46,0,0,1,1.46-1.46h3a1.46,1.46,0,0,1,0,2.92h-3A1.46,1.46,0,0,1,310.54,199Z"/><path class="cls-11" d="M320,202.54a1.46,1.46,0,0,1,1.46,1.46v3a1.46,1.46,0,1,1-2.92,0v-3A1.46,1.46,0,0,1,320,202.54Z"/></svg>