<svg width="225" height="188" viewBox="0 0 225 188" fill="none" xmlns="http://www.w3.org/2000/svg">
<path d="M126.04 185.338C174.945 184.471 213.895 144.388 213.03 95.6404C212.166 46.8929 171.644 8.21961 122.914 9.08401C74.0085 9.9515 35.0589 50.0345 35.9236 98.782C36.7883 147.529 77.1349 186.206 126.04 185.338Z" fill="#F1F3F9" stroke="#8DB8EC" stroke-width="2" stroke-miterlimit="10"/>
<path d="M206.242 37.9749C210.197 37.9048 213.346 34.6635 213.277 30.7353C213.207 26.8071 209.944 23.6795 205.989 23.7497C202.034 23.8198 198.885 27.0611 198.954 30.9893C199.024 34.9175 202.287 38.0451 206.242 37.9749Z" fill="#F1F3F9"/>
<path d="M216.229 10.0324C218.93 9.98444 221.081 7.77087 221.033 5.0882C220.986 2.40553 218.757 0.269638 216.057 0.317548C213.356 0.365458 211.205 2.57903 211.252 5.2617C211.3 7.94437 213.528 10.0803 216.229 10.0324Z" fill="#F1F3F9"/>
<path d="M39.6117 40.757C42.3126 40.7091 44.4636 38.4955 44.416 35.8128C44.3684 33.1301 42.1403 30.9942 39.4393 31.0422C36.7384 31.0901 34.5874 33.3036 34.635 35.9863C34.6826 38.669 36.9107 40.8049 39.6117 40.757Z" fill="#F1F3F9"/>
<path d="M11.4058 134.965C16.4219 134.876 20.4166 130.765 20.3282 125.783C20.2398 120.801 16.1019 116.834 11.0858 116.923C6.06974 117.012 2.07506 121.123 2.16343 126.105C2.25181 131.087 6.38977 135.054 11.4058 134.965Z" fill="#F1F3F9"/>
<path d="M189.193 51.986L192.572 163.682C192.64 167.498 189.548 170.503 185.705 170.571L76.0181 172.517C72.1755 172.585 68.9762 169.518 68.9116 165.875L66.3637 22.2347C66.296 18.4181 69.3876 15.4132 73.2301 15.3451L152.701 13.9354L189.193 51.986Z" fill="white" stroke="#8DB8EC" stroke-width="2" stroke-miterlimit="10"/>
<path d="M122.081 149.314L118.063 149.386C117.19 149.401 116.476 148.546 116.458 147.505C116.439 146.464 117.122 145.585 117.996 145.569L122.013 145.498C122.886 145.482 123.6 146.337 123.619 147.378C123.64 148.593 122.954 149.299 122.081 149.314Z" fill="#8DB8EC"/>
<path d="M109.855 149.531L86.4502 149.946C85.5769 149.962 84.8629 149.107 84.8444 148.066C84.8259 147.025 85.5092 146.145 86.3825 146.13L109.787 145.715C110.66 145.699 111.374 146.554 111.393 147.595C111.414 148.809 110.728 149.516 109.855 149.531Z" fill="#8DB8EC"/>
<path d="M137.747 37.6275L85.1739 38.56C83.9512 38.5817 82.8848 37.5594 82.8632 36.3451C82.8417 35.1307 83.8712 34.0713 85.0938 34.0496L137.667 33.117C138.89 33.0953 139.956 34.1176 139.978 35.332C139.999 36.5463 138.97 37.6058 137.747 37.6275Z" fill="#8DB8EC"/>
<path d="M105.656 50.6918L85.395 51.0512C84.1724 51.0729 83.106 50.0506 83.0844 48.8363C83.0629 47.6219 84.0924 46.5625 85.315 46.5408L105.401 46.1845C106.624 46.1628 107.69 47.1851 107.712 48.3994C107.733 49.6138 106.704 50.6732 105.656 50.6918Z" fill="#8DB8EC"/>
<path d="M153.591 13.9194L154.139 44.7986C154.216 49.1356 158.12 52.537 162.487 52.4596L190.083 51.9701" fill="#8DB8EC"/>
<path d="M199.724 172.925C197.978 172.956 196.219 172.293 194.794 170.757L165.111 142.303L164.076 143.016C154.767 150.122 143.828 153.961 132.65 154.159C119.201 154.397 105.657 149.258 95.5347 140.067C84.8796 130.365 78.8789 117.109 78.6204 102.537C78.1065 73.5658 101.442 49.5513 130.61 49.0339C150.522 48.6807 168.173 58.7796 177.918 76.3071C187.486 93.6643 186.626 114.156 175.566 130.838L174.886 131.892L204.746 160.515C207.767 163.412 207.121 166.374 206.625 167.944C205.277 170.745 202.519 172.876 199.724 172.925ZM130.866 63.4326C109.557 63.8106 92.7449 81.2886 93.1173 102.28C93.5419 126.22 113.534 140.268 132.747 139.927C144.449 139.72 155.011 134.327 162.355 124.825C171.409 113.212 172.707 97.7442 166.008 84.5009C159.134 71.2608 145.712 63.1693 130.866 63.4326Z" fill="#F1F3F9" stroke="#8DB8EC" stroke-width="2" stroke-miterlimit="10"/>
<path d="M115.061 108.138C117.331 108.097 119.219 106.155 119.179 103.9C119.139 101.645 117.184 99.7704 114.913 99.8107C112.642 99.8509 110.755 101.793 110.795 104.049C110.835 106.304 112.79 108.178 115.061 108.138Z" fill="white"/>
<path d="M147.198 107.568C149.469 107.528 151.356 105.585 151.316 103.33C151.276 101.075 149.321 99.2008 147.051 99.2411C144.78 99.2813 142.893 101.224 142.933 103.479C142.976 105.908 144.928 107.608 147.198 107.568Z" fill="white"/>
<path d="M114.579 90.203L105.445 95.3118L106.731 97.5793L115.864 92.4706L114.579 90.203Z" fill="white"/>
<path d="M146.308 89.574L145.104 91.886L154.414 96.6665L155.618 94.3546L146.308 89.574Z" fill="white"/>
<path d="M131.302 117.568C134.002 117.52 136.163 115.85 136.127 113.838C136.092 111.826 133.873 110.234 131.172 110.281C128.471 110.329 126.311 111.999 126.346 114.011C126.382 116.023 128.601 117.615 131.302 117.568Z" fill="white"/>
</svg>
