<svg width="16" height="16" viewBox="0 0 16 16" fill="none" xmlns="http://www.w3.org/2000/svg">
<path d="M11.1097 2.66667C12.337 2.66667 13.3319 3.6616 13.3319 4.88889C13.3319 6.11618 12.337 7.11111 11.1097 7.11111C9.8824 7.11111 8.88747 6.11618 8.88747 4.88889C8.88747 3.6616 9.8824 2.66667 11.1097 2.66667ZM9.99858 4.88889C9.99858 5.50253 10.496 6 11.1097 6C11.7233 6 12.2208 5.50253 12.2208 4.88889C12.2208 4.27524 11.7233 3.77778 11.1097 3.77778C10.496 3.77778 9.99858 4.27524 9.99858 4.88889ZM0 2.11111C0 0.945178 0.945178 0 2.11111 0H13.8889C15.0548 0 16 0.945178 16 2.11111V13.8889C16 14.4168 15.8063 14.8994 15.486 15.2696C15.4621 15.3125 15.4321 15.3529 15.396 15.3897C15.3577 15.4286 15.3151 15.4607 15.2696 15.486C14.8995 15.8062 14.4168 16 13.8889 16H2.11111C1.58221 16 1.09875 15.8055 0.728324 15.4841C0.684084 15.4592 0.642556 15.4277 0.605147 15.3897C0.570036 15.354 0.540729 15.3148 0.517213 15.2732C0.19504 14.9026 0 14.4185 0 13.8889V2.11111ZM14.8889 13.8889V2.11111C14.8889 1.55883 14.4412 1.11111 13.8889 1.11111H2.11111C1.55883 1.11111 1.11111 1.55883 1.11111 2.11111V13.8889C1.11111 13.9584 1.11821 14.0263 1.13173 14.0919L6.83098 8.48227C7.4796 7.84382 8.52044 7.84378 9.16916 8.48218L14.8684 14.091C14.8819 14.0257 14.8889 13.9581 14.8889 13.8889ZM2.11111 14.8889H13.8889C13.9532 14.8889 14.0162 14.8828 14.0772 14.8712L8.38978 9.27413C8.17356 9.06133 7.82662 9.06133 7.6104 9.27413L1.92373 14.8714C1.98444 14.8829 2.04707 14.8889 2.11111 14.8889Z" fill="#636363"/>
</svg>
