<svg width="22" height="22" viewBox="0 0 22 22" fill="none" xmlns="http://www.w3.org/2000/svg">
<path d="M11 15C13.2091 15 15 13.2091 15 11C15 8.79086 13.2091 7 11 7C8.79086 7 7 8.79086 7 11C7 13.2091 8.79086 15 11 15Z" stroke="white" stroke-width="1.2" stroke-miterlimit="10" stroke-linecap="round" stroke-linejoin="round"/>
<path d="M20.4 9.42133L18.764 8.998C18.5777 8.28593 18.2935 7.60319 17.9193 6.96933L18.788 5.494C18.878 5.34123 18.9146 5.1629 18.8923 4.98703C18.8699 4.81115 18.7897 4.6477 18.6643 4.52233L17.5273 3.38533C17.402 3.25997 17.2385 3.17979 17.0626 3.15741C16.8868 3.13502 16.7084 3.1717 16.5557 3.26167L15.0813 4.12833C14.4461 3.75313 13.7618 3.46817 13.048 3.28167L12.614 1.6C12.5697 1.42826 12.4695 1.27613 12.3293 1.16752C12.189 1.05891 12.0167 0.999984 11.8393 1H10.231C10.0537 1.00006 9.88142 1.05902 9.74126 1.16763C9.6011 1.27623 9.50099 1.42832 9.45667 1.6L9.02333 3.276C8.30475 3.4617 7.61572 3.74714 6.97633 4.124L5.46933 3.23667C5.31656 3.1467 5.13824 3.11002 4.96236 3.13241C4.78649 3.15479 4.62303 3.23497 4.49767 3.36033L3.36033 4.49767C3.23497 4.62303 3.15479 4.78649 3.13241 4.96236C3.11002 5.13824 3.1467 5.31656 3.23667 5.46933L4.124 6.976C3.7541 7.60411 3.47235 8.28011 3.28667 8.985L1.6 9.42133C1.42826 9.46568 1.27613 9.56583 1.16752 9.70606C1.05891 9.84629 0.999984 10.0186 1 10.196V11.8043C1.00006 11.9816 1.05902 12.1539 1.16763 12.2941C1.27623 12.4342 1.42832 12.5343 1.6 12.5787L3.27333 13.012C3.45984 13.739 3.74837 14.4359 4.13033 15.082L3.26367 16.5563C3.1737 16.7091 3.13702 16.8874 3.15941 17.0633C3.18179 17.2392 3.26196 17.4026 3.38733 17.528L4.52467 18.6653C4.65003 18.7907 4.81349 18.8709 4.98936 18.8933C5.16524 18.9156 5.34356 18.879 5.49633 18.789L6.97167 17.92C7.61681 18.301 8.31259 18.5888 9.03833 18.775L9.45667 20.4C9.50099 20.5717 9.6011 20.7238 9.74126 20.8324C9.88142 20.941 10.0537 20.9999 10.231 21H11.8393C12.0167 21 12.189 20.9411 12.3293 20.8325C12.4695 20.7239 12.5697 20.5717 12.614 20.4L13.0363 18.7667C13.7567 18.5793 14.4473 18.2917 15.0877 17.9123L16.5307 18.762C16.6834 18.852 16.8618 18.8886 17.0376 18.8663C17.2135 18.8439 17.377 18.7637 17.5023 18.6383L18.6397 17.501C18.765 17.3756 18.8452 17.2122 18.8676 17.0363C18.89 16.8604 18.8533 16.6821 18.7633 16.5293L17.9137 15.0863C18.2994 14.4355 18.5902 13.733 18.7773 13L20.4003 12.58C20.5722 12.5356 20.7244 12.4352 20.8329 12.2948C20.9415 12.1544 21.0003 11.9818 21 11.8043V10.196C21 10.0186 20.9411 9.84629 20.8325 9.70606C20.7239 9.56583 20.5717 9.46568 20.4 9.42133V9.42133Z" stroke="white" stroke-width="1.2" stroke-miterlimit="10" stroke-linecap="round" stroke-linejoin="round"/>
</svg>
