<svg width="14" height="14" viewBox="0 0 14 14" fill="none" xmlns="http://www.w3.org/2000/svg">
<path d="M6.83534 1.22795C8.47347 -0.409264 11.1312 -0.409264 12.7705 1.22764C14.3678 2.82256 14.4087 5.38305 12.8934 7.02751L12.7618 7.16534L6.60516 13.3117L6.57963 13.3329C5.55731 14.2528 3.98039 14.2215 2.99578 13.2383C2.07298 12.3168 1.98755 10.8758 2.73948 9.8582C2.75581 9.82655 2.77557 9.79595 2.79881 9.76724L2.83628 9.72554L2.89708 9.66427L2.99578 9.56095L2.99782 9.56297L8.19992 4.35545C8.38595 4.1692 8.6774 4.1519 8.88302 4.30382L8.942 4.35447C9.12851 4.54024 9.14579 4.83129 8.9937 5.03661L8.94298 5.09544L3.6297 10.4139C3.12764 11.0255 3.16253 11.9297 3.73439 12.5008C4.31441 13.08 5.23765 13.1075 5.85036 12.5835L12.0298 6.41463C13.2579 5.18674 13.2579 3.19628 12.0285 1.96861C10.8374 0.77929 8.92947 0.742125 7.69368 1.8571L7.57622 1.96861L7.56741 1.9786L0.895726 8.64062C0.690818 8.84517 0.358595 8.84517 0.15368 8.64062C-0.0325981 8.45459 -0.0495355 8.16349 0.102881 7.95838L0.15368 7.89963L6.83415 1.22764L6.83534 1.22795Z" fill="#636363"/>
</svg>
