<svg width="16" height="16" viewBox="0 0 16 16" fill="none" xmlns="http://www.w3.org/2000/svg">
<path d="M8 0C12.4183 0 16 3.58172 16 8C16 12.4183 12.4183 16 8 16C3.58172 16 0 12.4183 0 8C0 3.58172 3.58172 0 8 0ZM8 1.19981C4.24436 1.19981 1.19981 4.24436 1.19981 8C1.19981 11.7556 4.24436 14.8002 8 14.8002C11.7556 14.8002 14.8002 11.7556 14.8002 8C14.8002 4.24436 11.7556 1.19981 8 1.19981ZM7.99709 6.79941C8.3008 6.79921 8.55194 7.02474 8.59186 7.31753L8.59739 7.39893L8.60027 11.7995C8.60048 12.1308 8.33207 12.3996 8.00075 12.3998C7.69704 12.4 7.4459 12.1745 7.40598 11.8817L7.40045 11.8003L7.39757 7.39971C7.39735 7.06839 7.66577 6.79963 7.99709 6.79941ZM8.00036 4.00163C8.44153 4.00163 8.79916 4.35927 8.79916 4.80044C8.79916 5.24161 8.44153 5.59925 8.00036 5.59925C7.55919 5.59925 7.20155 5.24161 7.20155 4.80044C7.20155 4.35927 7.55919 4.00163 8.00036 4.00163Z" fill="#636363"/>
</svg>
