<svg width="260" height="194" viewBox="0 0 260 194" fill="none" xmlns="http://www.w3.org/2000/svg">
<path d="M215.744 0H49.7871C42.1491 0 35.9573 6.20405 35.9573 13.8571V180.143C35.9573 187.796 42.1491 194 49.7871 194H215.744C223.382 194 229.574 187.796 229.574 180.143V13.8571C229.574 6.20405 223.382 0 215.744 0Z" fill="url(#paint0_linear_101_293)"/>
<path d="M66.3829 74.8286H253.085C254.919 74.8286 256.678 75.5586 257.975 76.8579C259.271 78.1573 260 79.9196 260 81.7572V116.4C260 118.238 259.271 120 257.975 121.299C256.678 122.599 254.919 123.329 253.085 123.329H66.3829C64.549 123.329 62.7901 122.599 61.4933 121.299C60.1965 120 59.468 118.238 59.468 116.4V81.7572C59.468 79.9196 60.1965 78.1573 61.4933 76.8579C62.7901 75.5586 64.549 74.8286 66.3829 74.8286V74.8286Z" fill="white"/>
<path d="M168.724 85.9143H132.766C130.475 85.9143 128.617 87.7755 128.617 90.0714C128.617 92.3674 130.475 94.2286 132.766 94.2286H168.724C171.015 94.2286 172.873 92.3674 172.873 90.0714C172.873 87.7755 171.015 85.9143 168.724 85.9143Z" fill="#B4DAFF"/>
<path d="M193.617 103.929H132.766C130.475 103.929 128.617 105.79 128.617 108.086C128.617 110.382 130.475 112.243 132.766 112.243H193.617C195.909 112.243 197.766 110.382 197.766 108.086C197.766 105.79 195.909 103.929 193.617 103.929Z" fill="#DEE9FC"/>
<path d="M102.138 112.329C109.394 112.329 115.277 106.435 115.277 99.1643C115.277 91.8939 109.394 86 102.138 86C94.8822 86 89 91.8939 89 99.1643C89 106.435 94.8822 112.329 102.138 112.329Z" fill="#1485FD"/>
<path d="M6.91489 134.414H193.617C195.451 134.414 197.21 135.144 198.507 136.444C199.803 137.743 200.532 139.505 200.532 141.343V175.986C200.532 177.823 199.803 179.586 198.507 180.885C197.21 182.184 195.451 182.914 193.617 182.914H6.91489C5.08095 182.914 3.32212 182.184 2.02533 180.885C0.728531 179.586 0 177.823 0 175.986L0 141.343C0 139.505 0.728531 137.743 2.02533 136.444C3.32212 135.144 5.08095 134.414 6.91489 134.414V134.414Z" fill="white"/>
<path d="M109.255 145.5H73.2979C71.0065 145.5 69.1489 147.361 69.1489 149.657C69.1489 151.953 71.0065 153.814 73.2979 153.814H109.255C111.547 153.814 113.404 151.953 113.404 149.657C113.404 147.361 111.547 145.5 109.255 145.5Z" fill="#B4DAFF"/>
<path d="M134.149 163.514H73.2979C71.0065 163.514 69.1489 165.375 69.1489 167.671C69.1489 169.967 71.0065 171.829 73.2979 171.829H134.149C136.44 171.829 138.298 169.967 138.298 167.671C138.298 165.375 136.44 163.514 134.149 163.514Z" fill="#DEE9FC"/>
<path d="M24.202 171.829C31.4581 171.829 37.3403 165.935 37.3403 158.664C37.3403 151.394 31.4581 145.5 24.202 145.5C16.9459 145.5 11.0637 151.394 11.0637 158.664C11.0637 165.935 16.9459 171.829 24.202 171.829Z" fill="#1485FD"/>
<path d="M18.6427 157.035C18.6427 157.477 18.5345 157.832 18.3179 158.098C18.1112 158.353 17.8553 158.516 17.5502 158.585C17.8553 158.663 18.1112 158.836 18.3179 159.101C18.5345 159.367 18.6427 159.717 18.6427 160.15V163.058C18.6427 163.442 18.7313 163.732 18.9085 163.929C19.0857 164.136 19.3268 164.239 19.6319 164.239H20.3849V165.199H19.5138C18.8445 165.199 18.3327 165.027 17.9784 164.682C17.624 164.338 17.4469 163.841 17.4469 163.191V160.356C17.4469 159.923 17.3681 159.603 17.2106 159.397C17.063 159.19 16.7973 159.047 16.4134 158.969L16 158.865V158.319L16.4134 158.216C16.7973 158.137 17.063 157.994 17.2106 157.787C17.3681 157.581 17.4469 157.261 17.4469 156.828V154.008C17.4469 153.368 17.6339 152.876 18.0079 152.532C18.3819 152.177 18.8839 152 19.5138 152H20.3849V152.945H19.6319C19.3268 152.945 19.0857 153.048 18.9085 153.255C18.7313 153.462 18.6427 153.757 18.6427 154.141V157.035Z" fill="white"/>
<path d="M29.3573 157.035C29.3573 157.477 29.4655 157.832 29.6821 158.098C29.8888 158.353 30.1447 158.516 30.4498 158.585C30.1447 158.663 29.8888 158.836 29.6821 159.101C29.4655 159.367 29.3573 159.717 29.3573 160.15V163.058C29.3573 163.442 29.2687 163.732 29.0915 163.929C28.9143 164.136 28.6732 164.239 28.3681 164.239H27.6151V165.199H28.4862C29.1555 165.199 29.6673 165.027 30.0216 164.682C30.376 164.338 30.5531 163.841 30.5531 163.191V160.356C30.5531 159.923 30.6319 159.603 30.7894 159.397C30.937 159.19 31.2027 159.047 31.5866 158.969L32 158.865V158.319L31.5866 158.216C31.2027 158.137 30.937 157.994 30.7894 157.787C30.6319 157.581 30.5531 157.261 30.5531 156.828V154.008C30.5531 153.368 30.3661 152.876 29.9921 152.532C29.6181 152.177 29.1161 152 28.4862 152H27.6151V152.945H28.3681C28.6732 152.945 28.9143 153.048 29.0915 153.255C29.2687 153.462 29.3573 153.757 29.3573 154.141V157.035Z" fill="white"/>
<path d="M25.5032 162.068V158.372L20.2236 162.068H25.5032Z" fill="white"/>
<path d="M22.3354 156.068V159.764L27.615 156.068H22.3354Z" fill="white"/>
<path d="M193.617 15.2428H6.91489C3.0959 15.2428 0 18.3449 0 22.1714V56.8143C0 60.6408 3.0959 63.7428 6.91489 63.7428H193.617C197.436 63.7428 200.532 60.6408 200.532 56.8143V22.1714C200.532 18.3449 197.436 15.2428 193.617 15.2428Z" fill="white"/>
<path d="M106.489 26.3286H70.532C68.2406 26.3286 66.3831 28.1898 66.3831 30.4857C66.3831 32.7816 68.2406 34.6428 70.532 34.6428H106.489C108.781 34.6428 110.638 32.7816 110.638 30.4857C110.638 28.1898 108.781 26.3286 106.489 26.3286Z" fill="#B4DAFF"/>
<path d="M131.383 44.3429H70.532C68.2406 44.3429 66.3831 46.2041 66.3831 48.5C66.3831 50.7959 68.2406 52.6572 70.532 52.6572H131.383C133.674 52.6572 135.532 50.7959 135.532 48.5C135.532 46.2041 133.674 44.3429 131.383 44.3429Z" fill="#DEE9FC"/>
<path d="M42.1808 52.6571C49.4369 52.6571 55.3191 46.7633 55.3191 39.4928C55.3191 32.2224 49.4369 26.3286 42.1808 26.3286C34.9247 26.3286 29.0425 32.2224 29.0425 39.4928C29.0425 46.7633 34.9247 52.6571 42.1808 52.6571Z" fill="#1485FD"/>
<path d="M36.6427 37.9662C36.6427 38.4091 36.5345 38.7634 36.3179 39.0292C36.1112 39.2851 35.8553 39.4475 35.5502 39.5164C35.8553 39.5951 36.1112 39.7674 36.3179 40.0331C36.5345 40.2989 36.6427 40.6483 36.6427 41.0814V43.9899C36.6427 44.3737 36.7313 44.6641 36.9085 44.8609C37.0857 45.0676 37.3268 45.171 37.6319 45.171H38.3849V46.1306H37.5138C36.8445 46.1306 36.3327 45.9584 35.9784 45.6139C35.624 45.2694 35.4469 44.7724 35.4469 44.1227V41.2881C35.4469 40.855 35.3681 40.5351 35.2106 40.3284C35.063 40.1217 34.7973 39.979 34.4134 39.9003L34 39.7969V39.2506L34.4134 39.1473C34.7973 39.0685 35.063 38.9258 35.2106 38.7191C35.3681 38.5124 35.4469 38.1926 35.4469 37.7595V34.9396C35.4469 34.2998 35.6339 33.8077 36.0079 33.4632C36.3819 33.1088 36.8839 32.9317 37.5138 32.9317H38.3849V33.8766H37.6319C37.3268 33.8766 37.0857 33.9799 36.9085 34.1866C36.7313 34.3933 36.6427 34.6886 36.6427 35.0724V37.9662Z" fill="white"/>
<path d="M47.3573 37.9662C47.3573 38.4091 47.4655 38.7634 47.6821 39.0292C47.8888 39.2851 48.1447 39.4475 48.4498 39.5164C48.1447 39.5951 47.8888 39.7674 47.6821 40.0331C47.4655 40.2989 47.3573 40.6483 47.3573 41.0814V43.9899C47.3573 44.3737 47.2687 44.6641 47.0915 44.8609C46.9143 45.0676 46.6732 45.171 46.3681 45.171H45.6151V46.1306H46.4862C47.1555 46.1306 47.6673 45.9584 48.0216 45.6139C48.376 45.2694 48.5531 44.7724 48.5531 44.1227V41.2881C48.5531 40.855 48.6319 40.5351 48.7894 40.3284C48.937 40.1217 49.2027 39.979 49.5866 39.9003L50 39.7969V39.2506L49.5866 39.1473C49.2027 39.0685 48.937 38.9258 48.7894 38.7191C48.6319 38.5124 48.5531 38.1926 48.5531 37.7595V34.9396C48.5531 34.2998 48.3661 33.8077 47.9921 33.4632C47.6181 33.1088 47.1161 32.9317 46.4862 32.9317H45.6151V33.8766H46.3681C46.6732 33.8766 46.9143 33.9799 47.0915 34.1866C47.2687 34.3933 47.3573 34.6886 47.3573 35.0724V37.9662Z" fill="white"/>
<path d="M43.5032 42.9996V39.3039L38.2236 42.9996H43.5032Z" fill="white"/>
<path d="M40.3354 37V40.6957L45.615 37H40.3354Z" fill="white"/>
<path d="M96.6427 97.0345C96.6427 97.4774 96.5345 97.8318 96.3179 98.0975C96.1112 98.3534 95.8553 98.5158 95.5502 98.5847C95.8553 98.6635 96.1112 98.8357 96.3179 99.1015C96.5345 99.3672 96.6427 99.7166 96.6427 100.15V103.058C96.6427 103.442 96.7313 103.732 96.9085 103.929C97.0857 104.136 97.3268 104.239 97.6319 104.239H98.3849V105.199H97.5138C96.8445 105.199 96.3327 105.027 95.9784 104.682C95.624 104.338 95.4469 103.841 95.4469 103.191V100.356C95.4469 99.9233 95.3681 99.6034 95.2106 99.3967C95.063 99.19 94.7973 99.0473 94.4134 98.9686L94 98.8652V98.319L94.4134 98.2156C94.7973 98.1369 95.063 97.9942 95.2106 97.7875C95.3681 97.5808 95.4469 97.2609 95.4469 96.8278V94.0079C95.4469 93.3681 95.6339 92.876 96.0079 92.5315C96.3819 92.1772 96.8839 92 97.5138 92H98.3849V92.9449H97.6319C97.3268 92.9449 97.0857 93.0482 96.9085 93.2549C96.7313 93.4616 96.6427 93.7569 96.6427 94.1408V97.0345Z" fill="white"/>
<path d="M107.357 97.0345C107.357 97.4774 107.466 97.8318 107.682 98.0975C107.889 98.3534 108.145 98.5158 108.45 98.5847C108.145 98.6635 107.889 98.8357 107.682 99.1015C107.466 99.3672 107.357 99.7166 107.357 100.15V103.058C107.357 103.442 107.269 103.732 107.092 103.929C106.914 104.136 106.673 104.239 106.368 104.239H105.615V105.199H106.486C107.155 105.199 107.667 105.027 108.022 104.682C108.376 104.338 108.553 103.841 108.553 103.191V100.356C108.553 99.9233 108.632 99.6034 108.789 99.3967C108.937 99.19 109.203 99.0473 109.587 98.9686L110 98.8652V98.319L109.587 98.2156C109.203 98.1369 108.937 97.9942 108.789 97.7875C108.632 97.5808 108.553 97.2609 108.553 96.8278V94.0079C108.553 93.3681 108.366 92.876 107.992 92.5315C107.618 92.1772 107.116 92 106.486 92H105.615V92.9449H106.368C106.673 92.9449 106.914 93.0482 107.092 93.2549C107.269 93.4616 107.357 93.7569 107.357 94.1408V97.0345Z" fill="white"/>
<path d="M103.503 102.068V98.3722L98.2236 102.068H103.503Z" fill="white"/>
<path d="M100.335 96.0683V99.764L105.615 96.0683H100.335Z" fill="white"/>
<defs>
<linearGradient id="paint0_linear_101_293" x1="132.766" y1="0" x2="132.766" y2="194" gradientUnits="userSpaceOnUse">
<stop stop-color="#E3ECFA"/>
<stop offset="1" stop-color="#DAE7FF"/>
</linearGradient>
</defs>
</svg>
