<svg xmlns="http://www.w3.org/2000/svg" width="845" height="845" viewBox="0 0 845 845"><g transform="translate(0.372)"><rect width="845" height="845" transform="translate(-0.372)" fill="#ebebeb"/><g transform="translate(289.167 289.167)"><path d="M0,238.413a28.133,28.133,0,0,0,28.1,28.1H238.413a28.133,28.133,0,0,0,28.1-28.1V28.1A28.133,28.133,0,0,0,238.413,0H28.1A28.133,28.133,0,0,0,0,28.1Zm238.413,14.758H28.1a14.8,14.8,0,0,1-14.758-14.758V203.288l50.536-50.536,43.184,43.184a6.639,6.639,0,0,0,9.421,0l77.982-77.982,58.7,58.7v61.754A14.8,14.8,0,0,1,238.413,253.171ZM28.1,13.342H238.413A14.8,14.8,0,0,1,253.171,28.1V157.762L199.149,103.8a6.639,6.639,0,0,0-9.421,0l-77.982,77.982L68.561,138.593a6.639,6.639,0,0,0-9.421,0l-45.8,45.8V28.1A14.8,14.8,0,0,1,28.1,13.342Z" fill="#c4c4c4"/><path d="M123.327,139.353A33.927,33.927,0,1,0,89.4,105.427,33.967,33.967,0,0,0,123.327,139.353Zm0-54.511a20.585,20.585,0,1,1-20.585,20.585A20.6,20.6,0,0,1,123.327,84.842Z" transform="translate(-40.715 -32.563)" fill="#c4c4c4"/></g></g></svg>