<svg xmlns="http://www.w3.org/2000/svg" width="845" height="845" viewBox="0 0 845 845"><rect width="845" height="845" fill="#ebebeb"/><g transform="translate(289.167 314.217)"><g transform="translate(0 0)"><path d="M0,112.424V230.16a32.584,32.584,0,0,0,32.565,32.565H234.274a32.584,32.584,0,0,0,32.565-32.565V112.424a31,31,0,0,0-30.986-30.986H192.505l-1.035-4.52A39.585,39.585,0,0,0,152.7,46.15h-38.61A39.675,39.675,0,0,0,75.314,76.918l-1.035,4.52H30.986A31.038,31.038,0,0,0,0,112.424ZM79.616,94.78a6.637,6.637,0,0,0,6.48-5.173l2.233-9.693a26.34,26.34,0,0,1,25.758-20.421H152.7a26.34,26.34,0,0,1,25.758,20.421l2.233,9.693a6.7,6.7,0,0,0,6.48,5.173H235.8a17.64,17.64,0,0,1,17.644,17.644V230.16a19.22,19.22,0,0,1-19.223,19.223H32.565A19.22,19.22,0,0,1,13.342,230.16V112.424A17.64,17.64,0,0,1,30.986,94.78h48.63Z" transform="translate(0 -46.15)" fill="#c4c4c4"/><circle cx="8.931" cy="8.931" r="8.931" transform="translate(36.214 68.18)" fill="#c4c4c4"/><path d="M198.136,287.223A56.036,56.036,0,1,0,142.1,231.186,56.127,56.127,0,0,0,198.136,287.223Zm0-98.731a42.694,42.694,0,1,1-42.694,42.694A42.764,42.764,0,0,1,198.136,188.492Z" transform="translate(-64.717 -104.9)" fill="#c4c4c4"/></g></g></svg>