<svg width="863" height="242" viewBox="0 0 863 242" fill="none" xmlns="http://www.w3.org/2000/svg">
<path d="M748.537 160.747C793.828 168.612 825.042 215.402 863 223.075V242H6.10352e-05V127.825C42.2571 127.825 47.8961 162.696 67.7818 153.097C87.6674 143.497 108.556 77.4964 131.756 80.9871C154.956 84.4778 167.688 -8.14635 216.574 0.580398C265.459 9.30715 301.438 108.98 340.381 66.2193C379.324 23.4582 387.601 46.0209 429.03 37.2942C470.458 28.5674 488.607 133.109 527.846 129.769C567.086 126.428 577.561 213.379 617.605 205.314C666.13 195.541 661.906 190.067 683.483 177.391C705.059 164.714 724.398 156.555 748.537 160.747Z" fill="url(#paint0_linear_2642_647)"/>
<defs>
<linearGradient id="paint0_linear_2642_647" x1="431.5" y1="-3.8329e-05" x2="431.5" y2="229.5" gradientUnits="userSpaceOnUse">
<stop stop-color="#F4F6FB"/>
<stop offset="1" stop-color="#F4F6FB" stop-opacity="0"/>
</linearGradient>
</defs>
</svg>
