<svg width="20" height="19" viewBox="0 0 20 19" fill="none" xmlns="http://www.w3.org/2000/svg">
<path d="M14.0917 14.6992L11.2386 17.4934C11.2386 17.4935 11.2386 17.4935 11.2385 17.4935C10.7895 17.9331 10.1784 18.1819 9.539 18.1819C8.89962 18.1819 8.28848 17.9331 7.83946 17.4935C7.83944 17.4935 7.83942 17.4935 7.8394 17.4934L5.03555 14.7473C5.25932 14.7066 5.47877 14.643 5.69026 14.5573C6.09053 14.3951 6.45468 14.1565 6.76142 13.8548C6.76156 13.8547 6.7617 13.8546 6.76184 13.8544L9.62672 11.0486C9.63431 11.0423 9.64564 11.0376 9.65905 11.0376C9.67247 11.0376 9.6838 11.0423 9.69138 11.0486L12.5458 13.8441C12.5459 13.8442 12.5461 13.8443 12.5462 13.8445C12.8529 14.1462 13.217 14.3848 13.6173 14.5471C13.7717 14.6097 13.9303 14.6605 14.0917 14.6992ZM4.42939 14.8013V14.3013L4.42881 14.8013H4.42939Z" stroke="#636363"/>
<path d="M7.83943 1.1885L7.83943 1.1885C8.06167 0.970876 8.32607 0.797705 8.61781 0.679373C8.90956 0.561035 9.22261 0.5 9.539 0.5C9.85539 0.5 10.1684 0.561035 10.4602 0.679373C10.7519 0.797705 11.0163 0.970876 11.2386 1.1885L14.0915 3.98232C13.9301 4.02103 13.7716 4.0718 13.6173 4.13437C13.2169 4.29669 12.8527 4.53537 12.546 4.83712C12.5459 4.83722 12.5458 4.83733 12.5457 4.83743L9.68545 7.63858C9.68543 7.6386 9.6854 7.63863 9.68538 7.63865C9.6801 7.64377 9.6708 7.64844 9.659 7.64844C9.64719 7.64844 9.6379 7.64377 9.63261 7.63865C9.63259 7.63863 9.63256 7.6386 9.63254 7.63858L6.7618 4.82716C6.76163 4.827 6.76147 4.82684 6.7613 4.82667C6.45464 4.525 6.09053 4.28638 5.6903 4.12408C5.47883 4.03833 5.25941 3.97475 5.03566 3.934L7.83943 1.1885ZM4.42939 3.87995H4.42874C4.42852 3.87995 4.4283 3.87995 4.42808 3.87995L4.42939 4.37995V3.87995Z" stroke="#636363"/>
<mask id="path-3-inside-1_389_560" fill="white">
<path d="M18.229 7.33393L16.0327 5.18328C15.9832 5.20325 15.9303 5.21373 15.8767 5.21414H14.8782C14.3585 5.2156 13.8603 5.41771 13.4918 5.77661L10.6303 8.57858C10.5029 8.70356 10.3515 8.80265 10.1848 8.87018C10.0182 8.93771 9.83957 8.97233 9.65922 8.97206C9.47888 8.97235 9.30027 8.93776 9.13361 8.8703C8.96695 8.80283 8.81554 8.70381 8.68806 8.57892L5.81589 5.76644C5.4474 5.40754 4.94923 5.20543 4.4295 5.20397H3.20149C3.15091 5.2031 3.10092 5.19322 3.05396 5.1748L0.848899 7.33393C0.579765 7.59746 0.366275 7.91033 0.220621 8.25466C0.0749664 8.59898 0 8.96803 0 9.34073C0 9.71343 0.0749664 10.0825 0.220621 10.4268C0.366275 10.7711 0.579765 11.084 0.848899 11.3475L3.05373 13.5065C3.10073 13.4881 3.15076 13.4782 3.20137 13.4774H4.42927C4.949 13.4759 5.44717 13.2738 5.81566 12.9149L8.68771 10.1033C8.94936 9.85873 9.29719 9.72225 9.65893 9.72225C10.0207 9.72225 10.3685 9.85873 10.6302 10.1033L13.4917 12.9051C13.8601 13.264 14.3583 13.4662 14.8781 13.4675H15.8766C15.9302 13.4679 15.9831 13.4784 16.0327 13.4983L18.229 11.3475C18.4981 11.084 18.7116 10.7711 18.8572 10.4268C19.0029 10.0825 19.0779 9.71343 19.0779 9.34073C19.0779 8.96803 19.0029 8.59898 18.8572 8.25466C18.7116 7.91033 18.4981 7.59746 18.229 7.33393Z"/>
</mask>
<path d="M16.0327 5.18328L16.7323 4.46879L16.265 4.01119L15.6585 4.25593L16.0327 5.18328ZM15.8767 5.21414V6.21417L15.8845 6.21411L15.8767 5.21414ZM14.8782 5.21414V4.21414L14.8754 4.21415L14.8782 5.21414ZM13.4918 5.77661L12.7941 5.06025L12.7922 5.06211L13.4918 5.77661ZM10.6303 8.57858L9.93064 7.86407L9.93003 7.86467L10.6303 8.57858ZM9.65922 8.97206L9.66071 7.97206L9.65764 7.97206L9.65922 8.97206ZM8.68806 8.57892L9.38787 7.86459L9.3877 7.86443L8.68806 8.57892ZM5.81589 5.76644L6.51553 5.05195L6.51361 5.05007L5.81589 5.76644ZM4.4295 5.20397L4.43231 4.20397H4.4295V5.20397ZM3.20149 5.20397L3.18428 6.20382L3.19288 6.20397H3.20149V5.20397ZM3.05396 5.1748L3.41896 4.2438L2.81662 4.00765L2.35434 4.46029L3.05396 5.1748ZM0.848899 7.33393L0.149274 6.61942L0.149262 6.61943L0.848899 7.33393ZM0 9.34073H-1H0ZM0.848899 11.3475L1.54854 10.633L1.54854 10.633L0.848899 11.3475ZM3.05373 13.5065L2.35409 14.221L2.81626 14.6736L3.41853 14.4376L3.05373 13.5065ZM3.20137 13.4774V12.4774H3.19281L3.18425 12.4775L3.20137 13.4774ZM4.42927 13.4774V14.4774L4.43208 14.4774L4.42927 13.4774ZM5.81566 12.9149L6.51338 13.6313L6.5152 13.6295L5.81566 12.9149ZM8.68771 10.1033L8.00479 9.37284L7.99639 9.3807L7.98817 9.38875L8.68771 10.1033ZM10.6302 10.1033L11.3298 9.3888L11.3215 9.38072L11.3131 9.37284L10.6302 10.1033ZM13.4917 12.9051L12.7921 13.6196L12.7939 13.6213L13.4917 12.9051ZM14.8781 13.4675L14.8754 14.4675H14.8781V13.4675ZM15.8766 13.4675L15.8836 12.4675H15.8766V13.4675ZM16.0327 13.4983L15.6594 14.426L16.2655 14.6699L16.7323 14.2128L16.0327 13.4983ZM18.229 11.3475L17.5293 10.633L17.5293 10.6331L18.229 11.3475ZM18.9286 6.61943L16.7323 4.46879L15.333 5.89777L17.5293 8.04842L18.9286 6.61943ZM15.6585 4.25593C15.7259 4.22875 15.7973 4.21473 15.869 4.21417L15.8845 6.21411C16.0632 6.21273 16.2405 6.17776 16.4069 6.11063L15.6585 4.25593ZM15.8767 4.21414H14.8782V6.21414H15.8767V4.21414ZM14.8754 4.21415C14.099 4.21633 13.3508 4.51807 12.7941 5.06025L14.1895 6.49298C14.3699 6.31736 14.6179 6.21488 14.881 6.21414L14.8754 4.21415ZM12.7922 5.06211L9.93064 7.86407L11.3299 9.29309L14.1914 6.49112L12.7922 5.06211ZM9.93003 7.86467C9.8966 7.89746 9.85575 7.92455 9.80928 7.94338L10.5604 9.79698C10.8472 9.68076 11.1091 9.50966 11.3305 9.29249L9.93003 7.86467ZM9.80928 7.94338C9.76278 7.96222 9.71222 7.97214 9.66071 7.97206L9.65773 9.97206C9.96691 9.97252 10.2736 9.91319 10.5604 9.79698L9.80928 7.94338ZM9.65764 7.97206C9.60605 7.97214 9.55542 7.96222 9.50885 7.94337L8.75837 9.79723C9.04511 9.9133 9.35172 9.97255 9.6608 9.97206L9.65764 7.97206ZM9.50885 7.94337C9.4623 7.92453 9.42137 7.89741 9.38787 7.86459L7.98824 9.29325C8.20971 9.51021 8.47161 9.68114 8.75837 9.79723L9.50885 7.94337ZM9.3877 7.86443L6.51553 5.05195L5.11624 6.48093L7.98841 9.29341L9.3877 7.86443ZM6.51361 5.05007C5.95695 4.5079 5.2087 4.20615 4.43231 4.20397L4.42669 6.20396C4.68976 6.2047 4.93785 6.30719 5.11816 6.48281L6.51361 5.05007ZM4.4295 4.20397H3.20149V6.20397H4.4295V4.20397ZM3.2187 4.20412C3.28688 4.20529 3.35469 4.2186 3.41896 4.2438L2.68896 6.10581C2.84715 6.16783 3.01495 6.20091 3.18428 6.20382L3.2187 4.20412ZM2.35434 4.46029L0.149274 6.61942L1.54852 8.04844L3.75359 5.88932L2.35434 4.46029ZM0.149262 6.61943C-0.213698 6.97484 -0.502759 7.39792 -0.700368 7.86507L1.14161 8.64424C1.23531 8.42274 1.37323 8.22009 1.54854 8.04843L0.149262 6.61943ZM-0.700368 7.86507C-0.897998 8.33227 -1 8.83376 -1 9.34073H1C1 9.1023 1.04793 8.8657 1.14161 8.64424L-0.700368 7.86507ZM-1 9.34073C-1 9.8477 -0.897998 10.3492 -0.700368 10.8164L1.14161 10.0372C1.04793 9.81576 1 9.57916 1 9.34073H-1ZM-0.700368 10.8164C-0.502759 11.2835 -0.213698 11.7066 0.149262 12.062L1.54854 10.633C1.37323 10.4614 1.23531 10.2587 1.14161 10.0372L-0.700368 10.8164ZM0.149255 12.062L2.35409 14.221L3.75337 12.7921L1.54854 10.633L0.149255 12.062ZM3.41853 14.4376C3.35434 14.4628 3.2866 14.4761 3.2185 14.4772L3.18425 12.4775C3.01492 12.4804 2.84712 12.5135 2.68893 12.5755L3.41853 14.4376ZM3.20137 14.4774H4.42927V12.4774H3.20137V14.4774ZM4.43208 14.4774C5.20847 14.4752 5.95671 14.1735 6.51338 13.6313L5.11793 12.1985C4.93762 12.3742 4.68953 12.4766 4.42646 12.4774L4.43208 14.4774ZM6.5152 13.6295L9.38725 10.8179L7.98817 9.38875L5.11611 12.2003L6.5152 13.6295ZM9.37062 10.8338C9.44499 10.7643 9.54796 10.7222 9.65893 10.7222V8.72225C9.04642 8.72225 8.45372 8.95316 8.00479 9.37284L9.37062 10.8338ZM9.65893 10.7222C9.76991 10.7222 9.87287 10.7643 9.94724 10.8338L11.3131 9.37284C10.8641 8.95316 10.2714 8.72225 9.65893 8.72225V10.7222ZM9.93055 10.8179L12.7921 13.6196L14.1913 12.1905L11.3298 9.3888L9.93055 10.8179ZM12.7939 13.6213C13.3505 14.1637 14.0989 14.4655 14.8754 14.4675L14.8807 12.4676C14.6178 12.4669 14.3698 12.3644 14.1895 12.1888L12.7939 13.6213ZM14.8781 14.4675H15.8766V12.4675H14.8781V14.4675ZM15.8696 14.4675C15.798 14.467 15.7267 14.4531 15.6594 14.426L16.406 12.5706C16.2396 12.5036 16.0623 12.4688 15.8836 12.4676L15.8696 14.4675ZM16.7323 14.2128L18.9286 12.062L17.5293 10.6331L15.333 12.7838L16.7323 14.2128ZM18.9286 12.062C19.2916 11.7066 19.5806 11.2835 19.7782 10.8164L17.9363 10.0372C17.8426 10.2587 17.7046 10.4614 17.5293 10.633L18.9286 12.062ZM19.7782 10.8164C19.9759 10.3492 20.0779 9.8477 20.0779 9.34073H18.0779C18.0779 9.57916 18.0299 9.81576 17.9363 10.0372L19.7782 10.8164ZM20.0779 9.34073C20.0779 8.83376 19.9759 8.33227 19.7782 7.86507L17.9363 8.64424C18.0299 8.8657 18.0779 9.1023 18.0779 9.34073H20.0779ZM19.7782 7.86507C19.5806 7.39792 19.2916 6.97484 18.9286 6.61943L17.5293 8.04843C17.7046 8.22009 17.8426 8.42274 17.9363 8.64424L19.7782 7.86507Z" fill="#636363" mask="url(#path-3-inside-1_389_560)"/>
</svg>
