<svg width="18" height="15" viewBox="0 0 18 15" fill="none" xmlns="http://www.w3.org/2000/svg">
<path d="M15.9749 0C17.0933 0 18 0.944265 18 2.10908V12.8909C18 14.0557 17.0933 15 15.9749 15H2.02512C0.906676 15 0 14.0557 0 12.8909V2.10908C0 0.944265 0.906676 0 2.02512 0H15.9749ZM15.9749 1.40605H2.02512C1.6523 1.40605 1.35008 1.72081 1.35008 2.10908V12.8909C1.35008 13.2792 1.6523 13.5939 2.02512 13.5939H15.9749C16.3477 13.5939 16.6499 13.2792 16.6499 12.8909V2.10908C16.6499 1.72081 16.3477 1.40605 15.9749 1.40605ZM7.42543 10.7801H10.5756C10.9484 10.7801 11.2507 11.0949 11.2507 11.4832C11.2507 11.8391 10.9967 12.1332 10.6672 12.1798L10.5756 12.1862H7.42543C7.05262 12.1862 6.75039 11.8714 6.75039 11.4832C6.75039 11.1272 7.00435 10.8331 7.33383 10.7865L7.42543 10.7801H10.5756H7.42543Z" fill="#636363"/>
</svg>
