<svg width="17" height="17" viewBox="0 0 17 17" fill="none" xmlns="http://www.w3.org/2000/svg">
<path d="M0 2.83333C0 1.26853 1.26853 0 2.83333 0H14.1667C15.7315 0 17 1.26853 17 2.83333V11.3333C17 12.8981 15.7315 14.1667 14.1667 14.1667H11.3333V14.875C11.3333 15.2662 11.6505 15.5833 12.0417 15.5833H12.75C13.1412 15.5833 13.4583 15.9005 13.4583 16.2917C13.4583 16.6829 13.1412 17 12.75 17H4.25C3.8588 17 3.54167 16.6829 3.54167 16.2917C3.54167 15.9005 3.8588 15.5833 4.25 15.5833H4.95833C5.34953 15.5833 5.66667 15.2662 5.66667 14.875V14.1667H2.83333C1.26853 14.1667 0 12.8981 0 11.3333V2.83333ZM10.0376 15.5833C9.95928 15.3618 9.91667 15.1234 9.91667 14.875V14.1667H7.08333V14.875C7.08333 15.1234 7.04072 15.3618 6.96242 15.5833H10.0376ZM14.1667 12.75C14.9491 12.75 15.5833 12.1157 15.5833 11.3333H1.41667C1.41667 12.1157 2.05093 12.75 2.83333 12.75H14.1667ZM15.5833 2.83333C15.5833 2.05093 14.9491 1.41667 14.1667 1.41667H2.83333C2.05093 1.41667 1.41667 2.05093 1.41667 2.83333V9.91667H15.5833V2.83333Z" fill="#636363"/>
</svg>
