<svg width="267" height="130" viewBox="0 0 267 130" fill="none" xmlns="http://www.w3.org/2000/svg">
<rect x="40" y="69" width="187" height="25" rx="4" fill="url(#paint0_linear_2696_524)"/>
<rect x="40" width="227" height="25" rx="4" fill="url(#paint1_linear_2696_524)"/>
<rect x="40" y="104" width="121" height="24" rx="4" fill="url(#paint2_linear_2696_524)"/>
<rect x="40" y="35" width="227" height="24" rx="4" fill="url(#paint3_linear_2696_524)"/>
<path opacity="0.6" d="M2.46885 70.3035C2.7865 70.1718 3.12481 70.0798 3.47756 70.0338L3.54224 70.5296C3.69184 70.5101 3.84461 70.5 4 70.5L4.5 70.5L4.5 70L5.5 70L5.5 70.5L6.5 70.5L6.5 70L7.5 70L7.5 70.5L8.5 70.5L8.5 70L9.5 70L9.5 70.5L10.5 70.5L10.5 70L11.5 70L11.5 70.5L12.5 70.5L12.5 70L13.5 70L13.5 70.5L14.5 70.5L14.5 70L15.5 70L15.5 70.5L16.5 70.5L16.5 70L17.5 70L17.5 70.5L18.5 70.5L18.5 70L19.5 70L19.5 70.5L20 70.5C20.1554 70.5 20.3082 70.5101 20.4578 70.5296L20.5224 70.0338C20.8752 70.0798 21.2135 70.1718 21.5312 70.3035L21.3396 70.7654C21.6239 70.8833 21.8895 71.0377 22.1305 71.2229L22.4351 70.8264C22.7122 71.0393 22.9607 71.2878 23.1736 71.5649L22.7771 71.8695C22.9623 72.1105 23.1167 72.3761 23.2346 72.6604L23.6965 72.4688C23.8282 72.7865 23.9202 73.1248 23.9662 73.4776L23.4704 73.5422C23.4899 73.6918 23.5 73.8446 23.5 74L23.5 74.523L24 74.523L24 75.569L23.5 75.569L23.5 76.615L24 76.615L24 77.661L23.5 77.661L23.5 78.707L24 78.707L24 79.753L23.5 79.753L23.5 80.799L24 80.799L24 81.845L23.5 81.845L23.5 82.891L24 82.891L24 83.937L23.5 83.937L23.5 84.983L24 84.983L24 86.029L23.5 86.029L23.5 87.075L24 87.075L24 88.121L23.5 88.121L23.5 89.167L24 89.167L24 90.2129L23.5 90.2129L23.5 90.7359C23.5 90.8913 23.4899 91.0441 23.4704 91.1937L23.9662 91.2584C23.9202 91.6111 23.8282 91.9494 23.6965 92.2671L23.2346 92.0756C23.1167 92.3598 22.9623 92.6254 22.7771 92.8664L23.1736 93.1711C22.9607 93.4482 22.7122 93.6966 22.4351 93.9095L22.1305 93.5131C21.8895 93.6983 21.6239 93.8527 21.3396 93.9706L21.5312 94.4324C21.2135 94.5641 20.8752 94.6561 20.5224 94.7021L20.4578 94.2063C20.3082 94.2258 20.1554 94.2359 20 94.2359L19.5 94.2359L19.5 94.7359L18.5 94.7359L18.5 94.2359L17.5 94.2359L17.5 94.7359L16.5 94.7359L16.5 94.2359L15.5 94.2359L15.5 94.7359L14.5 94.7359L14.5 94.2359L13.5 94.2359L13.5 94.7359L12.5 94.7359L12.5 94.2359L11.5 94.2359L11.5 94.7359L10.5 94.7359L10.5 94.2359L9.5 94.2359L9.5 94.7359L8.5 94.7359L8.5 94.2359L7.5 94.2359L7.5 94.7359L6.5 94.7359L6.5 94.2359L5.5 94.2359L5.5 94.7359L4.5 94.7359L4.5 94.2359L4 94.2359C3.84461 94.2359 3.69183 94.2258 3.54224 94.2063L3.47756 94.7021C3.12481 94.6561 2.7865 94.5641 2.46885 94.4324L2.66037 93.9706C2.37611 93.8527 2.11053 93.6983 1.86953 93.5131L1.56486 93.9095C1.28776 93.6966 1.03934 93.4482 0.826402 93.1711L1.22286 92.8664C1.03766 92.6254 0.883266 92.3598 0.765384 92.0756L0.303521 92.2671C0.171794 91.9494 0.0798216 91.6111 0.0338088 91.2584L0.529609 91.1937C0.510095 91.0441 0.499999 90.8913 0.499999 90.7359L0.499999 90.2129L-8.57249e-07 90.2129L-8.12887e-07 89.1669L0.499999 89.1669L0.499999 88.121L-7.68526e-07 88.121L-7.24164e-07 87.075L0.499999 87.075L0.499999 86.029L-6.79802e-07 86.029L-6.35441e-07 84.983L0.499999 84.983L0.499999 83.937L-5.91079e-07 83.937L-5.46717e-07 82.891L0.499999 82.891L0.499999 81.845L-5.02356e-07 81.845L-4.57994e-07 80.799L0.5 80.799L0.5 79.753L-4.13632e-07 79.753L-3.69271e-07 78.707L0.5 78.707L0.5 77.661L-3.24909e-07 77.661L-2.80548e-07 76.615L0.5 76.615L0.5 75.569L-2.36186e-07 75.569L-1.91824e-07 74.523L0.5 74.523L0.5 74C0.5 73.8446 0.510095 73.6918 0.52961 73.5422L0.0338095 73.4776C0.0798224 73.1248 0.171795 72.7865 0.303522 72.4688L0.765385 72.6604C0.883266 72.3761 1.03766 72.1105 1.22286 71.8695L0.826403 71.5649C1.03934 71.2878 1.28776 71.0393 1.56486 70.8264L1.86953 71.2229C2.11053 71.0377 2.37611 70.8833 2.66038 70.7654L2.46885 70.3035Z" stroke="#CCCCCC" stroke-dasharray="1 1"/>
<path opacity="0.6" d="M2.46885 0.303521C2.7865 0.171794 3.12481 0.0798215 3.47756 0.0338082L3.54224 0.529608C3.69184 0.510094 3.84461 0.499999 4 0.499999L4.5 0.499999L4.5 -8.7851e-07L5.5 -8.33458e-07L5.5 0.499999L6.5 0.499999L6.5 -7.88406e-07L7.5 -7.43354e-07L7.5 0.499999L8.5 0.499999L8.5 -6.98302e-07L9.5 -6.53251e-07L9.5 0.499999L10.5 0.499999L10.5 -6.08199e-07L11.5 -5.63147e-07L11.5 0.499999L12.5 0.499999L12.5 -5.18095e-07L13.5 -4.73044e-07L13.5 0.5L14.5 0.5L14.5 -4.27992e-07L15.5 -3.8294e-07L15.5 0.5L16.5 0.5L16.5 -3.37888e-07L17.5 -2.92837e-07L17.5 0.5L18.5 0.5L18.5 -2.47785e-07L19.5 -2.02733e-07L19.5 0.5L20 0.5C20.1554 0.5 20.3082 0.510095 20.4578 0.529609L20.5224 0.033809C20.8752 0.0798224 21.2135 0.171795 21.5312 0.303522L21.3396 0.765385C21.6239 0.883267 21.8895 1.03766 22.1305 1.22286L22.4351 0.826402C22.7122 1.03934 22.9607 1.28776 23.1736 1.56486L22.7771 1.86953C22.9623 2.11053 23.1167 2.37611 23.2346 2.66038L23.6965 2.46885C23.8282 2.7865 23.9202 3.12481 23.9662 3.47756L23.4704 3.54224C23.4899 3.69183 23.5 3.84461 23.5 4L23.5 4.523L24 4.523L24 5.569L23.5 5.569L23.5 6.61499L24 6.61499L24 7.66099L23.5 7.66099L23.5 8.70699L24 8.70699L24 9.75298L23.5 9.75298L23.5 10.799L24 10.799L24 11.845L23.5 11.845L23.5 12.891L24 12.891L24 13.937L23.5 13.937L23.5 14.983L24 14.983L24 16.029L23.5 16.029L23.5 17.075L24 17.075L24 18.121L23.5 18.121L23.5 19.167L24 19.167L24 20.2129L23.5 20.2129L23.5 20.7359C23.5 20.8913 23.4899 21.0441 23.4704 21.1937L23.9662 21.2584C23.9202 21.6111 23.8282 21.9494 23.6965 22.2671L23.2346 22.0756C23.1167 22.3598 22.9623 22.6254 22.7771 22.8664L23.1736 23.1711C22.9607 23.4482 22.7122 23.6966 22.4351 23.9095L22.1305 23.5131C21.8895 23.6983 21.6239 23.8527 21.3396 23.9706L21.5312 24.4324C21.2135 24.5641 20.8752 24.6561 20.5224 24.7021L20.4578 24.2063C20.3082 24.2258 20.1554 24.2359 20 24.2359L19.5 24.2359L19.5 24.7359L18.5 24.7359L18.5 24.2359L17.5 24.2359L17.5 24.7359L16.5 24.7359L16.5 24.2359L15.5 24.2359L15.5 24.7359L14.5 24.7359L14.5 24.2359L13.5 24.2359L13.5 24.7359L12.5 24.7359L12.5 24.2359L11.5 24.2359L11.5 24.7359L10.5 24.7359L10.5 24.2359L9.5 24.2359L9.5 24.7359L8.5 24.7359L8.5 24.2359L7.5 24.2359L7.5 24.7359L6.5 24.7359L6.5 24.2359L5.5 24.2359L5.5 24.7359L4.5 24.7359L4.5 24.2359L4 24.2359C3.84461 24.2359 3.69183 24.2258 3.54224 24.2063L3.47756 24.7021C3.12481 24.6561 2.7865 24.5641 2.46885 24.4324L2.66037 23.9706C2.37611 23.8527 2.11053 23.6983 1.86953 23.5131L1.56486 23.9095C1.28776 23.6966 1.03934 23.4482 0.826402 23.1711L1.22286 22.8664C1.03766 22.6254 0.883266 22.3598 0.765384 22.0756L0.303521 22.2671C0.171794 21.9494 0.0798216 21.6111 0.0338088 21.2584L0.529609 21.1937C0.510095 21.0441 0.499999 20.8913 0.499999 20.7359L0.499999 20.2129L-8.57249e-07 20.2129L-8.12887e-07 19.1669L0.499999 19.1669L0.499999 18.121L-7.68526e-07 18.121L-7.24164e-07 17.075L0.499999 17.075L0.499999 16.029L-6.79802e-07 16.029L-6.35441e-07 14.983L0.499999 14.983L0.499999 13.937L-5.91079e-07 13.937L-5.46717e-07 12.891L0.499999 12.891L0.499999 11.845L-5.02356e-07 11.845L-4.57994e-07 10.799L0.5 10.799L0.5 9.75298L-4.13632e-07 9.75298L-3.69271e-07 8.70698L0.5 8.70698L0.5 7.66098L-3.24909e-07 7.66098L-2.80548e-07 6.61499L0.5 6.61499L0.5 5.56899L-2.36186e-07 5.56899L-1.91824e-07 4.52299L0.5 4.52299L0.5 4C0.5 3.84461 0.510095 3.69183 0.52961 3.54223L0.0338095 3.47756C0.0798224 3.12481 0.171795 2.7865 0.303522 2.46885L0.765385 2.66037C0.883266 2.3761 1.03766 2.11052 1.22286 1.86952L0.826403 1.56486C1.03934 1.28776 1.28776 1.03934 1.56486 0.8264L1.86953 1.22286C2.11053 1.03766 2.37611 0.883266 2.66038 0.765384L2.46885 0.303521Z" stroke="#CCCCCC" stroke-dasharray="1 1"/>
<path opacity="0.6" d="M2.46885 105.304C2.7865 105.172 3.12481 105.08 3.47756 105.034L3.54224 105.53C3.69184 105.51 3.84461 105.5 4 105.5L4.5 105.5L4.5 105L5.5 105L5.5 105.5L6.5 105.5L6.5 105L7.5 105L7.5 105.5L8.5 105.5L8.5 105L9.5 105L9.5 105.5L10.5 105.5L10.5 105L11.5 105L11.5 105.5L12.5 105.5L12.5 105L13.5 105L13.5 105.5L14.5 105.5L14.5 105L15.5 105L15.5 105.5L16.5 105.5L16.5 105L17.5 105L17.5 105.5L18.5 105.5L18.5 105L19.5 105L19.5 105.5L20 105.5C20.1554 105.5 20.3082 105.51 20.4578 105.53L20.5224 105.034C20.8752 105.08 21.2135 105.172 21.5312 105.304L21.3396 105.765C21.6239 105.883 21.8895 106.038 22.1305 106.223L22.4351 105.826C22.7122 106.039 22.9607 106.288 23.1736 106.565L22.7771 106.87C22.9623 107.111 23.1167 107.376 23.2346 107.66L23.6965 107.469C23.8282 107.787 23.9202 108.125 23.9662 108.478L23.4704 108.542C23.4899 108.692 23.5 108.845 23.5 109L23.5 109.523L24 109.523L24 110.569L23.5 110.569L23.5 111.615L24 111.615L24 112.661L23.5 112.661L23.5 113.707L24 113.707L24 114.753L23.5 114.753L23.5 115.799L24 115.799L24 116.845L23.5 116.845L23.5 117.891L24 117.891L24 118.937L23.5 118.937L23.5 119.983L24 119.983L24 121.029L23.5 121.029L23.5 122.075L24 122.075L24 123.121L23.5 123.121L23.5 124.167L24 124.167L24 125.213L23.5 125.213L23.5 125.736C23.5 125.891 23.4899 126.044 23.4704 126.194L23.9662 126.258C23.9202 126.611 23.8282 126.949 23.6965 127.267L23.2346 127.076C23.1167 127.36 22.9623 127.625 22.7771 127.866L23.1736 128.171C22.9607 128.448 22.7122 128.697 22.4351 128.91L22.1305 128.513C21.8895 128.698 21.6239 128.853 21.3396 128.971L21.5312 129.432C21.2135 129.564 20.8752 129.656 20.5224 129.702L20.4578 129.206C20.3082 129.226 20.1554 129.236 20 129.236L19.5 129.236L19.5 129.736L18.5 129.736L18.5 129.236L17.5 129.236L17.5 129.736L16.5 129.736L16.5 129.236L15.5 129.236L15.5 129.736L14.5 129.736L14.5 129.236L13.5 129.236L13.5 129.736L12.5 129.736L12.5 129.236L11.5 129.236L11.5 129.736L10.5 129.736L10.5 129.236L9.5 129.236L9.5 129.736L8.5 129.736L8.5 129.236L7.5 129.236L7.5 129.736L6.5 129.736L6.5 129.236L5.5 129.236L5.5 129.736L4.5 129.736L4.5 129.236L4 129.236C3.84461 129.236 3.69183 129.226 3.54224 129.206L3.47756 129.702C3.12481 129.656 2.7865 129.564 2.46885 129.432L2.66037 128.971C2.37611 128.853 2.11053 128.698 1.86953 128.513L1.56486 128.91C1.28776 128.697 1.03934 128.448 0.826402 128.171L1.22286 127.866C1.03766 127.625 0.883266 127.36 0.765384 127.076L0.303521 127.267C0.171794 126.949 0.0798216 126.611 0.0338088 126.258L0.529609 126.194C0.510095 126.044 0.499999 125.891 0.499999 125.736L0.499999 125.213L-8.57249e-07 125.213L-8.12887e-07 124.167L0.499999 124.167L0.499999 123.121L-7.68526e-07 123.121L-7.24164e-07 122.075L0.499999 122.075L0.499999 121.029L-6.79802e-07 121.029L-6.35441e-07 119.983L0.499999 119.983L0.499999 118.937L-5.91079e-07 118.937L-5.46717e-07 117.891L0.499999 117.891L0.499999 116.845L-5.02356e-07 116.845L-4.57994e-07 115.799L0.5 115.799L0.5 114.753L-4.13632e-07 114.753L-3.69271e-07 113.707L0.5 113.707L0.5 112.661L-3.24909e-07 112.661L-2.80548e-07 111.615L0.5 111.615L0.5 110.569L-2.36186e-07 110.569L-1.91824e-07 109.523L0.5 109.523L0.5 109C0.5 108.845 0.510095 108.692 0.52961 108.542L0.0338095 108.478C0.0798224 108.125 0.171795 107.787 0.303522 107.469L0.765385 107.66C0.883266 107.376 1.03766 107.111 1.22286 106.87L0.826403 106.565C1.03934 106.288 1.28776 106.039 1.56486 105.826L1.86953 106.223C2.11053 106.038 2.37611 105.883 2.66038 105.765L2.46885 105.304Z" stroke="#CCCCCC" stroke-dasharray="1 1"/>
<path opacity="0.6" d="M2.46885 35.3035C2.7865 35.1718 3.12481 35.0798 3.47756 35.0338L3.54224 35.5296C3.69184 35.5101 3.84461 35.5 4 35.5L4.5 35.5L4.5 35L5.5 35L5.5 35.5L6.5 35.5L6.5 35L7.5 35L7.5 35.5L8.5 35.5L8.5 35L9.5 35L9.5 35.5L10.5 35.5L10.5 35L11.5 35L11.5 35.5L12.5 35.5L12.5 35L13.5 35L13.5 35.5L14.5 35.5L14.5 35L15.5 35L15.5 35.5L16.5 35.5L16.5 35L17.5 35L17.5 35.5L18.5 35.5L18.5 35L19.5 35L19.5 35.5L20 35.5C20.1554 35.5 20.3082 35.5101 20.4578 35.5296L20.5224 35.0338C20.8752 35.0798 21.2135 35.1718 21.5312 35.3035L21.3396 35.7654C21.6239 35.8833 21.8895 36.0377 22.1305 36.2229L22.4351 35.8264C22.7122 36.0393 22.9607 36.2878 23.1736 36.5649L22.7771 36.8695C22.9623 37.1105 23.1167 37.3761 23.2346 37.6604L23.6965 37.4688C23.8282 37.7865 23.9202 38.1248 23.9662 38.4776L23.4704 38.5422C23.4899 38.6918 23.5 38.8446 23.5 39L23.5 39.523L24 39.523L24 40.569L23.5 40.569L23.5 41.615L24 41.615L24 42.661L23.5 42.661L23.5 43.707L24 43.707L24 44.753L23.5 44.753L23.5 45.799L24 45.799L24 46.845L23.5 46.845L23.5 47.891L24 47.891L24 48.937L23.5 48.937L23.5 49.983L24 49.983L24 51.029L23.5 51.029L23.5 52.075L24 52.075L24 53.121L23.5 53.121L23.5 54.167L24 54.167L24 55.2129L23.5 55.2129L23.5 55.7359C23.5 55.8913 23.4899 56.0441 23.4704 56.1937L23.9662 56.2584C23.9202 56.6111 23.8282 56.9494 23.6965 57.2671L23.2346 57.0756C23.1167 57.3598 22.9623 57.6254 22.7771 57.8664L23.1736 58.1711C22.9607 58.4482 22.7122 58.6966 22.4351 58.9095L22.1305 58.5131C21.8895 58.6983 21.6239 58.8527 21.3396 58.9706L21.5312 59.4324C21.2135 59.5641 20.8752 59.6561 20.5224 59.7021L20.4578 59.2063C20.3082 59.2258 20.1554 59.2359 20 59.2359L19.5 59.2359L19.5 59.7359L18.5 59.7359L18.5 59.2359L17.5 59.2359L17.5 59.7359L16.5 59.7359L16.5 59.2359L15.5 59.2359L15.5 59.7359L14.5 59.7359L14.5 59.2359L13.5 59.2359L13.5 59.7359L12.5 59.7359L12.5 59.2359L11.5 59.2359L11.5 59.7359L10.5 59.7359L10.5 59.2359L9.5 59.2359L9.5 59.7359L8.5 59.7359L8.5 59.2359L7.5 59.2359L7.5 59.7359L6.5 59.7359L6.5 59.2359L5.5 59.2359L5.5 59.7359L4.5 59.7359L4.5 59.2359L4 59.2359C3.84461 59.2359 3.69183 59.2258 3.54224 59.2063L3.47756 59.7021C3.12481 59.6561 2.7865 59.5641 2.46885 59.4324L2.66037 58.9706C2.37611 58.8527 2.11053 58.6983 1.86953 58.5131L1.56486 58.9095C1.28776 58.6966 1.03934 58.4482 0.826402 58.1711L1.22286 57.8664C1.03766 57.6254 0.883266 57.3598 0.765384 57.0756L0.303521 57.2671C0.171794 56.9494 0.0798216 56.6111 0.0338088 56.2584L0.529609 56.1937C0.510095 56.0441 0.499999 55.8913 0.499999 55.7359L0.499999 55.2129L-8.57249e-07 55.2129L-8.12887e-07 54.1669L0.499999 54.1669L0.499999 53.121L-7.68526e-07 53.121L-7.24164e-07 52.075L0.499999 52.075L0.499999 51.029L-6.79802e-07 51.029L-6.35441e-07 49.983L0.499999 49.983L0.499999 48.937L-5.91079e-07 48.937L-5.46717e-07 47.891L0.499999 47.891L0.499999 46.845L-5.02356e-07 46.845L-4.57994e-07 45.799L0.5 45.799L0.5 44.753L-4.13632e-07 44.753L-3.69271e-07 43.707L0.5 43.707L0.5 42.661L-3.24909e-07 42.661L-2.80548e-07 41.615L0.5 41.615L0.5 40.569L-2.36186e-07 40.569L-1.91824e-07 39.523L0.5 39.523L0.5 39C0.5 38.8446 0.510095 38.6918 0.52961 38.5422L0.0338095 38.4776C0.0798224 38.1248 0.171795 37.7865 0.303522 37.4688L0.765385 37.6604C0.883266 37.3761 1.03766 37.1105 1.22286 36.8695L0.826403 36.5649C1.03934 36.2878 1.28776 36.0393 1.56486 35.8264L1.86953 36.2229C2.11053 36.0377 2.37611 35.8833 2.66038 35.7654L2.46885 35.3035Z" stroke="#CCCCCC" stroke-dasharray="1 1"/>
<defs>
<linearGradient id="paint0_linear_2696_524" x1="133.5" y1="69" x2="227" y2="69" gradientUnits="userSpaceOnUse">
<stop stop-color="#F4F6FB"/>
<stop offset="1" stop-color="#F4F6FB" stop-opacity="0"/>
</linearGradient>
<linearGradient id="paint1_linear_2696_524" x1="153.5" y1="-3.9596e-06" x2="267" y2="-1.05574e-05" gradientUnits="userSpaceOnUse">
<stop stop-color="#F4F6FB"/>
<stop offset="1" stop-color="#F4F6FB" stop-opacity="0"/>
</linearGradient>
<linearGradient id="paint2_linear_2696_524" x1="54.5" y1="128" x2="148" y2="128" gradientUnits="userSpaceOnUse">
<stop stop-color="#F4F6FB"/>
<stop offset="1" stop-color="#F4F6FB" stop-opacity="0"/>
</linearGradient>
<linearGradient id="paint3_linear_2696_524" x1="67.2025" y1="59" x2="242.612" y2="58.9999" gradientUnits="userSpaceOnUse">
<stop stop-color="#F4F6FB"/>
<stop offset="1" stop-color="#F4F6FB" stop-opacity="0"/>
</linearGradient>
</defs>
</svg>
