<svg width="71" height="12" viewBox="0 0 71 12" fill="none" xmlns="http://www.w3.org/2000/svg">
<path d="M6.80114 3.36364C6.74148 2.85985 6.49953 2.46875 6.07528 2.19034C5.65104 1.91193 5.13068 1.77273 4.5142 1.77273C4.06345 1.77273 3.66903 1.84564 3.33097 1.99148C2.99621 2.13731 2.73438 2.33783 2.54545 2.59304C2.35985 2.84825 2.26705 3.13826 2.26705 3.46307C2.26705 3.73485 2.33168 3.96851 2.46094 4.16406C2.59351 4.3563 2.76255 4.51705 2.96804 4.64631C3.17353 4.77225 3.38897 4.87666 3.61435 4.95952C3.83973 5.03906 4.04688 5.10369 4.2358 5.15341L5.26989 5.43182C5.53504 5.50142 5.83002 5.59754 6.15483 5.72017C6.48295 5.8428 6.79616 6.01018 7.09446 6.2223C7.39607 6.43111 7.64465 6.69957 7.8402 7.0277C8.03575 7.35582 8.13352 7.75852 8.13352 8.2358C8.13352 8.78598 7.98935 9.28314 7.70099 9.72727C7.41596 10.1714 6.99834 10.5244 6.44815 10.7862C5.90128 11.0481 5.23674 11.179 4.45455 11.179C3.72538 11.179 3.09399 11.0613 2.56037 10.826C2.03007 10.5907 1.61245 10.2625 1.30753 9.84162C1.00592 9.42069 0.835227 8.93182 0.795455 8.375H2.06818C2.10133 8.75947 2.23059 9.07765 2.45597 9.32955C2.68466 9.57812 2.97301 9.76373 3.32102 9.88636C3.67235 10.0057 4.05019 10.0653 4.45455 10.0653C4.92519 10.0653 5.34777 9.98911 5.7223 9.83665C6.09683 9.68087 6.39347 9.46544 6.61222 9.19034C6.83097 8.91193 6.94034 8.58712 6.94034 8.21591C6.94034 7.87784 6.84588 7.60275 6.65696 7.39062C6.46804 7.1785 6.21946 7.00616 5.91122 6.87358C5.60298 6.741 5.26989 6.625 4.91193 6.52557L3.65909 6.16761C2.86364 5.93892 2.2339 5.61245 1.76989 5.18821C1.30587 4.76397 1.07386 4.20881 1.07386 3.52273C1.07386 2.95265 1.22798 2.45549 1.53622 2.03125C1.84777 1.60369 2.26539 1.27225 2.78906 1.03693C3.31605 0.798295 3.90436 0.678977 4.55398 0.678977C5.21023 0.678977 5.79356 0.796638 6.30398 1.03196C6.81439 1.26397 7.21875 1.58215 7.51705 1.98651C7.81866 2.39086 7.97775 2.8499 7.99432 3.36364H6.80114ZM12.2488 11.179C11.7649 11.179 11.3257 11.0878 10.9313 10.9055C10.5369 10.7199 10.2237 10.4531 9.99165 10.1051C9.75965 9.75379 9.64364 9.32955 9.64364 8.83239C9.64364 8.39489 9.72982 8.04025 9.90217 7.76847C10.0745 7.49337 10.3049 7.27794 10.5932 7.12216C10.8816 6.96638 11.1998 6.85038 11.5478 6.77415C11.8991 6.6946 12.2521 6.63163 12.6067 6.58523C13.0707 6.52557 13.4469 6.48082 13.7353 6.45099C14.0269 6.41785 14.2391 6.36316 14.3716 6.28693C14.5075 6.2107 14.5755 6.07812 14.5755 5.8892V5.84943C14.5755 5.3589 14.4412 4.97775 14.1728 4.70597C13.9076 4.43419 13.5049 4.2983 12.9647 4.2983C12.4045 4.2983 11.9654 4.42093 11.6472 4.66619C11.329 4.91146 11.1053 5.1733 10.976 5.4517L9.86239 5.05398C10.0613 4.58996 10.3264 4.22869 10.6578 3.97017C10.9926 3.70833 11.3572 3.52604 11.7516 3.4233C12.1493 3.31723 12.5404 3.2642 12.9249 3.2642C13.1702 3.2642 13.4519 3.29403 13.7701 3.35369C14.0916 3.41004 14.4015 3.5277 14.6998 3.70668C15.0014 3.88565 15.2516 4.15578 15.4505 4.51705C15.6493 4.87831 15.7488 5.36222 15.7488 5.96875V11H14.5755V9.96591H14.5158C14.4363 10.1316 14.3037 10.3089 14.1181 10.4979C13.9325 10.6868 13.6855 10.8475 13.3773 10.9801C13.0691 11.1127 12.6929 11.179 12.2488 11.179ZM12.4277 10.125C12.8917 10.125 13.2828 10.0339 13.601 9.85156C13.9225 9.66927 14.1645 9.43395 14.3269 9.1456C14.4926 8.85724 14.5755 8.55398 14.5755 8.2358V7.16193C14.5257 7.22159 14.4164 7.27628 14.2473 7.32599C14.0816 7.3724 13.8894 7.41383 13.6706 7.45028C13.4552 7.48343 13.2447 7.51326 13.0392 7.53977C12.8371 7.56297 12.673 7.58286 12.5471 7.59943C12.2421 7.6392 11.9571 7.70384 11.6919 7.79332C11.4301 7.8795 11.218 8.01042 11.0556 8.18608C10.8965 8.35843 10.8169 8.59375 10.8169 8.89205C10.8169 9.29972 10.9677 9.60795 11.2694 9.81676C11.5743 10.0223 11.9604 10.125 12.4277 10.125ZM17.8903 11V3.36364H19.0636V11H17.8903ZM18.4869 2.09091C18.2582 2.09091 18.061 2.01302 17.8952 1.85724C17.7328 1.70147 17.6516 1.5142 17.6516 1.29545C17.6516 1.0767 17.7328 0.889441 17.8952 0.733664C18.061 0.577888 18.2582 0.5 18.4869 0.5C18.7156 0.5 18.9111 0.577888 19.0735 0.733664C19.2392 0.889441 19.3221 1.0767 19.3221 1.29545C19.3221 1.5142 19.2392 1.70147 19.0735 1.85724C18.9111 2.01302 18.7156 2.09091 18.4869 2.09091ZM21.3716 11V0.818182H22.5449V4.5767H22.6444C22.7305 4.44413 22.8498 4.27509 23.0023 4.0696C23.1581 3.8608 23.3801 3.67519 23.6685 3.51278C23.9602 3.34706 24.3546 3.2642 24.8517 3.2642C25.4947 3.2642 26.0615 3.42495 26.552 3.74645C27.0426 4.06794 27.4254 4.52367 27.7005 5.11364C27.9756 5.7036 28.1131 6.39962 28.1131 7.2017C28.1131 8.01042 27.9756 8.71141 27.7005 9.30469C27.4254 9.89465 27.0442 10.352 26.557 10.6768C26.0698 10.9983 25.508 11.1591 24.8716 11.1591C24.3811 11.1591 23.9883 11.0779 23.6934 10.9155C23.3984 10.7498 23.1713 10.5625 23.0123 10.3537C22.8532 10.1416 22.7305 9.96591 22.6444 9.8267H22.5051V11H21.3716ZM22.525 7.18182C22.525 7.75852 22.6096 8.26728 22.7786 8.7081C22.9476 9.1456 23.1945 9.48864 23.5194 9.73722C23.8442 9.98248 24.2419 10.1051 24.7125 10.1051C25.2031 10.1051 25.6124 9.97585 25.9405 9.71733C26.272 9.45549 26.5205 9.10417 26.6863 8.66335C26.8553 8.21922 26.9398 7.72538 26.9398 7.18182C26.9398 6.64489 26.8569 6.16098 26.6912 5.73011C26.5288 5.29593 26.2819 4.95289 25.9505 4.70099C25.6223 4.44579 25.2097 4.31818 24.7125 4.31818C24.2353 4.31818 23.8342 4.43916 23.5094 4.68111C23.1846 4.91974 22.9393 5.2545 22.7736 5.68537C22.6079 6.11293 22.525 6.61174 22.525 7.18182ZM32.155 11.179C31.6711 11.179 31.2319 11.0878 30.8375 10.9055C30.4431 10.7199 30.1299 10.4531 29.8979 10.1051C29.6659 9.75379 29.5499 9.32955 29.5499 8.83239C29.5499 8.39489 29.6361 8.04025 29.8084 7.76847C29.9808 7.49337 30.2111 7.27794 30.4995 7.12216C30.7878 6.96638 31.106 6.85038 31.454 6.77415C31.8053 6.6946 32.1583 6.63163 32.513 6.58523C32.977 6.52557 33.3532 6.48082 33.6415 6.45099C33.9332 6.41785 34.1453 6.36316 34.2779 6.28693C34.4138 6.2107 34.4817 6.07812 34.4817 5.8892V5.84943C34.4817 5.3589 34.3475 4.97775 34.079 4.70597C33.8139 4.43419 33.4112 4.2983 32.8709 4.2983C32.3108 4.2983 31.8716 4.42093 31.5534 4.66619C31.2353 4.91146 31.0115 5.1733 30.8823 5.4517L29.7686 5.05398C29.9675 4.58996 30.2327 4.22869 30.5641 3.97017C30.8989 3.70833 31.2634 3.52604 31.6578 3.4233C32.0556 3.31723 32.4467 3.2642 32.8311 3.2642C33.0764 3.2642 33.3581 3.29403 33.6763 3.35369C33.9978 3.41004 34.3077 3.5277 34.606 3.70668C34.9076 3.88565 35.1578 4.15578 35.3567 4.51705C35.5556 4.87831 35.655 5.36222 35.655 5.96875V11H34.4817V9.96591H34.4221C34.3425 10.1316 34.2099 10.3089 34.0243 10.4979C33.8387 10.6868 33.5918 10.8475 33.2836 10.9801C32.9753 11.1127 32.5991 11.179 32.155 11.179ZM32.334 10.125C32.798 10.125 33.1891 10.0339 33.5073 9.85156C33.8288 9.66927 34.0707 9.43395 34.2331 9.1456C34.3989 8.85724 34.4817 8.55398 34.4817 8.2358V7.16193C34.432 7.22159 34.3226 7.27628 34.1536 7.32599C33.9879 7.3724 33.7956 7.41383 33.5769 7.45028C33.3614 7.48343 33.151 7.51326 32.9455 7.53977C32.7433 7.56297 32.5792 7.58286 32.4533 7.59943C32.1484 7.6392 31.8633 7.70384 31.5982 7.79332C31.3364 7.8795 31.1242 8.01042 30.9618 8.18608C30.8027 8.35843 30.7232 8.59375 30.7232 8.89205C30.7232 9.29972 30.874 9.60795 31.1756 9.81676C31.4805 10.0223 31.8667 10.125 32.334 10.125ZM41.734 11V3.36364H42.8675V4.55682H42.967C43.1261 4.14915 43.3829 3.83262 43.7376 3.60724C44.0922 3.37855 44.5181 3.2642 45.0153 3.2642C45.5191 3.2642 45.9383 3.37855 46.2731 3.60724C46.6112 3.83262 46.8746 4.14915 47.0636 4.55682H47.1431C47.3387 4.16241 47.632 3.84919 48.0231 3.61719C48.4142 3.38187 48.8832 3.2642 49.43 3.2642C50.1128 3.2642 50.6713 3.47798 51.1055 3.90554C51.5397 4.32978 51.7567 4.991 51.7567 5.8892V11H50.5835V5.8892C50.5835 5.32576 50.4293 4.92306 50.1211 4.68111C49.8129 4.43916 49.4499 4.31818 49.0323 4.31818C48.4954 4.31818 48.0794 4.48059 47.7844 4.8054C47.4895 5.12689 47.342 5.53456 47.342 6.02841V11H46.1488V5.76989C46.1488 5.3357 46.0079 4.98603 45.7262 4.72088C45.4445 4.45241 45.0816 4.31818 44.6374 4.31818C44.3325 4.31818 44.0475 4.39938 43.7823 4.56179C43.5205 4.72419 43.3084 4.94957 43.146 5.23793C42.9869 5.52296 42.9073 5.85275 42.9073 6.22727V11H41.734ZM56.1491 11.179C55.6652 11.179 55.2261 11.0878 54.8317 10.9055C54.4373 10.7199 54.1241 10.4531 53.892 10.1051C53.66 9.75379 53.544 9.32955 53.544 8.83239C53.544 8.39489 53.6302 8.04025 53.8026 7.76847C53.9749 7.49337 54.2053 7.27794 54.4936 7.12216C54.782 6.96638 55.1001 6.85038 55.4482 6.77415C55.7995 6.6946 56.1525 6.63163 56.5071 6.58523C56.9711 6.52557 57.3473 6.48082 57.6357 6.45099C57.9273 6.41785 58.1394 6.36316 58.272 6.28693C58.4079 6.2107 58.4759 6.07812 58.4759 5.8892V5.84943C58.4759 5.3589 58.3416 4.97775 58.0732 4.70597C57.808 4.43419 57.4053 4.2983 56.8651 4.2983C56.3049 4.2983 55.8658 4.42093 55.5476 4.66619C55.2294 4.91146 55.0057 5.1733 54.8764 5.4517L53.7628 5.05398C53.9616 4.58996 54.2268 4.22869 54.5582 3.97017C54.893 3.70833 55.2576 3.52604 55.652 3.4233C56.0497 3.31723 56.4408 3.2642 56.8253 3.2642C57.0705 3.2642 57.3523 3.29403 57.6705 3.35369C57.992 3.41004 58.3018 3.5277 58.6001 3.70668C58.9018 3.88565 59.152 4.15578 59.3509 4.51705C59.5497 4.87831 59.6491 5.36222 59.6491 5.96875V11H58.4759V9.96591H58.4162C58.3366 10.1316 58.2041 10.3089 58.0185 10.4979C57.8329 10.6868 57.5859 10.8475 57.2777 10.9801C56.9695 11.1127 56.5933 11.179 56.1491 11.179ZM56.3281 10.125C56.7921 10.125 57.1832 10.0339 57.5014 9.85156C57.8229 9.66927 58.0649 9.43395 58.2273 9.1456C58.393 8.85724 58.4759 8.55398 58.4759 8.2358V7.16193C58.4261 7.22159 58.3168 7.27628 58.1477 7.32599C57.982 7.3724 57.7898 7.41383 57.571 7.45028C57.3556 7.48343 57.1451 7.51326 56.9396 7.53977C56.7375 7.56297 56.5734 7.58286 56.4474 7.59943C56.1425 7.6392 55.8575 7.70384 55.5923 7.79332C55.3305 7.8795 55.1184 8.01042 54.956 8.18608C54.7969 8.35843 54.7173 8.59375 54.7173 8.89205C54.7173 9.29972 54.8681 9.60795 55.1697 9.81676C55.4747 10.0223 55.8608 10.125 56.3281 10.125ZM61.7907 11V3.36364H62.964V11H61.7907ZM62.3873 2.09091C62.1586 2.09091 61.9614 2.01302 61.7956 1.85724C61.6332 1.70147 61.552 1.5142 61.552 1.29545C61.552 1.0767 61.6332 0.889441 61.7956 0.733664C61.9614 0.577888 62.1586 0.5 62.3873 0.5C62.6159 0.5 62.8115 0.577888 62.9739 0.733664C63.1396 0.889441 63.2225 1.0767 63.2225 1.29545C63.2225 1.5142 63.1396 1.70147 62.9739 1.85724C62.8115 2.01302 62.6159 2.09091 62.3873 2.09091ZM70.522 5.07386L69.468 5.37216C69.4018 5.1965 69.304 5.0258 69.1747 4.86009C69.0488 4.69105 68.8764 4.55185 68.6577 4.44247C68.4389 4.3331 68.1589 4.27841 67.8175 4.27841C67.3501 4.27841 66.9607 4.38613 66.6491 4.60156C66.3409 4.81368 66.1868 5.08381 66.1868 5.41193C66.1868 5.7036 66.2929 5.93395 66.505 6.10298C66.7171 6.27202 67.0485 6.41288 67.4993 6.52557L68.6328 6.80398C69.3156 6.9697 69.8243 7.22325 70.1591 7.56463C70.4938 7.9027 70.6612 8.33854 70.6612 8.87216C70.6612 9.30966 70.5353 9.70076 70.2834 10.0455C70.0348 10.3902 69.6868 10.6619 69.2393 10.8608C68.7919 11.0597 68.2715 11.1591 67.6783 11.1591C66.8994 11.1591 66.2547 10.9901 65.7443 10.652C65.2339 10.3139 64.9107 9.82008 64.7749 9.17045L65.8885 8.89205C65.9946 9.30303 66.1951 9.61127 66.4901 9.81676C66.7884 10.0223 67.1778 10.125 67.6584 10.125C68.2053 10.125 68.6394 10.009 68.9609 9.77699C69.2857 9.54167 69.4482 9.25994 69.4482 8.93182C69.4482 8.66667 69.3554 8.4446 69.1697 8.26562C68.9841 8.08333 68.6991 7.94744 68.3146 7.85795L67.0419 7.55966C66.3426 7.39394 65.8288 7.13707 65.5007 6.78906C65.1759 6.43774 65.0135 5.99858 65.0135 5.47159C65.0135 5.04072 65.1345 4.65956 65.3764 4.32812C65.6217 3.99669 65.9548 3.73651 66.3757 3.54758C66.8 3.35866 67.2805 3.2642 67.8175 3.2642C68.5732 3.2642 69.1664 3.42992 69.5973 3.76136C70.0315 4.0928 70.3397 4.5303 70.522 5.07386Z" fill="#636363"/>
</svg>
