<svg width="46" height="16" viewBox="0 0 46 16" fill="none" xmlns="http://www.w3.org/2000/svg">
<path d="M30.095 0.842778C29.9555 0.842842 29.8174 0.870743 29.6886 0.924887C29.5598 0.979031 29.4428 1.05836 29.3443 1.15833C29.1496 1.35554 29.0327 1.63411 29.0327 1.92008V14.9231C29.0327 15.2091 29.1447 15.4827 29.3443 15.6849C29.4429 15.7848 29.5599 15.8641 29.6888 15.9182C29.8176 15.9723 29.9557 16.0002 30.0952 16.0002C30.2347 16.0002 30.3728 15.9723 30.5017 15.9182C30.6305 15.8641 30.7476 15.7848 30.8462 15.6849C31.0409 15.4877 31.1577 15.2091 31.1577 14.9231V1.91959C31.1577 1.63362 31.0458 1.35998 30.8462 1.15783C30.7476 1.0578 30.6305 0.978446 30.5016 0.9243C30.3727 0.870154 30.2345 0.842284 30.095 0.842285V0.842778ZM13.9119 5.42611C13.9119 4.8315 13.4362 4.34931 12.8506 4.34931C12.2649 4.34931 11.7893 4.8315 11.7893 5.42611V14.9221C11.7893 15.5167 12.2649 15.9989 12.8506 15.9989C13.4362 15.9989 13.9119 15.5167 13.9119 14.9221V5.42611Z" fill="#5A646E"/>
<path d="M14.3156 1.27601C14.3092 1.60986 14.1733 1.92787 13.937 2.16178C13.7009 2.39543 13.3833 2.52632 13.0525 2.52632C12.7217 2.52632 12.404 2.39543 12.1679 2.16178C11.9316 1.92787 11.7957 1.60986 11.7893 1.27601C11.7892 0.937697 11.9223 0.613181 12.1593 0.373827C12.2764 0.255333 12.4156 0.161318 12.5688 0.0971691C12.7221 0.0330205 12.8863 0 13.0522 0C13.2181 0 13.3824 0.0330205 13.5356 0.0971691C13.6889 0.161318 13.828 0.255333 13.9452 0.373827C14.1822 0.613181 14.3153 0.937697 14.3152 1.27601H14.3156Z" fill="#00AEEF"/>
<path d="M27.0702 7.21725C26.0227 4.8089 23.5446 3.10692 20.7172 3.40124C19.7639 3.50356 18.847 3.82871 18.0382 4.35119C17.2291 4.87401 16.5501 5.57984 16.0543 6.41345C15.5583 7.24753 15.2588 8.18672 15.1793 9.15773C15.0993 10.129 15.2423 11.1063 15.5956 12.0116C15.9488 12.9172 16.5034 13.7275 17.2162 14.3794C17.9287 15.0307 18.7799 15.5059 19.7033 15.7677C20.6265 16.0295 21.5969 16.0704 22.5384 15.8873C23.4798 15.7041 24.3666 15.3019 25.1292 14.7122C25.2575 14.6123 25.3622 14.4845 25.4356 14.3383C25.509 14.1921 25.5495 14.0307 25.5535 13.8663C25.5617 13.5748 25.4557 13.2918 25.2586 13.0796C25.0616 12.8673 24.7897 12.7431 24.5026 12.7342C24.2559 12.7262 24.0139 12.8043 23.817 12.9555C23.0622 13.5474 22.1239 13.8458 21.1715 13.7968C20.3979 13.7567 19.652 13.4916 19.0227 13.0331C18.3906 12.5752 17.9001 11.9438 17.6089 11.2129C17.5692 11.1144 17.5668 11.0044 17.6021 10.9041C17.6375 10.8039 17.7081 10.7205 17.8003 10.6699C17.8615 10.6366 17.9298 10.6191 17.9992 10.6192H25.5675C25.9321 10.6207 26.289 10.512 26.5926 10.307C26.8962 10.102 27.1329 9.80983 27.2725 9.46778C27.3656 9.24069 27.4136 8.99721 27.414 8.75126C27.3987 8.22333 27.2844 7.7032 27.0771 7.21877L27.0702 7.21725ZM21.3608 5.56703C22.1711 5.56723 22.9627 5.81436 23.6331 6.27644C24.3039 6.73906 24.8227 7.3954 25.1222 8.16059C25.1475 8.22586 25.157 8.29636 25.1497 8.36611C25.1422 8.43581 25.1181 8.50259 25.0794 8.56069C25.0408 8.61878 24.9887 8.66643 24.9278 8.6995C24.867 8.73263 24.799 8.75006 24.73 8.75025H17.9912C17.9221 8.75033 17.8541 8.73289 17.7933 8.6995C17.7324 8.66601 17.6804 8.61831 17.6414 8.56097C17.6024 8.50363 17.5785 8.43614 17.5715 8.36611C17.5642 8.29636 17.5737 8.22586 17.5989 8.16059C17.8985 7.3954 18.4173 6.73906 19.0881 6.27644C19.7596 5.81667 20.5505 5.56976 21.3603 5.56703H21.3608ZM39.0624 13.8009C38.2856 13.801 37.5252 13.574 36.8722 13.1468C36.2185 12.7179 35.6985 12.1089 35.373 11.391C35.0509 10.6722 34.9391 9.87458 35.0507 9.09306C35.1623 8.31154 35.4928 7.57906 36.0027 6.98281L34.3536 5.55333C33.8197 6.18298 33.4138 6.91371 33.1592 7.70338C32.9041 8.49309 32.8047 9.32613 32.8669 10.1549C32.9289 10.9835 33.1518 11.7919 33.5165 12.5333C33.8864 13.2743 34.3967 13.9339 35.0182 14.4743C35.6394 15.0145 36.3594 15.4249 37.137 15.682C37.9144 15.939 38.7342 16.0373 39.5492 15.9712C40.3643 15.9052 41.1585 15.6758 41.8859 15.2963C42.6136 14.9172 43.2605 14.3959 43.7893 13.7623L42.1402 12.3333C41.7607 12.7932 41.2865 13.1628 40.751 13.4162C40.2159 13.6698 39.6325 13.8009 39.042 13.8004L39.0624 13.8009Z" fill="#5A646E"/>
<path d="M39.2404 3.36817C38.3458 3.36708 37.4616 3.5564 36.6484 3.92313C35.8345 4.28995 35.1108 4.82539 34.5266 5.49281L36.1761 6.88244C36.8786 6.08578 37.8729 5.59485 38.942 5.51675C40.011 5.43866 41.0681 5.77975 41.8825 6.4656C42.6971 7.15262 43.2034 8.12812 43.2913 9.18024C43.3787 10.2325 43.0403 11.2762 42.3498 12.0843L43.9992 13.4734C44.7668 12.5792 45.259 11.4881 45.4181 10.3281C45.5769 9.16792 45.3957 7.98719 44.8957 6.92487C44.3959 5.86302 43.5979 4.96392 42.5959 4.33356C41.5929 3.70553 40.4292 3.37075 39.2404 3.36817V3.36817Z" fill="#00AEEF"/>
<path d="M9.73922 13.007C9.55685 12.8416 9.32588 12.7465 9.08468 12.7373C8.84347 12.7282 8.60653 12.8056 8.41319 12.9567C7.83134 13.4225 7.13651 13.7086 6.40726 13.7829C5.67802 13.8572 4.94345 13.7165 4.28664 13.3769C3.62975 13.0367 3.07648 12.5118 2.6889 11.8611C2.30139 11.2098 2.09543 10.4582 2.09423 9.69097C2.09303 8.92379 2.29663 8.17149 2.68211 7.51878C3.06728 6.86656 3.61896 6.33982 4.27499 5.99792C4.9307 5.65569 5.66494 5.51237 6.39453 5.58421C7.12412 5.65605 7.81989 5.94018 8.40301 6.4044C8.5941 6.55846 8.83 6.63919 9.07121 6.6331C9.31242 6.627 9.5443 6.53444 9.72806 6.37091C9.84694 6.26434 9.94155 6.1324 10.0046 5.98371C10.0677 5.83503 10.0997 5.67264 10.0968 5.50924C10.0939 5.34583 10.0551 5.18547 9.98522 5.03983C9.91535 4.89419 9.81443 4.7658 9.69167 4.66634C8.79782 3.95069 7.73018 3.5112 6.60974 3.39769C5.48888 3.28378 4.35995 3.50091 3.35117 4.02442C2.34238 4.54792 1.49418 5.35682 0.902912 6.35923C0.31075 7.36174 -0.0019624 8.51729 9.26621e-06 9.69568C0.00198093 10.8741 0.318558 12.0285 0.914071 13.0288C1.50942 14.0281 2.36038 14.8331 3.3706 15.3526C4.38082 15.8722 5.50994 16.0855 6.63011 15.9685C7.75007 15.8511 8.8162 15.4079 9.70769 14.6892C9.82885 14.5898 9.92736 14.4635 9.99609 14.3194C10.0648 14.1753 10.102 14.017 10.1051 13.856C10.1081 13.695 10.077 13.5353 10.0138 13.3884C9.95059 13.2416 9.85698 13.1113 9.73971 13.007H9.73922Z" fill="#5A646E"/>
</svg>
