<svg width="499" height="346" viewBox="0 0 499 346" fill="none" xmlns="http://www.w3.org/2000/svg">
<path d="M355.257 70.2711C355.257 106.656 326.124 136.743 289.885 138.843C288.464 138.843 287.043 138.843 285.622 138.843C273.542 138.843 261.463 135.344 251.515 129.746C230.198 117.851 215.987 95.4606 215.987 69.5714C215.987 52.0787 222.382 35.9854 233.751 24.0904C246.541 10.0962 265.016 1 285.622 1C312.623 1 336.072 16.3936 347.441 38.7842C352.414 48.5802 355.257 59.0758 355.257 70.2711Z" fill="#F1F3F9" stroke="#8DB8EC" stroke-width="2" stroke-miterlimit="10"/>
<path opacity="0.1" d="M354.646 70.2714C354.646 106.656 325.513 136.744 289.274 138.843C275.774 136.744 262.984 133.245 250.904 130.446C229.587 118.551 215.376 96.1606 215.376 70.2714C215.376 52.7787 221.771 36.6854 233.14 24.7904C256.589 24.0907 283.59 26.1898 311.302 31.0877C324.092 33.1869 336.171 35.9857 347.54 38.7845C351.804 48.5804 354.646 59.0761 354.646 70.2714Z" fill="white"/>
<path d="M439.607 116.579C444.97 86.9045 378.848 50.4991 291.92 35.2657C204.991 20.0323 130.174 31.7395 124.811 61.4145C119.448 91.0894 185.571 127.495 272.499 142.728C359.428 157.962 434.245 146.254 439.607 116.579Z" fill="#F1F3F9" stroke="#8DB8EC" stroke-width="2" stroke-miterlimit="10"/>
<path d="M269.759 52.2098C270.154 47.2012 262.228 42.5095 252.056 41.7307C241.883 40.9518 233.316 44.3807 232.921 49.3893C232.525 54.398 240.451 59.0896 250.624 59.8685C260.796 60.6473 269.363 57.2184 269.759 52.2098Z" fill="#8DB8EC"/>
<path d="M180.351 65.0737C190.132 62.2142 196.884 55.9922 195.432 51.1765C193.98 46.3608 184.874 44.775 175.093 47.6345C165.312 50.4939 158.56 56.7159 160.012 61.5316C161.464 66.3473 170.57 67.9332 180.351 65.0737Z" fill="#8DB8EC"/>
<path d="M341.619 70.6189C342.513 65.673 335.094 60.2366 325.049 58.4763C315.004 56.716 306.136 59.2984 305.242 64.2443C304.349 69.1901 311.767 74.6265 321.812 76.3868C331.857 78.1471 340.725 75.5647 341.619 70.6189Z" fill="#8DB8EC"/>
<path d="M395.562 107.205C397.9 102.74 392.444 95.3876 383.375 90.7829C374.306 86.1782 365.059 86.065 362.721 90.53C360.383 94.9951 365.839 102.348 374.908 106.952C383.977 111.557 393.224 111.67 395.562 107.205Z" fill="#8DB8EC"/>
<path d="M273.348 94.9514L206.556 94.2517L111.434 269.979L378.418 297.867L348.668 118.741L273.348 94.9514Z" fill="url(#paint0_linear)"/>
<path d="M413.317 345H71.5371C80.7744 336.777 94.2751 328.555 109.907 322.388C118.434 319.304 128.382 315.193 138.33 313.138C168.173 304.915 204.412 299.776 242.782 299.776C288.969 299.776 331.602 306.971 364.288 318.277C375.657 322.388 385.605 326.499 394.132 331.638C401.948 335.75 408.343 339.861 413.317 345Z" fill="#F1F3F9" stroke="#8DB8EC" stroke-width="2" stroke-miterlimit="10"/>
<path d="M141.777 321.636C142.224 325.811 134.9 330.807 126.421 331.704C117.942 332.601 110.504 329.87 109.349 325.77C117.604 322.786 127.198 318.956 136.94 316.518C139.916 317.611 141.553 319.549 141.777 321.636Z" fill="#8DB8EC"/>
<path d="M202.991 315.169C214.371 315.169 223.597 312.976 223.597 310.271C223.597 307.566 214.371 305.373 202.991 305.373C191.61 305.373 182.384 307.566 182.384 310.271C182.384 312.976 191.61 315.169 202.991 315.169Z" fill="#8DB8EC"/>
<path d="M314.064 314.767C314.297 311.297 305.281 307.883 293.926 307.142C282.57 306.4 273.176 308.613 272.942 312.083C272.708 315.553 281.724 318.967 293.08 319.709C304.435 320.45 313.83 318.237 314.064 314.767Z" fill="#8DB8EC"/>
<path d="M390.472 332.839C387.648 332.515 384.257 332.624 380.103 331.443C368.889 329.455 360.116 324.928 360.52 321.452C360.601 320.757 360.601 320.757 361.387 320.143C372.359 324.217 382.331 328.158 390.472 332.839Z" fill="#8DB8EC"/>
<path d="M348.243 120.927C350.649 107.612 320.654 91.219 281.246 84.3132C241.839 77.4074 207.942 82.6037 205.535 95.9193C203.129 109.235 233.124 125.628 272.532 132.534C311.94 139.439 345.837 134.243 348.243 120.927Z" fill="#C8D0E0" stroke="#8DB8EC" stroke-width="2" stroke-miterlimit="10"/>
<path d="M497.734 345H476.159H28.8738H1" stroke="#D5DAE8" stroke-width="2" stroke-miterlimit="10" stroke-linecap="round" stroke-linejoin="round"/>
<path d="M193.197 288.781V302.775H184.67V316.07H168.327V302.775H132.799V286.682L165.485 241.901H183.96V288.781H193.197ZM169.038 260.093L148.432 288.781H169.038V260.093Z" fill="white" stroke="#8DB8EC" stroke-miterlimit="10" stroke-linejoin="round"/>
<path d="M238.519 317.47C221.465 317.47 206.543 302.776 206.543 278.986C206.543 255.196 221.465 240.502 238.519 240.502C255.572 240.502 270.494 255.196 270.494 278.986C271.204 302.076 256.283 317.47 238.519 317.47ZM238.519 302.776C246.335 302.776 254.862 295.079 254.862 278.286C254.862 262.193 247.045 253.796 238.519 253.796C230.703 253.796 222.176 261.493 222.176 278.286C222.886 295.079 230.703 302.776 238.519 302.776Z" fill="white" stroke="#8DB8EC" stroke-miterlimit="10" stroke-linejoin="round"/>
<path d="M345.659 288.781V302.775H337.132V316.07H320.789V302.775H285.261V286.682L317.947 241.901H336.422V288.781H345.659ZM320.789 260.093L300.183 288.781H320.789V260.093Z" fill="white" stroke="#8DB8EC" stroke-miterlimit="10" stroke-linejoin="round"/>
<defs>
<linearGradient id="paint0_linear" x1="244.943" y1="101.325" x2="244.943" y2="215.612" gradientUnits="userSpaceOnUse">
<stop stop-color="#BDC4D1" stop-opacity="0.53"/>
<stop offset="1" stop-color="#5D7CB8" stop-opacity="0"/>
</linearGradient>
</defs>
</svg>
