<svg id="Camada_1" data-name="Camada 1" xmlns="http://www.w3.org/2000/svg" xmlns:xlink="http://www.w3.org/1999/xlink" viewBox="0 0 394.58 377.85"><defs><style>.cls-1{fill:#fff;}.cls-2{fill:#f1f2f7;}.cls-3{mask:url(#mask);}.cls-4{fill:#e8ebf2;}.cls-5{fill:#e0e2ee;}.cls-6{fill:#d8dbea;}.cls-7{fill:#bec0d6;}.cls-8{fill:url(#Nova_amostra_de_gradiente_1);}.cls-9{fill:#e1e3ef;}</style><mask id="mask" x="98.41" y="202.33" width="226.52" height="89.67" maskUnits="userSpaceOnUse"><g id="mask0"><path class="cls-1" d="M324.93,202.33V292H98.41V202.33Z"/></g></mask><linearGradient id="Nova_amostra_de_gradiente_1" x1="183.44" y1="394.43" x2="151.56" y2="359.57" gradientTransform="matrix(1, 0, 0, -1, 0, 588)" gradientUnits="userSpaceOnUse"><stop offset="0" stop-color="#ff8960"/><stop offset="1" stop-color="#ff62a5"/></linearGradient></defs><title>Prancheta 5</title><path class="cls-2" d="M201.13,82a104.2,104.2,0,0,0-65.28,22.87h-29a6.86,6.86,0,0,0,0,13.72H126a6.86,6.86,0,0,1,4.83,11.71,6.8,6.8,0,0,1-4.83,2H86.84a6.86,6.86,0,0,0,0,13.72H104.6a105.19,105.19,0,0,0-8.33,41.17,106.69,106.69,0,0,0,1.14,15.6q.47,3.19,1.14,6.32c12.9-2,26.59-3.57,40.88-4.74l1.08,1,1-1.15c17.17-1.34,35.18-2.05,53.77-2.05,39.48,0,76.43,3.22,108,8.82a105.58,105.58,0,0,0,2.43-16.32q.27-3.71.26-7.47C306,129.1,259.05,82,201.13,82"/><path class="cls-2" d="M66.07,132H61.93a7,7,0,0,0,0,14h4.14a7,7,0,0,0,0-14"/><g class="cls-3"><path class="cls-4" d="M324.93,237a6.85,6.85,0,0,1-6.84,6.82H274.42a6.82,6.82,0,1,0,0,13.64h8.11a6.82,6.82,0,1,1,0,13.64H263.88A105,105,0,0,1,98.41,209.24c12.9-2,26.58-3.55,40.87-4.7l1.08,1,1-1.14c17.16-1.33,35.18-2,53.75-2,39.47,0,76.41,3.2,108,8.76a103.25,103.25,0,0,1-6.44,19.09h21.41a6.85,6.85,0,0,1,6.84,6.82"/></g><path class="cls-5" d="M305,194.37A109.63,109.63,0,0,1,302.58,211c-31.55-5.71-68.45-9-107.88-9-18.56,0-36.55.73-53.7,2.09l11.89-13.78,18.49,12.07,25-6.91L239.49,202l18.7-6.53,4.74,6.53,11.3-8.39,10.56,9.68L301.43,190Z"/><path class="cls-6" d="M243.62,200.4A41.18,41.18,0,0,0,251,176.62c-.19-24.3-21.84-43.83-48.35-43.61S154.81,153.08,155,177.38s21.84,43.83,48.35,43.61A51,51,0,0,0,229,213.93l19.8,4.66Z"/><path class="cls-7" d="M189,176a5,5,0,1,1-5-5,5,5,0,0,1,5,5"/><path class="cls-7" d="M207,176a5,5,0,1,1-5-5,5,5,0,0,1,5,5"/><path class="cls-7" d="M225,176a5,5,0,1,1-5-5,5,5,0,0,1,5,5"/><path class="cls-2" d="M141,204l-1,1-1-.86,2-.14"/><path class="cls-8" d="M150,211a14.94,14.94,0,0,0,2.76,8.62l-1.85,6.64,7.21-1.75A18.63,18.63,0,0,0,167.5,227c9.67,0,17.5-7.16,17.5-16s-7.83-16-17.5-16S150,202.16,150,211Z"/><path class="cls-1" d="M172,211a2,2,0,1,0,2-2,2,2,0,0,0-2,2"/><path class="cls-1" d="M166,211a2,2,0,1,0,2-2,2,2,0,0,0-2,2"/><path class="cls-1" d="M159,211a2,2,0,1,0,2-2,2,2,0,0,0-2,2"/><path class="cls-5" d="M139,204.26c-14.28,1.16-28,2.76-40.87,4.74q-.66-3.13-1.13-6.33L119.11,186Z"/><path class="cls-6" d="M238,238.5c0,1.93-17.46,3.5-39,3.5s-39-1.57-39-3.5,17.46-3.5,39-3.5,39,1.57,39,3.5"/><path class="cls-9" d="M302,271h0a7,7,0,1,1,7-7,7,7,0,0,1-7,7"/></svg>