<svg width="194" height="226" viewBox="0 0 194 226" fill="none" xmlns="http://www.w3.org/2000/svg">
<path d="M97 212.687C150.572 212.687 194 169.399 194 116C194 62.6014 150.572 19.3132 97 19.3132C43.4284 19.3132 0 62.6014 0 116C0 169.399 43.4284 212.687 97 212.687Z" fill="url(#paint0_linear_13_347)"/>
<g filter="url(#filter0_d_13_347)">
<path d="M152.613 74.7469H41.3867C37.8153 74.7469 34.92 77.6328 34.92 81.1927V216.554C34.92 220.114 37.8153 223 41.3867 223H152.613C156.185 223 159.08 220.114 159.08 216.554V81.1927C159.08 77.6328 156.185 74.7469 152.613 74.7469Z" fill="white"/>
</g>
<path d="M84.0667 94.0845H50.4401C48.2972 94.0845 46.5601 95.816 46.5601 97.9519C46.5601 100.088 48.2972 101.819 50.4401 101.819H84.0667C86.2096 101.819 87.9467 100.088 87.9467 97.9519C87.9467 95.816 86.2096 94.0845 84.0667 94.0845Z" fill="#B4DAFF"/>
<path d="M107.347 110.844H50.4401C48.2972 110.844 46.5601 112.575 46.5601 114.711C46.5601 116.847 48.2972 118.578 50.4401 118.578H107.347C109.49 118.578 111.227 116.847 111.227 114.711C111.227 112.575 109.49 110.844 107.347 110.844Z" fill="#DFEAFB"/>
<path d="M84.0667 128.892H50.4401C48.2972 128.892 46.5601 130.623 46.5601 132.759C46.5601 134.895 48.2972 136.627 50.4401 136.627H84.0667C86.2096 136.627 87.9467 134.895 87.9467 132.759C87.9467 130.623 86.2096 128.892 84.0667 128.892Z" fill="#B4DAFF"/>
<path d="M107.347 145.651H50.4401C48.2972 145.651 46.5601 147.382 46.5601 149.518C46.5601 151.654 48.2972 153.386 50.4401 153.386H107.347C109.49 153.386 111.227 151.654 111.227 149.518C111.227 147.382 109.49 145.651 107.347 145.651Z" fill="#DFEAFB"/>
<path d="M84.0667 163.699H50.4401C48.2972 163.699 46.5601 165.43 46.5601 167.566C46.5601 169.702 48.2972 171.434 50.4401 171.434H84.0667C86.2096 171.434 87.9467 169.702 87.9467 167.566C87.9467 165.43 86.2096 163.699 84.0667 163.699Z" fill="#B4DAFF"/>
<path d="M107.347 180.458H50.4401C48.2972 180.458 46.5601 182.189 46.5601 184.325C46.5601 186.461 48.2972 188.193 50.4401 188.193H107.347C109.49 188.193 111.227 186.461 111.227 184.325C111.227 182.189 109.49 180.458 107.347 180.458Z" fill="#DFEAFB"/>
<g filter="url(#filter1_d_13_347)">
<path d="M152.613 9H41.3867C37.8153 9 34.92 11.8859 34.92 15.4458V54.1205C34.92 57.6804 37.8153 60.5663 41.3867 60.5663H152.613C156.185 60.5663 159.08 57.6804 159.08 54.1205V15.4458C159.08 11.8859 156.185 9 152.613 9Z" fill="#1485FD"/>
</g>
<path d="M84.0667 23.1807H50.4401C48.2972 23.1807 46.5601 24.9122 46.5601 27.0481C46.5601 29.1841 48.2972 30.9156 50.4401 30.9156H84.0667C86.2096 30.9156 87.9467 29.1841 87.9467 27.0481C87.9467 24.9122 86.2096 23.1807 84.0667 23.1807Z" fill="#B4DAFF"/>
<path d="M107.347 39.9397H50.4401C48.2972 39.9397 46.5601 41.6712 46.5601 43.8072C46.5601 45.9431 48.2972 47.6746 50.4401 47.6746H107.347C109.49 47.6746 111.227 45.9431 111.227 43.8072C111.227 41.6712 109.49 39.9397 107.347 39.9397Z" fill="white"/>
<defs>
<filter id="filter0_d_13_347" x="28.92" y="65.7469" width="136.16" height="160.253" filterUnits="userSpaceOnUse" color-interpolation-filters="sRGB">
<feFlood flood-opacity="0" result="BackgroundImageFix"/>
<feColorMatrix in="SourceAlpha" type="matrix" values="0 0 0 0 0 0 0 0 0 0 0 0 0 0 0 0 0 0 127 0" result="hardAlpha"/>
<feOffset dy="-3"/>
<feGaussianBlur stdDeviation="3"/>
<feColorMatrix type="matrix" values="0 0 0 0 0.788235 0 0 0 0 0.803922 0 0 0 0 0.85098 0 0 0 0.349 0"/>
<feBlend mode="normal" in2="BackgroundImageFix" result="effect1_dropShadow_13_347"/>
<feBlend mode="normal" in="SourceGraphic" in2="effect1_dropShadow_13_347" result="shape"/>
</filter>
<filter id="filter1_d_13_347" x="28.92" y="0" width="136.16" height="63.5663" filterUnits="userSpaceOnUse" color-interpolation-filters="sRGB">
<feFlood flood-opacity="0" result="BackgroundImageFix"/>
<feColorMatrix in="SourceAlpha" type="matrix" values="0 0 0 0 0 0 0 0 0 0 0 0 0 0 0 0 0 0 127 0" result="hardAlpha"/>
<feOffset dy="-3"/>
<feGaussianBlur stdDeviation="3"/>
<feColorMatrix type="matrix" values="0 0 0 0 0.788235 0 0 0 0 0.803922 0 0 0 0 0.85098 0 0 0 0.349 0"/>
<feBlend mode="normal" in2="BackgroundImageFix" result="effect1_dropShadow_13_347"/>
<feBlend mode="normal" in="SourceGraphic" in2="effect1_dropShadow_13_347" result="shape"/>
</filter>
<linearGradient id="paint0_linear_13_347" x1="97" y1="19.3132" x2="97" y2="212.687" gradientUnits="userSpaceOnUse">
<stop stop-color="#E3ECFA"/>
<stop offset="1" stop-color="#DAE7FF"/>
</linearGradient>
</defs>
</svg>
