<svg width="206" height="190" viewBox="0 0 206 190" fill="none" xmlns="http://www.w3.org/2000/svg">
<path d="M10.5761 23.4632C13.021 22.6537 14.4473 20.0229 13.6323 17.5945C12.8173 15.1661 10.1686 13.7495 7.51984 14.559C5.07487 15.3685 3.64863 17.9993 4.46362 20.4277C5.27862 22.8561 7.92734 24.2727 10.5761 23.4632Z" fill="#EAEEF9"/>
<path d="M20.9671 8.08287C22.5971 7.47577 23.6159 5.65445 23.0046 4.03551C22.3934 2.41656 20.5597 1.40472 18.9297 2.01182C17.2997 2.61893 16.2809 4.44024 16.8922 6.05919C17.2997 7.67814 19.1334 8.68998 20.9671 8.08287Z" fill="#EAEEF9"/>
<path d="M193.455 44.8592C196.511 42.2284 196.715 37.574 193.862 34.7408C191.214 31.9077 186.527 31.7053 183.675 34.3361C180.619 36.9669 180.415 41.6213 183.267 44.4545C185.916 47.2877 190.602 47.49 193.455 44.8592Z" fill="#EAEEF9"/>
<path d="M204.456 59.0394C205.679 57.8251 205.883 56.0038 204.66 54.7896C203.438 53.5754 201.604 53.373 200.382 54.5873C199.159 55.8015 198.955 57.6228 200.178 58.837C201.197 60.2536 203.234 60.2536 204.456 59.0394Z" fill="#EAEEF9"/>
<path d="M18.9296 179.084C20.1521 177.87 20.3559 176.049 19.1334 174.835C17.9109 173.62 16.0772 173.418 14.8547 174.632C13.6322 175.846 13.4284 177.668 14.6509 178.882C15.8734 180.096 17.7071 180.298 18.9296 179.084Z" fill="#EAEEF9"/>
<path d="M95.9465 189C148.31 189 190.893 146.908 190.893 95.1013C190.689 43.0926 148.31 1 95.9465 1C43.3796 1 1 43.0926 1 94.8989C1 146.908 43.3796 189 95.9465 189Z" fill="#F1F3F9" stroke="#8DB8EC" stroke-width="2" stroke-miterlimit="10"/>
<path d="M158.957 46.4995V53.7719H158.394H151.26L41.8056 53.3989C39.7404 53.3989 37.6752 53.026 35.61 52.4666C35.4223 52.4666 35.2346 52.2801 35.0468 52.2801C32.4184 51.3478 30.1655 50.2289 28.2881 48.3642C26.7861 46.8724 25.6597 44.6348 25.6597 42.5836C25.6597 38.6677 28.8513 35.6841 33.3571 33.8194C34.8591 33.0735 36.7365 32.7006 38.6139 32.5141C39.3649 32.5141 40.1159 32.3276 40.8668 32.3276H144.689C145.815 32.3276 146.754 32.5141 147.693 32.7006C148.444 32.8871 149.195 33.0735 149.946 33.4465C155.39 35.6841 158.957 40.5324 158.957 46.4995Z" fill="#F1F3F9" stroke="#8DB8EC" stroke-width="2" stroke-miterlimit="10"/>
<path d="M172.287 65.1469V156.705C172.287 163.045 167.218 168.079 160.834 168.079H50.2538C41.0543 168.079 33.9201 163.79 29.4143 160.248C27.3491 158.569 26.0349 155.959 26.0349 153.348C26.0349 152.043 26.0349 150.737 26.0349 149.432C26.0349 147.567 26.0349 145.33 26.0349 143.092C26.0349 132.65 26.0349 118.664 25.8472 104.492C25.8472 102.441 25.8472 100.39 25.8472 98.1524C25.8472 90.6935 25.8472 83.2347 25.6594 76.1488C25.6594 74.0976 25.6594 72.0464 25.6594 69.8087C25.6594 55.8233 25.4717 45.3809 25.4717 42.9568C25.4717 47.0592 29.4143 50.7886 34.6711 52.2804C34.8588 52.2804 35.0466 52.4668 35.2343 52.4668C37.1117 53.0263 39.3647 53.3992 41.4298 53.3992L150.884 53.9586H158.769H160.647C167.218 53.7721 172.287 58.8069 172.287 65.1469Z" fill="white" stroke="#8DB8EC" stroke-width="2" stroke-miterlimit="10"/>
<path d="M172.287 91.0657V94.4222C172.099 94.4222 171.911 94.4222 171.536 94.4222H149.007C145.064 94.4222 141.685 95.9139 139.244 98.3381C136.991 100.576 135.302 103.932 135.114 107.475C135.114 107.662 135.114 108.035 135.114 108.221C135.114 115.866 141.309 122.02 149.007 122.02H171.536C172.662 122.02 173.601 121.647 173.977 121.088C174.164 120.901 174.352 120.528 174.352 120.342V92.7439C174.352 91.8116 173.413 91.2521 172.287 91.0657Z" fill="white" stroke="#8DB8EC" stroke-width="2" stroke-miterlimit="10"/>
<path d="M149.494 115.403C153.438 115.403 156.724 112.139 156.724 108.222C156.724 104.305 153.438 101.04 149.494 101.04C145.55 101.04 142.264 104.305 142.264 108.222C142.264 112.139 145.55 115.403 149.494 115.403Z" fill="#F1F3F9" stroke="#8DB8EC" stroke-width="2" stroke-miterlimit="10"/>
</svg>
