<svg width="262" height="215" viewBox="0 0 262 215" fill="none" xmlns="http://www.w3.org/2000/svg">
<path d="M144.609 186.292C193.853 186.292 233.775 146.64 233.775 97.5548C233.775 48.4697 193.677 8.81738 144.609 8.81738C95.3651 8.81738 55.4424 48.4697 55.4424 97.5548C55.4424 146.64 95.3651 186.292 144.609 186.292Z" fill="#F1F3F9" stroke="#8DB8EC" stroke-width="2" stroke-miterlimit="10"/>
<path d="M227.971 39.3863C231.954 39.3863 235.182 36.1798 235.182 32.2244C235.182 28.269 231.954 25.0625 227.971 25.0625C223.989 25.0625 220.761 28.269 220.761 32.2244C220.761 36.1798 223.989 39.3863 227.971 39.3863Z" fill="#F1F3F9"/>
<path d="M238.524 11.4376C241.244 11.4376 243.448 9.24781 243.448 6.54656C243.448 3.84531 241.244 1.65552 238.524 1.65552C235.804 1.65552 233.6 3.84531 233.6 6.54656C233.6 9.24781 235.804 11.4376 238.524 11.4376Z" fill="#F1F3F9"/>
<path d="M60.1905 39.2115C62.9102 39.2115 65.1149 37.0217 65.1149 34.3205C65.1149 31.6192 62.9102 29.4294 60.1905 29.4294C57.4708 29.4294 55.2661 31.6192 55.2661 34.3205C55.2661 37.0217 57.4708 39.2115 60.1905 39.2115Z" fill="#F1F3F9"/>
<path d="M30.1165 133.539C35.1673 133.539 39.2618 129.472 39.2618 124.455C39.2618 119.439 35.1673 115.372 30.1165 115.372C25.0657 115.372 20.9712 119.439 20.9712 124.455C20.9712 129.472 25.0657 133.539 30.1165 133.539Z" fill="#F1F3F9"/>
<path d="M144.556 137.097L141.44 137.055C140.817 137.046 140.203 136.419 140.25 135.655C140.297 134.891 140.783 134.242 141.406 134.25L144.521 134.293C145.145 134.301 145.759 134.929 145.712 135.693C145.626 136.602 145.179 137.105 144.556 137.097Z" fill="#CED7E2"/>
<path d="M130.452 55.5595L168.233 132.61C169.496 135.28 168.38 138.384 165.692 139.638L89.4779 175.388C86.7902 176.642 83.665 175.534 82.4023 172.865L35.0438 73.1409C33.781 70.4714 34.8968 67.3674 37.5845 66.1132L92.7431 40.315L130.452 55.5595Z" fill="white" stroke="#8DB8EC" stroke-width="2" stroke-miterlimit="10"/>
<path d="M92.7432 40.3154L102.845 61.6715C104.311 64.6091 108.086 65.904 111.043 64.4478L130.452 55.5599" fill="#8DB8EC"/>
<path d="M197.376 63.2392L198.469 148.935C198.465 151.885 196.124 154.22 193.154 154.216L108.868 154.273C105.898 154.269 103.547 151.943 103.551 148.994L103.529 38.7329C103.533 35.7835 105.875 33.4484 108.844 33.4523L169.813 33.4791L197.376 63.2392Z" fill="white" stroke="#8DB8EC" stroke-width="2" stroke-miterlimit="10"/>
<path d="M169.813 33.4792L169.781 57.0748C169.846 60.3529 172.704 63.1228 176.005 63.0583L197.376 63.2393" fill="#8DB8EC"/>
<path d="M250.415 101.247L215.168 179.567C213.995 182.21 210.716 183.367 208.095 182.057L131.733 147.082C129.073 145.917 127.908 142.661 129.081 140.018L175.589 39.9664C176.761 37.3242 180.04 36.167 182.662 37.4771L238.111 62.9185L250.415 101.247Z" fill="white" stroke="#8DB8EC" stroke-width="2" stroke-miterlimit="10"/>
<path d="M237.965 62.8802L228.028 84.3385C226.593 87.3777 228.119 91.0398 231.179 92.4651L250.415 101.247" fill="#8DB8EC"/>
</svg>
