<svg width="16" height="16" viewBox="0 0 16 16" fill="none" xmlns="http://www.w3.org/2000/svg">
<path d="M2.6 1.2C1.8268 1.2 1.2 1.8268 1.2 2.6V5C1.2 5.33137 0.931368 5.6 0.6 5.6C0.268632 5.6 0 5.33137 0 5V2.6C0 1.16406 1.16406 0 2.6 0H5C5.33137 0 5.6 0.268632 5.6 0.6C5.6 0.931368 5.33137 1.2 5 1.2H2.6ZM2.6 14.8C1.8268 14.8 1.2 14.1732 1.2 13.4V11C1.2 10.6686 0.931368 10.4 0.6 10.4C0.268632 10.4 0 10.6686 0 11V13.4C0 14.8359 1.16406 16 2.6 16H5C5.33137 16 5.6 15.7314 5.6 15.4C5.6 15.0686 5.33137 14.8 5 14.8H2.6ZM14.8 2.6C14.8 1.8268 14.1732 1.2 13.4 1.2H11C10.6686 1.2 10.4 0.931368 10.4 0.6C10.4 0.268632 10.6686 0 11 0H13.4C14.8359 0 16 1.16406 16 2.6V5C16 5.33137 15.7314 5.6 15.4 5.6C15.0686 5.6 14.8 5.33137 14.8 5V2.6ZM13.4 14.8C14.1732 14.8 14.8 14.1732 14.8 13.4V11C14.8 10.6686 15.0686 10.4 15.4 10.4C15.7314 10.4 16 10.6686 16 11V13.4C16 14.8359 14.8359 16 13.4 16H11C10.6686 16 10.4 15.7314 10.4 15.4C10.4 15.0686 10.6686 14.8 11 14.8H13.4ZM4.6 3.2C4.26863 3.2 4 3.46863 4 3.8V4.8C4 5.13137 4.26863 5.4 4.6 5.4C4.93137 5.4 5.2 5.13137 5.2 4.8V4.4H7.4V11.6H6.2C5.86863 11.6 5.6 11.8686 5.6 12.2C5.6 12.5314 5.86863 12.8 6.2 12.8H9.8C10.1314 12.8 10.4 12.5314 10.4 12.2C10.4 11.8686 10.1314 11.6 9.8 11.6H8.6V4.4H10.8V4.8C10.8 5.13137 11.0686 5.4 11.4 5.4C11.7314 5.4 12 5.13137 12 4.8V3.8C12 3.46863 11.7314 3.2 11.4 3.2H4.6Z" fill="#636363"/>
</svg>
