<svg width="12" height="17" viewBox="0 0 12 17" fill="none" xmlns="http://www.w3.org/2000/svg">
<path d="M2.4 4.8V2.4C2.4 1.07452 3.47452 0 4.8 0C5.23715 0 5.64701 0.116878 6.00002 0.321089C6.35303 0.116878 6.76288 0 7.20004 0C8.52552 0 9.60004 1.07452 9.60004 2.4V4.8H10.2C11.1941 4.8 12 5.60589 12 6.6V14.4C12 15.7255 10.9255 16.8 9.6 16.8H2.4C1.07452 16.8 0 15.7255 0 14.4V6.6C0 5.60589 0.805888 4.8 1.8 4.8H2.4ZM3.6 2.4V4.8H6V2.4C6 1.73726 5.46274 1.2 4.8 1.2C4.13726 1.2 3.6 1.73726 3.6 2.4ZM9.6 15.6C10.2627 15.6 10.8 15.0627 10.8 14.4V6.6C10.8 6.26863 10.5314 6 10.2 6H8.4V14.4C8.4 15.0627 8.93726 15.6 9.6 15.6ZM7.2 6H1.8C1.46863 6 1.2 6.26863 1.2 6.6V14.4C1.2 15.0627 1.73726 15.6 2.4 15.6H7.52108C7.31687 15.247 7.2 14.8371 7.2 14.4V6ZM7.2 2.4V4.8H8.40004V2.4C8.40004 1.73726 7.86278 1.2 7.20004 1.2C7.09654 1.2 6.99611 1.2131 6.9003 1.23774C7.09126 1.58209 7.2 1.97834 7.2 2.4Z" fill="#2E85EC"/>
</svg>
