<svg width="7" height="16" viewBox="0 0 7 16" fill="none" xmlns="http://www.w3.org/2000/svg">
<path d="M3.5 0C3.22386 0 3 0.223858 3 0.5V1.03544C1.30385 1.27806 0 2.73676 0 4.5V4.62872C0 6.05854 0.839636 7.35508 2.14436 7.93996L3 8.32352V13.9358C1.85948 13.7043 1 12.6959 1 11.4858V10.5014C1 10.2252 0.776142 10.0014 0.5 10.0014C0.223858 10.0014 0 10.2252 0 10.5014V11.4858C0 13.25 1.30483 14.708 3 14.9504V15.4964C3 15.7725 3.22386 15.9964 3.5 15.9964C3.77614 15.9964 4 15.7725 4 15.4964V14.9503C5.69712 14.7076 7 13.2481 6.99999 11.4858L6.99999 11.3656C6.99998 9.93889 6.16216 8.64517 4.86027 8.06156L4 7.67592V2.05001C5.14111 2.28165 5.99999 3.29052 6 4.49999L6 5.50041C6 5.77655 6.22386 6.00041 6.5 6.00041C6.77614 6.00041 7 5.77655 7 5.50041L7 4.49998C6.99999 2.73676 5.69614 1.27806 4 1.03544V0.5C4 0.223858 3.77614 0 3.5 0ZM1 4.5C1 3.29052 1.85888 2.28164 3 2.05001V7.22764L2.55342 7.02745C1.60825 6.60375 1 5.66451 1 4.62872V4.5ZM4 13.9358V8.7718L4.45121 8.97407C5.39355 9.3965 5.99999 10.3329 5.99999 11.3656L5.99999 11.4858C5.99999 12.6947 5.14172 13.704 4 13.9358Z" fill="#636363"/>
</svg>
