<svg width="259" height="231" viewBox="0 0 259 231" fill="none" xmlns="http://www.w3.org/2000/svg">
<path d="M136.854 229.357C191.363 229.357 235.553 185.466 235.553 131.134C235.553 76.8014 191.168 32.9102 136.854 32.9102C82.3463 32.9102 38.1558 76.8014 38.1558 131.134C38.1558 185.466 82.3463 229.357 136.854 229.357Z" fill="#F1F3F9" stroke="#8DB8EC" stroke-width="2" stroke-miterlimit="10"/>
<path d="M241.685 194.509C246.093 194.509 249.667 190.96 249.667 186.582C249.667 182.204 246.093 178.654 241.685 178.654C237.277 178.654 233.704 182.204 233.704 186.582C233.704 190.96 237.277 194.509 241.685 194.509Z" fill="#EFF2F8"/>
<path d="M253.365 163.573C256.376 163.573 258.816 161.149 258.816 158.159C258.816 155.169 256.376 152.745 253.365 152.745C250.355 152.745 247.915 155.169 247.915 158.159C247.915 161.149 250.355 163.573 253.365 163.573Z" fill="#EFF2F8"/>
<path d="M43.4117 66.5541C46.4221 66.5541 48.8626 64.1302 48.8626 61.1402C48.8626 58.1502 46.4221 55.7263 43.4117 55.7263C40.4013 55.7263 37.9609 58.1502 37.9609 61.1402C37.9609 64.1302 40.4013 66.5541 43.4117 66.5541Z" fill="#EFF2F8"/>
<path d="M10.1229 170.965C15.7137 170.965 20.2459 166.463 20.2459 160.911C20.2459 155.358 15.7137 150.856 10.1229 150.856C4.53219 150.856 0 155.358 0 160.911C0 166.463 4.53219 170.965 10.1229 170.965Z" fill="#EFF2F8"/>
<path d="M149.238 166.746H127.304C122.222 166.746 117.942 171.403 117.942 176.932V188.865C117.942 201.088 127.036 210.984 138.271 210.984C149.505 210.984 158.6 201.088 158.6 188.865V176.932C158.6 171.112 154.32 166.746 149.238 166.746Z" fill="white" stroke="#8DB8EC" stroke-width="2" stroke-miterlimit="10"/>
<path fill-rule="evenodd" clip-rule="evenodd" d="M147.291 52.4079C168.753 57.3387 184.739 76.4293 184.739 99.2434V105.352C184.739 156.878 223.793 190.608 223.793 190.608H48.5879C48.5879 190.608 87.9086 156.878 87.9086 105.352V99.2434C87.9086 76.4294 103.895 57.3388 125.357 52.408V50.3739C125.357 44.2652 130.172 39.4845 136.324 39.4845C142.476 39.4845 147.291 44.2652 147.291 50.3739V52.4079Z" fill="white"/>
<path d="M147.291 52.4079H146.291V53.2042L147.067 53.3825L147.291 52.4079ZM223.793 190.608V191.608H226.48L224.446 189.852L223.793 190.608ZM48.5879 190.608L47.9368 189.849L45.8863 191.608H48.5879V190.608ZM125.357 52.408L125.581 53.3826L126.357 53.2043V52.408H125.357ZM185.739 99.2434C185.739 75.9487 169.417 56.4651 147.515 51.4333L147.067 53.3825C168.089 58.2122 183.739 76.91 183.739 99.2434H185.739ZM185.739 105.352V99.2434H183.739V105.352H185.739ZM223.793 190.608C224.446 189.852 224.446 189.852 224.446 189.852C224.446 189.851 224.446 189.851 224.446 189.851C224.445 189.85 224.443 189.849 224.441 189.847C224.437 189.844 224.431 189.838 224.422 189.831C224.405 189.816 224.379 189.792 224.343 189.761C224.272 189.698 224.166 189.603 224.026 189.476C223.746 189.223 223.333 188.841 222.806 188.336C221.752 187.326 220.241 185.822 218.425 183.855C214.794 179.919 209.948 174.136 205.102 166.754C195.406 151.983 185.739 130.859 185.739 105.352H183.739C183.739 131.371 193.599 152.875 203.43 167.851C208.347 175.342 213.265 181.212 216.956 185.211C218.801 187.211 220.341 188.745 221.423 189.78C221.963 190.298 222.389 190.692 222.682 190.957C222.828 191.09 222.941 191.191 223.018 191.259C223.056 191.293 223.086 191.319 223.106 191.337C223.116 191.345 223.124 191.352 223.13 191.357C223.132 191.359 223.134 191.361 223.136 191.363C223.137 191.363 223.138 191.364 223.138 191.364C223.138 191.365 223.139 191.365 223.793 190.608ZM48.5879 191.608H223.793V189.608H48.5879V191.608ZM86.9086 105.352C86.9086 130.857 77.1762 151.98 67.414 166.751C62.5348 174.133 57.6558 179.917 53.9992 183.852C52.1712 185.819 50.6499 187.324 49.5882 188.334C49.0573 188.839 48.6415 189.22 48.3599 189.474C48.2191 189.601 48.1118 189.696 48.0405 189.759C48.0048 189.79 47.9782 189.814 47.9608 189.829C47.9521 189.836 47.9457 189.842 47.9417 189.845C47.9397 189.847 47.9383 189.848 47.9375 189.849C47.9371 189.849 47.9369 189.849 47.9367 189.849C47.9367 189.849 47.9368 189.849 48.5879 190.608C49.239 191.367 49.2394 191.367 49.24 191.366C49.2404 191.366 49.2411 191.366 49.2419 191.365C49.2435 191.363 49.2456 191.362 49.2484 191.359C49.2539 191.354 49.2618 191.348 49.272 191.339C49.2924 191.321 49.3221 191.295 49.3609 191.261C49.4384 191.193 49.5519 191.092 49.6991 190.96C49.9934 190.694 50.4224 190.301 50.9667 189.783C52.0554 188.747 53.6059 187.214 55.4643 185.214C59.1804 181.214 64.1315 175.345 69.0825 167.854C78.9807 152.877 88.9086 131.373 88.9086 105.352H86.9086ZM86.9086 99.2434V105.352H88.9086V99.2434H86.9086ZM125.133 51.4334C103.231 56.4653 86.9086 75.9488 86.9086 99.2434H88.9086C88.9086 76.9101 104.559 58.2124 125.581 53.3826L125.133 51.4334ZM126.357 52.408V50.3739H124.357V52.408H126.357ZM126.357 50.3739C126.357 44.8242 130.717 40.4845 136.324 40.4845V38.4845C129.626 38.4845 124.357 43.7063 124.357 50.3739H126.357ZM136.324 40.4845C141.93 40.4845 146.291 44.8242 146.291 50.3739H148.291C148.291 43.7063 143.022 38.4845 136.324 38.4845V40.4845ZM146.291 50.3739V52.4079H148.291V50.3739H146.291Z" fill="#8DB8EC"/>
<path d="M115.995 126.335C109.308 126.335 103.69 122.086 101.55 115.977C101.015 114.649 101.818 113.321 103.155 112.79C104.493 112.258 105.83 113.055 106.365 114.383C107.703 118.367 111.715 121.289 115.995 121.289C120.275 121.289 124.287 118.633 125.624 114.383C126.159 113.055 127.497 112.258 128.834 112.79C130.172 113.321 130.974 114.649 130.439 115.977C128.299 122.351 122.682 126.335 115.995 126.335Z" fill="#8DB8EC"/>
<path d="M156.385 126.334C149.698 126.334 144.081 122.085 141.941 115.976C141.406 114.648 142.208 113.32 143.546 112.789C144.883 112.258 146.221 113.055 146.756 114.383C148.093 118.366 152.106 121.288 156.385 121.288C160.665 121.288 164.677 118.632 166.015 114.383C166.55 113.055 167.887 112.258 169.225 112.789C170.562 113.32 171.365 114.648 170.83 115.976C168.69 122.35 163.073 126.334 156.385 126.334Z" fill="#8DB8EC"/>
<path d="M136.324 158.854C139.722 158.854 142.476 156.119 142.476 152.745C142.476 149.371 139.722 146.636 136.324 146.636C132.926 146.636 130.172 149.371 130.172 152.745C130.172 156.119 132.926 158.854 136.324 158.854Z" fill="#8DB8EC"/>
<path d="M169.29 8.99031V0H204.273V8.99031L180.403 37.5958H204.685V46.5861H168.056V37.5958L191.926 8.99031H169.29V8.99031Z" fill="#8DB8EC"/>
<path d="M198.099 76.4176V70.6965H220.735V76.4176L205.508 94.8069H221.147V100.528H197.276V94.8069L212.504 76.4176H198.099Z" fill="#8DB8EC"/>
</svg>
