<svg width="238" height="200" viewBox="0 0 238 200" fill="none" xmlns="http://www.w3.org/2000/svg">
<path d="M110.506 198.897C164.885 198.897 208.971 154.811 208.971 100.237C208.971 45.664 164.885 1.57812 110.506 1.57812C56.1269 1.57812 12.041 45.664 12.041 100.237C12.041 154.811 56.1269 198.897 110.506 198.897Z" fill="#F1F3F9" stroke="#8DB8EC" stroke-width="2" stroke-miterlimit="10"/>
<path d="M220.235 59.6472C224.633 59.6472 228.198 56.0822 228.198 51.6846C228.198 47.2869 224.633 43.7219 220.235 43.7219C215.838 43.7219 212.273 47.2869 212.273 51.6846C212.273 56.0822 215.838 59.6472 220.235 59.6472Z" fill="#F1F3F9"/>
<path d="M231.888 28.379C234.891 28.379 237.326 25.9444 237.326 22.9411C237.326 19.9378 234.891 17.5032 231.888 17.5032C228.884 17.5032 226.45 19.9378 226.45 22.9411C226.45 25.9444 228.884 28.379 231.888 28.379Z" fill="#F1F3F9"/>
<path d="M5.43791 65.2791C8.44118 65.2791 10.8758 62.8445 10.8758 59.8412C10.8758 56.838 8.44118 54.4033 5.43791 54.4033C2.43464 54.4033 0 56.838 0 59.8412C0 62.8445 2.43464 65.2791 5.43791 65.2791Z" fill="#F1F3F9"/>
<path d="M15.5362 183.553C21.1137 183.553 25.6352 179.032 25.6352 173.454C25.6352 167.877 21.1137 163.355 15.5362 163.355C9.95872 163.355 5.43726 167.877 5.43726 173.454C5.43726 179.032 9.95872 183.553 15.5362 183.553Z" fill="#F1F3F9"/>
<path d="M171.488 42.7511V123.737C171.488 128.592 167.41 132.671 162.555 132.671H28.5489C23.6937 132.671 19.6152 128.787 19.6152 123.737V42.7511C19.6152 37.8958 23.6937 33.8174 28.5489 33.8174H162.555C167.41 33.8174 171.488 37.8958 171.488 42.7511Z" fill="#F1F3F9" stroke="#8DB8EC" stroke-width="2" stroke-miterlimit="10"/>
<path d="M195.376 173.455H70.8865C63.3123 173.455 57.2917 167.434 57.2917 159.86V88.1958C57.2917 80.6216 63.3123 74.6011 70.8865 74.6011H195.376C202.95 74.6011 208.971 80.6216 208.971 88.1958V159.86C208.971 167.434 202.95 173.455 195.376 173.455Z" fill="white" stroke="#8DB8EC" stroke-width="2" stroke-miterlimit="10"/>
<path d="M95.7458 151.121H75.9362C74.1883 151.121 72.8289 149.761 72.8289 148.013C72.8289 146.265 74.1883 144.906 75.9362 144.906H95.7458C97.4937 144.906 98.8531 146.265 98.8531 148.013C98.8531 149.761 97.4937 151.121 95.7458 151.121Z" fill="#8DB8EC"/>
<path d="M127.79 151.121H107.981C106.233 151.121 104.873 149.761 104.873 148.013C104.873 146.265 106.233 144.906 107.981 144.906H127.79C129.538 144.906 130.898 146.265 130.898 148.013C130.898 149.761 129.538 151.121 127.79 151.121Z" fill="#8DB8EC"/>
<path d="M159.835 151.121H140.026C138.278 151.121 136.918 149.761 136.918 148.013C136.918 146.265 138.278 144.906 140.026 144.906H159.835C161.583 144.906 162.942 146.265 162.942 148.013C162.942 149.761 161.583 151.121 159.835 151.121Z" fill="#8DB8EC"/>
<path d="M191.88 151.121H172.071C170.323 151.121 168.963 149.761 168.963 148.013C168.963 146.265 170.323 144.906 172.071 144.906H191.88C193.628 144.906 194.988 146.265 194.988 148.013C194.988 149.761 193.628 151.121 191.88 151.121Z" fill="#8DB8EC"/>
<path d="M184.695 113.832C191.13 113.832 196.347 108.615 196.347 102.18C196.347 95.7442 191.13 90.5271 184.695 90.5271C178.259 90.5271 173.042 95.7442 173.042 102.18C173.042 108.615 178.259 113.832 184.695 113.832Z" fill="white"/>
<path d="M169.352 113.832C175.787 113.832 181.005 108.615 181.005 102.18C181.005 95.7442 175.787 90.5271 169.352 90.5271C162.916 90.5271 157.699 95.7442 157.699 102.18C157.699 108.615 162.916 113.832 169.352 113.832Z" fill="#8DB8EC"/>
<path d="M97.4942 117.522H75.7425C74.1888 117.522 72.8293 116.162 72.8293 114.609V100.626C72.8293 99.0719 74.1888 97.7124 75.7425 97.7124H97.2999C98.8536 97.7124 100.213 99.0719 100.213 100.626V114.609C100.407 116.162 99.0478 117.522 97.4942 117.522Z" fill="#8DB8EC"/>
</svg>
