<svg style="margin-right:8px " width="36" height="37" viewBox="0 0 36 37" fill="none"
                                        xmlns="http://www.w3.org/2000/svg">
                                        <rect x="0.5" y="1" width="35" height="35" rx="3.5" stroke="#2E85EC" />
                                        <path
                                            d="M22.2506 11.6801C21.9994 12.0095 22.0627 12.4801 22.3921 12.7313C24.1804 14.0951 25.25 16.2082 25.25 18.5C25.25 22.236 22.4242 25.312 18.7933 25.7071L19.4697 25.0303C19.7626 24.7374 19.7626 24.2626 19.4697 23.9697C19.2034 23.7034 18.7867 23.6792 18.4931 23.8971L18.409 23.9697L16.409 25.9697C16.1427 26.2359 16.1185 26.6526 16.3364 26.9462L16.409 27.0303L18.409 29.0303C18.7019 29.3232 19.1768 29.3232 19.4697 29.0303C19.7359 28.7641 19.7601 28.3474 19.5423 28.0538L19.4697 27.9697L18.7194 27.2208C23.2154 26.855 26.75 23.0903 26.75 18.5C26.75 15.7353 25.4582 13.1832 23.3017 11.5386C22.9724 11.2874 22.5017 11.3507 22.2506 11.6801ZM16.5303 7.96967C16.2374 8.26256 16.2374 8.73744 16.5303 9.03033L17.2796 9.77923C12.7841 10.1456 9.25 13.9101 9.25 18.5C9.25 21.1445 10.4313 23.5974 12.4308 25.2491C12.7502 25.5129 13.2229 25.4679 13.4867 25.1485C13.7505 24.8292 13.7054 24.3564 13.3861 24.0926C11.7279 22.7229 10.75 20.6922 10.75 18.5C10.75 14.7644 13.5753 11.6886 17.2057 11.293L16.5303 11.9697C16.2374 12.2626 16.2374 12.7374 16.5303 13.0303C16.8232 13.3232 17.2981 13.3232 17.591 13.0303L19.591 11.0303C19.8839 10.7374 19.8839 10.2626 19.591 9.96967L17.591 7.96967C17.2981 7.67678 16.8232 7.67678 16.5303 7.96967Z"
                                            fill="#2E85EC" />
                                    </svg>