<svg xmlns="http://www.w3.org/2000/svg" viewBox="0 0 54.96 54.61"><defs><style>.cls-1{fill:#fff;}</style></defs><g id="Layer_2" data-name="Layer 2"><g id="Layer_1-2" data-name="Layer 1"><path class="cls-1" d="M54.17,0C47.09,3.93,40,7.85,32.89,11.78c-3.54,0-7.12,0-10.66-.08C15.11,7.81,8,3.93.91,0,2.62,7.38,4.3,14.75,6,22.13c7.15,10.31,14.35,20.62,21.51,31Q38.26,37.64,49,22.13C50.71,14.75,52.42,7.38,54.17,0Z"/><path class="cls-1" d="M5.09,23.56C3.38,28,1.71,32.4,0,36.84c8.87,5.91,17.74,11.78,26.61,17.69Q15.87,39.07,5.09,23.56Z"/><path class="cls-1" d="M49.83,23.56C51.54,28,53.25,32.48,55,36.92c-8.87,5.91-17.74,11.78-26.6,17.69C35.51,44.3,42.67,33.91,49.83,23.56Z"/></g></g></svg>