<svg xmlns="http://www.w3.org/2000/svg" viewBox="0 0 251 44"><defs><style>.cls-1{fill:#fff;}.cls-2{fill:#ff4e05;}</style></defs><g id="Layer_2" data-name="Layer 2"><g id="Layer_1-2" data-name="Layer 1"><path class="cls-1" d="M83.23,6.1H88.8V26a2.44,2.44,0,0,0,.7,1.25,2.24,2.24,0,0,0,1.49.6h8.92c0,1.82,0,3.64,0,5.46-5.79-.06-9.59-.09-11.17,0a5.15,5.15,0,0,1-1.14-.06,5.34,5.34,0,0,1-3-1.85,6,6,0,0,1-1.39-3.51Q83.25,17,83.23,6.1Z"/><path class="cls-1" d="M79.82,6c-2.88,0-5.76,0-8.61,0a12.83,12.83,0,0,0-5,1.22A13.49,13.49,0,0,0,58.3,19.12,13.84,13.84,0,0,0,61,27.75a13.61,13.61,0,0,0,7.18,5,13.12,13.12,0,0,0,3.61.47h8.1V27.75H71.21a8.32,8.32,0,0,1-5.64-2.91,8.49,8.49,0,0,1-1.86-5.91A8.45,8.45,0,0,1,66.4,13.5a8.63,8.63,0,0,1,3.86-1.91c1.26-.32,2-.19,4.62-.16,1.17,0,2.88,0,5,0C79.82,9.61,79.82,7.79,79.82,6Z"/><path class="cls-1" d="M114.53,27.72a8.05,8.05,0,1,1,8-8A8.13,8.13,0,0,1,114.53,27.72ZM114.44,6a13.59,13.59,0,1,0,13.45,13.57A13.64,13.64,0,0,0,114.44,6Z"/><path class="cls-1" d="M215.24,27.72a8.05,8.05,0,1,1,8-8A8.13,8.13,0,0,1,215.24,27.72ZM215.11,6a13.61,13.61,0,1,0,13.48,13.61A13.62,13.62,0,0,0,215.11,6Z"/><path class="cls-1" d="M172.89,25.45A6,6,0,0,1,169,27h-6.39V12h6.71a6,6,0,0,1,2,.51,7.51,7.51,0,0,1,1.46.93,8.13,8.13,0,0,1,2.72,6.29A8,8,0,0,1,172.89,25.45Zm3-16.86a14.18,14.18,0,0,0-2.28-1.5c-.41-.19-.86-.38-1.36-.58A12.76,12.76,0,0,0,170,6c-4.24,0-8.45,0-12.69,0V33.24H169a11.13,11.13,0,0,0,7.09-2.78,14.63,14.63,0,0,0,4.75-10.38A15,15,0,0,0,175.87,8.59Z"/><path class="cls-1" d="M130.48,6c1.84,0,3.71,0,5.54,0,0,4.69,0,7.05,0,8.33,0,.09,0,.35,0,.73,0,.16,0,2.33.06,4.19a15.79,15.79,0,0,0,.51,4.27,6.91,6.91,0,0,0,5.92,4.25,6.81,6.81,0,0,0,6.14-3.93c.31-.67.41-1.27.5-4.27.07-2.5,0-4.57,0-6V6c1.84,0,3.67,0,5.48,0,0,4.31-.07,8.62-.1,12.9a15.42,15.42,0,0,1-1.07,6.36,13.64,13.64,0,0,1-3.58,5.11,10.93,10.93,0,0,1-13.77.76,14,14,0,0,1-4.46-5.65,15.88,15.88,0,0,1-1-3.74,21.66,21.66,0,0,1-.16-2.42c0-1.22,0-2.91,0-5C130.48,11.56,130.48,8.78,130.48,6Z"/><path class="cls-1" d="M182.89,33.27h6V13.35a2.19,2.19,0,0,1,.76-1.25,2.47,2.47,0,0,1,1.62-.6h3.51l6-.1c0-1.79-.06-3.58-.06-5.4C192.48,6,189,6,188.91,6h-.23a4.43,4.43,0,0,0-1,.09A5.63,5.63,0,0,0,184.48,8,5.83,5.83,0,0,0,183,11.5C182.89,18.74,182.89,26,182.89,33.27Z"/><path class="cls-1" d="M196.44,22.32c-2.56,0-5.13,0-7.69,0V16.89c2.53,0,5.09-.06,7.63-.06C196.38,18.65,196.41,20.47,196.44,22.32Z"/><path class="cls-1" d="M251,6.1h-6.77l-5.35,8.11q-2.24-3.45-4.46-6.9a2.7,2.7,0,0,0-.8-.8,2.46,2.46,0,0,0-1.39-.41h-5.5c3,4.53,6,9.07,9,13.6l-9,13.6h6.77l5.35-8.11c1.58,2.43,3.13,4.86,4.71,7.28a1.7,1.7,0,0,0,.57.61,1.36,1.36,0,0,0,.89.19H251c-3-4.53-6-9.07-9-13.6Z"/><path class="cls-2" d="M43.61,0,26.17,9.77l-8.73-.06C11.61,6.48,5.82,3.23,0,0L4.18,18.33Q13,31.17,21.81,44L39.37,18.33C40.79,12.23,42.22,6.1,43.61,0Z"/><path class="cls-1" d="M4.18,18.33,0,29.34,21.81,44Q13,31.16,4.18,18.33Z"/><path class="cls-1" d="M39.4,18.23c1.39,3.71,2.82,7.41,4.21,11.08L21.81,44C27.66,35.41,33.55,26.82,39.4,18.23Z"/></g></g></svg>