<svg xmlns="http://www.w3.org/2000/svg" viewBox="0 0 198.98 90.26"><defs><style>.cls-1{fill:#fff;}</style></defs><g id="Layer_2" data-name="Layer 2"><g id="Layer_1-2" data-name="Layer 1"><path class="cls-1" d="M25.76,62.5h5.75V82.8a2.37,2.37,0,0,0,2.25,1.89H43c0,1.85,0,3.71,0,5.57-6-.07-9.9-.1-11.53,0a5.78,5.78,0,0,1-1.18-.07,5.46,5.46,0,0,1-3.14-1.89,6.11,6.11,0,0,1-1.44-3.58C25.76,77.29,25.76,69.89,25.76,62.5Z"/><path class="cls-1" d="M22.23,62.37c-3,0-5.95,0-8.89,0a13.22,13.22,0,0,0-5.2,1.24,14.21,14.21,0,0,0-5.35,4.27A13.78,13.78,0,0,0,0,75.76a14,14,0,0,0,2.78,8.8,14.1,14.1,0,0,0,7.41,5,13.66,13.66,0,0,0,3.73.48h8.36V84.56H13.34a8.63,8.63,0,0,1-5.82-3A8.32,8.32,0,0,1,8.37,70a8.93,8.93,0,0,1,4-2c1.31-.33,2-.2,4.77-.16,1.21,0,3,0,5.13,0C22.23,66.08,22.23,64.22,22.23,62.37Z"/><path class="cls-1" d="M58.07,84.56a8.22,8.22,0,1,1,8.24-8.22A8.33,8.33,0,0,1,58.07,84.56Zm-.13-22.19A13.88,13.88,0,1,0,71.86,76.25,14,14,0,0,0,57.94,62.37Z"/><path class="cls-1" d="M162,84.56a8.22,8.22,0,1,1,8.23-8.22A8.34,8.34,0,0,1,162,84.56Zm-.1-22.19a13.88,13.88,0,1,0,13.92,13.88A14,14,0,0,0,161.92,62.37Z"/><path class="cls-1" d="M118.33,82.24a6.22,6.22,0,0,1-4,1.53h-6.6V68.56h6.93a6.21,6.21,0,0,1,2.06.52,8.15,8.15,0,0,1,1.5.94A8.31,8.31,0,0,1,121,76.44,8.2,8.2,0,0,1,118.33,82.24ZM121.4,65a14.31,14.31,0,0,0-2.35-1.53c-.43-.2-.88-.39-1.41-.59a12.9,12.9,0,0,0-2.28-.52c-4.38,0-8.73,0-13.11,0V90.19h12.09a11.55,11.55,0,0,0,7.32-2.83,14.86,14.86,0,0,0,4.9-10.59A15.25,15.25,0,0,0,121.4,65Z"/><path class="cls-1" d="M74.54,62.37c1.9,0,3.83,0,5.72,0,0,4.79,0,7.2,0,8.5,0,.1,0,.36,0,.75,0,.17,0,2.38.06,4.27a16.42,16.42,0,0,0,.52,4.37,7.14,7.14,0,0,0,6.12,4.33,7,7,0,0,0,6.33-4c.33-.68.43-1.3.53-4.36.06-2.54,0-4.66,0-6.1V62.4c1.89,0,3.79,0,5.65,0,0,4.39-.07,8.79-.1,13.16A15.5,15.5,0,0,1,98.2,82a13.77,13.77,0,0,1-3.69,5.22A11.4,11.4,0,0,1,80.29,88a14.22,14.22,0,0,1-4.6-5.77,16.36,16.36,0,0,1-1-3.81A22.75,22.75,0,0,1,74.48,76c0-1.23,0-3,0-5C74.54,68.07,74.54,65.23,74.54,62.37Z"/><path class="cls-1" d="M128.66,90.19h6.14V69.86a2.24,2.24,0,0,1,.78-1.27,2.54,2.54,0,0,1,1.67-.62h3.63l6.17-.1c0-1.82-.06-3.65-.06-5.5l-12.13,0h-.22a4.29,4.29,0,0,0-1,.1,5.83,5.83,0,0,0-3.33,1.89A6,6,0,0,0,128.75,68C128.66,75.4,128.66,82.8,128.66,90.19Z"/><path class="cls-1" d="M142.64,79c-2.65,0-5.29,0-7.94,0V73.48c2.62,0,5.26-.07,7.88-.07C142.58,75.3,142.61,77.16,142.64,79Z"/><path class="cls-1" d="M199,62.5h-7l-5.52,8.27c-1.54-2.34-3.07-4.69-4.61-7a2.76,2.76,0,0,0-.81-.81,2.6,2.6,0,0,0-1.44-.42h-5.69c3.11,4.62,6.18,9.25,9.28,13.88l-9.28,13.88h7L186.43,82c1.63,2.48,3.23,5,4.87,7.43a1.65,1.65,0,0,0,.58.62,1.42,1.42,0,0,0,.92.2h6.14c-3.1-4.63-6.17-9.26-9.28-13.89Z"/><path class="cls-1" d="M121.4,0c-5.81,3.23-11.66,6.45-17.48,9.68-2.91,0-5.85,0-8.76-.07C89.31,6.42,83.5,3.23,77.65,0c1.4,6.06,2.78,12.12,4.18,18.18,5.88,8.47,11.8,17,17.68,25.45q8.82-12.71,17.61-25.45C118.56,12.12,120,6.06,121.4,0Z"/><path class="cls-1" d="M81.08,19.35C79.67,23,78.3,26.62,76.9,30.27,84.18,35.13,91.47,40,98.76,44.8Q89.93,32.1,81.08,19.35Z"/><path class="cls-1" d="M117.84,19.35c1.4,3.65,2.81,7.34,4.22,11-7.29,4.85-14.58,9.67-21.87,14.53C106.08,36.4,112,27.86,117.84,19.35Z"/></g></g></svg>