<svg version="1.1" id="Layer_1" xmlns="http://www.w3.org/2000/svg" xmlns:xlink="http://www.w3.org/1999/xlink" x="0px" y="0px" viewBox="0 0 1546 1208" style="enable-background:new 0 0 1546 1208;" xml:space="preserve">
<style type="text/css">
	.st0{fill:url(#SVGID_1_);stroke:url(#SVGID_1_);stroke-width:2px;}
	.st1{fill:url(#SVGID_2_);stroke:url(#SVGID_2_);stroke-width:2px;}
	.st2{fill:url(#SVGID_3_);stroke:url(#SVGID_3_);stroke-width:2px;}
	.st3{fill:url(#SVGID_4_);stroke:url(#SVGID_4_);stroke-width:2px;}
	.st4{fill:url(#SVGID_5_);stroke:url(#SVGID_5_);stroke-width:2px;}
	.st5{fill:url(#SVGID_6_);stroke:url(#SVGID_6_);stroke-width:2px;}

	svg {

        max-width: 800px;
        margin: 0 auto;
		background: #fff;
	}

	@keyframes offset {

		25% {
 
			stroke-dashoffset: 0;
		}

		50% {

            opacity: 1;
			stroke-dashoffset: 0;
		}

		75% {
 
            opacity: 0;
			stroke-dashoffset: -2800;
		}

		100% {

            opacity: 0;
			stroke-dashoffset: -2800;
		}
	}

	.sub_one path {

		fill: transparent;
		stroke-width: 12px;
		stroke-dasharray: 2800;
		stroke-dashoffset: 2800;
		animation: offset 5s 2s linear infinite;
	}

	@keyframes fade_in {

		20% {
 
			opacity: 0;
		}

		40% {

			opacity: 1;
		}

		50% {

			opacity: 1;
		}

		70% {
 
			opacity: 0;
		}

		100% {

			opacity: 0;
		}
	}

	.sub_two {

		opacity: 0;
		animation: fade_in 5s 2s linear infinite;
	}

	@keyframes pulsating_effect {

        35% {

           opacity: 0;
           transform: scale(1);
        }

        47.5% {

        	opacity: .5;
        }

        60% {

           opacity: 0;
           transform: scale(1.07);
        }

        100% {

           opacity: 0;
           transform: scale(1.07);
        }
    }

    .bg {

        opacity: 0;
        transform-origin: 790px 672px;
        animation: pulsating_effect 5s 2s linear infinite;
    }
</style>
<g class="bg">
	<path class="st0" d="M898.4,192.6c2.7-10.5,6.4-20.9,11.4-30.6c11,12.7,22.9,24.6,34.2,37c16,17.4,31.6,35.2,46.2,53.8
		c11.6,15,22.9,30.4,31.9,47.1c5.6,10.5,9.9,21.8,12.4,33.4c-7.2-2.6-14.1-6.1-21.4-8.6c-26.7-9.1-55-12.4-83.1-11.8
		c-6.7-0.5-13.3,1.7-20,0.9c-1.9-1-3.2-2.8-4.8-4.2c-4.2-4.1-9-7.4-13.4-11.2c0-10.2-1.4-20.3-1.1-30.5
		C890.4,242.7,892,217.1,898.4,192.6z"/>
	<path class="st1" d="M715.8,223.9c20.9,0.9,41.4,5.8,61.2,12.2c37.7,12.4,73.1,31.4,105,54.9c3.3,2.5,6.7,4.8,9.8,7.6
		c4.4,3.9,9.3,7.1,13.4,11.2c1.5,1.4,2.9,3.1,4.8,4.2c6.7,0.8,13.3-1.3,20-0.9c28.1-0.6,56.5,2.7,83.1,11.8
		c7.3,2.5,14.2,5.9,21.4,8.6c25.7,12.3,47.8,31.4,65.7,53.5c17.3,21.2,31.2,44.8,46.3,67.6c13.7,19.8,34.7,33,56.3,42.9
		c19.4,8.9,40,14.8,60.5,20.1c-8.4,0.8-16.8-0.9-25.2-1.1c-67.9-4.1-136.3-5.6-204.1,1.3c-22.4,2.3-44.7,5.9-66.5,11.8
		c-16.1,4.6-32.3,10.3-46.1,20.1c-5.5,3.9-10.3,8.7-14.8,13.6c-20.8-7.6-42.8-11.1-64.7-13.1c-30.3-1.8-61,1.9-89.9,11.3
		c-30.9,10-59.8,26.1-84.9,46.7c-9.8-4.9-20.2-8-30.5-11.4c15.4-38.5,33.5-75.8,52.9-112.4c-7.9,2.7-15.9,5.4-23.9,7.9
		c2.9-10.4,8.9-19.6,15-28.3c8.7-12.1,18.5-23.4,28.6-34.5c18.5-20.1,38-39.2,58.4-57.4c-18.1-32.2-35.4-65.3-45.4-101
		C718.1,255.6,715.6,239.8,715.8,223.9z"/>
	<path class="st2" d="M1034,517.6c67.8-7,136.2-5.4,204.1-1.3c8.4,0.2,16.8,1.9,25.2,1.1c6.9,1.2,13.9,1.9,20.9,2.4
		c-4.4,9.9-6.3,20.9-12,30.3c-8.1,13.3-18.8,25.9-33.3,32.6c-22.9,11-48.9,12-73.9,11.4c-31.2-1.1-62.2-4.9-93.1-8.7
		c-10.7-0.7-21.4-2.5-32.1-1c-9.8,1.5-19.9,5.1-26.7,12.7c-4.8,5-7,11.7-10.8,17.4c-0.8,0.9-1.3,2.2-2.5,2.5c-0.7,0.1-2,0.2-2.7,0.3
		c-25.8-24.3-57-42.7-90.5-54.2c4.5-5,9.2-9.8,14.8-13.6c13.8-9.8,29.9-15.5,46.1-20.1C989.3,523.4,1011.7,519.9,1034,517.6z"/>
	<path class="st3" d="M752.1,561.4c28.9-9.4,59.6-13.1,89.9-11.3c21.9,2,43.9,5.5,64.7,13.1c33.5,11.5,64.7,29.9,90.5,54.2
		c0.7-0.1,2-0.2,2.7-0.3c3.1,6.6,8.9,11,13.5,16.5c12.5,14,23.4,29.5,32.7,45.8c21.4-13,45.5-22.6,70.8-23.7
		c40.4-3,81.8,11.4,111.4,39c22.5,20.8,38.2,48.9,43.9,79c31.8,13.2,57.5,39.4,71.2,70.9c16.3,37.7,17.8,82.2,1.4,120.1
		c-11.7,27.4-31.8,51.2-57.1,67c-17.2,10.8-36.5,18.2-56.6,21.1c-13.3,2.2-26.8,0.7-40.1,1.3c-13.3,0.5-26.6-0.3-40-0.1
		c-56,0-112,0-168,0c-55.7,0.1-111.4-0.2-167.1,0.3c-53.3-0.5-106.6-0.2-160-0.3c-13.7-0.2-27.4,0.7-41,0
		c-51.7,0.1-103.3-0.2-155,0.3c-26-0.4-51.9-0.2-77.9-0.3c3.2-17.1,6.6-34.3,12-50.9c2.1-5.8,2.9-12,5.2-17.8
		c11.4-32.2,26.7-63,45.6-91.5c4.3-6.6,9-13,13.4-19.5c8.8-12.7,19.1-24.3,29.4-35.7c6.4-5.9,11.5-13.1,18.4-18.5
		c36.3-35.8,82.6-62.3,133.1-71.5c13.1-2.9,26.6-3.8,39.9-4.8c23.6-0.7,47.1,2.2,70.4,5.6c12.2,2,24.3,5,36.6,5.6
		c3.2,0.2,7.9-0.3,8.6-4.3c0-5.2-3.4-9.5-5.5-14c-14.3-27.5-30.5-54.3-51.5-77.3c-13.5-14.7-29-27.5-46-38.1
		c-7.8-5.1-16.3-8.8-24.4-13.4C692.3,587.5,721.2,571.4,752.1,561.4z"/>
	<path class="st4" d="M523.1,587.4c9.2-1.5,18.5-1.7,27.9-1.7c28.9-0.4,58,2.8,85.7,10.9c10.3,3.4,20.8,6.5,30.5,11.4
		c8,4.6,16.6,8.3,24.4,13.4c16.9,10.6,32.5,23.3,46,38.1c21,23,37.2,49.8,51.5,77.3c2.1,4.5,5.5,8.8,5.5,14
		c-0.7,3.9-5.4,4.5-8.6,4.3c-12.4-0.6-24.5-3.6-36.6-5.6c-23.3-3.5-46.8-6.3-70.4-5.6c-13.4,1-26.8,2-39.9,4.8
		c-50.5,9.1-96.8,35.6-133.1,71.5c-6.9,5.4-12,12.6-18.4,18.5c-10.3,11.4-20.6,23-29.4,35.7c-0.5-0.4-1.4-1.2-1.9-1.5
		c11.9-16,24.7-31.5,39-45.4c4-4.3,8.9-7.8,12.3-12.6c-5.1,1-9.7,3.6-14.5,5.5c-14.9,6.1-30.1,11.6-45.5,16.6
		c-19.4,6.4-38.8,12.7-58.5,17.7c-12.4,2.9-24.6,6.1-37,8.7c-30.3,5.8-61.1,10.8-92.1,9.2c-9.1,0.1-18.2-1.3-27.1-3.1
		c-1.9-0.4-3.6-1.2-5.4-2c11.9,0.1,24-1.2,35.2-5.4c17.3-6.3,32.2-18,44.2-31.8c13.4-15.5,23.6-33.4,31.9-52.1
		c6.2-13.6,10.8-28,16.1-41.9c14.8-37.6,36.6-73.1,66.9-100.1C450.1,610.5,485.5,593.1,523.1,587.4z"/>
	<path class="st5" d="M493.1,820.1c4.8-1.9,9.4-4.4,14.5-5.5c-3.4,4.9-8.3,8.3-12.3,12.6c-14.4,13.9-27.1,29.4-39,45.4
		c0.5,0.4,1.4,1.2,1.9,1.5c-4.4,6.6-9.1,12.9-13.4,19.5c-18.8,28.5-34.2,59.3-45.6,91.5c-2.3,5.8-3.1,12-5.2,17.8
		c-5.4,16.6-8.8,33.8-12,50.9c-8-0.1-16.1,0.3-24.1-0.2c-18-2.7-36.2-4.6-53.5-10.5c-28.3-8.9-53.8-26.4-72.2-49.6
		c-22.1-27.5-35.1-61.3-41.8-95.6c-2.7-13.9-4.2-28-4.7-42.2c0.8,0.1,2.3,0.2,3.1,0.3c11.9,6.5,25.6,8.4,38.7,10.9
		c1.8,0.8,3.5,1.6,5.4,2c8.9,1.8,18,3.2,27.1,3.1c31,1.6,61.8-3.4,92.1-9.2c12.4-2.6,24.7-5.8,37-8.7c19.8-5,39.2-11.3,58.5-17.7
		C463,831.7,478.2,826.2,493.1,820.1z"/>
</g>
<g class="sub_one">
	<path class="st0" d="M898.4,192.6c2.7-10.5,6.4-20.9,11.4-30.6c11,12.7,22.9,24.6,34.2,37c16,17.4,31.6,35.2,46.2,53.8
		c11.6,15,22.9,30.4,31.9,47.1c5.6,10.5,9.9,21.8,12.4,33.4c-7.2-2.6-14.1-6.1-21.4-8.6c-26.7-9.1-55-12.4-83.1-11.8
		c-6.7-0.5-13.3,1.7-20,0.9c-1.9-1-3.2-2.8-4.8-4.2c-4.2-4.1-9-7.4-13.4-11.2c0-10.2-1.4-20.3-1.1-30.5
		C890.4,242.7,892,217.1,898.4,192.6z"/>
	<path class="st1" d="M715.8,223.9c20.9,0.9,41.4,5.8,61.2,12.2c37.7,12.4,73.1,31.4,105,54.9c3.3,2.5,6.7,4.8,9.8,7.6
		c4.4,3.9,9.3,7.1,13.4,11.2c1.5,1.4,2.9,3.1,4.8,4.2c6.7,0.8,13.3-1.3,20-0.9c28.1-0.6,56.5,2.7,83.1,11.8
		c7.3,2.5,14.2,5.9,21.4,8.6c25.7,12.3,47.8,31.4,65.7,53.5c17.3,21.2,31.2,44.8,46.3,67.6c13.7,19.8,34.7,33,56.3,42.9
		c19.4,8.9,40,14.8,60.5,20.1c-8.4,0.8-16.8-0.9-25.2-1.1c-67.9-4.1-136.3-5.6-204.1,1.3c-22.4,2.3-44.7,5.9-66.5,11.8
		c-16.1,4.6-32.3,10.3-46.1,20.1c-5.5,3.9-10.3,8.7-14.8,13.6c-20.8-7.6-42.8-11.1-64.7-13.1c-30.3-1.8-61,1.9-89.9,11.3
		c-30.9,10-59.8,26.1-84.9,46.7c-9.8-4.9-20.2-8-30.5-11.4c15.4-38.5,33.5-75.8,52.9-112.4c-7.9,2.7-15.9,5.4-23.9,7.9
		c2.9-10.4,8.9-19.6,15-28.3c8.7-12.1,18.5-23.4,28.6-34.5c18.5-20.1,38-39.2,58.4-57.4c-18.1-32.2-35.4-65.3-45.4-101
		C718.1,255.6,715.6,239.8,715.8,223.9z"/>
	<path class="st2" d="M1034,517.6c67.8-7,136.2-5.4,204.1-1.3c8.4,0.2,16.8,1.9,25.2,1.1c6.9,1.2,13.9,1.9,20.9,2.4
		c-4.4,9.9-6.3,20.9-12,30.3c-8.1,13.3-18.8,25.9-33.3,32.6c-22.9,11-48.9,12-73.9,11.4c-31.2-1.1-62.2-4.9-93.1-8.7
		c-10.7-0.7-21.4-2.5-32.1-1c-9.8,1.5-19.9,5.1-26.7,12.7c-4.8,5-7,11.7-10.8,17.4c-0.8,0.9-1.3,2.2-2.5,2.5c-0.7,0.1-2,0.2-2.7,0.3
		c-25.8-24.3-57-42.7-90.5-54.2c4.5-5,9.2-9.8,14.8-13.6c13.8-9.8,29.9-15.5,46.1-20.1C989.3,523.4,1011.7,519.9,1034,517.6z"/>
	<path class="st3" d="M752.1,561.4c28.9-9.4,59.6-13.1,89.9-11.3c21.9,2,43.9,5.5,64.7,13.1c33.5,11.5,64.7,29.9,90.5,54.2
		c0.7-0.1,2-0.2,2.7-0.3c3.1,6.6,8.9,11,13.5,16.5c12.5,14,23.4,29.5,32.7,45.8c21.4-13,45.5-22.6,70.8-23.7
		c40.4-3,81.8,11.4,111.4,39c22.5,20.8,38.2,48.9,43.9,79c31.8,13.2,57.5,39.4,71.2,70.9c16.3,37.7,17.8,82.2,1.4,120.1
		c-11.7,27.4-31.8,51.2-57.1,67c-17.2,10.8-36.5,18.2-56.6,21.1c-13.3,2.2-26.8,0.7-40.1,1.3c-13.3,0.5-26.6-0.3-40-0.1
		c-56,0-112,0-168,0c-55.7,0.1-111.4-0.2-167.1,0.3c-53.3-0.5-106.6-0.2-160-0.3c-13.7-0.2-27.4,0.7-41,0
		c-51.7,0.1-103.3-0.2-155,0.3c-26-0.4-51.9-0.2-77.9-0.3c3.2-17.1,6.6-34.3,12-50.9c2.1-5.8,2.9-12,5.2-17.8
		c11.4-32.2,26.7-63,45.6-91.5c4.3-6.6,9-13,13.4-19.5c8.8-12.7,19.1-24.3,29.4-35.7c6.4-5.9,11.5-13.1,18.4-18.5
		c36.3-35.8,82.6-62.3,133.1-71.5c13.1-2.9,26.6-3.8,39.9-4.8c23.6-0.7,47.1,2.2,70.4,5.6c12.2,2,24.3,5,36.6,5.6
		c3.2,0.2,7.9-0.3,8.6-4.3c0-5.2-3.4-9.5-5.5-14c-14.3-27.5-30.5-54.3-51.5-77.3c-13.5-14.7-29-27.5-46-38.1
		c-7.8-5.1-16.3-8.8-24.4-13.4C692.3,587.5,721.2,571.4,752.1,561.4z"/>
	<path class="st4" d="M523.1,587.4c9.2-1.5,18.5-1.7,27.9-1.7c28.9-0.4,58,2.8,85.7,10.9c10.3,3.4,20.8,6.5,30.5,11.4
		c8,4.6,16.6,8.3,24.4,13.4c16.9,10.6,32.5,23.3,46,38.1c21,23,37.2,49.8,51.5,77.3c2.1,4.5,5.5,8.8,5.5,14
		c-0.7,3.9-5.4,4.5-8.6,4.3c-12.4-0.6-24.5-3.6-36.6-5.6c-23.3-3.5-46.8-6.3-70.4-5.6c-13.4,1-26.8,2-39.9,4.8
		c-50.5,9.1-96.8,35.6-133.1,71.5c-6.9,5.4-12,12.6-18.4,18.5c-10.3,11.4-20.6,23-29.4,35.7c-0.5-0.4-1.4-1.2-1.9-1.5
		c11.9-16,24.7-31.5,39-45.4c4-4.3,8.9-7.8,12.3-12.6c-5.1,1-9.7,3.6-14.5,5.5c-14.9,6.1-30.1,11.6-45.5,16.6
		c-19.4,6.4-38.8,12.7-58.5,17.7c-12.4,2.9-24.6,6.1-37,8.7c-30.3,5.8-61.1,10.8-92.1,9.2c-9.1,0.1-18.2-1.3-27.1-3.1
		c-1.9-0.4-3.6-1.2-5.4-2c11.9,0.1,24-1.2,35.2-5.4c17.3-6.3,32.2-18,44.2-31.8c13.4-15.5,23.6-33.4,31.9-52.1
		c6.2-13.6,10.8-28,16.1-41.9c14.8-37.6,36.6-73.1,66.9-100.1C450.1,610.5,485.5,593.1,523.1,587.4z"/>
	<path class="st5" d="M493.1,820.1c4.8-1.9,9.4-4.4,14.5-5.5c-3.4,4.9-8.3,8.3-12.3,12.6c-14.4,13.9-27.1,29.4-39,45.4
		c0.5,0.4,1.4,1.2,1.9,1.5c-4.4,6.6-9.1,12.9-13.4,19.5c-18.8,28.5-34.2,59.3-45.6,91.5c-2.3,5.8-3.1,12-5.2,17.8
		c-5.4,16.6-8.8,33.8-12,50.9c-8-0.1-16.1,0.3-24.1-0.2c-18-2.7-36.2-4.6-53.5-10.5c-28.3-8.9-53.8-26.4-72.2-49.6
		c-22.1-27.5-35.1-61.3-41.8-95.6c-2.7-13.9-4.2-28-4.7-42.2c0.8,0.1,2.3,0.2,3.1,0.3c11.9,6.5,25.6,8.4,38.7,10.9
		c1.8,0.8,3.5,1.6,5.4,2c8.9,1.8,18,3.2,27.1,3.1c31,1.6,61.8-3.4,92.1-9.2c12.4-2.6,24.7-5.8,37-8.7c19.8-5,39.2-11.3,58.5-17.7
		C463,831.7,478.2,826.2,493.1,820.1z"/>
</g>
<g class="sub_two">
	<linearGradient id="SVGID_1_" gradientUnits="userSpaceOnUse" x1="962.6104" y1="333.34" x2="962.6104" y2="162">
		<stop  offset="0" style="stop-color:#E33C25"/>
		<stop  offset="1" style="stop-color:#F5831F"/>
	</linearGradient>
	<path class="st0" d="M898.4,192.6c2.7-10.5,6.4-20.9,11.4-30.6c11,12.7,22.9,24.6,34.2,37c16,17.4,31.6,35.2,46.2,53.8
		c11.6,15,22.9,30.4,31.9,47.1c5.6,10.5,9.9,21.8,12.4,33.4c-7.2-2.6-14.1-6.1-21.4-8.6c-26.7-9.1-55-12.4-83.1-11.8
		c-6.7-0.5-13.3,1.7-20,0.9c-1.9-1-3.2-2.8-4.8-4.2c-4.2-4.1-9-7.4-13.4-11.2c0-10.2-1.4-20.3-1.1-30.5
		C890.4,242.7,892,217.1,898.4,192.6z"/>
	<linearGradient id="SVGID_2_" gradientUnits="userSpaceOnUse" x1="949.985" y1="608.07" x2="949.985" y2="223.86">
		<stop  offset="0" style="stop-color:#E33C25"/>
		<stop  offset="1" style="stop-color:#F5831F"/>
	</linearGradient>
	<path class="st1" d="M715.8,223.9c20.9,0.9,41.4,5.8,61.2,12.2c37.7,12.4,73.1,31.4,105,54.9c3.3,2.5,6.7,4.8,9.8,7.6
		c4.4,3.9,9.3,7.1,13.4,11.2c1.5,1.4,2.9,3.1,4.8,4.2c6.7,0.8,13.3-1.3,20-0.9c28.1-0.6,56.5,2.7,83.1,11.8
		c7.3,2.5,14.2,5.9,21.4,8.6c25.7,12.3,47.8,31.4,65.7,53.5c17.3,21.2,31.2,44.8,46.3,67.6c13.7,19.8,34.7,33,56.3,42.9
		c19.4,8.9,40,14.8,60.5,20.1c-8.4,0.8-16.8-0.9-25.2-1.1c-67.9-4.1-136.3-5.6-204.1,1.3c-22.4,2.3-44.7,5.9-66.5,11.8
		c-16.1,4.6-32.3,10.3-46.1,20.1c-5.5,3.9-10.3,8.7-14.8,13.6c-20.8-7.6-42.8-11.1-64.7-13.1c-30.3-1.8-61,1.9-89.9,11.3
		c-30.9,10-59.8,26.1-84.9,46.7c-9.8-4.9-20.2-8-30.5-11.4c15.4-38.5,33.5-75.8,52.9-112.4c-7.9,2.7-15.9,5.4-23.9,7.9
		c2.9-10.4,8.9-19.6,15-28.3c8.7-12.1,18.5-23.4,28.6-34.5c18.5-20.1,38-39.2,58.4-57.4c-18.1-32.2-35.4-65.3-45.4-101
		C718.1,255.6,715.6,239.8,715.8,223.9z"/>
	<linearGradient id="SVGID_3_" gradientUnits="userSpaceOnUse" x1="1095.475" y1="617.32" x2="1095.475" y2="512.7782">
		<stop  offset="0" style="stop-color:#E33C25"/>
		<stop  offset="1" style="stop-color:#F9A359"/>
	</linearGradient>
	<path class="st2" d="M1034,517.6c67.8-7,136.2-5.4,204.1-1.3c8.4,0.2,16.8,1.9,25.2,1.1c6.9,1.2,13.9,1.9,20.9,2.4
		c-4.4,9.9-6.3,20.9-12,30.3c-8.1,13.3-18.8,25.9-33.3,32.6c-22.9,11-48.9,12-73.9,11.4c-31.2-1.1-62.2-4.9-93.1-8.7
		c-10.7-0.7-21.4-2.5-32.1-1c-9.8,1.5-19.9,5.1-26.7,12.7c-4.8,5-7,11.7-10.8,17.4c-0.8,0.9-1.3,2.2-2.5,2.5c-0.7,0.1-2,0.2-2.7,0.3
		c-25.8-24.3-57-42.7-90.5-54.2c4.5-5,9.2-9.8,14.8-13.6c13.8-9.8,29.9-15.5,46.1-20.1C989.3,523.4,1011.7,519.9,1034,517.6z"/>
	<linearGradient id="SVGID_4_" gradientUnits="userSpaceOnUse" x1="382.06" y1="801.9722" x2="1356.3302" y2="801.9722">
		<stop  offset="0" style="stop-color:#F5831F"/>
		<stop  offset="1" style="stop-color:#E33C25"/>
	</linearGradient>
	<path class="st3" d="M752.1,561.4c28.9-9.4,59.6-13.1,89.9-11.3c21.9,2,43.9,5.5,64.7,13.1c33.5,11.5,64.7,29.9,90.5,54.2
		c0.7-0.1,2-0.2,2.7-0.3c3.1,6.6,8.9,11,13.5,16.5c12.5,14,23.4,29.5,32.7,45.8c21.4-13,45.5-22.6,70.8-23.7
		c40.4-3,81.8,11.4,111.4,39c22.5,20.8,38.2,48.9,43.9,79c31.8,13.2,57.5,39.4,71.2,70.9c16.3,37.7,17.8,82.2,1.4,120.1
		c-11.7,27.4-31.8,51.2-57.1,67c-17.2,10.8-36.5,18.2-56.6,21.1c-13.3,2.2-26.8,0.7-40.1,1.3c-13.3,0.5-26.6-0.3-40-0.1
		c-56,0-112,0-168,0c-55.7,0.1-111.4-0.2-167.1,0.3c-53.3-0.5-106.6-0.2-160-0.3c-13.7-0.2-27.4,0.7-41,0
		c-51.7,0.1-103.3-0.2-155,0.3c-26-0.4-51.9-0.2-77.9-0.3c3.2-17.1,6.6-34.3,12-50.9c2.1-5.8,2.9-12,5.2-17.8
		c11.4-32.2,26.7-63,45.6-91.5c4.3-6.6,9-13,13.4-19.5c8.8-12.7,19.1-24.3,29.4-35.7c6.4-5.9,11.5-13.1,18.4-18.5
		c36.3-35.8,82.6-62.3,133.1-71.5c13.1-2.9,26.6-3.8,39.9-4.8c23.6-0.7,47.1,2.2,70.4,5.6c12.2,2,24.3,5,36.6,5.6
		c3.2,0.2,7.9-0.3,8.6-4.3c0-5.2-3.4-9.5-5.5-14c-14.3-27.5-30.5-54.3-51.5-77.3c-13.5-14.7-29-27.5-46-38.1
		c-7.8-5.1-16.3-8.8-24.4-13.4C692.3,587.5,721.2,571.4,752.1,561.4z"/>
	<linearGradient id="SVGID_5_" gradientUnits="userSpaceOnUse" x1="227.51" y1="729.9883" x2="794.64" y2="729.9883">
		<stop  offset="0" style="stop-color:#F5831F"/>
		<stop  offset="1" style="stop-color:#E33C25"/>
	</linearGradient>
	<path class="st4" d="M523.1,587.4c9.2-1.5,18.5-1.7,27.9-1.7c28.9-0.4,58,2.8,85.7,10.9c10.3,3.4,20.8,6.5,30.5,11.4
		c8,4.6,16.6,8.3,24.4,13.4c16.9,10.6,32.5,23.3,46,38.1c21,23,37.2,49.8,51.5,77.3c2.1,4.5,5.5,8.8,5.5,14
		c-0.7,3.9-5.4,4.5-8.6,4.3c-12.4-0.6-24.5-3.6-36.6-5.6c-23.3-3.5-46.8-6.3-70.4-5.6c-13.4,1-26.8,2-39.9,4.8
		c-50.5,9.1-96.8,35.6-133.1,71.5c-6.9,5.4-12,12.6-18.4,18.5c-10.3,11.4-20.6,23-29.4,35.7c-0.5-0.4-1.4-1.2-1.9-1.5
		c11.9-16,24.7-31.5,39-45.4c4-4.3,8.9-7.8,12.3-12.6c-5.1,1-9.7,3.6-14.5,5.5c-14.9,6.1-30.1,11.6-45.5,16.6
		c-19.4,6.4-38.8,12.7-58.5,17.7c-12.4,2.9-24.6,6.1-37,8.7c-30.3,5.8-61.1,10.8-92.1,9.2c-9.1,0.1-18.2-1.3-27.1-3.1
		c-1.9-0.4-3.6-1.2-5.4-2c11.9,0.1,24-1.2,35.2-5.4c17.3-6.3,32.2-18,44.2-31.8c13.4-15.5,23.6-33.4,31.9-52.1
		c6.2-13.6,10.8-28,16.1-41.9c14.8-37.6,36.6-73.1,66.9-100.1C450.1,610.5,485.5,593.1,523.1,587.4z"/>
	<linearGradient id="SVGID_6_" gradientUnits="userSpaceOnUse" x1="185.76" y1="934.3749" x2="507.61" y2="934.3749">
		<stop  offset="0" style="stop-color:#F5831F"/>
		<stop  offset="1" style="stop-color:#E33C25"/>
	</linearGradient>
	<path class="st5" d="M493.1,820.1c4.8-1.9,9.4-4.4,14.5-5.5c-3.4,4.9-8.3,8.3-12.3,12.6c-14.4,13.9-27.1,29.4-39,45.4
		c0.5,0.4,1.4,1.2,1.9,1.5c-4.4,6.6-9.1,12.9-13.4,19.5c-18.8,28.5-34.2,59.3-45.6,91.5c-2.3,5.8-3.1,12-5.2,17.8
		c-5.4,16.6-8.8,33.8-12,50.9c-8-0.1-16.1,0.3-24.1-0.2c-18-2.7-36.2-4.6-53.5-10.5c-28.3-8.9-53.8-26.4-72.2-49.6
		c-22.1-27.5-35.1-61.3-41.8-95.6c-2.7-13.9-4.2-28-4.7-42.2c0.8,0.1,2.3,0.2,3.1,0.3c11.9,6.5,25.6,8.4,38.7,10.9
		c1.8,0.8,3.5,1.6,5.4,2c8.9,1.8,18,3.2,27.1,3.1c31,1.6,61.8-3.4,92.1-9.2c12.4-2.6,24.7-5.8,37-8.7c19.8-5,39.2-11.3,58.5-17.7
		C463,831.7,478.2,826.2,493.1,820.1z"/>
</g>
</svg>