<svg xmlns="http://www.w3.org/2000/svg" viewBox="0 0 54.35 54"><defs><style>.cls-1{fill:#ff4e05;}</style></defs><g id="Layer_2" data-name="Layer 2"><g id="Layer_1-2" data-name="Layer 1"><path class="cls-1" d="M53.56,0c-7,3.88-14,7.76-21,11.65-3.5,0-7,0-10.54-.08C14.94,7.73,7.94,3.88.9,0c1.7,7.29,3.35,14.59,5,21.88C13,32.08,20.14,42.27,27.21,52.51q10.62-15.3,21.2-30.63C50.14,14.59,51.83,7.29,53.56,0Z"/><path class="cls-1" d="M5,23.29C3.34,27.69,1.69,32,0,36.43c8.77,5.85,17.54,11.65,26.31,17.49Q15.69,38.63,5,23.29Z"/><path class="cls-1" d="M49.28,23.29c1.69,4.4,3.38,8.83,5.07,13.22Q41.19,45.27,28,54C35.12,43.8,42.2,33.53,49.28,23.29Z"/></g></g></svg>