<?xml version="1.0" encoding="utf-8"?>
<!-- Generator: Adobe Illustrator 21.0.0, SVG Export Plug-In . SVG Version: 6.00 Build 0)  -->
<svg version="1.1" id="Camada_1" xmlns="http://www.w3.org/2000/svg" xmlns:xlink="http://www.w3.org/1999/xlink" x="0px" y="0px"
	 viewBox="0 0 395.7 379" style="enable-background:new 0 0 395.7 379;" xml:space="preserve">
<style type="text/css">
	.st0{fill:#D2D8DF;}
	.st1{fill:#EBECEF;}
	.st2{fill:#D1D9E0;}
	.st3{fill:url(#SVGID_1_);}
	.st4{fill:url(#SVGID_2_);}
	.st5{fill:#C7CFE2;}
	.st6{fill:#D5DCED;}
	.st7{fill:#959CB5;}
</style>
<title>Prancheta 4</title>
<path class="st0" d="M48,191.5c0.8,0,1.5,0.7,1.5,1.5l0,0v3c0,0.8-0.7,1.5-1.5,1.5c-0.8,0-1.5-0.7-1.5-1.5v-3
	C46.5,192.2,47.2,191.5,48,191.5L48,191.5z"/>
<path class="st0" d="M41,195c0.6-0.5,1.4-0.5,2,0l2,2c0.4,0.7,0.2,1.6-0.5,2c-0.5,0.3-1,0.3-1.5,0l-2-2
	C40.5,196.4,40.5,195.6,41,195z"/>
<path class="st0" d="M37.5,202c0-0.8,0.7-1.5,1.5-1.5h0h3c0.8,0,1.5,0.7,1.5,1.5c0,0.8-0.7,1.5-1.5,1.5h-3
	C38.2,203.5,37.5,202.8,37.5,202z"/>
<path class="st0" d="M45,205c0.5,0.6,0.5,1.4,0,2l-2,2c-0.7,0.4-1.6,0.2-2-0.5c-0.3-0.5-0.3-1,0-1.5l2-2
	C43.6,204.5,44.4,204.5,45,205z"/>
<path class="st0" d="M48,206.5c0.8,0,1.5,0.7,1.5,1.5l0,0v3c0,0.8-0.7,1.5-1.5,1.5c-0.8,0-1.5-0.7-1.5-1.5c0,0,0,0,0,0v-3
	C46.5,207.2,47.2,206.5,48,206.5L48,206.5z"/>
<path class="st0" d="M51,205c0.6-0.5,1.4-0.5,2,0l2,2c0.4,0.7,0.2,1.6-0.5,2c-0.5,0.3-1,0.3-1.5,0l-2-2
	C50.5,206.4,50.5,205.6,51,205z"/>
<path class="st0" d="M52.5,202c0-0.8,0.7-1.5,1.5-1.5h0h3c0.8,0,1.5,0.7,1.5,1.5c0,0.8-0.7,1.5-1.5,1.5h-3
	C53.2,203.5,52.5,202.8,52.5,202z"/>
<path class="st0" d="M55,195c0.5,0.6,0.5,1.4,0,2l-2,2c-0.7,0.4-1.6,0.2-2-0.5c-0.3-0.5-0.3-1,0-1.5l2-2
	C53.6,194.5,54.4,194.5,55,195z"/>
<path class="st0" d="M172.5,94.6c0.8,0,1.5,0.7,1.5,1.5c0,0,0,0,0,0v2c0,0.8-0.7,1.5-1.5,1.5c-0.8,0-1.5-0.7-1.5-1.5v-2
	C171,95.2,171.7,94.6,172.5,94.6z"/>
<path class="st0" d="M166,101c0-0.8,0.7-1.5,1.5-1.5l0,0h2c0.8,0,1.5,0.7,1.5,1.5c0,0.8-0.7,1.5-1.5,1.5h-2
	C166.7,102.5,166,101.8,166,101C166,101,166,101,166,101z"/>
<path class="st0" d="M172.5,103.6c0.8,0,1.5,0.7,1.5,1.5c0,0,0,0,0,0v2c0,0.8-0.7,1.5-1.5,1.5c-0.8,0-1.5-0.7-1.5-1.5v-2
	C171,104.2,171.7,103.6,172.5,103.6z"/>
<path class="st0" d="M175,102c0-0.8,0.7-1.5,1.5-1.5l0,0h2c0.8,0,1.5,0.7,1.5,1.5c0,0.8-0.7,1.5-1.5,1.5h-2
	C175.7,103.5,175,102.8,175,102C175,102,175,102,175,102z"/>
<path class="st0" d="M92,147.5c0.8,0,1.5,0.7,1.5,1.5l0,0v3c0,0.8-0.7,1.5-1.5,1.5c-0.8,0-1.5-0.7-1.5-1.5c0,0,0,0,0,0v-3
	C90.5,148.2,91.2,147.5,92,147.5C92,147.5,92,147.5,92,147.5z"/>
<path class="st0" d="M81.5,158c0-0.8,0.7-1.5,1.5-1.5c0,0,0,0,0,0h3c0.8,0,1.5,0.7,1.5,1.5c0,0.8-0.7,1.5-1.5,1.5h-3
	C82.2,159.5,81.5,158.8,81.5,158z"/>
<path class="st0" d="M91,161.5c0.8,0,1.5,0.7,1.5,1.5l0,0v3c0,0.8-0.7,1.5-1.5,1.5c-0.8,0-1.5-0.7-1.5-1.5c0,0,0,0,0,0v-3
	C89.5,162.2,90.2,161.5,91,161.5C91,161.5,91,161.5,91,161.5z"/>
<path class="st0" d="M95.5,158c0-0.8,0.7-1.5,1.5-1.5c0,0,0,0,0,0h3c0.8,0,1.5,0.7,1.5,1.5c0,0.8-0.7,1.5-1.5,1.5h-3
	C96.2,159.5,95.5,158.8,95.5,158z"/>
<path class="st0" d="M252,112.5c0.8,0,1.5,0.7,1.5,1.5c0,0,0,0,0,0v3c0,0.8-0.7,1.5-1.5,1.5c-0.8,0-1.5-0.7-1.5-1.5v-3
	C250.5,113.2,251.2,112.5,252,112.5z"/>
<path class="st0" d="M242.5,123c0-0.8,0.7-1.5,1.5-1.5l0,0h3c0.8,0,1.5,0.7,1.5,1.5c0,0.8-0.7,1.5-1.5,1.5h-3
	C243.2,124.5,242.5,123.8,242.5,123C242.5,123,242.5,123,242.5,123z"/>
<path class="st0" d="M252,126.5c0.8,0,1.5,0.7,1.5,1.5c0,0,0,0,0,0v3c0,0.8-0.7,1.5-1.5,1.5c-0.8,0-1.5-0.7-1.5-1.5c0,0,0,0,0,0v-3
	C250.5,127.2,251.2,126.5,252,126.5z"/>
<path class="st0" d="M256.5,123c0-0.8,0.7-1.5,1.5-1.5h3c0.8,0,1.5,0.7,1.5,1.5c0,0.8-0.7,1.5-1.5,1.5h-3
	C257.2,124.5,256.5,123.8,256.5,123z"/>
<path class="st0" d="M293.5,234c0-0.8,0.7-1.5,1.5-1.5c3,0,5.5,2.4,5.5,5.5c0,3-2.4,5.5-5.5,5.5c-3,0-5.5-2.4-5.5-5.5l0,0
	c0-0.8,0.7-1.5,1.5-1.5c0.8,0,1.5,0.7,1.5,1.5c0,1.4,1.1,2.5,2.5,2.5c1.4,0,2.5-1.1,2.5-2.5c0-1.4-1.1-2.5-2.5-2.5
	C294.2,235.5,293.5,234.8,293.5,234C293.5,234,293.5,234,293.5,234z"/>
<path class="st0" d="M350.3,233.2c0.1,0.8-0.4,1.5-1.2,1.6c-2.8,0.4-4.7,3-4.3,5.7 M350.3,233.2c-0.1-0.8-0.9-1.4-1.6-1.2
	L350.3,233.2z M348.6,231.9c-4.3,0.6-7.3,4.7-6.8,9L348.6,231.9z M356,237.5c0.8-0.1,1.5,0.4,1.6,1.2c1.1,4.3-1.6,8.6-5.9,9.7
	c-4.3,1.1-8.6-1.6-9.7-5.9c-0.1-0.5-0.2-1-0.2-1.6l0,0 M356,237.5c-0.8,0.1-1.4,0.9-1.2,1.6L356,237.5z M354.8,239.1
	c0.4,2.8-1.5,5.3-4.3,5.7L354.8,239.1z M344.8,240.6c0.4,2.7,2.9,4.7,5.6,4.3c0,0,0.1,0,0.1,0l0,0"/>
<path class="st0" d="M323,150.8c0.1,0.8-0.4,1.5-1.2,1.6c-2.8,0.4-4.7,3-4.3,5.7 M323,150.8c-0.1-0.8-0.9-1.4-1.6-1.2L323,150.8z
	 M321.4,149.5c-4.3,0.6-7.3,4.7-6.8,9L321.4,149.5z M328.7,155.1c0.8-0.1,1.5,0.4,1.6,1.2c1.1,4.3-1.6,8.6-5.9,9.7
	c-4.3,1.1-8.6-1.6-9.7-5.9c-0.1-0.5-0.2-1-0.2-1.6l0,0 M328.7,155.1c-0.8,0.1-1.4,0.9-1.2,1.6L328.7,155.1z M327.5,156.7
	c0.4,2.8-1.5,5.3-4.3,5.7L327.5,156.7z M317.5,158.2c0.4,2.7,2.9,4.7,5.6,4.3c0,0,0.1,0,0.1,0l0,0"/>
<path class="st1" d="M315,216c2.4-0.8,6.1-3.8,7-7c0.8,2.9,4,6.2,7,6.5c-3.3,1.2-6.5,4.7-7,7.5C321.7,220.2,317.3,216.4,315,216"/>
<path class="st1" d="M197,133c2.4-0.8,6.1-3.8,7-7c0.8,2.9,4,6.2,7,6.5c-3.3,1.2-6.5,4.7-7,7.5C203.7,137.2,199.3,133.4,197,133"/>
<path class="st2" d="M86,120c0,1.7-1.3,3-3,3s-3-1.3-3-3s1.3-3,3-3S86,118.3,86,120"/>
<path class="st1" d="M303,114c0,2.2-1.8,4-4,4s-4-1.8-4-4s1.8-4,4-4S303,111.8,303,114"/>
<path class="st0" d="M150,127.5c-0.9,0-1.5,0.7-1.5,1.5c0,0.9,0.7,1.5,1.5,1.5c0.9,0,1.5-0.7,1.5-1.5l0,0
	C151.5,128.1,150.9,127.5,150,127.5z M145.5,129c0-2.5,2-4.5,4.5-4.5c2.5,0,4.5,2,4.5,4.5c0,2.5-2,4.5-4.5,4.5
	C147.5,133.5,145.5,131.5,145.5,129L145.5,129z"/>
<path class="st0" d="M105.9,230.3c-0.5-1.3-2-2-3.3-1.5l0,0c-1.3,0.5-2,2-1.5,3.3l0,0c0.4,1.3,1.8,2.1,3.2,1.7s2.1-1.8,1.7-3.2
	C106,230.5,106,230.4,105.9,230.3z M101.6,226.1c2.8-1.1,6,0.3,7.1,3.1c1.1,2.8-0.3,6-3.1,7.1c-2.8,1.1-6-0.3-7.1-3.1c0,0,0,0,0-0.1
	 M101.6,226.1c-2.8,1.1-4.2,4.2-3.2,7L101.6,226.1z"/>
<path class="st2" d="M96.6,202.2c0,1.7-1.3,3-3,3s-3-1.3-3-3c0-1.7,1.3-3,3-3S96.6,200.6,96.6,202.2"/>
<linearGradient id="SVGID_1_" gradientUnits="userSpaceOnUse" x1="189.0652" y1="262.1453" x2="165.5323" y2="221.3851">
	<stop  offset="0" style="stop-color:#FF8960"/>
	<stop  offset="1" style="stop-color:#FF62A5"/>
</linearGradient>
<path class="st3" d="M193.9,259.3l-5.1-38.1c-0.2-1.9-1.8-3.3-3.7-3.3h-12.6c-1.9,0-3.5,1.4-3.7,3.3c-1.1,7.9-5.1,38.1-5.1,38.1
	H193.9z"/>
<linearGradient id="SVGID_2_" gradientUnits="userSpaceOnUse" x1="183.5396" y1="252.8651" x2="140.3157" y2="209.6413">
	<stop  offset="0" style="stop-color:#FF8960"/>
	<stop  offset="1" style="stop-color:#FF62A5"/>
</linearGradient>
<path class="st4" d="M177.1,259.3l-4.9-59.8c-0.2-2-1.8-3.5-3.8-3.5h-13c-2,0-3.6,1.5-3.8,3.5c-0.9,10.6-4.9,59.8-4.9,59.8H177.1z"
	/>
<path class="st5" d="M254.6,287.3v-69.2c0-1.2-0.6-2.4-1.7-3.1s-2.3-0.8-3.5-0.4l-37.6,15.1c-1.4,0.6-2.4,2-2.4,3.5v22.1h-64.5
	c-2.1,0-3.8,1.7-3.8,3.8v28.3H254.6z"/>
<path class="st6" d="M252.9,215.1c-1-0.7-2.3-0.8-3.5-0.4l-37.6,15.1c-1.4,0.6-2.4,2-2.4,3.5v22.1h-11.5v32h56.7v-69.2
	C254.6,216.9,254,215.8,252.9,215.1z"/>
<path class="st6" d="M228.7,188.8h-19.5c-5.8,0-8.8-2.8-11-4.9c-1.9-1.8-3.1-2.9-5.9-2.9h-22.8c-2.3,0-3.5,1.9-3.5,3.8
	c0,2.1-1.7,3.8-3.8,3.8c-2.1,0-3.8-1.7-3.8-3.8c0-6.3,4.8-11.3,11-11.3h22.8c5.8,0,8.8,2.8,11,4.9c1.9,1.8,3.1,2.9,5.9,2.9h19.5
	c2.1,0,3.8,1.7,3.8,3.8C232.5,187.2,230.8,188.8,228.7,188.8z"/>
<path class="st6" d="M250.8,172h-40.9c-2.1,0-3.8-1.7-3.8-3.8c0-2.1,1.7-3.8,3.8-3.8h40.9c2.1,0,3.8,1.7,3.8,3.8
	C254.6,170.3,252.9,172,250.8,172z"/>
<path class="st6" d="M258.3,188.8h-12.8c-2.1,0-3.8-1.7-3.8-3.8c0-2.1,1.7-3.8,3.8-3.8h12.8c2.1,0,3.8,1.7,3.8,3.8
	C262.1,187.2,260.4,188.8,258.3,188.8z"/>
<path class="st7" d="M258.3,293H137.4c-2.1,0-3.8-1.7-3.8-3.8s1.7-3.8,3.8-3.8h120.9c2.1,0,3.8,1.7,3.8,3.8S260.4,293,258.3,293z"/>
<path class="st6" d="M167.5,274.1H160c-2.1,0-3.8-1.7-3.8-3.8s1.7-3.8,3.8-3.8h7.5c2.1,0,3.8,1.7,3.8,3.8S169.6,274.1,167.5,274.1z"
	/>
<path class="st6" d="M190.1,274.1h-7.5c-2.1,0-3.8-1.7-3.8-3.8c0-2.1,1.7-3.8,3.8-3.8h7.5c2.1,0,3.8,1.7,3.8,3.8
	C193.9,272.5,192.2,274.1,190.1,274.1z"/>
<g>
	<path class="st7" d="M212.7,274.1h-7.5c-2.1,0-3.8-1.7-3.8-3.8s1.7-3.8,3.8-3.8h7.5c2.1,0,3.8,1.7,3.8,3.8S214.8,274.1,212.7,274.1
		z"/>
	<path class="st7" d="M235.3,274.1h-7.5c-2.1,0-3.8-1.7-3.8-3.8s1.7-3.8,3.8-3.8h7.5c2.1,0,3.8,1.7,3.8,3.8S237.3,274.1,235.3,274.1
		z"/>
	<path class="st7" d="M235.3,259.1h-7.5c-2.1,0-3.8-1.7-3.8-3.8c0-2.1,1.7-3.8,3.8-3.8h7.5c2.1,0,3.8,1.7,3.8,3.8
		C239,257.4,237.3,259.1,235.3,259.1z"/>
	<path class="st7" d="M235.3,244h-7.5c-2.1,0-3.8-1.7-3.8-3.8c0-2.1,1.7-3.8,3.8-3.8h7.5c2.1,0,3.8,1.7,3.8,3.8
		C239,242.3,237.3,244,235.3,244z"/>
</g>
<path class="st5" d="M258.3,285.4h-60.5v7.5h60.5c2.1,0,3.8-1.7,3.8-3.8S260.4,285.4,258.3,285.4z"/>
<path class="st1" d="M73,238.6c2.4-0.8,6.1-3.8,7-7c0.8,2.9,4,6.2,7,6.5c-3.3,1.2-6.5,4.7-7,7.5C79.7,242.8,75.3,239,73,238.6"/>
<path class="st2" d="M291.3,191.7c0,1.7-1.3,3-3,3s-3-1.3-3-3s1.3-3,3-3S291.3,190,291.3,191.7"/>
<path class="st0" d="M355.3,199.1c-0.9,0-1.5,0.7-1.5,1.5c0,0.9,0.7,1.5,1.5,1.5s1.5-0.7,1.5-1.5v0
	C356.9,199.8,356.2,199.1,355.3,199.1z M350.9,200.7c0-2.5,2-4.5,4.5-4.5s4.5,2,4.5,4.5s-2,4.5-4.5,4.5S350.9,203.1,350.9,200.7
	L350.9,200.7z"/>
</svg>
