<svg id="Camada_1" data-name="Camada 1" xmlns="http://www.w3.org/2000/svg" xmlns:xlink="http://www.w3.org/1999/xlink" viewBox="0 0 388.83 372.35"><defs><style>.cls-1{fill:#fff;}.cls-2{mask:url(#mask);}.cls-3{fill:#f1f2f7;}.cls-4{mask:url(#mask-2);}.cls-5{fill:#e8ebf2;}.cls-6{fill:#bec0d6;}.cls-7{fill:url(#Nova_amostra_de_gradiente_1);}.cls-8{fill:url(#Nova_amostra_de_gradiente_1-2);}.cls-9{fill:url(#Nova_amostra_de_gradiente_1-3);}.cls-10{fill:url(#Nova_amostra_de_gradiente_1-4);}.cls-11{fill:#d8dbea;}</style><mask id="mask" x="58.3" y="63" width="267.11" height="157.32" maskUnits="userSpaceOnUse"><g id="mask0"><path class="cls-1" d="M127.17,94.55H94.4a7.77,7.77,0,0,0,0,15.53H116a7.76,7.76,0,0,1,5.46,13.25,7.69,7.69,0,0,1-5.46,2.28H71.7a7.77,7.77,0,0,0,0,15.53H91.8a119.06,119.06,0,0,0-9.43,46.6,120.79,120.79,0,0,0,1.29,17.66Q84.2,209,85,212.55c14.6-2.24,30.1-4,46.27-5.36l1.22,1.11,1.15-1.3c19.43-1.52,39.82-2.32,60.86-2.32,44.69,0,86.51,3.64,122.26,10a119.35,119.35,0,0,0,2.75-18.47q.3-4.19.3-8.46c0-65.77-53.14-119.08-118.69-119.08A117.94,117.94,0,0,0,127.17,94.55Z"/></g></mask><mask id="mask-2" x="79.13" y="199.19" width="267.7" height="112.81" maskUnits="userSpaceOnUse"><g id="mask2"><path class="cls-1" d="M133.41,207.16l-1.15,1.29L131,207.35c-16.17,1.31-31.65,3.1-46.26,5.33a118.81,118.81,0,0,0,187.28,70h21.12a7.72,7.72,0,0,0,0-15.43H284a7.72,7.72,0,0,1,0-15.43h49.43a7.72,7.72,0,0,0,0-15.43H309.19a116.87,116.87,0,0,0,7.29-21.6c-35.75-6.3-77.56-9.92-122.23-9.92C173.22,204.85,152.83,205.66,133.41,207.16Z"/></g></mask><linearGradient id="Nova_amostra_de_gradiente_1" x1="112.42" y1="189.76" x2="154.9" y2="189.76" gradientUnits="userSpaceOnUse"><stop offset="0" stop-color="#ff8960"/><stop offset="1" stop-color="#ff62a5"/></linearGradient><linearGradient id="Nova_amostra_de_gradiente_1-2" x1="188.22" y1="260.27" x2="219.73" y2="260.27" xlink:href="#Nova_amostra_de_gradiente_1"/><linearGradient id="Nova_amostra_de_gradiente_1-3" x1="200.26" y1="179.43" x2="228.02" y2="179.43" xlink:href="#Nova_amostra_de_gradiente_1"/><linearGradient id="Nova_amostra_de_gradiente_1-4" x1="232.08" y1="142.32" x2="270.42" y2="142.32" xlink:href="#Nova_amostra_de_gradiente_1"/></defs><title>Prancheta 10</title><g class="cls-2"><path class="cls-3" d="M58.3,220.32H325.4V63H58.3Z"/></g><g class="cls-4"><path class="cls-5" d="M79.13,312h267.7V199.19H79.13Z"/></g><path class="cls-6" d="M135.48,224.42a4.63,4.63,0,0,0,.86,5.35l1.13,1.13c3.27-3.88,7.08-8.08,11.7-12.7.33-.33.66-.48,1-.79l-7.28-7.28c-4.23,7.66-6.7,12.89-7.41,14.29Zm0,0"/><path class="cls-6" d="M175.37,244.38c-4.63,4.63-8.83,8.45-12.68,11.73l1.53,1.53a4.63,4.63,0,0,0,5.39.84c2.4-1.24,6.17-3,14.17-7.47l-7.63-7.63c-.3.33-.46.66-.79,1Zm0,0"/><path class="cls-6" d="M172.9,220.67c-3.35-3.35-12.75-.35-17.17,4.07-14.78,14.78-21.46,25.26-24.46,31.45a4.63,4.63,0,0,0,6.19,6.18c6-2.94,16.4-9.58,31.36-24.54,4.86-4.86,7.26-14,4.08-17.16Zm0,0"/><path class="cls-7" d="M126.86,184.8,113.77,197.9a4.63,4.63,0,0,0,4.47,7.74c7.08-1.9,13.3-2.7,17.49-1.62a248.39,248.39,0,0,1,19.16-29.23c-3.93-2.52-16.9-1.11-28,10Zm0,0"/><path class="cls-8" d="M190.77,280.68a4.62,4.62,0,0,0,5.35-.86l13.09-13.09c10.14-10.14,11.92-23.22,9.62-27.37a264.17,264.17,0,0,1-29.25,19c.64,3.64.22,7.17-1.31,17.49a4.62,4.62,0,0,0,2.5,4.81Zm0,0"/><path class="cls-9" d="M204.32,169.61a13.89,13.89,0,1,0,19.64,0,13.9,13.9,0,0,0-19.64,0Zm0,0"/><path class="cls-10" d="M270.14,127.69a4.62,4.62,0,0,0-4.27-4.27,91.51,91.51,0,0,0-33.79,3.94c.84,7.63,4.78,15.88,11.51,22.61s15.29,10.76,23.05,11.49a95.72,95.72,0,0,0,3.5-33.77Zm0,0"/><path class="cls-11" d="M237,156.52a48.63,48.63,0,0,1-13.92-25.94c-27.8,11.4-54.41,36.29-75.43,71.27l10.45,10.45c7.14-2.9,15.8-3.66,21.3,1.83s4.72,14.17,1.83,21.29l10.79,10.79C219,230,250.3,204.44,263.62,170.45A48.39,48.39,0,0,1,237,156.52Zm-6.55,39.28a23.14,23.14,0,1,1,0-32.73,23.17,23.17,0,0,1,0,32.73Zm0,0"/></svg>