<?xml version="1.0" standalone="no"?>
<!DOCTYPE svg PUBLIC "-//W3C//DTD SVG 20010904//EN"
 "http://www.w3.org/TR/2001/REC-SVG-20010904/DTD/svg10.dtd">
<svg version="1.0" xmlns="http://www.w3.org/2000/svg"
 width="300.000000pt" height="300.000000pt" viewBox="0 0 300.000000 300.000000"
 preserveAspectRatio="xMidYMid meet">
<metadata>
Created by potrace 1.11, written by Peter Selinger 2001-2013
</metadata>
<g transform="translate(0.000000,300.000000) scale(0.100000,-0.100000)"
fill="#000000" stroke="none">
<path d="M1835 2593 c-19 -46 -32 -139 -31 -222 1 -50 0 -91 -1 -91 -2 0 -24
15 -50 34 -84 60 -232 125 -313 140 -14 2 -29 5 -35 6 -39 9 -46 0 -40 -47 7
-60 38 -149 84 -238 19 -38 36 -73 36 -77 0 -4 -39 -47 -87 -95 -79 -81 -158
-183 -158 -204 0 -5 11 -4 25 1 14 5 25 8 25 6 0 -2 -27 -59 -60 -127 -33 -68
-60 -130 -60 -138 0 -10 -8 -12 -32 -7 -117 25 -247 27 -314 6 -93 -29 -151
-65 -224 -140 -79 -79 -108 -127 -163 -271 -90 -231 -213 -314 -386 -263 -24
7 -24 6 -17 -42 11 -83 15 -100 44 -171 51 -125 131 -204 249 -245 l68 -23
1150 0 1150 0 66 32 c79 39 140 102 177 181 23 49 27 70 27 152 0 83 -4 103
-29 157 -29 64 -101 142 -150 165 -16 6 -30 25 -37 47 -26 80 -67 138 -135
191 -104 81 -275 91 -396 24 -25 -13 -28 -13 -38 6 -6 11 -32 46 -57 77 l-46
56 18 33 c31 59 49 61 290 37 172 -18 277 -2 334 50 22 21 74 117 67 125 -2 1
-16 5 -31 8 -108 19 -205 60 -265 110 -18 15 -56 64 -84 108 -65 101 -134 177
-196 217 -37 24 -52 42 -66 78 -17 45 -62 115 -112 176 -54 66 -175 195 -182
195 -4 0 -11 -8 -15 -17z"/>
</g>
</svg>
