<svg width="26" height="18" viewBox="0 0 26 18" fill="none" xmlns="http://www.w3.org/2000/svg">
<g clip-path="url(#clip0_27:402)">
<path fill-rule="evenodd" clip-rule="evenodd" d="M25.5789 15.4709C25.5773 16.0201 25.3585 16.5462 24.9702 16.9345C24.5819 17.3228 24.0557 17.5417 23.5066 17.5433H2.78288C2.23375 17.5417 1.70757 17.3228 1.31928 16.9345C0.930984 16.5462 0.712127 16.0201 0.71051 15.4709L0.71051 3.03672C0.712127 2.48759 0.930984 1.96142 1.31928 1.57312C1.70757 1.18483 2.23375 0.965972 2.78288 0.964355L23.5066 0.964355C24.0557 0.965972 24.5819 1.18483 24.9702 1.57312C25.3585 1.96142 25.5773 2.48759 25.5789 3.03672V15.4709Z" fill="#152884"/>
<path d="M23.5066 0.964355H2.78288C2.23375 0.965972 1.70757 1.18483 1.31928 1.57312C0.930984 1.96142 0.712127 2.48759 0.71051 3.03672V15.4709C0.712127 16.0201 0.930984 16.5462 1.31928 16.9345C1.70757 17.3228 2.23375 17.5417 2.78288 17.5433H23.5066C24.0557 17.5417 24.5819 17.3228 24.9702 16.9345C25.3585 16.5462 25.5773 16.0201 25.5789 15.4709V3.03672C25.5773 2.48759 25.3585 1.96142 24.9702 1.57312C24.5819 1.18483 24.0557 0.965972 23.5066 0.964355V0.964355ZM23.5066 1.37888C23.9461 1.37933 24.3675 1.55413 24.6783 1.86494C24.9892 2.17575 25.164 2.59717 25.1644 3.03672V15.4709C25.164 15.9105 24.9892 16.3319 24.6783 16.6427C24.3675 16.9535 23.9461 17.1283 23.5066 17.1288H2.78288C2.34333 17.1283 1.92191 16.9535 1.6111 16.6427C1.30029 16.3319 1.12548 15.9105 1.12504 15.4709V3.03672C1.12548 2.59717 1.30029 2.17575 1.6111 1.86494C1.92191 1.55413 2.34333 1.37933 2.78288 1.37888H23.5066Z" fill="#D0D0D0"/>
<path d="M18.4283 9.90077C18.3135 9.35168 18.2013 8.81207 18.0884 8.27218L18.0723 8.27051C17.8773 8.81151 17.6803 9.35224 17.4811 9.90021L18.4283 9.90077ZM15.7144 11.4658C15.7823 11.302 15.8495 11.141 15.9172 10.9797C16.4166 9.78645 16.9162 8.59301 17.4159 7.39938C17.4535 7.29199 17.5249 7.19972 17.6195 7.13646C17.7141 7.07321 17.8266 7.04239 17.9402 7.04865C18.2316 7.04995 18.5228 7.04995 18.8139 7.04865C18.8696 7.04865 18.8944 7.05979 18.9072 7.12108C19.2019 8.54184 19.4984 9.96215 19.7967 11.382C19.8025 11.4098 19.8059 11.4377 19.8109 11.4703H18.7567C18.7169 11.2792 18.6732 11.0911 18.6397 10.9009C18.6269 10.8296 18.5988 10.8101 18.5283 10.8106C18.0957 10.8142 17.6625 10.8134 17.2298 10.8106C17.2059 10.8069 17.1814 10.8127 17.1615 10.8266C17.1417 10.8406 17.128 10.8617 17.1234 10.8856C17.0632 11.0641 16.9986 11.2413 16.9312 11.4174C16.9249 11.431 16.9154 11.443 16.9035 11.4523C16.8916 11.4616 16.8777 11.468 16.8629 11.4709C16.4902 11.4742 16.1177 11.4728 15.745 11.4725C15.7346 11.4714 15.7243 11.4691 15.7144 11.4658Z" fill="white"/>
<path fill-rule="evenodd" clip-rule="evenodd" d="M15.9782 7.16642C15.9119 7.47648 15.8459 7.78264 15.7801 8.09159C15.6545 8.0498 15.5352 8.00412 15.4124 7.97013C15.1456 7.88815 14.8633 7.86983 14.5881 7.91664C14.4856 7.9368 14.3882 7.97755 14.302 8.03643C14.2599 8.05968 14.2246 8.09356 14.1997 8.13468C14.1749 8.17581 14.1612 8.22274 14.1601 8.2708C14.159 8.31886 14.1705 8.36637 14.1935 8.40859C14.2165 8.45081 14.2501 8.48626 14.2911 8.51141C14.433 8.60968 14.5799 8.70071 14.731 8.78414C14.9146 8.89558 15.1085 8.99169 15.2809 9.11844C15.4863 9.25515 15.6405 9.45615 15.7193 9.68993C15.7982 9.92371 15.7972 10.1771 15.7166 10.4102C15.6499 10.6365 15.5286 10.8429 15.3634 11.0114C15.1983 11.1798 14.9943 11.3051 14.7694 11.3763C14.3501 11.5253 13.9023 11.5766 13.4601 11.5265C13.1801 11.5068 12.9037 11.4515 12.6377 11.3619C12.5937 11.3465 12.5508 11.3287 12.5015 11.3098C12.5708 10.9848 12.6387 10.6661 12.7054 10.354C12.8949 10.4208 13.0765 10.4969 13.2645 10.549C13.5422 10.6323 13.8361 10.6459 14.1203 10.5888C14.2347 10.5629 14.3427 10.5143 14.4379 10.4459C14.478 10.4188 14.5112 10.3827 14.535 10.3405C14.5587 10.2983 14.5722 10.2512 14.5746 10.2028C14.5769 10.1545 14.5679 10.1063 14.5484 10.062C14.5288 10.0177 14.4992 9.97861 14.4619 9.94778C14.3351 9.84711 14.2004 9.75683 14.059 9.67783C13.8523 9.55024 13.6298 9.44438 13.4356 9.2998C13.3087 9.20864 13.2022 9.09206 13.1229 8.95749C13.0435 8.82292 12.9931 8.6733 12.9747 8.51816C12.9564 8.36302 12.9706 8.20576 13.0163 8.05639C13.0621 7.90703 13.1385 7.76883 13.2406 7.6506C13.4878 7.34288 13.8344 7.13082 14.2209 7.05081C14.7823 6.91363 15.3717 6.94523 15.9152 7.14163C15.935 7.14831 15.9537 7.15667 15.9782 7.16642Z" fill="white"/>
<path fill-rule="evenodd" clip-rule="evenodd" d="M12.6578 7.05553C12.6274 7.20067 12.5984 7.3433 12.5678 7.48538C12.2912 8.77819 12.0154 10.0711 11.7401 11.3641C11.7223 11.4476 11.6936 11.4755 11.605 11.4755C11.293 11.4694 10.9807 11.473 10.6687 11.473H10.5717C10.6013 11.3337 10.6275 11.2047 10.6553 11.0755C10.938 9.75461 11.2206 8.43358 11.503 7.11236C11.5117 7.07141 11.5209 7.04773 11.5707 7.04773C11.9198 7.04968 12.2672 7.04773 12.6174 7.0494C12.628 7.0494 12.638 7.05219 12.6578 7.05553Z" fill="white"/>
<path fill-rule="evenodd" clip-rule="evenodd" d="M5.67264 7.04823H5.7576C6.36361 7.04823 6.96962 7.04823 7.57563 7.04823C7.71504 7.03609 7.85364 7.07927 7.96148 7.16846C8.06932 7.25764 8.13776 7.38566 8.15201 7.52488L8.62198 10.0104C8.62508 10.0211 8.6288 10.0316 8.63312 10.0419C8.65012 10.0045 8.66293 9.97918 8.67324 9.95272C9.04635 9.01056 9.41854 8.06821 9.78979 7.12567C9.79616 7.09992 9.81192 7.07748 9.83397 7.06274C9.85603 7.048 9.8828 7.04203 9.90903 7.046C10.25 7.04878 10.5913 7.046 10.932 7.046H11.0211C11.0041 7.09029 10.9913 7.12651 10.9763 7.16161C10.3844 8.57532 9.79258 9.98875 9.20087 11.4019C9.19545 11.4241 9.18209 11.4436 9.1633 11.4566C9.14452 11.4696 9.12161 11.4754 9.09891 11.4727C8.74195 11.4697 8.38518 11.4697 8.0286 11.4727C7.97288 11.4727 7.95366 11.4554 7.94001 11.4022C7.63998 10.2358 7.3366 9.07045 7.03741 7.90347C7.01951 7.82151 6.98261 7.74489 6.92967 7.67981C6.87673 7.61473 6.80924 7.56299 6.73264 7.52878C6.40335 7.37952 6.05926 7.26532 5.70607 7.18808C5.68879 7.1839 5.6718 7.1786 5.64896 7.1722C5.65314 7.14991 5.65648 7.12985 5.6601 7.11007C5.66372 7.09029 5.6679 7.07581 5.67264 7.04823Z" fill="white"/>
</g>
<defs>
<clipPath id="clip0_27:402">
<rect width="24.8684" height="16.5789" fill="white" transform="translate(0.71051 0.964355)"/>
</clipPath>
</defs>
</svg>
