<svg width="21" height="19" viewBox="0 0 21 19" fill="none" xmlns="http://www.w3.org/2000/svg">
<path d="M12.75 12C13.7165 12 14.5 12.7835 14.5 13.75L14.4989 14.7121C14.6156 16.9012 12.9879 18.009 10.0668 18.009C7.15786 18.009 5.5 16.9192 5.5 14.75V13.75C5.5 12.7835 6.2835 12 7.25 12H12.75ZM12.75 13.5H7.25C7.11193 13.5 7 13.6119 7 13.75V14.75C7 15.9262 7.88667 16.509 10.0668 16.509C12.2347 16.509 13.0625 15.9455 13 14.752V13.75C13 13.6119 12.8881 13.5 12.75 13.5ZM1.75 7L6.126 7.00008C6.04375 7.31968 6 7.65473 6 8C6 8.16911 6.01049 8.33576 6.03087 8.49934L1.75 8.5C1.61193 8.5 1.5 8.61193 1.5 8.75V9.75C1.5 10.9262 2.38667 11.509 4.56679 11.509C5.02869 11.509 5.42976 11.4835 5.77434 11.4317C5.20917 11.7897 4.78546 12.349 4.60122 13.0082L4.56679 13.009C1.65786 13.009 0 11.9192 0 9.75V8.75C0 7.7835 0.783502 7 1.75 7ZM18.25 7C19.2165 7 20 7.7835 20 8.75L19.9989 9.71207C20.1156 11.9012 18.4879 13.009 15.5668 13.009L15.3985 13.0073C15.2091 12.3302 14.767 11.7587 14.1803 11.4008C14.567 11.4733 15.0273 11.509 15.5668 11.509C17.7347 11.509 18.5625 10.9455 18.5 9.75198V8.75C18.5 8.61193 18.3881 8.5 18.25 8.5L13.9692 8.49921C13.9895 8.33567 14 8.16906 14 8C14 7.65473 13.9563 7.31968 13.874 7.00008L18.25 7ZM10 5C11.6569 5 13 6.34315 13 8C13 9.65685 11.6569 11 10 11C8.34315 11 7 9.65685 7 8C7 6.34315 8.34315 5 10 5ZM10 6.5C9.17157 6.5 8.5 7.17157 8.5 8C8.5 8.82843 9.17157 9.5 10 9.5C10.8284 9.5 11.5 8.82843 11.5 8C11.5 7.17157 10.8284 6.5 10 6.5ZM4.5 0C6.15685 0 7.5 1.34315 7.5 3C7.5 4.65685 6.15685 6 4.5 6C2.84315 6 1.5 4.65685 1.5 3C1.5 1.34315 2.84315 0 4.5 0ZM15.5 0C17.1569 0 18.5 1.34315 18.5 3C18.5 4.65685 17.1569 6 15.5 6C13.8431 6 12.5 4.65685 12.5 3C12.5 1.34315 13.8431 0 15.5 0ZM4.5 1.5C3.67157 1.5 3 2.17157 3 3C3 3.82843 3.67157 4.5 4.5 4.5C5.32843 4.5 6 3.82843 6 3C6 2.17157 5.32843 1.5 4.5 1.5ZM15.5 1.5C14.6716 1.5 14 2.17157 14 3C14 3.82843 14.6716 4.5 15.5 4.5C16.3284 4.5 17 3.82843 17 3C17 2.17157 16.3284 1.5 15.5 1.5Z" fill="#BCBCBC"/>
</svg>
