<svg width="18" height="19" viewBox="0 0 18 19" fill="none" xmlns="http://www.w3.org/2000/svg">
    <path d="M0.868145 0.0544735C0.388942 0.050399 0.00349536 0.459845 2.28715e-05 0.959927C-0.00344962 1.46001 0.388942 1.86131 0.868145 1.86538C1.50882 1.87081 2.02102 2.31802 2.41428 3.16697C2.78236 3.9606 2.89 4.6137 2.90302 4.69492L3.93349 11.6273C4.24949 13.2782 5.74959 14.5417 7.32523 14.5417H13.5097C15.0854 14.5417 16.5924 13.2665 16.9015 11.6556L17.9597 4.29879C18.2054 3.01866 17.2991 1.86538 16.0064 1.86538H3.71646C3.06363 0.743614 2.06876 0.0646146 0.868145 0.0544735ZM4.47607 3.67629H16.0064C16.2035 3.67629 16.2886 3.78521 16.2504 3.98758L15.1922 11.3444C15.0524 12.066 14.2581 12.7308 13.5097 12.7308H7.32523C6.57777 12.7308 5.78953 12.0805 5.64282 11.316L4.63926 4.41197C4.60888 4.21938 4.53857 3.91415 4.47607 3.67629ZM6.51094 15.4472C5.79213 15.4472 5.20876 16.0553 5.20876 16.8054C5.20876 17.5554 5.79213 18.1635 6.51094 18.1635C7.22974 18.1635 7.81312 17.5554 7.81312 16.8054C7.81312 16.0553 7.22974 15.4472 6.51094 15.4472ZM14.324 15.4472C13.6052 15.4472 13.0219 16.0553 13.0219 16.8054C13.0219 17.5554 13.6044 18.1635 14.324 18.1635C15.0428 18.1635 15.6262 17.5554 15.6262 16.8054C15.6262 16.0553 15.0437 15.4472 14.324 15.4472Z" fill="#1BE4A8"/>
</svg>
