<svg width="37" height="37" viewBox="0 0 37 37" fill="none" xmlns="http://www.w3.org/2000/svg">
<rect x="0.5" y="0.5" width="36" height="36" rx="8" fill="white"/>
<path d="M14.8788 16.8203C14.8788 16.5102 15.1291 16.2588 15.4378 16.2588H21.4777C21.7865 16.2588 22.0368 16.5102 22.0368 16.8203C22.0368 17.1303 21.7865 17.3817 21.4777 17.3817H15.4378C15.1291 17.3817 14.8788 17.1303 14.8788 16.8203ZM15.4398 19.6163C15.131 19.6163 14.8807 19.8677 14.8807 20.1778C14.8807 20.4879 15.131 20.7392 15.4398 20.7392H19.6887C19.9975 20.7392 20.2478 20.4879 20.2478 20.1778C20.2478 19.8677 19.9975 19.6163 19.6887 19.6163H15.4398ZM15.1203 10.173C22.8524 7.0654 30.4818 15.3096 26.3272 22.8198C24.4401 26.2311 19.7516 28.9781 14.2923 26.38L10.4977 27.4688C9.9089 27.6377 9.36479 27.0935 9.53001 26.5017C9.75649 25.6905 10.2931 23.778 10.6069 22.7416C8.25374 18.5246 9.84048 12.295 15.1203 10.173ZM25.3498 22.2745C28.9662 15.7371 22.3429 8.47968 15.5357 11.2156C10.85 13.0988 9.48644 18.7136 11.6918 22.3816L11.8219 22.598L11.7468 22.8393C11.5088 23.6041 11.0595 25.1901 10.7696 26.2229L14.3985 25.1816L14.5923 25.2782C19.515 27.7289 23.6814 25.2904 25.3498 22.2745Z" fill="#E81414"/>
</svg>
