<svg width="37" height="37" viewBox="0 0 37 37" fill="none" xmlns="http://www.w3.org/2000/svg">
<rect x="0.0625" y="0.5" width="36" height="36" rx="8" fill="white"/>
<path fill-rule="evenodd" clip-rule="evenodd" d="M14.3488 15.8208C14.6398 16.1156 14.6367 16.5905 14.3419 16.8814L11.1296 20.052L14.3425 23.23C14.637 23.5213 14.6395 23.9962 14.3483 24.2906C14.057 24.5851 13.5821 24.5877 13.2876 24.2964L9.53508 20.5847C9.39255 20.4437 9.31239 20.2515 9.3125 20.0511C9.31261 19.8506 9.39297 19.6585 9.53565 19.5177L13.2882 15.8139C13.583 15.5229 14.0579 15.526 14.3488 15.8208Z" fill="#E81414"/>
<path fill-rule="evenodd" clip-rule="evenodd" d="M23.1927 13.7504C23.664 13.7432 24.1323 13.8286 24.5704 14.0019C25.0085 14.1751 25.408 14.4329 25.7453 14.7606C26.0826 15.0884 26.351 15.4797 26.5345 15.9119C26.7179 16.3442 26.8125 16.8086 26.8125 17.2779C26.8125 17.7471 26.7179 18.2115 26.5345 18.6438C26.351 19.076 26.0826 19.4673 25.7453 19.7951C25.408 20.1229 25.0085 20.3806 24.5704 20.5538C24.1342 20.7263 23.668 20.8117 23.1987 20.8054H10.0625C9.64829 20.8054 9.3125 20.4696 9.3125 20.0554C9.3125 19.6412 9.64829 19.3054 10.0625 19.3054H23.2155C23.4907 19.3096 23.7638 19.2598 24.0188 19.1589C24.2738 19.0581 24.5052 18.9085 24.6999 18.7193C24.8946 18.5301 25.0487 18.3052 25.1536 18.0578C25.2586 17.8105 25.3125 17.5454 25.3125 17.2779C25.3125 17.0103 25.2586 16.7452 25.1536 16.4979C25.0487 16.2505 24.8946 16.0256 24.6999 15.8364C24.5052 15.6472 24.2738 15.4976 24.0188 15.3968C23.7638 15.2959 23.4907 15.246 23.2155 15.2502C22.8014 15.2566 22.4605 14.9259 22.4542 14.5118C22.4479 14.0976 22.7785 13.7567 23.1927 13.7504Z" fill="#E81414"/>
</svg>
