<svg width="37" height="37" viewBox="0 0 37 37" fill="none" xmlns="http://www.w3.org/2000/svg">
<rect x="0.5" y="0.5" width="36" height="36" rx="8" fill="white"/>
<path d="M10.5424 13.2499C10.5424 12.2834 11.3259 11.4999 12.2924 11.4999H20.7504C21.7169 11.4999 22.5004 12.2834 22.5004 13.2499V14.4999L23.3823 14.4998C23.9505 14.4997 24.47 14.8208 24.7241 15.329L26.3421 18.565C26.4463 18.7733 26.5005 19.0029 26.5005 19.2358V22.9997C26.5005 23.8282 25.8289 24.4997 25.0005 24.4997H23.4504C23.2188 25.6409 22.2099 26.4999 21.0004 26.4999C19.7909 26.4999 18.782 25.641 18.5504 24.4999H17.4504C17.2187 25.641 16.2099 26.4999 15.0004 26.4999C13.7909 26.4999 12.782 25.641 12.5504 24.4999H12.2924C11.3259 24.4999 10.5424 23.7164 10.5424 22.7499V13.2499ZM18.5504 23.4999C18.782 22.3588 19.7909 21.4999 21.0004 21.4999C21.1716 21.4999 21.3388 21.5171 21.5004 21.5499V13.2499C21.5004 12.8357 21.1646 12.4999 20.7504 12.4999H12.2924C11.8782 12.4999 11.5424 12.8357 11.5424 13.2499V22.7499C11.5424 23.1641 11.8782 23.4999 12.2924 23.4999H12.5504C12.782 22.3588 13.7909 21.4999 15.0004 21.4999C16.2099 21.4999 17.2187 22.3588 17.4504 23.4999H18.5504ZM22.5004 21.9997C22.9804 22.3603 23.3265 22.8897 23.4503 23.4997H25.0005C25.2766 23.4997 25.5005 23.2759 25.5005 22.9997V19.4998H22.5004V21.9997ZM22.5004 18.4998H25.1915L23.8297 15.7762C23.745 15.6068 23.5718 15.4998 23.3824 15.4998L22.5004 15.4999V18.4998ZM15.0004 22.4999C14.172 22.4999 13.5004 23.1715 13.5004 23.9999C13.5004 24.8283 14.172 25.4999 15.0004 25.4999C15.8288 25.4999 16.5004 24.8283 16.5004 23.9999C16.5004 23.1715 15.8288 22.4999 15.0004 22.4999ZM19.5004 23.9999C19.5004 24.8283 20.172 25.4999 21.0004 25.4999C21.8288 25.4999 22.5004 24.8283 22.5004 23.9999C22.5004 23.1715 21.8288 22.4999 21.0004 22.4999C20.172 22.4999 19.5004 23.1715 19.5004 23.9999Z" fill="#E81414"/>
</svg>
