<?xml version="1.0" encoding="UTF-8"?>
<svg width="18px" height="19px" viewBox="0 0 18 19" version="1.1" xmlns="http://www.w3.org/2000/svg" xmlns:xlink="http://www.w3.org/1999/xlink">
    <!-- Generator: sketchtool 53.2 (72643) - https://sketchapp.com -->
    <title>C54EC565-5121-4DAA-B41E-0EDC1018025C</title>
    <desc>Created with sketchtool.</desc>
    <defs>
        <path d="M2.29,7.3 C1.95386407,7.63759326 1.90255043,8.16543786 2.16736978,8.56145211 C2.43218912,8.95746636 2.93960459,9.11168229 3.38,8.93 C3.50153207,8.87564278 3.613081,8.80127683 3.71,8.71 C3.79995097,8.61784963 3.87125687,8.50919302 3.92,8.39 C3.97716445,8.26816615 4.00458314,8.13450003 4,8 C3.99889538,7.73766012 3.89474416,7.48626064 3.71,7.3 C3.5222334,7.11068735 3.26663754,7.00420168 3,7.00420168 C2.73336246,7.00420168 2.4777666,7.11068735 2.29,7.3 Z M3,2 C3.55228475,2 4,2.44771525 4,3 C4,3.55228475 3.55228475,4 3,4 C2.44771525,4 2,4.44771525 2,5 C2,5.55228475 2.44771525,6 3,6 C4.45563844,5.99906638 5.70056541,4.9533143 5.95272155,3.51968206 C6.2048777,2.08604982 5.39149331,0.678269152 4.02353401,0.180703616 C2.6555747,-0.31686192 1.12781967,0.239380049 0.4,1.5 C0.266454987,1.73052374 0.230416285,2.00480629 0.299878348,2.26200366 C0.36934041,2.51920102 0.538560291,2.73804878 0.77,2.87 C1.24797918,3.1413883 1.85539152,2.97613642 2.13,2.5 C2.30934097,2.18936581 2.64131524,1.99857599 3,2 Z M15,3 L9,3 C8.44771525,3 8,3.44771525 8,4 C8,4.55228475 8.44771525,5 9,5 L15,5 C15.5522847,5 16,5.44771525 16,6 L16,15.72 L14.43,14.27 C14.2455769,14.0973348 14.0026349,14.0008725 13.75,14 L5,14 C4.44771525,14 4,13.5522847 4,13 L4,12 C4,11.4477153 3.55228475,11 3,11 C2.44771525,11 2,11.4477153 2,12 L2,13 C2,14.6568542 3.34314575,16 5,16 L13.36,16 L16.36,18.73 C16.5342179,18.893582 16.7612578,18.9893645 17,19 C17.1371549,18.9985053 17.2728206,18.9713722 17.4,18.92 C17.7655887,18.7604469 18.001389,18.3988865 18,18 L18,6 C18,4.34314575 16.6568542,3 15,3 Z" id="path-1"></path>
    </defs>
    <g id="Symbols" stroke="none" stroke-width="1" fill="none" fill-rule="evenodd">
        <g id="menu/main/side" transform="translate(-40.000000, -339.000000)">
            <g id="menu">
                <g transform="translate(37.000000, 101.000000)">
                    <g id="icon/atendimento" transform="translate(3.000000, 238.000000)">
                        <g id="color/primary/main-gradient-copy-6">
                            <g>
                                <mask id="mask-2" fill="white">
                                    <use xlink:href="#path-1"></use>
                                </mask>
                                <use id="Mask" fill="#000000" fill-rule="nonzero" xlink:href="#path-1"></use>
                                <g id="color/primary/gray" mask="url(#mask-2)" fill="#D4D4D4" fill-rule="nonzero">
                                    <g transform="translate(-4.000000, -3.000000)" id="color/primary/main-gradient">
                                        <rect x="0" y="0" width="23" height="23"></rect>
                                    </g>
                                </g>
                            </g>
                        </g>
                    </g>
                </g>
            </g>
        </g>
    </g>
</svg>