<?xml version="1.0" encoding="UTF-8"?>
<svg width="20px" height="20px" viewBox="0 0 20 20" version="1.1" xmlns="http://www.w3.org/2000/svg" xmlns:xlink="http://www.w3.org/1999/xlink">
    <!-- Generator: sketchtool 53.2 (72643) - https://sketchapp.com -->
    <title>90787156-47E5-40CA-923A-E7F180BB28F7</title>
    <desc>Created with sketchtool.</desc>
    <defs>
        <path d="M7.5,9.5 L10,9.5 C10.5522847,9.5 11,9.05228475 11,8.5 C11,7.94771525 10.5522847,7.5 10,7.5 L9,7.5 L9,7 C9,6.44771525 8.55228475,6 8,6 C7.44771525,6 7,6.44771525 7,7 L7,7.55 C5.74130361,7.80558588 4.88106566,8.97336721 5.01014453,10.251248 C5.1392234,11.5291288 6.21561724,12.5012908 7.5,12.5 L8.5,12.5 C8.77614237,12.5 9,12.7238576 9,13 C9,13.2761424 8.77614237,13.5 8.5,13.5 L6,13.5 C5.44771525,13.5 5,13.9477153 5,14.5 C5,15.0522847 5.44771525,15.5 6,15.5 L7,15.5 L7,16 C7,16.5522847 7.44771525,17 8,17 C8.55228475,17 9,16.5522847 9,16 L9,15.45 C10.2586964,15.1944141 11.1189343,14.0266328 10.9898555,12.748752 C10.8607766,11.4708712 9.78438276,10.4987092 8.5,10.5 L7.5,10.5 C7.22385763,10.5 7,10.2761424 7,10 C7,9.72385763 7.22385763,9.5 7.5,9.5 Z M19,11 L16,11 L16,2 C16.001424,1.64131524 15.8106342,1.30934097 15.5,1.13 C15.1905989,0.951367205 14.8094011,0.951367205 14.5,1.13 L11.5,2.85 L8.5,1.13 C8.19059892,0.951367205 7.80940108,0.951367205 7.5,1.13 L4.5,2.85 L1.5,1.13 C1.19059892,0.951367205 0.809401077,0.951367205 0.5,1.13 C0.189365807,1.30934097 -0.00142400634,1.64131524 1.02140518e-14,2 L1.02140518e-14,18 C1.02140518e-14,19.6568542 1.34314575,21 3,21 L17,21 C18.6568542,21 20,19.6568542 20,18 L20,12 C20,11.4477153 19.5522847,11 19,11 Z M3,19 C2.44771525,19 2,18.5522847 2,18 L2,3.73 L4,4.87 C4.31325563,5.03361622 4.68674437,5.03361622 5,4.87 L8,3.15 L11,4.87 C11.3132556,5.03361622 11.6867444,5.03361622 12,4.87 L14,3.73 L14,18 C14.0027046,18.3411432 14.0635775,18.679326 14.18,19 L3,19 Z M18,18 C18,18.5522847 17.5522847,19 17,19 C16.4477153,19 16,18.5522847 16,18 L16,13 L18,13 L18,18 Z" id="path-1"></path>
    </defs>
    <g id="Symbols" stroke="none" stroke-width="1" fill="none" fill-rule="evenodd">
        <g id="menu/main/side" transform="translate(-38.000000, -433.000000)">
            <g id="menu">
                <g transform="translate(37.000000, 101.000000)">
                    <g id="icon/financas" transform="translate(1.000000, 331.000000)">
                        <g id="color/primary/main-gradient-copy">
                            <g>
                                <mask id="mask-2" fill="white">
                                    <use xlink:href="#path-1"></use>
                                </mask>
                                <use id="Mask" fill="#000000" fill-rule="nonzero" xlink:href="#path-1"></use>
                                <g id="color/primary/gray" mask="url(#mask-2)" fill="#D4D4D4" fill-rule="nonzero">
                                    <g transform="translate(-2.000000, -1.000000)" id="color/primary/main-gradient">
                                        <rect x="0" y="0" width="23" height="23"></rect>
                                    </g>
                                </g>
                            </g>
                        </g>
                    </g>
                </g>
            </g>
        </g>
    </g>
</svg>