<?xml version="1.0" encoding="UTF-8"?>
<svg width="42px" height="42px" viewBox="0 0 42 42" version="1.1" xmlns="http://www.w3.org/2000/svg" xmlns:xlink="http://www.w3.org/1999/xlink">
    <!-- Generator: sketchtool 53.2 (72643) - https://sketchapp.com -->
    <title>DA001496-3449-48F1-BF45-5421C08400CD</title>
    <desc>Created with sketchtool.</desc>
    <g id="Symbols" stroke="none" stroke-width="1" fill="none" fill-rule="evenodd">
        <g id="box/moedas" transform="translate(-29.000000, -59.000000)" stroke="#FFFFFF">
            <g id="Group-2">
                <g transform="translate(31.000000, 61.000000)">
                    <path d="M19.8178259,28.2978723 C20.5774736,27.3376867 22.2536893,22.9472376 24.1636059,22.7460787 C26.0740023,22.5444397 33.1819631,24.764389 33.9574468,20.2030269 C33.9574468,20.2030269 29.7921012,19.7618216 28.3236729,17.4953033 C27.260262,15.8553062 26.1320676,13.6968087 23.6942847,12.5441058 C23.6554145,12.374633 23.6064669,12.1950783 23.5359248,11.9910389 C22.701416,9.58913438 18.5687021,5.65957447 18.5687021,5.65957447 C17.7130787,7.33557858 17.7821812,9.87719009 17.8781569,11.107668 C13.9733853,8.13829381 10.8009084,8.1387739 10.8009084,8.1387739 C10.758679,10.4537816 12.4133002,13.2892099 12.9478849,14.1437752 C12.3729904,14.655074 9.07286577,17.6374108 8.76910266,19.0445629 L9.74901461,18.6888141 C9.74901461,18.6888141 6.5218315,24.6890144 6.46808511,27.401539 C6.46808511,27.401539 8.63905558,25.8935674 9.9304087,25.421156" id="Stroke-1" stroke-width="2.26800001" stroke-linecap="round" stroke-linejoin="round"></path>
                    <circle id="Oval" stroke-width="2.43000001" fill-rule="nonzero" cx="19" cy="19" r="19"></circle>
                </g>
            </g>
        </g>
    </g>
</svg>