<?xml version="1.0" encoding="UTF-8"?>
<svg width="16px" height="22px" viewBox="0 0 16 22" version="1.1" xmlns="http://www.w3.org/2000/svg" xmlns:xlink="http://www.w3.org/1999/xlink">
    <!-- Generator: sketchtool 53.2 (72643) - https://sketchapp.com -->
    <title>33EDB048-DBD2-458A-AF8F-B5B0243C6ED6</title>
    <desc>Created with sketchtool.</desc>
    <defs>
        <path d="M13.09,2.82 C11.2273691,1.2880778 8.77305357,0.678173039 6.41,1.16 C3.23259692,1.80181515 0.756557788,4.29759941 0.14,7.48 C-0.305733595,9.84220513 0.324832164,12.2801483 1.86,14.13 C2.56368536,14.9240676 2.96703356,15.9395144 3,17 L3,20 C3,21.6568542 4.34314575,23 6,23 L10,23 C11.6568542,23 13,21.6568542 13,20 L13,17.19 C13.0335621,16.0191665 13.463712,14.8944305 14.22,14 C16.9779417,10.5883349 16.4738475,5.59200243 13.09,2.8 L13.09,2.82 Z M11,20 C11,20.5522847 10.5522847,21 10,21 L6,21 C5.44771525,21 5,20.5522847 5,20 L5,19 L11,19 L11,20 Z M12.67,12.76 C11.6645058,13.9525987 11.0778636,15.4420374 11,17 L9,17 L9,14 C9,13.4477153 8.55228475,13 8,13 C7.44771525,13 7,13.4477153 7,14 L7,17 L5,17 C4.97361514,15.4681008 4.40694579,13.9947604 3.4,12.84 C2.04858397,11.220798 1.64654855,9.01095116 2.34108726,7.01953043 C3.03562597,5.02810971 4.72473635,3.54758228 6.79,3.12 C8.55701682,2.75617629 10.393952,3.20675842 11.7920479,4.34695313 C13.1901438,5.48714785 14.0009847,7.19591708 14,9 C14.0074019,10.3698624 13.53709,11.6994659 12.67,12.76 Z" id="path-1"></path>
    </defs>
    <g id="Symbols" stroke="none" stroke-width="1" fill="none" fill-rule="evenodd">
        <g id="menu/main/side" transform="translate(-40.000000, -247.000000)">
            <g id="menu">
                <g transform="translate(37.000000, 101.000000)">
                    <g id="icon/projetos" transform="translate(3.000000, 145.000000)">
                        <g id="color/primary/main-gradient-copy-12">
                            <g>
                                <mask id="mask-2" fill="white">
                                    <use xlink:href="#path-1"></use>
                                </mask>
                                <use id="Mask" fill="#000000" fill-rule="nonzero" xlink:href="#path-1"></use>
                                <g id="color/primary/gray" mask="url(#mask-2)" fill="#D4D4D4" fill-rule="nonzero">
                                    <g transform="translate(-4.000000, 0.000000)" id="color/primary/main-gradient">
                                        <rect x="0" y="0" width="23" height="23"></rect>
                                    </g>
                                </g>
                            </g>
                        </g>
                    </g>
                </g>
            </g>
        </g>
    </g>
</svg>