<svg width="12" height="12" viewBox="0 0 12 12" fill="none" xmlns="http://www.w3.org/2000/svg">
<path d="M1.75504 11.37C1.47004 11.37 1.18504 11.265 0.960039 11.04C0.525039 10.605 0.525039 9.88501 0.960039 9.45001L9.45004 0.960009C9.88504 0.525009 10.605 0.525009 11.04 0.960009C11.475 1.39501 11.475 2.11501 11.04 2.55001L2.55004 11.04C2.34004 11.265 2.04004 11.37 1.75504 11.37Z" fill="#636363"/>
<path d="M10.245 11.37C9.96004 11.37 9.67504 11.265 9.45004 11.04L0.960039 2.55001C0.525039 2.11501 0.525039 1.39501 0.960039 0.960009C1.39504 0.525009 2.11504 0.525009 2.55004 0.960009L11.04 9.45001C11.475 9.88501 11.475 10.605 11.04 11.04C10.815 11.265 10.53 11.37 10.245 11.37Z" fill="#636363"/>
</svg>
