<svg width="393" height="106" viewBox="0 0 393 106" fill="none" xmlns="http://www.w3.org/2000/svg">
<path d="M340.875 70.41C361.5 73.8549 375.714 94.3495 393 97.7104V106H3.05176e-05V55.9893C19.2434 55.9893 21.8113 71.2636 30.867 67.0589C39.9227 62.8542 49.4351 33.9447 60 35.4737C70.565 37.0027 76.3631 -3.56824 98.625 0.254224C120.887 4.07668 137.271 47.7352 155.005 29.0051C172.739 10.2751 176.509 20.1579 195.375 16.3355C214.241 12.513 222.506 58.3041 240.375 56.8408C258.244 55.3775 263.014 93.4635 281.25 89.931C303.348 85.6503 301.424 83.2526 311.25 77.7C321.076 72.1474 329.882 68.5739 340.875 70.41Z" fill="url(#paint0_linear_1640_460)" fill-opacity="0.5"/>
<defs>
<linearGradient id="paint0_linear_1640_460" x1="196.5" y1="0" x2="196.5" y2="150.34" gradientUnits="userSpaceOnUse">
<stop stop-color="#E8EDFA"/>
<stop offset="1" stop-color="#F4F6FB" stop-opacity="0"/>
</linearGradient>
</defs>
</svg>
