<svg width="393" height="106" viewBox="0 0 393 106" fill="none" xmlns="http://www.w3.org/2000/svg">
<path d="M340.875 70.41C361.5 73.8549 375.714 94.3495 393 97.7104V106H3.05176e-05V55.9893C19.2434 55.9893 21.8113 71.2636 30.867 67.0589C39.9227 62.8542 49.4351 33.9447 60 35.4737C70.565 37.0027 76.3631 -3.56824 98.625 0.254224C120.887 4.07668 137.271 47.7352 155.005 29.0051C172.739 10.2751 176.509 20.1579 195.375 16.3355C214.241 12.513 222.506 58.3041 240.375 56.8408C258.244 55.3775 263.014 93.4635 281.25 89.931C303.348 85.6503 301.424 83.2526 311.25 77.7C321.076 72.1474 329.882 68.5739 340.875 70.41Z" fill="url(#paint0_linear_1640_459)" fill-opacity="0.5"/>
<path d="M104.728 49V37.72H105.768L113 47.32H112.632V37.72H113.864V49H112.84L105.608 39.4H105.96V49H104.728ZM119.593 49.144C118.879 49.144 118.255 48.9787 117.721 48.648C117.188 48.3067 116.772 47.8267 116.473 47.208C116.185 46.5893 116.041 45.848 116.041 44.984C116.041 44.1093 116.185 43.3627 116.473 42.744C116.772 42.1253 117.188 41.6507 117.721 41.32C118.255 40.9893 118.879 40.824 119.593 40.824C120.319 40.824 120.943 41.0107 121.465 41.384C121.999 41.7467 122.351 42.2427 122.521 42.872H122.329L122.505 40.968H123.753C123.721 41.2773 123.689 41.592 123.657 41.912C123.636 42.2213 123.625 42.5253 123.625 42.824V49H122.329V47.112H122.505C122.335 47.7413 121.983 48.2373 121.449 48.6C120.916 48.9627 120.297 49.144 119.593 49.144ZM119.849 48.088C120.617 48.088 121.225 47.8267 121.673 47.304C122.121 46.7707 122.345 45.9973 122.345 44.984C122.345 43.96 122.121 43.1867 121.673 42.664C121.225 42.1307 120.617 41.864 119.849 41.864C119.092 41.864 118.484 42.1307 118.025 42.664C117.577 43.1867 117.353 43.96 117.353 44.984C117.353 45.9973 117.577 46.7707 118.025 47.304C118.484 47.8267 119.092 48.088 119.849 48.088ZM117.833 39.56L117.097 39.512C117.151 38.8293 117.332 38.3067 117.641 37.944C117.951 37.5707 118.34 37.384 118.809 37.384C119.044 37.384 119.257 37.4373 119.449 37.544C119.652 37.6507 119.881 37.816 120.137 38.04C120.372 38.2533 120.559 38.4027 120.697 38.488C120.847 38.5627 120.991 38.6 121.129 38.6C121.673 38.6 122.004 38.1787 122.121 37.336L122.857 37.384C122.804 38.0667 122.623 38.5947 122.313 38.968C122.015 39.3307 121.631 39.512 121.161 39.512C120.937 39.512 120.724 39.4587 120.521 39.352C120.319 39.2453 120.084 39.0747 119.817 38.84C119.593 38.6373 119.407 38.4987 119.257 38.424C119.119 38.3387 118.975 38.296 118.825 38.296C118.548 38.296 118.324 38.408 118.153 38.632C117.993 38.8453 117.887 39.1547 117.833 39.56ZM129.427 49.144C128.659 49.144 127.987 48.9787 127.411 48.648C126.846 48.3067 126.409 47.8267 126.099 47.208C125.79 46.5787 125.635 45.8373 125.635 44.984C125.635 44.12 125.79 43.3787 126.099 42.76C126.409 42.1413 126.846 41.6667 127.411 41.336C127.987 40.9947 128.659 40.824 129.427 40.824C130.206 40.824 130.878 40.9947 131.443 41.336C132.019 41.6667 132.462 42.1413 132.771 42.76C133.091 43.3787 133.251 44.12 133.251 44.984C133.251 45.8373 133.091 46.5787 132.771 47.208C132.462 47.8267 132.019 48.3067 131.443 48.648C130.878 48.9787 130.206 49.144 129.427 49.144ZM129.427 48.088C130.195 48.088 130.803 47.8267 131.251 47.304C131.699 46.7707 131.923 45.9973 131.923 44.984C131.923 43.96 131.694 43.1867 131.235 42.664C130.787 42.1307 130.185 41.864 129.427 41.864C128.67 41.864 128.067 42.1307 127.619 42.664C127.171 43.1867 126.947 43.96 126.947 44.984C126.947 45.9973 127.171 46.7707 127.619 47.304C128.067 47.8267 128.67 48.088 129.427 48.088ZM139.444 49V37.224H140.74V42.744H140.532C140.756 42.1147 141.129 41.64 141.652 41.32C142.185 40.9893 142.798 40.824 143.492 40.824C144.452 40.824 145.166 41.0853 145.636 41.608C146.105 42.12 146.34 42.8987 146.34 43.944V49H145.044V44.024C145.044 43.2773 144.894 42.7333 144.596 42.392C144.308 42.0507 143.838 41.88 143.188 41.88C142.441 41.88 141.844 42.1093 141.396 42.568C140.958 43.0267 140.74 43.6293 140.74 44.376V49H139.444ZM151.875 49.144C151.16 49.144 150.536 48.9787 150.003 48.648C149.469 48.3067 149.053 47.8267 148.755 47.208C148.467 46.5893 148.323 45.848 148.323 44.984C148.323 44.1093 148.467 43.3627 148.755 42.744C149.053 42.1253 149.469 41.6507 150.003 41.32C150.536 40.9893 151.16 40.824 151.875 40.824C152.6 40.824 153.224 41.0107 153.747 41.384C154.28 41.7467 154.632 42.2427 154.803 42.872H154.611L154.787 40.968H156.035C156.003 41.2773 155.971 41.592 155.939 41.912C155.917 42.2213 155.907 42.5253 155.907 42.824V49H154.611V47.112H154.787C154.616 47.7413 154.264 48.2373 153.731 48.6C153.197 48.9627 152.579 49.144 151.875 49.144ZM152.131 48.088C152.899 48.088 153.507 47.8267 153.955 47.304C154.403 46.7707 154.627 45.9973 154.627 44.984C154.627 43.96 154.403 43.1867 153.955 42.664C153.507 42.1307 152.899 41.864 152.131 41.864C151.373 41.864 150.765 42.1307 150.307 42.664C149.859 43.1867 149.635 43.96 149.635 44.984C149.635 45.9973 149.859 46.7707 150.307 47.304C150.765 47.8267 151.373 48.088 152.131 48.088ZM151.795 40.184L153.443 36.952H154.835L152.723 40.184H151.795ZM165.624 49.144C164.92 49.144 164.302 48.9787 163.768 48.648C163.235 48.3067 162.819 47.8267 162.52 47.208C162.232 46.5893 162.088 45.848 162.088 44.984C162.088 44.1093 162.232 43.3627 162.52 42.744C162.819 42.1253 163.235 41.6507 163.768 41.32C164.302 40.9893 164.92 40.824 165.624 40.824C166.35 40.824 166.974 41.0053 167.496 41.368C168.03 41.7307 168.387 42.2213 168.568 42.84H168.376V37.224H169.672V49H168.392V47.08H168.568C168.398 47.72 168.046 48.2267 167.512 48.6C166.979 48.9627 166.35 49.144 165.624 49.144ZM165.896 48.088C166.654 48.088 167.262 47.8267 167.72 47.304C168.179 46.7707 168.408 45.9973 168.408 44.984C168.408 43.96 168.179 43.1867 167.72 42.664C167.262 42.1307 166.654 41.864 165.896 41.864C165.139 41.864 164.531 42.1307 164.072 42.664C163.624 43.1867 163.4 43.96 163.4 44.984C163.4 45.9973 163.624 46.7707 164.072 47.304C164.531 47.8267 165.139 48.088 165.896 48.088ZM175.234 49.144C174.519 49.144 173.895 48.9787 173.362 48.648C172.829 48.3067 172.413 47.8267 172.114 47.208C171.826 46.5893 171.682 45.848 171.682 44.984C171.682 44.1093 171.826 43.3627 172.114 42.744C172.413 42.1253 172.829 41.6507 173.362 41.32C173.895 40.9893 174.519 40.824 175.234 40.824C175.959 40.824 176.583 41.0107 177.106 41.384C177.639 41.7467 177.991 42.2427 178.162 42.872H177.97L178.146 40.968H179.394C179.362 41.2773 179.33 41.592 179.298 41.912C179.277 42.2213 179.266 42.5253 179.266 42.824V49H177.97V47.112H178.146C177.975 47.7413 177.623 48.2373 177.09 48.6C176.557 48.9627 175.938 49.144 175.234 49.144ZM175.49 48.088C176.258 48.088 176.866 47.8267 177.314 47.304C177.762 46.7707 177.986 45.9973 177.986 44.984C177.986 43.96 177.762 43.1867 177.314 42.664C176.866 42.1307 176.258 41.864 175.49 41.864C174.733 41.864 174.125 42.1307 173.666 42.664C173.218 43.1867 172.994 43.96 172.994 44.984C172.994 45.9973 173.218 46.7707 173.666 47.304C174.125 47.8267 174.733 48.088 175.49 48.088ZM184.812 49.144C184.108 49.144 183.489 48.9787 182.956 48.648C182.422 48.3067 182.006 47.8267 181.708 47.208C181.42 46.5893 181.276 45.848 181.276 44.984C181.276 44.1093 181.42 43.3627 181.708 42.744C182.006 42.1253 182.422 41.6507 182.956 41.32C183.489 40.9893 184.108 40.824 184.812 40.824C185.537 40.824 186.161 41.0053 186.684 41.368C187.217 41.7307 187.574 42.2213 187.756 42.84H187.564V37.224H188.86V49H187.58V47.08H187.756C187.585 47.72 187.233 48.2267 186.7 48.6C186.166 48.9627 185.537 49.144 184.812 49.144ZM185.084 48.088C185.841 48.088 186.449 47.8267 186.908 47.304C187.366 46.7707 187.596 45.9973 187.596 44.984C187.596 43.96 187.366 43.1867 186.908 42.664C186.449 42.1307 185.841 41.864 185.084 41.864C184.326 41.864 183.718 42.1307 183.26 42.664C182.812 43.1867 182.588 43.96 182.588 44.984C182.588 45.9973 182.812 46.7707 183.26 47.304C183.718 47.8267 184.326 48.088 185.084 48.088ZM194.662 49.144C193.894 49.144 193.222 48.9787 192.646 48.648C192.08 48.3067 191.643 47.8267 191.334 47.208C191.024 46.5787 190.87 45.8373 190.87 44.984C190.87 44.12 191.024 43.3787 191.334 42.76C191.643 42.1413 192.08 41.6667 192.646 41.336C193.222 40.9947 193.894 40.824 194.662 40.824C195.44 40.824 196.112 40.9947 196.678 41.336C197.254 41.6667 197.696 42.1413 198.006 42.76C198.326 43.3787 198.486 44.12 198.486 44.984C198.486 45.8373 198.326 46.5787 198.006 47.208C197.696 47.8267 197.254 48.3067 196.678 48.648C196.112 48.9787 195.44 49.144 194.662 49.144ZM194.662 48.088C195.43 48.088 196.038 47.8267 196.486 47.304C196.934 46.7707 197.158 45.9973 197.158 44.984C197.158 43.96 196.928 43.1867 196.47 42.664C196.022 42.1307 195.419 41.864 194.662 41.864C193.904 41.864 193.302 42.1307 192.854 42.664C192.406 43.1867 192.182 43.96 192.182 44.984C192.182 45.9973 192.406 46.7707 192.854 47.304C193.302 47.8267 193.904 48.088 194.662 48.088ZM203.178 49.144C202.538 49.144 201.941 49.0587 201.386 48.888C200.832 48.7067 200.373 48.456 200.01 48.136L200.458 47.224C200.853 47.5333 201.28 47.7627 201.738 47.912C202.208 48.0613 202.693 48.136 203.194 48.136C203.834 48.136 204.314 48.024 204.634 47.8C204.965 47.5653 205.13 47.2453 205.13 46.84C205.13 46.5307 205.024 46.2853 204.81 46.104C204.608 45.912 204.272 45.7627 203.802 45.656L202.314 45.352C201.632 45.2027 201.12 44.952 200.778 44.6C200.437 44.2373 200.266 43.7787 200.266 43.224C200.266 42.7547 200.389 42.344 200.634 41.992C200.88 41.6293 201.237 41.3467 201.706 41.144C202.176 40.9307 202.725 40.824 203.354 40.824C203.941 40.824 204.48 40.9147 204.97 41.096C205.472 41.2667 205.888 41.5173 206.218 41.848L205.754 42.744C205.434 42.4347 205.066 42.2053 204.65 42.056C204.245 41.896 203.824 41.816 203.386 41.816C202.757 41.816 202.282 41.944 201.962 42.2C201.653 42.4453 201.498 42.7707 201.498 43.176C201.498 43.4853 201.594 43.7413 201.786 43.944C201.989 44.136 202.298 44.28 202.714 44.376L204.202 44.68C204.928 44.84 205.466 45.0907 205.818 45.432C206.181 45.7627 206.362 46.2107 206.362 46.776C206.362 47.256 206.229 47.6773 205.962 48.04C205.696 48.392 205.322 48.664 204.842 48.856C204.373 49.048 203.818 49.144 203.178 49.144ZM215.288 49.144C214.648 49.144 214.05 49.0587 213.496 48.888C212.941 48.7067 212.482 48.456 212.12 48.136L212.568 47.224C212.962 47.5333 213.389 47.7627 213.848 47.912C214.317 48.0613 214.802 48.136 215.304 48.136C215.944 48.136 216.424 48.024 216.744 47.8C217.074 47.5653 217.24 47.2453 217.24 46.84C217.24 46.5307 217.133 46.2853 216.92 46.104C216.717 45.912 216.381 45.7627 215.912 45.656L214.424 45.352C213.741 45.2027 213.229 44.952 212.888 44.6C212.546 44.2373 212.376 43.7787 212.376 43.224C212.376 42.7547 212.498 42.344 212.744 41.992C212.989 41.6293 213.346 41.3467 213.816 41.144C214.285 40.9307 214.834 40.824 215.464 40.824C216.05 40.824 216.589 40.9147 217.08 41.096C217.581 41.2667 217.997 41.5173 218.328 41.848L217.864 42.744C217.544 42.4347 217.176 42.2053 216.76 42.056C216.354 41.896 215.933 41.816 215.496 41.816C214.866 41.816 214.392 41.944 214.072 42.2C213.762 42.4453 213.608 42.7707 213.608 43.176C213.608 43.4853 213.704 43.7413 213.896 43.944C214.098 44.136 214.408 44.28 214.824 44.376L216.312 44.68C217.037 44.84 217.576 45.0907 217.928 45.432C218.29 45.7627 218.472 46.2107 218.472 46.776C218.472 47.256 218.338 47.6773 218.072 48.04C217.805 48.392 217.432 48.664 216.952 48.856C216.482 49.048 215.928 49.144 215.288 49.144ZM223.385 49.144C222.436 49.144 221.716 48.8827 221.225 48.36C220.745 47.8373 220.505 47.0373 220.505 45.96V40.968H221.801V45.928C221.801 46.664 221.95 47.208 222.249 47.56C222.548 47.9013 223.012 48.072 223.641 48.072C224.345 48.072 224.91 47.8427 225.337 47.384C225.764 46.9253 225.977 46.312 225.977 45.544V40.968H227.273V49H226.009V47.192H226.217C225.993 47.8107 225.63 48.2907 225.129 48.632C224.638 48.9733 224.057 49.144 223.385 49.144ZM230.203 49V41.976H228.635V40.968H230.555L230.203 41.304V39.96C230.203 39.0533 230.427 38.36 230.875 37.88C231.334 37.4 231.985 37.16 232.827 37.16C233.03 37.16 233.243 37.1813 233.467 37.224C233.702 37.256 233.899 37.304 234.059 37.368V38.44C233.931 38.3867 233.771 38.344 233.579 38.312C233.398 38.2693 233.211 38.248 233.019 38.248C232.518 38.248 232.139 38.3973 231.883 38.696C231.627 38.9947 231.499 39.4533 231.499 40.072V41.24L231.291 40.968H236.443V49H235.147V41.976H231.499V49H230.203ZM235.003 39.144V37.688H236.603V39.144H235.003ZM242.351 49.144C241.562 49.144 240.874 48.9733 240.287 48.632C239.711 48.2907 239.263 47.8053 238.943 47.176C238.634 46.5467 238.479 45.8 238.479 44.936C238.479 44.0613 238.639 43.32 238.959 42.712C239.279 42.0933 239.727 41.624 240.303 41.304C240.89 40.984 241.572 40.824 242.351 40.824C242.863 40.824 243.359 40.9147 243.839 41.096C244.33 41.2773 244.735 41.5333 245.055 41.864L244.591 42.792C244.271 42.4827 243.919 42.2533 243.535 42.104C243.162 41.9547 242.794 41.88 242.431 41.88C241.599 41.88 240.954 42.1413 240.495 42.664C240.036 43.1867 239.807 43.9493 239.807 44.952C239.807 45.944 240.036 46.712 240.495 47.256C240.954 47.8 241.599 48.072 242.431 48.072C242.783 48.072 243.146 48.0027 243.519 47.864C243.903 47.7253 244.26 47.496 244.591 47.176L245.055 48.088C244.724 48.4293 244.314 48.6907 243.823 48.872C243.332 49.0533 242.842 49.144 242.351 49.144ZM246.897 49V40.968H248.193V49H246.897ZM246.737 39.144V37.688H248.337V39.144H246.737ZM254.277 49.144C253.019 49.144 252.027 48.7813 251.301 48.056C250.576 47.32 250.213 46.3013 250.213 45C250.213 44.1573 250.373 43.4267 250.693 42.808C251.013 42.1787 251.461 41.6933 252.037 41.352C252.613 41 253.275 40.824 254.021 40.824C254.757 40.824 255.376 40.9787 255.877 41.288C256.379 41.5973 256.763 42.04 257.029 42.616C257.296 43.1813 257.429 43.8533 257.429 44.632V45.112H251.205V44.296H256.581L256.309 44.504C256.309 43.6507 256.117 42.984 255.733 42.504C255.349 42.024 254.779 41.784 254.021 41.784C253.221 41.784 252.597 42.0667 252.149 42.632C251.701 43.1867 251.477 43.9387 251.477 44.888V45.032C251.477 46.0347 251.723 46.7973 252.213 47.32C252.715 47.832 253.413 48.088 254.309 48.088C254.789 48.088 255.237 48.0187 255.653 47.88C256.08 47.7307 256.485 47.4907 256.869 47.16L257.317 48.072C256.965 48.4133 256.517 48.68 255.973 48.872C255.44 49.0533 254.875 49.144 254.277 49.144ZM259.412 49V42.824C259.412 42.5253 259.396 42.2213 259.364 41.912C259.343 41.592 259.316 41.2773 259.284 40.968H260.532L260.692 42.728H260.5C260.735 42.1093 261.108 41.64 261.62 41.32C262.143 40.9893 262.746 40.824 263.428 40.824C264.378 40.824 265.092 41.08 265.572 41.592C266.063 42.0933 266.308 42.888 266.308 43.976V49H265.012V44.056C265.012 43.2987 264.858 42.7493 264.548 42.408C264.25 42.056 263.78 41.88 263.14 41.88C262.394 41.88 261.802 42.1093 261.364 42.568C260.927 43.0267 260.708 43.64 260.708 44.408V49H259.412ZM271.635 49.144C270.846 49.144 270.243 48.92 269.827 48.472C269.411 48.0133 269.203 47.3253 269.203 46.408V41.976H267.635V40.968H269.203V38.776L270.499 38.408V40.968H272.803V41.976H270.499V46.264C270.499 46.904 270.606 47.3627 270.819 47.64C271.043 47.9067 271.374 48.04 271.811 48.04C272.014 48.04 272.195 48.024 272.355 47.992C272.515 47.9493 272.659 47.9013 272.787 47.848V48.936C272.638 49 272.457 49.048 272.243 49.08C272.041 49.1227 271.838 49.144 271.635 49.144ZM277.871 49.144C276.612 49.144 275.62 48.7813 274.895 48.056C274.17 47.32 273.807 46.3013 273.807 45C273.807 44.1573 273.967 43.4267 274.287 42.808C274.607 42.1787 275.055 41.6933 275.631 41.352C276.207 41 276.868 40.824 277.615 40.824C278.351 40.824 278.97 40.9787 279.471 41.288C279.972 41.5973 280.356 42.04 280.623 42.616C280.89 43.1813 281.023 43.8533 281.023 44.632V45.112H274.799V44.296H280.175L279.903 44.504C279.903 43.6507 279.711 42.984 279.327 42.504C278.943 42.024 278.372 41.784 277.615 41.784C276.815 41.784 276.191 42.0667 275.743 42.632C275.295 43.1867 275.071 43.9387 275.071 44.888V45.032C275.071 46.0347 275.316 46.7973 275.807 47.32C276.308 47.832 277.007 48.088 277.903 48.088C278.383 48.088 278.831 48.0187 279.247 47.88C279.674 47.7307 280.079 47.4907 280.463 47.16L280.911 48.072C280.559 48.4133 280.111 48.68 279.567 48.872C279.034 49.0533 278.468 49.144 277.871 49.144ZM285.678 49.144C285.038 49.144 284.441 49.0587 283.886 48.888C283.332 48.7067 282.873 48.456 282.51 48.136L282.958 47.224C283.353 47.5333 283.78 47.7627 284.238 47.912C284.708 48.0613 285.193 48.136 285.694 48.136C286.334 48.136 286.814 48.024 287.134 47.8C287.465 47.5653 287.63 47.2453 287.63 46.84C287.63 46.5307 287.524 46.2853 287.31 46.104C287.108 45.912 286.772 45.7627 286.302 45.656L284.814 45.352C284.132 45.2027 283.62 44.952 283.278 44.6C282.937 44.2373 282.766 43.7787 282.766 43.224C282.766 42.7547 282.889 42.344 283.134 41.992C283.38 41.6293 283.737 41.3467 284.206 41.144C284.676 40.9307 285.225 40.824 285.854 40.824C286.441 40.824 286.98 40.9147 287.47 41.096C287.972 41.2667 288.388 41.5173 288.718 41.848L288.254 42.744C287.934 42.4347 287.566 42.2053 287.15 42.056C286.745 41.896 286.324 41.816 285.886 41.816C285.257 41.816 284.782 41.944 284.462 42.2C284.153 42.4453 283.998 42.7707 283.998 43.176C283.998 43.4853 284.094 43.7413 284.286 43.944C284.489 44.136 284.798 44.28 285.214 44.376L286.702 44.68C287.428 44.84 287.966 45.0907 288.318 45.432C288.681 45.7627 288.862 46.2107 288.862 46.776C288.862 47.256 288.729 47.6773 288.462 48.04C288.196 48.392 287.822 48.664 287.342 48.856C286.873 49.048 286.318 49.144 285.678 49.144Z" fill="#757575"/>
<defs>
<linearGradient id="paint0_linear_1640_459" x1="196.5" y1="0" x2="196.5" y2="150.34" gradientUnits="userSpaceOnUse">
<stop stop-color="#E8EDFA"/>
<stop offset="1" stop-color="#F4F6FB" stop-opacity="0"/>
</linearGradient>
</defs>
</svg>
