<svg width="12" height="12" viewBox="0 0 12 12" fill="none" xmlns="http://www.w3.org/2000/svg">
<path d="M6.00001 2.27586C4.97326 2.27586 4.13794 3.11118 4.13794 4.13793C4.13794 4.39503 4.34636 4.60345 4.60346 4.60345C4.86055 4.60345 5.06897 4.39503 5.06897 4.13793C5.06897 3.62538 5.48745 3.2069 6.00001 3.2069C6.51257 3.2069 6.93104 3.62538 6.93104 4.13793C6.93104 4.54345 6.85562 4.76987 6.77364 4.91409C6.68841 5.06403 6.57405 5.16782 6.40027 5.31264L6.36856 5.33898C6.20781 5.47232 5.98908 5.65374 5.8227 5.9218C5.63681 6.22129 5.53449 6.59204 5.53449 7.08621V7.39655C5.53449 7.65365 5.74291 7.86207 6.00001 7.86207C6.25711 7.86207 6.46553 7.65365 6.46553 7.39655V7.08621C6.46553 6.72693 6.53778 6.53518 6.61374 6.41279C6.69799 6.27706 6.80988 6.18323 6.9963 6.02788C7.17166 5.88175 7.40643 5.68489 7.58305 5.37417C7.76293 5.05772 7.86208 4.66345 7.86208 4.13793C7.86208 3.11118 7.02676 2.27586 6.00001 2.27586ZM6.00001 9.87931C6.34281 9.87931 6.6207 9.60142 6.6207 9.25862C6.6207 8.91582 6.34281 8.63793 6.00001 8.63793C5.65721 8.63793 5.37932 8.91582 5.37932 9.25862C5.37932 9.60142 5.65721 9.87931 6.00001 9.87931Z" fill="#2E85EC"/>
<path d="M6 11C3.23858 11 1 8.76142 1 6H-1C-1 9.86599 2.13401 13 6 13V11ZM11 6C11 8.76142 8.76142 11 6 11V13C9.86599 13 13 9.86599 13 6H11ZM6 1C8.76142 1 11 3.23858 11 6H13C13 2.13401 9.86599 -1 6 -1V1ZM6 -1C2.13401 -1 -1 2.13401 -1 6H1C1 3.23858 3.23858 1 6 1V-1Z" fill="#2E85EC"/>
</svg>
