<svg width="76" height="17" viewBox="0 0 76 17" fill="none" xmlns="http://www.w3.org/2000/svg">
<path d="M72.2481 6.48604H73.4951V5.2341H72.2481V6.48604ZM69.7432 1.47887H70.9956V0.226934H69.7432V1.47887ZM69.7432 3.98217H70.9956V2.7308H69.7432V3.98217ZM74.7476 1.47887H76V0.226934H74.7476V1.47887ZM72.2481 3.98217H73.4951V2.7308H72.2481V3.98217ZM69.7432 6.48604H70.9956V5.2341H69.7432V6.48604ZM72.2481 1.47887H73.4951V0.226934H72.2481V1.47887ZM74.7476 3.98217H76V2.7308H74.7476V3.98217ZM74.7476 6.48604H76V5.2341H74.7476V6.48604ZM17.3341 8.96342C17.535 7.06959 18.4484 6.06404 20.1851 6.06404C21.8764 6.06404 22.8617 7.13443 22.8617 8.96342H17.3341ZM20.3211 4.0146C16.4202 4.0146 14.8849 6.64814 14.8849 9.96842C14.8849 13.782 16.8677 16.059 20.9695 16.059C22.2846 16.059 23.4641 15.8574 24.5789 15.3452C24.7344 14.6125 24.8704 13.7626 24.9546 13.1142C23.7297 13.6718 22.3693 13.9636 21.0343 13.9636C18.8506 13.9636 17.6904 13.004 17.3795 11.0194H25.2008C25.2915 10.371 25.3368 9.8128 25.3368 9.12553C25.3294 6.31044 23.8139 4.0146 20.3211 4.0146H20.3211ZM33.4432 6.48604C33.5534 5.83711 33.6181 5.14981 33.6634 4.39122H29.7884V0.175063C29.0304 0.175063 28.097 0.285283 27.3391 0.532215V12.2389C27.3391 14.9561 28.8555 16.0519 31.24 16.0519C31.9332 16.0519 32.6463 15.9612 33.3136 15.6953C33.4496 15.0469 33.5339 14.2883 33.6051 13.6199C33.0674 13.8209 32.4002 13.9571 31.687 13.9571C30.508 13.9571 29.7949 13.3995 29.7949 11.953V6.48604H33.4432ZM65.7698 6.48604C65.8832 5.83711 65.9533 5.14981 65.9912 4.39122H62.115V0.175063C61.3593 0.175063 60.4253 0.285283 59.6695 0.532215V12.2389C59.6695 14.9561 61.1865 16.0519 63.5672 16.0519C64.2636 16.0519 64.9762 15.9612 65.6403 15.6953C65.7806 15.0469 65.8616 14.2883 65.9318 13.6199C65.3973 13.8209 64.7279 13.9571 64.0153 13.9571C62.8384 13.9571 62.1258 13.3995 62.1258 11.953V6.48604H65.7698ZM49.6629 8.96342C49.8637 7.06959 50.7772 6.06404 52.5138 6.06404C54.2063 6.06404 55.1888 7.13443 55.1888 8.96342H49.6629ZM52.6499 4.0146C48.7489 4.0146 47.2131 6.64814 47.2131 9.96842C47.2131 13.782 49.1959 16.059 53.2977 16.059C54.6111 16.059 55.7934 15.8574 56.9055 15.3452C57.0621 14.6125 57.197 13.7626 57.2834 13.1142C56.0579 13.6718 54.6975 13.9636 53.3625 13.9636C51.1788 13.9636 50.0192 13.004 49.7082 11.0194H57.5317C57.618 10.371 57.6666 9.8128 57.6666 9.12553C57.6611 6.31044 56.1496 4.0146 52.6498 4.0146H52.6499ZM10.1605 13.6913C9.49324 13.8274 8.75472 13.9117 8.11286 13.9117C4.7239 13.9117 2.5855 11.9465 2.5855 7.95789C2.5855 4.29989 4.56841 2.22451 8.22298 2.22451C9.78476 2.22451 11.0097 2.49089 12.098 2.84751C12.3183 2.15319 12.4997 1.32973 12.545 0.597058C11.3854 0.201009 9.93375 0 8.22298 0C3.00669 0 0 2.89938 0 8.04866C0 12.777 2.74104 16.1432 7.93147 16.1432C9.60337 16.1432 11.3854 15.8315 12.6557 15.3193V7.38081H10.1605V13.6913ZM39.904 4.0146C38.7244 4.0146 37.0071 4.261 35.4454 4.6376V15.7861H37.8947V6.29099C38.5625 6.18077 39.2556 6.116 39.8322 6.116C42.282 6.116 42.865 6.96594 42.865 8.72361V15.7927H45.3143L45.3143 8.29567C45.3198 5.59729 44.0057 4.01469 39.904 4.01469" fill="#ED1C24"/>
</svg>
